G04*
G04 #@! TF.GenerationSoftware,Altium Limited,Altium Designer,23.3.1 (30)*
G04*
G04 Layer_Color=8421504*
%FSLAX25Y25*%
%MOIN*%
G70*
G04*
G04 #@! TF.SameCoordinates,D048E5A0-3BFD-467D-8461-715AC76033F9*
G04*
G04*
G04 #@! TF.FilePolarity,Positive*
G04*
G01*
G75*
%ADD12C,0.00787*%
%ADD24C,0.03937*%
%ADD25R,0.04134X0.04134*%
%ADD26R,0.04134X0.04134*%
G04:AMPARAMS|DCode=27|XSize=31.58mil|YSize=38.27mil|CornerRadius=7.89mil|HoleSize=0mil|Usage=FLASHONLY|Rotation=90.000|XOffset=0mil|YOffset=0mil|HoleType=Round|Shape=RoundedRectangle|*
%AMROUNDEDRECTD27*
21,1,0.03158,0.02248,0,0,90.0*
21,1,0.01579,0.03827,0,0,90.0*
1,1,0.01579,0.01124,0.00789*
1,1,0.01579,0.01124,-0.00789*
1,1,0.01579,-0.01124,-0.00789*
1,1,0.01579,-0.01124,0.00789*
%
%ADD27ROUNDEDRECTD27*%
%ADD28R,0.01181X0.01968*%
G04:AMPARAMS|DCode=29|XSize=23.62mil|YSize=23.62mil|CornerRadius=2.36mil|HoleSize=0mil|Usage=FLASHONLY|Rotation=315.000|XOffset=0mil|YOffset=0mil|HoleType=Round|Shape=RoundedRectangle|*
%AMROUNDEDRECTD29*
21,1,0.02362,0.01890,0,0,315.0*
21,1,0.01890,0.02362,0,0,315.0*
1,1,0.00472,0.00000,-0.01336*
1,1,0.00472,-0.01336,0.00000*
1,1,0.00472,0.00000,0.01336*
1,1,0.00472,0.01336,0.00000*
%
%ADD29ROUNDEDRECTD29*%
G04:AMPARAMS|DCode=30|XSize=57.09mil|YSize=11.81mil|CornerRadius=2.95mil|HoleSize=0mil|Usage=FLASHONLY|Rotation=270.000|XOffset=0mil|YOffset=0mil|HoleType=Round|Shape=RoundedRectangle|*
%AMROUNDEDRECTD30*
21,1,0.05709,0.00591,0,0,270.0*
21,1,0.05118,0.01181,0,0,270.0*
1,1,0.00591,-0.00295,-0.02559*
1,1,0.00591,-0.00295,0.02559*
1,1,0.00591,0.00295,0.02559*
1,1,0.00591,0.00295,-0.02559*
%
%ADD30ROUNDEDRECTD30*%
G04:AMPARAMS|DCode=31|XSize=23.62mil|YSize=43.31mil|CornerRadius=5.91mil|HoleSize=0mil|Usage=FLASHONLY|Rotation=180.000|XOffset=0mil|YOffset=0mil|HoleType=Round|Shape=RoundedRectangle|*
%AMROUNDEDRECTD31*
21,1,0.02362,0.03150,0,0,180.0*
21,1,0.01181,0.04331,0,0,180.0*
1,1,0.01181,-0.00591,0.01575*
1,1,0.01181,0.00591,0.01575*
1,1,0.01181,0.00591,-0.01575*
1,1,0.01181,-0.00591,-0.01575*
%
%ADD31ROUNDEDRECTD31*%
G04:AMPARAMS|DCode=32|XSize=23.62mil|YSize=23.62mil|CornerRadius=2.36mil|HoleSize=0mil|Usage=FLASHONLY|Rotation=225.000|XOffset=0mil|YOffset=0mil|HoleType=Round|Shape=RoundedRectangle|*
%AMROUNDEDRECTD32*
21,1,0.02362,0.01890,0,0,225.0*
21,1,0.01890,0.02362,0,0,225.0*
1,1,0.00472,-0.01336,0.00000*
1,1,0.00472,0.00000,0.01336*
1,1,0.00472,0.01336,0.00000*
1,1,0.00472,0.00000,-0.01336*
%
%ADD32ROUNDEDRECTD32*%
G04:AMPARAMS|DCode=33|XSize=31.5mil|YSize=31.5mil|CornerRadius=3.15mil|HoleSize=0mil|Usage=FLASHONLY|Rotation=180.000|XOffset=0mil|YOffset=0mil|HoleType=Round|Shape=RoundedRectangle|*
%AMROUNDEDRECTD33*
21,1,0.03150,0.02520,0,0,180.0*
21,1,0.02520,0.03150,0,0,180.0*
1,1,0.00630,-0.01260,0.01260*
1,1,0.00630,0.01260,0.01260*
1,1,0.00630,0.01260,-0.01260*
1,1,0.00630,-0.01260,-0.01260*
%
%ADD33ROUNDEDRECTD33*%
G04:AMPARAMS|DCode=34|XSize=23.62mil|YSize=23.62mil|CornerRadius=2.36mil|HoleSize=0mil|Usage=FLASHONLY|Rotation=180.000|XOffset=0mil|YOffset=0mil|HoleType=Round|Shape=RoundedRectangle|*
%AMROUNDEDRECTD34*
21,1,0.02362,0.01890,0,0,180.0*
21,1,0.01890,0.02362,0,0,180.0*
1,1,0.00472,-0.00945,0.00945*
1,1,0.00472,0.00945,0.00945*
1,1,0.00472,0.00945,-0.00945*
1,1,0.00472,-0.00945,-0.00945*
%
%ADD34ROUNDEDRECTD34*%
G04:AMPARAMS|DCode=35|XSize=23.62mil|YSize=23.62mil|CornerRadius=2.36mil|HoleSize=0mil|Usage=FLASHONLY|Rotation=90.000|XOffset=0mil|YOffset=0mil|HoleType=Round|Shape=RoundedRectangle|*
%AMROUNDEDRECTD35*
21,1,0.02362,0.01890,0,0,90.0*
21,1,0.01890,0.02362,0,0,90.0*
1,1,0.00472,0.00945,0.00945*
1,1,0.00472,0.00945,-0.00945*
1,1,0.00472,-0.00945,-0.00945*
1,1,0.00472,-0.00945,0.00945*
%
%ADD35ROUNDEDRECTD35*%
G04:AMPARAMS|DCode=36|XSize=23.62mil|YSize=27.56mil|CornerRadius=2.95mil|HoleSize=0mil|Usage=FLASHONLY|Rotation=270.000|XOffset=0mil|YOffset=0mil|HoleType=Round|Shape=RoundedRectangle|*
%AMROUNDEDRECTD36*
21,1,0.02362,0.02165,0,0,270.0*
21,1,0.01772,0.02756,0,0,270.0*
1,1,0.00591,-0.01083,-0.00886*
1,1,0.00591,-0.01083,0.00886*
1,1,0.00591,0.01083,0.00886*
1,1,0.00591,0.01083,-0.00886*
%
%ADD36ROUNDEDRECTD36*%
G04:AMPARAMS|DCode=37|XSize=25.59mil|YSize=47.24mil|CornerRadius=3.2mil|HoleSize=0mil|Usage=FLASHONLY|Rotation=180.000|XOffset=0mil|YOffset=0mil|HoleType=Round|Shape=RoundedRectangle|*
%AMROUNDEDRECTD37*
21,1,0.02559,0.04085,0,0,180.0*
21,1,0.01919,0.04724,0,0,180.0*
1,1,0.00640,-0.00960,0.02042*
1,1,0.00640,0.00960,0.02042*
1,1,0.00640,0.00960,-0.02042*
1,1,0.00640,-0.00960,-0.02042*
%
%ADD37ROUNDEDRECTD37*%
G04:AMPARAMS|DCode=38|XSize=25.59mil|YSize=47.24mil|CornerRadius=3.2mil|HoleSize=0mil|Usage=FLASHONLY|Rotation=270.000|XOffset=0mil|YOffset=0mil|HoleType=Round|Shape=RoundedRectangle|*
%AMROUNDEDRECTD38*
21,1,0.02559,0.04085,0,0,270.0*
21,1,0.01919,0.04724,0,0,270.0*
1,1,0.00640,-0.02042,-0.00960*
1,1,0.00640,-0.02042,0.00960*
1,1,0.00640,0.02042,0.00960*
1,1,0.00640,0.02042,-0.00960*
%
%ADD38ROUNDEDRECTD38*%
G04:AMPARAMS|DCode=39|XSize=43.31mil|YSize=43.31mil|CornerRadius=5.41mil|HoleSize=0mil|Usage=FLASHONLY|Rotation=0.000|XOffset=0mil|YOffset=0mil|HoleType=Round|Shape=RoundedRectangle|*
%AMROUNDEDRECTD39*
21,1,0.04331,0.03248,0,0,0.0*
21,1,0.03248,0.04331,0,0,0.0*
1,1,0.01083,0.01624,-0.01624*
1,1,0.01083,-0.01624,-0.01624*
1,1,0.01083,-0.01624,0.01624*
1,1,0.01083,0.01624,0.01624*
%
%ADD39ROUNDEDRECTD39*%
G04:AMPARAMS|DCode=40|XSize=43.31mil|YSize=43.31mil|CornerRadius=5.41mil|HoleSize=0mil|Usage=FLASHONLY|Rotation=90.000|XOffset=0mil|YOffset=0mil|HoleType=Round|Shape=RoundedRectangle|*
%AMROUNDEDRECTD40*
21,1,0.04331,0.03248,0,0,90.0*
21,1,0.03248,0.04331,0,0,90.0*
1,1,0.01083,0.01624,0.01624*
1,1,0.01083,0.01624,-0.01624*
1,1,0.01083,-0.01624,-0.01624*
1,1,0.01083,-0.01624,0.01624*
%
%ADD40ROUNDEDRECTD40*%
G04:AMPARAMS|DCode=41|XSize=23.62mil|YSize=39.37mil|CornerRadius=5.91mil|HoleSize=0mil|Usage=FLASHONLY|Rotation=270.000|XOffset=0mil|YOffset=0mil|HoleType=Round|Shape=RoundedRectangle|*
%AMROUNDEDRECTD41*
21,1,0.02362,0.02756,0,0,270.0*
21,1,0.01181,0.03937,0,0,270.0*
1,1,0.01181,-0.01378,-0.00591*
1,1,0.01181,-0.01378,0.00591*
1,1,0.01181,0.01378,0.00591*
1,1,0.01181,0.01378,-0.00591*
%
%ADD41ROUNDEDRECTD41*%
G04:AMPARAMS|DCode=42|XSize=31.58mil|YSize=38.27mil|CornerRadius=7.89mil|HoleSize=0mil|Usage=FLASHONLY|Rotation=180.000|XOffset=0mil|YOffset=0mil|HoleType=Round|Shape=RoundedRectangle|*
%AMROUNDEDRECTD42*
21,1,0.03158,0.02248,0,0,180.0*
21,1,0.01579,0.03827,0,0,180.0*
1,1,0.01579,-0.00789,0.01124*
1,1,0.01579,0.00789,0.01124*
1,1,0.01579,0.00789,-0.01124*
1,1,0.01579,-0.00789,-0.01124*
%
%ADD42ROUNDEDRECTD42*%
G04:AMPARAMS|DCode=43|XSize=35mil|YSize=35mil|CornerRadius=3.5mil|HoleSize=0mil|Usage=FLASHONLY|Rotation=180.000|XOffset=0mil|YOffset=0mil|HoleType=Round|Shape=RoundedRectangle|*
%AMROUNDEDRECTD43*
21,1,0.03500,0.02800,0,0,180.0*
21,1,0.02800,0.03500,0,0,180.0*
1,1,0.00700,-0.01400,0.01400*
1,1,0.00700,0.01400,0.01400*
1,1,0.00700,0.01400,-0.01400*
1,1,0.00700,-0.01400,-0.01400*
%
%ADD43ROUNDEDRECTD43*%
G04:AMPARAMS|DCode=44|XSize=35mil|YSize=35mil|CornerRadius=3.5mil|HoleSize=0mil|Usage=FLASHONLY|Rotation=270.000|XOffset=0mil|YOffset=0mil|HoleType=Round|Shape=RoundedRectangle|*
%AMROUNDEDRECTD44*
21,1,0.03500,0.02800,0,0,270.0*
21,1,0.02800,0.03500,0,0,270.0*
1,1,0.00700,-0.01400,-0.01400*
1,1,0.00700,-0.01400,0.01400*
1,1,0.00700,0.01400,0.01400*
1,1,0.00700,0.01400,-0.01400*
%
%ADD44ROUNDEDRECTD44*%
G04:AMPARAMS|DCode=45|XSize=42.5mil|YSize=55mil|CornerRadius=4.25mil|HoleSize=0mil|Usage=FLASHONLY|Rotation=0.000|XOffset=0mil|YOffset=0mil|HoleType=Round|Shape=RoundedRectangle|*
%AMROUNDEDRECTD45*
21,1,0.04250,0.04650,0,0,0.0*
21,1,0.03400,0.05500,0,0,0.0*
1,1,0.00850,0.01700,-0.02325*
1,1,0.00850,-0.01700,-0.02325*
1,1,0.00850,-0.01700,0.02325*
1,1,0.00850,0.01700,0.02325*
%
%ADD45ROUNDEDRECTD45*%
G04:AMPARAMS|DCode=46|XSize=20mil|YSize=20mil|CornerRadius=5mil|HoleSize=0mil|Usage=FLASHONLY|Rotation=45.000|XOffset=0mil|YOffset=0mil|HoleType=Round|Shape=RoundedRectangle|*
%AMROUNDEDRECTD46*
21,1,0.02000,0.01000,0,0,45.0*
21,1,0.01000,0.02000,0,0,45.0*
1,1,0.01000,0.00707,0.00000*
1,1,0.01000,0.00000,-0.00707*
1,1,0.01000,-0.00707,0.00000*
1,1,0.01000,0.00000,0.00707*
%
%ADD46ROUNDEDRECTD46*%
G04:AMPARAMS|DCode=47|XSize=20mil|YSize=20mil|CornerRadius=5mil|HoleSize=0mil|Usage=FLASHONLY|Rotation=270.000|XOffset=0mil|YOffset=0mil|HoleType=Round|Shape=RoundedRectangle|*
%AMROUNDEDRECTD47*
21,1,0.02000,0.01000,0,0,270.0*
21,1,0.01000,0.02000,0,0,270.0*
1,1,0.01000,-0.00500,-0.00500*
1,1,0.01000,-0.00500,0.00500*
1,1,0.01000,0.00500,0.00500*
1,1,0.01000,0.00500,-0.00500*
%
%ADD47ROUNDEDRECTD47*%
G04:AMPARAMS|DCode=48|XSize=20mil|YSize=20mil|CornerRadius=5mil|HoleSize=0mil|Usage=FLASHONLY|Rotation=0.000|XOffset=0mil|YOffset=0mil|HoleType=Round|Shape=RoundedRectangle|*
%AMROUNDEDRECTD48*
21,1,0.02000,0.01000,0,0,0.0*
21,1,0.01000,0.02000,0,0,0.0*
1,1,0.01000,0.00500,-0.00500*
1,1,0.01000,-0.00500,-0.00500*
1,1,0.01000,-0.00500,0.00500*
1,1,0.01000,0.00500,0.00500*
%
%ADD48ROUNDEDRECTD48*%
G04:AMPARAMS|DCode=49|XSize=20mil|YSize=20mil|CornerRadius=5mil|HoleSize=0mil|Usage=FLASHONLY|Rotation=315.000|XOffset=0mil|YOffset=0mil|HoleType=Round|Shape=RoundedRectangle|*
%AMROUNDEDRECTD49*
21,1,0.02000,0.01000,0,0,315.0*
21,1,0.01000,0.02000,0,0,315.0*
1,1,0.01000,0.00000,-0.00707*
1,1,0.01000,-0.00707,0.00000*
1,1,0.01000,0.00000,0.00707*
1,1,0.01000,0.00707,0.00000*
%
%ADD49ROUNDEDRECTD49*%
G04:AMPARAMS|DCode=50|XSize=31.5mil|YSize=11.81mil|CornerRadius=2.95mil|HoleSize=0mil|Usage=FLASHONLY|Rotation=90.000|XOffset=0mil|YOffset=0mil|HoleType=Round|Shape=RoundedRectangle|*
%AMROUNDEDRECTD50*
21,1,0.03150,0.00591,0,0,90.0*
21,1,0.02559,0.01181,0,0,90.0*
1,1,0.00591,0.00295,0.01280*
1,1,0.00591,0.00295,-0.01280*
1,1,0.00591,-0.00295,-0.01280*
1,1,0.00591,-0.00295,0.01280*
%
%ADD50ROUNDEDRECTD50*%
G04:AMPARAMS|DCode=51|XSize=31.5mil|YSize=11.81mil|CornerRadius=2.95mil|HoleSize=0mil|Usage=FLASHONLY|Rotation=180.000|XOffset=0mil|YOffset=0mil|HoleType=Round|Shape=RoundedRectangle|*
%AMROUNDEDRECTD51*
21,1,0.03150,0.00591,0,0,180.0*
21,1,0.02559,0.01181,0,0,180.0*
1,1,0.00591,-0.01280,0.00295*
1,1,0.00591,0.01280,0.00295*
1,1,0.00591,0.01280,-0.00295*
1,1,0.00591,-0.01280,-0.00295*
%
%ADD51ROUNDEDRECTD51*%
G04:AMPARAMS|DCode=52|XSize=23.62mil|YSize=27.56mil|CornerRadius=2.95mil|HoleSize=0mil|Usage=FLASHONLY|Rotation=180.000|XOffset=0mil|YOffset=0mil|HoleType=Round|Shape=RoundedRectangle|*
%AMROUNDEDRECTD52*
21,1,0.02362,0.02165,0,0,180.0*
21,1,0.01772,0.02756,0,0,180.0*
1,1,0.00591,-0.00886,0.01083*
1,1,0.00591,0.00886,0.01083*
1,1,0.00591,0.00886,-0.01083*
1,1,0.00591,-0.00886,-0.01083*
%
%ADD52ROUNDEDRECTD52*%
G04:AMPARAMS|DCode=53|XSize=35.43mil|YSize=31.5mil|CornerRadius=3.94mil|HoleSize=0mil|Usage=FLASHONLY|Rotation=270.000|XOffset=0mil|YOffset=0mil|HoleType=Round|Shape=RoundedRectangle|*
%AMROUNDEDRECTD53*
21,1,0.03543,0.02362,0,0,270.0*
21,1,0.02756,0.03150,0,0,270.0*
1,1,0.00787,-0.01181,-0.01378*
1,1,0.00787,-0.01181,0.01378*
1,1,0.00787,0.01181,0.01378*
1,1,0.00787,0.01181,-0.01378*
%
%ADD53ROUNDEDRECTD53*%
%ADD54R,0.04370X0.06693*%
G04:AMPARAMS|DCode=55|XSize=50mil|YSize=80mil|CornerRadius=5mil|HoleSize=0mil|Usage=FLASHONLY|Rotation=270.000|XOffset=0mil|YOffset=0mil|HoleType=Round|Shape=RoundedRectangle|*
%AMROUNDEDRECTD55*
21,1,0.05000,0.07000,0,0,270.0*
21,1,0.04000,0.08000,0,0,270.0*
1,1,0.01000,-0.03500,-0.02000*
1,1,0.01000,-0.03500,0.02000*
1,1,0.01000,0.03500,0.02000*
1,1,0.01000,0.03500,-0.02000*
%
%ADD55ROUNDEDRECTD55*%
G04:AMPARAMS|DCode=56|XSize=23.62mil|YSize=39.37mil|CornerRadius=5.91mil|HoleSize=0mil|Usage=FLASHONLY|Rotation=0.000|XOffset=0mil|YOffset=0mil|HoleType=Round|Shape=RoundedRectangle|*
%AMROUNDEDRECTD56*
21,1,0.02362,0.02756,0,0,0.0*
21,1,0.01181,0.03937,0,0,0.0*
1,1,0.01181,0.00591,-0.01378*
1,1,0.01181,-0.00591,-0.01378*
1,1,0.01181,-0.00591,0.01378*
1,1,0.01181,0.00591,0.01378*
%
%ADD56ROUNDEDRECTD56*%
G04:AMPARAMS|DCode=57|XSize=35mil|YSize=35mil|CornerRadius=4.38mil|HoleSize=0mil|Usage=FLASHONLY|Rotation=270.000|XOffset=0mil|YOffset=0mil|HoleType=Round|Shape=RoundedRectangle|*
%AMROUNDEDRECTD57*
21,1,0.03500,0.02625,0,0,270.0*
21,1,0.02625,0.03500,0,0,270.0*
1,1,0.00875,-0.01313,-0.01313*
1,1,0.00875,-0.01313,0.01313*
1,1,0.00875,0.01313,0.01313*
1,1,0.00875,0.01313,-0.01313*
%
%ADD57ROUNDEDRECTD57*%
G04:AMPARAMS|DCode=58|XSize=35mil|YSize=35mil|CornerRadius=4.38mil|HoleSize=0mil|Usage=FLASHONLY|Rotation=180.000|XOffset=0mil|YOffset=0mil|HoleType=Round|Shape=RoundedRectangle|*
%AMROUNDEDRECTD58*
21,1,0.03500,0.02625,0,0,180.0*
21,1,0.02625,0.03500,0,0,180.0*
1,1,0.00875,-0.01313,0.01313*
1,1,0.00875,0.01313,0.01313*
1,1,0.00875,0.01313,-0.01313*
1,1,0.00875,-0.01313,-0.01313*
%
%ADD58ROUNDEDRECTD58*%
G04:AMPARAMS|DCode=59|XSize=35mil|YSize=35mil|CornerRadius=3.5mil|HoleSize=0mil|Usage=FLASHONLY|Rotation=315.000|XOffset=0mil|YOffset=0mil|HoleType=Round|Shape=RoundedRectangle|*
%AMROUNDEDRECTD59*
21,1,0.03500,0.02800,0,0,315.0*
21,1,0.02800,0.03500,0,0,315.0*
1,1,0.00700,0.00000,-0.01980*
1,1,0.00700,-0.01980,0.00000*
1,1,0.00700,0.00000,0.01980*
1,1,0.00700,0.01980,0.00000*
%
%ADD59ROUNDEDRECTD59*%
G04:AMPARAMS|DCode=60|XSize=39.37mil|YSize=70.87mil|CornerRadius=4.92mil|HoleSize=0mil|Usage=FLASHONLY|Rotation=0.000|XOffset=0mil|YOffset=0mil|HoleType=Round|Shape=RoundedRectangle|*
%AMROUNDEDRECTD60*
21,1,0.03937,0.06102,0,0,0.0*
21,1,0.02953,0.07087,0,0,0.0*
1,1,0.00984,0.01476,-0.03051*
1,1,0.00984,-0.01476,-0.03051*
1,1,0.00984,-0.01476,0.03051*
1,1,0.00984,0.01476,0.03051*
%
%ADD60ROUNDEDRECTD60*%
G04:AMPARAMS|DCode=61|XSize=45.28mil|YSize=55.12mil|CornerRadius=11.32mil|HoleSize=0mil|Usage=FLASHONLY|Rotation=90.000|XOffset=0mil|YOffset=0mil|HoleType=Round|Shape=RoundedRectangle|*
%AMROUNDEDRECTD61*
21,1,0.04528,0.03248,0,0,90.0*
21,1,0.02264,0.05512,0,0,90.0*
1,1,0.02264,0.01624,0.01132*
1,1,0.02264,0.01624,-0.01132*
1,1,0.02264,-0.01624,-0.01132*
1,1,0.02264,-0.01624,0.01132*
%
%ADD61ROUNDEDRECTD61*%
D12*
X188976Y1575D02*
G03*
X198425Y11024I0J9449D01*
G01*
Y253937D02*
G03*
X188976Y263386I-9449J0D01*
G01*
X11024D02*
G03*
X1575Y253937I0J-9449D01*
G01*
Y11024D02*
G03*
X11024Y1575I9449J0D01*
G01*
X1575Y11024D02*
Y253937D01*
X11024Y263386D02*
X188976D01*
X198425Y11024D02*
Y253937D01*
X11024Y1575D02*
X188976D01*
D24*
X27992Y234142D02*
Y238472D01*
Y251583D02*
Y253945D01*
X62008Y251583D02*
Y253945D01*
Y234142D02*
Y238472D01*
X137992Y234142D02*
Y238472D01*
Y251583D02*
Y253945D01*
X172008Y251583D02*
Y253945D01*
Y234142D02*
Y238472D01*
D25*
X102658Y97343D02*
D03*
X102658Y102659D02*
D03*
X102658Y92029D02*
D03*
X102657Y107973D02*
D03*
D26*
X97342Y97343D02*
D03*
X97342Y102658D02*
D03*
X107972Y97343D02*
D03*
X92027D02*
D03*
X107972Y102658D02*
D03*
X92027D02*
D03*
X97342Y92028D02*
D03*
X97342Y107973D02*
D03*
X107972Y92028D02*
D03*
X92027D02*
D03*
X107972Y107973D02*
D03*
X92027Y107973D02*
D03*
D27*
X48016Y53740D02*
D03*
Y46260D02*
D03*
X54984Y50000D02*
D03*
D28*
X43917Y201933D02*
D03*
X46083D02*
D03*
Y206067D02*
D03*
X43917D02*
D03*
D29*
X82108Y138392D02*
D03*
X79108Y135392D02*
D03*
X84892Y135608D02*
D03*
X81892Y132608D02*
D03*
D30*
X44016Y232705D02*
D03*
X47953D02*
D03*
X45984D02*
D03*
X42047D02*
D03*
X58287D02*
D03*
X57106D02*
D03*
X55089D02*
D03*
X53908D02*
D03*
X51890D02*
D03*
X49921D02*
D03*
X40079D02*
D03*
X38110D02*
D03*
X36092D02*
D03*
X34911D02*
D03*
X32894D02*
D03*
X31713D02*
D03*
X168287D02*
D03*
X167106D02*
D03*
X165089D02*
D03*
X163908D02*
D03*
X161890D02*
D03*
X159921D02*
D03*
X157953D02*
D03*
X155984D02*
D03*
X154016D02*
D03*
X152047D02*
D03*
X150079D02*
D03*
X148110D02*
D03*
X146092D02*
D03*
X144911D02*
D03*
X142894D02*
D03*
X141713D02*
D03*
D31*
X48740Y222512D02*
D03*
Y211488D02*
D03*
X41260Y222512D02*
D03*
Y211488D02*
D03*
X45000Y222512D02*
D03*
Y211488D02*
D03*
D32*
X88108Y132608D02*
D03*
X84892Y129392D02*
D03*
X82108Y126608D02*
D03*
X90892Y135392D02*
D03*
D33*
X5000Y23000D02*
D03*
X11000D02*
D03*
Y28000D02*
D03*
X5000D02*
D03*
D34*
X19969D02*
D03*
X16032D02*
D03*
X166969Y37000D02*
D03*
X163031D02*
D03*
X163063Y33000D02*
D03*
X167000D02*
D03*
X163031Y29000D02*
D03*
X166969D02*
D03*
X174969Y37000D02*
D03*
X171031D02*
D03*
X19969Y23000D02*
D03*
X16032D02*
D03*
X185031Y160000D02*
D03*
X188969D02*
D03*
X184968Y183000D02*
D03*
X181032D02*
D03*
Y187000D02*
D03*
X184968D02*
D03*
X166969Y178000D02*
D03*
X163031D02*
D03*
X176969Y195000D02*
D03*
X173031D02*
D03*
X165032D02*
D03*
X168968D02*
D03*
X176969Y199000D02*
D03*
X173031D02*
D03*
X165032D02*
D03*
X168968D02*
D03*
X137031Y219000D02*
D03*
X140969D02*
D03*
X35032Y200000D02*
D03*
X38969D02*
D03*
X102032Y223000D02*
D03*
X105968D02*
D03*
X29032Y25000D02*
D03*
X32969D02*
D03*
X77031Y60000D02*
D03*
X80968D02*
D03*
X72969D02*
D03*
X69032D02*
D03*
X103032D02*
D03*
X106968D02*
D03*
X96969D02*
D03*
X93032D02*
D03*
X100031Y144000D02*
D03*
X103969D02*
D03*
X92032D02*
D03*
X95969D02*
D03*
X85532Y120000D02*
D03*
X89468D02*
D03*
X79969Y88000D02*
D03*
X76032D02*
D03*
X98032Y219000D02*
D03*
X101969D02*
D03*
X171031Y25000D02*
D03*
X174969D02*
D03*
X166969D02*
D03*
X163031D02*
D03*
X62968Y219000D02*
D03*
X59031D02*
D03*
D35*
X175000Y29032D02*
D03*
Y32969D02*
D03*
X171000D02*
D03*
Y29032D02*
D03*
X150500Y100531D02*
D03*
Y104469D02*
D03*
X190000Y183031D02*
D03*
Y186969D02*
D03*
X195000Y183031D02*
D03*
Y186969D02*
D03*
Y193032D02*
D03*
Y196968D02*
D03*
X84000Y208032D02*
D03*
Y211968D02*
D03*
X94000Y223031D02*
D03*
Y226969D02*
D03*
X90000Y223031D02*
D03*
Y226969D02*
D03*
X111000Y208032D02*
D03*
Y211968D02*
D03*
X53000Y215032D02*
D03*
Y218969D02*
D03*
X98000Y223031D02*
D03*
Y226969D02*
D03*
X102000Y230968D02*
D03*
Y227031D02*
D03*
X177000Y233032D02*
D03*
Y236968D02*
D03*
X181000Y233032D02*
D03*
Y236968D02*
D03*
X85000Y223031D02*
D03*
Y226969D02*
D03*
Y231031D02*
D03*
Y234968D02*
D03*
Y242969D02*
D03*
Y239032D02*
D03*
X120000Y110531D02*
D03*
Y114469D02*
D03*
X130000Y114032D02*
D03*
Y117968D02*
D03*
Y105532D02*
D03*
Y109468D02*
D03*
X100000Y139969D02*
D03*
Y136031D02*
D03*
X96000Y139969D02*
D03*
Y136031D02*
D03*
X70000Y75532D02*
D03*
Y79469D02*
D03*
X155000Y110531D02*
D03*
Y114469D02*
D03*
X18917Y236937D02*
D03*
Y233000D02*
D03*
X155000Y100531D02*
D03*
Y104469D02*
D03*
X23000Y233032D02*
D03*
Y236968D02*
D03*
X145000Y110531D02*
D03*
Y114469D02*
D03*
D36*
X180000Y29244D02*
D03*
Y34756D02*
D03*
D37*
X193232Y39465D02*
D03*
Y22535D02*
D03*
X184768Y39465D02*
D03*
Y22535D02*
D03*
D38*
X177465Y6768D02*
D03*
X160535D02*
D03*
X177465Y15232D02*
D03*
X160535D02*
D03*
X39465Y6768D02*
D03*
X22535D02*
D03*
X39465Y15232D02*
D03*
X22535D02*
D03*
D39*
X49488Y155000D02*
D03*
X133488Y225000D02*
D03*
X78512Y258000D02*
D03*
X68000Y249512D02*
D03*
X66512Y225000D02*
D03*
D40*
X60512Y155000D02*
D03*
X144512Y225000D02*
D03*
X67488Y258000D02*
D03*
X68000Y238488D02*
D03*
X55488Y225000D02*
D03*
D41*
X163685Y183260D02*
D03*
Y190740D02*
D03*
X174315D02*
D03*
Y187000D02*
D03*
Y183260D02*
D03*
X105157Y206260D02*
D03*
Y210000D02*
D03*
Y213740D02*
D03*
X94842D02*
D03*
Y206260D02*
D03*
D42*
X187000Y177984D02*
D03*
X190740Y171016D02*
D03*
X183260D02*
D03*
X186000Y198984D02*
D03*
X189740Y192016D02*
D03*
X182260D02*
D03*
D43*
X184000Y165000D02*
D03*
X190000D02*
D03*
D44*
X116000Y249000D02*
D03*
Y243000D02*
D03*
Y207000D02*
D03*
Y213000D02*
D03*
X89000D02*
D03*
Y207000D02*
D03*
X75000Y82000D02*
D03*
Y76000D02*
D03*
X135000Y110500D02*
D03*
Y104500D02*
D03*
Y116000D02*
D03*
Y122000D02*
D03*
D45*
X123626Y222000D02*
D03*
X116374D02*
D03*
X123626Y236000D02*
D03*
X116374D02*
D03*
X123626Y229000D02*
D03*
X116374D02*
D03*
D46*
X112086Y72914D02*
D03*
Y77914D02*
D03*
X117086D02*
D03*
X122086Y82914D02*
D03*
Y87914D02*
D03*
X127086D02*
D03*
X132086Y92914D02*
D03*
X114914Y70086D02*
D03*
Y75086D02*
D03*
X119914D02*
D03*
X124914Y80086D02*
D03*
Y85086D02*
D03*
X129914D02*
D03*
X134914Y90086D02*
D03*
D47*
X137500Y92500D02*
D03*
X138000Y100000D02*
D03*
X141500Y92500D02*
D03*
X142000Y100000D02*
D03*
D48*
X125000Y113000D02*
D03*
Y117000D02*
D03*
D49*
X112586Y122586D02*
D03*
Y127586D02*
D03*
X115414Y125414D02*
D03*
Y130414D02*
D03*
D50*
X104921Y86221D02*
D03*
X106890D02*
D03*
X108858D02*
D03*
Y113780D02*
D03*
X106890Y113780D02*
D03*
X89173D02*
D03*
X91142D02*
D03*
X93110D02*
D03*
X95079D02*
D03*
X97047D02*
D03*
X99016D02*
D03*
X100984D02*
D03*
X102953D02*
D03*
X104921D02*
D03*
X110827Y113780D02*
D03*
Y86221D02*
D03*
X102953D02*
D03*
X100984D02*
D03*
X99016D02*
D03*
X97047D02*
D03*
X95079D02*
D03*
X93110D02*
D03*
X91142D02*
D03*
X89173D02*
D03*
D51*
X113779Y89173D02*
D03*
Y91142D02*
D03*
Y93110D02*
D03*
Y97047D02*
D03*
Y99016D02*
D03*
Y100984D02*
D03*
Y106890D02*
D03*
X86220Y89173D02*
D03*
X86220Y91142D02*
D03*
X86220Y93110D02*
D03*
X86220Y95079D02*
D03*
X86220Y97047D02*
D03*
X86220Y99016D02*
D03*
Y100984D02*
D03*
X86220Y102953D02*
D03*
X86220Y104921D02*
D03*
X86220Y106890D02*
D03*
X86220Y108858D02*
D03*
X86220Y110827D02*
D03*
X113779D02*
D03*
Y108858D02*
D03*
Y104921D02*
D03*
Y102953D02*
D03*
Y95079D02*
D03*
D52*
X33756Y20000D02*
D03*
X28244D02*
D03*
X172756D02*
D03*
X167244D02*
D03*
D53*
X151000Y214472D02*
D03*
Y223528D02*
D03*
X159000Y214472D02*
D03*
Y223528D02*
D03*
D54*
X94146Y254000D02*
D03*
X109854Y254000D02*
D03*
D55*
X77000Y237500D02*
D03*
Y250500D02*
D03*
D56*
X97740Y231842D02*
D03*
X90260D02*
D03*
Y242158D02*
D03*
X94000D02*
D03*
X97740D02*
D03*
X94000Y231842D02*
D03*
D57*
X140000Y122000D02*
D03*
Y116000D02*
D03*
X150000Y109500D02*
D03*
Y115500D02*
D03*
D58*
X146000Y105000D02*
D03*
X140000D02*
D03*
D59*
X80121Y121879D02*
D03*
X75879Y126121D02*
D03*
D60*
X79921Y52500D02*
D03*
X70079D02*
D03*
D61*
X104331Y53150D02*
D03*
Y46850D02*
D03*
X95669Y53150D02*
D03*
Y46850D02*
D03*
M02*
