G04*
G04 #@! TF.GenerationSoftware,Altium Limited,Altium Designer,23.3.1 (30)*
G04*
G04 Layer_Color=2752767*
%FSLAX25Y25*%
%MOIN*%
G70*
G04*
G04 #@! TF.SameCoordinates,D048E5A0-3BFD-467D-8461-715AC76033F9*
G04*
G04*
G04 #@! TF.FilePolarity,Positive*
G04*
G01*
G75*
%ADD12C,0.00787*%
%ADD16C,0.00591*%
%ADD129C,0.00200*%
%ADD130C,0.00267*%
%ADD131C,0.00945*%
%ADD132C,0.00333*%
%ADD133C,0.00827*%
D12*
X188976Y1575D02*
G03*
X198425Y11024I0J9449D01*
G01*
Y253937D02*
G03*
X188976Y263386I-9449J0D01*
G01*
X11024D02*
G03*
X1575Y253937I0J-9449D01*
G01*
Y11024D02*
G03*
X11024Y1575I9449J0D01*
G01*
X1575Y11024D02*
Y253937D01*
X11024Y263386D02*
X188976D01*
X198425Y11024D02*
Y253937D01*
X11024Y1575D02*
X188976D01*
D16*
X27201Y323688D02*
X25364D01*
X27201Y325525D01*
Y325984D01*
X26742Y326443D01*
X25824D01*
X25364Y325984D01*
X28119Y323688D02*
X29038D01*
X28579D01*
Y326443D01*
X28119Y325984D01*
X30415Y326443D02*
X32252D01*
Y325984D01*
X30415Y324147D01*
Y323688D01*
X57954D02*
X58873D01*
X58413D01*
Y326443D01*
X57954Y325984D01*
X60250Y323688D02*
X61168D01*
X60709D01*
Y326443D01*
X60250Y325984D01*
X62546Y323688D02*
Y324147D01*
X63005D01*
Y323688D01*
X62546D01*
X64842Y325984D02*
X65301Y326443D01*
X66219D01*
X66679Y325984D01*
Y325525D01*
X66219Y325065D01*
X66679Y324606D01*
Y324147D01*
X66219Y323688D01*
X65301D01*
X64842Y324147D01*
Y324606D01*
X65301Y325065D01*
X64842Y325525D01*
Y325984D01*
X65301Y325065D02*
X66219D01*
X67597Y323688D02*
X68515D01*
X68056D01*
Y326443D01*
X67597Y325984D01*
X69893Y323688D02*
X70811D01*
X70352D01*
Y326443D01*
X69893Y325984D01*
X72189Y323688D02*
Y325525D01*
X72648D01*
X73107Y325065D01*
Y323688D01*
Y325065D01*
X73566Y325525D01*
X74025Y325065D01*
Y323688D01*
X74944D02*
X75862D01*
X75403D01*
Y325525D01*
X74944D01*
X77239Y323688D02*
X78158D01*
X77699D01*
Y326443D01*
X77239D01*
X83209Y323688D02*
X82290Y324606D01*
Y325525D01*
X83209Y326443D01*
X84586Y325984D02*
X85045Y326443D01*
X85964D01*
X86423Y325984D01*
Y324147D01*
X85964Y323688D01*
X85045D01*
X84586Y324147D01*
Y325984D01*
X87341Y323688D02*
Y324147D01*
X87800D01*
Y323688D01*
X87341D01*
X89637Y325984D02*
X90096Y326443D01*
X91014D01*
X91474Y325984D01*
Y325525D01*
X91014Y325065D01*
X90555D01*
X91014D01*
X91474Y324606D01*
Y324147D01*
X91014Y323688D01*
X90096D01*
X89637Y324147D01*
X92392Y323688D02*
Y325525D01*
X92851D01*
X93310Y325065D01*
Y323688D01*
Y325065D01*
X93770Y325525D01*
X94229Y325065D01*
Y323688D01*
X95147D02*
Y325525D01*
X95606D01*
X96065Y325065D01*
Y323688D01*
Y325065D01*
X96525Y325525D01*
X96984Y325065D01*
Y323688D01*
X97902D02*
X98820Y324606D01*
Y325525D01*
X97902Y326443D01*
X229558Y323688D02*
Y326443D01*
X230936D01*
X231395Y325984D01*
Y325065D01*
X230936Y324606D01*
X229558D01*
X232313Y326443D02*
X234150D01*
X233232D01*
Y323688D01*
X235068Y326443D02*
Y323688D01*
Y325065D01*
X236905D01*
Y326443D01*
Y323688D01*
X253332D02*
Y326443D01*
X254710D01*
X255169Y325984D01*
Y325065D01*
X254710Y324606D01*
X253332D01*
X254251D02*
X255169Y323688D01*
X256546D02*
X257465D01*
X257924Y324147D01*
Y325065D01*
X257465Y325525D01*
X256546D01*
X256087Y325065D01*
Y324147D01*
X256546Y323688D01*
X258842Y325525D02*
Y324147D01*
X259301Y323688D01*
X260679D01*
Y325525D01*
X261597Y323688D02*
Y325525D01*
X262975D01*
X263434Y325065D01*
Y323688D01*
X266189Y326443D02*
Y323688D01*
X264811D01*
X264352Y324147D01*
Y325065D01*
X264811Y325525D01*
X266189D01*
X26742Y318176D02*
Y320931D01*
X25364Y319554D01*
X27201D01*
X59791Y318176D02*
X57954D01*
X59791Y320013D01*
Y320472D01*
X59332Y320931D01*
X58413D01*
X57954Y320472D01*
X62546Y320931D02*
X60709D01*
Y319554D01*
X61628Y320013D01*
X62087D01*
X62546Y319554D01*
Y318635D01*
X62087Y318176D01*
X61168D01*
X60709Y318635D01*
X63464Y318176D02*
Y318635D01*
X63924D01*
Y318176D01*
X63464D01*
X67597Y320931D02*
X65760D01*
Y319554D01*
X66679Y320013D01*
X67138D01*
X67597Y319554D01*
Y318635D01*
X67138Y318176D01*
X66219D01*
X65760Y318635D01*
X68515D02*
X68974Y318176D01*
X69893D01*
X70352Y318635D01*
Y320472D01*
X69893Y320931D01*
X68974D01*
X68515Y320472D01*
Y320013D01*
X68974Y319554D01*
X70352D01*
X71270Y318176D02*
X72189D01*
X71729D01*
Y320931D01*
X71270Y320472D01*
X73566Y318176D02*
Y320013D01*
X74025D01*
X74484Y319554D01*
Y318176D01*
Y319554D01*
X74944Y320013D01*
X75403Y319554D01*
Y318176D01*
X76321D02*
X77239D01*
X76780D01*
Y320013D01*
X76321D01*
X78617Y318176D02*
X79535D01*
X79076D01*
Y320931D01*
X78617D01*
X84586Y318176D02*
X83668Y319095D01*
Y320013D01*
X84586Y320931D01*
X85964Y320472D02*
X86423Y320931D01*
X87341D01*
X87800Y320472D01*
Y318635D01*
X87341Y318176D01*
X86423D01*
X85964Y318635D01*
Y320472D01*
X88719Y318176D02*
Y318635D01*
X89178D01*
Y318176D01*
X88719D01*
X92851Y320931D02*
X91933Y320472D01*
X91014Y319554D01*
Y318635D01*
X91474Y318176D01*
X92392D01*
X92851Y318635D01*
Y319095D01*
X92392Y319554D01*
X91014D01*
X95606Y320931D02*
X93770D01*
Y319554D01*
X94688Y320013D01*
X95147D01*
X95606Y319554D01*
Y318635D01*
X95147Y318176D01*
X94229D01*
X93770Y318635D01*
X96525Y318176D02*
Y320013D01*
X96984D01*
X97443Y319554D01*
Y318176D01*
Y319554D01*
X97902Y320013D01*
X98361Y319554D01*
Y318176D01*
X99280D02*
Y320013D01*
X99739D01*
X100198Y319554D01*
Y318176D01*
Y319554D01*
X100657Y320013D01*
X101116Y319554D01*
Y318176D01*
X102035D02*
X102953Y319095D01*
Y320013D01*
X102035Y320931D01*
X229558Y318176D02*
Y320931D01*
X230936D01*
X231395Y320472D01*
Y319554D01*
X230936Y319095D01*
X229558D01*
X232313Y320931D02*
X234150D01*
X233232D01*
Y318176D01*
X235068Y320931D02*
Y318176D01*
Y319554D01*
X236905D01*
Y320931D01*
Y318176D01*
X253332D02*
Y320931D01*
X254710D01*
X255169Y320472D01*
Y319554D01*
X254710Y319095D01*
X253332D01*
X254251D02*
X255169Y318176D01*
X256546D02*
X257465D01*
X257924Y318635D01*
Y319554D01*
X257465Y320013D01*
X256546D01*
X256087Y319554D01*
Y318635D01*
X256546Y318176D01*
X258842Y320013D02*
Y318635D01*
X259301Y318176D01*
X260679D01*
Y320013D01*
X261597Y318176D02*
Y320013D01*
X262975D01*
X263434Y319554D01*
Y318176D01*
X266189Y320931D02*
Y318176D01*
X264811D01*
X264352Y318635D01*
Y319554D01*
X264811Y320013D01*
X266189D01*
X26742Y312664D02*
Y315419D01*
X25364Y314042D01*
X27201D01*
X57954Y314960D02*
X58413Y315419D01*
X59332D01*
X59791Y314960D01*
Y314501D01*
X59332Y314042D01*
X58873D01*
X59332D01*
X59791Y313583D01*
Y313124D01*
X59332Y312664D01*
X58413D01*
X57954Y313124D01*
X60709D02*
X61168Y312664D01*
X62087D01*
X62546Y313124D01*
Y314960D01*
X62087Y315419D01*
X61168D01*
X60709Y314960D01*
Y314501D01*
X61168Y314042D01*
X62546D01*
X63464Y312664D02*
Y313124D01*
X63924D01*
Y312664D01*
X63464D01*
X65760Y314960D02*
X66219Y315419D01*
X67138D01*
X67597Y314960D01*
Y314501D01*
X67138Y314042D01*
X66679D01*
X67138D01*
X67597Y313583D01*
Y313124D01*
X67138Y312664D01*
X66219D01*
X65760Y313124D01*
X68515Y315419D02*
X70352D01*
Y314960D01*
X68515Y313124D01*
Y312664D01*
X71270D02*
Y314501D01*
X71729D01*
X72189Y314042D01*
Y312664D01*
Y314042D01*
X72648Y314501D01*
X73107Y314042D01*
Y312664D01*
X74025D02*
X74944D01*
X74484D01*
Y314501D01*
X74025D01*
X76321Y312664D02*
X77239D01*
X76780D01*
Y315419D01*
X76321D01*
X82290Y312664D02*
X81372Y313583D01*
Y314501D01*
X82290Y315419D01*
X83668Y312664D02*
X84586D01*
X84127D01*
Y315419D01*
X83668Y314960D01*
X85964Y312664D02*
Y314501D01*
X86423D01*
X86882Y314042D01*
Y312664D01*
Y314042D01*
X87341Y314501D01*
X87800Y314042D01*
Y312664D01*
X88719D02*
Y314501D01*
X89178D01*
X89637Y314042D01*
Y312664D01*
Y314042D01*
X90096Y314501D01*
X90555Y314042D01*
Y312664D01*
X91474D02*
X92392Y313583D01*
Y314501D01*
X91474Y315419D01*
X229558Y312664D02*
Y315419D01*
X230936D01*
X231395Y314960D01*
Y314042D01*
X230936Y313583D01*
X229558D01*
X232313Y315419D02*
X234150D01*
X233232D01*
Y312664D01*
X235068Y315419D02*
Y312664D01*
Y314042D01*
X236905D01*
Y315419D01*
Y312664D01*
X253332D02*
Y315419D01*
X254710D01*
X255169Y314960D01*
Y314042D01*
X254710Y313583D01*
X253332D01*
X254251D02*
X255169Y312664D01*
X256546D02*
X257465D01*
X257924Y313124D01*
Y314042D01*
X257465Y314501D01*
X256546D01*
X256087Y314042D01*
Y313124D01*
X256546Y312664D01*
X258842Y314501D02*
Y313124D01*
X259301Y312664D01*
X260679D01*
Y314501D01*
X261597Y312664D02*
Y314501D01*
X262975D01*
X263434Y314042D01*
Y312664D01*
X266189Y315419D02*
Y312664D01*
X264811D01*
X264352Y313124D01*
Y314042D01*
X264811Y314501D01*
X266189D01*
X25364Y307153D02*
X26283D01*
X25824D01*
Y309908D01*
X25364Y309448D01*
X27660Y307153D02*
X28579D01*
X28119D01*
Y309908D01*
X27660Y309448D01*
X29956Y307153D02*
X30874D01*
X30415D01*
Y309908D01*
X29956Y309448D01*
X59332Y307153D02*
Y309908D01*
X57954Y308530D01*
X59791D01*
X60709Y309448D02*
X61168Y309908D01*
X62087D01*
X62546Y309448D01*
Y307612D01*
X62087Y307153D01*
X61168D01*
X60709Y307612D01*
Y309448D01*
X63464Y307153D02*
Y308989D01*
X63924D01*
X64383Y308530D01*
Y307153D01*
Y308530D01*
X64842Y308989D01*
X65301Y308530D01*
Y307153D01*
X66219D02*
X67138D01*
X66679D01*
Y308989D01*
X66219D01*
X68515Y307153D02*
X69433D01*
X68974D01*
Y309908D01*
X68515D01*
X74484Y307153D02*
X73566Y308071D01*
Y308989D01*
X74484Y309908D01*
X75862Y307153D02*
X76780D01*
X76321D01*
Y309908D01*
X75862Y309448D01*
X78158Y307153D02*
Y307612D01*
X78617D01*
Y307153D01*
X78158D01*
X80454Y309448D02*
X80913Y309908D01*
X81831D01*
X82290Y309448D01*
Y307612D01*
X81831Y307153D01*
X80913D01*
X80454Y307612D01*
Y309448D01*
X83209Y307153D02*
X84127D01*
X83668D01*
Y309908D01*
X83209Y309448D01*
X87341Y309908D02*
X86423Y309448D01*
X85505Y308530D01*
Y307612D01*
X85964Y307153D01*
X86882D01*
X87341Y307612D01*
Y308071D01*
X86882Y308530D01*
X85505D01*
X88260Y307153D02*
Y308989D01*
X88719D01*
X89178Y308530D01*
Y307153D01*
Y308530D01*
X89637Y308989D01*
X90096Y308530D01*
Y307153D01*
X91014D02*
Y308989D01*
X91474D01*
X91933Y308530D01*
Y307153D01*
Y308530D01*
X92392Y308989D01*
X92851Y308530D01*
Y307153D01*
X93770D02*
X94688Y308071D01*
Y308989D01*
X93770Y309908D01*
X229558Y307153D02*
Y309908D01*
X230936D01*
X231395Y309448D01*
Y308530D01*
X230936Y308071D01*
X229558D01*
X232313Y309908D02*
X234150D01*
X233232D01*
Y307153D01*
X235068Y309908D02*
Y307153D01*
Y308530D01*
X236905D01*
Y309908D01*
Y307153D01*
X253332D02*
Y309908D01*
X254710D01*
X255169Y309448D01*
Y308530D01*
X254710Y308071D01*
X253332D01*
X254251D02*
X255169Y307153D01*
X256546D02*
X257465D01*
X257924Y307612D01*
Y308530D01*
X257465Y308989D01*
X256546D01*
X256087Y308530D01*
Y307612D01*
X256546Y307153D01*
X258842Y308989D02*
Y307612D01*
X259301Y307153D01*
X260679D01*
Y308989D01*
X261597Y307153D02*
Y308989D01*
X262975D01*
X263434Y308530D01*
Y307153D01*
X266189Y309908D02*
Y307153D01*
X264811D01*
X264352Y307612D01*
Y308530D01*
X264811Y308989D01*
X266189D01*
X26742Y301641D02*
Y304396D01*
X25364Y303018D01*
X27201D01*
X57954Y303937D02*
X58413Y304396D01*
X59332D01*
X59791Y303937D01*
Y303477D01*
X59332Y303018D01*
X59791Y302559D01*
Y302100D01*
X59332Y301641D01*
X58413D01*
X57954Y302100D01*
Y302559D01*
X58413Y303018D01*
X57954Y303477D01*
Y303937D01*
X58413Y303018D02*
X59332D01*
X62546Y301641D02*
X60709D01*
X62546Y303477D01*
Y303937D01*
X62087Y304396D01*
X61168D01*
X60709Y303937D01*
X63464Y301641D02*
Y302100D01*
X63924D01*
Y301641D01*
X63464D01*
X67597Y304396D02*
X66679Y303937D01*
X65760Y303018D01*
Y302100D01*
X66219Y301641D01*
X67138D01*
X67597Y302100D01*
Y302559D01*
X67138Y303018D01*
X65760D01*
X68515Y304396D02*
X70352D01*
Y303937D01*
X68515Y302100D01*
Y301641D01*
X71270Y304396D02*
X73107D01*
Y303937D01*
X71270Y302100D01*
Y301641D01*
X74025D02*
Y303477D01*
X74484D01*
X74944Y303018D01*
Y301641D01*
Y303018D01*
X75403Y303477D01*
X75862Y303018D01*
Y301641D01*
X76780D02*
X77699D01*
X77239D01*
Y303477D01*
X76780D01*
X79076Y301641D02*
X79994D01*
X79535D01*
Y304396D01*
X79076D01*
X85045Y301641D02*
X84127Y302559D01*
Y303477D01*
X85045Y304396D01*
X88260Y301641D02*
X86423D01*
X88260Y303477D01*
Y303937D01*
X87800Y304396D01*
X86882D01*
X86423Y303937D01*
X89178Y301641D02*
Y302100D01*
X89637D01*
Y301641D01*
X89178D01*
X91474D02*
X92392D01*
X91933D01*
Y304396D01*
X91474Y303937D01*
X93770Y301641D02*
Y303477D01*
X94229D01*
X94688Y303018D01*
Y301641D01*
Y303018D01*
X95147Y303477D01*
X95606Y303018D01*
Y301641D01*
X96525D02*
Y303477D01*
X96984D01*
X97443Y303018D01*
Y301641D01*
Y303018D01*
X97902Y303477D01*
X98361Y303018D01*
Y301641D01*
X99280D02*
X100198Y302559D01*
Y303477D01*
X99280Y304396D01*
X229558Y301641D02*
Y304396D01*
X230936D01*
X231395Y303937D01*
Y303018D01*
X230936Y302559D01*
X229558D01*
X232313Y304396D02*
X234150D01*
X233232D01*
Y301641D01*
X235068Y304396D02*
Y301641D01*
Y303018D01*
X236905D01*
Y304396D01*
Y301641D01*
X253332D02*
Y304396D01*
X254710D01*
X255169Y303937D01*
Y303018D01*
X254710Y302559D01*
X253332D01*
X254251D02*
X255169Y301641D01*
X256546D02*
X257465D01*
X257924Y302100D01*
Y303018D01*
X257465Y303477D01*
X256546D01*
X256087Y303018D01*
Y302100D01*
X256546Y301641D01*
X258842Y303477D02*
Y302100D01*
X259301Y301641D01*
X260679D01*
Y303477D01*
X261597Y301641D02*
Y303477D01*
X262975D01*
X263434Y303018D01*
Y301641D01*
X266189Y304396D02*
Y301641D01*
X264811D01*
X264352Y302100D01*
Y303018D01*
X264811Y303477D01*
X266189D01*
X26742Y296129D02*
Y298884D01*
X25364Y297506D01*
X27201D01*
X59791Y296129D02*
X57954D01*
X59791Y297966D01*
Y298425D01*
X59332Y298884D01*
X58413D01*
X57954Y298425D01*
X60709D02*
X61168Y298884D01*
X62087D01*
X62546Y298425D01*
Y297966D01*
X62087Y297506D01*
X61628D01*
X62087D01*
X62546Y297047D01*
Y296588D01*
X62087Y296129D01*
X61168D01*
X60709Y296588D01*
X63464Y296129D02*
Y296588D01*
X63924D01*
Y296129D01*
X63464D01*
X67597Y298884D02*
X66679Y298425D01*
X65760Y297506D01*
Y296588D01*
X66219Y296129D01*
X67138D01*
X67597Y296588D01*
Y297047D01*
X67138Y297506D01*
X65760D01*
X70352Y296129D02*
X68515D01*
X70352Y297966D01*
Y298425D01*
X69893Y298884D01*
X68974D01*
X68515Y298425D01*
X73107Y296129D02*
X71270D01*
X73107Y297966D01*
Y298425D01*
X72648Y298884D01*
X71729D01*
X71270Y298425D01*
X74025Y296129D02*
Y297966D01*
X74484D01*
X74944Y297506D01*
Y296129D01*
Y297506D01*
X75403Y297966D01*
X75862Y297506D01*
Y296129D01*
X76780D02*
X77699D01*
X77239D01*
Y297966D01*
X76780D01*
X79076Y296129D02*
X79994D01*
X79535D01*
Y298884D01*
X79076D01*
X85045Y296129D02*
X84127Y297047D01*
Y297966D01*
X85045Y298884D01*
X86423Y298425D02*
X86882Y298884D01*
X87800D01*
X88260Y298425D01*
Y296588D01*
X87800Y296129D01*
X86882D01*
X86423Y296588D01*
Y298425D01*
X89178Y296129D02*
Y296588D01*
X89637D01*
Y296129D01*
X89178D01*
X93310Y298884D02*
X92392Y298425D01*
X91474Y297506D01*
Y296588D01*
X91933Y296129D01*
X92851D01*
X93310Y296588D01*
Y297047D01*
X92851Y297506D01*
X91474D01*
X94229Y296129D02*
Y297966D01*
X94688D01*
X95147Y297506D01*
Y296129D01*
Y297506D01*
X95606Y297966D01*
X96065Y297506D01*
Y296129D01*
X96984D02*
Y297966D01*
X97443D01*
X97902Y297506D01*
Y296129D01*
Y297506D01*
X98361Y297966D01*
X98820Y297506D01*
Y296129D01*
X99739D02*
X100657Y297047D01*
Y297966D01*
X99739Y298884D01*
X121676Y296129D02*
Y298884D01*
X120298Y297506D01*
X122135D01*
X123053Y298884D02*
X124890D01*
Y298425D01*
X123053Y296588D01*
Y296129D01*
X125808D02*
Y296588D01*
X126268D01*
Y296129D01*
X125808D01*
X129941D02*
X128104D01*
X129941Y297966D01*
Y298425D01*
X129482Y298884D01*
X128563D01*
X128104Y298425D01*
X132237Y296129D02*
Y298884D01*
X130859Y297506D01*
X132696D01*
X134992Y296129D02*
Y298884D01*
X133614Y297506D01*
X135451D01*
X136369Y296129D02*
Y297966D01*
X136828D01*
X137288Y297506D01*
Y296129D01*
Y297506D01*
X137747Y297966D01*
X138206Y297506D01*
Y296129D01*
X139124D02*
X140043D01*
X139584D01*
Y297966D01*
X139124D01*
X141420Y296129D02*
X142339D01*
X141879D01*
Y298884D01*
X141420D01*
X147389Y296129D02*
X146471Y297047D01*
Y297966D01*
X147389Y298884D01*
X148767Y296129D02*
X149685D01*
X149226D01*
Y298884D01*
X148767Y298425D01*
X151063Y296129D02*
Y296588D01*
X151522D01*
Y296129D01*
X151063D01*
X155195D02*
X153359D01*
X155195Y297966D01*
Y298425D01*
X154736Y298884D01*
X153818D01*
X153359Y298425D01*
X156114Y296129D02*
Y297966D01*
X156573D01*
X157032Y297506D01*
Y296129D01*
Y297506D01*
X157491Y297966D01*
X157950Y297506D01*
Y296129D01*
X158869D02*
Y297966D01*
X159328D01*
X159787Y297506D01*
Y296129D01*
Y297506D01*
X160246Y297966D01*
X160705Y297506D01*
Y296129D01*
X161624D02*
X162542Y297047D01*
Y297966D01*
X161624Y298884D01*
X175112Y296129D02*
X173275D01*
X175112Y297966D01*
Y298425D01*
X174653Y298884D01*
X173734D01*
X173275Y298425D01*
X176030D02*
X176490Y298884D01*
X177408D01*
X177867Y298425D01*
Y297966D01*
X177408Y297506D01*
X176949D01*
X177408D01*
X177867Y297047D01*
Y296588D01*
X177408Y296129D01*
X176490D01*
X176030Y296588D01*
X178785Y296129D02*
Y296588D01*
X179245D01*
Y296129D01*
X178785D01*
X182918Y298884D02*
X182000Y298425D01*
X181081Y297506D01*
Y296588D01*
X181540Y296129D01*
X182459D01*
X182918Y296588D01*
Y297047D01*
X182459Y297506D01*
X181081D01*
X185673Y296129D02*
X183836D01*
X185673Y297966D01*
Y298425D01*
X185214Y298884D01*
X184295D01*
X183836Y298425D01*
X188428Y296129D02*
X186591D01*
X188428Y297966D01*
Y298425D01*
X187969Y298884D01*
X187050D01*
X186591Y298425D01*
X189346Y296129D02*
Y297966D01*
X189805D01*
X190265Y297506D01*
Y296129D01*
Y297506D01*
X190724Y297966D01*
X191183Y297506D01*
Y296129D01*
X192101D02*
X193020D01*
X192561D01*
Y297966D01*
X192101D01*
X194397Y296129D02*
X195316D01*
X194856D01*
Y298884D01*
X194397D01*
X200366Y296129D02*
X199448Y297047D01*
Y297966D01*
X200366Y298884D01*
X201744Y298425D02*
X202203Y298884D01*
X203121D01*
X203581Y298425D01*
Y296588D01*
X203121Y296129D01*
X202203D01*
X201744Y296588D01*
Y298425D01*
X204499Y296129D02*
Y296588D01*
X204958D01*
Y296129D01*
X204499D01*
X208631Y298884D02*
X207713Y298425D01*
X206795Y297506D01*
Y296588D01*
X207254Y296129D01*
X208172D01*
X208631Y296588D01*
Y297047D01*
X208172Y297506D01*
X206795D01*
X209550Y296129D02*
Y297966D01*
X210009D01*
X210468Y297506D01*
Y296129D01*
Y297506D01*
X210927Y297966D01*
X211386Y297506D01*
Y296129D01*
X212305D02*
Y297966D01*
X212764D01*
X213223Y297506D01*
Y296129D01*
Y297506D01*
X213682Y297966D01*
X214142Y297506D01*
Y296129D01*
X215060D02*
X215978Y297047D01*
Y297966D01*
X215060Y298884D01*
X229558Y296129D02*
Y298884D01*
X230936D01*
X231395Y298425D01*
Y297506D01*
X230936Y297047D01*
X229558D01*
X232313Y298884D02*
X234150D01*
X233232D01*
Y296129D01*
X235068Y298884D02*
Y296129D01*
Y297506D01*
X236905D01*
Y298884D01*
Y296129D01*
X255169Y298425D02*
X254710Y298884D01*
X253791D01*
X253332Y298425D01*
Y297966D01*
X253791Y297506D01*
X254710D01*
X255169Y297047D01*
Y296588D01*
X254710Y296129D01*
X253791D01*
X253332Y296588D01*
X256087Y296129D02*
X257006D01*
X256546D01*
Y298884D01*
X256087D01*
X258842Y296129D02*
X259761D01*
X260220Y296588D01*
Y297506D01*
X259761Y297966D01*
X258842D01*
X258383Y297506D01*
Y296588D01*
X258842Y296129D01*
X261597Y298425D02*
Y297966D01*
X261138D01*
X262056D01*
X261597D01*
Y296588D01*
X262056Y296129D01*
X26742Y290617D02*
Y293372D01*
X25364Y291995D01*
X27201D01*
X59791Y290617D02*
X57954D01*
X59791Y292454D01*
Y292913D01*
X59332Y293372D01*
X58413D01*
X57954Y292913D01*
X60709D02*
X61168Y293372D01*
X62087D01*
X62546Y292913D01*
Y292454D01*
X62087Y291995D01*
X61628D01*
X62087D01*
X62546Y291535D01*
Y291076D01*
X62087Y290617D01*
X61168D01*
X60709Y291076D01*
X63464Y290617D02*
Y291076D01*
X63924D01*
Y290617D01*
X63464D01*
X67597Y293372D02*
X66679Y292913D01*
X65760Y291995D01*
Y291076D01*
X66219Y290617D01*
X67138D01*
X67597Y291076D01*
Y291535D01*
X67138Y291995D01*
X65760D01*
X70352Y290617D02*
X68515D01*
X70352Y292454D01*
Y292913D01*
X69893Y293372D01*
X68974D01*
X68515Y292913D01*
X73107Y290617D02*
X71270D01*
X73107Y292454D01*
Y292913D01*
X72648Y293372D01*
X71729D01*
X71270Y292913D01*
X74025Y290617D02*
Y292454D01*
X74484D01*
X74944Y291995D01*
Y290617D01*
Y291995D01*
X75403Y292454D01*
X75862Y291995D01*
Y290617D01*
X76780D02*
X77699D01*
X77239D01*
Y292454D01*
X76780D01*
X79076Y290617D02*
X79994D01*
X79535D01*
Y293372D01*
X79076D01*
X85045Y290617D02*
X84127Y291535D01*
Y292454D01*
X85045Y293372D01*
X86423Y292913D02*
X86882Y293372D01*
X87800D01*
X88260Y292913D01*
Y291076D01*
X87800Y290617D01*
X86882D01*
X86423Y291076D01*
Y292913D01*
X89178Y290617D02*
Y291076D01*
X89637D01*
Y290617D01*
X89178D01*
X93310Y293372D02*
X92392Y292913D01*
X91474Y291995D01*
Y291076D01*
X91933Y290617D01*
X92851D01*
X93310Y291076D01*
Y291535D01*
X92851Y291995D01*
X91474D01*
X94229Y290617D02*
Y292454D01*
X94688D01*
X95147Y291995D01*
Y290617D01*
Y291995D01*
X95606Y292454D01*
X96065Y291995D01*
Y290617D01*
X96984D02*
Y292454D01*
X97443D01*
X97902Y291995D01*
Y290617D01*
Y291995D01*
X98361Y292454D01*
X98820Y291995D01*
Y290617D01*
X99739D02*
X100657Y291535D01*
Y292454D01*
X99739Y293372D01*
X122135D02*
X121217Y292913D01*
X120298Y291995D01*
Y291076D01*
X120757Y290617D01*
X121676D01*
X122135Y291076D01*
Y291535D01*
X121676Y291995D01*
X120298D01*
X124890Y293372D02*
X123972Y292913D01*
X123053Y291995D01*
Y291076D01*
X123513Y290617D01*
X124431D01*
X124890Y291076D01*
Y291535D01*
X124431Y291995D01*
X123053D01*
X125808Y290617D02*
Y291076D01*
X126268D01*
Y290617D01*
X125808D01*
X128104Y291076D02*
X128563Y290617D01*
X129482D01*
X129941Y291076D01*
Y292913D01*
X129482Y293372D01*
X128563D01*
X128104Y292913D01*
Y292454D01*
X128563Y291995D01*
X129941D01*
X132696Y290617D02*
X130859D01*
X132696Y292454D01*
Y292913D01*
X132237Y293372D01*
X131318D01*
X130859Y292913D01*
X133614Y291076D02*
X134073Y290617D01*
X134992D01*
X135451Y291076D01*
Y292913D01*
X134992Y293372D01*
X134073D01*
X133614Y292913D01*
Y292454D01*
X134073Y291995D01*
X135451D01*
X136369Y290617D02*
Y292454D01*
X136828D01*
X137288Y291995D01*
Y290617D01*
Y291995D01*
X137747Y292454D01*
X138206Y291995D01*
Y290617D01*
X139124D02*
X140043D01*
X139584D01*
Y292454D01*
X139124D01*
X141420Y290617D02*
X142339D01*
X141879D01*
Y293372D01*
X141420D01*
X147389Y290617D02*
X146471Y291535D01*
Y292454D01*
X147389Y293372D01*
X148767Y290617D02*
X149685D01*
X149226D01*
Y293372D01*
X148767Y292913D01*
X151063Y290617D02*
Y291076D01*
X151522D01*
Y290617D01*
X151063D01*
X153359Y293372D02*
X155195D01*
Y292913D01*
X153359Y291076D01*
Y290617D01*
X156114D02*
Y292454D01*
X156573D01*
X157032Y291995D01*
Y290617D01*
Y291995D01*
X157491Y292454D01*
X157950Y291995D01*
Y290617D01*
X158869D02*
Y292454D01*
X159328D01*
X159787Y291995D01*
Y290617D01*
Y291995D01*
X160246Y292454D01*
X160705Y291995D01*
Y290617D01*
X161624D02*
X162542Y291535D01*
Y292454D01*
X161624Y293372D01*
X174653Y290617D02*
Y293372D01*
X173275Y291995D01*
X175112D01*
X176030Y292913D02*
X176490Y293372D01*
X177408D01*
X177867Y292913D01*
Y292454D01*
X177408Y291995D01*
X176949D01*
X177408D01*
X177867Y291535D01*
Y291076D01*
X177408Y290617D01*
X176490D01*
X176030Y291076D01*
X178785Y290617D02*
Y291076D01*
X179245D01*
Y290617D01*
X178785D01*
X181081Y292913D02*
X181540Y293372D01*
X182459D01*
X182918Y292913D01*
Y292454D01*
X182459Y291995D01*
X182000D01*
X182459D01*
X182918Y291535D01*
Y291076D01*
X182459Y290617D01*
X181540D01*
X181081Y291076D01*
X183836Y292913D02*
X184295Y293372D01*
X185214D01*
X185673Y292913D01*
Y291076D01*
X185214Y290617D01*
X184295D01*
X183836Y291076D01*
Y292913D01*
X186591Y293372D02*
X188428D01*
Y292913D01*
X186591Y291076D01*
Y290617D01*
X189346D02*
Y292454D01*
X189805D01*
X190265Y291995D01*
Y290617D01*
Y291995D01*
X190724Y292454D01*
X191183Y291995D01*
Y290617D01*
X192101D02*
X193020D01*
X192561D01*
Y292454D01*
X192101D01*
X194397Y290617D02*
X195316D01*
X194856D01*
Y293372D01*
X194397D01*
X200366Y290617D02*
X199448Y291535D01*
Y292454D01*
X200366Y293372D01*
X201744Y290617D02*
X202662D01*
X202203D01*
Y293372D01*
X201744Y292913D01*
X204040Y290617D02*
Y291076D01*
X204499D01*
Y290617D01*
X204040D01*
X206336D02*
X207254D01*
X206795D01*
Y293372D01*
X206336Y292913D01*
X208631Y290617D02*
Y292454D01*
X209091D01*
X209550Y291995D01*
Y290617D01*
Y291995D01*
X210009Y292454D01*
X210468Y291995D01*
Y290617D01*
X211386D02*
Y292454D01*
X211846D01*
X212305Y291995D01*
Y290617D01*
Y291995D01*
X212764Y292454D01*
X213223Y291995D01*
Y290617D01*
X214142D02*
X215060Y291535D01*
Y292454D01*
X214142Y293372D01*
X229558Y290617D02*
Y293372D01*
X230936D01*
X231395Y292913D01*
Y291995D01*
X230936Y291535D01*
X229558D01*
X232313Y293372D02*
X234150D01*
X233232D01*
Y290617D01*
X235068Y293372D02*
Y290617D01*
Y291995D01*
X236905D01*
Y293372D01*
Y290617D01*
X255169Y292913D02*
X254710Y293372D01*
X253791D01*
X253332Y292913D01*
Y292454D01*
X253791Y291995D01*
X254710D01*
X255169Y291535D01*
Y291076D01*
X254710Y290617D01*
X253791D01*
X253332Y291076D01*
X256087Y290617D02*
X257006D01*
X256546D01*
Y293372D01*
X256087D01*
X258842Y290617D02*
X259761D01*
X260220Y291076D01*
Y291995D01*
X259761Y292454D01*
X258842D01*
X258383Y291995D01*
Y291076D01*
X258842Y290617D01*
X261597Y292913D02*
Y292454D01*
X261138D01*
X262056D01*
X261597D01*
Y291076D01*
X262056Y290617D01*
X25364Y287401D02*
X25824Y287860D01*
X26742D01*
X27201Y287401D01*
Y286942D01*
X26742Y286483D01*
X26283D01*
X26742D01*
X27201Y286024D01*
Y285564D01*
X26742Y285105D01*
X25824D01*
X25364Y285564D01*
X29497Y285105D02*
Y287860D01*
X28119Y286483D01*
X29956D01*
X30874Y287401D02*
X31334Y287860D01*
X32252D01*
X32711Y287401D01*
Y286942D01*
X32252Y286483D01*
X32711Y286024D01*
Y285564D01*
X32252Y285105D01*
X31334D01*
X30874Y285564D01*
Y286024D01*
X31334Y286483D01*
X30874Y286942D01*
Y287401D01*
X31334Y286483D02*
X32252D01*
X38144Y287860D02*
X39981D01*
X39062D01*
Y285105D01*
X41358D02*
X42277D01*
X42736Y285564D01*
Y286483D01*
X42277Y286942D01*
X41358D01*
X40899Y286483D01*
Y285564D01*
X41358Y285105D01*
X44113Y287401D02*
Y286942D01*
X43654D01*
X44572D01*
X44113D01*
Y285564D01*
X44572Y285105D01*
X46409Y286942D02*
X47328D01*
X47787Y286483D01*
Y285105D01*
X46409D01*
X45950Y285564D01*
X46409Y286024D01*
X47787D01*
X48705Y285105D02*
X49623D01*
X49164D01*
Y287860D01*
X48705D01*
X97769Y280512D02*
X99606D01*
X97769Y281430D02*
X99606D01*
X105116Y281889D02*
X104657Y282348D01*
X103739D01*
X103279Y281889D01*
Y280053D01*
X103739Y279593D01*
X104657D01*
X105116Y280053D01*
X106494Y281430D02*
X107412D01*
X107871Y280971D01*
Y279593D01*
X106494D01*
X106034Y280053D01*
X106494Y280512D01*
X107871D01*
X108789Y279593D02*
X109708D01*
X109249D01*
Y282348D01*
X108789D01*
X112922Y281430D02*
X111545D01*
X111085Y280971D01*
Y280053D01*
X111545Y279593D01*
X112922D01*
X113840Y281430D02*
Y280053D01*
X114299Y279593D01*
X115677D01*
Y281430D01*
X116595Y279593D02*
X117514D01*
X117054D01*
Y282348D01*
X116595D01*
X119350Y281430D02*
X120269D01*
X120728Y280971D01*
Y279593D01*
X119350D01*
X118891Y280053D01*
X119350Y280512D01*
X120728D01*
X122105Y281889D02*
Y281430D01*
X121646D01*
X122564D01*
X122105D01*
Y280053D01*
X122564Y279593D01*
X125320D02*
X124401D01*
X123942Y280053D01*
Y280971D01*
X124401Y281430D01*
X125320D01*
X125779Y280971D01*
Y280512D01*
X123942D01*
X128534Y282348D02*
Y279593D01*
X127156D01*
X126697Y280053D01*
Y280971D01*
X127156Y281430D01*
X128534D01*
X132666Y279593D02*
Y281889D01*
Y280971D01*
X132207D01*
X133125D01*
X132666D01*
Y281889D01*
X133125Y282348D01*
X134503Y281430D02*
Y279593D01*
Y280512D01*
X134962Y280971D01*
X135421Y281430D01*
X135880D01*
X137717Y279593D02*
X138636D01*
X139095Y280053D01*
Y280971D01*
X138636Y281430D01*
X137717D01*
X137258Y280971D01*
Y280053D01*
X137717Y279593D01*
X140013D02*
Y281430D01*
X140472D01*
X140931Y280971D01*
Y279593D01*
Y280971D01*
X141391Y281430D01*
X141850Y280971D01*
Y279593D01*
X145982Y281889D02*
Y281430D01*
X145523D01*
X146441D01*
X145982D01*
Y280053D01*
X146441Y279593D01*
X148278D02*
X149196D01*
X149656Y280053D01*
Y280971D01*
X149196Y281430D01*
X148278D01*
X147819Y280971D01*
Y280053D01*
X148278Y279593D01*
X151033D02*
X151951D01*
X152411Y280053D01*
Y280971D01*
X151951Y281430D01*
X151033D01*
X150574Y280971D01*
Y280053D01*
X151033Y279593D01*
X153329D02*
X154247D01*
X153788D01*
Y282348D01*
X153329D01*
X158380Y279593D02*
X159757D01*
X160216Y280053D01*
X159757Y280512D01*
X158839D01*
X158380Y280971D01*
X158839Y281430D01*
X160216D01*
X161594Y281889D02*
Y281430D01*
X161135D01*
X162053D01*
X161594D01*
Y280053D01*
X162053Y279593D01*
X163890Y281430D02*
X164808D01*
X165267Y280971D01*
Y279593D01*
X163890D01*
X163431Y280053D01*
X163890Y280512D01*
X165267D01*
X166186Y281430D02*
Y279593D01*
Y280512D01*
X166645Y280971D01*
X167104Y281430D01*
X167563D01*
X169400Y281889D02*
Y281430D01*
X168941D01*
X169859D01*
X169400D01*
Y280053D01*
X169859Y279593D01*
X175828Y281430D02*
X174451D01*
X173992Y280971D01*
Y280053D01*
X174451Y279593D01*
X175828D01*
X178124D02*
X177206D01*
X176747Y280053D01*
Y280971D01*
X177206Y281430D01*
X178124D01*
X178583Y280971D01*
Y280512D01*
X176747D01*
X179502Y279593D02*
Y281430D01*
X180879D01*
X181338Y280971D01*
Y279593D01*
X182716Y281889D02*
Y281430D01*
X182257D01*
X183175D01*
X182716D01*
Y280053D01*
X183175Y279593D01*
X184553Y281430D02*
Y279593D01*
Y280512D01*
X185012Y280971D01*
X185471Y281430D01*
X185930D01*
X188685Y279593D02*
X187767D01*
X187308Y280053D01*
Y280971D01*
X187767Y281430D01*
X188685D01*
X189144Y280971D01*
Y280512D01*
X187308D01*
X192818Y278675D02*
Y281430D01*
X194195D01*
X194654Y280971D01*
Y280053D01*
X194195Y279593D01*
X192818D01*
X196032D02*
X196950D01*
X197409Y280053D01*
Y280971D01*
X196950Y281430D01*
X196032D01*
X195573Y280971D01*
Y280053D01*
X196032Y279593D01*
X198328D02*
X199705D01*
X200164Y280053D01*
X199705Y280512D01*
X198787D01*
X198328Y280971D01*
X198787Y281430D01*
X200164D01*
X201083Y279593D02*
X202001D01*
X201542D01*
Y281430D01*
X201083D01*
X203838Y281889D02*
Y281430D01*
X203379D01*
X204297D01*
X203838D01*
Y280053D01*
X204297Y279593D01*
X205674D02*
X206593D01*
X206134D01*
Y281430D01*
X205674D01*
X208429Y279593D02*
X209348D01*
X209807Y280053D01*
Y280971D01*
X209348Y281430D01*
X208429D01*
X207970Y280971D01*
Y280053D01*
X208429Y279593D01*
X210725D02*
Y281430D01*
X212103D01*
X212562Y280971D01*
Y279593D01*
X216694Y281889D02*
Y281430D01*
X216235D01*
X217154D01*
X216694D01*
Y280053D01*
X217154Y279593D01*
X218990D02*
X219909D01*
X220368Y280053D01*
Y280971D01*
X219909Y281430D01*
X218990D01*
X218531Y280971D01*
Y280053D01*
X218990Y279593D01*
X224500Y281889D02*
Y281430D01*
X224041D01*
X224959D01*
X224500D01*
Y280053D01*
X224959Y279593D01*
X226796D02*
X227714D01*
X228174Y280053D01*
Y280971D01*
X227714Y281430D01*
X226796D01*
X226337Y280971D01*
Y280053D01*
X226796Y279593D01*
X229551D02*
X230469D01*
X230929Y280053D01*
Y280971D01*
X230469Y281430D01*
X229551D01*
X229092Y280971D01*
Y280053D01*
X229551Y279593D01*
X231847D02*
X232765D01*
X232306D01*
Y282348D01*
X231847D01*
X238275Y279593D02*
X237357D01*
X236898Y280053D01*
Y280971D01*
X237357Y281430D01*
X238275D01*
X238735Y280971D01*
Y280512D01*
X236898D01*
X239653Y279593D02*
Y281430D01*
X241030D01*
X241490Y280971D01*
Y279593D01*
X244245Y282348D02*
Y279593D01*
X242867D01*
X242408Y280053D01*
Y280971D01*
X242867Y281430D01*
X244245D01*
X249755D02*
X248377D01*
X247918Y280971D01*
Y280053D01*
X248377Y279593D01*
X249755D01*
X252050D02*
X251132D01*
X250673Y280053D01*
Y280971D01*
X251132Y281430D01*
X252050D01*
X252510Y280971D01*
Y280512D01*
X250673D01*
X253428Y279593D02*
Y281430D01*
X254805D01*
X255265Y280971D01*
Y279593D01*
X256642Y281889D02*
Y281430D01*
X256183D01*
X257101D01*
X256642D01*
Y280053D01*
X257101Y279593D01*
X258479Y281430D02*
Y279593D01*
Y280512D01*
X258938Y280971D01*
X259397Y281430D01*
X259856D01*
X262611Y279593D02*
X261693D01*
X261234Y280053D01*
Y280971D01*
X261693Y281430D01*
X262611D01*
X263071Y280971D01*
Y280512D01*
X261234D01*
X266744Y278675D02*
Y281430D01*
X268121D01*
X268581Y280971D01*
Y280053D01*
X268121Y279593D01*
X266744D01*
X269958D02*
X270877D01*
X271336Y280053D01*
Y280971D01*
X270877Y281430D01*
X269958D01*
X269499Y280971D01*
Y280053D01*
X269958Y279593D01*
X272254D02*
X273632D01*
X274091Y280053D01*
X273632Y280512D01*
X272713D01*
X272254Y280971D01*
X272713Y281430D01*
X274091D01*
X275009Y279593D02*
X275927D01*
X275468D01*
Y281430D01*
X275009D01*
X277764Y281889D02*
Y281430D01*
X277305D01*
X278223D01*
X277764D01*
Y280053D01*
X278223Y279593D01*
X279601D02*
X280519D01*
X280060D01*
Y281430D01*
X279601D01*
X282356Y279593D02*
X283274D01*
X283733Y280053D01*
Y280971D01*
X283274Y281430D01*
X282356D01*
X281896Y280971D01*
Y280053D01*
X282356Y279593D01*
X284651D02*
Y281430D01*
X286029D01*
X286488Y280971D01*
Y279593D01*
X287407D02*
Y280053D01*
X287866D01*
Y279593D01*
X287407D01*
X97769Y275000D02*
X99606D01*
X97769Y275918D02*
X99606D01*
X103279Y274082D02*
Y276837D01*
X104657D01*
X105116Y276378D01*
Y275459D01*
X104657Y275000D01*
X103279D01*
X104198D02*
X105116Y274082D01*
X106494D02*
X107412D01*
X107871Y274541D01*
Y275459D01*
X107412Y275918D01*
X106494D01*
X106034Y275459D01*
Y274541D01*
X106494Y274082D01*
X108789Y275918D02*
Y274541D01*
X109249Y274082D01*
X110626D01*
Y275918D01*
X112004Y276378D02*
Y275918D01*
X111545D01*
X112463D01*
X112004D01*
Y274541D01*
X112463Y274082D01*
X116595D02*
Y276837D01*
X117973D01*
X118432Y276378D01*
Y275459D01*
X117973Y275000D01*
X116595D01*
X119809Y275918D02*
X120728D01*
X121187Y275459D01*
Y274082D01*
X119809D01*
X119350Y274541D01*
X119809Y275000D01*
X121187D01*
X122564Y276378D02*
Y275918D01*
X122105D01*
X123024D01*
X122564D01*
Y274541D01*
X123024Y274082D01*
X124401Y276837D02*
Y274082D01*
Y275459D01*
X124860Y275918D01*
X125779D01*
X126238Y275459D01*
Y274082D01*
X129911Y276837D02*
Y274082D01*
X131748D01*
X134044D02*
X133125D01*
X132666Y274541D01*
Y275459D01*
X133125Y275918D01*
X134044D01*
X134503Y275459D01*
Y275000D01*
X132666D01*
X135421Y274082D02*
Y275918D01*
X136799D01*
X137258Y275459D01*
Y274082D01*
X139095Y273163D02*
X139554D01*
X140013Y273622D01*
Y275918D01*
X138636D01*
X138176Y275459D01*
Y274541D01*
X138636Y274082D01*
X140013D01*
X141391Y276378D02*
Y275918D01*
X140931D01*
X141850D01*
X141391D01*
Y274541D01*
X141850Y274082D01*
X143227Y276837D02*
Y274082D01*
Y275459D01*
X143686Y275918D01*
X144605D01*
X145064Y275459D01*
Y274082D01*
X148737Y275459D02*
X150574D01*
X149656Y276378D02*
Y274541D01*
X154247Y276837D02*
X156084D01*
X155166D01*
Y274082D01*
X157462D02*
X158380D01*
X158839Y274541D01*
Y275459D01*
X158380Y275918D01*
X157462D01*
X157002Y275459D01*
Y274541D01*
X157462Y274082D01*
X160216D02*
X161135D01*
X161594Y274541D01*
Y275459D01*
X161135Y275918D01*
X160216D01*
X159757Y275459D01*
Y274541D01*
X160216Y274082D01*
X162512D02*
X163431D01*
X162971D01*
Y276837D01*
X162512D01*
X169400Y276378D02*
X168941Y276837D01*
X168022D01*
X167563Y276378D01*
Y275918D01*
X168022Y275459D01*
X168941D01*
X169400Y275000D01*
Y274541D01*
X168941Y274082D01*
X168022D01*
X167563Y274541D01*
X170318Y274082D02*
X171237D01*
X170777D01*
Y275918D01*
X170318D01*
X172614D02*
X174451D01*
X172614Y274082D01*
X174451D01*
X176747D02*
X175828D01*
X175369Y274541D01*
Y275459D01*
X175828Y275918D01*
X176747D01*
X177206Y275459D01*
Y275000D01*
X175369D01*
X180879D02*
X182716D01*
X180879Y275918D02*
X182716D01*
X188226Y276378D02*
X187767Y276837D01*
X186848D01*
X186389Y276378D01*
Y275918D01*
X186848Y275459D01*
X187767D01*
X188226Y275000D01*
Y274541D01*
X187767Y274082D01*
X186848D01*
X186389Y274541D01*
X189144Y274082D02*
X190062D01*
X189603D01*
Y276837D01*
X189144D01*
X191899Y274082D02*
X192818D01*
X193277Y274541D01*
Y275459D01*
X192818Y275918D01*
X191899D01*
X191440Y275459D01*
Y274541D01*
X191899Y274082D01*
X194654Y276378D02*
Y275918D01*
X194195D01*
X195113D01*
X194654D01*
Y274541D01*
X195113Y274082D01*
X199246D02*
X200164D01*
X199705D01*
Y276837D01*
X199246D01*
X202919Y274082D02*
X202001D01*
X201542Y274541D01*
Y275459D01*
X202001Y275918D01*
X202919D01*
X203379Y275459D01*
Y275000D01*
X201542D01*
X204297Y274082D02*
Y275918D01*
X205674D01*
X206134Y275459D01*
Y274082D01*
X207970Y273163D02*
X208429D01*
X208889Y273622D01*
Y275918D01*
X207511D01*
X207052Y275459D01*
Y274541D01*
X207511Y274082D01*
X208889D01*
X210266Y276378D02*
Y275918D01*
X209807D01*
X210725D01*
X210266D01*
Y274541D01*
X210725Y274082D01*
X212103Y276837D02*
Y274082D01*
Y275459D01*
X212562Y275918D01*
X213480D01*
X213939Y275459D01*
Y274082D01*
X218072Y275918D02*
X218990D01*
X219449Y275459D01*
Y274082D01*
X218072D01*
X217613Y274541D01*
X218072Y275000D01*
X219449D01*
X220368Y274082D02*
X221745D01*
X222204Y274541D01*
X221745Y275000D01*
X220827D01*
X220368Y275459D01*
X220827Y275918D01*
X222204D01*
X227714Y276837D02*
Y274082D01*
X226337D01*
X225878Y274541D01*
Y275459D01*
X226337Y275918D01*
X227714D01*
X230010Y274082D02*
X229092D01*
X228633Y274541D01*
Y275459D01*
X229092Y275918D01*
X230010D01*
X230469Y275459D01*
Y275000D01*
X228633D01*
X231847Y274082D02*
Y276378D01*
Y275459D01*
X231388D01*
X232306D01*
X231847D01*
Y276378D01*
X232306Y276837D01*
X233684Y274082D02*
X234602D01*
X234143D01*
Y275918D01*
X233684D01*
X235980Y274082D02*
Y275918D01*
X237357D01*
X237816Y275459D01*
Y274082D01*
X240112D02*
X239194D01*
X238735Y274541D01*
Y275459D01*
X239194Y275918D01*
X240112D01*
X240571Y275459D01*
Y275000D01*
X238735D01*
X243326Y276837D02*
Y274082D01*
X241949D01*
X241490Y274541D01*
Y275459D01*
X241949Y275918D01*
X243326D01*
X247000Y274082D02*
X247918D01*
X247459D01*
Y275918D01*
X247000D01*
X249295Y274082D02*
Y275918D01*
X250673D01*
X251132Y275459D01*
Y274082D01*
X255265Y276378D02*
Y275918D01*
X254805D01*
X255724D01*
X255265D01*
Y274541D01*
X255724Y274082D01*
X257101Y276837D02*
Y274082D01*
Y275459D01*
X257560Y275918D01*
X258479D01*
X258938Y275459D01*
Y274082D01*
X261234D02*
X260315D01*
X259856Y274541D01*
Y275459D01*
X260315Y275918D01*
X261234D01*
X261693Y275459D01*
Y275000D01*
X259856D01*
X265366Y274082D02*
Y276837D01*
X266744D01*
X267203Y276378D01*
Y275459D01*
X266744Y275000D01*
X265366D01*
X269958Y276378D02*
X269499Y276837D01*
X268581D01*
X268121Y276378D01*
Y274541D01*
X268581Y274082D01*
X269499D01*
X269958Y274541D01*
X270877Y276837D02*
Y274082D01*
X272254D01*
X272713Y274541D01*
Y275000D01*
X272254Y275459D01*
X270877D01*
X272254D01*
X272713Y275918D01*
Y276378D01*
X272254Y276837D01*
X270877D01*
X276386Y274082D02*
X277305D01*
X276846D01*
Y276837D01*
X276386D01*
X279141Y275918D02*
X280060D01*
X280519Y275459D01*
Y274082D01*
X279141D01*
X278682Y274541D01*
X279141Y275000D01*
X280519D01*
X281437Y275918D02*
Y274541D01*
X281896Y274082D01*
X283274D01*
Y273622D01*
X282815Y273163D01*
X282356D01*
X283274Y274082D02*
Y275918D01*
X284651Y274082D02*
X285570D01*
X286029Y274541D01*
Y275459D01*
X285570Y275918D01*
X284651D01*
X284192Y275459D01*
Y274541D01*
X284651Y274082D01*
X286947Y275918D02*
Y274541D01*
X287407Y274082D01*
X288784D01*
Y275918D01*
X290162Y276378D02*
Y275918D01*
X289702D01*
X290621D01*
X290162D01*
Y274541D01*
X290621Y274082D01*
D129*
X165000Y84200D02*
X165400Y84600D01*
X165800D01*
X165400Y85000D01*
X165800Y85400D01*
X165400D01*
X165000Y85800D01*
X164600Y85400D01*
X164200D01*
X164600Y85000D01*
X164200Y84600D01*
X164600D01*
X165000Y84200D01*
X35000Y34200D02*
X35400Y34600D01*
X35800D01*
X35400Y35000D01*
X35800Y35400D01*
X35400D01*
X35000Y35800D01*
X34600Y35400D01*
X34200D01*
X34600Y35000D01*
X34200Y34600D01*
X34600D01*
X35000Y34200D01*
X25000D02*
X25400Y34600D01*
X25800D01*
X25400Y35000D01*
X25800Y35400D01*
X25400D01*
X25000Y35800D01*
X24600Y35400D01*
X24200D01*
X24600Y35000D01*
X24200Y34600D01*
X24600D01*
X25000Y34200D01*
X165000Y164200D02*
X165400Y164600D01*
X165800D01*
X165400Y165000D01*
X165800Y165400D01*
X165400D01*
X165000Y165800D01*
X164600Y165400D01*
X164200D01*
X164600Y165000D01*
X164200Y164600D01*
X164600D01*
X165000Y164200D01*
X35000D02*
X35400Y164600D01*
X35800D01*
X35400Y165000D01*
X35800Y165400D01*
X35400D01*
X35000Y165800D01*
X34600Y165400D01*
X34200D01*
X34600Y165000D01*
X34200Y164600D01*
X34600D01*
X35000Y164200D01*
Y174200D02*
X35400Y174600D01*
X35800D01*
X35400Y175000D01*
X35800Y175400D01*
X35400D01*
X35000Y175800D01*
X34600Y175400D01*
X34200D01*
X34600Y175000D01*
X34200Y174600D01*
X34600D01*
X35000Y174200D01*
X175000Y164200D02*
X175400Y164600D01*
X175800D01*
X175400Y165000D01*
X175800Y165400D01*
X175400D01*
X175000Y165800D01*
X174600Y165400D01*
X174200D01*
X174600Y165000D01*
X174200Y164600D01*
X174600D01*
X175000Y164200D01*
Y174200D02*
X175400Y174600D01*
X175800D01*
X175400Y175000D01*
X175800Y175400D01*
X175400D01*
X175000Y175800D01*
X174600Y175400D01*
X174200D01*
X174600Y175000D01*
X174200Y174600D01*
X174600D01*
X175000Y174200D01*
X165000Y154200D02*
X165400Y154600D01*
X165800D01*
X165400Y155000D01*
X165800Y155400D01*
X165400D01*
X165000Y155800D01*
X164600Y155400D01*
X164200D01*
X164600Y155000D01*
X164200Y154600D01*
X164600D01*
X165000Y154200D01*
Y144200D02*
X165400Y144600D01*
X165800D01*
X165400Y145000D01*
X165800Y145400D01*
X165400D01*
X165000Y145800D01*
X164600Y145400D01*
X164200D01*
X164600Y145000D01*
X164200Y144600D01*
X164600D01*
X165000Y144200D01*
Y124200D02*
X165400Y124600D01*
X165800D01*
X165400Y125000D01*
X165800Y125400D01*
X165400D01*
X165000Y125800D01*
X164600Y125400D01*
X164200D01*
X164600Y125000D01*
X164200Y124600D01*
X164600D01*
X165000Y124200D01*
Y114200D02*
X165400Y114600D01*
X165800D01*
X165400Y115000D01*
X165800Y115400D01*
X165400D01*
X165000Y115800D01*
X164600Y115400D01*
X164200D01*
X164600Y115000D01*
X164200Y114600D01*
X164600D01*
X165000Y114200D01*
Y74200D02*
X165400Y74600D01*
X165800D01*
X165400Y75000D01*
X165800Y75400D01*
X165400D01*
X165000Y75800D01*
X164600Y75400D01*
X164200D01*
X164600Y75000D01*
X164200Y74600D01*
X164600D01*
X165000Y74200D01*
Y134200D02*
X165400Y134600D01*
X165800D01*
X165400Y135000D01*
X165800Y135400D01*
X165400D01*
X165000Y135800D01*
X164600Y135400D01*
X164200D01*
X164600Y135000D01*
X164200Y134600D01*
X164600D01*
X165000Y134200D01*
Y104200D02*
X165400Y104600D01*
X165800D01*
X165400Y105000D01*
X165800Y105400D01*
X165400D01*
X165000Y105800D01*
X164600Y105400D01*
X164200D01*
X164600Y105000D01*
X164200Y104600D01*
X164600D01*
X165000Y104200D01*
Y94200D02*
X165400Y94600D01*
X165800D01*
X165400Y95000D01*
X165800Y95400D01*
X165400D01*
X165000Y95800D01*
X164600Y95400D01*
X164200D01*
X164600Y95000D01*
X164200Y94600D01*
X164600D01*
X165000Y94200D01*
Y64200D02*
X165400Y64600D01*
X165800D01*
X165400Y65000D01*
X165800Y65400D01*
X165400D01*
X165000Y65800D01*
X164600Y65400D01*
X164200D01*
X164600Y65000D01*
X164200Y64600D01*
X164600D01*
X165000Y64200D01*
Y54200D02*
X165400Y54600D01*
X165800D01*
X165400Y55000D01*
X165800Y55400D01*
X165400D01*
X165000Y55800D01*
X164600Y55400D01*
X164200D01*
X164600Y55000D01*
X164200Y54600D01*
X164600D01*
X165000Y54200D01*
Y44200D02*
X165400Y44600D01*
X165800D01*
X165400Y45000D01*
X165800Y45400D01*
X165400D01*
X165000Y45800D01*
X164600Y45400D01*
X164200D01*
X164600Y45000D01*
X164200Y44600D01*
X164600D01*
X165000Y44200D01*
X155000Y174200D02*
X155400Y174600D01*
X155800D01*
X155400Y175000D01*
X155800Y175400D01*
X155400D01*
X155000Y175800D01*
X154600Y175400D01*
X154200D01*
X154600Y175000D01*
X154200Y174600D01*
X154600D01*
X155000Y174200D01*
X125000D02*
X125400Y174600D01*
X125800D01*
X125400Y175000D01*
X125800Y175400D01*
X125400D01*
X125000Y175800D01*
X124600Y175400D01*
X124200D01*
X124600Y175000D01*
X124200Y174600D01*
X124600D01*
X125000Y174200D01*
X115000D02*
X115400Y174600D01*
X115800D01*
X115400Y175000D01*
X115800Y175400D01*
X115400D01*
X115000Y175800D01*
X114600Y175400D01*
X114200D01*
X114600Y175000D01*
X114200Y174600D01*
X114600D01*
X115000Y174200D01*
X105000D02*
X105400Y174600D01*
X105800D01*
X105400Y175000D01*
X105800Y175400D01*
X105400D01*
X105000Y175800D01*
X104600Y175400D01*
X104200D01*
X104600Y175000D01*
X104200Y174600D01*
X104600D01*
X105000Y174200D01*
X95000D02*
X95400Y174600D01*
X95800D01*
X95400Y175000D01*
X95800Y175400D01*
X95400D01*
X95000Y175800D01*
X94600Y175400D01*
X94200D01*
X94600Y175000D01*
X94200Y174600D01*
X94600D01*
X95000Y174200D01*
X85000D02*
X85400Y174600D01*
X85800D01*
X85400Y175000D01*
X85800Y175400D01*
X85400D01*
X85000Y175800D01*
X84600Y175400D01*
X84200D01*
X84600Y175000D01*
X84200Y174600D01*
X84600D01*
X85000Y174200D01*
X75000D02*
X75400Y174600D01*
X75800D01*
X75400Y175000D01*
X75800Y175400D01*
X75400D01*
X75000Y175800D01*
X74600Y175400D01*
X74200D01*
X74600Y175000D01*
X74200Y174600D01*
X74600D01*
X75000Y174200D01*
X65000D02*
X65400Y174600D01*
X65800D01*
X65400Y175000D01*
X65800Y175400D01*
X65400D01*
X65000Y175800D01*
X64600Y175400D01*
X64200D01*
X64600Y175000D01*
X64200Y174600D01*
X64600D01*
X65000Y174200D01*
X55000D02*
X55400Y174600D01*
X55800D01*
X55400Y175000D01*
X55800Y175400D01*
X55400D01*
X55000Y175800D01*
X54600Y175400D01*
X54200D01*
X54600Y175000D01*
X54200Y174600D01*
X54600D01*
X55000Y174200D01*
X45000D02*
X45400Y174600D01*
X45800D01*
X45400Y175000D01*
X45800Y175400D01*
X45400D01*
X45000Y175800D01*
X44600Y175400D01*
X44200D01*
X44600Y175000D01*
X44200Y174600D01*
X44600D01*
X45000Y174200D01*
X135000D02*
X135400Y174600D01*
X135800D01*
X135400Y175000D01*
X135800Y175400D01*
X135400D01*
X135000Y175800D01*
X134600Y175400D01*
X134200D01*
X134600Y175000D01*
X134200Y174600D01*
X134600D01*
X135000Y174200D01*
X145000D02*
X145400Y174600D01*
X145800D01*
X145400Y175000D01*
X145800Y175400D01*
X145400D01*
X145000Y175800D01*
X144600Y175400D01*
X144200D01*
X144600Y175000D01*
X144200Y174600D01*
X144600D01*
X145000Y174200D01*
X175000Y154200D02*
X175400Y154600D01*
X175800D01*
X175400Y155000D01*
X175800Y155400D01*
X175400D01*
X175000Y155800D01*
X174600Y155400D01*
X174200D01*
X174600Y155000D01*
X174200Y154600D01*
X174600D01*
X175000Y154200D01*
Y144200D02*
X175400Y144600D01*
X175800D01*
X175400Y145000D01*
X175800Y145400D01*
X175400D01*
X175000Y145800D01*
X174600Y145400D01*
X174200D01*
X174600Y145000D01*
X174200Y144600D01*
X174600D01*
X175000Y144200D01*
Y124200D02*
X175400Y124600D01*
X175800D01*
X175400Y125000D01*
X175800Y125400D01*
X175400D01*
X175000Y125800D01*
X174600Y125400D01*
X174200D01*
X174600Y125000D01*
X174200Y124600D01*
X174600D01*
X175000Y124200D01*
Y114200D02*
X175400Y114600D01*
X175800D01*
X175400Y115000D01*
X175800Y115400D01*
X175400D01*
X175000Y115800D01*
X174600Y115400D01*
X174200D01*
X174600Y115000D01*
X174200Y114600D01*
X174600D01*
X175000Y114200D01*
Y74200D02*
X175400Y74600D01*
X175800D01*
X175400Y75000D01*
X175800Y75400D01*
X175400D01*
X175000Y75800D01*
X174600Y75400D01*
X174200D01*
X174600Y75000D01*
X174200Y74600D01*
X174600D01*
X175000Y74200D01*
Y134200D02*
X175400Y134600D01*
X175800D01*
X175400Y135000D01*
X175800Y135400D01*
X175400D01*
X175000Y135800D01*
X174600Y135400D01*
X174200D01*
X174600Y135000D01*
X174200Y134600D01*
X174600D01*
X175000Y134200D01*
Y104200D02*
X175400Y104600D01*
X175800D01*
X175400Y105000D01*
X175800Y105400D01*
X175400D01*
X175000Y105800D01*
X174600Y105400D01*
X174200D01*
X174600Y105000D01*
X174200Y104600D01*
X174600D01*
X175000Y104200D01*
Y94200D02*
X175400Y94600D01*
X175800D01*
X175400Y95000D01*
X175800Y95400D01*
X175400D01*
X175000Y95800D01*
X174600Y95400D01*
X174200D01*
X174600Y95000D01*
X174200Y94600D01*
X174600D01*
X175000Y94200D01*
Y84200D02*
X175400Y84600D01*
X175800D01*
X175400Y85000D01*
X175800Y85400D01*
X175400D01*
X175000Y85800D01*
X174600Y85400D01*
X174200D01*
X174600Y85000D01*
X174200Y84600D01*
X174600D01*
X175000Y84200D01*
Y64200D02*
X175400Y64600D01*
X175800D01*
X175400Y65000D01*
X175800Y65400D01*
X175400D01*
X175000Y65800D01*
X174600Y65400D01*
X174200D01*
X174600Y65000D01*
X174200Y64600D01*
X174600D01*
X175000Y64200D01*
Y54200D02*
X175400Y54600D01*
X175800D01*
X175400Y55000D01*
X175800Y55400D01*
X175400D01*
X175000Y55800D01*
X174600Y55400D01*
X174200D01*
X174600Y55000D01*
X174200Y54600D01*
X174600D01*
X175000Y54200D01*
Y44200D02*
X175400Y44600D01*
X175800D01*
X175400Y45000D01*
X175800Y45400D01*
X175400D01*
X175000Y45800D01*
X174600Y45400D01*
X174200D01*
X174600Y45000D01*
X174200Y44600D01*
X174600D01*
X175000Y44200D01*
X155000Y34200D02*
X155400Y34600D01*
X155800D01*
X155400Y35000D01*
X155800Y35400D01*
X155400D01*
X155000Y35800D01*
X154600Y35400D01*
X154200D01*
X154600Y35000D01*
X154200Y34600D01*
X154600D01*
X155000Y34200D01*
X115000D02*
X115400Y34600D01*
X115800D01*
X115400Y35000D01*
X115800Y35400D01*
X115400D01*
X115000Y35800D01*
X114600Y35400D01*
X114200D01*
X114600Y35000D01*
X114200Y34600D01*
X114600D01*
X115000Y34200D01*
X105000D02*
X105400Y34600D01*
X105800D01*
X105400Y35000D01*
X105800Y35400D01*
X105400D01*
X105000Y35800D01*
X104600Y35400D01*
X104200D01*
X104600Y35000D01*
X104200Y34600D01*
X104600D01*
X105000Y34200D01*
X95000D02*
X95400Y34600D01*
X95800D01*
X95400Y35000D01*
X95800Y35400D01*
X95400D01*
X95000Y35800D01*
X94600Y35400D01*
X94200D01*
X94600Y35000D01*
X94200Y34600D01*
X94600D01*
X95000Y34200D01*
X85000D02*
X85400Y34600D01*
X85800D01*
X85400Y35000D01*
X85800Y35400D01*
X85400D01*
X85000Y35800D01*
X84600Y35400D01*
X84200D01*
X84600Y35000D01*
X84200Y34600D01*
X84600D01*
X85000Y34200D01*
X75000D02*
X75400Y34600D01*
X75800D01*
X75400Y35000D01*
X75800Y35400D01*
X75400D01*
X75000Y35800D01*
X74600Y35400D01*
X74200D01*
X74600Y35000D01*
X74200Y34600D01*
X74600D01*
X75000Y34200D01*
X65000D02*
X65400Y34600D01*
X65800D01*
X65400Y35000D01*
X65800Y35400D01*
X65400D01*
X65000Y35800D01*
X64600Y35400D01*
X64200D01*
X64600Y35000D01*
X64200Y34600D01*
X64600D01*
X65000Y34200D01*
X55000D02*
X55400Y34600D01*
X55800D01*
X55400Y35000D01*
X55800Y35400D01*
X55400D01*
X55000Y35800D01*
X54600Y35400D01*
X54200D01*
X54600Y35000D01*
X54200Y34600D01*
X54600D01*
X55000Y34200D01*
X45000D02*
X45400Y34600D01*
X45800D01*
X45400Y35000D01*
X45800Y35400D01*
X45400D01*
X45000Y35800D01*
X44600Y35400D01*
X44200D01*
X44600Y35000D01*
X44200Y34600D01*
X44600D01*
X45000Y34200D01*
X145000D02*
X145400Y34600D01*
X145800D01*
X145400Y35000D01*
X145800Y35400D01*
X145400D01*
X145000Y35800D01*
X144600Y35400D01*
X144200D01*
X144600Y35000D01*
X144200Y34600D01*
X144600D01*
X145000Y34200D01*
X135000D02*
X135400Y34600D01*
X135800D01*
X135400Y35000D01*
X135800Y35400D01*
X135400D01*
X135000Y35800D01*
X134600Y35400D01*
X134200D01*
X134600Y35000D01*
X134200Y34600D01*
X134600D01*
X135000Y34200D01*
X125000D02*
X125400Y34600D01*
X125800D01*
X125400Y35000D01*
X125800Y35400D01*
X125400D01*
X125000Y35800D01*
X124600Y35400D01*
X124200D01*
X124600Y35000D01*
X124200Y34600D01*
X124600D01*
X125000Y34200D01*
X155000Y24200D02*
X155400Y24600D01*
X155800D01*
X155400Y25000D01*
X155800Y25400D01*
X155400D01*
X155000Y25800D01*
X154600Y25400D01*
X154200D01*
X154600Y25000D01*
X154200Y24600D01*
X154600D01*
X155000Y24200D01*
X115000D02*
X115400Y24600D01*
X115800D01*
X115400Y25000D01*
X115800Y25400D01*
X115400D01*
X115000Y25800D01*
X114600Y25400D01*
X114200D01*
X114600Y25000D01*
X114200Y24600D01*
X114600D01*
X115000Y24200D01*
X105000D02*
X105400Y24600D01*
X105800D01*
X105400Y25000D01*
X105800Y25400D01*
X105400D01*
X105000Y25800D01*
X104600Y25400D01*
X104200D01*
X104600Y25000D01*
X104200Y24600D01*
X104600D01*
X105000Y24200D01*
X95000D02*
X95400Y24600D01*
X95800D01*
X95400Y25000D01*
X95800Y25400D01*
X95400D01*
X95000Y25800D01*
X94600Y25400D01*
X94200D01*
X94600Y25000D01*
X94200Y24600D01*
X94600D01*
X95000Y24200D01*
X85000D02*
X85400Y24600D01*
X85800D01*
X85400Y25000D01*
X85800Y25400D01*
X85400D01*
X85000Y25800D01*
X84600Y25400D01*
X84200D01*
X84600Y25000D01*
X84200Y24600D01*
X84600D01*
X85000Y24200D01*
X75000D02*
X75400Y24600D01*
X75800D01*
X75400Y25000D01*
X75800Y25400D01*
X75400D01*
X75000Y25800D01*
X74600Y25400D01*
X74200D01*
X74600Y25000D01*
X74200Y24600D01*
X74600D01*
X75000Y24200D01*
X65000D02*
X65400Y24600D01*
X65800D01*
X65400Y25000D01*
X65800Y25400D01*
X65400D01*
X65000Y25800D01*
X64600Y25400D01*
X64200D01*
X64600Y25000D01*
X64200Y24600D01*
X64600D01*
X65000Y24200D01*
X55000D02*
X55400Y24600D01*
X55800D01*
X55400Y25000D01*
X55800Y25400D01*
X55400D01*
X55000Y25800D01*
X54600Y25400D01*
X54200D01*
X54600Y25000D01*
X54200Y24600D01*
X54600D01*
X55000Y24200D01*
X45000D02*
X45400Y24600D01*
X45800D01*
X45400Y25000D01*
X45800Y25400D01*
X45400D01*
X45000Y25800D01*
X44600Y25400D01*
X44200D01*
X44600Y25000D01*
X44200Y24600D01*
X44600D01*
X45000Y24200D01*
X145000D02*
X145400Y24600D01*
X145800D01*
X145400Y25000D01*
X145800Y25400D01*
X145400D01*
X145000Y25800D01*
X144600Y25400D01*
X144200D01*
X144600Y25000D01*
X144200Y24600D01*
X144600D01*
X145000Y24200D01*
X135000D02*
X135400Y24600D01*
X135800D01*
X135400Y25000D01*
X135800Y25400D01*
X135400D01*
X135000Y25800D01*
X134600Y25400D01*
X134200D01*
X134600Y25000D01*
X134200Y24600D01*
X134600D01*
X135000Y24200D01*
X125000D02*
X125400Y24600D01*
X125800D01*
X125400Y25000D01*
X125800Y25400D01*
X125400D01*
X125000Y25800D01*
X124600Y25400D01*
X124200D01*
X124600Y25000D01*
X124200Y24600D01*
X124600D01*
X125000Y24200D01*
X155000Y164200D02*
X155400Y164600D01*
X155800D01*
X155400Y165000D01*
X155800Y165400D01*
X155400D01*
X155000Y165800D01*
X154600Y165400D01*
X154200D01*
X154600Y165000D01*
X154200Y164600D01*
X154600D01*
X155000Y164200D01*
X125000D02*
X125400Y164600D01*
X125800D01*
X125400Y165000D01*
X125800Y165400D01*
X125400D01*
X125000Y165800D01*
X124600Y165400D01*
X124200D01*
X124600Y165000D01*
X124200Y164600D01*
X124600D01*
X125000Y164200D01*
X115000D02*
X115400Y164600D01*
X115800D01*
X115400Y165000D01*
X115800Y165400D01*
X115400D01*
X115000Y165800D01*
X114600Y165400D01*
X114200D01*
X114600Y165000D01*
X114200Y164600D01*
X114600D01*
X115000Y164200D01*
X105000D02*
X105400Y164600D01*
X105800D01*
X105400Y165000D01*
X105800Y165400D01*
X105400D01*
X105000Y165800D01*
X104600Y165400D01*
X104200D01*
X104600Y165000D01*
X104200Y164600D01*
X104600D01*
X105000Y164200D01*
X95000D02*
X95400Y164600D01*
X95800D01*
X95400Y165000D01*
X95800Y165400D01*
X95400D01*
X95000Y165800D01*
X94600Y165400D01*
X94200D01*
X94600Y165000D01*
X94200Y164600D01*
X94600D01*
X95000Y164200D01*
X85000D02*
X85400Y164600D01*
X85800D01*
X85400Y165000D01*
X85800Y165400D01*
X85400D01*
X85000Y165800D01*
X84600Y165400D01*
X84200D01*
X84600Y165000D01*
X84200Y164600D01*
X84600D01*
X85000Y164200D01*
X75000D02*
X75400Y164600D01*
X75800D01*
X75400Y165000D01*
X75800Y165400D01*
X75400D01*
X75000Y165800D01*
X74600Y165400D01*
X74200D01*
X74600Y165000D01*
X74200Y164600D01*
X74600D01*
X75000Y164200D01*
X65000D02*
X65400Y164600D01*
X65800D01*
X65400Y165000D01*
X65800Y165400D01*
X65400D01*
X65000Y165800D01*
X64600Y165400D01*
X64200D01*
X64600Y165000D01*
X64200Y164600D01*
X64600D01*
X65000Y164200D01*
X55000D02*
X55400Y164600D01*
X55800D01*
X55400Y165000D01*
X55800Y165400D01*
X55400D01*
X55000Y165800D01*
X54600Y165400D01*
X54200D01*
X54600Y165000D01*
X54200Y164600D01*
X54600D01*
X55000Y164200D01*
X45000D02*
X45400Y164600D01*
X45800D01*
X45400Y165000D01*
X45800Y165400D01*
X45400D01*
X45000Y165800D01*
X44600Y165400D01*
X44200D01*
X44600Y165000D01*
X44200Y164600D01*
X44600D01*
X45000Y164200D01*
X135000D02*
X135400Y164600D01*
X135800D01*
X135400Y165000D01*
X135800Y165400D01*
X135400D01*
X135000Y165800D01*
X134600Y165400D01*
X134200D01*
X134600Y165000D01*
X134200Y164600D01*
X134600D01*
X135000Y164200D01*
X145000D02*
X145400Y164600D01*
X145800D01*
X145400Y165000D01*
X145800Y165400D01*
X145400D01*
X145000Y165800D01*
X144600Y165400D01*
X144200D01*
X144600Y165000D01*
X144200Y164600D01*
X144600D01*
X145000Y164200D01*
X25000Y154200D02*
X25400Y154600D01*
X25800D01*
X25400Y155000D01*
X25800Y155400D01*
X25400D01*
X25000Y155800D01*
X24600Y155400D01*
X24200D01*
X24600Y155000D01*
X24200Y154600D01*
X24600D01*
X25000Y154200D01*
Y144200D02*
X25400Y144600D01*
X25800D01*
X25400Y145000D01*
X25800Y145400D01*
X25400D01*
X25000Y145800D01*
X24600Y145400D01*
X24200D01*
X24600Y145000D01*
X24200Y144600D01*
X24600D01*
X25000Y144200D01*
Y134200D02*
X25400Y134600D01*
X25800D01*
X25400Y135000D01*
X25800Y135400D01*
X25400D01*
X25000Y135800D01*
X24600Y135400D01*
X24200D01*
X24600Y135000D01*
X24200Y134600D01*
X24600D01*
X25000Y134200D01*
Y124200D02*
X25400Y124600D01*
X25800D01*
X25400Y125000D01*
X25800Y125400D01*
X25400D01*
X25000Y125800D01*
X24600Y125400D01*
X24200D01*
X24600Y125000D01*
X24200Y124600D01*
X24600D01*
X25000Y124200D01*
Y114200D02*
X25400Y114600D01*
X25800D01*
X25400Y115000D01*
X25800Y115400D01*
X25400D01*
X25000Y115800D01*
X24600Y115400D01*
X24200D01*
X24600Y115000D01*
X24200Y114600D01*
X24600D01*
X25000Y114200D01*
Y104200D02*
X25400Y104600D01*
X25800D01*
X25400Y105000D01*
X25800Y105400D01*
X25400D01*
X25000Y105800D01*
X24600Y105400D01*
X24200D01*
X24600Y105000D01*
X24200Y104600D01*
X24600D01*
X25000Y104200D01*
Y94200D02*
X25400Y94600D01*
X25800D01*
X25400Y95000D01*
X25800Y95400D01*
X25400D01*
X25000Y95800D01*
X24600Y95400D01*
X24200D01*
X24600Y95000D01*
X24200Y94600D01*
X24600D01*
X25000Y94200D01*
Y84200D02*
X25400Y84600D01*
X25800D01*
X25400Y85000D01*
X25800Y85400D01*
X25400D01*
X25000Y85800D01*
X24600Y85400D01*
X24200D01*
X24600Y85000D01*
X24200Y84600D01*
X24600D01*
X25000Y84200D01*
Y74200D02*
X25400Y74600D01*
X25800D01*
X25400Y75000D01*
X25800Y75400D01*
X25400D01*
X25000Y75800D01*
X24600Y75400D01*
X24200D01*
X24600Y75000D01*
X24200Y74600D01*
X24600D01*
X25000Y74200D01*
Y64200D02*
X25400Y64600D01*
X25800D01*
X25400Y65000D01*
X25800Y65400D01*
X25400D01*
X25000Y65800D01*
X24600Y65400D01*
X24200D01*
X24600Y65000D01*
X24200Y64600D01*
X24600D01*
X25000Y64200D01*
Y54200D02*
X25400Y54600D01*
X25800D01*
X25400Y55000D01*
X25800Y55400D01*
X25400D01*
X25000Y55800D01*
X24600Y55400D01*
X24200D01*
X24600Y55000D01*
X24200Y54600D01*
X24600D01*
X25000Y54200D01*
Y44200D02*
X25400Y44600D01*
X25800D01*
X25400Y45000D01*
X25800Y45400D01*
X25400D01*
X25000Y45800D01*
X24600Y45400D01*
X24200D01*
X24600Y45000D01*
X24200Y44600D01*
X24600D01*
X25000Y44200D01*
X35000Y154200D02*
X35400Y154600D01*
X35800D01*
X35400Y155000D01*
X35800Y155400D01*
X35400D01*
X35000Y155800D01*
X34600Y155400D01*
X34200D01*
X34600Y155000D01*
X34200Y154600D01*
X34600D01*
X35000Y154200D01*
Y144200D02*
X35400Y144600D01*
X35800D01*
X35400Y145000D01*
X35800Y145400D01*
X35400D01*
X35000Y145800D01*
X34600Y145400D01*
X34200D01*
X34600Y145000D01*
X34200Y144600D01*
X34600D01*
X35000Y144200D01*
Y134200D02*
X35400Y134600D01*
X35800D01*
X35400Y135000D01*
X35800Y135400D01*
X35400D01*
X35000Y135800D01*
X34600Y135400D01*
X34200D01*
X34600Y135000D01*
X34200Y134600D01*
X34600D01*
X35000Y134200D01*
Y124200D02*
X35400Y124600D01*
X35800D01*
X35400Y125000D01*
X35800Y125400D01*
X35400D01*
X35000Y125800D01*
X34600Y125400D01*
X34200D01*
X34600Y125000D01*
X34200Y124600D01*
X34600D01*
X35000Y124200D01*
Y114200D02*
X35400Y114600D01*
X35800D01*
X35400Y115000D01*
X35800Y115400D01*
X35400D01*
X35000Y115800D01*
X34600Y115400D01*
X34200D01*
X34600Y115000D01*
X34200Y114600D01*
X34600D01*
X35000Y114200D01*
Y104200D02*
X35400Y104600D01*
X35800D01*
X35400Y105000D01*
X35800Y105400D01*
X35400D01*
X35000Y105800D01*
X34600Y105400D01*
X34200D01*
X34600Y105000D01*
X34200Y104600D01*
X34600D01*
X35000Y104200D01*
Y94200D02*
X35400Y94600D01*
X35800D01*
X35400Y95000D01*
X35800Y95400D01*
X35400D01*
X35000Y95800D01*
X34600Y95400D01*
X34200D01*
X34600Y95000D01*
X34200Y94600D01*
X34600D01*
X35000Y94200D01*
Y84200D02*
X35400Y84600D01*
X35800D01*
X35400Y85000D01*
X35800Y85400D01*
X35400D01*
X35000Y85800D01*
X34600Y85400D01*
X34200D01*
X34600Y85000D01*
X34200Y84600D01*
X34600D01*
X35000Y84200D01*
Y74200D02*
X35400Y74600D01*
X35800D01*
X35400Y75000D01*
X35800Y75400D01*
X35400D01*
X35000Y75800D01*
X34600Y75400D01*
X34200D01*
X34600Y75000D01*
X34200Y74600D01*
X34600D01*
X35000Y74200D01*
Y64200D02*
X35400Y64600D01*
X35800D01*
X35400Y65000D01*
X35800Y65400D01*
X35400D01*
X35000Y65800D01*
X34600Y65400D01*
X34200D01*
X34600Y65000D01*
X34200Y64600D01*
X34600D01*
X35000Y64200D01*
Y54200D02*
X35400Y54600D01*
X35800D01*
X35400Y55000D01*
X35800Y55400D01*
X35400D01*
X35000Y55800D01*
X34600Y55400D01*
X34200D01*
X34600Y55000D01*
X34200Y54600D01*
X34600D01*
X35000Y54200D01*
X145000Y204200D02*
X145400Y204600D01*
X145800D01*
X145400Y205000D01*
X145800Y205400D01*
X145400D01*
X145000Y205800D01*
X144600Y205400D01*
X144200D01*
X144600Y205000D01*
X144200Y204600D01*
X144600D01*
X145000Y204200D01*
X135000D02*
X135400Y204600D01*
X135800D01*
X135400Y205000D01*
X135800Y205400D01*
X135400D01*
X135000Y205800D01*
X134600Y205400D01*
X134200D01*
X134600Y205000D01*
X134200Y204600D01*
X134600D01*
X135000Y204200D01*
X55000D02*
X55400Y204600D01*
X55800D01*
X55400Y205000D01*
X55800Y205400D01*
X55400D01*
X55000Y205800D01*
X54600Y205400D01*
X54200D01*
X54600Y205000D01*
X54200Y204600D01*
X54600D01*
X55000Y204200D01*
X65000D02*
X65400Y204600D01*
X65800D01*
X65400Y205000D01*
X65800Y205400D01*
X65400D01*
X65000Y205800D01*
X64600Y205400D01*
X64200D01*
X64600Y205000D01*
X64200Y204600D01*
X64600D01*
X65000Y204200D01*
X62008Y235507D02*
X61208Y237107D01*
X62808D01*
X62008Y235507D01*
X27992D02*
X27192Y237107D01*
X28792D01*
X27992Y235507D01*
X32822Y237594D02*
Y239194D01*
X34422D01*
Y237594D01*
X32822D01*
X55578D02*
Y239194D01*
X57178D01*
Y237594D01*
X55578D01*
X10224Y253937D02*
X11024Y254737D01*
X11824Y253937D01*
X11024Y253137D01*
X10224Y253937D01*
X188176D02*
X188976Y254737D01*
X189776Y253937D01*
X188976Y253137D01*
X188176Y253937D01*
Y11024D02*
X188976Y11824D01*
X189776Y11024D01*
X188976Y10224D01*
X188176Y11024D01*
X10224D02*
X11024Y11824D01*
X11824Y11024D01*
X11024Y10224D01*
X10224Y11024D01*
X15200Y222090D02*
X15600D01*
X16000Y222490D01*
X16400Y222090D01*
X16800D01*
Y222490D01*
X16400Y222890D01*
X16800Y223290D01*
Y223690D01*
X16400D01*
X16000Y223290D01*
X15600Y223690D01*
X15200D01*
Y223290D01*
X15600Y222890D01*
X15200Y222490D01*
Y222090D01*
Y208310D02*
X15600D01*
X16000Y208710D01*
X16400Y208310D01*
X16800D01*
Y208710D01*
X16400Y209110D01*
X16800Y209510D01*
Y209910D01*
X16400D01*
X16000Y209510D01*
X15600Y209910D01*
X15200D01*
Y209510D01*
X15600Y209110D01*
X15200Y208710D01*
Y208310D01*
X183200Y222090D02*
X183600D01*
X184000Y222490D01*
X184400Y222090D01*
X184800D01*
Y222490D01*
X184400Y222890D01*
X184800Y223290D01*
Y223690D01*
X184400D01*
X184000Y223290D01*
X183600Y223690D01*
X183200D01*
Y223290D01*
X183600Y222890D01*
X183200Y222490D01*
Y222090D01*
Y208310D02*
X183600D01*
X184000Y208710D01*
X184400Y208310D01*
X184800D01*
Y208710D01*
X184400Y209110D01*
X184800Y209510D01*
Y209910D01*
X184400D01*
X184000Y209510D01*
X183600Y209910D01*
X183200D01*
Y209510D01*
X183600Y209110D01*
X183200Y208710D01*
Y208310D01*
X172008Y235507D02*
X171208Y237107D01*
X172808D01*
X172008Y235507D01*
X137992D02*
X137192Y237107D01*
X138792D01*
X137992Y235507D01*
X142822Y237594D02*
Y239194D01*
X144422D01*
Y237594D01*
X142822D01*
X165578D02*
Y239194D01*
X167178D01*
Y237594D01*
X165578D01*
X25000Y194200D02*
X25400Y194600D01*
X25800D01*
X25400Y195000D01*
X25800Y195400D01*
X25400D01*
X25000Y195800D01*
X24600Y195400D01*
X24200D01*
X24600Y195000D01*
X24200Y194600D01*
X24600D01*
X25000Y194200D01*
Y184200D02*
X25400Y184600D01*
X25800D01*
X25400Y185000D01*
X25800Y185400D01*
X25400D01*
X25000Y185800D01*
X24600Y185400D01*
X24200D01*
X24600Y185000D01*
X24200Y184600D01*
X24600D01*
X25000Y184200D01*
Y174200D02*
X25400Y174600D01*
X25800D01*
X25400Y175000D01*
X25800Y175400D01*
X25400D01*
X25000Y175800D01*
X24600Y175400D01*
X24200D01*
X24600Y175000D01*
X24200Y174600D01*
X24600D01*
X25000Y174200D01*
Y164200D02*
X25400Y164600D01*
X25800D01*
X25400Y165000D01*
X25800Y165400D01*
X25400D01*
X25000Y165800D01*
X24600Y165400D01*
X24200D01*
X24600Y165000D01*
X24200Y164600D01*
X24600D01*
X25000Y164200D01*
X35000Y44200D02*
X35400Y44600D01*
X35800D01*
X35400Y45000D01*
X35800Y45400D01*
X35400D01*
X35000Y45800D01*
X34600Y45400D01*
X34200D01*
X34600Y45000D01*
X34200Y44600D01*
X34600D01*
X35000Y44200D01*
X54200Y49200D02*
X54600Y50000D01*
X54200Y50800D01*
X55000Y50400D01*
X55800Y50800D01*
X55400Y50000D01*
X55800Y49200D01*
X55000Y49600D01*
X54200Y49200D01*
X64200Y74200D02*
X64600Y75000D01*
X64200Y75800D01*
X65000Y75400D01*
X65800Y75800D01*
X65400Y75000D01*
X65800Y74200D01*
X65000Y74600D01*
X64200Y74200D01*
X144200Y119200D02*
X144600Y120000D01*
X144200Y120800D01*
X145000Y120400D01*
X145800Y120800D01*
X145400Y120000D01*
X145800Y119200D01*
X145000Y119600D01*
X144200Y119200D01*
X194200Y159200D02*
X194600Y160000D01*
X194200Y160800D01*
X195000Y160400D01*
X195800Y160800D01*
X195400Y160000D01*
X195800Y159200D01*
X195000Y159600D01*
X194200Y159200D01*
Y149200D02*
X194600Y150000D01*
X194200Y150800D01*
X195000Y150400D01*
X195800Y150800D01*
X195400Y150000D01*
X195800Y149200D01*
X195000Y149600D01*
X194200Y149200D01*
Y139200D02*
X194600Y140000D01*
X194200Y140800D01*
X195000Y140400D01*
X195800Y140800D01*
X195400Y140000D01*
X195800Y139200D01*
X195000Y139600D01*
X194200Y139200D01*
Y129200D02*
X194600Y130000D01*
X194200Y130800D01*
X195000Y130400D01*
X195800Y130800D01*
X195400Y130000D01*
X195800Y129200D01*
X195000Y129600D01*
X194200Y129200D01*
Y119200D02*
X194600Y120000D01*
X194200Y120800D01*
X195000Y120400D01*
X195800Y120800D01*
X195400Y120000D01*
X195800Y119200D01*
X195000Y119600D01*
X194200Y119200D01*
Y109200D02*
X194600Y110000D01*
X194200Y110800D01*
X195000Y110400D01*
X195800Y110800D01*
X195400Y110000D01*
X195800Y109200D01*
X195000Y109600D01*
X194200Y109200D01*
Y99200D02*
X194600Y100000D01*
X194200Y100800D01*
X195000Y100400D01*
X195800Y100800D01*
X195400Y100000D01*
X195800Y99200D01*
X195000Y99600D01*
X194200Y99200D01*
Y89200D02*
X194600Y90000D01*
X194200Y90800D01*
X195000Y90400D01*
X195800Y90800D01*
X195400Y90000D01*
X195800Y89200D01*
X195000Y89600D01*
X194200Y89200D01*
Y79200D02*
X194600Y80000D01*
X194200Y80800D01*
X195000Y80400D01*
X195800Y80800D01*
X195400Y80000D01*
X195800Y79200D01*
X195000Y79600D01*
X194200Y79200D01*
Y69200D02*
X194600Y70000D01*
X194200Y70800D01*
X195000Y70400D01*
X195800Y70800D01*
X195400Y70000D01*
X195800Y69200D01*
X195000Y69600D01*
X194200Y69200D01*
Y59200D02*
X194600Y60000D01*
X194200Y60800D01*
X195000Y60400D01*
X195800Y60800D01*
X195400Y60000D01*
X195800Y59200D01*
X195000Y59600D01*
X194200Y59200D01*
Y49200D02*
X194600Y50000D01*
X194200Y50800D01*
X195000Y50400D01*
X195800Y50800D01*
X195400Y50000D01*
X195800Y49200D01*
X195000Y49600D01*
X194200Y49200D01*
X149200Y4200D02*
X149600Y5000D01*
X149200Y5800D01*
X150000Y5400D01*
X150800Y5800D01*
X150400Y5000D01*
X150800Y4200D01*
X150000Y4600D01*
X149200Y4200D01*
X139200D02*
X139600Y5000D01*
X139200Y5800D01*
X140000Y5400D01*
X140800Y5800D01*
X140400Y5000D01*
X140800Y4200D01*
X140000Y4600D01*
X139200Y4200D01*
X129200D02*
X129600Y5000D01*
X129200Y5800D01*
X130000Y5400D01*
X130800Y5800D01*
X130400Y5000D01*
X130800Y4200D01*
X130000Y4600D01*
X129200Y4200D01*
X119200D02*
X119600Y5000D01*
X119200Y5800D01*
X120000Y5400D01*
X120800Y5800D01*
X120400Y5000D01*
X120800Y4200D01*
X120000Y4600D01*
X119200Y4200D01*
X109200D02*
X109600Y5000D01*
X109200Y5800D01*
X110000Y5400D01*
X110800Y5800D01*
X110400Y5000D01*
X110800Y4200D01*
X110000Y4600D01*
X109200Y4200D01*
X99200D02*
X99600Y5000D01*
X99200Y5800D01*
X100000Y5400D01*
X100800Y5800D01*
X100400Y5000D01*
X100800Y4200D01*
X100000Y4600D01*
X99200Y4200D01*
X89200D02*
X89600Y5000D01*
X89200Y5800D01*
X90000Y5400D01*
X90800Y5800D01*
X90400Y5000D01*
X90800Y4200D01*
X90000Y4600D01*
X89200Y4200D01*
X79200D02*
X79600Y5000D01*
X79200Y5800D01*
X80000Y5400D01*
X80800Y5800D01*
X80400Y5000D01*
X80800Y4200D01*
X80000Y4600D01*
X79200Y4200D01*
X69200D02*
X69600Y5000D01*
X69200Y5800D01*
X70000Y5400D01*
X70800Y5800D01*
X70400Y5000D01*
X70800Y4200D01*
X70000Y4600D01*
X69200Y4200D01*
X59200D02*
X59600Y5000D01*
X59200Y5800D01*
X60000Y5400D01*
X60800Y5800D01*
X60400Y5000D01*
X60800Y4200D01*
X60000Y4600D01*
X59200Y4200D01*
X49200D02*
X49600Y5000D01*
X49200Y5800D01*
X50000Y5400D01*
X50800Y5800D01*
X50400Y5000D01*
X50800Y4200D01*
X50000Y4600D01*
X49200Y4200D01*
X4200Y49200D02*
X4600Y50000D01*
X4200Y50800D01*
X5000Y50400D01*
X5800Y50800D01*
X5400Y50000D01*
X5800Y49200D01*
X5000Y49600D01*
X4200Y49200D01*
Y59200D02*
X4600Y60000D01*
X4200Y60800D01*
X5000Y60400D01*
X5800Y60800D01*
X5400Y60000D01*
X5800Y59200D01*
X5000Y59600D01*
X4200Y59200D01*
Y69200D02*
X4600Y70000D01*
X4200Y70800D01*
X5000Y70400D01*
X5800Y70800D01*
X5400Y70000D01*
X5800Y69200D01*
X5000Y69600D01*
X4200Y69200D01*
Y79200D02*
X4600Y80000D01*
X4200Y80800D01*
X5000Y80400D01*
X5800Y80800D01*
X5400Y80000D01*
X5800Y79200D01*
X5000Y79600D01*
X4200Y79200D01*
Y89200D02*
X4600Y90000D01*
X4200Y90800D01*
X5000Y90400D01*
X5800Y90800D01*
X5400Y90000D01*
X5800Y89200D01*
X5000Y89600D01*
X4200Y89200D01*
Y99200D02*
X4600Y100000D01*
X4200Y100800D01*
X5000Y100400D01*
X5800Y100800D01*
X5400Y100000D01*
X5800Y99200D01*
X5000Y99600D01*
X4200Y99200D01*
Y109200D02*
X4600Y110000D01*
X4200Y110800D01*
X5000Y110400D01*
X5800Y110800D01*
X5400Y110000D01*
X5800Y109200D01*
X5000Y109600D01*
X4200Y109200D01*
Y119200D02*
X4600Y120000D01*
X4200Y120800D01*
X5000Y120400D01*
X5800Y120800D01*
X5400Y120000D01*
X5800Y119200D01*
X5000Y119600D01*
X4200Y119200D01*
Y129200D02*
X4600Y130000D01*
X4200Y130800D01*
X5000Y130400D01*
X5800Y130800D01*
X5400Y130000D01*
X5800Y129200D01*
X5000Y129600D01*
X4200Y129200D01*
Y139200D02*
X4600Y140000D01*
X4200Y140800D01*
X5000Y140400D01*
X5800Y140800D01*
X5400Y140000D01*
X5800Y139200D01*
X5000Y139600D01*
X4200Y139200D01*
Y149200D02*
X4600Y150000D01*
X4200Y150800D01*
X5000Y150400D01*
X5800Y150800D01*
X5400Y150000D01*
X5800Y149200D01*
X5000Y149600D01*
X4200Y149200D01*
Y159200D02*
X4600Y160000D01*
X4200Y160800D01*
X5000Y160400D01*
X5800Y160800D01*
X5400Y160000D01*
X5800Y159200D01*
X5000Y159600D01*
X4200Y159200D01*
Y169200D02*
X4600Y170000D01*
X4200Y170800D01*
X5000Y170400D01*
X5800Y170800D01*
X5400Y170000D01*
X5800Y169200D01*
X5000Y169600D01*
X4200Y169200D01*
Y179200D02*
X4600Y180000D01*
X4200Y180800D01*
X5000Y180400D01*
X5800Y180800D01*
X5400Y180000D01*
X5800Y179200D01*
X5000Y179600D01*
X4200Y179200D01*
Y189200D02*
X4600Y190000D01*
X4200Y190800D01*
X5000Y190400D01*
X5800Y190800D01*
X5400Y190000D01*
X5800Y189200D01*
X5000Y189600D01*
X4200Y189200D01*
X89200Y197200D02*
X89600Y198000D01*
X89200Y198800D01*
X90000Y198400D01*
X90800Y198800D01*
X90400Y198000D01*
X90800Y197200D01*
X90000Y197600D01*
X89200Y197200D01*
X149200Y119200D02*
X149600Y120000D01*
X149200Y120800D01*
X150000Y120400D01*
X150800Y120800D01*
X150400Y120000D01*
X150800Y119200D01*
X150000Y119600D01*
X149200Y119200D01*
X169200D02*
X169600Y120000D01*
X169200Y120800D01*
X170000Y120400D01*
X170800Y120800D01*
X170400Y120000D01*
X170800Y119200D01*
X170000Y119600D01*
X169200Y119200D01*
Y109200D02*
X169600Y110000D01*
X169200Y110800D01*
X170000Y110400D01*
X170800Y110800D01*
X170400Y110000D01*
X170800Y109200D01*
X170000Y109600D01*
X169200Y109200D01*
X79200Y59200D02*
X79600Y60000D01*
X79200Y60800D01*
X80000Y60400D01*
X80800Y60800D01*
X80400Y60000D01*
X80800Y59200D01*
X80000Y59600D01*
X79200Y59200D01*
X69200D02*
X69600Y60000D01*
X69200Y60800D01*
X70000Y60400D01*
X70800Y60800D01*
X70400Y60000D01*
X70800Y59200D01*
X70000Y59600D01*
X69200Y59200D01*
X104200Y44200D02*
X104600Y45000D01*
X104200Y45800D01*
X105000Y45400D01*
X105800Y45800D01*
X105400Y45000D01*
X105800Y44200D01*
X105000Y44600D01*
X104200Y44200D01*
X94200Y54200D02*
X94600Y55000D01*
X94200Y55800D01*
X95000Y55400D01*
X95800Y55800D01*
X95400Y55000D01*
X95800Y54200D01*
X95000Y54600D01*
X94200Y54200D01*
X192427Y26164D02*
X192827Y26964D01*
X192427Y27764D01*
X193227Y27364D01*
X194027Y27764D01*
X193627Y26964D01*
X194027Y26164D01*
X193227Y26564D01*
X192427Y26164D01*
X108200Y225200D02*
X108600Y226000D01*
X108200Y226800D01*
X109000Y226400D01*
X109800Y226800D01*
X109400Y226000D01*
X109800Y225200D01*
X109000Y225600D01*
X108200Y225200D01*
X105200Y230200D02*
X105600Y231000D01*
X105200Y231800D01*
X106000Y231400D01*
X106800Y231800D01*
X106400Y231000D01*
X106800Y230200D01*
X106000Y230600D01*
X105200Y230200D01*
X122200Y212200D02*
X122600Y213000D01*
X122200Y213800D01*
X123000Y213400D01*
X123800Y213800D01*
X123400Y213000D01*
X123800Y212200D01*
X123000Y212600D01*
X122200Y212200D01*
X4200Y39200D02*
X4600Y40000D01*
X4200Y40800D01*
X5000Y40400D01*
X5800Y40800D01*
X5400Y40000D01*
X5800Y39200D01*
X5000Y39600D01*
X4200Y39200D01*
X23200Y23200D02*
X23600Y24000D01*
X23200Y24800D01*
X24000Y24400D01*
X24800Y24800D01*
X24400Y24000D01*
X24800Y23200D01*
X24000Y23600D01*
X23200Y23200D01*
X19200Y18700D02*
X19600Y19500D01*
X19200Y20300D01*
X20000Y19900D01*
X20800Y20300D01*
X20400Y19500D01*
X20800Y18700D01*
X20000Y19100D01*
X19200Y18700D01*
X36200Y19200D02*
X36600Y20000D01*
X36200Y20800D01*
X37000Y20400D01*
X37800Y20800D01*
X37400Y20000D01*
X37800Y19200D01*
X37000Y19600D01*
X36200Y19200D01*
X160200Y17700D02*
X160600Y18500D01*
X160200Y19300D01*
X161000Y18900D01*
X161800Y19300D01*
X161400Y18500D01*
X161800Y17700D01*
X161000Y18100D01*
X160200Y17700D01*
X162200Y20200D02*
X162600Y21000D01*
X162200Y21800D01*
X163000Y21400D01*
X163800Y21800D01*
X163400Y21000D01*
X163800Y20200D01*
X163000Y20600D01*
X162200Y20200D01*
X156635Y29223D02*
X157035Y30023D01*
X156635Y30823D01*
X157435Y30423D01*
X158235Y30823D01*
X157835Y30023D01*
X158235Y29223D01*
X157435Y29623D01*
X156635Y29223D01*
X174200Y17200D02*
X174600Y18000D01*
X174200Y18800D01*
X175000Y18400D01*
X175800Y18800D01*
X175400Y18000D01*
X175800Y17200D01*
X175000Y17600D01*
X174200Y17200D01*
X163687Y14430D02*
X164087Y15230D01*
X163687Y16030D01*
X164487Y15630D01*
X165287Y16030D01*
X164887Y15230D01*
X165287Y14430D01*
X164487Y14830D01*
X163687Y14430D01*
X179200Y36200D02*
X179600Y37000D01*
X179200Y37800D01*
X180000Y37400D01*
X180800Y37800D01*
X180400Y37000D01*
X180800Y36200D01*
X180000Y36600D01*
X179200Y36200D01*
X39200Y169200D02*
X39600Y170000D01*
X39200Y170800D01*
X40000Y170400D01*
X40800Y170800D01*
X40400Y170000D01*
X40800Y169200D01*
X40000Y169600D01*
X39200Y169200D01*
X49200Y159200D02*
X49600Y160000D01*
X49200Y160800D01*
X50000Y160400D01*
X50800Y160800D01*
X50400Y160000D01*
X50800Y159200D01*
X50000Y159600D01*
X49200Y159200D01*
X149200Y99200D02*
X149600Y100000D01*
X149200Y100800D01*
X150000Y100400D01*
X150800Y100800D01*
X150400Y100000D01*
X150800Y99200D01*
X150000Y99600D01*
X149200Y99200D01*
X154200D02*
X154600Y100000D01*
X154200Y100800D01*
X155000Y100400D01*
X155800Y100800D01*
X155400Y100000D01*
X155800Y99200D01*
X155000Y99600D01*
X154200Y99200D01*
X49200Y154200D02*
X49600Y155000D01*
X49200Y155800D01*
X50000Y155400D01*
X50800Y155800D01*
X50400Y155000D01*
X50800Y154200D01*
X50000Y154600D01*
X49200Y154200D01*
X79200Y206200D02*
X79600Y207000D01*
X79200Y207800D01*
X80000Y207400D01*
X80800Y207800D01*
X80400Y207000D01*
X80800Y206200D01*
X80000Y206600D01*
X79200Y206200D01*
X191200Y196200D02*
X191600Y197000D01*
X191200Y197800D01*
X192000Y197400D01*
X192800Y197800D01*
X192400Y197000D01*
X192800Y196200D01*
X192000Y196600D01*
X191200Y196200D01*
X183200Y177200D02*
X183600Y178000D01*
X183200Y178800D01*
X184000Y178400D01*
X184800Y178800D01*
X184400Y178000D01*
X184800Y177200D01*
X184000Y177600D01*
X183200Y177200D01*
X176200Y196200D02*
X176600Y197000D01*
X176200Y197800D01*
X177000Y197400D01*
X177800Y197800D01*
X177400Y197000D01*
X177800Y196200D01*
X177000Y196600D01*
X176200Y196200D01*
X188200D02*
X188600Y197000D01*
X188200Y197800D01*
X189000Y197400D01*
X189800Y197800D01*
X189400Y197000D01*
X189800Y196200D01*
X189000Y196600D01*
X188200Y196200D01*
X162200Y173200D02*
X162600Y174000D01*
X162200Y174800D01*
X163000Y174400D01*
X163800Y174800D01*
X163400Y174000D01*
X163800Y173200D01*
X163000Y173600D01*
X162200Y173200D01*
X176200Y186200D02*
X176600Y187000D01*
X176200Y187800D01*
X177000Y187400D01*
X177800Y187800D01*
X177400Y187000D01*
X177800Y186200D01*
X177000Y186600D01*
X176200Y186200D01*
X166200Y173200D02*
X166600Y174000D01*
X166200Y174800D01*
X167000Y174400D01*
X167800Y174800D01*
X167400Y174000D01*
X167800Y173200D01*
X167000Y173600D01*
X166200Y173200D01*
X133200Y214200D02*
X133600Y215000D01*
X133200Y215800D01*
X134000Y215400D01*
X134800Y215800D01*
X134400Y215000D01*
X134800Y214200D01*
X134000Y214600D01*
X133200Y214200D01*
X136200D02*
X136600Y215000D01*
X136200Y215800D01*
X137000Y215400D01*
X137800Y215800D01*
X137400Y215000D01*
X137800Y214200D01*
X137000Y214600D01*
X136200Y214200D01*
X55700D02*
X56100Y215000D01*
X55700Y215800D01*
X56500Y215400D01*
X57300Y215800D01*
X56900Y215000D01*
X57300Y214200D01*
X56500Y214600D01*
X55700Y214200D01*
X143200D02*
X143600Y215000D01*
X143200Y215800D01*
X144000Y215400D01*
X144800Y215800D01*
X144400Y215000D01*
X144800Y214200D01*
X144000Y214600D01*
X143200Y214200D01*
X140200D02*
X140600Y215000D01*
X140200Y215800D01*
X141000Y215400D01*
X141800Y215800D01*
X141400Y215000D01*
X141800Y214200D01*
X141000Y214600D01*
X140200Y214200D01*
X38200Y203200D02*
X38600Y204000D01*
X38200Y204800D01*
X39000Y204400D01*
X39800Y204800D01*
X39400Y204000D01*
X39800Y203200D01*
X39000Y203600D01*
X38200Y203200D01*
X74200Y119200D02*
X74600Y120000D01*
X74200Y120800D01*
X75000Y120400D01*
X75800Y120800D01*
X75400Y120000D01*
X75800Y119200D01*
X75000Y119600D01*
X74200Y119200D01*
X88200Y216200D02*
X88600Y217000D01*
X88200Y217800D01*
X89000Y217400D01*
X89800Y217800D01*
X89400Y217000D01*
X89800Y216200D01*
X89000Y216600D01*
X88200Y216200D01*
X83200Y215200D02*
X83600Y216000D01*
X83200Y216800D01*
X84000Y216400D01*
X84800Y216800D01*
X84400Y216000D01*
X84800Y215200D01*
X84000Y215600D01*
X83200Y215200D01*
X79200Y202200D02*
X79600Y203000D01*
X79200Y203800D01*
X80000Y203400D01*
X80800Y203800D01*
X80400Y203000D01*
X80800Y202200D01*
X80000Y202600D01*
X79200Y202200D01*
X111200Y221200D02*
X111600Y222000D01*
X111200Y222800D01*
X112000Y222400D01*
X112800Y222800D01*
X112400Y222000D01*
X112800Y221200D01*
X112000Y221600D01*
X111200Y221200D01*
Y242200D02*
X111600Y243000D01*
X111200Y243800D01*
X112000Y243400D01*
X112800Y243800D01*
X112400Y243000D01*
X112800Y242200D01*
X112000Y242600D01*
X111200Y242200D01*
X58200Y214200D02*
X58600Y215000D01*
X58200Y215800D01*
X59000Y215400D01*
X59800Y215800D01*
X59400Y215000D01*
X59800Y214200D01*
X59000Y214600D01*
X58200Y214200D01*
X67200Y234200D02*
X67600Y235000D01*
X67200Y235800D01*
X68000Y235400D01*
X68800Y235800D01*
X68400Y235000D01*
X68800Y234200D01*
X68000Y234600D01*
X67200Y234200D01*
X84200Y246200D02*
X84600Y247000D01*
X84200Y247800D01*
X85000Y247400D01*
X85800Y247800D01*
X85400Y247000D01*
X85800Y246200D01*
X85000Y246600D01*
X84200Y246200D01*
X105200Y218200D02*
X105600Y219000D01*
X105200Y219800D01*
X106000Y219400D01*
X106800Y219800D01*
X106400Y219000D01*
X106800Y218200D01*
X106000Y218600D01*
X105200Y218200D01*
X110200Y215200D02*
X110600Y216000D01*
X110200Y216800D01*
X111000Y216400D01*
X111800Y216800D01*
X111400Y216000D01*
X111800Y215200D01*
X111000Y215600D01*
X110200Y215200D01*
X139200Y224200D02*
X139600Y225000D01*
X139200Y225800D01*
X140000Y225400D01*
X140800Y225800D01*
X140400Y225000D01*
X140800Y224200D01*
X140000Y224600D01*
X139200Y224200D01*
X136200D02*
X136600Y225000D01*
X136200Y225800D01*
X137000Y225400D01*
X137800Y225800D01*
X137400Y225000D01*
X137800Y224200D01*
X137000Y224600D01*
X136200Y224200D01*
X139200Y227200D02*
X139600Y228000D01*
X139200Y228800D01*
X140000Y228400D01*
X140800Y228800D01*
X140400Y228000D01*
X140800Y227200D01*
X140000Y227600D01*
X139200Y227200D01*
X136200D02*
X136600Y228000D01*
X136200Y228800D01*
X137000Y228400D01*
X137800Y228800D01*
X137400Y228000D01*
X137800Y227200D01*
X137000Y227600D01*
X136200Y227200D01*
X115200Y216200D02*
X115600Y217000D01*
X115200Y217800D01*
X116000Y217400D01*
X116800Y217800D01*
X116400Y217000D01*
X116800Y216200D01*
X116000Y216600D01*
X115200Y216200D01*
X158200Y210200D02*
X158600Y211000D01*
X158200Y211800D01*
X159000Y211400D01*
X159800Y211800D01*
X159400Y211000D01*
X159800Y210200D01*
X159000Y210600D01*
X158200Y210200D01*
X150200D02*
X150600Y211000D01*
X150200Y211800D01*
X151000Y211400D01*
X151800Y211800D01*
X151400Y211000D01*
X151800Y210200D01*
X151000Y210600D01*
X150200Y210200D01*
X93200Y218200D02*
X93600Y219000D01*
X93200Y219800D01*
X94000Y219400D01*
X94800Y219800D01*
X94400Y219000D01*
X94800Y218200D01*
X94000Y218600D01*
X93200Y218200D01*
Y245200D02*
X93600Y246000D01*
X93200Y246800D01*
X94000Y246400D01*
X94800Y246800D01*
X94400Y246000D01*
X94800Y245200D01*
X94000Y245600D01*
X93200Y245200D01*
X111200Y235200D02*
X111600Y236000D01*
X111200Y236800D01*
X112000Y236400D01*
X112800Y236800D01*
X112400Y236000D01*
X112800Y235200D01*
X112000Y235600D01*
X111200Y235200D01*
Y228200D02*
X111600Y229000D01*
X111200Y229800D01*
X112000Y229400D01*
X112800Y229800D01*
X112400Y229000D01*
X112800Y228200D01*
X112000Y228600D01*
X111200Y228200D01*
X101200Y240200D02*
X101600Y241000D01*
X101200Y241800D01*
X102000Y241400D01*
X102800Y241800D01*
X102400Y241000D01*
X102800Y240200D01*
X102000Y240600D01*
X101200Y240200D01*
Y236200D02*
X101600Y237000D01*
X101200Y237800D01*
X102000Y237400D01*
X102800Y237800D01*
X102400Y237000D01*
X102800Y236200D01*
X102000Y236600D01*
X101200Y236200D01*
X97200D02*
X97600Y237000D01*
X97200Y237800D01*
X98000Y237400D01*
X98800Y237800D01*
X98400Y237000D01*
X98800Y236200D01*
X98000Y236600D01*
X97200Y236200D01*
X93200D02*
X93600Y237000D01*
X93200Y237800D01*
X94000Y237400D01*
X94800Y237800D01*
X94400Y237000D01*
X94800Y236200D01*
X94000Y236600D01*
X93200Y236200D01*
X73200Y232200D02*
X73600Y233000D01*
X73200Y233800D01*
X74000Y233400D01*
X74800Y233800D01*
X74400Y233000D01*
X74800Y232200D01*
X74000Y232600D01*
X73200Y232200D01*
X89200Y236200D02*
X89600Y237000D01*
X89200Y237800D01*
X90000Y237400D01*
X90800Y237800D01*
X90400Y237000D01*
X90800Y236200D01*
X90000Y236600D01*
X89200Y236200D01*
X76200Y232200D02*
X76600Y233000D01*
X76200Y233800D01*
X77000Y233400D01*
X77800Y233800D01*
X77400Y233000D01*
X77800Y232200D01*
X77000Y232600D01*
X76200Y232200D01*
X79200D02*
X79600Y233000D01*
X79200Y233800D01*
X80000Y233400D01*
X80800Y233800D01*
X80400Y233000D01*
X80800Y232200D01*
X80000Y232600D01*
X79200Y232200D01*
X66200Y218200D02*
X66600Y219000D01*
X66200Y219800D01*
X67000Y219400D01*
X67800Y219800D01*
X67400Y219000D01*
X67800Y218200D01*
X67000Y218600D01*
X66200Y218200D01*
X52200Y210200D02*
X52600Y211000D01*
X52200Y211800D01*
X53000Y211400D01*
X53800Y211800D01*
X53400Y211000D01*
X53800Y210200D01*
X53000Y210600D01*
X52200Y210200D01*
X73200Y257200D02*
X73600Y258000D01*
X73200Y258800D01*
X74000Y258400D01*
X74800Y258800D01*
X74400Y258000D01*
X74800Y257200D01*
X74000Y257600D01*
X73200Y257200D01*
X109200Y74200D02*
X109600Y75000D01*
X109200Y75800D01*
X110000Y75400D01*
X110800Y75800D01*
X110400Y75000D01*
X110800Y74200D01*
X110000Y74600D01*
X109200Y74200D01*
Y79200D02*
X109600Y80000D01*
X109200Y80800D01*
X110000Y80400D01*
X110800Y80800D01*
X110400Y80000D01*
X110800Y79200D01*
X110000Y79600D01*
X109200Y79200D01*
X114200D02*
X114600Y80000D01*
X114200Y80800D01*
X115000Y80400D01*
X115800Y80800D01*
X115400Y80000D01*
X115800Y79200D01*
X115000Y79600D01*
X114200Y79200D01*
X119200Y84200D02*
X119600Y85000D01*
X119200Y85800D01*
X120000Y85400D01*
X120800Y85800D01*
X120400Y85000D01*
X120800Y84200D01*
X120000Y84600D01*
X119200Y84200D01*
Y89200D02*
X119600Y90000D01*
X119200Y90800D01*
X120000Y90400D01*
X120800Y90800D01*
X120400Y90000D01*
X120800Y89200D01*
X120000Y89600D01*
X119200Y89200D01*
X124200D02*
X124600Y90000D01*
X124200Y90800D01*
X125000Y90400D01*
X125800Y90800D01*
X125400Y90000D01*
X125800Y89200D01*
X125000Y89600D01*
X124200Y89200D01*
X129200Y94200D02*
X129600Y95000D01*
X129200Y95800D01*
X130000Y95400D01*
X130800Y95800D01*
X130400Y95000D01*
X130800Y94200D01*
X130000Y94600D01*
X129200Y94200D01*
X134200D02*
X134600Y95000D01*
X134200Y95800D01*
X135000Y95400D01*
X135800Y95800D01*
X135400Y95000D01*
X135800Y94200D01*
X135000Y94600D01*
X134200Y94200D01*
Y99200D02*
X134600Y100000D01*
X134200Y100800D01*
X135000Y100400D01*
X135800Y100800D01*
X135400Y100000D01*
X135800Y99200D01*
X135000Y99600D01*
X134200Y99200D01*
X124200Y109200D02*
X124600Y110000D01*
X124200Y110800D01*
X125000Y110400D01*
X125800Y110800D01*
X125400Y110000D01*
X125800Y109200D01*
X125000Y109600D01*
X124200Y109200D01*
X109200Y119200D02*
X109600Y120000D01*
X109200Y120800D01*
X110000Y120400D01*
X110800Y120800D01*
X110400Y120000D01*
X110800Y119200D01*
X110000Y119600D01*
X109200Y119200D01*
Y124200D02*
X109600Y125000D01*
X109200Y125800D01*
X110000Y125400D01*
X110800Y125800D01*
X110400Y125000D01*
X110800Y124200D01*
X110000Y124600D01*
X109200Y124200D01*
X84200Y49200D02*
X84600Y50000D01*
X84200Y50800D01*
X85000Y50400D01*
X85800Y50800D01*
X85400Y50000D01*
X85800Y49200D01*
X85000Y49600D01*
X84200Y49200D01*
Y44200D02*
X84600Y45000D01*
X84200Y45800D01*
X85000Y45400D01*
X85800Y45800D01*
X85400Y45000D01*
X85800Y44200D01*
X85000Y44600D01*
X84200Y44200D01*
X89200Y49200D02*
X89600Y50000D01*
X89200Y50800D01*
X90000Y50400D01*
X90800Y50800D01*
X90400Y50000D01*
X90800Y49200D01*
X90000Y49600D01*
X89200Y49200D01*
X64200Y44200D02*
X64600Y45000D01*
X64200Y45800D01*
X65000Y45400D01*
X65800Y45800D01*
X65400Y45000D01*
X65800Y44200D01*
X65000Y44600D01*
X64200Y44200D01*
X69200Y64200D02*
X69600Y65000D01*
X69200Y65800D01*
X70000Y65400D01*
X70800Y65800D01*
X70400Y65000D01*
X70800Y64200D01*
X70000Y64600D01*
X69200Y64200D01*
X74200Y69200D02*
X74600Y70000D01*
X74200Y70800D01*
X75000Y70400D01*
X75800Y70800D01*
X75400Y70000D01*
X75800Y69200D01*
X75000Y69600D01*
X74200Y69200D01*
X79200D02*
X79600Y70000D01*
X79200Y70800D01*
X80000Y70400D01*
X80800Y70800D01*
X80400Y70000D01*
X80800Y69200D01*
X80000Y69600D01*
X79200Y69200D01*
X64200Y54200D02*
X64600Y55000D01*
X64200Y55800D01*
X65000Y55400D01*
X65800Y55800D01*
X65400Y55000D01*
X65800Y54200D01*
X65000Y54600D01*
X64200Y54200D01*
X89200Y64200D02*
X89600Y65000D01*
X89200Y65800D01*
X90000Y65400D01*
X90800Y65800D01*
X90400Y65000D01*
X90800Y64200D01*
X90000Y64600D01*
X89200Y64200D01*
X84200Y59200D02*
X84600Y60000D01*
X84200Y60800D01*
X85000Y60400D01*
X85800Y60800D01*
X85400Y60000D01*
X85800Y59200D01*
X85000Y59600D01*
X84200Y59200D01*
X89200Y79200D02*
X89600Y80000D01*
X89200Y80800D01*
X90000Y80400D01*
X90800Y80800D01*
X90400Y80000D01*
X90800Y79200D01*
X90000Y79600D01*
X89200Y79200D01*
X84200Y74200D02*
X84600Y75000D01*
X84200Y75800D01*
X85000Y75400D01*
X85800Y75800D01*
X85400Y75000D01*
X85800Y74200D01*
X85000Y74600D01*
X84200Y74200D01*
X89200Y54200D02*
X89600Y55000D01*
X89200Y55800D01*
X90000Y55400D01*
X90800Y55800D01*
X90400Y55000D01*
X90800Y54200D01*
X90000Y54600D01*
X89200Y54200D01*
X94200Y64200D02*
X94600Y65000D01*
X94200Y65800D01*
X95000Y65400D01*
X95800Y65800D01*
X95400Y65000D01*
X95800Y64200D01*
X95000Y64600D01*
X94200Y64200D01*
X104200D02*
X104600Y65000D01*
X104200Y65800D01*
X105000Y65400D01*
X105800Y65800D01*
X105400Y65000D01*
X105800Y64200D01*
X105000Y64600D01*
X104200Y64200D01*
X109200Y54200D02*
X109600Y55000D01*
X109200Y55800D01*
X110000Y55400D01*
X110800Y55800D01*
X110400Y55000D01*
X110800Y54200D01*
X110000Y54600D01*
X109200Y54200D01*
Y44200D02*
X109600Y45000D01*
X109200Y45800D01*
X110000Y45400D01*
X110800Y45800D01*
X110400Y45000D01*
X110800Y44200D01*
X110000Y44600D01*
X109200Y44200D01*
X79200D02*
X79600Y45000D01*
X79200Y45800D01*
X80000Y45400D01*
X80800Y45800D01*
X80400Y45000D01*
X80800Y44200D01*
X80000Y44600D01*
X79200Y44200D01*
X89200Y109200D02*
X89600Y110000D01*
X89200Y110800D01*
X90000Y110400D01*
X90800Y110800D01*
X90400Y110000D01*
X90800Y109200D01*
X90000Y109600D01*
X89200Y109200D01*
X109200Y89200D02*
X109600Y90000D01*
X109200Y90800D01*
X110000Y90400D01*
X110800Y90800D01*
X110400Y90000D01*
X110800Y89200D01*
X110000Y89600D01*
X109200Y89200D01*
X99200D02*
X99600Y90000D01*
X99200Y90800D01*
X100000Y90400D01*
X100800Y90800D01*
X100400Y90000D01*
X100800Y89200D01*
X100000Y89600D01*
X99200Y89200D01*
X89200D02*
X89600Y90000D01*
X89200Y90800D01*
X90000Y90400D01*
X90800Y90800D01*
X90400Y90000D01*
X90800Y89200D01*
X90000Y89600D01*
X89200Y89200D01*
Y99200D02*
X89600Y100000D01*
X89200Y100800D01*
X90000Y100400D01*
X90800Y100800D01*
X90400Y100000D01*
X90800Y99200D01*
X90000Y99600D01*
X89200Y99200D01*
X109200D02*
X109600Y100000D01*
X109200Y100800D01*
X110000Y100400D01*
X110800Y100800D01*
X110400Y100000D01*
X110800Y99200D01*
X110000Y99600D01*
X109200Y99200D01*
Y109200D02*
X109600Y110000D01*
X109200Y110800D01*
X110000Y110400D01*
X110800Y110800D01*
X110400Y110000D01*
X110800Y109200D01*
X110000Y109600D01*
X109200Y109200D01*
X99200D02*
X99600Y110000D01*
X99200Y110800D01*
X100000Y110400D01*
X100800Y110800D01*
X100400Y110000D01*
X100800Y109200D01*
X100000Y109600D01*
X99200Y109200D01*
X64200Y79200D02*
X64600Y80000D01*
X64200Y80800D01*
X65000Y80400D01*
X65800Y80800D01*
X65400Y80000D01*
X65800Y79200D01*
X65000Y79600D01*
X64200Y79200D01*
X139200Y109200D02*
X139600Y110000D01*
X139200Y110800D01*
X140000Y110400D01*
X140800Y110800D01*
X140400Y110000D01*
X140800Y109200D01*
X140000Y109600D01*
X139200Y109200D01*
Y124200D02*
X139600Y125000D01*
X139200Y125800D01*
X140000Y125400D01*
X140800Y125800D01*
X140400Y125000D01*
X140800Y124200D01*
X140000Y124600D01*
X139200Y124200D01*
X119200Y109200D02*
X119600Y110000D01*
X119200Y110800D01*
X120000Y110400D01*
X120800Y110800D01*
X120400Y110000D01*
X120800Y109200D01*
X120000Y109600D01*
X119200Y109200D01*
Y114200D02*
X119600Y115000D01*
X119200Y115800D01*
X120000Y115400D01*
X120800Y115800D01*
X120400Y115000D01*
X120800Y114200D01*
X120000Y114600D01*
X119200Y114200D01*
X99200Y99200D02*
X99600Y100000D01*
X99200Y100800D01*
X100000Y100400D01*
X100800Y100800D01*
X100400Y100000D01*
X100800Y99200D01*
X100000Y99600D01*
X99200Y99200D01*
X59200Y227200D02*
X59600Y228000D01*
X59200Y228800D01*
X60000Y228400D01*
X60800Y228800D01*
X60400Y228000D01*
X60800Y227200D01*
X60000Y227600D01*
X59200Y227200D01*
Y224200D02*
X59600Y225000D01*
X59200Y225800D01*
X60000Y225400D01*
X60800Y225800D01*
X60400Y225000D01*
X60800Y224200D01*
X60000Y224600D01*
X59200Y224200D01*
X62200Y227200D02*
X62600Y228000D01*
X62200Y228800D01*
X63000Y228400D01*
X63800Y228800D01*
X63400Y228000D01*
X63800Y227200D01*
X63000Y227600D01*
X62200Y227200D01*
Y224200D02*
X62600Y225000D01*
X62200Y225800D01*
X63000Y225400D01*
X63800Y225800D01*
X63400Y225000D01*
X63800Y224200D01*
X63000Y224600D01*
X62200Y224200D01*
X44200Y216200D02*
X44600Y217000D01*
X44200Y217800D01*
X45000Y217400D01*
X45800Y217800D01*
X45400Y217000D01*
X45800Y216200D01*
X45000Y216600D01*
X44200Y216200D01*
X39200Y29200D02*
X39600Y30000D01*
X39200Y30800D01*
X40000Y30400D01*
X40800Y30800D01*
X40400Y30000D01*
X40800Y29200D01*
X40000Y29600D01*
X39200Y29200D01*
X149200D02*
X149600Y30000D01*
X149200Y30800D01*
X150000Y30400D01*
X150800Y30800D01*
X150400Y30000D01*
X150800Y29200D01*
X150000Y29600D01*
X149200Y29200D01*
X109200D02*
X109600Y30000D01*
X109200Y30800D01*
X110000Y30400D01*
X110800Y30800D01*
X110400Y30000D01*
X110800Y29200D01*
X110000Y29600D01*
X109200Y29200D01*
X119200D02*
X119600Y30000D01*
X119200Y30800D01*
X120000Y30400D01*
X120800Y30800D01*
X120400Y30000D01*
X120800Y29200D01*
X120000Y29600D01*
X119200Y29200D01*
X129200D02*
X129600Y30000D01*
X129200Y30800D01*
X130000Y30400D01*
X130800Y30800D01*
X130400Y30000D01*
X130800Y29200D01*
X130000Y29600D01*
X129200Y29200D01*
X139200D02*
X139600Y30000D01*
X139200Y30800D01*
X140000Y30400D01*
X140800Y30800D01*
X140400Y30000D01*
X140800Y29200D01*
X140000Y29600D01*
X139200Y29200D01*
X29200Y189200D02*
X29600Y190000D01*
X29200Y190800D01*
X30000Y190400D01*
X30800Y190800D01*
X30400Y190000D01*
X30800Y189200D01*
X30000Y189600D01*
X29200Y189200D01*
Y179200D02*
X29600Y180000D01*
X29200Y180800D01*
X30000Y180400D01*
X30800Y180800D01*
X30400Y180000D01*
X30800Y179200D01*
X30000Y179600D01*
X29200Y179200D01*
Y89200D02*
X29600Y90000D01*
X29200Y90800D01*
X30000Y90400D01*
X30800Y90800D01*
X30400Y90000D01*
X30800Y89200D01*
X30000Y89600D01*
X29200Y89200D01*
Y99200D02*
X29600Y100000D01*
X29200Y100800D01*
X30000Y100400D01*
X30800Y100800D01*
X30400Y100000D01*
X30800Y99200D01*
X30000Y99600D01*
X29200Y99200D01*
Y109200D02*
X29600Y110000D01*
X29200Y110800D01*
X30000Y110400D01*
X30800Y110800D01*
X30400Y110000D01*
X30800Y109200D01*
X30000Y109600D01*
X29200Y109200D01*
Y119200D02*
X29600Y120000D01*
X29200Y120800D01*
X30000Y120400D01*
X30800Y120800D01*
X30400Y120000D01*
X30800Y119200D01*
X30000Y119600D01*
X29200Y119200D01*
Y129200D02*
X29600Y130000D01*
X29200Y130800D01*
X30000Y130400D01*
X30800Y130800D01*
X30400Y130000D01*
X30800Y129200D01*
X30000Y129600D01*
X29200Y129200D01*
Y139200D02*
X29600Y140000D01*
X29200Y140800D01*
X30000Y140400D01*
X30800Y140800D01*
X30400Y140000D01*
X30800Y139200D01*
X30000Y139600D01*
X29200Y139200D01*
Y149200D02*
X29600Y150000D01*
X29200Y150800D01*
X30000Y150400D01*
X30800Y150800D01*
X30400Y150000D01*
X30800Y149200D01*
X30000Y149600D01*
X29200Y149200D01*
Y79200D02*
X29600Y80000D01*
X29200Y80800D01*
X30000Y80400D01*
X30800Y80800D01*
X30400Y80000D01*
X30800Y79200D01*
X30000Y79600D01*
X29200Y79200D01*
Y59200D02*
X29600Y60000D01*
X29200Y60800D01*
X30000Y60400D01*
X30800Y60800D01*
X30400Y60000D01*
X30800Y59200D01*
X30000Y59600D01*
X29200Y59200D01*
Y49200D02*
X29600Y50000D01*
X29200Y50800D01*
X30000Y50400D01*
X30800Y50800D01*
X30400Y50000D01*
X30800Y49200D01*
X30000Y49600D01*
X29200Y49200D01*
X169200Y129200D02*
X169600Y130000D01*
X169200Y130800D01*
X170000Y130400D01*
X170800Y130800D01*
X170400Y130000D01*
X170800Y129200D01*
X170000Y129600D01*
X169200Y129200D01*
Y139200D02*
X169600Y140000D01*
X169200Y140800D01*
X170000Y140400D01*
X170800Y140800D01*
X170400Y140000D01*
X170800Y139200D01*
X170000Y139600D01*
X169200Y139200D01*
Y149200D02*
X169600Y150000D01*
X169200Y150800D01*
X170000Y150400D01*
X170800Y150800D01*
X170400Y150000D01*
X170800Y149200D01*
X170000Y149600D01*
X169200Y149200D01*
Y79200D02*
X169600Y80000D01*
X169200Y80800D01*
X170000Y80400D01*
X170800Y80800D01*
X170400Y80000D01*
X170800Y79200D01*
X170000Y79600D01*
X169200Y79200D01*
Y59200D02*
X169600Y60000D01*
X169200Y60800D01*
X170000Y60400D01*
X170800Y60800D01*
X170400Y60000D01*
X170800Y59200D01*
X170000Y59600D01*
X169200Y59200D01*
Y49200D02*
X169600Y50000D01*
X169200Y50800D01*
X170000Y50400D01*
X170800Y50800D01*
X170400Y50000D01*
X170800Y49200D01*
X170000Y49600D01*
X169200Y49200D01*
X49200Y169200D02*
X49600Y170000D01*
X49200Y170800D01*
X50000Y170400D01*
X50800Y170800D01*
X50400Y170000D01*
X50800Y169200D01*
X50000Y169600D01*
X49200Y169200D01*
X59200D02*
X59600Y170000D01*
X59200Y170800D01*
X60000Y170400D01*
X60800Y170800D01*
X60400Y170000D01*
X60800Y169200D01*
X60000Y169600D01*
X59200Y169200D01*
X79200D02*
X79600Y170000D01*
X79200Y170800D01*
X80000Y170400D01*
X80800Y170800D01*
X80400Y170000D01*
X80800Y169200D01*
X80000Y169600D01*
X79200Y169200D01*
X149200D02*
X149600Y170000D01*
X149200Y170800D01*
X150000Y170400D01*
X150800Y170800D01*
X150400Y170000D01*
X150800Y169200D01*
X150000Y169600D01*
X149200Y169200D01*
X139200D02*
X139600Y170000D01*
X139200Y170800D01*
X140000Y170400D01*
X140800Y170800D01*
X140400Y170000D01*
X140800Y169200D01*
X140000Y169600D01*
X139200Y169200D01*
X129200D02*
X129600Y170000D01*
X129200Y170800D01*
X130000Y170400D01*
X130800Y170800D01*
X130400Y170000D01*
X130800Y169200D01*
X130000Y169600D01*
X129200Y169200D01*
X119200D02*
X119600Y170000D01*
X119200Y170800D01*
X120000Y170400D01*
X120800Y170800D01*
X120400Y170000D01*
X120800Y169200D01*
X120000Y169600D01*
X119200Y169200D01*
X109200D02*
X109600Y170000D01*
X109200Y170800D01*
X110000Y170400D01*
X110800Y170800D01*
X110400Y170000D01*
X110800Y169200D01*
X110000Y169600D01*
X109200Y169200D01*
X99200D02*
X99600Y170000D01*
X99200Y170800D01*
X100000Y170400D01*
X100800Y170800D01*
X100400Y170000D01*
X100800Y169200D01*
X100000Y169600D01*
X99200Y169200D01*
X89200D02*
X89600Y170000D01*
X89200Y170800D01*
X90000Y170400D01*
X90800Y170800D01*
X90400Y170000D01*
X90800Y169200D01*
X90000Y169600D01*
X89200Y169200D01*
X134200Y124200D02*
X134600Y125000D01*
X134200Y125800D01*
X135000Y125400D01*
X135800Y125800D01*
X135400Y125000D01*
X135800Y124200D01*
X135000Y124600D01*
X134200Y124200D01*
X129200Y119200D02*
X129600Y120000D01*
X129200Y120800D01*
X130000Y120400D01*
X130800Y120800D01*
X130400Y120000D01*
X130800Y119200D01*
X130000Y119600D01*
X129200Y119200D01*
X74200Y129200D02*
X74600Y130000D01*
X74200Y130800D01*
X75000Y130400D01*
X75800Y130800D01*
X75400Y130000D01*
X75800Y129200D01*
X75000Y129600D01*
X74200Y129200D01*
X77200Y19200D02*
X77600Y20000D01*
X77200Y20800D01*
X78000Y20400D01*
X78800Y20800D01*
X78400Y20000D01*
X78800Y19200D01*
X78000Y19600D01*
X77200Y19200D01*
X81200D02*
X81600Y20000D01*
X81200Y20800D01*
X82000Y20400D01*
X82800Y20800D01*
X82400Y20000D01*
X82800Y19200D01*
X82000Y19600D01*
X81200Y19200D01*
X74200Y84200D02*
X74600Y85000D01*
X74200Y85800D01*
X75000Y85400D01*
X75800Y85800D01*
X75400Y85000D01*
X75800Y84200D01*
X75000Y84600D01*
X74200Y84200D01*
X59200Y39200D02*
X59600Y40000D01*
X59200Y40800D01*
X60000Y40400D01*
X60800Y40800D01*
X60400Y40000D01*
X60800Y39200D01*
X60000Y39600D01*
X59200Y39200D01*
Y29200D02*
X59600Y30000D01*
X59200Y30800D01*
X60000Y30400D01*
X60800Y30800D01*
X60400Y30000D01*
X60800Y29200D01*
X60000Y29600D01*
X59200Y29200D01*
Y19200D02*
X59600Y20000D01*
X59200Y20800D01*
X60000Y20400D01*
X60800Y20800D01*
X60400Y20000D01*
X60800Y19200D01*
X60000Y19600D01*
X59200Y19200D01*
X69200D02*
X69600Y20000D01*
X69200Y20800D01*
X70000Y20400D01*
X70800Y20800D01*
X70400Y20000D01*
X70800Y19200D01*
X70000Y19600D01*
X69200Y19200D01*
X99200Y39200D02*
X99600Y40000D01*
X99200Y40800D01*
X100000Y40400D01*
X100800Y40800D01*
X100400Y40000D01*
X100800Y39200D01*
X100000Y39600D01*
X99200Y39200D01*
Y29200D02*
X99600Y30000D01*
X99200Y30800D01*
X100000Y30400D01*
X100800Y30800D01*
X100400Y30000D01*
X100800Y29200D01*
X100000Y29600D01*
X99200Y29200D01*
X89200Y19200D02*
X89600Y20000D01*
X89200Y20800D01*
X90000Y20400D01*
X90800Y20800D01*
X90400Y20000D01*
X90800Y19200D01*
X90000Y19600D01*
X89200Y19200D01*
X99200D02*
X99600Y20000D01*
X99200Y20800D01*
X100000Y20400D01*
X100800Y20800D01*
X100400Y20000D01*
X100800Y19200D01*
X100000Y19600D01*
X99200Y19200D01*
X89200Y139200D02*
X89600Y140000D01*
X89200Y140800D01*
X90000Y140400D01*
X90800Y140800D01*
X90400Y140000D01*
X90800Y139200D01*
X90000Y139600D01*
X89200Y139200D01*
X79200Y84200D02*
X79600Y85000D01*
X79200Y85800D01*
X80000Y85400D01*
X80800Y85800D01*
X80400Y85000D01*
X80800Y84200D01*
X80000Y84600D01*
X79200Y84200D01*
X69200D02*
X69600Y85000D01*
X69200Y85800D01*
X70000Y85400D01*
X70800Y85800D01*
X70400Y85000D01*
X70800Y84200D01*
X70000Y84600D01*
X69200Y84200D01*
X89200Y119200D02*
X89600Y120000D01*
X89200Y120800D01*
X90000Y120400D01*
X90800Y120800D01*
X90400Y120000D01*
X90800Y119200D01*
X90000Y119600D01*
X89200Y119200D01*
X104200Y139200D02*
X104600Y140000D01*
X104200Y140800D01*
X105000Y140400D01*
X105800Y140800D01*
X105400Y140000D01*
X105800Y139200D01*
X105000Y139600D01*
X104200Y139200D01*
X1591Y324066D02*
X2090Y325066D01*
X1591Y326066D01*
X2591Y325566D01*
X3590Y326066D01*
X3091Y325066D01*
X3590Y324066D01*
X2591Y324566D01*
X1591Y324066D01*
Y318554D02*
Y320554D01*
X3590D01*
Y318554D01*
X1591D01*
Y313042D02*
X2090D01*
X2591Y313542D01*
X3091Y313042D01*
X3590D01*
Y313542D01*
X3091Y314042D01*
X3590Y314542D01*
Y315042D01*
X3091D01*
X2591Y314542D01*
X2090Y315042D01*
X1591D01*
Y314542D01*
X2090Y314042D01*
X1591Y313542D01*
Y313042D01*
X2591Y307530D02*
X3091Y308031D01*
X3590D01*
X3091Y308530D01*
X3590Y309031D01*
X3091D01*
X2591Y309530D01*
X2090Y309031D01*
X1591D01*
X2090Y308530D01*
X1591Y308031D01*
X2090D01*
X2591Y307530D01*
X1591Y303019D02*
X2591Y304019D01*
X3590Y303019D01*
X2591Y302019D01*
X1591Y303019D01*
X2591Y290995D02*
X1591Y292995D01*
X3590D01*
X2591Y290995D01*
D130*
X28792Y252764D02*
G03*
X28792Y252764I-800J0D01*
G01*
X62808D02*
G03*
X62808Y252764I-800J0D01*
G01*
X138792D02*
G03*
X138792Y252764I-800J0D01*
G01*
X172808D02*
G03*
X172808Y252764I-800J0D01*
G01*
D131*
X3795Y333057D02*
X3243Y333608D01*
X2142D01*
X1591Y333057D01*
Y332506D01*
X2142Y331955D01*
X3243D01*
X3795Y331404D01*
Y330853D01*
X3243Y330302D01*
X2142D01*
X1591Y330853D01*
X4897Y332506D02*
Y330853D01*
X5448Y330302D01*
X7101D01*
Y329751D01*
X6550Y329200D01*
X5999D01*
X7101Y330302D02*
Y332506D01*
X8203Y330302D02*
Y332506D01*
X8754D01*
X9305Y331955D01*
Y330302D01*
Y331955D01*
X9856Y332506D01*
X10407Y331955D01*
Y330302D01*
X11509Y333608D02*
Y330302D01*
X13162D01*
X13713Y330853D01*
Y331404D01*
Y331955D01*
X13162Y332506D01*
X11509D01*
X15366Y330302D02*
X16468D01*
X17019Y330853D01*
Y331955D01*
X16468Y332506D01*
X15366D01*
X14815Y331955D01*
Y330853D01*
X15366Y330302D01*
X18121D02*
X19223D01*
X18672D01*
Y333608D01*
X18121D01*
X25364D02*
Y330302D01*
Y331955D01*
X27568D01*
Y333608D01*
Y330302D01*
X28670D02*
X29772D01*
X29221D01*
Y332506D01*
X28670D01*
X31976Y333057D02*
Y332506D01*
X31425D01*
X32527D01*
X31976D01*
Y330853D01*
X32527Y330302D01*
X39691Y333057D02*
X39140Y333608D01*
X38037D01*
X37486Y333057D01*
Y330853D01*
X38037Y330302D01*
X39140D01*
X39691Y330853D01*
X41344Y330302D02*
X42445D01*
X42996Y330853D01*
Y331955D01*
X42445Y332506D01*
X41344D01*
X40793Y331955D01*
Y330853D01*
X41344Y330302D01*
X44098Y332506D02*
Y330853D01*
X44649Y330302D01*
X46303D01*
Y332506D01*
X47405Y330302D02*
Y332506D01*
X49057D01*
X49608Y331955D01*
Y330302D01*
X51262Y333057D02*
Y332506D01*
X50710D01*
X51812D01*
X51262D01*
Y330853D01*
X51812Y330302D01*
X60158Y333608D02*
X57954D01*
Y331955D01*
X59056D01*
X57954D01*
Y330302D01*
X61260D02*
X62362D01*
X61811D01*
Y332506D01*
X61260D01*
X64015Y330302D02*
Y332506D01*
X65668D01*
X66219Y331955D01*
Y330302D01*
X67321D02*
X68423D01*
X67872D01*
Y332506D01*
X67321D01*
X70076Y330302D02*
X71729D01*
X72280Y330853D01*
X71729Y331404D01*
X70627D01*
X70076Y331955D01*
X70627Y332506D01*
X72280D01*
X73382Y333608D02*
Y330302D01*
Y331955D01*
X73933Y332506D01*
X75035D01*
X75586Y331955D01*
Y330302D01*
X78341D02*
X77239D01*
X76688Y330853D01*
Y331955D01*
X77239Y332506D01*
X78341D01*
X78892Y331955D01*
Y331404D01*
X76688D01*
X82198Y333608D02*
Y330302D01*
X80545D01*
X79994Y330853D01*
Y331955D01*
X80545Y332506D01*
X82198D01*
X86607Y333608D02*
Y330302D01*
Y331955D01*
X88810D01*
Y333608D01*
Y330302D01*
X90464D02*
X91566D01*
X92116Y330853D01*
Y331955D01*
X91566Y332506D01*
X90464D01*
X89912Y331955D01*
Y330853D01*
X90464Y330302D01*
X93218D02*
X94320D01*
X93770D01*
Y333608D01*
X93218D01*
X97627Y330302D02*
X96525D01*
X95973Y330853D01*
Y331955D01*
X96525Y332506D01*
X97627D01*
X98177Y331955D01*
Y331404D01*
X95973D01*
X104790Y333057D02*
X104239Y333608D01*
X103137D01*
X102586Y333057D01*
Y332506D01*
X103137Y331955D01*
X104239D01*
X104790Y331404D01*
Y330853D01*
X104239Y330302D01*
X103137D01*
X102586Y330853D01*
X105892Y330302D02*
X106994D01*
X106443D01*
Y332506D01*
X105892D01*
X108647D02*
X110851D01*
X108647Y330302D01*
X110851D01*
X113606D02*
X112504D01*
X111953Y330853D01*
Y331955D01*
X112504Y332506D01*
X113606D01*
X114157Y331955D01*
Y331404D01*
X111953D01*
X120298Y330302D02*
Y333608D01*
X121951D01*
X122502Y333057D01*
Y331955D01*
X121951Y331404D01*
X120298D01*
X123604Y333608D02*
Y330302D01*
Y331955D01*
X124155Y332506D01*
X125257D01*
X125808Y331955D01*
Y330302D01*
X126910Y332506D02*
Y330853D01*
X127461Y330302D01*
X129114D01*
Y329751D01*
X128563Y329200D01*
X128012D01*
X129114Y330302D02*
Y332506D01*
X130216Y330302D02*
X131869D01*
X132420Y330853D01*
X131869Y331404D01*
X130767D01*
X130216Y331955D01*
X130767Y332506D01*
X132420D01*
X133522Y330302D02*
X134625D01*
X134073D01*
Y332506D01*
X133522D01*
X138481D02*
X136828D01*
X136277Y331955D01*
Y330853D01*
X136828Y330302D01*
X138481D01*
X140135Y332506D02*
X141236D01*
X141788Y331955D01*
Y330302D01*
X140135D01*
X139584Y330853D01*
X140135Y331404D01*
X141788D01*
X142889Y330302D02*
X143991D01*
X143440D01*
Y333608D01*
X142889D01*
X148951D02*
Y330302D01*
X151154D01*
X153910D02*
X152808D01*
X152257Y330853D01*
Y331955D01*
X152808Y332506D01*
X153910D01*
X154461Y331955D01*
Y331404D01*
X152257D01*
X155563Y330302D02*
Y332506D01*
X157216D01*
X157767Y331955D01*
Y330302D01*
X159971Y329200D02*
X160522D01*
X161073Y329751D01*
Y332506D01*
X159420D01*
X158869Y331955D01*
Y330853D01*
X159420Y330302D01*
X161073D01*
X162726Y333057D02*
Y332506D01*
X162175D01*
X163277D01*
X162726D01*
Y330853D01*
X163277Y330302D01*
X164930Y333608D02*
Y330302D01*
Y331955D01*
X165481Y332506D01*
X166583D01*
X167134Y331955D01*
Y330302D01*
X173275D02*
Y333608D01*
X174928D01*
X175479Y333057D01*
Y331955D01*
X174928Y331404D01*
X173275D01*
X174377D02*
X175479Y330302D01*
X177132D02*
X178234D01*
X178785Y330853D01*
Y331955D01*
X178234Y332506D01*
X177132D01*
X176581Y331955D01*
Y330853D01*
X177132Y330302D01*
X179887Y332506D02*
Y330853D01*
X180438Y330302D01*
X182091D01*
Y332506D01*
X183744Y333057D02*
Y332506D01*
X183193D01*
X184295D01*
X183744D01*
Y330853D01*
X184295Y330302D01*
X189254D02*
Y333608D01*
X190908D01*
X191458Y333057D01*
Y331955D01*
X190908Y331404D01*
X189254D01*
X193112Y332506D02*
X194213D01*
X194764Y331955D01*
Y330302D01*
X193112D01*
X192561Y330853D01*
X193112Y331404D01*
X194764D01*
X196417Y333057D02*
Y332506D01*
X195867D01*
X196968D01*
X196417D01*
Y330853D01*
X196968Y330302D01*
X198621Y333608D02*
Y330302D01*
Y331955D01*
X199172Y332506D01*
X200274D01*
X200826Y331955D01*
Y330302D01*
X205234Y333608D02*
Y330302D01*
X207438D01*
X210193D02*
X209091D01*
X208540Y330853D01*
Y331955D01*
X209091Y332506D01*
X210193D01*
X210744Y331955D01*
Y331404D01*
X208540D01*
X211846Y330302D02*
Y332506D01*
X213499D01*
X214050Y331955D01*
Y330302D01*
X216254Y329200D02*
X216805D01*
X217356Y329751D01*
Y332506D01*
X215703D01*
X215152Y331955D01*
Y330853D01*
X215703Y330302D01*
X217356D01*
X219009Y333057D02*
Y332506D01*
X218458D01*
X219560D01*
X219009D01*
Y330853D01*
X219560Y330302D01*
X221213Y333608D02*
Y330302D01*
Y331955D01*
X221764Y332506D01*
X222866D01*
X223417Y331955D01*
Y330302D01*
X229558D02*
Y333608D01*
X231211D01*
X231762Y333057D01*
Y331955D01*
X231211Y331404D01*
X229558D01*
X232864Y330302D02*
X233966D01*
X233415D01*
Y333608D01*
X232864D01*
X236171Y332506D02*
X237273D01*
X237824Y331955D01*
Y330302D01*
X236171D01*
X235619Y330853D01*
X236171Y331404D01*
X237824D01*
X239476Y333057D02*
Y332506D01*
X238926D01*
X240027D01*
X239476D01*
Y330853D01*
X240027Y330302D01*
X243334D02*
X242231D01*
X241681Y330853D01*
Y331955D01*
X242231Y332506D01*
X243334D01*
X243884Y331955D01*
Y331404D01*
X241681D01*
X247190Y333608D02*
Y330302D01*
X245537D01*
X244987Y330853D01*
Y331955D01*
X245537Y332506D01*
X247190D01*
X253332Y333608D02*
Y330302D01*
Y331955D01*
X255536D01*
Y333608D01*
Y330302D01*
X257189D02*
X258291D01*
X258842Y330853D01*
Y331955D01*
X258291Y332506D01*
X257189D01*
X256638Y331955D01*
Y330853D01*
X257189Y330302D01*
X259944D02*
X261046D01*
X260495D01*
Y333608D01*
X259944D01*
X264352Y330302D02*
X263250D01*
X262699Y330853D01*
Y331955D01*
X263250Y332506D01*
X264352D01*
X264903Y331955D01*
Y331404D01*
X262699D01*
X269311Y333608D02*
X271515D01*
X270413D01*
Y330302D01*
X272617Y332506D02*
Y330853D01*
X273168Y330302D01*
X274821D01*
Y329751D01*
X274270Y329200D01*
X273719D01*
X274821Y330302D02*
Y332506D01*
X275923Y329200D02*
Y332506D01*
X277576D01*
X278127Y331955D01*
Y330853D01*
X277576Y330302D01*
X275923D01*
X280882D02*
X279780D01*
X279229Y330853D01*
Y331955D01*
X279780Y332506D01*
X280882D01*
X281433Y331955D01*
Y331404D01*
X279229D01*
X-2661Y335263D02*
X287575D01*
X-2661Y327822D02*
X287575D01*
X-2661Y335263D02*
Y283727D01*
X287575Y335263D02*
Y283727D01*
X23238Y335263D02*
Y283727D01*
X55828Y335263D02*
Y283727D01*
X118172Y335263D02*
Y283727D01*
X171149Y335263D02*
Y283727D01*
X227432Y335263D02*
Y283727D01*
X251206Y335263D02*
Y283727D01*
X-2661Y289239D02*
X287575D01*
X-2661Y283727D02*
X287575D01*
D132*
X3590Y297507D02*
G03*
X3590Y297507I-1000J0D01*
G01*
D133*
X3427Y281889D02*
X2968Y282348D01*
X2050D01*
X1591Y281889D01*
Y281430D01*
X2050Y280971D01*
X2968D01*
X3427Y280512D01*
Y280053D01*
X2968Y279593D01*
X2050D01*
X1591Y280053D01*
X4346Y279593D02*
X5264D01*
X4805D01*
Y282348D01*
X4346D01*
X7101Y279593D02*
X8019D01*
X8478Y280053D01*
Y280971D01*
X8019Y281430D01*
X7101D01*
X6641Y280971D01*
Y280053D01*
X7101Y279593D01*
X9856Y281889D02*
Y281430D01*
X9396D01*
X10315D01*
X9856D01*
Y280053D01*
X10315Y279593D01*
X16284Y282348D02*
Y279593D01*
X14907D01*
X14447Y280053D01*
Y280971D01*
X14907Y281430D01*
X16284D01*
X18580Y279593D02*
X17661D01*
X17202Y280053D01*
Y280971D01*
X17661Y281430D01*
X18580D01*
X19039Y280971D01*
Y280512D01*
X17202D01*
X20416Y279593D02*
Y281889D01*
Y280971D01*
X19957D01*
X20876D01*
X20416D01*
Y281889D01*
X20876Y282348D01*
X22253Y279593D02*
X23171D01*
X22712D01*
Y281430D01*
X22253D01*
X24549Y279593D02*
Y281430D01*
X25927D01*
X26386Y280971D01*
Y279593D01*
X27304D02*
X28222D01*
X27763D01*
Y281430D01*
X27304D01*
X30059Y281889D02*
Y281430D01*
X29600D01*
X30518D01*
X30059D01*
Y280053D01*
X30518Y279593D01*
X31896D02*
X32814D01*
X32355D01*
Y281430D01*
X31896D01*
X34651Y279593D02*
X35569D01*
X36028Y280053D01*
Y280971D01*
X35569Y281430D01*
X34651D01*
X34192Y280971D01*
Y280053D01*
X34651Y279593D01*
X36947D02*
Y281430D01*
X38324D01*
X38783Y280971D01*
Y279593D01*
X39702D02*
X41079D01*
X41538Y280053D01*
X41079Y280512D01*
X40161D01*
X39702Y280971D01*
X40161Y281430D01*
X41538D01*
X45212D02*
X45671D01*
Y280971D01*
X45212D01*
Y281430D01*
Y280053D02*
X45671D01*
Y279593D01*
X45212D01*
Y280053D01*
X51576Y279593D02*
Y282348D01*
X52954D01*
X53413Y281889D01*
Y280971D01*
X52954Y280512D01*
X51576D01*
X52495D02*
X53413Y279593D01*
X54791D02*
X55709D01*
X56168Y280053D01*
Y280971D01*
X55709Y281430D01*
X54791D01*
X54331Y280971D01*
Y280053D01*
X54791Y279593D01*
X57086Y281430D02*
Y280053D01*
X57546Y279593D01*
X58923D01*
Y281430D01*
X60301Y281889D02*
Y281430D01*
X59841D01*
X60760D01*
X60301D01*
Y280053D01*
X60760Y279593D01*
X64892D02*
Y282348D01*
X66270D01*
X66729Y281889D01*
Y280971D01*
X66270Y280512D01*
X64892D01*
X68107Y281430D02*
X69025D01*
X69484Y280971D01*
Y279593D01*
X68107D01*
X67647Y280053D01*
X68107Y280512D01*
X69484D01*
X70862Y281889D02*
Y281430D01*
X70402D01*
X71321D01*
X70862D01*
Y280053D01*
X71321Y279593D01*
X72698Y282348D02*
Y279593D01*
Y280971D01*
X73157Y281430D01*
X74076D01*
X74535Y280971D01*
Y279593D01*
X78208Y282348D02*
Y279593D01*
X80045D01*
X82341D02*
X81422D01*
X80963Y280053D01*
Y280971D01*
X81422Y281430D01*
X82341D01*
X82800Y280971D01*
Y280512D01*
X80963D01*
X83718Y279593D02*
Y281430D01*
X85096D01*
X85555Y280971D01*
Y279593D01*
X87392Y278675D02*
X87851D01*
X88310Y279134D01*
Y281430D01*
X86932D01*
X86473Y280971D01*
Y280053D01*
X86932Y279593D01*
X88310D01*
X89688Y281889D02*
Y281430D01*
X89228D01*
X90147D01*
X89688D01*
Y280053D01*
X90147Y279593D01*
X91524Y282348D02*
Y279593D01*
Y280971D01*
X91983Y281430D01*
X92902D01*
X93361Y280971D01*
Y279593D01*
X51576Y274082D02*
Y276837D01*
X52954D01*
X53413Y276378D01*
Y275459D01*
X52954Y275000D01*
X51576D01*
X54331Y276837D02*
Y274082D01*
Y275459D01*
X54791Y275918D01*
X55709D01*
X56168Y275459D01*
Y274082D01*
X57086Y275918D02*
Y274541D01*
X57546Y274082D01*
X58923D01*
Y273622D01*
X58464Y273163D01*
X58005D01*
X58923Y274082D02*
Y275918D01*
X59841Y274082D02*
X61219D01*
X61678Y274541D01*
X61219Y275000D01*
X60301D01*
X59841Y275459D01*
X60301Y275918D01*
X61678D01*
X62596Y274082D02*
X63515D01*
X63056D01*
Y275918D01*
X62596D01*
X66729D02*
X65351D01*
X64892Y275459D01*
Y274541D01*
X65351Y274082D01*
X66729D01*
X68107Y275918D02*
X69025D01*
X69484Y275459D01*
Y274082D01*
X68107D01*
X67647Y274541D01*
X68107Y275000D01*
X69484D01*
X70402Y274082D02*
X71321D01*
X70862D01*
Y276837D01*
X70402D01*
X75453D02*
Y274082D01*
X77290D01*
X79586D02*
X78667D01*
X78208Y274541D01*
Y275459D01*
X78667Y275918D01*
X79586D01*
X80045Y275459D01*
Y275000D01*
X78208D01*
X80963Y274082D02*
Y275918D01*
X82341D01*
X82800Y275459D01*
Y274082D01*
X84637Y273163D02*
X85096D01*
X85555Y273622D01*
Y275918D01*
X84177D01*
X83718Y275459D01*
Y274541D01*
X84177Y274082D01*
X85555D01*
X86932Y276378D02*
Y275918D01*
X86473D01*
X87392D01*
X86932D01*
Y274541D01*
X87392Y274082D01*
X88769Y276837D02*
Y274082D01*
Y275459D01*
X89228Y275918D01*
X90147D01*
X90606Y275459D01*
Y274082D01*
M02*
