G04*
G04 #@! TF.GenerationSoftware,Altium Limited,Altium Designer,23.3.1 (30)*
G04*
G04 Layer_Physical_Order=4*
G04 Layer_Color=15441517*
%FSLAX25Y25*%
%MOIN*%
G70*
G04*
G04 #@! TF.SameCoordinates,D048E5A0-3BFD-467D-8461-715AC76033F9*
G04*
G04*
G04 #@! TF.FilePolarity,Positive*
G04*
G01*
G75*
%ADD12C,0.00787*%
%ADD20C,0.01000*%
G04:AMPARAMS|DCode=33|XSize=31.5mil|YSize=31.5mil|CornerRadius=3.15mil|HoleSize=0mil|Usage=FLASHONLY|Rotation=180.000|XOffset=0mil|YOffset=0mil|HoleType=Round|Shape=RoundedRectangle|*
%AMROUNDEDRECTD33*
21,1,0.03150,0.02520,0,0,180.0*
21,1,0.02520,0.03150,0,0,180.0*
1,1,0.00630,-0.01260,0.01260*
1,1,0.00630,0.01260,0.01260*
1,1,0.00630,0.01260,-0.01260*
1,1,0.00630,-0.01260,-0.01260*
%
%ADD33ROUNDEDRECTD33*%
%ADD114C,0.06496*%
%ADD115O,0.03937X0.06299*%
%ADD116O,0.03937X0.08268*%
%ADD117C,0.02559*%
%ADD118C,0.16535*%
%ADD119C,0.07874*%
%ADD120C,0.07400*%
%ADD121C,0.02362*%
G04:AMPARAMS|DCode=122|XSize=31.5mil|YSize=31.5mil|CornerRadius=3.15mil|HoleSize=0mil|Usage=FLASHONLY|Rotation=270.000|XOffset=0mil|YOffset=0mil|HoleType=Round|Shape=RoundedRectangle|*
%AMROUNDEDRECTD122*
21,1,0.03150,0.02520,0,0,270.0*
21,1,0.02520,0.03150,0,0,270.0*
1,1,0.00630,-0.01260,-0.01260*
1,1,0.00630,-0.01260,0.01260*
1,1,0.00630,0.01260,0.01260*
1,1,0.00630,0.01260,-0.01260*
%
%ADD122ROUNDEDRECTD122*%
G36*
X179528Y253937D02*
Y253006D01*
X179891Y251181D01*
X180603Y249461D01*
X181637Y247914D01*
X182953Y246598D01*
X184501Y245564D01*
X186220Y244851D01*
X188046Y244488D01*
X197221D01*
Y202649D01*
X160000D01*
X159541Y202459D01*
X159351Y202000D01*
Y165000D01*
X159541Y164541D01*
X160000Y164351D01*
X161152D01*
X161196Y164329D01*
X161414Y163515D01*
X161711Y163000D01*
X161423Y162500D01*
X158577D01*
X158289Y163000D01*
X158586Y163515D01*
X158848Y164493D01*
Y165507D01*
X158586Y166485D01*
X158079Y167363D01*
X157363Y168079D01*
X156485Y168586D01*
X155507Y168848D01*
X154493D01*
X153515Y168586D01*
X152637Y168079D01*
X151921Y167363D01*
X151414Y166485D01*
X151152Y165507D01*
Y164493D01*
X151414Y163515D01*
X151711Y163000D01*
X151423Y162500D01*
X148577D01*
X148289Y163000D01*
X148586Y163515D01*
X148848Y164493D01*
Y165507D01*
X148586Y166485D01*
X148079Y167363D01*
X147363Y168079D01*
X146485Y168586D01*
X145507Y168848D01*
X144493D01*
X143515Y168586D01*
X142637Y168079D01*
X141921Y167363D01*
X141414Y166485D01*
X141152Y165507D01*
Y164493D01*
X141414Y163515D01*
X141711Y163000D01*
X141423Y162500D01*
X138577D01*
X138289Y163000D01*
X138586Y163515D01*
X138848Y164493D01*
Y165507D01*
X138586Y166485D01*
X138079Y167363D01*
X137363Y168079D01*
X136485Y168586D01*
X135507Y168848D01*
X134493D01*
X133515Y168586D01*
X132637Y168079D01*
X131921Y167363D01*
X131414Y166485D01*
X131152Y165507D01*
Y164493D01*
X131414Y163515D01*
X131711Y163000D01*
X131423Y162500D01*
X128577D01*
X128289Y163000D01*
X128586Y163515D01*
X128848Y164493D01*
Y165507D01*
X128586Y166485D01*
X128079Y167363D01*
X127363Y168079D01*
X126485Y168586D01*
X125507Y168848D01*
X124493D01*
X123515Y168586D01*
X122637Y168079D01*
X121921Y167363D01*
X121414Y166485D01*
X121152Y165507D01*
Y164493D01*
X121414Y163515D01*
X121711Y163000D01*
X121423Y162500D01*
X118577D01*
X118289Y163000D01*
X118586Y163515D01*
X118848Y164493D01*
Y165507D01*
X118586Y166485D01*
X118079Y167363D01*
X117363Y168079D01*
X116485Y168586D01*
X115507Y168848D01*
X114493D01*
X113515Y168586D01*
X112637Y168079D01*
X111921Y167363D01*
X111414Y166485D01*
X111152Y165507D01*
Y164493D01*
X111414Y163515D01*
X111711Y163000D01*
X111423Y162500D01*
X108577D01*
X108289Y163000D01*
X108586Y163515D01*
X108848Y164493D01*
Y165507D01*
X108586Y166485D01*
X108079Y167363D01*
X107363Y168079D01*
X106485Y168586D01*
X105507Y168848D01*
X104493D01*
X103515Y168586D01*
X102637Y168079D01*
X101921Y167363D01*
X101414Y166485D01*
X101152Y165507D01*
Y164493D01*
X101414Y163515D01*
X101711Y163000D01*
X101423Y162500D01*
X98577D01*
X98289Y163000D01*
X98586Y163515D01*
X98848Y164493D01*
Y165507D01*
X98586Y166485D01*
X98079Y167363D01*
X97363Y168079D01*
X96485Y168586D01*
X95507Y168848D01*
X94493D01*
X93515Y168586D01*
X92637Y168079D01*
X91921Y167363D01*
X91414Y166485D01*
X91152Y165507D01*
Y164493D01*
X91414Y163515D01*
X91711Y163000D01*
X91423Y162500D01*
X88577D01*
X88289Y163000D01*
X88586Y163515D01*
X88848Y164493D01*
Y165507D01*
X88586Y166485D01*
X88079Y167363D01*
X87363Y168079D01*
X86485Y168586D01*
X85507Y168848D01*
X84493D01*
X83515Y168586D01*
X82637Y168079D01*
X81921Y167363D01*
X81414Y166485D01*
X81152Y165507D01*
Y164493D01*
X81414Y163515D01*
X81711Y163000D01*
X81423Y162500D01*
X78577D01*
X78289Y163000D01*
X78586Y163515D01*
X78848Y164493D01*
Y165507D01*
X78586Y166485D01*
X78079Y167363D01*
X77363Y168079D01*
X76485Y168586D01*
X75507Y168848D01*
X74493D01*
X73515Y168586D01*
X72637Y168079D01*
X71921Y167363D01*
X71414Y166485D01*
X71152Y165507D01*
Y164493D01*
X71414Y163515D01*
X71711Y163000D01*
X71423Y162500D01*
X68577D01*
X68289Y163000D01*
X68586Y163515D01*
X68848Y164493D01*
Y165507D01*
X68586Y166485D01*
X68079Y167363D01*
X67363Y168079D01*
X66485Y168586D01*
X65507Y168848D01*
X64493D01*
X63515Y168586D01*
X62637Y168079D01*
X61921Y167363D01*
X61414Y166485D01*
X61152Y165507D01*
Y164493D01*
X61414Y163515D01*
X61711Y163000D01*
X61423Y162500D01*
X58577D01*
X58289Y163000D01*
X58586Y163515D01*
X58848Y164493D01*
Y165507D01*
X58586Y166485D01*
X58079Y167363D01*
X57363Y168079D01*
X56485Y168586D01*
X55507Y168848D01*
X54493D01*
X53515Y168586D01*
X52637Y168079D01*
X51921Y167363D01*
X51414Y166485D01*
X51152Y165507D01*
Y164493D01*
X51414Y163515D01*
X51711Y163000D01*
X51423Y162500D01*
X48577D01*
X48289Y163000D01*
X48586Y163515D01*
X48848Y164493D01*
Y165507D01*
X48586Y166485D01*
X48079Y167363D01*
X47363Y168079D01*
X46485Y168586D01*
X45507Y168848D01*
X44493D01*
X43515Y168586D01*
X42637Y168079D01*
X41921Y167363D01*
X41414Y166485D01*
X41152Y165507D01*
Y164493D01*
X41414Y163515D01*
X41711Y163000D01*
X41423Y162500D01*
X37500D01*
Y158577D01*
X37000Y158289D01*
X36485Y158586D01*
X35507Y158848D01*
X34493D01*
X33515Y158586D01*
X32637Y158079D01*
X31921Y157363D01*
X31414Y156485D01*
X31152Y155507D01*
Y154493D01*
X31414Y153515D01*
X31921Y152637D01*
X32637Y151921D01*
X33515Y151414D01*
X34493Y151152D01*
X35507D01*
X36485Y151414D01*
X37000Y151711D01*
X37500Y151423D01*
Y148577D01*
X37000Y148289D01*
X36485Y148586D01*
X35507Y148848D01*
X34493D01*
X33515Y148586D01*
X32637Y148079D01*
X31921Y147363D01*
X31414Y146485D01*
X31152Y145507D01*
Y144493D01*
X31414Y143515D01*
X31921Y142637D01*
X32637Y141921D01*
X33515Y141414D01*
X34493Y141152D01*
X35507D01*
X36485Y141414D01*
X37000Y141711D01*
X37500Y141423D01*
Y138577D01*
X37000Y138289D01*
X36485Y138586D01*
X35507Y138848D01*
X34493D01*
X33515Y138586D01*
X32637Y138079D01*
X31921Y137363D01*
X31414Y136485D01*
X31152Y135507D01*
Y134493D01*
X31414Y133515D01*
X31921Y132637D01*
X32637Y131921D01*
X33515Y131414D01*
X34493Y131152D01*
X35507D01*
X36485Y131414D01*
X37000Y131711D01*
X37500Y131423D01*
Y128577D01*
X37000Y128289D01*
X36485Y128586D01*
X35507Y128848D01*
X34493D01*
X33515Y128586D01*
X32637Y128079D01*
X31921Y127363D01*
X31414Y126485D01*
X31152Y125507D01*
Y124493D01*
X31414Y123515D01*
X31921Y122637D01*
X32637Y121921D01*
X33515Y121414D01*
X34493Y121152D01*
X35507D01*
X36485Y121414D01*
X37000Y121711D01*
X37500Y121423D01*
Y118577D01*
X37000Y118289D01*
X36485Y118586D01*
X35507Y118848D01*
X34493D01*
X33515Y118586D01*
X32637Y118079D01*
X31921Y117363D01*
X31414Y116485D01*
X31152Y115507D01*
Y114493D01*
X31414Y113515D01*
X31921Y112637D01*
X32637Y111921D01*
X33515Y111414D01*
X34493Y111152D01*
X35507D01*
X36485Y111414D01*
X37000Y111711D01*
X37500Y111423D01*
Y108577D01*
X37000Y108289D01*
X36485Y108586D01*
X35507Y108848D01*
X34493D01*
X33515Y108586D01*
X32637Y108079D01*
X31921Y107363D01*
X31414Y106485D01*
X31152Y105507D01*
Y104493D01*
X31414Y103515D01*
X31921Y102637D01*
X32637Y101921D01*
X33515Y101414D01*
X34493Y101152D01*
X35507D01*
X36485Y101414D01*
X37000Y101711D01*
X37500Y101423D01*
Y98577D01*
X37000Y98289D01*
X36485Y98586D01*
X35507Y98848D01*
X34493D01*
X33515Y98586D01*
X32637Y98079D01*
X31921Y97363D01*
X31414Y96485D01*
X31152Y95507D01*
Y94493D01*
X31414Y93515D01*
X31921Y92637D01*
X32637Y91921D01*
X33515Y91414D01*
X34493Y91152D01*
X35507D01*
X36485Y91414D01*
X37000Y91711D01*
X37500Y91423D01*
Y88577D01*
X37000Y88289D01*
X36485Y88586D01*
X35507Y88848D01*
X34493D01*
X33515Y88586D01*
X32637Y88079D01*
X31921Y87363D01*
X31414Y86485D01*
X31152Y85507D01*
Y84493D01*
X31414Y83515D01*
X31921Y82637D01*
X32637Y81921D01*
X33515Y81414D01*
X34493Y81152D01*
X35507D01*
X36485Y81414D01*
X37000Y81711D01*
X37500Y81423D01*
Y78577D01*
X37000Y78289D01*
X36485Y78586D01*
X35507Y78848D01*
X34493D01*
X33515Y78586D01*
X32637Y78079D01*
X31921Y77363D01*
X31414Y76485D01*
X31152Y75507D01*
Y74493D01*
X31414Y73515D01*
X31921Y72637D01*
X32637Y71921D01*
X33515Y71414D01*
X34493Y71152D01*
X35507D01*
X36485Y71414D01*
X37000Y71711D01*
X37500Y71423D01*
Y68577D01*
X37000Y68289D01*
X36485Y68586D01*
X35507Y68848D01*
X34493D01*
X33515Y68586D01*
X32637Y68079D01*
X31921Y67363D01*
X31414Y66485D01*
X31152Y65507D01*
Y64493D01*
X31414Y63515D01*
X31921Y62637D01*
X32637Y61921D01*
X33515Y61414D01*
X34493Y61152D01*
X35507D01*
X36485Y61414D01*
X37000Y61711D01*
X37500Y61423D01*
Y58577D01*
X37000Y58289D01*
X36485Y58586D01*
X35507Y58848D01*
X34493D01*
X33515Y58586D01*
X32637Y58079D01*
X31921Y57363D01*
X31414Y56485D01*
X31152Y55507D01*
Y54493D01*
X31414Y53515D01*
X31921Y52637D01*
X32637Y51921D01*
X33515Y51414D01*
X34493Y51152D01*
X35507D01*
X36485Y51414D01*
X37000Y51711D01*
X37500Y51423D01*
Y48577D01*
X37000Y48289D01*
X36485Y48586D01*
X35507Y48848D01*
X34493D01*
X33515Y48586D01*
X32637Y48079D01*
X31921Y47363D01*
X31414Y46485D01*
X31152Y45507D01*
Y44493D01*
X31414Y43515D01*
X31921Y42637D01*
X32637Y41921D01*
X33515Y41414D01*
X34493Y41152D01*
X35507D01*
X36485Y41414D01*
X37000Y41711D01*
X37500Y41423D01*
Y37500D01*
X41423D01*
X41711Y37000D01*
X41414Y36485D01*
X41152Y35507D01*
Y34493D01*
X41414Y33515D01*
X41921Y32637D01*
X42637Y31921D01*
X43515Y31414D01*
X44493Y31152D01*
X45507D01*
X46485Y31414D01*
X47363Y31921D01*
X48079Y32637D01*
X48586Y33515D01*
X48848Y34493D01*
Y35507D01*
X48586Y36485D01*
X48289Y37000D01*
X48577Y37500D01*
X51423D01*
X51711Y37000D01*
X51414Y36485D01*
X51152Y35507D01*
Y34493D01*
X51414Y33515D01*
X51921Y32637D01*
X52637Y31921D01*
X53515Y31414D01*
X54493Y31152D01*
X55507D01*
X56485Y31414D01*
X57363Y31921D01*
X58079Y32637D01*
X58586Y33515D01*
X58848Y34493D01*
Y35507D01*
X58586Y36485D01*
X58289Y37000D01*
X58577Y37500D01*
X61423D01*
X61711Y37000D01*
X61414Y36485D01*
X61152Y35507D01*
Y34493D01*
X61414Y33515D01*
X61921Y32637D01*
X62637Y31921D01*
X63515Y31414D01*
X64493Y31152D01*
X65507D01*
X66485Y31414D01*
X67363Y31921D01*
X68079Y32637D01*
X68586Y33515D01*
X68848Y34493D01*
Y35507D01*
X68586Y36485D01*
X68289Y37000D01*
X68577Y37500D01*
X71423D01*
X71711Y37000D01*
X71414Y36485D01*
X71152Y35507D01*
Y34493D01*
X71414Y33515D01*
X71921Y32637D01*
X72637Y31921D01*
X73515Y31414D01*
X74493Y31152D01*
X75507D01*
X76485Y31414D01*
X77363Y31921D01*
X78079Y32637D01*
X78586Y33515D01*
X78848Y34493D01*
Y35507D01*
X78586Y36485D01*
X78289Y37000D01*
X78577Y37500D01*
X81423D01*
X81711Y37000D01*
X81414Y36485D01*
X81152Y35507D01*
Y34493D01*
X81414Y33515D01*
X81921Y32637D01*
X82637Y31921D01*
X83515Y31414D01*
X84493Y31152D01*
X85507D01*
X86485Y31414D01*
X87363Y31921D01*
X88079Y32637D01*
X88586Y33515D01*
X88848Y34493D01*
Y35507D01*
X88586Y36485D01*
X88289Y37000D01*
X88577Y37500D01*
X91423D01*
X91711Y37000D01*
X91414Y36485D01*
X91152Y35507D01*
Y34493D01*
X91414Y33515D01*
X91921Y32637D01*
X92637Y31921D01*
X93515Y31414D01*
X94493Y31152D01*
X95507D01*
X96485Y31414D01*
X97363Y31921D01*
X98079Y32637D01*
X98586Y33515D01*
X98848Y34493D01*
Y35507D01*
X98586Y36485D01*
X98289Y37000D01*
X98577Y37500D01*
X101423D01*
X101711Y37000D01*
X101414Y36485D01*
X101152Y35507D01*
Y34493D01*
X101414Y33515D01*
X101921Y32637D01*
X102637Y31921D01*
X103515Y31414D01*
X104493Y31152D01*
X105507D01*
X106485Y31414D01*
X107363Y31921D01*
X108079Y32637D01*
X108586Y33515D01*
X108848Y34493D01*
Y35507D01*
X108586Y36485D01*
X108289Y37000D01*
X108577Y37500D01*
X111423D01*
X111711Y37000D01*
X111414Y36485D01*
X111152Y35507D01*
Y34493D01*
X111414Y33515D01*
X111921Y32637D01*
X112637Y31921D01*
X113515Y31414D01*
X114493Y31152D01*
X115507D01*
X116485Y31414D01*
X117363Y31921D01*
X118079Y32637D01*
X118586Y33515D01*
X118848Y34493D01*
Y35507D01*
X118586Y36485D01*
X118289Y37000D01*
X118577Y37500D01*
X121423D01*
X121711Y37000D01*
X121414Y36485D01*
X121152Y35507D01*
Y34493D01*
X121414Y33515D01*
X121921Y32637D01*
X122637Y31921D01*
X123515Y31414D01*
X124493Y31152D01*
X125507D01*
X126485Y31414D01*
X127363Y31921D01*
X128079Y32637D01*
X128586Y33515D01*
X128848Y34493D01*
Y35507D01*
X128586Y36485D01*
X128289Y37000D01*
X128577Y37500D01*
X131423D01*
X131711Y37000D01*
X131414Y36485D01*
X131152Y35507D01*
Y34493D01*
X131414Y33515D01*
X131921Y32637D01*
X132637Y31921D01*
X133515Y31414D01*
X134493Y31152D01*
X135507D01*
X136485Y31414D01*
X137363Y31921D01*
X138079Y32637D01*
X138586Y33515D01*
X138848Y34493D01*
Y35507D01*
X138586Y36485D01*
X138289Y37000D01*
X138577Y37500D01*
X141423D01*
X141711Y37000D01*
X141414Y36485D01*
X141152Y35507D01*
Y34493D01*
X141414Y33515D01*
X141921Y32637D01*
X142637Y31921D01*
X143515Y31414D01*
X144493Y31152D01*
X145507D01*
X146485Y31414D01*
X147363Y31921D01*
X148079Y32637D01*
X148586Y33515D01*
X148848Y34493D01*
Y35507D01*
X148586Y36485D01*
X148289Y37000D01*
X148577Y37500D01*
X151423D01*
X151711Y37000D01*
X151414Y36485D01*
X151152Y35507D01*
Y34493D01*
X151414Y33515D01*
X151921Y32637D01*
X152637Y31921D01*
X153208Y31591D01*
X153121Y31064D01*
X153093Y31059D01*
X152730Y30816D01*
X152730Y30816D01*
X149207Y27293D01*
X148964Y26929D01*
X148949Y26856D01*
X148422Y26769D01*
X148079Y27363D01*
X147363Y28079D01*
X146485Y28586D01*
X145507Y28848D01*
X144493D01*
X143515Y28586D01*
X142637Y28079D01*
X141921Y27363D01*
X141414Y26485D01*
X141152Y25507D01*
Y24493D01*
X141414Y23515D01*
X141921Y22637D01*
X142637Y21921D01*
X143515Y21414D01*
X144493Y21152D01*
X145507D01*
X146485Y21414D01*
X146806Y21600D01*
X147113Y21200D01*
X146535Y20621D01*
X140965D01*
X138398Y23189D01*
X138586Y23515D01*
X138848Y24493D01*
Y25507D01*
X138586Y26485D01*
X138079Y27363D01*
X137363Y28079D01*
X136485Y28586D01*
X135507Y28848D01*
X134493D01*
X133515Y28586D01*
X132637Y28079D01*
X131921Y27363D01*
X131414Y26485D01*
X131152Y25507D01*
Y24493D01*
X131414Y23515D01*
X131921Y22637D01*
X132637Y21921D01*
X133515Y21414D01*
X134493Y21152D01*
X135507D01*
X136485Y21414D01*
X136811Y21602D01*
X139707Y18707D01*
X139707Y18707D01*
X140071Y18464D01*
X140500Y18379D01*
X147000D01*
X147000Y18378D01*
X147429Y18464D01*
X147793Y18707D01*
X150793Y21707D01*
X151036Y22071D01*
X151122Y22500D01*
X151122Y22500D01*
Y23022D01*
X151622Y23156D01*
X151921Y22637D01*
X152637Y21921D01*
X153515Y21414D01*
X154493Y21152D01*
X155507D01*
X156485Y21414D01*
X157363Y21921D01*
X158079Y22637D01*
X158586Y23515D01*
X158848Y24493D01*
Y25507D01*
X158586Y26485D01*
X158079Y27363D01*
X157700Y27742D01*
X157740Y27962D01*
X157873Y28276D01*
X158444Y28513D01*
X158945Y29014D01*
X159216Y29668D01*
Y30377D01*
X158945Y31032D01*
X158444Y31533D01*
X157905Y31756D01*
X157761Y32128D01*
X157746Y32304D01*
X158079Y32637D01*
X158586Y33515D01*
X158848Y34493D01*
Y35507D01*
X158586Y36485D01*
X158289Y37000D01*
X158577Y37500D01*
X162500D01*
Y41423D01*
X163000Y41711D01*
X163515Y41414D01*
X164493Y41152D01*
X165507D01*
X166485Y41414D01*
X167363Y41921D01*
X168079Y42637D01*
X168586Y43515D01*
X168848Y44493D01*
Y45507D01*
X168586Y46485D01*
X168079Y47363D01*
X167363Y48079D01*
X166485Y48586D01*
X165507Y48848D01*
X164493D01*
X163515Y48586D01*
X163000Y48289D01*
X162500Y48577D01*
Y51423D01*
X163000Y51711D01*
X163515Y51414D01*
X164493Y51152D01*
X165507D01*
X166485Y51414D01*
X167363Y51921D01*
X168079Y52637D01*
X168586Y53515D01*
X168848Y54493D01*
Y55507D01*
X168586Y56485D01*
X168079Y57363D01*
X167363Y58079D01*
X166485Y58586D01*
X165507Y58848D01*
X164493D01*
X163515Y58586D01*
X163000Y58289D01*
X162500Y58577D01*
Y61423D01*
X163000Y61711D01*
X163515Y61414D01*
X164493Y61152D01*
X165507D01*
X166485Y61414D01*
X167363Y61921D01*
X168079Y62637D01*
X168586Y63515D01*
X168848Y64493D01*
Y65507D01*
X168586Y66485D01*
X168079Y67363D01*
X167363Y68079D01*
X166485Y68586D01*
X165507Y68848D01*
X164493D01*
X163515Y68586D01*
X163000Y68289D01*
X162500Y68577D01*
Y71423D01*
X163000Y71711D01*
X163515Y71414D01*
X164493Y71152D01*
X165507D01*
X166485Y71414D01*
X167363Y71921D01*
X168079Y72637D01*
X168586Y73515D01*
X168848Y74493D01*
Y75507D01*
X168586Y76485D01*
X168079Y77363D01*
X167363Y78079D01*
X166485Y78586D01*
X165507Y78848D01*
X164493D01*
X163515Y78586D01*
X163000Y78289D01*
X162500Y78577D01*
Y81423D01*
X163000Y81711D01*
X163515Y81414D01*
X164493Y81152D01*
X165507D01*
X166485Y81414D01*
X167363Y81921D01*
X168079Y82637D01*
X168586Y83515D01*
X168848Y84493D01*
Y85507D01*
X168586Y86485D01*
X168079Y87363D01*
X167363Y88079D01*
X166485Y88586D01*
X165507Y88848D01*
X164493D01*
X163515Y88586D01*
X163000Y88289D01*
X162500Y88577D01*
Y91423D01*
X163000Y91711D01*
X163515Y91414D01*
X164493Y91152D01*
X165507D01*
X166485Y91414D01*
X167363Y91921D01*
X168079Y92637D01*
X168586Y93515D01*
X168848Y94493D01*
Y95507D01*
X168586Y96485D01*
X168079Y97363D01*
X167363Y98079D01*
X166485Y98586D01*
X165507Y98848D01*
X164493D01*
X163515Y98586D01*
X163000Y98289D01*
X162500Y98577D01*
Y101423D01*
X163000Y101711D01*
X163515Y101414D01*
X164493Y101152D01*
X165507D01*
X166485Y101414D01*
X167363Y101921D01*
X168079Y102637D01*
X168586Y103515D01*
X168804Y104329D01*
X168848Y104350D01*
X171152D01*
X171196Y104329D01*
X171414Y103515D01*
X171921Y102637D01*
X172637Y101921D01*
X173515Y101414D01*
X174493Y101152D01*
X175507D01*
X176485Y101414D01*
X177363Y101921D01*
X178079Y102637D01*
X178586Y103515D01*
X178804Y104329D01*
X178848Y104350D01*
X193581Y104351D01*
X197221D01*
Y20472D01*
X188046D01*
X186220Y20109D01*
X184501Y19397D01*
X182953Y18363D01*
X181637Y17047D01*
X180603Y15499D01*
X179891Y13780D01*
X179528Y11954D01*
Y11024D01*
Y2779D01*
X20472D01*
Y11024D01*
Y11954D01*
X20109Y13780D01*
X19397Y15499D01*
X18363Y17047D01*
X17047Y18363D01*
X15499Y19397D01*
X13780Y20109D01*
X11954Y20472D01*
X2779D01*
Y244488D01*
X11954D01*
X13780Y244851D01*
X15499Y245564D01*
X17047Y246598D01*
X18363Y247914D01*
X19397Y249461D01*
X20109Y251181D01*
X20472Y253006D01*
Y253937D01*
Y262182D01*
X179528D01*
Y253937D01*
D02*
G37*
G36*
X169351Y160000D02*
X169541Y159541D01*
X170000Y159351D01*
X174351D01*
Y158848D01*
X174329Y158804D01*
X173515Y158586D01*
X172637Y158079D01*
X171921Y157363D01*
X171414Y156485D01*
X171152Y155507D01*
Y154493D01*
X171414Y153515D01*
X171921Y152637D01*
X172637Y151921D01*
X173515Y151414D01*
X174329Y151196D01*
X174351Y151152D01*
Y148848D01*
X174329Y148804D01*
X173515Y148586D01*
X172637Y148079D01*
X171921Y147363D01*
X171414Y146485D01*
X171152Y145507D01*
Y144493D01*
X171272Y144046D01*
X170967Y143649D01*
X169033D01*
X168728Y144046D01*
X168848Y144493D01*
Y145507D01*
X168586Y146485D01*
X168079Y147363D01*
X167363Y148079D01*
X166485Y148586D01*
X165507Y148848D01*
X164493D01*
X163515Y148586D01*
X163000Y148289D01*
X162500Y148577D01*
Y151423D01*
X163000Y151711D01*
X163515Y151414D01*
X164493Y151152D01*
X165507D01*
X166485Y151414D01*
X167363Y151921D01*
X168079Y152637D01*
X168586Y153515D01*
X168848Y154493D01*
Y155507D01*
X168586Y156485D01*
X168079Y157363D01*
X167363Y158079D01*
X166485Y158586D01*
X165507Y158848D01*
X164493D01*
X163515Y158586D01*
X163000Y158289D01*
X162500Y158577D01*
Y161423D01*
X163000Y161711D01*
X163515Y161414D01*
X164493Y161152D01*
X165507D01*
X166485Y161414D01*
X167363Y161921D01*
X168079Y162637D01*
X168586Y163515D01*
X168804Y164329D01*
X168848Y164351D01*
X169351D01*
Y160000D01*
D02*
G37*
G36*
X197221Y105000D02*
X193581D01*
X178848Y105000D01*
Y105507D01*
X178586Y106485D01*
X178079Y107363D01*
X177363Y108079D01*
X176485Y108586D01*
X175507Y108848D01*
X174493D01*
X173515Y108586D01*
X172637Y108079D01*
X171921Y107363D01*
X171414Y106485D01*
X171152Y105507D01*
Y105000D01*
X168848D01*
Y105507D01*
X168586Y106485D01*
X168079Y107363D01*
X167363Y108079D01*
X166485Y108586D01*
X165507Y108848D01*
X164493D01*
X163515Y108586D01*
X163000Y108289D01*
X162500Y108577D01*
Y111423D01*
X163000Y111711D01*
X163515Y111414D01*
X164493Y111152D01*
X165507D01*
X166485Y111414D01*
X167363Y111921D01*
X168079Y112637D01*
X168586Y113515D01*
X168848Y114493D01*
Y115507D01*
X168586Y116485D01*
X168079Y117363D01*
X167363Y118079D01*
X166485Y118586D01*
X165507Y118848D01*
X164493D01*
X163515Y118586D01*
X163000Y118289D01*
X162500Y118577D01*
Y121423D01*
X163000Y121711D01*
X163515Y121414D01*
X164493Y121152D01*
X165507D01*
X166485Y121414D01*
X167363Y121921D01*
X168079Y122637D01*
X168586Y123515D01*
X168848Y124493D01*
Y125507D01*
X168586Y126485D01*
X168079Y127363D01*
X167363Y128079D01*
X166485Y128586D01*
X165507Y128848D01*
X164493D01*
X163515Y128586D01*
X163000Y128289D01*
X162500Y128577D01*
Y131423D01*
X163000Y131711D01*
X163515Y131414D01*
X164493Y131152D01*
X165507D01*
X166485Y131414D01*
X167363Y131921D01*
X168079Y132637D01*
X168586Y133515D01*
X168848Y134493D01*
Y135507D01*
X168586Y136485D01*
X168079Y137363D01*
X167363Y138079D01*
X166485Y138586D01*
X165507Y138848D01*
X164493D01*
X163515Y138586D01*
X163000Y138289D01*
X162500Y138577D01*
Y141423D01*
X163000Y141711D01*
X163515Y141414D01*
X164493Y141152D01*
X165507D01*
X166485Y141414D01*
X167363Y141921D01*
X168079Y142637D01*
X168289Y143000D01*
X171711D01*
X171921Y142637D01*
X172637Y141921D01*
X173515Y141414D01*
X174493Y141152D01*
X175507D01*
X176485Y141414D01*
X177363Y141921D01*
X178079Y142637D01*
X178586Y143515D01*
X178848Y144493D01*
Y145507D01*
X178586Y146485D01*
X178079Y147363D01*
X177363Y148079D01*
X176485Y148586D01*
X175507Y148848D01*
X175000D01*
Y151152D01*
X175507D01*
X176485Y151414D01*
X177363Y151921D01*
X178079Y152637D01*
X178586Y153515D01*
X178848Y154493D01*
Y155507D01*
X178586Y156485D01*
X178079Y157363D01*
X177363Y158079D01*
X176485Y158586D01*
X175507Y158848D01*
X175000D01*
Y160000D01*
X170000D01*
Y165000D01*
X168848D01*
Y165507D01*
X168586Y166485D01*
X168079Y167363D01*
X167363Y168079D01*
X166485Y168586D01*
X165507Y168848D01*
X164493D01*
X163515Y168586D01*
X162637Y168079D01*
X161921Y167363D01*
X161414Y166485D01*
X161152Y165507D01*
Y165000D01*
X160000D01*
Y202000D01*
X197221D01*
Y105000D01*
D02*
G37*
%LPC*%
G36*
X74354Y259781D02*
X73646D01*
X72991Y259510D01*
X72490Y259009D01*
X72219Y258354D01*
Y257646D01*
X72490Y256991D01*
X72991Y256490D01*
X73646Y256219D01*
X74354D01*
X75009Y256490D01*
X75510Y256991D01*
X75781Y257646D01*
Y258354D01*
X75510Y259009D01*
X75009Y259510D01*
X74354Y259781D01*
D02*
G37*
G36*
X172008Y256536D02*
X171337Y256447D01*
X170712Y256189D01*
X170176Y255777D01*
X169764Y255240D01*
X169506Y254615D01*
X169417Y253945D01*
Y251583D01*
X169506Y250912D01*
X169764Y250287D01*
X170176Y249751D01*
X170712Y249339D01*
X171337Y249080D01*
X172008Y248992D01*
X172678Y249080D01*
X173303Y249339D01*
X173840Y249751D01*
X174251Y250287D01*
X174510Y250912D01*
X174599Y251583D01*
Y253945D01*
X174510Y254615D01*
X174251Y255240D01*
X173840Y255777D01*
X173303Y256189D01*
X172678Y256447D01*
X172008Y256536D01*
D02*
G37*
G36*
X137992D02*
X137322Y256447D01*
X136697Y256189D01*
X136160Y255777D01*
X135749Y255240D01*
X135490Y254615D01*
X135401Y253945D01*
Y251583D01*
X135490Y250912D01*
X135749Y250287D01*
X136160Y249751D01*
X136697Y249339D01*
X137322Y249080D01*
X137992Y248992D01*
X138663Y249080D01*
X139287Y249339D01*
X139824Y249751D01*
X140236Y250287D01*
X140495Y250912D01*
X140583Y251583D01*
Y253945D01*
X140495Y254615D01*
X140236Y255240D01*
X139824Y255777D01*
X139287Y256189D01*
X138663Y256447D01*
X137992Y256536D01*
D02*
G37*
G36*
X62008D02*
X61337Y256447D01*
X60712Y256189D01*
X60176Y255777D01*
X59764Y255240D01*
X59505Y254615D01*
X59417Y253945D01*
Y251583D01*
X59505Y250912D01*
X59764Y250287D01*
X60176Y249751D01*
X60712Y249339D01*
X61337Y249080D01*
X62008Y248992D01*
X62678Y249080D01*
X63303Y249339D01*
X63840Y249751D01*
X64251Y250287D01*
X64510Y250912D01*
X64599Y251583D01*
Y253945D01*
X64510Y254615D01*
X64251Y255240D01*
X63840Y255777D01*
X63303Y256189D01*
X62678Y256447D01*
X62008Y256536D01*
D02*
G37*
G36*
X27992D02*
X27322Y256447D01*
X26697Y256189D01*
X26160Y255777D01*
X25749Y255240D01*
X25490Y254615D01*
X25401Y253945D01*
Y251583D01*
X25490Y250912D01*
X25749Y250287D01*
X26160Y249751D01*
X26697Y249339D01*
X27322Y249080D01*
X27992Y248992D01*
X28663Y249080D01*
X29287Y249339D01*
X29824Y249751D01*
X30236Y250287D01*
X30494Y250912D01*
X30583Y251583D01*
Y253945D01*
X30494Y254615D01*
X30236Y255240D01*
X29824Y255777D01*
X29287Y256189D01*
X28663Y256447D01*
X27992Y256536D01*
D02*
G37*
G36*
X166752Y240273D02*
X166004D01*
X165313Y239987D01*
X164785Y239458D01*
X164498Y238768D01*
Y238020D01*
X164785Y237329D01*
X165313Y236800D01*
X166004Y236514D01*
X166752D01*
X167443Y236800D01*
X167971Y237329D01*
X168257Y238020D01*
Y238768D01*
X167971Y239458D01*
X167443Y239987D01*
X166752Y240273D01*
D02*
G37*
G36*
X143996D02*
X143248D01*
X142557Y239987D01*
X142029Y239458D01*
X141743Y238768D01*
Y238020D01*
X142029Y237329D01*
X142557Y236800D01*
X143248Y236514D01*
X143996D01*
X144687Y236800D01*
X145215Y237329D01*
X145502Y238020D01*
Y238768D01*
X145215Y239458D01*
X144687Y239987D01*
X143996Y240273D01*
D02*
G37*
G36*
X56752D02*
X56004D01*
X55313Y239987D01*
X54785Y239458D01*
X54498Y238768D01*
Y238020D01*
X54785Y237329D01*
X55313Y236800D01*
X56004Y236514D01*
X56752D01*
X57443Y236800D01*
X57971Y237329D01*
X58258Y238020D01*
Y238768D01*
X57971Y239458D01*
X57443Y239987D01*
X56752Y240273D01*
D02*
G37*
G36*
X33996D02*
X33248D01*
X32557Y239987D01*
X32029Y239458D01*
X31743Y238768D01*
Y238020D01*
X32029Y237329D01*
X32557Y236800D01*
X33248Y236514D01*
X33996D01*
X34687Y236800D01*
X35215Y237329D01*
X35502Y238020D01*
Y238768D01*
X35215Y239458D01*
X34687Y239987D01*
X33996Y240273D01*
D02*
G37*
G36*
X68354Y236781D02*
X67646D01*
X66991Y236510D01*
X66490Y236009D01*
X66219Y235354D01*
Y234646D01*
X66490Y233991D01*
X66991Y233490D01*
X67646Y233219D01*
X68354D01*
X69009Y233490D01*
X69510Y233991D01*
X69781Y234646D01*
Y235354D01*
X69510Y236009D01*
X69009Y236510D01*
X68354Y236781D01*
D02*
G37*
G36*
X172008Y241063D02*
X171337Y240975D01*
X170712Y240716D01*
X170176Y240304D01*
X169764Y239768D01*
X169506Y239143D01*
X169417Y238472D01*
Y234142D01*
X169506Y233471D01*
X169764Y232846D01*
X170176Y232310D01*
X170712Y231898D01*
X171337Y231639D01*
X172008Y231551D01*
X172678Y231639D01*
X173303Y231898D01*
X173840Y232310D01*
X174251Y232846D01*
X174510Y233471D01*
X174599Y234142D01*
Y238472D01*
X174510Y239143D01*
X174251Y239768D01*
X173840Y240304D01*
X173303Y240716D01*
X172678Y240975D01*
X172008Y241063D01*
D02*
G37*
G36*
X137992D02*
X137322Y240975D01*
X136697Y240716D01*
X136160Y240304D01*
X135749Y239768D01*
X135490Y239143D01*
X135401Y238472D01*
Y234142D01*
X135490Y233471D01*
X135749Y232846D01*
X136160Y232310D01*
X136697Y231898D01*
X137322Y231639D01*
X137992Y231551D01*
X138663Y231639D01*
X139287Y231898D01*
X139824Y232310D01*
X140236Y232846D01*
X140495Y233471D01*
X140583Y234142D01*
Y238472D01*
X140495Y239143D01*
X140236Y239768D01*
X139824Y240304D01*
X139287Y240716D01*
X138663Y240975D01*
X137992Y241063D01*
D02*
G37*
G36*
X62008D02*
X61337Y240975D01*
X60712Y240716D01*
X60176Y240304D01*
X59764Y239768D01*
X59505Y239143D01*
X59417Y238472D01*
Y234142D01*
X59505Y233471D01*
X59764Y232846D01*
X60176Y232310D01*
X60712Y231898D01*
X61337Y231639D01*
X62008Y231551D01*
X62678Y231639D01*
X63303Y231898D01*
X63840Y232310D01*
X64251Y232846D01*
X64510Y233471D01*
X64599Y234142D01*
Y238472D01*
X64510Y239143D01*
X64251Y239768D01*
X63840Y240304D01*
X63303Y240716D01*
X62678Y240975D01*
X62008Y241063D01*
D02*
G37*
G36*
X27992D02*
X27322Y240975D01*
X26697Y240716D01*
X26160Y240304D01*
X25749Y239768D01*
X25490Y239143D01*
X25401Y238472D01*
Y234142D01*
X25490Y233471D01*
X25749Y232846D01*
X26160Y232310D01*
X26697Y231898D01*
X27322Y231639D01*
X27992Y231551D01*
X28663Y231639D01*
X29287Y231898D01*
X29824Y232310D01*
X30236Y232846D01*
X30494Y233471D01*
X30583Y234142D01*
Y238472D01*
X30494Y239143D01*
X30236Y239768D01*
X29824Y240304D01*
X29287Y240716D01*
X28663Y240975D01*
X27992Y241063D01*
D02*
G37*
G36*
X94354Y247781D02*
X93646D01*
X92991Y247510D01*
X92490Y247009D01*
X92219Y246354D01*
Y245646D01*
X92490Y244991D01*
X92991Y244490D01*
X93646Y244219D01*
X94354D01*
X95009Y244490D01*
X95397Y244879D01*
X100535D01*
X104878Y240535D01*
Y232397D01*
X104490Y232009D01*
X104219Y231354D01*
Y230646D01*
X104490Y229991D01*
X104991Y229490D01*
X105646Y229219D01*
X106354D01*
X107009Y229490D01*
X107510Y229991D01*
X107781Y230646D01*
Y231354D01*
X107510Y232009D01*
X107122Y232397D01*
Y241000D01*
X107122Y241000D01*
X107036Y241429D01*
X106793Y241793D01*
X106793Y241793D01*
X101793Y246793D01*
X101429Y247036D01*
X101000Y247122D01*
X101000Y247122D01*
X95397D01*
X95009Y247510D01*
X94354Y247781D01*
D02*
G37*
G36*
X85354Y248781D02*
X84646D01*
X83991Y248510D01*
X83490Y248009D01*
X83219Y247354D01*
Y246646D01*
X83490Y245991D01*
X83878Y245603D01*
Y237000D01*
X83878Y237000D01*
X83964Y236571D01*
X84207Y236207D01*
X95207Y225207D01*
X95571Y224964D01*
X96000Y224878D01*
X96000Y224879D01*
X107603D01*
X107991Y224490D01*
X108646Y224219D01*
X109354D01*
X110009Y224490D01*
X110510Y224991D01*
X110781Y225646D01*
Y226354D01*
X110510Y227009D01*
X110009Y227510D01*
X109354Y227781D01*
X108646D01*
X107991Y227510D01*
X107603Y227121D01*
X96465D01*
X86122Y237465D01*
Y245603D01*
X86510Y245991D01*
X86781Y246646D01*
Y247354D01*
X86510Y248009D01*
X86009Y248510D01*
X85354Y248781D01*
D02*
G37*
G36*
X59354Y216781D02*
X58646D01*
X57991Y216510D01*
X57750Y216269D01*
X57509Y216510D01*
X56854Y216781D01*
X56146D01*
X55491Y216510D01*
X54990Y216009D01*
X54719Y215354D01*
Y214646D01*
X54990Y213991D01*
X55491Y213490D01*
X56146Y213219D01*
X56854D01*
X57509Y213490D01*
X57750Y213731D01*
X57991Y213490D01*
X58646Y213219D01*
X59354D01*
X60009Y213490D01*
X60510Y213991D01*
X60781Y214646D01*
Y215354D01*
X60510Y216009D01*
X60009Y216510D01*
X59354Y216781D01*
D02*
G37*
G36*
X144354D02*
X143646D01*
X142991Y216510D01*
X142500Y216019D01*
X142009Y216510D01*
X141354Y216781D01*
X140646D01*
X139991Y216510D01*
X139490Y216009D01*
X139219Y215354D01*
Y214646D01*
X139490Y213991D01*
X139991Y213490D01*
X140646Y213219D01*
X141354D01*
X142009Y213490D01*
X142500Y213981D01*
X142991Y213490D01*
X143646Y213219D01*
X144354D01*
X145009Y213490D01*
X145510Y213991D01*
X145781Y214646D01*
Y215354D01*
X145510Y216009D01*
X145009Y216510D01*
X144354Y216781D01*
D02*
G37*
G36*
X94354Y220781D02*
X93646D01*
X92991Y220510D01*
X92490Y220009D01*
X92219Y219354D01*
Y218646D01*
X92490Y217991D01*
X92991Y217490D01*
X93646Y217219D01*
X94195D01*
X99207Y212207D01*
X99207Y212207D01*
X99571Y211964D01*
X100000Y211878D01*
X100000Y211878D01*
X121603D01*
X121991Y211490D01*
X122646Y211219D01*
X123354D01*
X124009Y211490D01*
X124510Y211991D01*
X124781Y212646D01*
Y213354D01*
X124510Y214009D01*
X124009Y214510D01*
X123354Y214781D01*
X122646D01*
X121991Y214510D01*
X121603Y214122D01*
X100465D01*
X95781Y218805D01*
Y219354D01*
X95510Y220009D01*
X95009Y220510D01*
X94354Y220781D01*
D02*
G37*
G36*
X184597Y213647D02*
X183403D01*
X182249Y213338D01*
X181214Y212741D01*
X180369Y211896D01*
X179772Y210861D01*
X179463Y209707D01*
Y208513D01*
X179772Y207359D01*
X180369Y206324D01*
X181214Y205480D01*
X182249Y204882D01*
X183403Y204573D01*
X184597D01*
X185751Y204882D01*
X186786Y205480D01*
X187630Y206324D01*
X188228Y207359D01*
X188537Y208513D01*
Y209707D01*
X188228Y210861D01*
X187630Y211896D01*
X186786Y212741D01*
X185751Y213338D01*
X184597Y213647D01*
D02*
G37*
G36*
X16597Y213647D02*
X15403D01*
X14249Y213338D01*
X13214Y212741D01*
X12370Y211896D01*
X11772Y210861D01*
X11463Y209707D01*
Y208513D01*
X11772Y207359D01*
X12370Y206324D01*
X13214Y205480D01*
X14249Y204882D01*
X15403Y204573D01*
X16597D01*
X17751Y204882D01*
X18786Y205480D01*
X19631Y206324D01*
X20228Y207359D01*
X20537Y208513D01*
Y209707D01*
X20228Y210861D01*
X19631Y211896D01*
X18786Y212741D01*
X17751Y213338D01*
X16597Y213647D01*
D02*
G37*
G36*
X80354Y208781D02*
X79646D01*
X78991Y208510D01*
X78490Y208009D01*
X78219Y207354D01*
Y206646D01*
X78490Y205991D01*
X78991Y205490D01*
X79571Y205250D01*
X79587Y205145D01*
Y204855D01*
X79571Y204750D01*
X78991Y204510D01*
X78490Y204009D01*
X78219Y203354D01*
Y202646D01*
X78490Y201991D01*
X78991Y201490D01*
X79646Y201219D01*
X80354D01*
X81009Y201490D01*
X81510Y201991D01*
X81781Y202646D01*
Y203354D01*
X81510Y204009D01*
X81009Y204510D01*
X80429Y204750D01*
X80413Y204855D01*
Y205145D01*
X80429Y205250D01*
X81009Y205490D01*
X81510Y205991D01*
X81781Y206646D01*
Y207354D01*
X81510Y208009D01*
X81009Y208510D01*
X80354Y208781D01*
D02*
G37*
G36*
X145507Y208848D02*
X144493D01*
X143515Y208586D01*
X142637Y208079D01*
X141921Y207363D01*
X141414Y206485D01*
X141152Y205507D01*
Y204493D01*
X141414Y203515D01*
X141921Y202637D01*
X142637Y201921D01*
X143515Y201414D01*
X144493Y201152D01*
X145507D01*
X146485Y201414D01*
X147363Y201921D01*
X148079Y202637D01*
X148586Y203515D01*
X148848Y204493D01*
Y205507D01*
X148586Y206485D01*
X148079Y207363D01*
X147363Y208079D01*
X146485Y208586D01*
X145507Y208848D01*
D02*
G37*
G36*
X55507D02*
X54493D01*
X53515Y208586D01*
X52637Y208079D01*
X51921Y207363D01*
X51414Y206485D01*
X51152Y205507D01*
Y204493D01*
X51414Y203515D01*
X51921Y202637D01*
X52637Y201921D01*
X53515Y201414D01*
X54493Y201152D01*
X55507D01*
X56485Y201414D01*
X57363Y201921D01*
X58079Y202637D01*
X58586Y203515D01*
X58848Y204493D01*
Y205507D01*
X58586Y206485D01*
X58079Y207363D01*
X57363Y208079D01*
X56485Y208586D01*
X55507Y208848D01*
D02*
G37*
G36*
X25566Y199300D02*
X24434D01*
X23340Y199007D01*
X22360Y198441D01*
X21559Y197640D01*
X20993Y196660D01*
X20700Y195566D01*
Y194434D01*
X20993Y193340D01*
X21559Y192360D01*
X22360Y191559D01*
X23340Y190993D01*
X24434Y190700D01*
X25566D01*
X26660Y190993D01*
X27640Y191559D01*
X28441Y192360D01*
X29007Y193340D01*
X29300Y194434D01*
Y195566D01*
X29007Y196660D01*
X28441Y197640D01*
X27640Y198441D01*
X26660Y199007D01*
X25566Y199300D01*
D02*
G37*
G36*
Y189300D02*
X24434D01*
X23340Y189007D01*
X22360Y188441D01*
X21559Y187640D01*
X20993Y186660D01*
X20700Y185566D01*
Y184434D01*
X20993Y183340D01*
X21559Y182360D01*
X22360Y181559D01*
X23340Y180993D01*
X24434Y180700D01*
X25566D01*
X26660Y180993D01*
X27640Y181559D01*
X28441Y182360D01*
X29007Y183340D01*
X29300Y184434D01*
Y185566D01*
X29007Y186660D01*
X28441Y187640D01*
X27640Y188441D01*
X26660Y189007D01*
X25566Y189300D01*
D02*
G37*
G36*
X155507Y178848D02*
X154493D01*
X153515Y178586D01*
X152637Y178079D01*
X151921Y177363D01*
X151414Y176485D01*
X151152Y175507D01*
Y174493D01*
X151414Y173515D01*
X151921Y172637D01*
X152637Y171921D01*
X153515Y171414D01*
X154493Y171152D01*
X155507D01*
X156485Y171414D01*
X157363Y171921D01*
X158079Y172637D01*
X158586Y173515D01*
X158848Y174493D01*
Y175507D01*
X158586Y176485D01*
X158079Y177363D01*
X157363Y178079D01*
X156485Y178586D01*
X155507Y178848D01*
D02*
G37*
G36*
X145507D02*
X144493D01*
X143515Y178586D01*
X142637Y178079D01*
X141921Y177363D01*
X141414Y176485D01*
X141152Y175507D01*
Y174493D01*
X141414Y173515D01*
X141921Y172637D01*
X142637Y171921D01*
X143515Y171414D01*
X144493Y171152D01*
X145507D01*
X146485Y171414D01*
X147363Y171921D01*
X148079Y172637D01*
X148586Y173515D01*
X148848Y174493D01*
Y175507D01*
X148586Y176485D01*
X148079Y177363D01*
X147363Y178079D01*
X146485Y178586D01*
X145507Y178848D01*
D02*
G37*
G36*
X135507D02*
X134493D01*
X133515Y178586D01*
X132637Y178079D01*
X131921Y177363D01*
X131414Y176485D01*
X131152Y175507D01*
Y174493D01*
X131414Y173515D01*
X131921Y172637D01*
X132637Y171921D01*
X133515Y171414D01*
X134493Y171152D01*
X135507D01*
X136485Y171414D01*
X137363Y171921D01*
X138079Y172637D01*
X138586Y173515D01*
X138848Y174493D01*
Y175507D01*
X138586Y176485D01*
X138079Y177363D01*
X137363Y178079D01*
X136485Y178586D01*
X135507Y178848D01*
D02*
G37*
G36*
X125507D02*
X124493D01*
X123515Y178586D01*
X122637Y178079D01*
X121921Y177363D01*
X121414Y176485D01*
X121152Y175507D01*
Y174493D01*
X121414Y173515D01*
X121921Y172637D01*
X122637Y171921D01*
X123515Y171414D01*
X124493Y171152D01*
X125507D01*
X126485Y171414D01*
X127363Y171921D01*
X128079Y172637D01*
X128586Y173515D01*
X128848Y174493D01*
Y175507D01*
X128586Y176485D01*
X128079Y177363D01*
X127363Y178079D01*
X126485Y178586D01*
X125507Y178848D01*
D02*
G37*
G36*
X115507D02*
X114493D01*
X113515Y178586D01*
X112637Y178079D01*
X111921Y177363D01*
X111414Y176485D01*
X111152Y175507D01*
Y174493D01*
X111414Y173515D01*
X111921Y172637D01*
X112637Y171921D01*
X113515Y171414D01*
X114493Y171152D01*
X115507D01*
X116485Y171414D01*
X117363Y171921D01*
X118079Y172637D01*
X118586Y173515D01*
X118848Y174493D01*
Y175507D01*
X118586Y176485D01*
X118079Y177363D01*
X117363Y178079D01*
X116485Y178586D01*
X115507Y178848D01*
D02*
G37*
G36*
X105507D02*
X104493D01*
X103515Y178586D01*
X102637Y178079D01*
X101921Y177363D01*
X101414Y176485D01*
X101152Y175507D01*
Y174493D01*
X101414Y173515D01*
X101921Y172637D01*
X102637Y171921D01*
X103515Y171414D01*
X104493Y171152D01*
X105507D01*
X106485Y171414D01*
X107363Y171921D01*
X108079Y172637D01*
X108586Y173515D01*
X108848Y174493D01*
Y175507D01*
X108586Y176485D01*
X108079Y177363D01*
X107363Y178079D01*
X106485Y178586D01*
X105507Y178848D01*
D02*
G37*
G36*
X95507D02*
X94493D01*
X93515Y178586D01*
X92637Y178079D01*
X91921Y177363D01*
X91414Y176485D01*
X91152Y175507D01*
Y174493D01*
X91414Y173515D01*
X91921Y172637D01*
X92637Y171921D01*
X93515Y171414D01*
X94493Y171152D01*
X95507D01*
X96485Y171414D01*
X97363Y171921D01*
X98079Y172637D01*
X98586Y173515D01*
X98848Y174493D01*
Y175507D01*
X98586Y176485D01*
X98079Y177363D01*
X97363Y178079D01*
X96485Y178586D01*
X95507Y178848D01*
D02*
G37*
G36*
X85507D02*
X84493D01*
X83515Y178586D01*
X82637Y178079D01*
X81921Y177363D01*
X81414Y176485D01*
X81152Y175507D01*
Y174493D01*
X81414Y173515D01*
X81921Y172637D01*
X82637Y171921D01*
X83515Y171414D01*
X84493Y171152D01*
X85507D01*
X86485Y171414D01*
X87363Y171921D01*
X88079Y172637D01*
X88586Y173515D01*
X88848Y174493D01*
Y175507D01*
X88586Y176485D01*
X88079Y177363D01*
X87363Y178079D01*
X86485Y178586D01*
X85507Y178848D01*
D02*
G37*
G36*
X75507D02*
X74493D01*
X73515Y178586D01*
X72637Y178079D01*
X71921Y177363D01*
X71414Y176485D01*
X71152Y175507D01*
Y174493D01*
X71414Y173515D01*
X71921Y172637D01*
X72637Y171921D01*
X73515Y171414D01*
X74493Y171152D01*
X75507D01*
X76485Y171414D01*
X77363Y171921D01*
X78079Y172637D01*
X78586Y173515D01*
X78848Y174493D01*
Y175507D01*
X78586Y176485D01*
X78079Y177363D01*
X77363Y178079D01*
X76485Y178586D01*
X75507Y178848D01*
D02*
G37*
G36*
X65507D02*
X64493D01*
X63515Y178586D01*
X62637Y178079D01*
X61921Y177363D01*
X61414Y176485D01*
X61152Y175507D01*
Y174493D01*
X61414Y173515D01*
X61921Y172637D01*
X62637Y171921D01*
X63515Y171414D01*
X64493Y171152D01*
X65507D01*
X66485Y171414D01*
X67363Y171921D01*
X68079Y172637D01*
X68586Y173515D01*
X68848Y174493D01*
Y175507D01*
X68586Y176485D01*
X68079Y177363D01*
X67363Y178079D01*
X66485Y178586D01*
X65507Y178848D01*
D02*
G37*
G36*
X55507D02*
X54493D01*
X53515Y178586D01*
X52637Y178079D01*
X51921Y177363D01*
X51414Y176485D01*
X51152Y175507D01*
Y174493D01*
X51414Y173515D01*
X51921Y172637D01*
X52637Y171921D01*
X53515Y171414D01*
X54493Y171152D01*
X55507D01*
X56485Y171414D01*
X57363Y171921D01*
X58079Y172637D01*
X58586Y173515D01*
X58848Y174493D01*
Y175507D01*
X58586Y176485D01*
X58079Y177363D01*
X57363Y178079D01*
X56485Y178586D01*
X55507Y178848D01*
D02*
G37*
G36*
X45507D02*
X44493D01*
X43515Y178586D01*
X42637Y178079D01*
X41921Y177363D01*
X41414Y176485D01*
X41152Y175507D01*
Y174493D01*
X41414Y173515D01*
X41921Y172637D01*
X42637Y171921D01*
X43515Y171414D01*
X44493Y171152D01*
X45507D01*
X46485Y171414D01*
X47363Y171921D01*
X48079Y172637D01*
X48586Y173515D01*
X48848Y174493D01*
Y175507D01*
X48586Y176485D01*
X48079Y177363D01*
X47363Y178079D01*
X46485Y178586D01*
X45507Y178848D01*
D02*
G37*
G36*
X25566Y179300D02*
X24434D01*
X23340Y179007D01*
X22360Y178441D01*
X21559Y177640D01*
X20993Y176660D01*
X20700Y175566D01*
Y174434D01*
X20993Y173340D01*
X21559Y172360D01*
X22360Y171559D01*
X23340Y170993D01*
X24434Y170700D01*
X25566D01*
X26660Y170993D01*
X27640Y171559D01*
X28441Y172360D01*
X29007Y173340D01*
X29300Y174434D01*
Y175566D01*
X29007Y176660D01*
X28441Y177640D01*
X27640Y178441D01*
X26660Y179007D01*
X25566Y179300D01*
D02*
G37*
G36*
X25507Y158848D02*
X24493D01*
X23515Y158586D01*
X22637Y158079D01*
X21921Y157363D01*
X21414Y156485D01*
X21152Y155507D01*
Y154493D01*
X21414Y153515D01*
X21921Y152637D01*
X22637Y151921D01*
X23515Y151414D01*
X24493Y151152D01*
X25507D01*
X26485Y151414D01*
X27363Y151921D01*
X28079Y152637D01*
X28586Y153515D01*
X28848Y154493D01*
Y155507D01*
X28586Y156485D01*
X28079Y157363D01*
X27363Y158079D01*
X26485Y158586D01*
X25507Y158848D01*
D02*
G37*
G36*
Y148848D02*
X24493D01*
X23515Y148586D01*
X22637Y148079D01*
X21921Y147363D01*
X21414Y146485D01*
X21152Y145507D01*
Y144493D01*
X21414Y143515D01*
X21921Y142637D01*
X22637Y141921D01*
X23515Y141414D01*
X24493Y141152D01*
X25507D01*
X26485Y141414D01*
X27363Y141921D01*
X28079Y142637D01*
X28586Y143515D01*
X28848Y144493D01*
Y145507D01*
X28586Y146485D01*
X28079Y147363D01*
X27363Y148079D01*
X26485Y148586D01*
X25507Y148848D01*
D02*
G37*
G36*
Y138848D02*
X24493D01*
X23515Y138586D01*
X22637Y138079D01*
X21921Y137363D01*
X21414Y136485D01*
X21152Y135507D01*
Y134493D01*
X21414Y133515D01*
X21921Y132637D01*
X22637Y131921D01*
X23515Y131414D01*
X24493Y131152D01*
X25507D01*
X26485Y131414D01*
X27363Y131921D01*
X28079Y132637D01*
X28586Y133515D01*
X28848Y134493D01*
Y135507D01*
X28586Y136485D01*
X28079Y137363D01*
X27363Y138079D01*
X26485Y138586D01*
X25507Y138848D01*
D02*
G37*
G36*
Y128848D02*
X24493D01*
X23515Y128586D01*
X22637Y128079D01*
X21921Y127363D01*
X21414Y126485D01*
X21152Y125507D01*
Y124493D01*
X21414Y123515D01*
X21921Y122637D01*
X22637Y121921D01*
X23515Y121414D01*
X24493Y121152D01*
X25507D01*
X26485Y121414D01*
X27363Y121921D01*
X28079Y122637D01*
X28586Y123515D01*
X28848Y124493D01*
Y125507D01*
X28586Y126485D01*
X28079Y127363D01*
X27363Y128079D01*
X26485Y128586D01*
X25507Y128848D01*
D02*
G37*
G36*
Y118848D02*
X24493D01*
X23515Y118586D01*
X22637Y118079D01*
X21921Y117363D01*
X21414Y116485D01*
X21152Y115507D01*
Y114493D01*
X21414Y113515D01*
X21921Y112637D01*
X22637Y111921D01*
X23515Y111414D01*
X24493Y111152D01*
X25507D01*
X26485Y111414D01*
X27363Y111921D01*
X28079Y112637D01*
X28586Y113515D01*
X28848Y114493D01*
Y115507D01*
X28586Y116485D01*
X28079Y117363D01*
X27363Y118079D01*
X26485Y118586D01*
X25507Y118848D01*
D02*
G37*
G36*
Y108848D02*
X24493D01*
X23515Y108586D01*
X22637Y108079D01*
X21921Y107363D01*
X21414Y106485D01*
X21152Y105507D01*
Y104493D01*
X21414Y103515D01*
X21921Y102637D01*
X22637Y101921D01*
X23515Y101414D01*
X24493Y101152D01*
X25507D01*
X26485Y101414D01*
X27363Y101921D01*
X28079Y102637D01*
X28586Y103515D01*
X28848Y104493D01*
Y105507D01*
X28586Y106485D01*
X28079Y107363D01*
X27363Y108079D01*
X26485Y108586D01*
X25507Y108848D01*
D02*
G37*
G36*
X175507Y98848D02*
X174493D01*
X173515Y98586D01*
X172637Y98079D01*
X171921Y97363D01*
X171414Y96485D01*
X171152Y95507D01*
Y94493D01*
X171414Y93515D01*
X171921Y92637D01*
X172637Y91921D01*
X173515Y91414D01*
X174493Y91152D01*
X175507D01*
X176485Y91414D01*
X177363Y91921D01*
X178079Y92637D01*
X178586Y93515D01*
X178848Y94493D01*
Y95507D01*
X178586Y96485D01*
X178079Y97363D01*
X177363Y98079D01*
X176485Y98586D01*
X175507Y98848D01*
D02*
G37*
G36*
X25507D02*
X24493D01*
X23515Y98586D01*
X22637Y98079D01*
X21921Y97363D01*
X21414Y96485D01*
X21152Y95507D01*
Y94493D01*
X21414Y93515D01*
X21921Y92637D01*
X22637Y91921D01*
X23515Y91414D01*
X24493Y91152D01*
X25507D01*
X26485Y91414D01*
X27363Y91921D01*
X28079Y92637D01*
X28586Y93515D01*
X28848Y94493D01*
Y95507D01*
X28586Y96485D01*
X28079Y97363D01*
X27363Y98079D01*
X26485Y98586D01*
X25507Y98848D01*
D02*
G37*
G36*
X175507Y88848D02*
X174493D01*
X173515Y88586D01*
X172637Y88079D01*
X171921Y87363D01*
X171414Y86485D01*
X171152Y85507D01*
Y84493D01*
X171414Y83515D01*
X171921Y82637D01*
X172637Y81921D01*
X173515Y81414D01*
X174493Y81152D01*
X175507D01*
X176485Y81414D01*
X177363Y81921D01*
X178079Y82637D01*
X178586Y83515D01*
X178848Y84493D01*
Y85507D01*
X178586Y86485D01*
X178079Y87363D01*
X177363Y88079D01*
X176485Y88586D01*
X175507Y88848D01*
D02*
G37*
G36*
X25507D02*
X24493D01*
X23515Y88586D01*
X22637Y88079D01*
X21921Y87363D01*
X21414Y86485D01*
X21152Y85507D01*
Y84493D01*
X21414Y83515D01*
X21921Y82637D01*
X22637Y81921D01*
X23515Y81414D01*
X24493Y81152D01*
X25507D01*
X26485Y81414D01*
X27363Y81921D01*
X28079Y82637D01*
X28586Y83515D01*
X28848Y84493D01*
Y85507D01*
X28586Y86485D01*
X28079Y87363D01*
X27363Y88079D01*
X26485Y88586D01*
X25507Y88848D01*
D02*
G37*
G36*
X175507Y78848D02*
X174493D01*
X173515Y78586D01*
X172637Y78079D01*
X171921Y77363D01*
X171414Y76485D01*
X171152Y75507D01*
Y74493D01*
X171414Y73515D01*
X171921Y72637D01*
X172637Y71921D01*
X173515Y71414D01*
X174493Y71152D01*
X175507D01*
X176485Y71414D01*
X177363Y71921D01*
X178079Y72637D01*
X178586Y73515D01*
X178848Y74493D01*
Y75507D01*
X178586Y76485D01*
X178079Y77363D01*
X177363Y78079D01*
X176485Y78586D01*
X175507Y78848D01*
D02*
G37*
G36*
X25507D02*
X24493D01*
X23515Y78586D01*
X22637Y78079D01*
X21921Y77363D01*
X21414Y76485D01*
X21152Y75507D01*
Y74493D01*
X21414Y73515D01*
X21921Y72637D01*
X22637Y71921D01*
X23515Y71414D01*
X24493Y71152D01*
X25507D01*
X26485Y71414D01*
X27363Y71921D01*
X28079Y72637D01*
X28586Y73515D01*
X28848Y74493D01*
Y75507D01*
X28586Y76485D01*
X28079Y77363D01*
X27363Y78079D01*
X26485Y78586D01*
X25507Y78848D01*
D02*
G37*
G36*
X175507Y68848D02*
X174493D01*
X173515Y68586D01*
X172637Y68079D01*
X171921Y67363D01*
X171414Y66485D01*
X171152Y65507D01*
Y64493D01*
X171414Y63515D01*
X171921Y62637D01*
X172637Y61921D01*
X173515Y61414D01*
X174493Y61152D01*
X175507D01*
X176485Y61414D01*
X177363Y61921D01*
X178079Y62637D01*
X178586Y63515D01*
X178848Y64493D01*
Y65507D01*
X178586Y66485D01*
X178079Y67363D01*
X177363Y68079D01*
X176485Y68586D01*
X175507Y68848D01*
D02*
G37*
G36*
X25507D02*
X24493D01*
X23515Y68586D01*
X22637Y68079D01*
X21921Y67363D01*
X21414Y66485D01*
X21152Y65507D01*
Y64493D01*
X21414Y63515D01*
X21921Y62637D01*
X22637Y61921D01*
X23515Y61414D01*
X24493Y61152D01*
X25507D01*
X26485Y61414D01*
X27363Y61921D01*
X28079Y62637D01*
X28586Y63515D01*
X28848Y64493D01*
Y65507D01*
X28586Y66485D01*
X28079Y67363D01*
X27363Y68079D01*
X26485Y68586D01*
X25507Y68848D01*
D02*
G37*
G36*
X175507Y58848D02*
X174493D01*
X173515Y58586D01*
X172637Y58079D01*
X171921Y57363D01*
X171414Y56485D01*
X171152Y55507D01*
Y54493D01*
X171414Y53515D01*
X171921Y52637D01*
X172637Y51921D01*
X173515Y51414D01*
X174493Y51152D01*
X175507D01*
X176485Y51414D01*
X177363Y51921D01*
X178079Y52637D01*
X178586Y53515D01*
X178848Y54493D01*
Y55507D01*
X178586Y56485D01*
X178079Y57363D01*
X177363Y58079D01*
X176485Y58586D01*
X175507Y58848D01*
D02*
G37*
G36*
X25507D02*
X24493D01*
X23515Y58586D01*
X22637Y58079D01*
X21921Y57363D01*
X21414Y56485D01*
X21152Y55507D01*
Y54493D01*
X21414Y53515D01*
X21921Y52637D01*
X22637Y51921D01*
X23515Y51414D01*
X24493Y51152D01*
X25507D01*
X26485Y51414D01*
X27363Y51921D01*
X28079Y52637D01*
X28586Y53515D01*
X28848Y54493D01*
Y55507D01*
X28586Y56485D01*
X28079Y57363D01*
X27363Y58079D01*
X26485Y58586D01*
X25507Y58848D01*
D02*
G37*
G36*
X175507Y48848D02*
X174493D01*
X173515Y48586D01*
X172637Y48079D01*
X171921Y47363D01*
X171414Y46485D01*
X171152Y45507D01*
Y44493D01*
X171414Y43515D01*
X171921Y42637D01*
X172637Y41921D01*
X173515Y41414D01*
X174493Y41152D01*
X175507D01*
X176485Y41414D01*
X177363Y41921D01*
X178079Y42637D01*
X178586Y43515D01*
X178848Y44493D01*
Y45507D01*
X178586Y46485D01*
X178079Y47363D01*
X177363Y48079D01*
X176485Y48586D01*
X175507Y48848D01*
D02*
G37*
G36*
X25507D02*
X24493D01*
X23515Y48586D01*
X22637Y48079D01*
X21921Y47363D01*
X21414Y46485D01*
X21152Y45507D01*
Y44493D01*
X21414Y43515D01*
X21602Y43189D01*
X18207Y39793D01*
X17964Y39429D01*
X17878Y39000D01*
X17878Y39000D01*
Y28969D01*
X17878Y28969D01*
X17964Y28539D01*
X18207Y28175D01*
X22219Y24163D01*
Y23646D01*
X22490Y22991D01*
X22991Y22490D01*
X23646Y22219D01*
X24354D01*
X25009Y22490D01*
X25510Y22991D01*
X25781Y23646D01*
Y24354D01*
X25510Y25009D01*
X25009Y25510D01*
X24354Y25781D01*
X23774D01*
X20121Y29433D01*
Y38535D01*
X23189Y41603D01*
X23515Y41414D01*
X24493Y41152D01*
X25507D01*
X26485Y41414D01*
X27363Y41921D01*
X28079Y42637D01*
X28586Y43515D01*
X28848Y44493D01*
Y45507D01*
X28586Y46485D01*
X28079Y47363D01*
X27363Y48079D01*
X26485Y48586D01*
X25507Y48848D01*
D02*
G37*
G36*
X193581Y28745D02*
X192873D01*
X192218Y28474D01*
X191717Y27973D01*
X191446Y27319D01*
Y26610D01*
X191717Y25955D01*
X192218Y25454D01*
X192873Y25183D01*
X193581D01*
X194236Y25454D01*
X194737Y25955D01*
X195008Y26610D01*
Y27319D01*
X194737Y27973D01*
X194236Y28474D01*
X193581Y28745D01*
D02*
G37*
G36*
X125507Y28848D02*
X124493D01*
X123515Y28586D01*
X122637Y28079D01*
X121921Y27363D01*
X121414Y26485D01*
X121152Y25507D01*
Y24493D01*
X121414Y23515D01*
X121921Y22637D01*
X122637Y21921D01*
X123515Y21414D01*
X124493Y21152D01*
X125507D01*
X126485Y21414D01*
X127363Y21921D01*
X128079Y22637D01*
X128586Y23515D01*
X128848Y24493D01*
Y25507D01*
X128586Y26485D01*
X128079Y27363D01*
X127363Y28079D01*
X126485Y28586D01*
X125507Y28848D01*
D02*
G37*
G36*
X115507D02*
X114493D01*
X113515Y28586D01*
X112637Y28079D01*
X111921Y27363D01*
X111414Y26485D01*
X111152Y25507D01*
Y24493D01*
X111414Y23515D01*
X111921Y22637D01*
X112637Y21921D01*
X113515Y21414D01*
X114493Y21152D01*
X115507D01*
X116485Y21414D01*
X117363Y21921D01*
X118079Y22637D01*
X118586Y23515D01*
X118848Y24493D01*
Y25507D01*
X118586Y26485D01*
X118079Y27363D01*
X117363Y28079D01*
X116485Y28586D01*
X115507Y28848D01*
D02*
G37*
G36*
X95507D02*
X94493D01*
X93515Y28586D01*
X92637Y28079D01*
X91921Y27363D01*
X91414Y26485D01*
X91152Y25507D01*
Y24493D01*
X91414Y23515D01*
X91921Y22637D01*
X92637Y21921D01*
X93515Y21414D01*
X94493Y21152D01*
X95507D01*
X96485Y21414D01*
X97363Y21921D01*
X98079Y22637D01*
X98586Y23515D01*
X98848Y24493D01*
Y25507D01*
X98586Y26485D01*
X98079Y27363D01*
X97363Y28079D01*
X96485Y28586D01*
X95507Y28848D01*
D02*
G37*
G36*
X85507D02*
X84493D01*
X83515Y28586D01*
X82637Y28079D01*
X81921Y27363D01*
X81414Y26485D01*
X81152Y25507D01*
Y24493D01*
X81414Y23515D01*
X81921Y22637D01*
X82637Y21921D01*
X83515Y21414D01*
X84493Y21152D01*
X85507D01*
X86485Y21414D01*
X87363Y21921D01*
X88079Y22637D01*
X88586Y23515D01*
X88848Y24493D01*
Y25507D01*
X88586Y26485D01*
X88079Y27363D01*
X87363Y28079D01*
X86485Y28586D01*
X85507Y28848D01*
D02*
G37*
G36*
X75507D02*
X74493D01*
X73515Y28586D01*
X72637Y28079D01*
X71921Y27363D01*
X71414Y26485D01*
X71152Y25507D01*
Y24493D01*
X71414Y23515D01*
X71921Y22637D01*
X72637Y21921D01*
X73515Y21414D01*
X74493Y21152D01*
X75507D01*
X76485Y21414D01*
X77363Y21921D01*
X78079Y22637D01*
X78586Y23515D01*
X78848Y24493D01*
Y25507D01*
X78586Y26485D01*
X78079Y27363D01*
X77363Y28079D01*
X76485Y28586D01*
X75507Y28848D01*
D02*
G37*
G36*
X65507D02*
X64493D01*
X63515Y28586D01*
X62637Y28079D01*
X61921Y27363D01*
X61414Y26485D01*
X61152Y25507D01*
Y24493D01*
X61414Y23515D01*
X61921Y22637D01*
X62637Y21921D01*
X63515Y21414D01*
X64493Y21152D01*
X65507D01*
X66485Y21414D01*
X67363Y21921D01*
X68079Y22637D01*
X68586Y23515D01*
X68848Y24493D01*
Y25507D01*
X68586Y26485D01*
X68079Y27363D01*
X67363Y28079D01*
X66485Y28586D01*
X65507Y28848D01*
D02*
G37*
G36*
X55507D02*
X54493D01*
X53515Y28586D01*
X52637Y28079D01*
X51921Y27363D01*
X51414Y26485D01*
X51152Y25507D01*
Y24493D01*
X51414Y23515D01*
X51603Y23189D01*
X45035Y16622D01*
X24465D01*
X21781Y19305D01*
Y19854D01*
X21510Y20509D01*
X21009Y21010D01*
X20354Y21281D01*
X19646D01*
X18991Y21010D01*
X18490Y20509D01*
X18219Y19854D01*
Y19146D01*
X18490Y18491D01*
X18991Y17990D01*
X19646Y17719D01*
X20195D01*
X23207Y14707D01*
X23207Y14707D01*
X23571Y14464D01*
X24000Y14378D01*
X45500D01*
X45500Y14378D01*
X45929Y14464D01*
X46293Y14707D01*
X53189Y21602D01*
X53515Y21414D01*
X54493Y21152D01*
X55507D01*
X56485Y21414D01*
X57363Y21921D01*
X58079Y22637D01*
X58586Y23515D01*
X58848Y24493D01*
Y25507D01*
X58586Y26485D01*
X58079Y27363D01*
X57363Y28079D01*
X56485Y28586D01*
X55507Y28848D01*
D02*
G37*
G36*
X45507D02*
X44493D01*
X43515Y28586D01*
X42637Y28079D01*
X41921Y27363D01*
X41414Y26485D01*
X41152Y25507D01*
Y24493D01*
X41414Y23515D01*
X41921Y22637D01*
X42637Y21921D01*
X43515Y21414D01*
X44493Y21152D01*
X45507D01*
X46485Y21414D01*
X47363Y21921D01*
X48079Y22637D01*
X48586Y23515D01*
X48848Y24493D01*
Y25507D01*
X48586Y26485D01*
X48079Y27363D01*
X47363Y28079D01*
X46485Y28586D01*
X45507Y28848D01*
D02*
G37*
G36*
X105507D02*
X104493D01*
X103515Y28586D01*
X102637Y28079D01*
X101921Y27363D01*
X101414Y26485D01*
X101152Y25507D01*
Y24493D01*
X101414Y23515D01*
X101921Y22637D01*
X102637Y21921D01*
X103515Y21414D01*
X104493Y21152D01*
X105507D01*
X106485Y21414D01*
X106811Y21602D01*
X113707Y14707D01*
X113707Y14707D01*
X114071Y14464D01*
X114500Y14378D01*
X114500Y14378D01*
X158000D01*
X158000Y14378D01*
X158429Y14464D01*
X158793Y14707D01*
X160805Y16719D01*
X161354D01*
X162009Y16990D01*
X162510Y17491D01*
X162781Y18146D01*
Y18757D01*
X162781Y18854D01*
X163171Y19219D01*
X163354D01*
X164009Y19490D01*
X164510Y19991D01*
X164781Y20646D01*
Y21354D01*
X164510Y22009D01*
X164009Y22510D01*
X163354Y22781D01*
X162646D01*
X161991Y22510D01*
X161490Y22009D01*
X161219Y21354D01*
Y20743D01*
X161219Y20646D01*
X160829Y20281D01*
X160646D01*
X159991Y20010D01*
X159490Y19509D01*
X159219Y18854D01*
Y18305D01*
X157535Y16622D01*
X114965D01*
X108397Y23189D01*
X108586Y23515D01*
X108848Y24493D01*
Y25507D01*
X108586Y26485D01*
X108079Y27363D01*
X107363Y28079D01*
X106485Y28586D01*
X105507Y28848D01*
D02*
G37*
G36*
X177354Y198781D02*
X176646D01*
X175991Y198510D01*
X175490Y198009D01*
X175219Y197354D01*
Y196646D01*
X175490Y195991D01*
X175991Y195490D01*
X176646Y195219D01*
X177354D01*
X178009Y195490D01*
X178510Y195991D01*
X178781Y196646D01*
Y197354D01*
X178510Y198009D01*
X178009Y198510D01*
X177354Y198781D01*
D02*
G37*
G36*
X184354Y179781D02*
X183646D01*
X182991Y179510D01*
X182490Y179009D01*
X182219Y178354D01*
Y177646D01*
X182490Y176991D01*
X182991Y176490D01*
X183646Y176219D01*
X184354D01*
X185009Y176490D01*
X185510Y176991D01*
X185781Y177646D01*
Y178354D01*
X185510Y179009D01*
X185009Y179510D01*
X184354Y179781D01*
D02*
G37*
G36*
X163354Y175781D02*
X162646D01*
X161991Y175510D01*
X161490Y175009D01*
X161219Y174354D01*
Y173646D01*
X161490Y172991D01*
X161991Y172490D01*
X162646Y172219D01*
X163354D01*
X164009Y172490D01*
X164510Y172991D01*
X164781Y173646D01*
Y174354D01*
X164510Y175009D01*
X164009Y175510D01*
X163354Y175781D01*
D02*
G37*
G36*
X175507Y138848D02*
X174493D01*
X173515Y138586D01*
X172637Y138079D01*
X171921Y137363D01*
X171414Y136485D01*
X171152Y135507D01*
Y134493D01*
X171414Y133515D01*
X171921Y132637D01*
X172637Y131921D01*
X173515Y131414D01*
X174493Y131152D01*
X175507D01*
X176485Y131414D01*
X177363Y131921D01*
X178079Y132637D01*
X178586Y133515D01*
X178848Y134493D01*
Y135507D01*
X178586Y136485D01*
X178079Y137363D01*
X177363Y138079D01*
X176485Y138586D01*
X175507Y138848D01*
D02*
G37*
G36*
Y128848D02*
X174493D01*
X173515Y128586D01*
X172637Y128079D01*
X171921Y127363D01*
X171414Y126485D01*
X171152Y125507D01*
Y124493D01*
X171414Y123515D01*
X171921Y122637D01*
X172637Y121921D01*
X173515Y121414D01*
X174493Y121152D01*
X175507D01*
X176485Y121414D01*
X177363Y121921D01*
X178079Y122637D01*
X178586Y123515D01*
X178848Y124493D01*
Y125507D01*
X178586Y126485D01*
X178079Y127363D01*
X177363Y128079D01*
X176485Y128586D01*
X175507Y128848D01*
D02*
G37*
G36*
Y118848D02*
X174493D01*
X173515Y118586D01*
X172637Y118079D01*
X171921Y117363D01*
X171414Y116485D01*
X171152Y115507D01*
Y114493D01*
X171414Y113515D01*
X171921Y112637D01*
X172637Y111921D01*
X173515Y111414D01*
X174493Y111152D01*
X175507D01*
X176485Y111414D01*
X177363Y111921D01*
X178079Y112637D01*
X178586Y113515D01*
X178848Y114493D01*
Y115507D01*
X178586Y116485D01*
X178079Y117363D01*
X177363Y118079D01*
X176485Y118586D01*
X175507Y118848D01*
D02*
G37*
%LPD*%
D12*
X188976Y1575D02*
G03*
X198425Y11024I0J9449D01*
G01*
Y253937D02*
G03*
X188976Y263386I-9449J0D01*
G01*
X11024D02*
G03*
X1575Y253937I0J-9449D01*
G01*
Y11024D02*
G03*
X11024Y1575I9449J0D01*
G01*
X1575Y11024D02*
Y253937D01*
X11024Y263386D02*
X188976D01*
X198425Y11024D02*
Y253937D01*
X11024Y1575D02*
X188976D01*
D20*
X96000Y226000D02*
X109000D01*
X85000Y237000D02*
X96000Y226000D01*
X106000Y231000D02*
Y241000D01*
X100000Y213000D02*
X123000D01*
X94000Y219000D02*
X100000Y213000D01*
X23968Y24000D02*
X24000D01*
X19000Y28969D02*
X23968Y24000D01*
X19000Y28969D02*
Y39000D01*
X25000Y45000D01*
X45500Y15500D02*
X55000Y25000D01*
X24000Y15500D02*
X45500D01*
X20000Y19500D02*
X24000Y15500D01*
X150000Y26500D02*
X153523Y30023D01*
X150000Y22500D02*
Y26500D01*
X153523Y30023D02*
X157435D01*
X140500Y19500D02*
X147000D01*
X150000Y22500D01*
X135000Y25000D02*
X140500Y19500D01*
X105000Y25000D02*
X114500Y15500D01*
X158000D02*
X161000Y18500D01*
X114500Y15500D02*
X158000D01*
X160000Y40000D02*
X163000D01*
X160000Y37000D02*
Y40000D01*
X37000D02*
X40000D01*
Y160000D02*
Y163000D01*
X160000Y160000D02*
X163000D01*
X40000Y37000D02*
Y40000D01*
X50000Y37000D02*
Y40000D01*
X60000Y37000D02*
Y40000D01*
X70000Y37000D02*
Y40000D01*
X80000Y37000D02*
Y40000D01*
X90000Y37000D02*
Y40000D01*
X100000Y37000D02*
Y40000D01*
X110000Y37000D02*
Y40000D01*
X120000Y37000D02*
Y40000D01*
X130000Y37000D02*
Y40000D01*
X140000Y37000D02*
Y40000D01*
X150000Y37000D02*
Y40000D01*
X37000Y160000D02*
X40000D01*
X37000Y150000D02*
X40000D01*
X37000Y140000D02*
X40000D01*
X37000Y130000D02*
X40000D01*
X37000Y120000D02*
X40000D01*
X37000Y110000D02*
X40000D01*
X37000Y100000D02*
X40000D01*
X37000Y90000D02*
X40000D01*
X37000Y80000D02*
X40000D01*
X37000Y70000D02*
X40000D01*
X37000Y60000D02*
X40000D01*
X37000Y50000D02*
X40000D01*
X160000Y160000D02*
Y163000D01*
X150000Y160000D02*
Y163000D01*
X140000Y160000D02*
Y163000D01*
X130000Y160000D02*
Y163000D01*
X120000Y160000D02*
Y163000D01*
X110000Y160000D02*
Y163000D01*
X100000Y160000D02*
Y163000D01*
X90000Y160000D02*
Y163000D01*
X80000Y160000D02*
Y163000D01*
X70000Y160000D02*
Y163000D01*
X60000Y160000D02*
Y163000D01*
X50000Y160000D02*
Y163000D01*
X160000Y150000D02*
X163000D01*
X160000Y140000D02*
X163000D01*
X160000Y130000D02*
X163000D01*
X160000Y120000D02*
X163000D01*
X160000Y110000D02*
X163000D01*
X160000Y100000D02*
X163000D01*
X160000Y90000D02*
X163000D01*
X160000Y80000D02*
X163000D01*
X160000Y70000D02*
X163000D01*
X160000Y60000D02*
X163000D01*
X160000Y50000D02*
X163000D01*
X101000Y246000D02*
X106000Y241000D01*
X85000Y237000D02*
Y247000D01*
X94000Y246000D02*
X101000D01*
D33*
X45000Y37500D02*
D03*
X55000D02*
D03*
X65000D02*
D03*
X75000D02*
D03*
X105000D02*
D03*
X115000D02*
D03*
X155000D02*
D03*
X85000D02*
D03*
X95000D02*
D03*
X145000D02*
D03*
X135000D02*
D03*
X125000D02*
D03*
X105000Y162500D02*
D03*
X95000D02*
D03*
X155000D02*
D03*
X125000D02*
D03*
X115000D02*
D03*
X145000D02*
D03*
X135000D02*
D03*
X85000D02*
D03*
X75000D02*
D03*
X65000D02*
D03*
X55000D02*
D03*
X45000D02*
D03*
D114*
X165000Y85000D02*
D03*
X35000Y35000D02*
D03*
X25000D02*
D03*
X165000Y165000D02*
D03*
X35000D02*
D03*
Y175000D02*
D03*
X175000Y165000D02*
D03*
Y175000D02*
D03*
X165000Y155000D02*
D03*
Y145000D02*
D03*
Y125000D02*
D03*
Y115000D02*
D03*
Y75000D02*
D03*
Y135000D02*
D03*
Y105000D02*
D03*
Y95000D02*
D03*
Y65000D02*
D03*
Y55000D02*
D03*
Y45000D02*
D03*
X155000Y175000D02*
D03*
X125000D02*
D03*
X115000D02*
D03*
X105000D02*
D03*
X95000D02*
D03*
X85000D02*
D03*
X75000D02*
D03*
X65000D02*
D03*
X55000D02*
D03*
X45000D02*
D03*
X135000D02*
D03*
X145000D02*
D03*
X175000Y155000D02*
D03*
Y145000D02*
D03*
Y125000D02*
D03*
Y115000D02*
D03*
Y75000D02*
D03*
Y135000D02*
D03*
Y105000D02*
D03*
Y95000D02*
D03*
Y85000D02*
D03*
Y65000D02*
D03*
Y55000D02*
D03*
Y45000D02*
D03*
X155000Y35000D02*
D03*
X115000D02*
D03*
X105000D02*
D03*
X95000D02*
D03*
X85000D02*
D03*
X75000D02*
D03*
X65000D02*
D03*
X55000D02*
D03*
X45000D02*
D03*
X145000D02*
D03*
X135000D02*
D03*
X125000D02*
D03*
X155000Y25000D02*
D03*
X115000D02*
D03*
X105000D02*
D03*
X95000D02*
D03*
X85000D02*
D03*
X75000D02*
D03*
X65000D02*
D03*
X55000D02*
D03*
X45000D02*
D03*
X145000D02*
D03*
X135000D02*
D03*
X125000D02*
D03*
X155000Y165000D02*
D03*
X125000D02*
D03*
X115000D02*
D03*
X105000D02*
D03*
X95000D02*
D03*
X85000D02*
D03*
X75000D02*
D03*
X65000D02*
D03*
X55000D02*
D03*
X45000D02*
D03*
X135000D02*
D03*
X145000D02*
D03*
X25000Y155000D02*
D03*
Y145000D02*
D03*
Y135000D02*
D03*
Y125000D02*
D03*
Y115000D02*
D03*
Y105000D02*
D03*
Y95000D02*
D03*
Y85000D02*
D03*
Y75000D02*
D03*
Y65000D02*
D03*
Y55000D02*
D03*
Y45000D02*
D03*
X35000Y155000D02*
D03*
Y145000D02*
D03*
Y135000D02*
D03*
Y125000D02*
D03*
Y115000D02*
D03*
Y105000D02*
D03*
Y95000D02*
D03*
Y85000D02*
D03*
Y75000D02*
D03*
Y65000D02*
D03*
Y55000D02*
D03*
X145000Y205000D02*
D03*
X135000D02*
D03*
X55000D02*
D03*
X65000D02*
D03*
X35000Y45000D02*
D03*
D115*
X27992Y252764D02*
D03*
X62008D02*
D03*
X137992D02*
D03*
X172008D02*
D03*
D116*
X62008Y236307D02*
D03*
X27992D02*
D03*
X172008D02*
D03*
X137992D02*
D03*
D117*
X33622Y238394D02*
D03*
X56378D02*
D03*
X143622D02*
D03*
X166378D02*
D03*
D118*
X11024Y253937D02*
D03*
X188976D02*
D03*
Y11024D02*
D03*
X11024D02*
D03*
D119*
X16000Y222890D02*
D03*
Y209110D02*
D03*
X184000Y222890D02*
D03*
Y209110D02*
D03*
D120*
X25000Y195000D02*
D03*
Y185000D02*
D03*
Y175000D02*
D03*
Y165000D02*
D03*
D121*
X55000Y50000D02*
D03*
X65000Y75000D02*
D03*
X145000Y120000D02*
D03*
X195000Y160000D02*
D03*
Y150000D02*
D03*
Y140000D02*
D03*
Y130000D02*
D03*
Y120000D02*
D03*
Y110000D02*
D03*
Y100000D02*
D03*
Y90000D02*
D03*
Y80000D02*
D03*
Y70000D02*
D03*
Y60000D02*
D03*
Y50000D02*
D03*
X150000Y5000D02*
D03*
X140000D02*
D03*
X130000D02*
D03*
X120000D02*
D03*
X110000D02*
D03*
X100000D02*
D03*
X90000D02*
D03*
X80000D02*
D03*
X70000D02*
D03*
X60000D02*
D03*
X50000D02*
D03*
X5000Y50000D02*
D03*
Y60000D02*
D03*
Y70000D02*
D03*
Y80000D02*
D03*
Y90000D02*
D03*
Y100000D02*
D03*
Y110000D02*
D03*
Y120000D02*
D03*
Y130000D02*
D03*
Y140000D02*
D03*
Y150000D02*
D03*
Y160000D02*
D03*
Y170000D02*
D03*
Y180000D02*
D03*
Y190000D02*
D03*
X90000Y198000D02*
D03*
X150000Y120000D02*
D03*
X170000D02*
D03*
Y110000D02*
D03*
X80000Y60000D02*
D03*
X70000D02*
D03*
X105000Y45000D02*
D03*
X95000Y55000D02*
D03*
X193227Y26964D02*
D03*
X109000Y226000D02*
D03*
X106000Y231000D02*
D03*
X123000Y213000D02*
D03*
X5000Y40000D02*
D03*
X24000Y24000D02*
D03*
X20000Y19500D02*
D03*
X37000Y20000D02*
D03*
X161000Y18500D02*
D03*
X163000Y21000D02*
D03*
X157435Y30023D02*
D03*
X175000Y18000D02*
D03*
X164487Y15230D02*
D03*
X180000Y37000D02*
D03*
X40000Y170000D02*
D03*
X50000Y160000D02*
D03*
X150000Y100000D02*
D03*
X155000D02*
D03*
X50000Y155000D02*
D03*
X80000Y207000D02*
D03*
X192000Y197000D02*
D03*
X184000Y178000D02*
D03*
X177000Y197000D02*
D03*
X189000D02*
D03*
X163000Y174000D02*
D03*
X177000Y187000D02*
D03*
X167000Y174000D02*
D03*
X134000Y215000D02*
D03*
X137000D02*
D03*
X56500D02*
D03*
X144000D02*
D03*
X141000D02*
D03*
X39000Y204000D02*
D03*
X75000Y120000D02*
D03*
X89000Y217000D02*
D03*
X84000Y216000D02*
D03*
X80000Y203000D02*
D03*
X112000Y222000D02*
D03*
Y243000D02*
D03*
X59000Y215000D02*
D03*
X68000Y235000D02*
D03*
X85000Y247000D02*
D03*
X106000Y219000D02*
D03*
X111000Y216000D02*
D03*
X140000Y225000D02*
D03*
X137000D02*
D03*
X140000Y228000D02*
D03*
X137000D02*
D03*
X116000Y217000D02*
D03*
X159000Y211000D02*
D03*
X151000D02*
D03*
X94000Y219000D02*
D03*
Y246000D02*
D03*
X112000Y236000D02*
D03*
Y229000D02*
D03*
X102000Y241000D02*
D03*
Y237000D02*
D03*
X98000D02*
D03*
X94000D02*
D03*
X74000Y233000D02*
D03*
X90000Y237000D02*
D03*
X77000Y233000D02*
D03*
X80000D02*
D03*
X67000Y219000D02*
D03*
X53000Y211000D02*
D03*
X74000Y258000D02*
D03*
X110000Y75000D02*
D03*
Y80000D02*
D03*
X115000D02*
D03*
X120000Y85000D02*
D03*
Y90000D02*
D03*
X125000D02*
D03*
X130000Y95000D02*
D03*
X135000D02*
D03*
Y100000D02*
D03*
X125000Y110000D02*
D03*
X110000Y120000D02*
D03*
Y125000D02*
D03*
X85000Y50000D02*
D03*
Y45000D02*
D03*
X90000Y50000D02*
D03*
X65000Y45000D02*
D03*
X70000Y65000D02*
D03*
X75000Y70000D02*
D03*
X80000D02*
D03*
X65000Y55000D02*
D03*
X90000Y65000D02*
D03*
X85000Y60000D02*
D03*
X90000Y80000D02*
D03*
X85000Y75000D02*
D03*
X90000Y55000D02*
D03*
X95000Y65000D02*
D03*
X105000D02*
D03*
X110000Y55000D02*
D03*
Y45000D02*
D03*
X80000D02*
D03*
X90000Y110000D02*
D03*
X110000Y90000D02*
D03*
X100000D02*
D03*
X90000D02*
D03*
Y100000D02*
D03*
X110000D02*
D03*
Y110000D02*
D03*
X100000D02*
D03*
X65000Y80000D02*
D03*
X140000Y110000D02*
D03*
Y125000D02*
D03*
X120000Y110000D02*
D03*
Y115000D02*
D03*
X100000Y100000D02*
D03*
X60000Y228000D02*
D03*
Y225000D02*
D03*
X63000Y228000D02*
D03*
Y225000D02*
D03*
X45000Y217000D02*
D03*
X40000Y30000D02*
D03*
X150000D02*
D03*
X110000D02*
D03*
X120000D02*
D03*
X130000D02*
D03*
X140000D02*
D03*
X30000Y190000D02*
D03*
Y180000D02*
D03*
Y90000D02*
D03*
Y100000D02*
D03*
Y110000D02*
D03*
Y120000D02*
D03*
Y130000D02*
D03*
Y140000D02*
D03*
Y150000D02*
D03*
Y80000D02*
D03*
Y60000D02*
D03*
Y50000D02*
D03*
X170000Y130000D02*
D03*
Y140000D02*
D03*
Y150000D02*
D03*
Y80000D02*
D03*
Y60000D02*
D03*
Y50000D02*
D03*
X50000Y170000D02*
D03*
X60000D02*
D03*
X80000D02*
D03*
X150000D02*
D03*
X140000D02*
D03*
X130000D02*
D03*
X120000D02*
D03*
X110000D02*
D03*
X100000D02*
D03*
X90000D02*
D03*
X135000Y125000D02*
D03*
X130000Y120000D02*
D03*
X75000Y130000D02*
D03*
X78000Y20000D02*
D03*
X82000D02*
D03*
X75000Y85000D02*
D03*
X60000Y40000D02*
D03*
Y30000D02*
D03*
Y20000D02*
D03*
X70000D02*
D03*
X100000Y40000D02*
D03*
Y30000D02*
D03*
X90000Y20000D02*
D03*
X100000D02*
D03*
X90000Y140000D02*
D03*
X80000Y85000D02*
D03*
X70000D02*
D03*
X90000Y120000D02*
D03*
X105000Y140000D02*
D03*
D122*
X37500Y95000D02*
D03*
Y85000D02*
D03*
Y75000D02*
D03*
Y65000D02*
D03*
Y55000D02*
D03*
Y105000D02*
D03*
X40000Y160000D02*
D03*
Y155000D02*
D03*
Y140000D02*
D03*
Y135000D02*
D03*
Y120000D02*
D03*
Y115000D02*
D03*
Y125000D02*
D03*
Y130000D02*
D03*
Y40000D02*
D03*
Y45000D02*
D03*
Y150000D02*
D03*
Y145000D02*
D03*
Y110000D02*
D03*
Y105000D02*
D03*
Y100000D02*
D03*
Y95000D02*
D03*
Y90000D02*
D03*
Y85000D02*
D03*
Y80000D02*
D03*
Y75000D02*
D03*
Y70000D02*
D03*
Y65000D02*
D03*
Y60000D02*
D03*
X45000Y100000D02*
D03*
Y95000D02*
D03*
Y90000D02*
D03*
Y85000D02*
D03*
X40000Y50000D02*
D03*
Y55000D02*
D03*
X45000Y80000D02*
D03*
Y75000D02*
D03*
Y70000D02*
D03*
Y65000D02*
D03*
Y60000D02*
D03*
Y55000D02*
D03*
Y50000D02*
D03*
Y45000D02*
D03*
Y40000D02*
D03*
Y110000D02*
D03*
Y160000D02*
D03*
Y155000D02*
D03*
Y150000D02*
D03*
Y145000D02*
D03*
Y140000D02*
D03*
Y135000D02*
D03*
Y120000D02*
D03*
Y115000D02*
D03*
Y105000D02*
D03*
Y125000D02*
D03*
Y130000D02*
D03*
X145000Y150000D02*
D03*
Y135000D02*
D03*
Y145000D02*
D03*
Y155000D02*
D03*
Y160000D02*
D03*
X105000Y135000D02*
D03*
Y130000D02*
D03*
X110000Y135000D02*
D03*
X115000D02*
D03*
Y130000D02*
D03*
X120000Y135000D02*
D03*
Y130000D02*
D03*
X125000Y135000D02*
D03*
Y130000D02*
D03*
X130000D02*
D03*
Y135000D02*
D03*
Y140000D02*
D03*
Y145000D02*
D03*
Y150000D02*
D03*
Y155000D02*
D03*
Y160000D02*
D03*
X110000Y80000D02*
D03*
Y95000D02*
D03*
Y90000D02*
D03*
Y85000D02*
D03*
X115000Y95000D02*
D03*
Y80000D02*
D03*
Y100000D02*
D03*
X150000Y160000D02*
D03*
Y130000D02*
D03*
Y135000D02*
D03*
Y140000D02*
D03*
Y145000D02*
D03*
Y150000D02*
D03*
Y155000D02*
D03*
X125000Y100000D02*
D03*
X120000Y110000D02*
D03*
Y125000D02*
D03*
Y120000D02*
D03*
Y115000D02*
D03*
X125000Y125000D02*
D03*
Y120000D02*
D03*
Y115000D02*
D03*
Y110000D02*
D03*
Y105000D02*
D03*
X130000Y100000D02*
D03*
Y105000D02*
D03*
Y110000D02*
D03*
Y115000D02*
D03*
Y120000D02*
D03*
Y125000D02*
D03*
X150000Y95000D02*
D03*
Y80000D02*
D03*
Y85000D02*
D03*
Y90000D02*
D03*
Y75000D02*
D03*
Y70000D02*
D03*
X155000D02*
D03*
Y75000D02*
D03*
Y95000D02*
D03*
Y90000D02*
D03*
Y85000D02*
D03*
Y80000D02*
D03*
X160000Y95000D02*
D03*
Y90000D02*
D03*
Y85000D02*
D03*
Y80000D02*
D03*
X145000Y130000D02*
D03*
X140000Y100000D02*
D03*
Y105000D02*
D03*
Y110000D02*
D03*
Y115000D02*
D03*
Y120000D02*
D03*
Y125000D02*
D03*
Y130000D02*
D03*
Y135000D02*
D03*
Y140000D02*
D03*
Y145000D02*
D03*
Y150000D02*
D03*
Y155000D02*
D03*
Y160000D02*
D03*
X135000D02*
D03*
Y125000D02*
D03*
Y120000D02*
D03*
Y130000D02*
D03*
Y135000D02*
D03*
Y140000D02*
D03*
Y145000D02*
D03*
Y150000D02*
D03*
Y155000D02*
D03*
X145000Y95000D02*
D03*
X150000Y100000D02*
D03*
Y105000D02*
D03*
Y110000D02*
D03*
Y115000D02*
D03*
Y120000D02*
D03*
Y125000D02*
D03*
X145000Y100000D02*
D03*
Y105000D02*
D03*
Y110000D02*
D03*
Y115000D02*
D03*
Y120000D02*
D03*
Y125000D02*
D03*
Y70000D02*
D03*
Y90000D02*
D03*
Y80000D02*
D03*
Y85000D02*
D03*
Y75000D02*
D03*
X140000Y80000D02*
D03*
Y85000D02*
D03*
Y90000D02*
D03*
Y95000D02*
D03*
Y75000D02*
D03*
Y70000D02*
D03*
X135000Y80000D02*
D03*
Y100000D02*
D03*
Y105000D02*
D03*
Y110000D02*
D03*
Y115000D02*
D03*
Y85000D02*
D03*
Y90000D02*
D03*
Y95000D02*
D03*
Y75000D02*
D03*
Y70000D02*
D03*
X130000Y80000D02*
D03*
Y85000D02*
D03*
Y90000D02*
D03*
Y95000D02*
D03*
Y75000D02*
D03*
Y70000D02*
D03*
X155000Y160000D02*
D03*
Y155000D02*
D03*
Y150000D02*
D03*
Y145000D02*
D03*
Y140000D02*
D03*
Y135000D02*
D03*
Y130000D02*
D03*
Y125000D02*
D03*
Y100000D02*
D03*
Y115000D02*
D03*
Y120000D02*
D03*
Y110000D02*
D03*
Y105000D02*
D03*
X160000Y120000D02*
D03*
Y160000D02*
D03*
Y155000D02*
D03*
Y150000D02*
D03*
Y145000D02*
D03*
Y140000D02*
D03*
Y135000D02*
D03*
Y130000D02*
D03*
Y125000D02*
D03*
Y115000D02*
D03*
Y110000D02*
D03*
Y105000D02*
D03*
Y100000D02*
D03*
X110000Y50000D02*
D03*
Y55000D02*
D03*
X115000D02*
D03*
Y50000D02*
D03*
X120000Y55000D02*
D03*
Y50000D02*
D03*
Y45000D02*
D03*
Y40000D02*
D03*
X125000Y65000D02*
D03*
Y60000D02*
D03*
Y55000D02*
D03*
Y50000D02*
D03*
Y45000D02*
D03*
Y40000D02*
D03*
X150000Y65000D02*
D03*
Y60000D02*
D03*
X145000D02*
D03*
Y65000D02*
D03*
X140000Y60000D02*
D03*
Y65000D02*
D03*
X135000Y60000D02*
D03*
Y65000D02*
D03*
X130000Y60000D02*
D03*
Y65000D02*
D03*
X155000D02*
D03*
Y60000D02*
D03*
X160000Y70000D02*
D03*
Y75000D02*
D03*
Y60000D02*
D03*
X130000Y40000D02*
D03*
X145000D02*
D03*
Y45000D02*
D03*
X140000Y40000D02*
D03*
Y45000D02*
D03*
Y50000D02*
D03*
X135000Y40000D02*
D03*
Y45000D02*
D03*
Y50000D02*
D03*
X130000Y45000D02*
D03*
Y50000D02*
D03*
Y55000D02*
D03*
X150000Y40000D02*
D03*
Y45000D02*
D03*
Y50000D02*
D03*
Y55000D02*
D03*
X145000Y50000D02*
D03*
Y55000D02*
D03*
X140000D02*
D03*
X135000D02*
D03*
X155000D02*
D03*
Y50000D02*
D03*
Y45000D02*
D03*
Y40000D02*
D03*
X160000Y50000D02*
D03*
X55000Y120000D02*
D03*
Y105000D02*
D03*
Y110000D02*
D03*
Y115000D02*
D03*
Y100000D02*
D03*
X50000Y105000D02*
D03*
Y110000D02*
D03*
Y115000D02*
D03*
Y120000D02*
D03*
Y100000D02*
D03*
X55000Y140000D02*
D03*
Y145000D02*
D03*
Y150000D02*
D03*
X70000Y160000D02*
D03*
Y130000D02*
D03*
Y120000D02*
D03*
Y135000D02*
D03*
Y140000D02*
D03*
Y145000D02*
D03*
Y150000D02*
D03*
Y155000D02*
D03*
X75000Y160000D02*
D03*
Y155000D02*
D03*
Y150000D02*
D03*
Y145000D02*
D03*
Y135000D02*
D03*
Y125000D02*
D03*
Y130000D02*
D03*
Y120000D02*
D03*
Y110000D02*
D03*
X70000Y115000D02*
D03*
X75000D02*
D03*
Y105000D02*
D03*
X100000Y160000D02*
D03*
Y155000D02*
D03*
Y150000D02*
D03*
X95000Y160000D02*
D03*
Y155000D02*
D03*
Y150000D02*
D03*
Y145000D02*
D03*
Y140000D02*
D03*
Y135000D02*
D03*
Y130000D02*
D03*
X80000D02*
D03*
Y100000D02*
D03*
Y95000D02*
D03*
Y90000D02*
D03*
Y85000D02*
D03*
Y80000D02*
D03*
Y75000D02*
D03*
Y120000D02*
D03*
Y115000D02*
D03*
Y110000D02*
D03*
Y105000D02*
D03*
Y125000D02*
D03*
X70000Y100000D02*
D03*
Y90000D02*
D03*
Y85000D02*
D03*
Y95000D02*
D03*
X75000Y100000D02*
D03*
Y95000D02*
D03*
Y90000D02*
D03*
Y85000D02*
D03*
Y80000D02*
D03*
Y75000D02*
D03*
Y70000D02*
D03*
Y65000D02*
D03*
X60000Y120000D02*
D03*
Y105000D02*
D03*
Y110000D02*
D03*
Y115000D02*
D03*
Y75000D02*
D03*
Y80000D02*
D03*
Y85000D02*
D03*
Y90000D02*
D03*
Y95000D02*
D03*
Y100000D02*
D03*
X70000Y70000D02*
D03*
Y65000D02*
D03*
X65000D02*
D03*
X60000Y55000D02*
D03*
Y60000D02*
D03*
Y65000D02*
D03*
Y70000D02*
D03*
X70000Y105000D02*
D03*
Y125000D02*
D03*
Y110000D02*
D03*
X65000Y130000D02*
D03*
Y125000D02*
D03*
Y105000D02*
D03*
Y110000D02*
D03*
Y115000D02*
D03*
Y120000D02*
D03*
Y135000D02*
D03*
Y140000D02*
D03*
Y145000D02*
D03*
Y150000D02*
D03*
Y70000D02*
D03*
X70000Y80000D02*
D03*
Y75000D02*
D03*
X65000D02*
D03*
Y80000D02*
D03*
Y85000D02*
D03*
Y90000D02*
D03*
Y95000D02*
D03*
Y100000D02*
D03*
Y160000D02*
D03*
Y155000D02*
D03*
X50000Y130000D02*
D03*
Y125000D02*
D03*
Y135000D02*
D03*
Y140000D02*
D03*
Y145000D02*
D03*
Y150000D02*
D03*
Y155000D02*
D03*
Y160000D02*
D03*
X60000Y125000D02*
D03*
Y130000D02*
D03*
Y135000D02*
D03*
Y140000D02*
D03*
Y145000D02*
D03*
Y150000D02*
D03*
Y155000D02*
D03*
Y160000D02*
D03*
X55000Y130000D02*
D03*
Y125000D02*
D03*
Y135000D02*
D03*
Y155000D02*
D03*
Y160000D02*
D03*
Y65000D02*
D03*
Y70000D02*
D03*
Y75000D02*
D03*
Y80000D02*
D03*
Y85000D02*
D03*
Y90000D02*
D03*
Y95000D02*
D03*
X50000Y65000D02*
D03*
Y70000D02*
D03*
Y75000D02*
D03*
Y80000D02*
D03*
Y85000D02*
D03*
Y90000D02*
D03*
Y95000D02*
D03*
X85000Y130000D02*
D03*
Y100000D02*
D03*
Y95000D02*
D03*
Y90000D02*
D03*
Y85000D02*
D03*
Y80000D02*
D03*
Y75000D02*
D03*
Y70000D02*
D03*
Y65000D02*
D03*
Y120000D02*
D03*
Y115000D02*
D03*
Y110000D02*
D03*
Y105000D02*
D03*
Y125000D02*
D03*
X90000Y100000D02*
D03*
Y95000D02*
D03*
Y90000D02*
D03*
Y85000D02*
D03*
Y80000D02*
D03*
Y75000D02*
D03*
Y70000D02*
D03*
Y65000D02*
D03*
Y120000D02*
D03*
Y115000D02*
D03*
Y110000D02*
D03*
Y105000D02*
D03*
X80000Y135000D02*
D03*
X75000Y140000D02*
D03*
X80000Y160000D02*
D03*
Y155000D02*
D03*
Y150000D02*
D03*
Y145000D02*
D03*
Y140000D02*
D03*
X85000Y160000D02*
D03*
Y155000D02*
D03*
Y150000D02*
D03*
Y145000D02*
D03*
Y140000D02*
D03*
Y135000D02*
D03*
X90000Y125000D02*
D03*
X95000Y100000D02*
D03*
Y95000D02*
D03*
Y90000D02*
D03*
Y85000D02*
D03*
Y80000D02*
D03*
Y75000D02*
D03*
Y120000D02*
D03*
Y115000D02*
D03*
Y110000D02*
D03*
Y105000D02*
D03*
Y125000D02*
D03*
Y55000D02*
D03*
X80000Y65000D02*
D03*
Y70000D02*
D03*
X95000D02*
D03*
Y65000D02*
D03*
Y60000D02*
D03*
X90000Y130000D02*
D03*
Y160000D02*
D03*
Y155000D02*
D03*
Y150000D02*
D03*
Y145000D02*
D03*
Y140000D02*
D03*
Y135000D02*
D03*
X100000Y40000D02*
D03*
Y45000D02*
D03*
Y50000D02*
D03*
Y55000D02*
D03*
Y60000D02*
D03*
Y65000D02*
D03*
X120000Y105000D02*
D03*
Y95000D02*
D03*
Y85000D02*
D03*
Y80000D02*
D03*
Y100000D02*
D03*
X125000Y95000D02*
D03*
Y85000D02*
D03*
Y80000D02*
D03*
X100000Y100000D02*
D03*
Y70000D02*
D03*
Y85000D02*
D03*
Y95000D02*
D03*
Y90000D02*
D03*
Y80000D02*
D03*
Y75000D02*
D03*
X105000Y160000D02*
D03*
Y155000D02*
D03*
Y150000D02*
D03*
X110000Y160000D02*
D03*
Y155000D02*
D03*
X115000Y160000D02*
D03*
Y155000D02*
D03*
X120000Y160000D02*
D03*
Y155000D02*
D03*
Y150000D02*
D03*
X125000Y160000D02*
D03*
Y155000D02*
D03*
Y150000D02*
D03*
X105000Y95000D02*
D03*
Y90000D02*
D03*
Y85000D02*
D03*
Y80000D02*
D03*
Y40000D02*
D03*
Y50000D02*
D03*
Y70000D02*
D03*
Y75000D02*
D03*
Y65000D02*
D03*
Y60000D02*
D03*
Y55000D02*
D03*
Y45000D02*
D03*
Y110000D02*
D03*
Y115000D02*
D03*
X110000Y130000D02*
D03*
Y125000D02*
D03*
Y120000D02*
D03*
Y115000D02*
D03*
Y110000D02*
D03*
Y40000D02*
D03*
Y45000D02*
D03*
X115000Y85000D02*
D03*
Y45000D02*
D03*
Y40000D02*
D03*
X110000Y75000D02*
D03*
Y70000D02*
D03*
Y65000D02*
D03*
Y60000D02*
D03*
X115000Y70000D02*
D03*
Y75000D02*
D03*
Y65000D02*
D03*
Y60000D02*
D03*
X120000Y70000D02*
D03*
Y75000D02*
D03*
Y65000D02*
D03*
Y60000D02*
D03*
X125000Y70000D02*
D03*
Y75000D02*
D03*
X105000Y120000D02*
D03*
Y125000D02*
D03*
X115000Y150000D02*
D03*
Y145000D02*
D03*
Y125000D02*
D03*
Y120000D02*
D03*
Y115000D02*
D03*
Y110000D02*
D03*
Y105000D02*
D03*
X105000Y140000D02*
D03*
Y145000D02*
D03*
X110000Y140000D02*
D03*
X115000D02*
D03*
X120000Y145000D02*
D03*
Y140000D02*
D03*
X125000Y145000D02*
D03*
Y140000D02*
D03*
X100000Y105000D02*
D03*
Y120000D02*
D03*
Y110000D02*
D03*
Y115000D02*
D03*
Y125000D02*
D03*
Y130000D02*
D03*
Y135000D02*
D03*
Y140000D02*
D03*
Y145000D02*
D03*
X105000Y100000D02*
D03*
Y105000D02*
D03*
X110000Y150000D02*
D03*
Y145000D02*
D03*
Y105000D02*
D03*
Y100000D02*
D03*
X70000Y55000D02*
D03*
X65000D02*
D03*
Y60000D02*
D03*
X55000Y55000D02*
D03*
Y60000D02*
D03*
X50000Y55000D02*
D03*
Y60000D02*
D03*
X75000D02*
D03*
Y55000D02*
D03*
X80000Y60000D02*
D03*
Y55000D02*
D03*
X85000Y60000D02*
D03*
Y55000D02*
D03*
X90000Y60000D02*
D03*
Y55000D02*
D03*
X50000Y45000D02*
D03*
X70000D02*
D03*
X65000D02*
D03*
X60000D02*
D03*
X55000D02*
D03*
X75000D02*
D03*
X80000D02*
D03*
X85000D02*
D03*
X90000D02*
D03*
X95000D02*
D03*
X90000Y50000D02*
D03*
X75000D02*
D03*
X70000D02*
D03*
X65000D02*
D03*
X60000D02*
D03*
X55000D02*
D03*
X50000D02*
D03*
X80000D02*
D03*
X85000D02*
D03*
X95000D02*
D03*
Y40000D02*
D03*
X50000D02*
D03*
X70000D02*
D03*
X65000D02*
D03*
X60000D02*
D03*
X55000D02*
D03*
X75000D02*
D03*
X80000D02*
D03*
X85000D02*
D03*
X90000D02*
D03*
X160000Y65000D02*
D03*
X125000Y90000D02*
D03*
X160000Y55000D02*
D03*
X120000Y90000D02*
D03*
X115000D02*
D03*
X162500Y75000D02*
D03*
Y115000D02*
D03*
Y125000D02*
D03*
Y145000D02*
D03*
Y155000D02*
D03*
X37500D02*
D03*
Y145000D02*
D03*
Y135000D02*
D03*
Y125000D02*
D03*
Y45000D02*
D03*
Y115000D02*
D03*
X145000Y140000D02*
D03*
X162500Y135000D02*
D03*
Y105000D02*
D03*
Y95000D02*
D03*
Y85000D02*
D03*
Y65000D02*
D03*
Y55000D02*
D03*
Y45000D02*
D03*
X160000D02*
D03*
Y40000D02*
D03*
X70000Y60000D02*
D03*
M02*
