M48
;Layer_Color=9474304
;FILE_FORMAT=2:5
INCH,LZ
;TYPE=PLATED
T1F00S00C0.01181
T3F00S00C0.02559
T4F00S00C0.03937
T5F00S00C0.04000
T6F00S00C0.08268
%
T01
X005Y0005
X006
X007
X008
X009
X01
X011
X012
X013
X014
X015
X0005Y004
Y005
Y006
Y007
Y008
Y009
Y01
Y011
Y012
Y013
Y014
Y015
Y016
X003Y015
Y014
Y013
Y012
Y011
Y01
Y009
Y008
Y006
Y005
X0055
X0065Y0045
Y0055
X007Y006
Y0065
X0075Y007
X008
Y006
X0085
Y005
Y0045
X008
X009Y005
Y0055
X0095
Y0065
X009
Y008
X0085Y0075
X008Y0085
X0075
X007
X0065Y008
Y0075
X009Y009
X01
X011
Y008
Y0075
X0115Y008
X012Y0085
Y009
X0125
X013Y0095
X0135
Y01
X015
X0155
X015Y012
X0145
X014Y0125
X0135
X013Y012
X0125Y011
X012
Y0115
X011Y012
Y0125
Y011
Y01
X01
X009
Y011
X01
X009Y012
X0075
Y013
X009Y014
X0105
X014Y011
X0105Y0065
X011Y0055
Y0045
X0105
X01Y004
Y003
X011
X012
X013
X014
X015
X0157435Y0030023
X0163Y0021
X0161Y00185
X0164487Y001523
X01Y002
X009
X0082
X0078
X007
X006
Y003
Y004
X004Y003
X0037Y002
X0024Y0024
X002Y00195
X005Y0155
Y016
X017Y015
Y014
Y013
Y012
Y011
X0195
Y012
Y013
Y014
Y015
Y016
Y01
Y009
Y008
Y007
Y006
Y005
X0193227Y0026964
X018Y0037
X017Y005
Y006
Y008
X0175Y0018
X0184Y0178
X0177Y0187
Y0197
X0189
X0192
X0159Y0211
X0151
X0144Y0215
X0141
X0137
X0134
X0123Y0213
X0116Y0217
X0111Y0216
X0112Y0222
X0109Y0226
X0112Y0229
Y0236
Y0243
X0102Y0241
Y0237
X0098
X0094
X009
X0094Y0246
X0085Y0247
X008Y0233
X0077
X0074
X0068Y0235
X0063Y0228
X006
Y0225
X0063
X0067Y0219
X0059Y0215
X00565
X0053Y0211
X0045Y0217
X0039Y0204
X003Y019
Y018
X004Y017
X005
X006
X008
X009
X01
X011
X012
X013
X014
X015
X0163Y0174
X0167
X014Y0225
X0137
Y0228
X014
X0106Y0231
Y0219
X0094
X0089Y0217
X0084Y0216
X008Y0207
Y0203
X009Y0198
X0074Y0258
X0005Y019
Y018
Y017
T03
X0033622Y0238394
X0056378
X0143622
X0166378
T04
X0184Y020911
Y022289
X0016Y022289
Y020911
T05
X0025Y0035
X0035
X0045
X0055
X0065
X0075
X0085
X0095
X0105
X0115
X0125
X0135
X0145
X0155
Y0025
X0145
X0135
X0125
X0115
X0105
X0095
X0085
X0075
X0065
X0055
X0045
X0035Y0045
X0025
Y0055
Y0065
Y0075
Y0085
Y0095
Y0105
Y0115
Y0125
Y0135
Y0145
Y0155
X0035
Y0165
X0045
X0055
X0065
X0075
X0085
X0095
X0105
X0115
X0125
X0135
X0145
X0155
X0165
Y0155
Y0145
Y0135
Y0125
Y0115
Y0105
Y0095
Y0085
Y0075
Y0065
Y0055
Y0045
X0035Y0055
Y0065
Y0075
Y0085
Y0095
Y0105
Y0115
Y0125
Y0135
Y0145
X0025Y0165
X0175
Y0155
Y0145
Y0135
Y0125
Y0115
Y0105
Y0095
Y0085
Y0075
Y0065
Y0055
Y0045
Y0175
X0155
X0145
X0135
X0125
X0115
X0105
X0095
X0085
X0075
X0065
X0055
X0045
X0035
X0025
Y0185
Y0195
X0055Y0205
X0065
X0135
X0145
T06
X0188976Y0011024
X0011024
X0188976Y0253937
X0011024
M30
