G04*
G04 #@! TF.GenerationSoftware,Altium Limited,Altium Designer,23.3.1 (30)*
G04*
G04 Layer_Color=8388736*
%FSLAX25Y25*%
%MOIN*%
G70*
G04*
G04 #@! TF.SameCoordinates,D048E5A0-3BFD-467D-8461-715AC76033F9*
G04*
G04*
G04 #@! TF.FilePolarity,Negative*
G04*
G01*
G75*
%ADD12C,0.00787*%
G04:AMPARAMS|DCode=62|XSize=35.58mil|YSize=42.27mil|CornerRadius=9.89mil|HoleSize=0mil|Usage=FLASHONLY|Rotation=90.000|XOffset=0mil|YOffset=0mil|HoleType=Round|Shape=RoundedRectangle|*
%AMROUNDEDRECTD62*
21,1,0.03558,0.02248,0,0,90.0*
21,1,0.01579,0.04227,0,0,90.0*
1,1,0.01979,0.01124,0.00789*
1,1,0.01979,0.01124,-0.00789*
1,1,0.01979,-0.01124,-0.00789*
1,1,0.01979,-0.01124,0.00789*
%
%ADD62ROUNDEDRECTD62*%
%ADD63R,0.01581X0.02368*%
G04:AMPARAMS|DCode=64|XSize=27.62mil|YSize=27.62mil|CornerRadius=4.36mil|HoleSize=0mil|Usage=FLASHONLY|Rotation=315.000|XOffset=0mil|YOffset=0mil|HoleType=Round|Shape=RoundedRectangle|*
%AMROUNDEDRECTD64*
21,1,0.02762,0.01890,0,0,315.0*
21,1,0.01890,0.02762,0,0,315.0*
1,1,0.00872,0.00000,-0.01336*
1,1,0.00872,-0.01336,0.00000*
1,1,0.00872,0.00000,0.01336*
1,1,0.00872,0.01336,0.00000*
%
%ADD64ROUNDEDRECTD64*%
G04:AMPARAMS|DCode=65|XSize=61.09mil|YSize=15.81mil|CornerRadius=4.95mil|HoleSize=0mil|Usage=FLASHONLY|Rotation=270.000|XOffset=0mil|YOffset=0mil|HoleType=Round|Shape=RoundedRectangle|*
%AMROUNDEDRECTD65*
21,1,0.06109,0.00591,0,0,270.0*
21,1,0.05118,0.01581,0,0,270.0*
1,1,0.00991,-0.00295,-0.02559*
1,1,0.00991,-0.00295,0.02559*
1,1,0.00991,0.00295,0.02559*
1,1,0.00991,0.00295,-0.02559*
%
%ADD65ROUNDEDRECTD65*%
G04:AMPARAMS|DCode=66|XSize=27.62mil|YSize=47.31mil|CornerRadius=7.91mil|HoleSize=0mil|Usage=FLASHONLY|Rotation=180.000|XOffset=0mil|YOffset=0mil|HoleType=Round|Shape=RoundedRectangle|*
%AMROUNDEDRECTD66*
21,1,0.02762,0.03150,0,0,180.0*
21,1,0.01181,0.04731,0,0,180.0*
1,1,0.01581,-0.00591,0.01575*
1,1,0.01581,0.00591,0.01575*
1,1,0.01581,0.00591,-0.01575*
1,1,0.01581,-0.00591,-0.01575*
%
%ADD66ROUNDEDRECTD66*%
G04:AMPARAMS|DCode=67|XSize=27.62mil|YSize=27.62mil|CornerRadius=4.36mil|HoleSize=0mil|Usage=FLASHONLY|Rotation=225.000|XOffset=0mil|YOffset=0mil|HoleType=Round|Shape=RoundedRectangle|*
%AMROUNDEDRECTD67*
21,1,0.02762,0.01890,0,0,225.0*
21,1,0.01890,0.02762,0,0,225.0*
1,1,0.00872,-0.01336,0.00000*
1,1,0.00872,0.00000,0.01336*
1,1,0.00872,0.01336,0.00000*
1,1,0.00872,0.00000,-0.01336*
%
%ADD67ROUNDEDRECTD67*%
G04:AMPARAMS|DCode=68|XSize=35.5mil|YSize=35.5mil|CornerRadius=5.15mil|HoleSize=0mil|Usage=FLASHONLY|Rotation=180.000|XOffset=0mil|YOffset=0mil|HoleType=Round|Shape=RoundedRectangle|*
%AMROUNDEDRECTD68*
21,1,0.03550,0.02520,0,0,180.0*
21,1,0.02520,0.03550,0,0,180.0*
1,1,0.01030,-0.01260,0.01260*
1,1,0.01030,0.01260,0.01260*
1,1,0.01030,0.01260,-0.01260*
1,1,0.01030,-0.01260,-0.01260*
%
%ADD68ROUNDEDRECTD68*%
G04:AMPARAMS|DCode=69|XSize=27.62mil|YSize=27.62mil|CornerRadius=4.36mil|HoleSize=0mil|Usage=FLASHONLY|Rotation=180.000|XOffset=0mil|YOffset=0mil|HoleType=Round|Shape=RoundedRectangle|*
%AMROUNDEDRECTD69*
21,1,0.02762,0.01890,0,0,180.0*
21,1,0.01890,0.02762,0,0,180.0*
1,1,0.00872,-0.00945,0.00945*
1,1,0.00872,0.00945,0.00945*
1,1,0.00872,0.00945,-0.00945*
1,1,0.00872,-0.00945,-0.00945*
%
%ADD69ROUNDEDRECTD69*%
G04:AMPARAMS|DCode=70|XSize=27.62mil|YSize=27.62mil|CornerRadius=4.36mil|HoleSize=0mil|Usage=FLASHONLY|Rotation=90.000|XOffset=0mil|YOffset=0mil|HoleType=Round|Shape=RoundedRectangle|*
%AMROUNDEDRECTD70*
21,1,0.02762,0.01890,0,0,90.0*
21,1,0.01890,0.02762,0,0,90.0*
1,1,0.00872,0.00945,0.00945*
1,1,0.00872,0.00945,-0.00945*
1,1,0.00872,-0.00945,-0.00945*
1,1,0.00872,-0.00945,0.00945*
%
%ADD70ROUNDEDRECTD70*%
G04:AMPARAMS|DCode=71|XSize=27.62mil|YSize=31.56mil|CornerRadius=4.95mil|HoleSize=0mil|Usage=FLASHONLY|Rotation=270.000|XOffset=0mil|YOffset=0mil|HoleType=Round|Shape=RoundedRectangle|*
%AMROUNDEDRECTD71*
21,1,0.02762,0.02165,0,0,270.0*
21,1,0.01772,0.03156,0,0,270.0*
1,1,0.00991,-0.01083,-0.00886*
1,1,0.00991,-0.01083,0.00886*
1,1,0.00991,0.01083,0.00886*
1,1,0.00991,0.01083,-0.00886*
%
%ADD71ROUNDEDRECTD71*%
G04:AMPARAMS|DCode=72|XSize=29.59mil|YSize=51.24mil|CornerRadius=5.2mil|HoleSize=0mil|Usage=FLASHONLY|Rotation=180.000|XOffset=0mil|YOffset=0mil|HoleType=Round|Shape=RoundedRectangle|*
%AMROUNDEDRECTD72*
21,1,0.02959,0.04085,0,0,180.0*
21,1,0.01919,0.05124,0,0,180.0*
1,1,0.01040,-0.00960,0.02042*
1,1,0.01040,0.00960,0.02042*
1,1,0.01040,0.00960,-0.02042*
1,1,0.01040,-0.00960,-0.02042*
%
%ADD72ROUNDEDRECTD72*%
G04:AMPARAMS|DCode=73|XSize=29.59mil|YSize=51.24mil|CornerRadius=5.2mil|HoleSize=0mil|Usage=FLASHONLY|Rotation=270.000|XOffset=0mil|YOffset=0mil|HoleType=Round|Shape=RoundedRectangle|*
%AMROUNDEDRECTD73*
21,1,0.02959,0.04085,0,0,270.0*
21,1,0.01919,0.05124,0,0,270.0*
1,1,0.01040,-0.02042,-0.00960*
1,1,0.01040,-0.02042,0.00960*
1,1,0.01040,0.02042,0.00960*
1,1,0.01040,0.02042,-0.00960*
%
%ADD73ROUNDEDRECTD73*%
G04:AMPARAMS|DCode=74|XSize=47.31mil|YSize=47.31mil|CornerRadius=7.41mil|HoleSize=0mil|Usage=FLASHONLY|Rotation=0.000|XOffset=0mil|YOffset=0mil|HoleType=Round|Shape=RoundedRectangle|*
%AMROUNDEDRECTD74*
21,1,0.04731,0.03248,0,0,0.0*
21,1,0.03248,0.04731,0,0,0.0*
1,1,0.01483,0.01624,-0.01624*
1,1,0.01483,-0.01624,-0.01624*
1,1,0.01483,-0.01624,0.01624*
1,1,0.01483,0.01624,0.01624*
%
%ADD74ROUNDEDRECTD74*%
G04:AMPARAMS|DCode=75|XSize=47.31mil|YSize=47.31mil|CornerRadius=7.41mil|HoleSize=0mil|Usage=FLASHONLY|Rotation=90.000|XOffset=0mil|YOffset=0mil|HoleType=Round|Shape=RoundedRectangle|*
%AMROUNDEDRECTD75*
21,1,0.04731,0.03248,0,0,90.0*
21,1,0.03248,0.04731,0,0,90.0*
1,1,0.01483,0.01624,0.01624*
1,1,0.01483,0.01624,-0.01624*
1,1,0.01483,-0.01624,-0.01624*
1,1,0.01483,-0.01624,0.01624*
%
%ADD75ROUNDEDRECTD75*%
G04:AMPARAMS|DCode=76|XSize=27.62mil|YSize=43.37mil|CornerRadius=7.91mil|HoleSize=0mil|Usage=FLASHONLY|Rotation=270.000|XOffset=0mil|YOffset=0mil|HoleType=Round|Shape=RoundedRectangle|*
%AMROUNDEDRECTD76*
21,1,0.02762,0.02756,0,0,270.0*
21,1,0.01181,0.04337,0,0,270.0*
1,1,0.01581,-0.01378,-0.00591*
1,1,0.01581,-0.01378,0.00591*
1,1,0.01581,0.01378,0.00591*
1,1,0.01581,0.01378,-0.00591*
%
%ADD76ROUNDEDRECTD76*%
G04:AMPARAMS|DCode=77|XSize=35.58mil|YSize=42.27mil|CornerRadius=9.89mil|HoleSize=0mil|Usage=FLASHONLY|Rotation=180.000|XOffset=0mil|YOffset=0mil|HoleType=Round|Shape=RoundedRectangle|*
%AMROUNDEDRECTD77*
21,1,0.03558,0.02248,0,0,180.0*
21,1,0.01579,0.04227,0,0,180.0*
1,1,0.01979,-0.00789,0.01124*
1,1,0.01979,0.00789,0.01124*
1,1,0.01979,0.00789,-0.01124*
1,1,0.01979,-0.00789,-0.01124*
%
%ADD77ROUNDEDRECTD77*%
G04:AMPARAMS|DCode=78|XSize=39mil|YSize=39mil|CornerRadius=5.5mil|HoleSize=0mil|Usage=FLASHONLY|Rotation=180.000|XOffset=0mil|YOffset=0mil|HoleType=Round|Shape=RoundedRectangle|*
%AMROUNDEDRECTD78*
21,1,0.03900,0.02800,0,0,180.0*
21,1,0.02800,0.03900,0,0,180.0*
1,1,0.01100,-0.01400,0.01400*
1,1,0.01100,0.01400,0.01400*
1,1,0.01100,0.01400,-0.01400*
1,1,0.01100,-0.01400,-0.01400*
%
%ADD78ROUNDEDRECTD78*%
G04:AMPARAMS|DCode=79|XSize=39mil|YSize=39mil|CornerRadius=5.5mil|HoleSize=0mil|Usage=FLASHONLY|Rotation=270.000|XOffset=0mil|YOffset=0mil|HoleType=Round|Shape=RoundedRectangle|*
%AMROUNDEDRECTD79*
21,1,0.03900,0.02800,0,0,270.0*
21,1,0.02800,0.03900,0,0,270.0*
1,1,0.01100,-0.01400,-0.01400*
1,1,0.01100,-0.01400,0.01400*
1,1,0.01100,0.01400,0.01400*
1,1,0.01100,0.01400,-0.01400*
%
%ADD79ROUNDEDRECTD79*%
G04:AMPARAMS|DCode=80|XSize=46.5mil|YSize=59mil|CornerRadius=6.25mil|HoleSize=0mil|Usage=FLASHONLY|Rotation=0.000|XOffset=0mil|YOffset=0mil|HoleType=Round|Shape=RoundedRectangle|*
%AMROUNDEDRECTD80*
21,1,0.04650,0.04650,0,0,0.0*
21,1,0.03400,0.05900,0,0,0.0*
1,1,0.01250,0.01700,-0.02325*
1,1,0.01250,-0.01700,-0.02325*
1,1,0.01250,-0.01700,0.02325*
1,1,0.01250,0.01700,0.02325*
%
%ADD80ROUNDEDRECTD80*%
G04:AMPARAMS|DCode=81|XSize=24mil|YSize=24mil|CornerRadius=7mil|HoleSize=0mil|Usage=FLASHONLY|Rotation=45.000|XOffset=0mil|YOffset=0mil|HoleType=Round|Shape=RoundedRectangle|*
%AMROUNDEDRECTD81*
21,1,0.02400,0.01000,0,0,45.0*
21,1,0.01000,0.02400,0,0,45.0*
1,1,0.01400,0.00707,0.00000*
1,1,0.01400,0.00000,-0.00707*
1,1,0.01400,-0.00707,0.00000*
1,1,0.01400,0.00000,0.00707*
%
%ADD81ROUNDEDRECTD81*%
G04:AMPARAMS|DCode=82|XSize=24mil|YSize=24mil|CornerRadius=7mil|HoleSize=0mil|Usage=FLASHONLY|Rotation=270.000|XOffset=0mil|YOffset=0mil|HoleType=Round|Shape=RoundedRectangle|*
%AMROUNDEDRECTD82*
21,1,0.02400,0.01000,0,0,270.0*
21,1,0.01000,0.02400,0,0,270.0*
1,1,0.01400,-0.00500,-0.00500*
1,1,0.01400,-0.00500,0.00500*
1,1,0.01400,0.00500,0.00500*
1,1,0.01400,0.00500,-0.00500*
%
%ADD82ROUNDEDRECTD82*%
G04:AMPARAMS|DCode=83|XSize=24mil|YSize=24mil|CornerRadius=7mil|HoleSize=0mil|Usage=FLASHONLY|Rotation=0.000|XOffset=0mil|YOffset=0mil|HoleType=Round|Shape=RoundedRectangle|*
%AMROUNDEDRECTD83*
21,1,0.02400,0.01000,0,0,0.0*
21,1,0.01000,0.02400,0,0,0.0*
1,1,0.01400,0.00500,-0.00500*
1,1,0.01400,-0.00500,-0.00500*
1,1,0.01400,-0.00500,0.00500*
1,1,0.01400,0.00500,0.00500*
%
%ADD83ROUNDEDRECTD83*%
G04:AMPARAMS|DCode=84|XSize=24mil|YSize=24mil|CornerRadius=7mil|HoleSize=0mil|Usage=FLASHONLY|Rotation=315.000|XOffset=0mil|YOffset=0mil|HoleType=Round|Shape=RoundedRectangle|*
%AMROUNDEDRECTD84*
21,1,0.02400,0.01000,0,0,315.0*
21,1,0.01000,0.02400,0,0,315.0*
1,1,0.01400,0.00000,-0.00707*
1,1,0.01400,-0.00707,0.00000*
1,1,0.01400,0.00000,0.00707*
1,1,0.01400,0.00707,0.00000*
%
%ADD84ROUNDEDRECTD84*%
G04:AMPARAMS|DCode=85|XSize=35.5mil|YSize=15.81mil|CornerRadius=4.95mil|HoleSize=0mil|Usage=FLASHONLY|Rotation=90.000|XOffset=0mil|YOffset=0mil|HoleType=Round|Shape=RoundedRectangle|*
%AMROUNDEDRECTD85*
21,1,0.03550,0.00591,0,0,90.0*
21,1,0.02559,0.01581,0,0,90.0*
1,1,0.00991,0.00295,0.01280*
1,1,0.00991,0.00295,-0.01280*
1,1,0.00991,-0.00295,-0.01280*
1,1,0.00991,-0.00295,0.01280*
%
%ADD85ROUNDEDRECTD85*%
G04:AMPARAMS|DCode=86|XSize=35.5mil|YSize=15.81mil|CornerRadius=4.95mil|HoleSize=0mil|Usage=FLASHONLY|Rotation=180.000|XOffset=0mil|YOffset=0mil|HoleType=Round|Shape=RoundedRectangle|*
%AMROUNDEDRECTD86*
21,1,0.03550,0.00591,0,0,180.0*
21,1,0.02559,0.01581,0,0,180.0*
1,1,0.00991,-0.01280,0.00295*
1,1,0.00991,0.01280,0.00295*
1,1,0.00991,0.01280,-0.00295*
1,1,0.00991,-0.01280,-0.00295*
%
%ADD86ROUNDEDRECTD86*%
G04:AMPARAMS|DCode=87|XSize=27.62mil|YSize=31.56mil|CornerRadius=4.95mil|HoleSize=0mil|Usage=FLASHONLY|Rotation=180.000|XOffset=0mil|YOffset=0mil|HoleType=Round|Shape=RoundedRectangle|*
%AMROUNDEDRECTD87*
21,1,0.02762,0.02165,0,0,180.0*
21,1,0.01772,0.03156,0,0,180.0*
1,1,0.00991,-0.00886,0.01083*
1,1,0.00991,0.00886,0.01083*
1,1,0.00991,0.00886,-0.01083*
1,1,0.00991,-0.00886,-0.01083*
%
%ADD87ROUNDEDRECTD87*%
G04:AMPARAMS|DCode=88|XSize=39.43mil|YSize=35.5mil|CornerRadius=5.94mil|HoleSize=0mil|Usage=FLASHONLY|Rotation=270.000|XOffset=0mil|YOffset=0mil|HoleType=Round|Shape=RoundedRectangle|*
%AMROUNDEDRECTD88*
21,1,0.03943,0.02362,0,0,270.0*
21,1,0.02756,0.03550,0,0,270.0*
1,1,0.01187,-0.01181,-0.01378*
1,1,0.01187,-0.01181,0.01378*
1,1,0.01187,0.01181,0.01378*
1,1,0.01187,0.01181,-0.01378*
%
%ADD88ROUNDEDRECTD88*%
%ADD89R,0.04770X0.07093*%
G04:AMPARAMS|DCode=90|XSize=54mil|YSize=84mil|CornerRadius=7mil|HoleSize=0mil|Usage=FLASHONLY|Rotation=270.000|XOffset=0mil|YOffset=0mil|HoleType=Round|Shape=RoundedRectangle|*
%AMROUNDEDRECTD90*
21,1,0.05400,0.07000,0,0,270.0*
21,1,0.04000,0.08400,0,0,270.0*
1,1,0.01400,-0.03500,-0.02000*
1,1,0.01400,-0.03500,0.02000*
1,1,0.01400,0.03500,0.02000*
1,1,0.01400,0.03500,-0.02000*
%
%ADD90ROUNDEDRECTD90*%
G04:AMPARAMS|DCode=91|XSize=27.62mil|YSize=43.37mil|CornerRadius=7.91mil|HoleSize=0mil|Usage=FLASHONLY|Rotation=0.000|XOffset=0mil|YOffset=0mil|HoleType=Round|Shape=RoundedRectangle|*
%AMROUNDEDRECTD91*
21,1,0.02762,0.02756,0,0,0.0*
21,1,0.01181,0.04337,0,0,0.0*
1,1,0.01581,0.00591,-0.01378*
1,1,0.01581,-0.00591,-0.01378*
1,1,0.01581,-0.00591,0.01378*
1,1,0.01581,0.00591,0.01378*
%
%ADD91ROUNDEDRECTD91*%
G04:AMPARAMS|DCode=92|XSize=39mil|YSize=39mil|CornerRadius=6.38mil|HoleSize=0mil|Usage=FLASHONLY|Rotation=270.000|XOffset=0mil|YOffset=0mil|HoleType=Round|Shape=RoundedRectangle|*
%AMROUNDEDRECTD92*
21,1,0.03900,0.02625,0,0,270.0*
21,1,0.02625,0.03900,0,0,270.0*
1,1,0.01275,-0.01313,-0.01313*
1,1,0.01275,-0.01313,0.01313*
1,1,0.01275,0.01313,0.01313*
1,1,0.01275,0.01313,-0.01313*
%
%ADD92ROUNDEDRECTD92*%
G04:AMPARAMS|DCode=93|XSize=39mil|YSize=39mil|CornerRadius=6.38mil|HoleSize=0mil|Usage=FLASHONLY|Rotation=180.000|XOffset=0mil|YOffset=0mil|HoleType=Round|Shape=RoundedRectangle|*
%AMROUNDEDRECTD93*
21,1,0.03900,0.02625,0,0,180.0*
21,1,0.02625,0.03900,0,0,180.0*
1,1,0.01275,-0.01313,0.01313*
1,1,0.01275,0.01313,0.01313*
1,1,0.01275,0.01313,-0.01313*
1,1,0.01275,-0.01313,-0.01313*
%
%ADD93ROUNDEDRECTD93*%
G04:AMPARAMS|DCode=94|XSize=39mil|YSize=39mil|CornerRadius=5.5mil|HoleSize=0mil|Usage=FLASHONLY|Rotation=315.000|XOffset=0mil|YOffset=0mil|HoleType=Round|Shape=RoundedRectangle|*
%AMROUNDEDRECTD94*
21,1,0.03900,0.02800,0,0,315.0*
21,1,0.02800,0.03900,0,0,315.0*
1,1,0.01100,0.00000,-0.01980*
1,1,0.01100,-0.01980,0.00000*
1,1,0.01100,0.00000,0.01980*
1,1,0.01100,0.01980,0.00000*
%
%ADD94ROUNDEDRECTD94*%
G04:AMPARAMS|DCode=95|XSize=43.37mil|YSize=74.87mil|CornerRadius=6.92mil|HoleSize=0mil|Usage=FLASHONLY|Rotation=0.000|XOffset=0mil|YOffset=0mil|HoleType=Round|Shape=RoundedRectangle|*
%AMROUNDEDRECTD95*
21,1,0.04337,0.06102,0,0,0.0*
21,1,0.02953,0.07487,0,0,0.0*
1,1,0.01384,0.01476,-0.03051*
1,1,0.01384,-0.01476,-0.03051*
1,1,0.01384,-0.01476,0.03051*
1,1,0.01384,0.01476,0.03051*
%
%ADD95ROUNDEDRECTD95*%
G04:AMPARAMS|DCode=96|XSize=49.28mil|YSize=59.12mil|CornerRadius=13.32mil|HoleSize=0mil|Usage=FLASHONLY|Rotation=90.000|XOffset=0mil|YOffset=0mil|HoleType=Round|Shape=RoundedRectangle|*
%AMROUNDEDRECTD96*
21,1,0.04928,0.03248,0,0,90.0*
21,1,0.02264,0.05912,0,0,90.0*
1,1,0.02664,0.01624,0.01132*
1,1,0.02664,0.01624,-0.01132*
1,1,0.02664,-0.01624,-0.01132*
1,1,0.02664,-0.01624,0.01132*
%
%ADD96ROUNDEDRECTD96*%
G04:AMPARAMS|DCode=97|XSize=224.47mil|YSize=224.47mil|CornerRadius=7.51mil|HoleSize=0mil|Usage=FLASHONLY|Rotation=90.000|XOffset=0mil|YOffset=0mil|HoleType=Round|Shape=RoundedRectangle|*
%AMROUNDEDRECTD97*
21,1,0.22447,0.20945,0,0,90.0*
21,1,0.20945,0.22447,0,0,90.0*
1,1,0.01502,0.10472,0.10472*
1,1,0.01502,0.10472,-0.10472*
1,1,0.01502,-0.10472,-0.10472*
1,1,0.01502,-0.10472,0.10472*
%
%ADD97ROUNDEDRECTD97*%
%ADD98C,0.06896*%
%ADD99O,0.04337X0.06699*%
%ADD100O,0.04337X0.08668*%
%ADD101C,0.02959*%
%ADD102C,0.16935*%
%ADD103C,0.08274*%
%ADD104C,0.07800*%
D12*
X188976Y1575D02*
G03*
X198425Y11024I0J9449D01*
G01*
Y253937D02*
G03*
X188976Y263386I-9449J0D01*
G01*
X11024D02*
G03*
X1575Y253937I0J-9449D01*
G01*
Y11024D02*
G03*
X11024Y1575I9449J0D01*
G01*
X1575Y11024D02*
Y253937D01*
X11024Y263386D02*
X188976D01*
X198425Y11024D02*
Y253937D01*
X11024Y1575D02*
X188976D01*
D62*
X48016Y53740D02*
D03*
Y46260D02*
D03*
X54984Y50000D02*
D03*
D63*
X43917Y201933D02*
D03*
X46083D02*
D03*
Y206067D02*
D03*
X43917D02*
D03*
D64*
X82108Y138392D02*
D03*
X79108Y135392D02*
D03*
X84892Y135608D02*
D03*
X81892Y132608D02*
D03*
D65*
X44016Y232705D02*
D03*
X47953D02*
D03*
X45984D02*
D03*
X42047D02*
D03*
X58287D02*
D03*
X57106D02*
D03*
X55089D02*
D03*
X53908D02*
D03*
X51890D02*
D03*
X49921D02*
D03*
X40079D02*
D03*
X38110D02*
D03*
X36092D02*
D03*
X34911D02*
D03*
X32894D02*
D03*
X31713D02*
D03*
X168287D02*
D03*
X167106D02*
D03*
X165089D02*
D03*
X163908D02*
D03*
X161890D02*
D03*
X159921D02*
D03*
X157953D02*
D03*
X155984D02*
D03*
X154016D02*
D03*
X152047D02*
D03*
X150079D02*
D03*
X148110D02*
D03*
X146092D02*
D03*
X144911D02*
D03*
X142894D02*
D03*
X141713D02*
D03*
D66*
X48740Y222512D02*
D03*
Y211488D02*
D03*
X41260Y222512D02*
D03*
Y211488D02*
D03*
X45000Y222512D02*
D03*
Y211488D02*
D03*
D67*
X88108Y132608D02*
D03*
X84892Y129392D02*
D03*
X82108Y126608D02*
D03*
X90892Y135392D02*
D03*
D68*
X5000Y23000D02*
D03*
X11000D02*
D03*
Y28000D02*
D03*
X5000D02*
D03*
D69*
X19969D02*
D03*
X16032D02*
D03*
X166969Y37000D02*
D03*
X163031D02*
D03*
X163063Y33000D02*
D03*
X167000D02*
D03*
X163031Y29000D02*
D03*
X166969D02*
D03*
X174969Y37000D02*
D03*
X171031D02*
D03*
X19969Y23000D02*
D03*
X16032D02*
D03*
X185031Y160000D02*
D03*
X188969D02*
D03*
X184968Y183000D02*
D03*
X181032D02*
D03*
Y187000D02*
D03*
X184968D02*
D03*
X166969Y178000D02*
D03*
X163031D02*
D03*
X176969Y195000D02*
D03*
X173031D02*
D03*
X165032D02*
D03*
X168968D02*
D03*
X176969Y199000D02*
D03*
X173031D02*
D03*
X165032D02*
D03*
X168968D02*
D03*
X137031Y219000D02*
D03*
X140969D02*
D03*
X35032Y200000D02*
D03*
X38969D02*
D03*
X102032Y223000D02*
D03*
X105968D02*
D03*
X29032Y25000D02*
D03*
X32969D02*
D03*
X77031Y60000D02*
D03*
X80968D02*
D03*
X72969D02*
D03*
X69032D02*
D03*
X103032D02*
D03*
X106968D02*
D03*
X96969D02*
D03*
X93032D02*
D03*
X100031Y144000D02*
D03*
X103969D02*
D03*
X92032D02*
D03*
X95969D02*
D03*
X85532Y120000D02*
D03*
X89468D02*
D03*
X79969Y88000D02*
D03*
X76032D02*
D03*
X98032Y219000D02*
D03*
X101969D02*
D03*
X171031Y25000D02*
D03*
X174969D02*
D03*
X166969D02*
D03*
X163031D02*
D03*
X62968Y219000D02*
D03*
X59031D02*
D03*
D70*
X175000Y29032D02*
D03*
Y32969D02*
D03*
X171000D02*
D03*
Y29032D02*
D03*
X150500Y100531D02*
D03*
Y104469D02*
D03*
X190000Y183031D02*
D03*
Y186969D02*
D03*
X195000Y183031D02*
D03*
Y186969D02*
D03*
Y193032D02*
D03*
Y196968D02*
D03*
X84000Y208032D02*
D03*
Y211968D02*
D03*
X94000Y223031D02*
D03*
Y226969D02*
D03*
X90000Y223031D02*
D03*
Y226969D02*
D03*
X111000Y208032D02*
D03*
Y211968D02*
D03*
X53000Y215032D02*
D03*
Y218969D02*
D03*
X98000Y223031D02*
D03*
Y226969D02*
D03*
X102000Y230968D02*
D03*
Y227031D02*
D03*
X177000Y233032D02*
D03*
Y236968D02*
D03*
X181000Y233032D02*
D03*
Y236968D02*
D03*
X85000Y223031D02*
D03*
Y226969D02*
D03*
Y231031D02*
D03*
Y234968D02*
D03*
Y242969D02*
D03*
Y239032D02*
D03*
X120000Y110531D02*
D03*
Y114469D02*
D03*
X130000Y114032D02*
D03*
Y117968D02*
D03*
Y105532D02*
D03*
Y109468D02*
D03*
X100000Y139969D02*
D03*
Y136031D02*
D03*
X96000Y139969D02*
D03*
Y136031D02*
D03*
X70000Y75532D02*
D03*
Y79469D02*
D03*
X155000Y110531D02*
D03*
Y114469D02*
D03*
X18917Y236937D02*
D03*
Y233000D02*
D03*
X155000Y100531D02*
D03*
Y104469D02*
D03*
X23000Y233032D02*
D03*
Y236968D02*
D03*
X145000Y110531D02*
D03*
Y114469D02*
D03*
D71*
X180000Y29244D02*
D03*
Y34756D02*
D03*
D72*
X193232Y39465D02*
D03*
Y22535D02*
D03*
X184768Y39465D02*
D03*
Y22535D02*
D03*
D73*
X177465Y6768D02*
D03*
X160535D02*
D03*
X177465Y15232D02*
D03*
X160535D02*
D03*
X39465Y6768D02*
D03*
X22535D02*
D03*
X39465Y15232D02*
D03*
X22535D02*
D03*
D74*
X49488Y155000D02*
D03*
X133488Y225000D02*
D03*
X78512Y258000D02*
D03*
X68000Y249512D02*
D03*
X66512Y225000D02*
D03*
D75*
X60512Y155000D02*
D03*
X144512Y225000D02*
D03*
X67488Y258000D02*
D03*
X68000Y238488D02*
D03*
X55488Y225000D02*
D03*
D76*
X163685Y183260D02*
D03*
Y190740D02*
D03*
X174315D02*
D03*
Y187000D02*
D03*
Y183260D02*
D03*
X105157Y206260D02*
D03*
Y210000D02*
D03*
Y213740D02*
D03*
X94842D02*
D03*
Y206260D02*
D03*
D77*
X187000Y177984D02*
D03*
X190740Y171016D02*
D03*
X183260D02*
D03*
X186000Y198984D02*
D03*
X189740Y192016D02*
D03*
X182260D02*
D03*
D78*
X184000Y165000D02*
D03*
X190000D02*
D03*
D79*
X116000Y249000D02*
D03*
Y243000D02*
D03*
Y207000D02*
D03*
Y213000D02*
D03*
X89000D02*
D03*
Y207000D02*
D03*
X75000Y82000D02*
D03*
Y76000D02*
D03*
X135000Y110500D02*
D03*
Y104500D02*
D03*
Y116000D02*
D03*
Y122000D02*
D03*
D80*
X123626Y222000D02*
D03*
X116374D02*
D03*
X123626Y236000D02*
D03*
X116374D02*
D03*
X123626Y229000D02*
D03*
X116374D02*
D03*
D81*
X112086Y72914D02*
D03*
Y77914D02*
D03*
X117086D02*
D03*
X122086Y82914D02*
D03*
Y87914D02*
D03*
X127086D02*
D03*
X132086Y92914D02*
D03*
X114914Y70086D02*
D03*
Y75086D02*
D03*
X119914D02*
D03*
X124914Y80086D02*
D03*
Y85086D02*
D03*
X129914D02*
D03*
X134914Y90086D02*
D03*
D82*
X137500Y92500D02*
D03*
X138000Y100000D02*
D03*
X141500Y92500D02*
D03*
X142000Y100000D02*
D03*
D83*
X125000Y113000D02*
D03*
Y117000D02*
D03*
D84*
X112586Y122586D02*
D03*
Y127586D02*
D03*
X115414Y125414D02*
D03*
Y130414D02*
D03*
D85*
X104921Y86221D02*
D03*
X106890D02*
D03*
X108858D02*
D03*
Y113780D02*
D03*
X106890Y113780D02*
D03*
X89173D02*
D03*
X91142D02*
D03*
X93110D02*
D03*
X95079D02*
D03*
X97047D02*
D03*
X99016D02*
D03*
X100984D02*
D03*
X102953D02*
D03*
X104921D02*
D03*
X110827Y113780D02*
D03*
Y86221D02*
D03*
X102953D02*
D03*
X100984D02*
D03*
X99016D02*
D03*
X97047D02*
D03*
X95079D02*
D03*
X93110D02*
D03*
X91142D02*
D03*
X89173D02*
D03*
D86*
X113779Y89173D02*
D03*
Y91142D02*
D03*
Y93110D02*
D03*
Y97047D02*
D03*
Y99016D02*
D03*
Y100984D02*
D03*
Y106890D02*
D03*
X86220Y89173D02*
D03*
X86220Y91142D02*
D03*
X86220Y93110D02*
D03*
X86220Y95079D02*
D03*
X86220Y97047D02*
D03*
X86220Y99016D02*
D03*
Y100984D02*
D03*
X86220Y102953D02*
D03*
X86220Y104921D02*
D03*
X86220Y106890D02*
D03*
X86220Y108858D02*
D03*
X86220Y110827D02*
D03*
X113779D02*
D03*
Y108858D02*
D03*
Y104921D02*
D03*
Y102953D02*
D03*
Y95079D02*
D03*
D87*
X33756Y20000D02*
D03*
X28244D02*
D03*
X172756D02*
D03*
X167244D02*
D03*
D88*
X151000Y214472D02*
D03*
Y223528D02*
D03*
X159000Y214472D02*
D03*
Y223528D02*
D03*
D89*
X94146Y254000D02*
D03*
X109854Y254000D02*
D03*
D90*
X77000Y237500D02*
D03*
Y250500D02*
D03*
D91*
X97740Y231842D02*
D03*
X90260D02*
D03*
Y242158D02*
D03*
X94000D02*
D03*
X97740D02*
D03*
X94000Y231842D02*
D03*
D92*
X140000Y122000D02*
D03*
Y116000D02*
D03*
X150000Y109500D02*
D03*
Y115500D02*
D03*
D93*
X146000Y105000D02*
D03*
X140000D02*
D03*
D94*
X80121Y121879D02*
D03*
X75879Y126121D02*
D03*
D95*
X79921Y52500D02*
D03*
X70079D02*
D03*
D96*
X104331Y53150D02*
D03*
Y46850D02*
D03*
X95669Y53150D02*
D03*
Y46850D02*
D03*
D97*
X100000Y100000D02*
D03*
D98*
X165000Y85000D02*
D03*
X35000Y35000D02*
D03*
X25000D02*
D03*
X165000Y165000D02*
D03*
X35000D02*
D03*
Y175000D02*
D03*
X175000Y165000D02*
D03*
Y175000D02*
D03*
X165000Y155000D02*
D03*
Y145000D02*
D03*
Y125000D02*
D03*
Y115000D02*
D03*
Y75000D02*
D03*
Y135000D02*
D03*
Y105000D02*
D03*
Y95000D02*
D03*
Y65000D02*
D03*
Y55000D02*
D03*
Y45000D02*
D03*
X155000Y175000D02*
D03*
X125000D02*
D03*
X115000D02*
D03*
X105000D02*
D03*
X95000D02*
D03*
X85000D02*
D03*
X75000D02*
D03*
X65000D02*
D03*
X55000D02*
D03*
X45000D02*
D03*
X135000D02*
D03*
X145000D02*
D03*
X175000Y155000D02*
D03*
Y145000D02*
D03*
Y125000D02*
D03*
Y115000D02*
D03*
Y75000D02*
D03*
Y135000D02*
D03*
Y105000D02*
D03*
Y95000D02*
D03*
Y85000D02*
D03*
Y65000D02*
D03*
Y55000D02*
D03*
Y45000D02*
D03*
X155000Y35000D02*
D03*
X115000D02*
D03*
X105000D02*
D03*
X95000D02*
D03*
X85000D02*
D03*
X75000D02*
D03*
X65000D02*
D03*
X55000D02*
D03*
X45000D02*
D03*
X145000D02*
D03*
X135000D02*
D03*
X125000D02*
D03*
X155000Y25000D02*
D03*
X115000D02*
D03*
X105000D02*
D03*
X95000D02*
D03*
X85000D02*
D03*
X75000D02*
D03*
X65000D02*
D03*
X55000D02*
D03*
X45000D02*
D03*
X145000D02*
D03*
X135000D02*
D03*
X125000D02*
D03*
X155000Y165000D02*
D03*
X125000D02*
D03*
X115000D02*
D03*
X105000D02*
D03*
X95000D02*
D03*
X85000D02*
D03*
X75000D02*
D03*
X65000D02*
D03*
X55000D02*
D03*
X45000D02*
D03*
X135000D02*
D03*
X145000D02*
D03*
X25000Y155000D02*
D03*
Y145000D02*
D03*
Y135000D02*
D03*
Y125000D02*
D03*
Y115000D02*
D03*
Y105000D02*
D03*
Y95000D02*
D03*
Y85000D02*
D03*
Y75000D02*
D03*
Y65000D02*
D03*
Y55000D02*
D03*
Y45000D02*
D03*
X35000Y155000D02*
D03*
Y145000D02*
D03*
Y135000D02*
D03*
Y125000D02*
D03*
Y115000D02*
D03*
Y105000D02*
D03*
Y95000D02*
D03*
Y85000D02*
D03*
Y75000D02*
D03*
Y65000D02*
D03*
Y55000D02*
D03*
X145000Y205000D02*
D03*
X135000D02*
D03*
X55000D02*
D03*
X65000D02*
D03*
X35000Y45000D02*
D03*
D99*
X27992Y252764D02*
D03*
X62008D02*
D03*
X137992D02*
D03*
X172008D02*
D03*
D100*
X62008Y236307D02*
D03*
X27992D02*
D03*
X172008D02*
D03*
X137992D02*
D03*
D101*
X33622Y238394D02*
D03*
X56378D02*
D03*
X143622D02*
D03*
X166378D02*
D03*
D102*
X11024Y253937D02*
D03*
X188976D02*
D03*
Y11024D02*
D03*
X11024D02*
D03*
D103*
X16000Y222890D02*
D03*
Y209110D02*
D03*
X184000Y222890D02*
D03*
Y209110D02*
D03*
D104*
X25000Y195000D02*
D03*
Y185000D02*
D03*
Y175000D02*
D03*
Y165000D02*
D03*
M02*
