G04*
G04 #@! TF.GenerationSoftware,Altium Limited,Altium Designer,23.3.1 (30)*
G04*
G04 Layer_Color=128*
%FSLAX25Y25*%
%MOIN*%
G70*
G04*
G04 #@! TF.SameCoordinates,D048E5A0-3BFD-467D-8461-715AC76033F9*
G04*
G04*
G04 #@! TF.FilePolarity,Positive*
G04*
G01*
G75*
%ADD12C,0.00787*%
G04:AMPARAMS|DCode=33|XSize=31.5mil|YSize=31.5mil|CornerRadius=3.15mil|HoleSize=0mil|Usage=FLASHONLY|Rotation=180.000|XOffset=0mil|YOffset=0mil|HoleType=Round|Shape=RoundedRectangle|*
%AMROUNDEDRECTD33*
21,1,0.03150,0.02520,0,0,180.0*
21,1,0.02520,0.03150,0,0,180.0*
1,1,0.00630,-0.01260,0.01260*
1,1,0.00630,0.01260,0.01260*
1,1,0.00630,0.01260,-0.01260*
1,1,0.00630,-0.01260,-0.01260*
%
%ADD33ROUNDEDRECTD33*%
G04:AMPARAMS|DCode=122|XSize=31.5mil|YSize=31.5mil|CornerRadius=3.15mil|HoleSize=0mil|Usage=FLASHONLY|Rotation=270.000|XOffset=0mil|YOffset=0mil|HoleType=Round|Shape=RoundedRectangle|*
%AMROUNDEDRECTD122*
21,1,0.03150,0.02520,0,0,270.0*
21,1,0.02520,0.03150,0,0,270.0*
1,1,0.00630,-0.01260,-0.01260*
1,1,0.00630,-0.01260,0.01260*
1,1,0.00630,0.01260,0.01260*
1,1,0.00630,0.01260,-0.01260*
%
%ADD122ROUNDEDRECTD122*%
D12*
X188976Y1575D02*
G03*
X198425Y11024I0J9449D01*
G01*
Y253937D02*
G03*
X188976Y263386I-9449J0D01*
G01*
X11024D02*
G03*
X1575Y253937I0J-9449D01*
G01*
Y11024D02*
G03*
X11024Y1575I9449J0D01*
G01*
X1575Y11024D02*
Y253937D01*
X11024Y263386D02*
X188976D01*
X198425Y11024D02*
Y253937D01*
X11024Y1575D02*
X188976D01*
D33*
X45000Y37500D02*
D03*
X55000D02*
D03*
X65000D02*
D03*
X75000D02*
D03*
X105000D02*
D03*
X115000D02*
D03*
X155000D02*
D03*
X85000D02*
D03*
X95000D02*
D03*
X145000D02*
D03*
X135000D02*
D03*
X125000D02*
D03*
X105000Y162500D02*
D03*
X95000D02*
D03*
X155000D02*
D03*
X125000D02*
D03*
X115000D02*
D03*
X145000D02*
D03*
X135000D02*
D03*
X85000D02*
D03*
X75000D02*
D03*
X65000D02*
D03*
X55000D02*
D03*
X45000D02*
D03*
D122*
X37500Y95000D02*
D03*
Y85000D02*
D03*
Y75000D02*
D03*
Y65000D02*
D03*
Y55000D02*
D03*
Y105000D02*
D03*
X40000Y160000D02*
D03*
Y155000D02*
D03*
Y140000D02*
D03*
Y135000D02*
D03*
Y120000D02*
D03*
Y115000D02*
D03*
Y125000D02*
D03*
Y130000D02*
D03*
Y40000D02*
D03*
Y45000D02*
D03*
Y150000D02*
D03*
Y145000D02*
D03*
Y110000D02*
D03*
Y105000D02*
D03*
Y100000D02*
D03*
Y95000D02*
D03*
Y90000D02*
D03*
Y85000D02*
D03*
Y80000D02*
D03*
Y75000D02*
D03*
Y70000D02*
D03*
Y65000D02*
D03*
Y60000D02*
D03*
X45000Y100000D02*
D03*
Y95000D02*
D03*
Y90000D02*
D03*
Y85000D02*
D03*
X40000Y50000D02*
D03*
Y55000D02*
D03*
X45000Y80000D02*
D03*
Y75000D02*
D03*
Y70000D02*
D03*
Y65000D02*
D03*
Y60000D02*
D03*
Y55000D02*
D03*
Y50000D02*
D03*
Y45000D02*
D03*
Y40000D02*
D03*
Y110000D02*
D03*
Y160000D02*
D03*
Y155000D02*
D03*
Y150000D02*
D03*
Y145000D02*
D03*
Y140000D02*
D03*
Y135000D02*
D03*
Y120000D02*
D03*
Y115000D02*
D03*
Y105000D02*
D03*
Y125000D02*
D03*
Y130000D02*
D03*
X145000Y150000D02*
D03*
Y135000D02*
D03*
Y145000D02*
D03*
Y155000D02*
D03*
Y160000D02*
D03*
X105000Y135000D02*
D03*
Y130000D02*
D03*
X110000Y135000D02*
D03*
X115000D02*
D03*
Y130000D02*
D03*
X120000Y135000D02*
D03*
Y130000D02*
D03*
X125000Y135000D02*
D03*
Y130000D02*
D03*
X130000D02*
D03*
Y135000D02*
D03*
Y140000D02*
D03*
Y145000D02*
D03*
Y150000D02*
D03*
Y155000D02*
D03*
Y160000D02*
D03*
X110000Y80000D02*
D03*
Y95000D02*
D03*
Y90000D02*
D03*
Y85000D02*
D03*
X115000Y95000D02*
D03*
Y80000D02*
D03*
Y100000D02*
D03*
X150000Y160000D02*
D03*
Y130000D02*
D03*
Y135000D02*
D03*
Y140000D02*
D03*
Y145000D02*
D03*
Y150000D02*
D03*
Y155000D02*
D03*
X125000Y100000D02*
D03*
X120000Y110000D02*
D03*
Y125000D02*
D03*
Y120000D02*
D03*
Y115000D02*
D03*
X125000Y125000D02*
D03*
Y120000D02*
D03*
Y115000D02*
D03*
Y110000D02*
D03*
Y105000D02*
D03*
X130000Y100000D02*
D03*
Y105000D02*
D03*
Y110000D02*
D03*
Y115000D02*
D03*
Y120000D02*
D03*
Y125000D02*
D03*
X150000Y95000D02*
D03*
Y80000D02*
D03*
Y85000D02*
D03*
Y90000D02*
D03*
Y75000D02*
D03*
Y70000D02*
D03*
X155000D02*
D03*
Y75000D02*
D03*
Y95000D02*
D03*
Y90000D02*
D03*
Y85000D02*
D03*
Y80000D02*
D03*
X160000Y95000D02*
D03*
Y90000D02*
D03*
Y85000D02*
D03*
Y80000D02*
D03*
X145000Y130000D02*
D03*
X140000Y100000D02*
D03*
Y105000D02*
D03*
Y110000D02*
D03*
Y115000D02*
D03*
Y120000D02*
D03*
Y125000D02*
D03*
Y130000D02*
D03*
Y135000D02*
D03*
Y140000D02*
D03*
Y145000D02*
D03*
Y150000D02*
D03*
Y155000D02*
D03*
Y160000D02*
D03*
X135000D02*
D03*
Y125000D02*
D03*
Y120000D02*
D03*
Y130000D02*
D03*
Y135000D02*
D03*
Y140000D02*
D03*
Y145000D02*
D03*
Y150000D02*
D03*
Y155000D02*
D03*
X145000Y95000D02*
D03*
X150000Y100000D02*
D03*
Y105000D02*
D03*
Y110000D02*
D03*
Y115000D02*
D03*
Y120000D02*
D03*
Y125000D02*
D03*
X145000Y100000D02*
D03*
Y105000D02*
D03*
Y110000D02*
D03*
Y115000D02*
D03*
Y120000D02*
D03*
Y125000D02*
D03*
Y70000D02*
D03*
Y90000D02*
D03*
Y80000D02*
D03*
Y85000D02*
D03*
Y75000D02*
D03*
X140000Y80000D02*
D03*
Y85000D02*
D03*
Y90000D02*
D03*
Y95000D02*
D03*
Y75000D02*
D03*
Y70000D02*
D03*
X135000Y80000D02*
D03*
Y100000D02*
D03*
Y105000D02*
D03*
Y110000D02*
D03*
Y115000D02*
D03*
Y85000D02*
D03*
Y90000D02*
D03*
Y95000D02*
D03*
Y75000D02*
D03*
Y70000D02*
D03*
X130000Y80000D02*
D03*
Y85000D02*
D03*
Y90000D02*
D03*
Y95000D02*
D03*
Y75000D02*
D03*
Y70000D02*
D03*
X155000Y160000D02*
D03*
Y155000D02*
D03*
Y150000D02*
D03*
Y145000D02*
D03*
Y140000D02*
D03*
Y135000D02*
D03*
Y130000D02*
D03*
Y125000D02*
D03*
Y100000D02*
D03*
Y115000D02*
D03*
Y120000D02*
D03*
Y110000D02*
D03*
Y105000D02*
D03*
X160000Y120000D02*
D03*
Y160000D02*
D03*
Y155000D02*
D03*
Y150000D02*
D03*
Y145000D02*
D03*
Y140000D02*
D03*
Y135000D02*
D03*
Y130000D02*
D03*
Y125000D02*
D03*
Y115000D02*
D03*
Y110000D02*
D03*
Y105000D02*
D03*
Y100000D02*
D03*
X110000Y50000D02*
D03*
Y55000D02*
D03*
X115000D02*
D03*
Y50000D02*
D03*
X120000Y55000D02*
D03*
Y50000D02*
D03*
Y45000D02*
D03*
Y40000D02*
D03*
X125000Y65000D02*
D03*
Y60000D02*
D03*
Y55000D02*
D03*
Y50000D02*
D03*
Y45000D02*
D03*
Y40000D02*
D03*
X150000Y65000D02*
D03*
Y60000D02*
D03*
X145000D02*
D03*
Y65000D02*
D03*
X140000Y60000D02*
D03*
Y65000D02*
D03*
X135000Y60000D02*
D03*
Y65000D02*
D03*
X130000Y60000D02*
D03*
Y65000D02*
D03*
X155000D02*
D03*
Y60000D02*
D03*
X160000Y70000D02*
D03*
Y75000D02*
D03*
Y60000D02*
D03*
X130000Y40000D02*
D03*
X145000D02*
D03*
Y45000D02*
D03*
X140000Y40000D02*
D03*
Y45000D02*
D03*
Y50000D02*
D03*
X135000Y40000D02*
D03*
Y45000D02*
D03*
Y50000D02*
D03*
X130000Y45000D02*
D03*
Y50000D02*
D03*
Y55000D02*
D03*
X150000Y40000D02*
D03*
Y45000D02*
D03*
Y50000D02*
D03*
Y55000D02*
D03*
X145000Y50000D02*
D03*
Y55000D02*
D03*
X140000D02*
D03*
X135000D02*
D03*
X155000D02*
D03*
Y50000D02*
D03*
Y45000D02*
D03*
Y40000D02*
D03*
X160000Y50000D02*
D03*
X55000Y120000D02*
D03*
Y105000D02*
D03*
Y110000D02*
D03*
Y115000D02*
D03*
Y100000D02*
D03*
X50000Y105000D02*
D03*
Y110000D02*
D03*
Y115000D02*
D03*
Y120000D02*
D03*
Y100000D02*
D03*
X55000Y140000D02*
D03*
Y145000D02*
D03*
Y150000D02*
D03*
X70000Y160000D02*
D03*
Y130000D02*
D03*
Y120000D02*
D03*
Y135000D02*
D03*
Y140000D02*
D03*
Y145000D02*
D03*
Y150000D02*
D03*
Y155000D02*
D03*
X75000Y160000D02*
D03*
Y155000D02*
D03*
Y150000D02*
D03*
Y145000D02*
D03*
Y135000D02*
D03*
Y125000D02*
D03*
Y130000D02*
D03*
Y120000D02*
D03*
Y110000D02*
D03*
X70000Y115000D02*
D03*
X75000D02*
D03*
Y105000D02*
D03*
X100000Y160000D02*
D03*
Y155000D02*
D03*
Y150000D02*
D03*
X95000Y160000D02*
D03*
Y155000D02*
D03*
Y150000D02*
D03*
Y145000D02*
D03*
Y140000D02*
D03*
Y135000D02*
D03*
Y130000D02*
D03*
X80000D02*
D03*
Y100000D02*
D03*
Y95000D02*
D03*
Y90000D02*
D03*
Y85000D02*
D03*
Y80000D02*
D03*
Y75000D02*
D03*
Y120000D02*
D03*
Y115000D02*
D03*
Y110000D02*
D03*
Y105000D02*
D03*
Y125000D02*
D03*
X70000Y100000D02*
D03*
Y90000D02*
D03*
Y85000D02*
D03*
Y95000D02*
D03*
X75000Y100000D02*
D03*
Y95000D02*
D03*
Y90000D02*
D03*
Y85000D02*
D03*
Y80000D02*
D03*
Y75000D02*
D03*
Y70000D02*
D03*
Y65000D02*
D03*
X60000Y120000D02*
D03*
Y105000D02*
D03*
Y110000D02*
D03*
Y115000D02*
D03*
Y75000D02*
D03*
Y80000D02*
D03*
Y85000D02*
D03*
Y90000D02*
D03*
Y95000D02*
D03*
Y100000D02*
D03*
X70000Y70000D02*
D03*
Y65000D02*
D03*
X65000D02*
D03*
X60000Y55000D02*
D03*
Y60000D02*
D03*
Y65000D02*
D03*
Y70000D02*
D03*
X70000Y105000D02*
D03*
Y125000D02*
D03*
Y110000D02*
D03*
X65000Y130000D02*
D03*
Y125000D02*
D03*
Y105000D02*
D03*
Y110000D02*
D03*
Y115000D02*
D03*
Y120000D02*
D03*
Y135000D02*
D03*
Y140000D02*
D03*
Y145000D02*
D03*
Y150000D02*
D03*
Y70000D02*
D03*
X70000Y80000D02*
D03*
Y75000D02*
D03*
X65000D02*
D03*
Y80000D02*
D03*
Y85000D02*
D03*
Y90000D02*
D03*
Y95000D02*
D03*
Y100000D02*
D03*
Y160000D02*
D03*
Y155000D02*
D03*
X50000Y130000D02*
D03*
Y125000D02*
D03*
Y135000D02*
D03*
Y140000D02*
D03*
Y145000D02*
D03*
Y150000D02*
D03*
Y155000D02*
D03*
Y160000D02*
D03*
X60000Y125000D02*
D03*
Y130000D02*
D03*
Y135000D02*
D03*
Y140000D02*
D03*
Y145000D02*
D03*
Y150000D02*
D03*
Y155000D02*
D03*
Y160000D02*
D03*
X55000Y130000D02*
D03*
Y125000D02*
D03*
Y135000D02*
D03*
Y155000D02*
D03*
Y160000D02*
D03*
Y65000D02*
D03*
Y70000D02*
D03*
Y75000D02*
D03*
Y80000D02*
D03*
Y85000D02*
D03*
Y90000D02*
D03*
Y95000D02*
D03*
X50000Y65000D02*
D03*
Y70000D02*
D03*
Y75000D02*
D03*
Y80000D02*
D03*
Y85000D02*
D03*
Y90000D02*
D03*
Y95000D02*
D03*
X85000Y130000D02*
D03*
Y100000D02*
D03*
Y95000D02*
D03*
Y90000D02*
D03*
Y85000D02*
D03*
Y80000D02*
D03*
Y75000D02*
D03*
Y70000D02*
D03*
Y65000D02*
D03*
Y120000D02*
D03*
Y115000D02*
D03*
Y110000D02*
D03*
Y105000D02*
D03*
Y125000D02*
D03*
X90000Y100000D02*
D03*
Y95000D02*
D03*
Y90000D02*
D03*
Y85000D02*
D03*
Y80000D02*
D03*
Y75000D02*
D03*
Y70000D02*
D03*
Y65000D02*
D03*
Y120000D02*
D03*
Y115000D02*
D03*
Y110000D02*
D03*
Y105000D02*
D03*
X80000Y135000D02*
D03*
X75000Y140000D02*
D03*
X80000Y160000D02*
D03*
Y155000D02*
D03*
Y150000D02*
D03*
Y145000D02*
D03*
Y140000D02*
D03*
X85000Y160000D02*
D03*
Y155000D02*
D03*
Y150000D02*
D03*
Y145000D02*
D03*
Y140000D02*
D03*
Y135000D02*
D03*
X90000Y125000D02*
D03*
X95000Y100000D02*
D03*
Y95000D02*
D03*
Y90000D02*
D03*
Y85000D02*
D03*
Y80000D02*
D03*
Y75000D02*
D03*
Y120000D02*
D03*
Y115000D02*
D03*
Y110000D02*
D03*
Y105000D02*
D03*
Y125000D02*
D03*
Y55000D02*
D03*
X80000Y65000D02*
D03*
Y70000D02*
D03*
X95000D02*
D03*
Y65000D02*
D03*
Y60000D02*
D03*
X90000Y130000D02*
D03*
Y160000D02*
D03*
Y155000D02*
D03*
Y150000D02*
D03*
Y145000D02*
D03*
Y140000D02*
D03*
Y135000D02*
D03*
X100000Y40000D02*
D03*
Y45000D02*
D03*
Y50000D02*
D03*
Y55000D02*
D03*
Y60000D02*
D03*
Y65000D02*
D03*
X120000Y105000D02*
D03*
Y95000D02*
D03*
Y85000D02*
D03*
Y80000D02*
D03*
Y100000D02*
D03*
X125000Y95000D02*
D03*
Y85000D02*
D03*
Y80000D02*
D03*
X100000Y100000D02*
D03*
Y70000D02*
D03*
Y85000D02*
D03*
Y95000D02*
D03*
Y90000D02*
D03*
Y80000D02*
D03*
Y75000D02*
D03*
X105000Y160000D02*
D03*
Y155000D02*
D03*
Y150000D02*
D03*
X110000Y160000D02*
D03*
Y155000D02*
D03*
X115000Y160000D02*
D03*
Y155000D02*
D03*
X120000Y160000D02*
D03*
Y155000D02*
D03*
Y150000D02*
D03*
X125000Y160000D02*
D03*
Y155000D02*
D03*
Y150000D02*
D03*
X105000Y95000D02*
D03*
Y90000D02*
D03*
Y85000D02*
D03*
Y80000D02*
D03*
Y40000D02*
D03*
Y50000D02*
D03*
Y70000D02*
D03*
Y75000D02*
D03*
Y65000D02*
D03*
Y60000D02*
D03*
Y55000D02*
D03*
Y45000D02*
D03*
Y110000D02*
D03*
Y115000D02*
D03*
X110000Y130000D02*
D03*
Y125000D02*
D03*
Y120000D02*
D03*
Y115000D02*
D03*
Y110000D02*
D03*
Y40000D02*
D03*
Y45000D02*
D03*
X115000Y85000D02*
D03*
Y45000D02*
D03*
Y40000D02*
D03*
X110000Y75000D02*
D03*
Y70000D02*
D03*
Y65000D02*
D03*
Y60000D02*
D03*
X115000Y70000D02*
D03*
Y75000D02*
D03*
Y65000D02*
D03*
Y60000D02*
D03*
X120000Y70000D02*
D03*
Y75000D02*
D03*
Y65000D02*
D03*
Y60000D02*
D03*
X125000Y70000D02*
D03*
Y75000D02*
D03*
X105000Y120000D02*
D03*
Y125000D02*
D03*
X115000Y150000D02*
D03*
Y145000D02*
D03*
Y125000D02*
D03*
Y120000D02*
D03*
Y115000D02*
D03*
Y110000D02*
D03*
Y105000D02*
D03*
X105000Y140000D02*
D03*
Y145000D02*
D03*
X110000Y140000D02*
D03*
X115000D02*
D03*
X120000Y145000D02*
D03*
Y140000D02*
D03*
X125000Y145000D02*
D03*
Y140000D02*
D03*
X100000Y105000D02*
D03*
Y120000D02*
D03*
Y110000D02*
D03*
Y115000D02*
D03*
Y125000D02*
D03*
Y130000D02*
D03*
Y135000D02*
D03*
Y140000D02*
D03*
Y145000D02*
D03*
X105000Y100000D02*
D03*
Y105000D02*
D03*
X110000Y150000D02*
D03*
Y145000D02*
D03*
Y105000D02*
D03*
Y100000D02*
D03*
X70000Y55000D02*
D03*
X65000D02*
D03*
Y60000D02*
D03*
X55000Y55000D02*
D03*
Y60000D02*
D03*
X50000Y55000D02*
D03*
Y60000D02*
D03*
X75000D02*
D03*
Y55000D02*
D03*
X80000Y60000D02*
D03*
Y55000D02*
D03*
X85000Y60000D02*
D03*
Y55000D02*
D03*
X90000Y60000D02*
D03*
Y55000D02*
D03*
X50000Y45000D02*
D03*
X70000D02*
D03*
X65000D02*
D03*
X60000D02*
D03*
X55000D02*
D03*
X75000D02*
D03*
X80000D02*
D03*
X85000D02*
D03*
X90000D02*
D03*
X95000D02*
D03*
X90000Y50000D02*
D03*
X75000D02*
D03*
X70000D02*
D03*
X65000D02*
D03*
X60000D02*
D03*
X55000D02*
D03*
X50000D02*
D03*
X80000D02*
D03*
X85000D02*
D03*
X95000D02*
D03*
Y40000D02*
D03*
X50000D02*
D03*
X70000D02*
D03*
X65000D02*
D03*
X60000D02*
D03*
X55000D02*
D03*
X75000D02*
D03*
X80000D02*
D03*
X85000D02*
D03*
X90000D02*
D03*
X160000Y65000D02*
D03*
X125000Y90000D02*
D03*
X160000Y55000D02*
D03*
X120000Y90000D02*
D03*
X115000D02*
D03*
X162500Y75000D02*
D03*
Y115000D02*
D03*
Y125000D02*
D03*
Y145000D02*
D03*
Y155000D02*
D03*
X37500D02*
D03*
Y145000D02*
D03*
Y135000D02*
D03*
Y125000D02*
D03*
Y45000D02*
D03*
Y115000D02*
D03*
X145000Y140000D02*
D03*
X162500Y135000D02*
D03*
Y105000D02*
D03*
Y95000D02*
D03*
Y85000D02*
D03*
Y65000D02*
D03*
Y55000D02*
D03*
Y45000D02*
D03*
X160000D02*
D03*
Y40000D02*
D03*
X70000Y60000D02*
D03*
M02*
