G04*
G04 #@! TF.GenerationSoftware,Altium Limited,Altium Designer,19.1.5 (86)*
G04*
G04 Layer_Color=128*
%FSLAX25Y25*%
%MOIN*%
G70*
G01*
G75*
%ADD10C,0.00500*%
%ADD11C,0.00200*%
D10*
X180000Y-40000D02*
X186000D01*
X188500Y-37500D01*
X282500D01*
Y-22500D01*
X279000Y-19000D02*
X282500Y-22500D01*
X279000Y-19000D02*
Y19000D01*
X282500Y22500D01*
Y37500D01*
X188500D02*
X282500D01*
X186000Y40000D02*
X188500Y37500D01*
X180000Y40000D02*
X186000D01*
X30000D02*
X180000D01*
X30000Y0D02*
Y40000D01*
Y-40000D02*
X180000D01*
X30000D02*
Y0D01*
D11*
X198400Y-20000D02*
X201600D01*
X200000Y-21600D02*
Y-18400D01*
X198400Y30000D02*
X201600D01*
X200000Y28400D02*
Y31600D01*
X198400Y20000D02*
X201600D01*
X200000Y18400D02*
Y21600D01*
X198400Y10000D02*
X201600D01*
X200000Y8400D02*
Y11600D01*
X198400Y0D02*
X201600D01*
X200000Y-1600D02*
Y1600D01*
X198400Y-10000D02*
X201600D01*
X200000Y-11600D02*
Y-8400D01*
X198400Y-30000D02*
X201600D01*
X200000Y-31600D02*
Y-28400D01*
X33000Y35000D02*
X37000D01*
X35000Y33000D02*
Y37000D01*
X43000Y35000D02*
X47000D01*
X45000Y33000D02*
Y37000D01*
X53000Y35000D02*
X57000D01*
X55000Y33000D02*
Y37000D01*
X63000Y35000D02*
X67000D01*
X65000Y33000D02*
Y37000D01*
X73000Y35000D02*
X77000D01*
X75000Y33000D02*
Y37000D01*
X83000Y35000D02*
X87000D01*
X85000Y33000D02*
Y37000D01*
X93000Y35000D02*
X97000D01*
X95000Y33000D02*
Y37000D01*
X103000Y35000D02*
X107000D01*
X105000Y33000D02*
Y37000D01*
X113000Y35000D02*
X117000D01*
X115000Y33000D02*
Y37000D01*
X123000Y35000D02*
X127000D01*
X125000Y33000D02*
Y37000D01*
X133000Y35000D02*
X137000D01*
X135000Y33000D02*
Y37000D01*
X143000Y35000D02*
X147000D01*
X145000Y33000D02*
Y37000D01*
X153000Y35000D02*
X157000D01*
X155000Y33000D02*
Y37000D01*
X163000Y35000D02*
X167000D01*
X165000Y33000D02*
Y37000D01*
X173000Y35000D02*
X177000D01*
X175000Y33000D02*
Y37000D01*
X33000Y-35000D02*
X37000D01*
X35000Y-37000D02*
Y-33000D01*
X43000Y-35000D02*
X47000D01*
X45000Y-37000D02*
Y-33000D01*
X53000Y-35000D02*
X57000D01*
X55000Y-37000D02*
Y-33000D01*
X63000Y-35000D02*
X67000D01*
X65000Y-37000D02*
Y-33000D01*
X73000Y-35000D02*
X77000D01*
X75000Y-37000D02*
Y-33000D01*
X83000Y-35000D02*
X87000D01*
X85000Y-37000D02*
Y-33000D01*
X93000Y-35000D02*
X97000D01*
X95000Y-37000D02*
Y-33000D01*
X103000Y-35000D02*
X107000D01*
X105000Y-37000D02*
Y-33000D01*
X113000Y-35000D02*
X117000D01*
X115000Y-37000D02*
Y-33000D01*
X123000Y-35000D02*
X127000D01*
X125000Y-37000D02*
Y-33000D01*
X133000Y-35000D02*
X137000D01*
X135000Y-37000D02*
Y-33000D01*
X143000Y-35000D02*
X147000D01*
X145000Y-37000D02*
Y-33000D01*
X153000Y-35000D02*
X157000D01*
X155000Y-37000D02*
Y-33000D01*
X163000Y-35000D02*
X167000D01*
X165000Y-37000D02*
Y-33000D01*
X173000Y-35000D02*
X177000D01*
X175000Y-37000D02*
Y-33000D01*
X52736Y11378D02*
X55295D01*
X54016Y10098D02*
Y12657D01*
X52736Y-11378D02*
X55295D01*
X54016Y-12657D02*
Y-10098D01*
X39055Y17028D02*
X41417D01*
X40236Y15846D02*
Y18209D01*
X54803Y-17028D02*
X57165D01*
X55984Y-18209D02*
Y-15846D01*
X54803Y17028D02*
X57165D01*
X55984Y15846D02*
Y18209D01*
X39055Y-17028D02*
X41417D01*
X40236Y-18209D02*
Y-15846D01*
X173000Y15000D02*
X177000D01*
X175000Y13000D02*
Y17000D01*
X173000Y5000D02*
X177000D01*
X175000Y3000D02*
Y7000D01*
X173000Y-5000D02*
X177000D01*
X175000Y-7000D02*
Y-3000D01*
X173000Y-15000D02*
X177000D01*
X175000Y-17000D02*
Y-13000D01*
X254341Y1318D02*
X255522D01*
X254932Y728D02*
Y1909D01*
X252117Y3877D02*
X253298D01*
X252708Y3287D02*
Y4468D01*
X252117Y-1241D02*
X253298D01*
X252708Y-1832D02*
Y-650D01*
X254341Y-3800D02*
X255522D01*
X254932Y-4391D02*
Y-3209D01*
X252117Y-6359D02*
X253298D01*
X252708Y-6950D02*
Y-5768D01*
X252117Y-16595D02*
X253298D01*
X252708Y-17186D02*
Y-16005D01*
X252117Y-11477D02*
X253298D01*
X252708Y-12068D02*
Y-10887D01*
X254341Y-19154D02*
X255522D01*
X254932Y-19745D02*
Y-18564D01*
X254341Y-14036D02*
X255522D01*
X254932Y-14627D02*
Y-13446D01*
X137423Y-5000D02*
X138604D01*
X138014Y-5591D02*
Y-4409D01*
X254341Y-8918D02*
X255522D01*
X254932Y-9509D02*
Y-8328D01*
X223119Y23390D02*
X224300D01*
X223710Y22800D02*
Y23981D01*
X223119Y28559D02*
X224300D01*
X223710Y27968D02*
Y29149D01*
X235296Y28559D02*
X236477D01*
X235886Y27968D02*
Y29149D01*
X235296Y9090D02*
X236477D01*
X235886Y8500D02*
Y9681D01*
X223119Y9090D02*
X224300D01*
X223710Y8500D02*
Y9681D01*
X223119Y13590D02*
X224300D01*
X223710Y13000D02*
Y14181D01*
X223119Y18290D02*
X224300D01*
X223710Y17700D02*
Y18881D01*
X223072Y-18500D02*
X224253D01*
X223662Y-19091D02*
Y-17910D01*
X223119Y-23510D02*
X224300D01*
X223710Y-24100D02*
Y-22919D01*
X223119Y-28010D02*
X224300D01*
X223710Y-28600D02*
Y-27419D01*
X236610Y14100D02*
X237790D01*
X237200Y13510D02*
Y14691D01*
X252117Y11554D02*
X253298D01*
X252708Y10964D02*
Y12145D01*
X254343Y16673D02*
X255524D01*
X254933Y16083D02*
Y17264D01*
X252117Y19231D02*
X253298D01*
X252708Y18641D02*
Y19822D01*
X210610Y-34500D02*
X211790D01*
X211200Y-35091D02*
Y-33909D01*
X212509Y-24000D02*
X213690D01*
X213100Y-24590D02*
Y-23410D01*
X216309Y-18000D02*
X217491D01*
X216900Y-18590D02*
Y-17410D01*
X222510Y-34500D02*
X223691D01*
X223100Y-35091D02*
Y-33909D01*
X234409Y-34500D02*
X235591D01*
X235000Y-35091D02*
Y-33909D01*
X246309Y-34500D02*
X247491D01*
X246900Y-35091D02*
Y-33909D01*
X258209Y-34500D02*
X259390D01*
X258800Y-35091D02*
Y-33909D01*
X270110Y-34500D02*
X271290D01*
X270700Y-35091D02*
Y-33909D01*
X277609Y-34500D02*
X278790D01*
X278200Y-35091D02*
Y-33909D01*
X277609Y-22600D02*
X278790D01*
X278200Y-23190D02*
Y-22009D01*
X275110Y-13700D02*
X276290D01*
X275700Y-14290D02*
Y-13110D01*
X275110Y-1800D02*
X276290D01*
X275700Y-2391D02*
Y-1209D01*
X275110Y10100D02*
X276290D01*
X275700Y9509D02*
Y10691D01*
X275110Y22000D02*
X276290D01*
X275700Y21409D02*
Y22591D01*
X278909Y34500D02*
X280090D01*
X279500Y33909D02*
Y35091D01*
X267009Y34500D02*
X268191D01*
X267600Y33909D02*
Y35091D01*
X255110Y34500D02*
X256291D01*
X255700Y33909D02*
Y35091D01*
X243210Y34500D02*
X244391D01*
X243800Y33909D02*
Y35091D01*
X231310Y34500D02*
X232490D01*
X231900Y33909D02*
Y35091D01*
X219409Y34500D02*
X220590D01*
X220000Y33909D02*
Y35091D01*
X207509Y34500D02*
X208691D01*
X208100Y33909D02*
Y35091D01*
X213409Y12600D02*
X214591D01*
X214000Y12009D02*
Y13191D01*
X212809Y21500D02*
X213991D01*
X213400Y20910D02*
Y22091D01*
X207509Y22600D02*
X208691D01*
X208100Y22009D02*
Y23190D01*
X207509Y10700D02*
X208691D01*
X208100Y10109D02*
Y11291D01*
X144409Y5000D02*
X145591D01*
X145000Y4409D02*
Y5591D01*
X124659Y-1250D02*
X125841D01*
X125250Y-1841D02*
Y-659D01*
X160409Y-7500D02*
X161591D01*
X161000Y-8091D02*
Y-6909D01*
X86910Y-12500D02*
X88090D01*
X87500Y-13091D02*
Y-11909D01*
X102909Y-17500D02*
X104091D01*
X103500Y-18090D02*
Y-16909D01*
X61910Y17500D02*
X63090D01*
X62500Y16909D02*
Y18090D01*
X61910Y-20000D02*
X63090D01*
X62500Y-20591D02*
Y-19410D01*
X130409Y-11000D02*
X131591D01*
X131000Y-11591D02*
Y-10409D01*
X109409Y0D02*
X110591D01*
X110000Y-591D02*
Y591D01*
X76910Y-20000D02*
X78091D01*
X77500Y-20591D02*
Y-19410D01*
X169409Y20000D02*
X170591D01*
X170000Y19410D02*
Y20591D01*
X154409Y20000D02*
X155591D01*
X155000Y19410D02*
Y20591D01*
X169409Y10000D02*
X170591D01*
X170000Y9409D02*
Y10591D01*
X154409Y10000D02*
X155591D01*
X155000Y9409D02*
Y10591D01*
X46909Y-7500D02*
X48091D01*
X47500Y-8091D02*
Y-6909D01*
X46909Y0D02*
X48091D01*
X47500Y-591D02*
Y591D01*
X46909Y7500D02*
X48091D01*
X47500Y6909D02*
Y8091D01*
X39409Y-7500D02*
X40591D01*
X40000Y-8091D02*
Y-6909D01*
X39409Y0D02*
X40591D01*
X40000Y-591D02*
Y591D01*
X39409Y7500D02*
X40591D01*
X40000Y6909D02*
Y8091D01*
X129409Y-27500D02*
X130591D01*
X130000Y-28091D02*
Y-26909D01*
X119409Y-27500D02*
X120591D01*
X120000Y-28091D02*
Y-26909D01*
X167909Y-10000D02*
X169091D01*
X168500Y-10591D02*
Y-9409D01*
X154409Y-10000D02*
X155591D01*
X155000Y-10591D02*
Y-9409D01*
X141409Y-10000D02*
X142591D01*
X142000Y-10591D02*
Y-9409D01*
X139409Y-24500D02*
X140591D01*
X140000Y-25091D02*
Y-23910D01*
X167909Y-18500D02*
X169091D01*
X168500Y-19091D02*
Y-17910D01*
X154409Y-23000D02*
X155591D01*
X155000Y-23591D02*
Y-22410D01*
X81910Y-2000D02*
X83091D01*
X82500Y-2591D02*
Y-1409D01*
X78409Y2000D02*
X79590D01*
X79000Y1409D02*
Y2591D01*
X80409Y4000D02*
X81590D01*
X81000Y3409D02*
Y4591D01*
X122409Y1000D02*
X123591D01*
X123000Y410D02*
Y1591D01*
X144909Y-15000D02*
X146091D01*
X145500Y-15590D02*
Y-14410D01*
X96409Y500D02*
X97591D01*
X97000Y-91D02*
Y1091D01*
X110409Y14500D02*
X111591D01*
X111000Y13909D02*
Y15091D01*
X129409Y26000D02*
X130591D01*
X130000Y25409D02*
Y26591D01*
X99910Y10500D02*
X101091D01*
X100500Y9909D02*
Y11091D01*
X147909Y-15000D02*
X149091D01*
X148500Y-15590D02*
Y-14410D01*
X107909Y17000D02*
X109091D01*
X108500Y16409D02*
Y17591D01*
X96409Y-2657D02*
X97591D01*
X97000Y-3248D02*
Y-2067D01*
X107909Y-5000D02*
X109091D01*
X108500Y-5591D02*
Y-4409D01*
X107909Y-16000D02*
X109091D01*
X108500Y-16590D02*
Y-15409D01*
X73909Y-10500D02*
X75090D01*
X74500Y-11091D02*
Y-9909D01*
X114409Y8000D02*
X115591D01*
X115000Y7409D02*
Y8591D01*
X127731Y14178D02*
X128912D01*
X128322Y13588D02*
Y14769D01*
X68410Y-9500D02*
X69591D01*
X69000Y-10091D02*
Y-8909D01*
X83410Y17500D02*
X84591D01*
X84000Y16909D02*
Y18090D01*
X86910Y17500D02*
X88090D01*
X87500Y16909D02*
Y18090D01*
X90409Y17500D02*
X91590D01*
X91000Y16909D02*
Y18090D01*
X89410Y-15000D02*
X90591D01*
X90000Y-15590D02*
Y-14410D01*
X128409Y0D02*
X129591D01*
X129000Y-591D02*
Y591D01*
X123409Y-5000D02*
X124591D01*
X124000Y-5591D02*
Y-4409D01*
X118409Y0D02*
X119591D01*
X119000Y-591D02*
Y591D01*
X123409Y5000D02*
X124591D01*
X124000Y4409D02*
Y5591D01*
X113909Y22000D02*
X115091D01*
X114500Y21409D02*
Y22591D01*
X164409Y-5000D02*
X165591D01*
X165000Y-5591D02*
Y-4409D01*
M02*
