M48
;Layer_Color=9474304
;FILE_FORMAT=2:5
INCH,LZ
;TYPE=PLATED
T1F00S00C0.01181
T3F00S00C0.02559
T4F00S00C0.03200
T5F00S00C0.04000
%
T01
X004Y-00075
X00475
Y0
Y00075
X004
Y0
X0069Y-00095
X00745Y-00105
X00775Y-002
X00625
X00875Y-00125
X009Y-0015
X01035Y-00175
X01085Y-0016
Y-0005
X011Y0
X0119
X0123Y0001
X012525Y-000125
X0129Y0
X0124Y-0005
Y0005
X0115Y0008
X0111Y00145
X01085Y0017
X01145Y0022
X013Y0026
X0128322Y0014178
X0145Y0005
X0138014Y-0005
X0142Y-001
X01455Y-0015
X01485
X014Y-00245
X013Y-00275
X012
X0131Y-0011
X0097Y-0002657
Y00005
X01005Y00105
X0091Y00175
X00875
X0084
X0081Y0004
X0079Y0002
X00825Y-0002
X00625Y00175
X0155Y002
Y001
X017
Y002
X0165Y-0005
X0161Y-00075
X0155Y-001
Y-0023
X01685Y-00185
Y-001
X02169Y-0018
X0223662Y-00185
X022371Y-002351
Y-002801
X02231Y-00345
X02112
X02131Y-0024
X0235Y-00345
X02469
X02588
X02707Y-00345
X02782
Y-00226
X02757Y-00137
Y-00018
Y00101
Y0022
X02795Y00345
X02676Y00345
X02557
X02438
X02319
X0235886Y0028559
X022371
X022371Y002339
Y001829
Y001359
Y000909
X0235886
X02372Y00141
X0252708Y0011554
X0254933Y0016673
X0252708Y0019231
X0252708Y0003877
X0254932Y0001318
X0252708Y-0001241
X0254932Y-00038
X0252708Y-0006359
X0254932Y-0008918
X0252708Y-0011477
X0254932Y-0014036
X0252708Y-0016595
X0254932Y-0019154
X0214Y00126
X02081Y00107
Y00226
X02134Y00215
X02081Y00345
X022
T03
X0054016Y-0011378
Y0011378
T04
X02Y-003
Y-002
Y-001
Y0
Y001
Y002
Y003
T05
X0035Y-0035
X0045
X0055
X0065
X0075
X0085
X0095
X0105
X0115
X0125
X0135
X0145
Y0035
X0135
X0125
X0115
X0105
X0095
X0085
X0075
X0065
X0055
X0045
X0035
X0155
X0165
X0175
Y0015
Y0005
Y-0005
Y-0015
Y-0035
X0165
X0155
M30
