G04*
G04 #@! TF.GenerationSoftware,Altium Limited,Altium Designer,19.1.5 (86)*
G04*
G04 Layer_Color=65535*
%FSLAX25Y25*%
%MOIN*%
G70*
G01*
G75*
%ADD10C,0.00984*%
%ADD11C,0.00500*%
%ADD12C,0.00787*%
%ADD13C,0.01000*%
%ADD14C,0.01200*%
%ADD15C,0.00800*%
%ADD16C,0.00394*%
%ADD17C,0.00600*%
%ADD18R,0.00787X0.03937*%
G36*
X76217Y-8524D02*
X76709Y-10000D01*
X76118D01*
X74937Y-8819D01*
Y-8032D01*
X76217Y-8524D01*
D02*
G37*
G36*
X88032Y-5898D02*
X87638D01*
X85472Y-8063D01*
X87638D01*
X88032Y-7669D01*
Y-5898D01*
D02*
G37*
G36*
X95906Y4272D02*
Y2500D01*
X95512D01*
X94331Y3681D01*
Y4272D01*
X95906D01*
D02*
G37*
G36*
X258700Y19250D02*
X255781D01*
X255789Y19246D01*
X255809Y19226D01*
X255838Y19197D01*
X255879Y19156D01*
X255924Y19107D01*
X255978Y19045D01*
X256035Y18976D01*
X256097Y18898D01*
Y18894D01*
X256105Y18890D01*
X256113Y18877D01*
X256121Y18861D01*
X256150Y18820D01*
X256187Y18767D01*
X256224Y18705D01*
X256265Y18639D01*
X256301Y18570D01*
X256334Y18500D01*
X255896D01*
X255891Y18504D01*
X255887Y18512D01*
X255879Y18529D01*
X255863Y18553D01*
X255846Y18578D01*
X255826Y18611D01*
X255777Y18685D01*
X255711Y18767D01*
X255637Y18861D01*
X255555Y18955D01*
X255461Y19045D01*
X255457Y19049D01*
X255449Y19058D01*
X255436Y19070D01*
X255416Y19082D01*
X255391Y19103D01*
X255367Y19127D01*
X255297Y19176D01*
X255223Y19230D01*
X255137Y19287D01*
X255047Y19336D01*
X254953Y19377D01*
Y19623D01*
X258700D01*
Y19250D01*
D02*
G37*
G36*
X257585Y-17612D02*
X257626Y-17616D01*
X257667Y-17620D01*
X257716Y-17625D01*
X257819Y-17641D01*
X257933Y-17666D01*
X258052Y-17703D01*
X258171Y-17748D01*
X258175D01*
X258183Y-17752D01*
X258200Y-17760D01*
X258220Y-17772D01*
X258245Y-17785D01*
X258274Y-17801D01*
X258339Y-17842D01*
X258413Y-17891D01*
X258487Y-17953D01*
X258557Y-18018D01*
X258618Y-18096D01*
Y-18100D01*
X258622Y-18104D01*
X258630Y-18117D01*
X258639Y-18133D01*
X258663Y-18178D01*
X258688Y-18236D01*
X258716Y-18305D01*
X258737Y-18383D01*
X258753Y-18473D01*
X258762Y-18568D01*
Y-18588D01*
X258757Y-18613D01*
X258753Y-18645D01*
X258749Y-18682D01*
X258741Y-18732D01*
X258729Y-18781D01*
X258708Y-18838D01*
X258688Y-18896D01*
X258659Y-18957D01*
X258626Y-19019D01*
X258585Y-19084D01*
X258540Y-19150D01*
X258483Y-19211D01*
X258421Y-19273D01*
X258347Y-19330D01*
X258343Y-19334D01*
X258327Y-19342D01*
X258302Y-19359D01*
X258265Y-19375D01*
X258220Y-19400D01*
X258163Y-19424D01*
X258097Y-19453D01*
X258015Y-19478D01*
X257925Y-19507D01*
X257823Y-19535D01*
X257708Y-19560D01*
X257581Y-19584D01*
X257445Y-19601D01*
X257294Y-19617D01*
X257130Y-19625D01*
X256953Y-19629D01*
X256949D01*
X256941D01*
X256925D01*
X256904D01*
X256880D01*
X256851Y-19625D01*
X256818D01*
X256777D01*
X256691Y-19621D01*
X256589Y-19613D01*
X256478Y-19605D01*
X256355Y-19593D01*
X256232Y-19576D01*
X256105Y-19556D01*
X255978Y-19531D01*
X255851Y-19502D01*
X255728Y-19466D01*
X255613Y-19424D01*
X255510Y-19379D01*
X255416Y-19326D01*
X255412Y-19322D01*
X255395Y-19314D01*
X255375Y-19293D01*
X255342Y-19269D01*
X255309Y-19240D01*
X255268Y-19203D01*
X255227Y-19162D01*
X255182Y-19113D01*
X255141Y-19056D01*
X255100Y-18998D01*
X255059Y-18933D01*
X255026Y-18863D01*
X254994Y-18789D01*
X254973Y-18707D01*
X254957Y-18625D01*
X254953Y-18535D01*
Y-18502D01*
X254957Y-18477D01*
X254961Y-18449D01*
X254965Y-18412D01*
X254981Y-18334D01*
X255010Y-18244D01*
X255030Y-18194D01*
X255051Y-18145D01*
X255080Y-18096D01*
X255113Y-18047D01*
X255149Y-18002D01*
X255190Y-17957D01*
X255194Y-17953D01*
X255203Y-17944D01*
X255215Y-17936D01*
X255236Y-17920D01*
X255260Y-17899D01*
X255289Y-17879D01*
X255326Y-17854D01*
X255367Y-17830D01*
X255412Y-17805D01*
X255461Y-17780D01*
X255518Y-17756D01*
X255580Y-17735D01*
X255650Y-17711D01*
X255719Y-17694D01*
X255797Y-17678D01*
X255879Y-17666D01*
X255916Y-18039D01*
X255912D01*
X255904Y-18043D01*
X255887D01*
X255871Y-18047D01*
X255822Y-18059D01*
X255760Y-18080D01*
X255691Y-18100D01*
X255625Y-18129D01*
X255563Y-18162D01*
X255510Y-18199D01*
X255506D01*
X255502Y-18207D01*
X255482Y-18223D01*
X255453Y-18256D01*
X255420Y-18297D01*
X255387Y-18350D01*
X255359Y-18412D01*
X255338Y-18482D01*
X255330Y-18518D01*
Y-18572D01*
X255334Y-18592D01*
X255338Y-18613D01*
X255342Y-18641D01*
X255350Y-18674D01*
X255363Y-18711D01*
X255379Y-18748D01*
X255404Y-18789D01*
X255428Y-18830D01*
X255461Y-18875D01*
X255502Y-18920D01*
X255551Y-18961D01*
X255605Y-19006D01*
X255666Y-19047D01*
X255740Y-19084D01*
X255744D01*
X255756Y-19092D01*
X255777Y-19101D01*
X255805Y-19109D01*
X255842Y-19125D01*
X255887Y-19138D01*
X255941Y-19154D01*
X255998Y-19170D01*
X256068Y-19183D01*
X256146Y-19199D01*
X256232Y-19215D01*
X256326Y-19228D01*
X256424Y-19240D01*
X256535Y-19248D01*
X256650Y-19252D01*
X256773Y-19256D01*
X256765Y-19252D01*
X256752Y-19244D01*
X256736Y-19232D01*
X256691Y-19203D01*
X256638Y-19166D01*
X256576Y-19121D01*
X256515Y-19064D01*
X256457Y-19002D01*
X256404Y-18933D01*
Y-18928D01*
X256400Y-18924D01*
X256392Y-18912D01*
X256383Y-18900D01*
X256363Y-18859D01*
X256338Y-18805D01*
X256318Y-18744D01*
X256297Y-18674D01*
X256281Y-18596D01*
X256277Y-18514D01*
Y-18498D01*
X256281Y-18477D01*
Y-18453D01*
X256285Y-18424D01*
X256293Y-18387D01*
X256306Y-18346D01*
X256318Y-18301D01*
X256334Y-18252D01*
X256359Y-18203D01*
X256383Y-18149D01*
X256416Y-18096D01*
X256453Y-18043D01*
X256498Y-17989D01*
X256552Y-17936D01*
X256609Y-17883D01*
X256613Y-17879D01*
X256625Y-17871D01*
X256642Y-17858D01*
X256670Y-17838D01*
X256703Y-17817D01*
X256740Y-17797D01*
X256789Y-17772D01*
X256843Y-17743D01*
X256900Y-17719D01*
X256970Y-17694D01*
X257039Y-17674D01*
X257117Y-17649D01*
X257204Y-17633D01*
X257294Y-17620D01*
X257388Y-17612D01*
X257490Y-17608D01*
X257495D01*
X257507D01*
X257527D01*
X257552D01*
X257585Y-17612D01*
D02*
G37*
G36*
X258700Y-20950D02*
X255781D01*
X255789Y-20954D01*
X255809Y-20974D01*
X255838Y-21003D01*
X255879Y-21044D01*
X255924Y-21093D01*
X255978Y-21155D01*
X256035Y-21224D01*
X256097Y-21302D01*
Y-21306D01*
X256105Y-21310D01*
X256113Y-21323D01*
X256121Y-21339D01*
X256150Y-21380D01*
X256187Y-21433D01*
X256224Y-21495D01*
X256265Y-21561D01*
X256301Y-21630D01*
X256334Y-21700D01*
X255896D01*
X255891Y-21696D01*
X255887Y-21688D01*
X255879Y-21671D01*
X255863Y-21647D01*
X255846Y-21622D01*
X255826Y-21589D01*
X255777Y-21516D01*
X255711Y-21433D01*
X255637Y-21339D01*
X255555Y-21245D01*
X255461Y-21155D01*
X255457Y-21151D01*
X255449Y-21142D01*
X255436Y-21130D01*
X255416Y-21118D01*
X255391Y-21097D01*
X255367Y-21073D01*
X255297Y-21023D01*
X255223Y-20970D01*
X255137Y-20913D01*
X255047Y-20864D01*
X254953Y-20823D01*
Y-20577D01*
X258700D01*
Y-20950D01*
D02*
G37*
G36*
X274424Y35224D02*
X274428D01*
X274432D01*
X274457Y35216D01*
X274494Y35208D01*
X274535Y35195D01*
X274575Y35175D01*
X274612Y35155D01*
X274637Y35130D01*
X274641Y35118D01*
X274645Y35101D01*
Y35097D01*
X274641Y35089D01*
X274637Y35077D01*
X274629Y35056D01*
X274608Y35032D01*
X274584Y35003D01*
X274551Y34966D01*
X274502Y34921D01*
X274498Y34917D01*
X274489Y34909D01*
X274473Y34892D01*
X274448Y34872D01*
X274424Y34843D01*
X274387Y34802D01*
X274350Y34757D01*
X274305Y34703D01*
X274256Y34642D01*
X274202Y34568D01*
X274141Y34486D01*
X274079Y34396D01*
X274014Y34293D01*
X273940Y34179D01*
X273866Y34056D01*
X273788Y33920D01*
X273727Y33961D01*
Y33970D01*
X273735Y33990D01*
X273743Y34023D01*
X273756Y34064D01*
X273768Y34117D01*
X273788Y34179D01*
X273805Y34248D01*
X273829Y34318D01*
X273879Y34474D01*
X273932Y34638D01*
X273960Y34716D01*
X273989Y34790D01*
X274018Y34863D01*
X274047Y34929D01*
Y34933D01*
X274055Y34945D01*
X274063Y34962D01*
X274075Y34982D01*
X274108Y35032D01*
X274149Y35093D01*
X274206Y35150D01*
X274235Y35175D01*
X274268Y35195D01*
X274305Y35212D01*
X274342Y35224D01*
X274383Y35228D01*
X274424Y35224D01*
D02*
G37*
G36*
X276392Y35487D02*
X276396Y35474D01*
X276404Y35458D01*
X276408Y35437D01*
X276420Y35409D01*
X276433Y35376D01*
X276462Y35310D01*
X276502Y35236D01*
X276548Y35171D01*
X276572Y35142D01*
X276601Y35118D01*
X276630Y35097D01*
X276658Y35081D01*
Y35077D01*
X276654Y35064D01*
X276650Y35044D01*
X276642Y35015D01*
X276634Y34978D01*
X276621Y34937D01*
X276609Y34892D01*
X276593Y34839D01*
X276576Y34781D01*
X276556Y34724D01*
X276511Y34593D01*
X276457Y34449D01*
X276392Y34306D01*
X276388Y34302D01*
X276384Y34289D01*
X276371Y34269D01*
X276359Y34240D01*
X276339Y34207D01*
X276318Y34166D01*
X276293Y34121D01*
X276261Y34072D01*
X276191Y33961D01*
X276109Y33843D01*
X276015Y33720D01*
X275908Y33597D01*
X275912Y33592D01*
X275916Y33584D01*
X275928Y33572D01*
X275945Y33551D01*
X275961Y33527D01*
X275982Y33498D01*
X276010Y33461D01*
X276039Y33416D01*
X276068Y33367D01*
X276101Y33314D01*
X276138Y33252D01*
X276174Y33182D01*
X276216Y33109D01*
X276256Y33027D01*
X276297Y32936D01*
X276343Y32842D01*
X276347Y32838D01*
X276351Y32818D01*
X276363Y32789D01*
X276379Y32748D01*
X276400Y32695D01*
X276425Y32637D01*
X276449Y32563D01*
X276474Y32485D01*
X276502Y32395D01*
X276531Y32297D01*
X276560Y32190D01*
X276593Y32079D01*
X276621Y31956D01*
X276650Y31829D01*
X276675Y31698D01*
X276699Y31559D01*
X276617Y31538D01*
Y31547D01*
X276613Y31563D01*
X276605Y31596D01*
X276593Y31641D01*
X276580Y31690D01*
X276564Y31751D01*
X276548Y31821D01*
X276523Y31899D01*
X276498Y31981D01*
X276470Y32067D01*
X276441Y32162D01*
X276404Y32256D01*
X276330Y32449D01*
X276240Y32645D01*
X276236Y32649D01*
X276228Y32670D01*
X276216Y32695D01*
X276195Y32731D01*
X276174Y32772D01*
X276146Y32826D01*
X276117Y32879D01*
X276080Y32941D01*
X276002Y33068D01*
X275916Y33199D01*
X275822Y33322D01*
X275773Y33379D01*
X275724Y33432D01*
X275719Y33428D01*
X275707Y33420D01*
X275687Y33408D01*
X275658Y33387D01*
X275625Y33367D01*
X275580Y33338D01*
X275535Y33310D01*
X275478Y33277D01*
X275420Y33244D01*
X275355Y33207D01*
X275285Y33170D01*
X275207Y33133D01*
X275129Y33092D01*
X275043Y33055D01*
X274867Y32986D01*
X274871Y32982D01*
X274891Y32965D01*
X274920Y32941D01*
X274957Y32908D01*
X275006Y32863D01*
X275059Y32809D01*
X275121Y32752D01*
X275186Y32682D01*
X275256Y32608D01*
X275334Y32526D01*
X275408Y32440D01*
X275486Y32346D01*
X275564Y32248D01*
X275641Y32145D01*
X275715Y32034D01*
X275785Y31924D01*
X275724Y31883D01*
X275719Y31887D01*
X275711Y31899D01*
X275695Y31920D01*
X275670Y31944D01*
X275641Y31981D01*
X275609Y32018D01*
X275568Y32063D01*
X275523Y32112D01*
X275473Y32166D01*
X275416Y32223D01*
X275355Y32280D01*
X275289Y32346D01*
X275219Y32408D01*
X275145Y32473D01*
X275063Y32543D01*
X274981Y32608D01*
X274977Y32612D01*
X274961Y32625D01*
X274936Y32641D01*
X274903Y32666D01*
X274863Y32699D01*
X274813Y32731D01*
X274756Y32772D01*
X274694Y32813D01*
X274629Y32854D01*
X274559Y32899D01*
X274403Y32994D01*
X274243Y33084D01*
X274075Y33166D01*
X274317Y33535D01*
X274399Y33351D01*
X274645Y33166D01*
Y34125D01*
X274461Y34289D01*
X274785Y34613D01*
X274867Y34408D01*
X274871Y34404D01*
X274891Y34392D01*
X274920Y34376D01*
X274957Y34351D01*
X275006Y34322D01*
X275059Y34289D01*
X275121Y34248D01*
X275186Y34207D01*
X275326Y34105D01*
X275478Y33998D01*
X275625Y33879D01*
X275699Y33818D01*
X275764Y33756D01*
X275769Y33760D01*
X275777Y33769D01*
X275789Y33785D01*
X275805Y33810D01*
X275826Y33834D01*
X275851Y33871D01*
X275875Y33908D01*
X275904Y33953D01*
X275937Y34002D01*
X275965Y34056D01*
X275998Y34117D01*
X276031Y34179D01*
X276064Y34244D01*
X276093Y34318D01*
X276150Y34470D01*
Y34474D01*
X276154Y34490D01*
X276162Y34515D01*
X276170Y34548D01*
X276183Y34589D01*
X276195Y34638D01*
X276207Y34695D01*
X276224Y34761D01*
X276236Y34831D01*
X276248Y34909D01*
X276265Y34991D01*
X276277Y35081D01*
X276289Y35179D01*
X276297Y35278D01*
X276306Y35384D01*
X276310Y35491D01*
X276392D01*
Y35487D01*
D02*
G37*
G36*
X273645Y32945D02*
X273891Y33228D01*
X273952Y33006D01*
X273960Y32998D01*
X273977Y32977D01*
X274006Y32945D01*
X274047Y32904D01*
X274092Y32846D01*
X274149Y32785D01*
X274211Y32711D01*
X274276Y32633D01*
X274346Y32547D01*
X274416Y32453D01*
X274489Y32358D01*
X274563Y32256D01*
X274703Y32051D01*
X274768Y31944D01*
X274830Y31842D01*
X274768Y31801D01*
Y31805D01*
X274760Y31809D01*
X274744Y31833D01*
X274711Y31870D01*
X274666Y31924D01*
X274617Y31985D01*
X274555Y32055D01*
X274485Y32133D01*
X274407Y32215D01*
X274321Y32301D01*
X274235Y32387D01*
X274141Y32473D01*
X274047Y32559D01*
X273948Y32641D01*
X273846Y32715D01*
X273743Y32785D01*
X273645Y32842D01*
Y32612D01*
X273649Y32584D01*
X273653Y32518D01*
X273661Y32444D01*
X273669Y32362D01*
X273686Y32276D01*
X273706Y32190D01*
X273526Y32006D01*
Y33432D01*
X272849D01*
Y32977D01*
X272853Y32953D01*
X272858Y32887D01*
X272866Y32809D01*
X272874Y32727D01*
X272890Y32641D01*
X272911Y32555D01*
X272730Y32375D01*
Y33432D01*
X272403D01*
X272398D01*
X272390D01*
X272374D01*
X272353D01*
X272325D01*
X272296D01*
X272226Y33428D01*
X272148D01*
X272070Y33424D01*
X271988Y33420D01*
X271915Y33412D01*
X272140Y33879D01*
X272284Y33699D01*
X272730D01*
Y34330D01*
X272464Y34593D01*
X272849Y34982D01*
Y33699D01*
X273526D01*
Y34695D01*
X273239Y34982D01*
X273645Y35388D01*
Y32945D01*
D02*
G37*
G36*
X272878Y32100D02*
X272907Y32092D01*
X272944Y32079D01*
X272993Y32067D01*
X273050Y32047D01*
X273116Y32026D01*
X273190Y32006D01*
X273268Y31981D01*
X273354Y31956D01*
X273444Y31928D01*
X273538Y31899D01*
X273739Y31842D01*
X273948Y31780D01*
X274161Y31719D01*
X274371Y31657D01*
X274571Y31600D01*
X274666Y31575D01*
X274760Y31551D01*
X274846Y31526D01*
X274928Y31506D01*
X275002Y31485D01*
X275072Y31473D01*
X275129Y31456D01*
X275182Y31448D01*
X275223Y31440D01*
X275256Y31436D01*
X275260D01*
X275268D01*
X275285D01*
X275305Y31432D01*
X275334D01*
X275363Y31428D01*
X275400D01*
X275441D01*
X275535Y31424D01*
X275641Y31419D01*
X275760Y31415D01*
X275887D01*
X275892D01*
X275904D01*
X275920D01*
X275945Y31411D01*
X275998Y31407D01*
X276064Y31395D01*
X276125Y31378D01*
X276150Y31366D01*
X276174Y31350D01*
X276191Y31333D01*
X276203Y31313D01*
X276211Y31292D01*
X276207Y31264D01*
Y31255D01*
X276199Y31239D01*
X276191Y31214D01*
X276179Y31182D01*
X276142Y31108D01*
X276121Y31079D01*
X276093Y31050D01*
X276088Y31046D01*
X276080Y31042D01*
X276064Y31030D01*
X276039Y31022D01*
X275990Y30997D01*
X275957Y30993D01*
X275928Y30989D01*
X275924D01*
X275912D01*
X275896Y30993D01*
X275867Y30997D01*
X275834Y31005D01*
X275789Y31014D01*
X275740Y31030D01*
X275682Y31050D01*
X275678D01*
X275670Y31054D01*
X275658Y31059D01*
X275637Y31063D01*
X275592Y31075D01*
X275531Y31091D01*
X275461Y31108D01*
X275387Y31120D01*
X275318Y31128D01*
X275248Y31132D01*
X275244D01*
X275240D01*
X275219Y31124D01*
X275182Y31112D01*
X275162Y31100D01*
X275137Y31083D01*
X275113Y31059D01*
X275088Y31034D01*
X275059Y31001D01*
X275031Y30960D01*
X274998Y30911D01*
X274969Y30858D01*
X274936Y30796D01*
X274908Y30722D01*
X274830Y30743D01*
Y30747D01*
X274834Y30751D01*
Y30763D01*
X274838Y30780D01*
X274846Y30825D01*
X274858Y30878D01*
X274871Y30940D01*
X274879Y31005D01*
X274883Y31075D01*
X274887Y31141D01*
Y31145D01*
X274883Y31149D01*
X274875Y31161D01*
X274854Y31177D01*
X274826Y31202D01*
X274801Y31218D01*
X274776Y31231D01*
X274748Y31251D01*
X274715Y31272D01*
X274674Y31292D01*
X274629Y31317D01*
X274575Y31341D01*
X274518Y31370D01*
X274452Y31399D01*
X274379Y31432D01*
X274301Y31469D01*
X274215Y31506D01*
X274116Y31547D01*
X274010Y31587D01*
X273899Y31633D01*
X273776Y31678D01*
X273641Y31731D01*
X273497Y31784D01*
X273341Y31842D01*
X273177Y31899D01*
X273001Y31961D01*
X272813Y32026D01*
X272853Y32108D01*
X272858D01*
X272878Y32100D01*
D02*
G37*
G36*
X272972Y31563D02*
X273009Y31559D01*
X273054Y31555D01*
X273104Y31542D01*
X273149Y31530D01*
X273190Y31510D01*
X273218Y31485D01*
X273222Y31481D01*
X273227Y31473D01*
X273239Y31460D01*
X273247Y31444D01*
X273272Y31407D01*
X273276Y31391D01*
X273280Y31374D01*
Y31370D01*
X273276Y31362D01*
X273268Y31346D01*
X273255Y31325D01*
X273231Y31305D01*
X273194Y31280D01*
X273169Y31268D01*
X273141Y31255D01*
X273112Y31243D01*
X273075Y31231D01*
X273071D01*
X273063Y31227D01*
X273046Y31223D01*
X273026Y31214D01*
X272997Y31202D01*
X272964Y31190D01*
X272927Y31173D01*
X272882Y31153D01*
X272833Y31128D01*
X272784Y31100D01*
X272726Y31071D01*
X272665Y31034D01*
X272599Y30993D01*
X272534Y30948D01*
X272460Y30899D01*
X272386Y30845D01*
X272325Y30886D01*
X272329Y30895D01*
X272341Y30915D01*
X272361Y30952D01*
X272390Y30993D01*
X272419Y31046D01*
X272460Y31104D01*
X272501Y31169D01*
X272546Y31231D01*
X272595Y31296D01*
X272644Y31358D01*
X272694Y31415D01*
X272743Y31464D01*
X272796Y31510D01*
X272845Y31542D01*
X272890Y31563D01*
X272915Y31567D01*
X272936D01*
X272940D01*
X272944D01*
X272972Y31563D01*
D02*
G37*
G36*
X276170Y29685D02*
X275650D01*
Y30112D01*
X276170D01*
Y29685D01*
D02*
G37*
G36*
X273985D02*
X273464D01*
Y30112D01*
X273985D01*
Y29685D01*
D02*
G37*
G36*
X274592Y28037D02*
X276170D01*
Y27631D01*
X274592D01*
X272435Y26450D01*
Y26942D01*
X273563Y27545D01*
X273567Y27549D01*
X273579Y27553D01*
X273596Y27561D01*
X273620Y27574D01*
X273649Y27590D01*
X273686Y27606D01*
X273723Y27627D01*
X273768Y27652D01*
X273866Y27697D01*
X273973Y27750D01*
X274083Y27803D01*
X274194Y27856D01*
X274190D01*
X274182Y27865D01*
X274166Y27869D01*
X274141Y27881D01*
X274116Y27893D01*
X274083Y27910D01*
X274047Y27930D01*
X274002Y27951D01*
X273956Y27975D01*
X273903Y28000D01*
X273792Y28057D01*
X273669Y28123D01*
X273534Y28193D01*
X272435Y28791D01*
Y29259D01*
X274592Y28037D01*
D02*
G37*
G36*
X275178Y26208D02*
X275211Y26204D01*
X275252Y26200D01*
X275293Y26196D01*
X275383Y26180D01*
X275486Y26155D01*
X275588Y26118D01*
X275687Y26073D01*
X275691D01*
X275699Y26065D01*
X275711Y26061D01*
X275728Y26048D01*
X275773Y26016D01*
X275826Y25975D01*
X275887Y25921D01*
X275949Y25856D01*
X276006Y25782D01*
X276056Y25700D01*
Y25696D01*
X276060Y25688D01*
X276068Y25675D01*
X276072Y25659D01*
X276080Y25634D01*
X276093Y25606D01*
X276101Y25573D01*
X276113Y25536D01*
X276125Y25491D01*
X276133Y25446D01*
X276142Y25392D01*
X276154Y25335D01*
X276158Y25273D01*
X276166Y25208D01*
X276170Y25138D01*
Y23900D01*
X272435D01*
Y25105D01*
X272439Y25134D01*
Y25171D01*
X272448Y25249D01*
X272464Y25335D01*
X272480Y25429D01*
X272509Y25519D01*
X272546Y25602D01*
Y25606D01*
X272550Y25610D01*
X272567Y25634D01*
X272591Y25675D01*
X272628Y25720D01*
X272673Y25774D01*
X272735Y25831D01*
X272800Y25884D01*
X272882Y25938D01*
X272886D01*
X272895Y25942D01*
X272907Y25950D01*
X272923Y25958D01*
X272944Y25966D01*
X272968Y25979D01*
X273030Y26003D01*
X273108Y26028D01*
X273194Y26048D01*
X273288Y26065D01*
X273391Y26069D01*
X273395D01*
X273403D01*
X273415D01*
X273436D01*
X273456Y26065D01*
X273485D01*
X273546Y26057D01*
X273616Y26040D01*
X273698Y26020D01*
X273776Y25991D01*
X273858Y25954D01*
X273862D01*
X273866Y25950D01*
X273891Y25934D01*
X273928Y25909D01*
X273977Y25872D01*
X274026Y25827D01*
X274083Y25774D01*
X274137Y25712D01*
X274186Y25638D01*
Y25642D01*
X274190Y25651D01*
X274198Y25663D01*
X274206Y25684D01*
X274231Y25733D01*
X274264Y25790D01*
X274309Y25856D01*
X274366Y25925D01*
X274436Y25995D01*
X274518Y26057D01*
X274522D01*
X274530Y26065D01*
X274543Y26073D01*
X274559Y26081D01*
X274584Y26094D01*
X274608Y26106D01*
X274641Y26118D01*
X274674Y26134D01*
X274760Y26163D01*
X274858Y26188D01*
X274969Y26204D01*
X275092Y26212D01*
X275096D01*
X275109D01*
X275125D01*
X275149D01*
X275178Y26208D01*
D02*
G37*
G36*
X258891Y12576D02*
X258944D01*
X259010Y12572D01*
X259080Y12564D01*
X259157Y12556D01*
X259240Y12548D01*
X259326Y12535D01*
X259506Y12503D01*
X259690Y12453D01*
X259777Y12425D01*
X259863Y12392D01*
X259867D01*
X259883Y12384D01*
X259904Y12371D01*
X259932Y12359D01*
X259969Y12338D01*
X260010Y12318D01*
X260055Y12293D01*
X260105Y12265D01*
X260207Y12195D01*
X260310Y12113D01*
X260408Y12019D01*
X260449Y11970D01*
X260486Y11916D01*
Y11912D01*
X260494Y11904D01*
X260502Y11887D01*
X260515Y11863D01*
X260527Y11834D01*
X260543Y11801D01*
X260560Y11760D01*
X260576Y11711D01*
X260597Y11658D01*
X260613Y11601D01*
X260629Y11539D01*
X260642Y11473D01*
X260654Y11400D01*
X260662Y11322D01*
X260666Y11240D01*
X260670Y11154D01*
Y10051D01*
X256935D01*
Y11203D01*
X256939Y11240D01*
X256943Y11326D01*
X256952Y11424D01*
X256964Y11523D01*
X256980Y11617D01*
X256993Y11658D01*
X257005Y11699D01*
Y11703D01*
X257009Y11711D01*
X257013Y11723D01*
X257021Y11744D01*
X257034Y11769D01*
X257046Y11793D01*
X257079Y11859D01*
X257124Y11933D01*
X257181Y12010D01*
X257251Y12088D01*
X257333Y12162D01*
X257337Y12166D01*
X257345Y12170D01*
X257358Y12183D01*
X257374Y12195D01*
X257399Y12211D01*
X257427Y12232D01*
X257460Y12252D01*
X257497Y12273D01*
X257538Y12297D01*
X257583Y12322D01*
X257686Y12375D01*
X257800Y12425D01*
X257932Y12470D01*
X257936D01*
X257948Y12474D01*
X257968Y12482D01*
X257993Y12486D01*
X258030Y12494D01*
X258071Y12507D01*
X258116Y12515D01*
X258173Y12527D01*
X258231Y12535D01*
X258296Y12543D01*
X258366Y12556D01*
X258440Y12564D01*
X258522Y12572D01*
X258604Y12576D01*
X258784Y12580D01*
X258793D01*
X258813D01*
X258846D01*
X258891Y12576D01*
D02*
G37*
G36*
X260670Y7218D02*
X256935D01*
Y9432D01*
X257374D01*
Y7623D01*
X258518D01*
Y9321D01*
X258957D01*
Y7623D01*
X260232D01*
Y9501D01*
X260670D01*
Y7218D01*
D02*
G37*
G36*
Y4807D02*
X256935D01*
Y5213D01*
X260232D01*
Y6717D01*
X260670D01*
Y4807D01*
D02*
G37*
G36*
X258887Y4311D02*
X258944D01*
X259014Y4302D01*
X259096Y4294D01*
X259186Y4282D01*
X259285Y4270D01*
X259391Y4249D01*
X259502Y4225D01*
X259613Y4192D01*
X259727Y4155D01*
X259838Y4114D01*
X259949Y4061D01*
X260055Y4003D01*
X260158Y3938D01*
X260166Y3934D01*
X260182Y3917D01*
X260211Y3897D01*
X260248Y3864D01*
X260289Y3819D01*
X260338Y3770D01*
X260392Y3712D01*
X260445Y3647D01*
X260498Y3573D01*
X260552Y3491D01*
X260597Y3401D01*
X260642Y3302D01*
X260679Y3200D01*
X260707Y3089D01*
X260724Y2974D01*
X260732Y2851D01*
Y2822D01*
X260728Y2785D01*
X260724Y2740D01*
X260716Y2679D01*
X260699Y2613D01*
X260683Y2540D01*
X260658Y2462D01*
X260625Y2376D01*
X260588Y2285D01*
X260539Y2195D01*
X260482Y2105D01*
X260416Y2015D01*
X260334Y1925D01*
X260244Y1838D01*
X260141Y1760D01*
X260133Y1756D01*
X260117Y1744D01*
X260088Y1728D01*
X260047Y1703D01*
X259994Y1674D01*
X259932Y1642D01*
X259863Y1609D01*
X259781Y1576D01*
X259690Y1539D01*
X259592Y1506D01*
X259486Y1474D01*
X259375Y1445D01*
X259252Y1420D01*
X259125Y1404D01*
X258994Y1391D01*
X258854Y1387D01*
X258850D01*
X258842D01*
X258829D01*
X258813D01*
X258788D01*
X258764Y1391D01*
X258698Y1396D01*
X258616Y1400D01*
X258526Y1408D01*
X258424Y1424D01*
X258313Y1441D01*
X258194Y1461D01*
X258075Y1490D01*
X257952Y1523D01*
X257833Y1564D01*
X257710Y1613D01*
X257595Y1666D01*
X257489Y1732D01*
X257386Y1806D01*
X257382Y1810D01*
X257366Y1826D01*
X257337Y1847D01*
X257304Y1879D01*
X257267Y1920D01*
X257222Y1970D01*
X257177Y2027D01*
X257128Y2093D01*
X257079Y2166D01*
X257034Y2244D01*
X256989Y2330D01*
X256952Y2425D01*
X256919Y2523D01*
X256890Y2626D01*
X256874Y2736D01*
X256870Y2851D01*
Y2892D01*
X256874Y2921D01*
X256878Y2954D01*
X256882Y2999D01*
X256890Y3044D01*
X256898Y3097D01*
X256927Y3208D01*
X256968Y3335D01*
X256993Y3396D01*
X257021Y3462D01*
X257058Y3528D01*
X257099Y3589D01*
X257103Y3593D01*
X257112Y3605D01*
X257124Y3622D01*
X257140Y3647D01*
X257165Y3671D01*
X257194Y3704D01*
X257230Y3741D01*
X257267Y3782D01*
X257312Y3823D01*
X257362Y3868D01*
X257419Y3909D01*
X257476Y3954D01*
X257542Y3999D01*
X257612Y4040D01*
X257690Y4081D01*
X257768Y4118D01*
X257772Y4122D01*
X257788Y4126D01*
X257813Y4134D01*
X257845Y4151D01*
X257887Y4163D01*
X257936Y4180D01*
X257993Y4200D01*
X258059Y4216D01*
X258133Y4237D01*
X258210Y4253D01*
X258296Y4270D01*
X258387Y4286D01*
X258485Y4298D01*
X258588Y4307D01*
X258694Y4311D01*
X258805Y4315D01*
X258809D01*
X258813D01*
X258825D01*
X258842D01*
X258887Y4311D01*
D02*
G37*
G36*
X258001Y-585D02*
X260650D01*
X260654D01*
X260666D01*
X260687Y-589D01*
X260711Y-597D01*
X260744Y-605D01*
X260781Y-618D01*
X260822Y-634D01*
X260863Y-654D01*
X260908Y-679D01*
X260953Y-712D01*
X260998Y-753D01*
X261044Y-798D01*
X261089Y-855D01*
X261130Y-917D01*
X261167Y-991D01*
X261199Y-1073D01*
X261195D01*
X261187Y-1077D01*
X261171Y-1081D01*
X261150Y-1089D01*
X261125Y-1101D01*
X261097Y-1118D01*
X261064Y-1142D01*
X261027Y-1175D01*
X260990Y-1216D01*
X260949Y-1265D01*
X260904Y-1327D01*
X260863Y-1401D01*
X260818Y-1487D01*
X260773Y-1585D01*
X260728Y-1696D01*
X260707Y-1761D01*
X260687Y-1827D01*
X260588D01*
Y-1819D01*
X260593Y-1798D01*
X260597Y-1766D01*
X260601Y-1720D01*
X260609Y-1667D01*
X260613Y-1606D01*
X260621Y-1544D01*
X260629Y-1474D01*
X260642Y-1335D01*
X260650Y-1269D01*
X260654Y-1204D01*
X260658Y-1146D01*
X260662Y-1097D01*
Y-1019D01*
X260658Y-1003D01*
X260646Y-982D01*
X260625Y-954D01*
X260597Y-929D01*
X260572Y-921D01*
X260552Y-909D01*
X260523Y-900D01*
X260490Y-892D01*
X260449Y-888D01*
X260408D01*
X258001D01*
Y-3159D01*
X258005Y-3184D01*
X258010Y-3250D01*
X258018Y-3328D01*
X258026Y-3410D01*
X258042Y-3492D01*
X258063Y-3578D01*
X257882Y-3762D01*
Y-888D01*
X257046D01*
X257042D01*
X257030D01*
X257013D01*
X256989D01*
X256960D01*
X256927D01*
X256890D01*
X256845Y-892D01*
X256751D01*
X256644Y-896D01*
X256529Y-900D01*
X256415Y-909D01*
X256661Y-380D01*
X256825Y-585D01*
X257882D01*
Y149D01*
X257575Y457D01*
X258001Y883D01*
Y-585D01*
D02*
G37*
G36*
X259375Y-1954D02*
X259403Y-1958D01*
X259440Y-1970D01*
X259514Y-1995D01*
X259551Y-2016D01*
X259584Y-2040D01*
X259588Y-2044D01*
X259596Y-2052D01*
X259604Y-2065D01*
X259617Y-2081D01*
X259641Y-2118D01*
X259649Y-2135D01*
X259654Y-2151D01*
Y-2155D01*
X259649Y-2163D01*
X259645Y-2176D01*
X259633Y-2188D01*
X259613Y-2208D01*
X259584Y-2229D01*
X259543Y-2249D01*
X259490Y-2274D01*
X259486D01*
X259477Y-2278D01*
X259465Y-2282D01*
X259449Y-2290D01*
X259403Y-2307D01*
X259342Y-2331D01*
X259272Y-2360D01*
X259194Y-2393D01*
X259117Y-2434D01*
X259034Y-2479D01*
X259030D01*
X259026Y-2483D01*
X259010Y-2491D01*
X258994Y-2503D01*
X258973Y-2516D01*
X258948Y-2532D01*
X258916Y-2553D01*
X258879Y-2573D01*
X258842Y-2598D01*
X258797Y-2627D01*
X258698Y-2692D01*
X258583Y-2774D01*
X258452Y-2864D01*
X258391Y-2823D01*
X258395Y-2815D01*
X258407Y-2799D01*
X258428Y-2766D01*
X258452Y-2729D01*
X258485Y-2680D01*
X258522Y-2627D01*
X258563Y-2569D01*
X258608Y-2508D01*
X258702Y-2380D01*
X258752Y-2319D01*
X258801Y-2262D01*
X258850Y-2204D01*
X258895Y-2155D01*
X258940Y-2114D01*
X258981Y-2081D01*
X258985D01*
X258989Y-2073D01*
X259014Y-2057D01*
X259055Y-2036D01*
X259104Y-2007D01*
X259162Y-1983D01*
X259223Y-1962D01*
X259289Y-1950D01*
X259350D01*
X259358D01*
X259375Y-1954D01*
D02*
G37*
G36*
X259555Y-4254D02*
X259596Y-4258D01*
X259637Y-4262D01*
X259686Y-4267D01*
X259789Y-4283D01*
X259904Y-4307D01*
X260023Y-4344D01*
X260141Y-4389D01*
X260146D01*
X260154Y-4394D01*
X260170Y-4402D01*
X260191Y-4414D01*
X260215Y-4426D01*
X260244Y-4443D01*
X260310Y-4484D01*
X260383Y-4533D01*
X260457Y-4594D01*
X260527Y-4660D01*
X260588Y-4738D01*
Y-4742D01*
X260593Y-4746D01*
X260601Y-4758D01*
X260609Y-4775D01*
X260633Y-4820D01*
X260658Y-4877D01*
X260687Y-4947D01*
X260707Y-5025D01*
X260724Y-5115D01*
X260732Y-5209D01*
Y-5230D01*
X260728Y-5255D01*
X260724Y-5287D01*
X260720Y-5324D01*
X260711Y-5373D01*
X260699Y-5423D01*
X260679Y-5480D01*
X260658Y-5537D01*
X260629Y-5599D01*
X260597Y-5661D01*
X260556Y-5726D01*
X260510Y-5792D01*
X260453Y-5853D01*
X260392Y-5915D01*
X260318Y-5972D01*
X260314Y-5976D01*
X260297Y-5984D01*
X260273Y-6001D01*
X260236Y-6017D01*
X260191Y-6042D01*
X260133Y-6066D01*
X260068Y-6095D01*
X259986Y-6120D01*
X259895Y-6148D01*
X259793Y-6177D01*
X259678Y-6202D01*
X259551Y-6226D01*
X259416Y-6243D01*
X259264Y-6259D01*
X259100Y-6267D01*
X258924Y-6271D01*
X258920D01*
X258911D01*
X258895D01*
X258875D01*
X258850D01*
X258821Y-6267D01*
X258788D01*
X258748D01*
X258661Y-6263D01*
X258559Y-6255D01*
X258448Y-6247D01*
X258325Y-6235D01*
X258202Y-6218D01*
X258075Y-6198D01*
X257948Y-6173D01*
X257821Y-6144D01*
X257698Y-6107D01*
X257583Y-6066D01*
X257481Y-6021D01*
X257386Y-5968D01*
X257382Y-5964D01*
X257366Y-5956D01*
X257345Y-5935D01*
X257312Y-5911D01*
X257280Y-5882D01*
X257239Y-5845D01*
X257198Y-5804D01*
X257153Y-5755D01*
X257112Y-5697D01*
X257071Y-5640D01*
X257030Y-5574D01*
X256997Y-5505D01*
X256964Y-5431D01*
X256943Y-5349D01*
X256927Y-5267D01*
X256923Y-5177D01*
Y-5144D01*
X256927Y-5119D01*
X256931Y-5091D01*
X256935Y-5054D01*
X256952Y-4976D01*
X256980Y-4886D01*
X257001Y-4836D01*
X257021Y-4787D01*
X257050Y-4738D01*
X257083Y-4689D01*
X257120Y-4644D01*
X257161Y-4599D01*
X257165Y-4594D01*
X257173Y-4586D01*
X257185Y-4578D01*
X257206Y-4562D01*
X257230Y-4541D01*
X257259Y-4521D01*
X257296Y-4496D01*
X257337Y-4471D01*
X257382Y-4447D01*
X257431Y-4422D01*
X257489Y-4398D01*
X257550Y-4377D01*
X257620Y-4353D01*
X257690Y-4336D01*
X257768Y-4320D01*
X257850Y-4307D01*
X257887Y-4681D01*
X257882D01*
X257874Y-4685D01*
X257858D01*
X257841Y-4689D01*
X257792Y-4701D01*
X257731Y-4722D01*
X257661Y-4742D01*
X257595Y-4771D01*
X257534Y-4804D01*
X257481Y-4840D01*
X257476D01*
X257472Y-4849D01*
X257452Y-4865D01*
X257423Y-4898D01*
X257390Y-4939D01*
X257358Y-4992D01*
X257329Y-5054D01*
X257308Y-5123D01*
X257300Y-5160D01*
Y-5214D01*
X257304Y-5234D01*
X257308Y-5255D01*
X257312Y-5283D01*
X257321Y-5316D01*
X257333Y-5353D01*
X257349Y-5390D01*
X257374Y-5431D01*
X257399Y-5472D01*
X257431Y-5517D01*
X257472Y-5562D01*
X257522Y-5603D01*
X257575Y-5648D01*
X257636Y-5689D01*
X257710Y-5726D01*
X257714D01*
X257727Y-5734D01*
X257747Y-5742D01*
X257776Y-5751D01*
X257813Y-5767D01*
X257858Y-5779D01*
X257911Y-5796D01*
X257968Y-5812D01*
X258038Y-5824D01*
X258116Y-5841D01*
X258202Y-5857D01*
X258296Y-5870D01*
X258395Y-5882D01*
X258506Y-5890D01*
X258620Y-5894D01*
X258743Y-5898D01*
X258735Y-5894D01*
X258723Y-5886D01*
X258706Y-5874D01*
X258661Y-5845D01*
X258608Y-5808D01*
X258547Y-5763D01*
X258485Y-5706D01*
X258428Y-5644D01*
X258374Y-5574D01*
Y-5570D01*
X258370Y-5566D01*
X258362Y-5554D01*
X258354Y-5542D01*
X258333Y-5501D01*
X258309Y-5447D01*
X258288Y-5386D01*
X258268Y-5316D01*
X258251Y-5238D01*
X258247Y-5156D01*
Y-5140D01*
X258251Y-5119D01*
Y-5095D01*
X258256Y-5066D01*
X258264Y-5029D01*
X258276Y-4988D01*
X258288Y-4943D01*
X258305Y-4894D01*
X258329Y-4845D01*
X258354Y-4791D01*
X258387Y-4738D01*
X258424Y-4685D01*
X258469Y-4631D01*
X258522Y-4578D01*
X258579Y-4525D01*
X258583Y-4521D01*
X258596Y-4513D01*
X258612Y-4500D01*
X258641Y-4480D01*
X258674Y-4459D01*
X258711Y-4439D01*
X258760Y-4414D01*
X258813Y-4385D01*
X258871Y-4361D01*
X258940Y-4336D01*
X259010Y-4316D01*
X259088Y-4291D01*
X259174Y-4275D01*
X259264Y-4262D01*
X259358Y-4254D01*
X259461Y-4250D01*
X259465D01*
X259477D01*
X259498D01*
X259522D01*
X259555Y-4254D01*
D02*
G37*
G36*
Y-6632D02*
X259596Y-6636D01*
X259637Y-6640D01*
X259686Y-6645D01*
X259789Y-6661D01*
X259904Y-6685D01*
X260023Y-6722D01*
X260141Y-6768D01*
X260146D01*
X260154Y-6772D01*
X260170Y-6780D01*
X260191Y-6792D01*
X260215Y-6804D01*
X260244Y-6821D01*
X260310Y-6862D01*
X260383Y-6911D01*
X260457Y-6972D01*
X260527Y-7038D01*
X260588Y-7116D01*
Y-7120D01*
X260593Y-7124D01*
X260601Y-7136D01*
X260609Y-7153D01*
X260633Y-7198D01*
X260658Y-7255D01*
X260687Y-7325D01*
X260707Y-7403D01*
X260724Y-7493D01*
X260732Y-7587D01*
Y-7608D01*
X260728Y-7633D01*
X260724Y-7665D01*
X260720Y-7702D01*
X260711Y-7751D01*
X260699Y-7801D01*
X260679Y-7858D01*
X260658Y-7915D01*
X260629Y-7977D01*
X260597Y-8038D01*
X260556Y-8104D01*
X260510Y-8170D01*
X260453Y-8231D01*
X260392Y-8293D01*
X260318Y-8350D01*
X260314Y-8354D01*
X260297Y-8362D01*
X260273Y-8379D01*
X260236Y-8395D01*
X260191Y-8420D01*
X260133Y-8444D01*
X260068Y-8473D01*
X259986Y-8498D01*
X259895Y-8526D01*
X259793Y-8555D01*
X259678Y-8580D01*
X259551Y-8604D01*
X259416Y-8621D01*
X259264Y-8637D01*
X259100Y-8645D01*
X258924Y-8649D01*
X258920D01*
X258911D01*
X258895D01*
X258875D01*
X258850D01*
X258821Y-8645D01*
X258788D01*
X258748D01*
X258661Y-8641D01*
X258559Y-8633D01*
X258448Y-8625D01*
X258325Y-8613D01*
X258202Y-8596D01*
X258075Y-8576D01*
X257948Y-8551D01*
X257821Y-8522D01*
X257698Y-8485D01*
X257583Y-8444D01*
X257481Y-8399D01*
X257386Y-8346D01*
X257382Y-8342D01*
X257366Y-8334D01*
X257345Y-8313D01*
X257312Y-8289D01*
X257280Y-8260D01*
X257239Y-8223D01*
X257198Y-8182D01*
X257153Y-8133D01*
X257112Y-8075D01*
X257071Y-8018D01*
X257030Y-7952D01*
X256997Y-7883D01*
X256964Y-7809D01*
X256943Y-7727D01*
X256927Y-7645D01*
X256923Y-7555D01*
Y-7522D01*
X256927Y-7497D01*
X256931Y-7469D01*
X256935Y-7432D01*
X256952Y-7354D01*
X256980Y-7264D01*
X257001Y-7214D01*
X257021Y-7165D01*
X257050Y-7116D01*
X257083Y-7067D01*
X257120Y-7022D01*
X257161Y-6977D01*
X257165Y-6972D01*
X257173Y-6964D01*
X257185Y-6956D01*
X257206Y-6940D01*
X257230Y-6919D01*
X257259Y-6899D01*
X257296Y-6874D01*
X257337Y-6849D01*
X257382Y-6825D01*
X257431Y-6800D01*
X257489Y-6776D01*
X257550Y-6755D01*
X257620Y-6731D01*
X257690Y-6714D01*
X257768Y-6698D01*
X257850Y-6685D01*
X257887Y-7059D01*
X257882D01*
X257874Y-7063D01*
X257858D01*
X257841Y-7067D01*
X257792Y-7079D01*
X257731Y-7100D01*
X257661Y-7120D01*
X257595Y-7149D01*
X257534Y-7182D01*
X257481Y-7219D01*
X257476D01*
X257472Y-7227D01*
X257452Y-7243D01*
X257423Y-7276D01*
X257390Y-7317D01*
X257358Y-7370D01*
X257329Y-7432D01*
X257308Y-7501D01*
X257300Y-7538D01*
Y-7592D01*
X257304Y-7612D01*
X257308Y-7633D01*
X257312Y-7661D01*
X257321Y-7694D01*
X257333Y-7731D01*
X257349Y-7768D01*
X257374Y-7809D01*
X257399Y-7850D01*
X257431Y-7895D01*
X257472Y-7940D01*
X257522Y-7981D01*
X257575Y-8026D01*
X257636Y-8067D01*
X257710Y-8104D01*
X257714D01*
X257727Y-8112D01*
X257747Y-8121D01*
X257776Y-8129D01*
X257813Y-8145D01*
X257858Y-8157D01*
X257911Y-8174D01*
X257968Y-8190D01*
X258038Y-8202D01*
X258116Y-8219D01*
X258202Y-8235D01*
X258296Y-8248D01*
X258395Y-8260D01*
X258506Y-8268D01*
X258620Y-8272D01*
X258743Y-8276D01*
X258735Y-8272D01*
X258723Y-8264D01*
X258706Y-8252D01*
X258661Y-8223D01*
X258608Y-8186D01*
X258547Y-8141D01*
X258485Y-8084D01*
X258428Y-8022D01*
X258374Y-7952D01*
Y-7948D01*
X258370Y-7944D01*
X258362Y-7932D01*
X258354Y-7920D01*
X258333Y-7879D01*
X258309Y-7825D01*
X258288Y-7764D01*
X258268Y-7694D01*
X258251Y-7616D01*
X258247Y-7534D01*
Y-7518D01*
X258251Y-7497D01*
Y-7473D01*
X258256Y-7444D01*
X258264Y-7407D01*
X258276Y-7366D01*
X258288Y-7321D01*
X258305Y-7272D01*
X258329Y-7223D01*
X258354Y-7169D01*
X258387Y-7116D01*
X258424Y-7063D01*
X258469Y-7009D01*
X258522Y-6956D01*
X258579Y-6903D01*
X258583Y-6899D01*
X258596Y-6891D01*
X258612Y-6878D01*
X258641Y-6858D01*
X258674Y-6837D01*
X258711Y-6817D01*
X258760Y-6792D01*
X258813Y-6763D01*
X258871Y-6739D01*
X258940Y-6714D01*
X259010Y-6694D01*
X259088Y-6669D01*
X259174Y-6653D01*
X259264Y-6640D01*
X259358Y-6632D01*
X259461Y-6628D01*
X259465D01*
X259477D01*
X259498D01*
X259522D01*
X259555Y-6632D01*
D02*
G37*
G36*
X260670Y-9596D02*
X260150D01*
Y-9170D01*
X260670D01*
Y-9596D01*
D02*
G37*
G36*
X258981Y-10207D02*
X259059Y-10211D01*
X259149Y-10216D01*
X259252Y-10224D01*
X259358Y-10236D01*
X259469Y-10248D01*
X259588Y-10265D01*
X259703Y-10285D01*
X259822Y-10310D01*
X259936Y-10339D01*
X260047Y-10375D01*
X260154Y-10412D01*
X260248Y-10458D01*
X260252Y-10462D01*
X260269Y-10470D01*
X260293Y-10482D01*
X260322Y-10503D01*
X260359Y-10531D01*
X260400Y-10564D01*
X260445Y-10601D01*
X260490Y-10646D01*
X260535Y-10695D01*
X260580Y-10749D01*
X260621Y-10810D01*
X260658Y-10880D01*
X260687Y-10954D01*
X260711Y-11032D01*
X260728Y-11118D01*
X260732Y-11208D01*
Y-11228D01*
X260728Y-11249D01*
X260724Y-11282D01*
X260720Y-11319D01*
X260707Y-11360D01*
X260695Y-11409D01*
X260679Y-11458D01*
X260654Y-11515D01*
X260629Y-11573D01*
X260593Y-11630D01*
X260552Y-11692D01*
X260502Y-11753D01*
X260445Y-11811D01*
X260379Y-11868D01*
X260306Y-11921D01*
X260301Y-11925D01*
X260285Y-11934D01*
X260260Y-11946D01*
X260224Y-11966D01*
X260174Y-11987D01*
X260117Y-12007D01*
X260043Y-12036D01*
X259961Y-12061D01*
X259867Y-12085D01*
X259756Y-12110D01*
X259637Y-12134D01*
X259502Y-12155D01*
X259354Y-12175D01*
X259194Y-12188D01*
X259018Y-12196D01*
X258829Y-12200D01*
X258825D01*
X258817D01*
X258805D01*
X258788D01*
X258764D01*
X258739D01*
X258674Y-12196D01*
X258596Y-12192D01*
X258506Y-12188D01*
X258407Y-12179D01*
X258301Y-12167D01*
X258186Y-12155D01*
X258071Y-12139D01*
X257952Y-12118D01*
X257833Y-12093D01*
X257718Y-12065D01*
X257608Y-12032D01*
X257501Y-11995D01*
X257407Y-11950D01*
X257403Y-11946D01*
X257386Y-11938D01*
X257362Y-11921D01*
X257333Y-11901D01*
X257296Y-11876D01*
X257255Y-11843D01*
X257210Y-11806D01*
X257165Y-11761D01*
X257120Y-11712D01*
X257075Y-11655D01*
X257034Y-11593D01*
X256997Y-11528D01*
X256968Y-11454D01*
X256943Y-11376D01*
X256927Y-11290D01*
X256923Y-11200D01*
Y-11179D01*
X256927Y-11159D01*
Y-11126D01*
X256935Y-11089D01*
X256943Y-11048D01*
X256956Y-11003D01*
X256972Y-10949D01*
X256993Y-10896D01*
X257017Y-10839D01*
X257050Y-10781D01*
X257087Y-10724D01*
X257132Y-10667D01*
X257185Y-10613D01*
X257247Y-10560D01*
X257317Y-10511D01*
X257321Y-10507D01*
X257337Y-10498D01*
X257366Y-10482D01*
X257407Y-10462D01*
X257456Y-10441D01*
X257522Y-10412D01*
X257595Y-10384D01*
X257681Y-10355D01*
X257780Y-10326D01*
X257895Y-10302D01*
X258018Y-10273D01*
X258153Y-10253D01*
X258305Y-10232D01*
X258465Y-10216D01*
X258641Y-10207D01*
X258829Y-10203D01*
X258834D01*
X258842D01*
X258854D01*
X258871D01*
X258891D01*
X258920D01*
X258981Y-10207D01*
D02*
G37*
G36*
X209649Y-26609D02*
X208692Y-26910D01*
Y-28000D01*
X209649Y-28281D01*
Y-28638D01*
X206488Y-27643D01*
Y-27275D01*
X209649Y-26217D01*
Y-26609D01*
D02*
G37*
G36*
X208143Y-28840D02*
X208188D01*
X208244Y-28843D01*
X208303Y-28850D01*
X208369Y-28857D01*
X208438Y-28864D01*
X208511Y-28874D01*
X208664Y-28902D01*
X208820Y-28944D01*
X208893Y-28968D01*
X208966Y-28996D01*
X208969D01*
X208983Y-29003D01*
X209000Y-29013D01*
X209025Y-29024D01*
X209056Y-29041D01*
X209090Y-29058D01*
X209129Y-29079D01*
X209170Y-29103D01*
X209257Y-29162D01*
X209344Y-29232D01*
X209427Y-29312D01*
X209462Y-29353D01*
X209493Y-29399D01*
Y-29402D01*
X209500Y-29409D01*
X209507Y-29423D01*
X209517Y-29444D01*
X209528Y-29468D01*
X209542Y-29496D01*
X209556Y-29530D01*
X209569Y-29572D01*
X209587Y-29617D01*
X209601Y-29666D01*
X209614Y-29718D01*
X209625Y-29773D01*
X209635Y-29836D01*
X209642Y-29902D01*
X209646Y-29971D01*
X209649Y-30044D01*
Y-30977D01*
X206488D01*
Y-30002D01*
X206491Y-29971D01*
X206495Y-29898D01*
X206502Y-29815D01*
X206512Y-29732D01*
X206526Y-29652D01*
X206537Y-29617D01*
X206547Y-29582D01*
Y-29579D01*
X206551Y-29572D01*
X206554Y-29561D01*
X206561Y-29544D01*
X206571Y-29523D01*
X206582Y-29503D01*
X206610Y-29447D01*
X206648Y-29385D01*
X206696Y-29319D01*
X206755Y-29253D01*
X206825Y-29190D01*
X206828Y-29187D01*
X206835Y-29183D01*
X206845Y-29173D01*
X206859Y-29162D01*
X206880Y-29149D01*
X206904Y-29131D01*
X206932Y-29114D01*
X206963Y-29097D01*
X206998Y-29076D01*
X207036Y-29055D01*
X207123Y-29010D01*
X207220Y-28968D01*
X207331Y-28930D01*
X207335D01*
X207345Y-28927D01*
X207362Y-28920D01*
X207383Y-28916D01*
X207415Y-28909D01*
X207449Y-28899D01*
X207487Y-28892D01*
X207536Y-28881D01*
X207585Y-28874D01*
X207640Y-28868D01*
X207699Y-28857D01*
X207762Y-28850D01*
X207831Y-28843D01*
X207900Y-28840D01*
X208053Y-28836D01*
X208060D01*
X208077D01*
X208105D01*
X208143Y-28840D01*
D02*
G37*
G36*
X208799Y-31439D02*
X208823D01*
X208851Y-31442D01*
X208882Y-31446D01*
X208917Y-31453D01*
X208993Y-31467D01*
X209077Y-31491D01*
X209160Y-31522D01*
X209247Y-31564D01*
X209250D01*
X209257Y-31571D01*
X209267Y-31578D01*
X209281Y-31588D01*
X209323Y-31616D01*
X209372Y-31654D01*
X209427Y-31706D01*
X209483Y-31765D01*
X209538Y-31834D01*
X209587Y-31911D01*
Y-31914D01*
X209590Y-31921D01*
X209597Y-31932D01*
X209604Y-31949D01*
X209614Y-31970D01*
X209621Y-31997D01*
X209632Y-32025D01*
X209642Y-32060D01*
X209656Y-32095D01*
X209666Y-32136D01*
X209684Y-32226D01*
X209698Y-32327D01*
X209701Y-32438D01*
Y-32459D01*
X209698Y-32483D01*
Y-32518D01*
X209691Y-32560D01*
X209687Y-32605D01*
X209677Y-32657D01*
X209666Y-32716D01*
X209649Y-32775D01*
X209632Y-32837D01*
X209608Y-32900D01*
X209580Y-32966D01*
X209545Y-33028D01*
X209507Y-33090D01*
X209465Y-33149D01*
X209413Y-33205D01*
X209410Y-33209D01*
X209399Y-33215D01*
X209382Y-33233D01*
X209361Y-33250D01*
X209330Y-33271D01*
X209295Y-33295D01*
X209254Y-33323D01*
X209205Y-33347D01*
X209153Y-33375D01*
X209094Y-33403D01*
X209028Y-33427D01*
X208959Y-33448D01*
X208882Y-33469D01*
X208803Y-33483D01*
X208716Y-33496D01*
X208626Y-33500D01*
X208594Y-33177D01*
X208598D01*
X208605D01*
X208619Y-33174D01*
X208636Y-33170D01*
X208660D01*
X208684Y-33163D01*
X208744Y-33153D01*
X208809Y-33139D01*
X208879Y-33118D01*
X208945Y-33094D01*
X209004Y-33063D01*
X209011Y-33059D01*
X209028Y-33045D01*
X209056Y-33025D01*
X209087Y-32993D01*
X209125Y-32959D01*
X209163Y-32914D01*
X209202Y-32858D01*
X209236Y-32799D01*
Y-32796D01*
X209240Y-32792D01*
X209243Y-32782D01*
X209250Y-32768D01*
X209264Y-32733D01*
X209278Y-32688D01*
X209295Y-32629D01*
X209309Y-32563D01*
X209319Y-32494D01*
X209323Y-32414D01*
Y-32386D01*
X209319Y-32362D01*
Y-32337D01*
X209316Y-32310D01*
X209306Y-32240D01*
X209288Y-32164D01*
X209261Y-32084D01*
X209226Y-32008D01*
X209177Y-31938D01*
X209174Y-31935D01*
X209170Y-31932D01*
X209150Y-31911D01*
X209118Y-31883D01*
X209073Y-31852D01*
X209018Y-31820D01*
X208952Y-31796D01*
X208875Y-31775D01*
X208834Y-31772D01*
X208789Y-31769D01*
X208782D01*
X208764D01*
X208740Y-31772D01*
X208705Y-31775D01*
X208667Y-31782D01*
X208629Y-31796D01*
X208587Y-31810D01*
X208546Y-31831D01*
X208542Y-31834D01*
X208528Y-31841D01*
X208507Y-31859D01*
X208487Y-31876D01*
X208459Y-31904D01*
X208431Y-31935D01*
X208403Y-31973D01*
X208376Y-32018D01*
X208372Y-32025D01*
X208369Y-32032D01*
X208362Y-32043D01*
X208355Y-32060D01*
X208348Y-32077D01*
X208337Y-32102D01*
X208327Y-32129D01*
X208313Y-32164D01*
X208299Y-32202D01*
X208282Y-32247D01*
X208265Y-32296D01*
X208247Y-32351D01*
X208226Y-32410D01*
X208206Y-32480D01*
X208185Y-32553D01*
Y-32556D01*
X208181Y-32570D01*
X208174Y-32587D01*
X208164Y-32612D01*
X208157Y-32643D01*
X208143Y-32678D01*
X208129Y-32712D01*
X208115Y-32754D01*
X208084Y-32841D01*
X208046Y-32927D01*
X208008Y-33007D01*
X207987Y-33042D01*
X207966Y-33073D01*
X207959Y-33080D01*
X207945Y-33097D01*
X207921Y-33129D01*
X207890Y-33163D01*
X207848Y-33202D01*
X207803Y-33240D01*
X207748Y-33281D01*
X207689Y-33316D01*
X207685D01*
X207682Y-33320D01*
X207671Y-33323D01*
X207657Y-33330D01*
X207623Y-33344D01*
X207578Y-33358D01*
X207519Y-33372D01*
X207453Y-33386D01*
X207383Y-33396D01*
X207304Y-33399D01*
X207300D01*
X207286D01*
X207265D01*
X207241Y-33396D01*
X207206Y-33392D01*
X207168Y-33386D01*
X207126Y-33379D01*
X207081Y-33368D01*
X207033Y-33354D01*
X206984Y-33340D01*
X206932Y-33320D01*
X206880Y-33295D01*
X206828Y-33268D01*
X206776Y-33233D01*
X206727Y-33195D01*
X206679Y-33153D01*
X206675Y-33149D01*
X206668Y-33143D01*
X206655Y-33129D01*
X206641Y-33108D01*
X206623Y-33084D01*
X206603Y-33052D01*
X206578Y-33018D01*
X206554Y-32976D01*
X206533Y-32931D01*
X206509Y-32879D01*
X206488Y-32823D01*
X206471Y-32764D01*
X206457Y-32702D01*
X206443Y-32632D01*
X206436Y-32560D01*
X206433Y-32483D01*
Y-32435D01*
X206436Y-32410D01*
X206439Y-32379D01*
X206443Y-32348D01*
X206446Y-32313D01*
X206460Y-32233D01*
X206481Y-32150D01*
X206509Y-32063D01*
X206547Y-31980D01*
Y-31977D01*
X206554Y-31970D01*
X206557Y-31959D01*
X206568Y-31945D01*
X206596Y-31904D01*
X206630Y-31855D01*
X206679Y-31803D01*
X206734Y-31744D01*
X206800Y-31692D01*
X206877Y-31644D01*
X206880D01*
X206887Y-31637D01*
X206897Y-31633D01*
X206915Y-31623D01*
X206936Y-31616D01*
X206960Y-31605D01*
X206988Y-31591D01*
X207019Y-31581D01*
X207092Y-31557D01*
X207175Y-31536D01*
X207272Y-31519D01*
X207376Y-31512D01*
X207408Y-31841D01*
X207404D01*
X207394D01*
X207376Y-31845D01*
X207355Y-31848D01*
X207331Y-31852D01*
X207304Y-31859D01*
X207234Y-31876D01*
X207161Y-31900D01*
X207085Y-31932D01*
X207012Y-31973D01*
X206981Y-32001D01*
X206949Y-32029D01*
X206946D01*
X206943Y-32036D01*
X206936Y-32046D01*
X206925Y-32056D01*
X206915Y-32074D01*
X206901Y-32095D01*
X206873Y-32143D01*
X206849Y-32206D01*
X206825Y-32282D01*
X206807Y-32372D01*
X206800Y-32421D01*
Y-32501D01*
X206804Y-32522D01*
Y-32546D01*
X206807Y-32574D01*
X206818Y-32636D01*
X206832Y-32709D01*
X206856Y-32782D01*
X206887Y-32855D01*
X206932Y-32917D01*
X206939Y-32924D01*
X206957Y-32941D01*
X206984Y-32966D01*
X207022Y-32993D01*
X207071Y-33021D01*
X207130Y-33045D01*
X207196Y-33063D01*
X207231Y-33066D01*
X207269Y-33070D01*
X207272D01*
X207276D01*
X207286D01*
X207300Y-33066D01*
X207335Y-33063D01*
X207376Y-33056D01*
X207425Y-33042D01*
X207473Y-33021D01*
X207522Y-32997D01*
X207567Y-32959D01*
X207571Y-32952D01*
X207578Y-32945D01*
X207585Y-32934D01*
X207595Y-32921D01*
X207605Y-32903D01*
X207619Y-32879D01*
X207633Y-32855D01*
X207647Y-32823D01*
X207664Y-32789D01*
X207682Y-32747D01*
X207699Y-32698D01*
X207720Y-32646D01*
X207737Y-32591D01*
X207758Y-32525D01*
X207779Y-32456D01*
Y-32452D01*
X207782Y-32438D01*
X207789Y-32421D01*
X207796Y-32393D01*
X207807Y-32362D01*
X207817Y-32327D01*
X207831Y-32285D01*
X207841Y-32244D01*
X207873Y-32157D01*
X207904Y-32067D01*
X207918Y-32025D01*
X207935Y-31987D01*
X207952Y-31949D01*
X207966Y-31918D01*
Y-31914D01*
X207973Y-31907D01*
X207980Y-31893D01*
X207987Y-31879D01*
X208001Y-31859D01*
X208015Y-31838D01*
X208053Y-31786D01*
X208098Y-31727D01*
X208154Y-31668D01*
X208216Y-31609D01*
X208285Y-31560D01*
X208289D01*
X208296Y-31553D01*
X208306Y-31550D01*
X208320Y-31539D01*
X208337Y-31532D01*
X208362Y-31522D01*
X208386Y-31508D01*
X208417Y-31498D01*
X208487Y-31473D01*
X208566Y-31456D01*
X208653Y-31442D01*
X208754Y-31435D01*
X208757D01*
X208764D01*
X208782D01*
X208799Y-31439D01*
D02*
G37*
G36*
X209649Y-16481D02*
X208053Y-17401D01*
X208556Y-17824D01*
X209649D01*
Y-18168D01*
X206488D01*
Y-17824D01*
X208056D01*
X206488Y-16540D01*
Y-16075D01*
X207772Y-17162D01*
X209649Y-16027D01*
Y-16481D01*
D02*
G37*
G36*
X208667Y-18591D02*
X208695Y-18598D01*
X208730Y-18605D01*
X208775Y-18619D01*
X208827Y-18636D01*
X208882Y-18654D01*
X208941Y-18678D01*
X209007Y-18702D01*
X209073Y-18733D01*
X209139Y-18765D01*
X209205Y-18803D01*
X209271Y-18841D01*
X209330Y-18886D01*
X209389Y-18935D01*
X209441Y-18987D01*
X209444Y-18990D01*
X209451Y-19001D01*
X209465Y-19015D01*
X209483Y-19039D01*
X209500Y-19067D01*
X209524Y-19098D01*
X209545Y-19136D01*
X209569Y-19181D01*
X209594Y-19230D01*
X209618Y-19282D01*
X209642Y-19337D01*
X209660Y-19400D01*
X209677Y-19466D01*
X209691Y-19532D01*
X209698Y-19604D01*
X209701Y-19681D01*
Y-19715D01*
X209698Y-19740D01*
X209694Y-19771D01*
X209691Y-19809D01*
X209687Y-19847D01*
X209680Y-19893D01*
X209660Y-19990D01*
X209628Y-20094D01*
X209608Y-20146D01*
X209583Y-20198D01*
X209559Y-20250D01*
X209528Y-20298D01*
X209524Y-20302D01*
X209521Y-20309D01*
X209510Y-20323D01*
X209493Y-20340D01*
X209476Y-20361D01*
X209451Y-20389D01*
X209424Y-20416D01*
X209392Y-20444D01*
X209354Y-20479D01*
X209313Y-20510D01*
X209267Y-20545D01*
X209215Y-20580D01*
X209160Y-20614D01*
X209101Y-20649D01*
X209035Y-20684D01*
X208966Y-20715D01*
X208962D01*
X208948Y-20722D01*
X208927Y-20729D01*
X208896Y-20739D01*
X208858Y-20753D01*
X208813Y-20767D01*
X208764Y-20781D01*
X208705Y-20795D01*
X208639Y-20809D01*
X208570Y-20822D01*
X208494Y-20836D01*
X208414Y-20850D01*
X208327Y-20861D01*
X208237Y-20867D01*
X208143Y-20871D01*
X208046Y-20875D01*
X208039D01*
X208022D01*
X207994D01*
X207959Y-20871D01*
X207914D01*
X207862Y-20867D01*
X207803Y-20861D01*
X207741Y-20854D01*
X207671Y-20847D01*
X207602Y-20836D01*
X207456Y-20809D01*
X207307Y-20767D01*
X207234Y-20743D01*
X207165Y-20715D01*
X207161Y-20711D01*
X207147Y-20708D01*
X207130Y-20697D01*
X207106Y-20684D01*
X207074Y-20670D01*
X207040Y-20649D01*
X207002Y-20625D01*
X206960Y-20597D01*
X206873Y-20534D01*
X206783Y-20461D01*
X206696Y-20371D01*
X206655Y-20326D01*
X206620Y-20274D01*
X206616Y-20271D01*
X206613Y-20260D01*
X206603Y-20246D01*
X206592Y-20226D01*
X206575Y-20198D01*
X206561Y-20167D01*
X206543Y-20132D01*
X206526Y-20090D01*
X206509Y-20045D01*
X206491Y-19997D01*
X206460Y-19893D01*
X206439Y-19774D01*
X206436Y-19712D01*
X206433Y-19650D01*
Y-19611D01*
X206436Y-19587D01*
X206439Y-19556D01*
X206446Y-19518D01*
X206453Y-19476D01*
X206460Y-19428D01*
X206491Y-19327D01*
X206509Y-19275D01*
X206533Y-19219D01*
X206557Y-19167D01*
X206592Y-19112D01*
X206627Y-19060D01*
X206668Y-19008D01*
X206672Y-19004D01*
X206679Y-18997D01*
X206693Y-18983D01*
X206710Y-18962D01*
X206734Y-18942D01*
X206766Y-18917D01*
X206800Y-18890D01*
X206842Y-18858D01*
X206887Y-18827D01*
X206939Y-18796D01*
X206995Y-18765D01*
X207054Y-18733D01*
X207123Y-18702D01*
X207192Y-18675D01*
X207269Y-18647D01*
X207352Y-18626D01*
X207449Y-18962D01*
X207446D01*
X207442Y-18966D01*
X207421Y-18969D01*
X207387Y-18983D01*
X207345Y-18997D01*
X207296Y-19018D01*
X207241Y-19046D01*
X207182Y-19077D01*
X207119Y-19115D01*
X207057Y-19157D01*
X206998Y-19209D01*
X206943Y-19264D01*
X206894Y-19327D01*
X206852Y-19400D01*
X206818Y-19476D01*
X206797Y-19563D01*
X206793Y-19608D01*
X206790Y-19657D01*
Y-19681D01*
X206793Y-19702D01*
Y-19722D01*
X206797Y-19750D01*
X206807Y-19809D01*
X206821Y-19882D01*
X206845Y-19955D01*
X206880Y-20035D01*
X206925Y-20108D01*
Y-20111D01*
X206932Y-20114D01*
X206939Y-20125D01*
X206949Y-20139D01*
X206981Y-20174D01*
X207026Y-20215D01*
X207085Y-20264D01*
X207154Y-20312D01*
X207241Y-20364D01*
X207286Y-20389D01*
X207338Y-20410D01*
X207342D01*
X207352Y-20413D01*
X207366Y-20420D01*
X207390Y-20427D01*
X207418Y-20434D01*
X207449Y-20444D01*
X207487Y-20455D01*
X207533Y-20465D01*
X207581Y-20475D01*
X207633Y-20486D01*
X207692Y-20496D01*
X207755Y-20503D01*
X207821Y-20510D01*
X207893Y-20517D01*
X207966Y-20520D01*
X208046D01*
X208050D01*
X208053D01*
X208074D01*
X208108D01*
X208154Y-20517D01*
X208206Y-20514D01*
X208268Y-20510D01*
X208337Y-20503D01*
X208410Y-20493D01*
X208490Y-20479D01*
X208570Y-20465D01*
X208650Y-20448D01*
X208730Y-20427D01*
X208809Y-20399D01*
X208886Y-20368D01*
X208955Y-20333D01*
X209021Y-20295D01*
X209025Y-20291D01*
X209035Y-20285D01*
X209052Y-20271D01*
X209070Y-20253D01*
X209097Y-20229D01*
X209122Y-20201D01*
X209153Y-20170D01*
X209181Y-20132D01*
X209212Y-20090D01*
X209243Y-20045D01*
X209267Y-19997D01*
X209292Y-19941D01*
X209313Y-19885D01*
X209330Y-19823D01*
X209340Y-19757D01*
X209344Y-19688D01*
Y-19660D01*
X209340Y-19639D01*
X209337Y-19615D01*
X209333Y-19587D01*
X209319Y-19521D01*
X209295Y-19445D01*
X209278Y-19407D01*
X209261Y-19365D01*
X209236Y-19323D01*
X209212Y-19282D01*
X209181Y-19240D01*
X209146Y-19202D01*
X209143Y-19198D01*
X209136Y-19192D01*
X209125Y-19181D01*
X209108Y-19167D01*
X209087Y-19153D01*
X209059Y-19132D01*
X209032Y-19112D01*
X208993Y-19091D01*
X208955Y-19067D01*
X208910Y-19046D01*
X208858Y-19022D01*
X208806Y-19001D01*
X208747Y-18980D01*
X208681Y-18959D01*
X208612Y-18942D01*
X208539Y-18928D01*
X208643Y-18584D01*
X208650D01*
X208667Y-18591D01*
D02*
G37*
G36*
X208799Y-21239D02*
X208823D01*
X208851Y-21242D01*
X208882Y-21246D01*
X208917Y-21253D01*
X208993Y-21267D01*
X209077Y-21291D01*
X209160Y-21322D01*
X209247Y-21364D01*
X209250D01*
X209257Y-21371D01*
X209267Y-21378D01*
X209281Y-21388D01*
X209323Y-21416D01*
X209372Y-21454D01*
X209427Y-21506D01*
X209483Y-21565D01*
X209538Y-21634D01*
X209587Y-21711D01*
Y-21714D01*
X209590Y-21721D01*
X209597Y-21732D01*
X209604Y-21749D01*
X209614Y-21770D01*
X209621Y-21798D01*
X209632Y-21825D01*
X209642Y-21860D01*
X209656Y-21895D01*
X209666Y-21936D01*
X209684Y-22027D01*
X209698Y-22127D01*
X209701Y-22238D01*
Y-22259D01*
X209698Y-22283D01*
Y-22318D01*
X209691Y-22360D01*
X209687Y-22405D01*
X209677Y-22457D01*
X209666Y-22516D01*
X209649Y-22575D01*
X209632Y-22637D01*
X209608Y-22700D01*
X209580Y-22766D01*
X209545Y-22828D01*
X209507Y-22891D01*
X209465Y-22950D01*
X209413Y-23005D01*
X209410Y-23009D01*
X209399Y-23016D01*
X209382Y-23033D01*
X209361Y-23050D01*
X209330Y-23071D01*
X209295Y-23095D01*
X209254Y-23123D01*
X209205Y-23147D01*
X209153Y-23175D01*
X209094Y-23203D01*
X209028Y-23227D01*
X208959Y-23248D01*
X208882Y-23269D01*
X208803Y-23283D01*
X208716Y-23297D01*
X208626Y-23300D01*
X208594Y-22977D01*
X208598D01*
X208605D01*
X208619Y-22974D01*
X208636Y-22970D01*
X208660D01*
X208684Y-22963D01*
X208744Y-22953D01*
X208809Y-22939D01*
X208879Y-22918D01*
X208945Y-22894D01*
X209004Y-22863D01*
X209011Y-22859D01*
X209028Y-22845D01*
X209056Y-22825D01*
X209087Y-22793D01*
X209125Y-22759D01*
X209163Y-22714D01*
X209202Y-22658D01*
X209236Y-22599D01*
Y-22596D01*
X209240Y-22592D01*
X209243Y-22582D01*
X209250Y-22568D01*
X209264Y-22533D01*
X209278Y-22488D01*
X209295Y-22429D01*
X209309Y-22363D01*
X209319Y-22294D01*
X209323Y-22214D01*
Y-22186D01*
X209319Y-22162D01*
Y-22138D01*
X209316Y-22110D01*
X209306Y-22040D01*
X209288Y-21964D01*
X209261Y-21884D01*
X209226Y-21808D01*
X209177Y-21738D01*
X209174Y-21735D01*
X209170Y-21732D01*
X209150Y-21711D01*
X209118Y-21683D01*
X209073Y-21652D01*
X209018Y-21621D01*
X208952Y-21596D01*
X208875Y-21575D01*
X208834Y-21572D01*
X208789Y-21568D01*
X208782D01*
X208764D01*
X208740Y-21572D01*
X208705Y-21575D01*
X208667Y-21582D01*
X208629Y-21596D01*
X208587Y-21610D01*
X208546Y-21631D01*
X208542Y-21634D01*
X208528Y-21641D01*
X208507Y-21659D01*
X208487Y-21676D01*
X208459Y-21704D01*
X208431Y-21735D01*
X208403Y-21773D01*
X208376Y-21818D01*
X208372Y-21825D01*
X208369Y-21832D01*
X208362Y-21843D01*
X208355Y-21860D01*
X208348Y-21877D01*
X208337Y-21902D01*
X208327Y-21929D01*
X208313Y-21964D01*
X208299Y-22002D01*
X208282Y-22047D01*
X208265Y-22096D01*
X208247Y-22151D01*
X208226Y-22210D01*
X208206Y-22280D01*
X208185Y-22353D01*
Y-22356D01*
X208181Y-22370D01*
X208174Y-22387D01*
X208164Y-22412D01*
X208157Y-22443D01*
X208143Y-22478D01*
X208129Y-22512D01*
X208115Y-22554D01*
X208084Y-22641D01*
X208046Y-22727D01*
X208008Y-22807D01*
X207987Y-22842D01*
X207966Y-22873D01*
X207959Y-22880D01*
X207945Y-22897D01*
X207921Y-22929D01*
X207890Y-22963D01*
X207848Y-23002D01*
X207803Y-23040D01*
X207748Y-23081D01*
X207689Y-23116D01*
X207685D01*
X207682Y-23120D01*
X207671Y-23123D01*
X207657Y-23130D01*
X207623Y-23144D01*
X207578Y-23158D01*
X207519Y-23172D01*
X207453Y-23186D01*
X207383Y-23196D01*
X207304Y-23199D01*
X207300D01*
X207286D01*
X207265D01*
X207241Y-23196D01*
X207206Y-23192D01*
X207168Y-23186D01*
X207126Y-23179D01*
X207081Y-23168D01*
X207033Y-23154D01*
X206984Y-23140D01*
X206932Y-23120D01*
X206880Y-23095D01*
X206828Y-23067D01*
X206776Y-23033D01*
X206727Y-22995D01*
X206679Y-22953D01*
X206675Y-22950D01*
X206668Y-22943D01*
X206655Y-22929D01*
X206641Y-22908D01*
X206623Y-22884D01*
X206603Y-22852D01*
X206578Y-22818D01*
X206554Y-22776D01*
X206533Y-22731D01*
X206509Y-22679D01*
X206488Y-22623D01*
X206471Y-22564D01*
X206457Y-22502D01*
X206443Y-22433D01*
X206436Y-22360D01*
X206433Y-22283D01*
Y-22235D01*
X206436Y-22210D01*
X206439Y-22179D01*
X206443Y-22148D01*
X206446Y-22113D01*
X206460Y-22033D01*
X206481Y-21950D01*
X206509Y-21863D01*
X206547Y-21780D01*
Y-21777D01*
X206554Y-21770D01*
X206557Y-21759D01*
X206568Y-21745D01*
X206596Y-21704D01*
X206630Y-21655D01*
X206679Y-21603D01*
X206734Y-21544D01*
X206800Y-21492D01*
X206877Y-21443D01*
X206880D01*
X206887Y-21437D01*
X206897Y-21433D01*
X206915Y-21423D01*
X206936Y-21416D01*
X206960Y-21405D01*
X206988Y-21392D01*
X207019Y-21381D01*
X207092Y-21357D01*
X207175Y-21336D01*
X207272Y-21319D01*
X207376Y-21312D01*
X207408Y-21641D01*
X207404D01*
X207394D01*
X207376Y-21645D01*
X207355Y-21648D01*
X207331Y-21652D01*
X207304Y-21659D01*
X207234Y-21676D01*
X207161Y-21700D01*
X207085Y-21732D01*
X207012Y-21773D01*
X206981Y-21801D01*
X206949Y-21829D01*
X206946D01*
X206943Y-21836D01*
X206936Y-21846D01*
X206925Y-21857D01*
X206915Y-21874D01*
X206901Y-21895D01*
X206873Y-21943D01*
X206849Y-22006D01*
X206825Y-22082D01*
X206807Y-22172D01*
X206800Y-22221D01*
Y-22301D01*
X206804Y-22321D01*
Y-22346D01*
X206807Y-22374D01*
X206818Y-22436D01*
X206832Y-22509D01*
X206856Y-22582D01*
X206887Y-22655D01*
X206932Y-22717D01*
X206939Y-22724D01*
X206957Y-22741D01*
X206984Y-22766D01*
X207022Y-22793D01*
X207071Y-22821D01*
X207130Y-22845D01*
X207196Y-22863D01*
X207231Y-22866D01*
X207269Y-22870D01*
X207272D01*
X207276D01*
X207286D01*
X207300Y-22866D01*
X207335Y-22863D01*
X207376Y-22856D01*
X207425Y-22842D01*
X207473Y-22821D01*
X207522Y-22797D01*
X207567Y-22759D01*
X207571Y-22752D01*
X207578Y-22745D01*
X207585Y-22734D01*
X207595Y-22720D01*
X207605Y-22703D01*
X207619Y-22679D01*
X207633Y-22655D01*
X207647Y-22623D01*
X207664Y-22589D01*
X207682Y-22547D01*
X207699Y-22498D01*
X207720Y-22446D01*
X207737Y-22391D01*
X207758Y-22325D01*
X207779Y-22255D01*
Y-22252D01*
X207782Y-22238D01*
X207789Y-22221D01*
X207796Y-22193D01*
X207807Y-22162D01*
X207817Y-22127D01*
X207831Y-22085D01*
X207841Y-22044D01*
X207873Y-21957D01*
X207904Y-21867D01*
X207918Y-21825D01*
X207935Y-21787D01*
X207952Y-21749D01*
X207966Y-21718D01*
Y-21714D01*
X207973Y-21707D01*
X207980Y-21693D01*
X207987Y-21679D01*
X208001Y-21659D01*
X208015Y-21638D01*
X208053Y-21586D01*
X208098Y-21527D01*
X208154Y-21468D01*
X208216Y-21409D01*
X208285Y-21360D01*
X208289D01*
X208296Y-21353D01*
X208306Y-21350D01*
X208320Y-21339D01*
X208337Y-21332D01*
X208362Y-21322D01*
X208386Y-21308D01*
X208417Y-21298D01*
X208487Y-21273D01*
X208566Y-21256D01*
X208653Y-21242D01*
X208754Y-21235D01*
X208757D01*
X208764D01*
X208782D01*
X208799Y-21239D01*
D02*
G37*
G36*
X208667Y-7501D02*
X208695Y-7508D01*
X208730Y-7515D01*
X208775Y-7529D01*
X208827Y-7546D01*
X208882Y-7564D01*
X208941Y-7588D01*
X209007Y-7612D01*
X209073Y-7643D01*
X209139Y-7675D01*
X209205Y-7713D01*
X209271Y-7751D01*
X209330Y-7796D01*
X209389Y-7845D01*
X209441Y-7897D01*
X209444Y-7900D01*
X209451Y-7910D01*
X209465Y-7924D01*
X209483Y-7949D01*
X209500Y-7976D01*
X209524Y-8008D01*
X209545Y-8046D01*
X209569Y-8091D01*
X209594Y-8140D01*
X209618Y-8191D01*
X209642Y-8247D01*
X209660Y-8309D01*
X209677Y-8375D01*
X209691Y-8441D01*
X209698Y-8514D01*
X209701Y-8591D01*
Y-8625D01*
X209698Y-8650D01*
X209694Y-8681D01*
X209691Y-8719D01*
X209687Y-8757D01*
X209680Y-8802D01*
X209660Y-8899D01*
X209628Y-9003D01*
X209608Y-9055D01*
X209583Y-9108D01*
X209559Y-9160D01*
X209528Y-9208D01*
X209524Y-9212D01*
X209521Y-9219D01*
X209510Y-9233D01*
X209493Y-9250D01*
X209476Y-9271D01*
X209451Y-9298D01*
X209424Y-9326D01*
X209392Y-9354D01*
X209354Y-9389D01*
X209313Y-9420D01*
X209267Y-9455D01*
X209215Y-9489D01*
X209160Y-9524D01*
X209101Y-9559D01*
X209035Y-9593D01*
X208966Y-9625D01*
X208962D01*
X208948Y-9632D01*
X208927Y-9639D01*
X208896Y-9649D01*
X208858Y-9663D01*
X208813Y-9677D01*
X208764Y-9691D01*
X208705Y-9704D01*
X208639Y-9718D01*
X208570Y-9732D01*
X208494Y-9746D01*
X208414Y-9760D01*
X208327Y-9770D01*
X208237Y-9777D01*
X208143Y-9781D01*
X208046Y-9784D01*
X208039D01*
X208022D01*
X207994D01*
X207959Y-9781D01*
X207914D01*
X207862Y-9777D01*
X207803Y-9770D01*
X207741Y-9763D01*
X207671Y-9757D01*
X207602Y-9746D01*
X207456Y-9718D01*
X207307Y-9677D01*
X207234Y-9652D01*
X207165Y-9625D01*
X207161Y-9621D01*
X207147Y-9618D01*
X207130Y-9607D01*
X207106Y-9593D01*
X207074Y-9579D01*
X207040Y-9559D01*
X207002Y-9534D01*
X206960Y-9507D01*
X206873Y-9444D01*
X206783Y-9371D01*
X206696Y-9281D01*
X206655Y-9236D01*
X206620Y-9184D01*
X206616Y-9181D01*
X206613Y-9170D01*
X206603Y-9156D01*
X206592Y-9135D01*
X206575Y-9108D01*
X206561Y-9076D01*
X206543Y-9042D01*
X206526Y-9000D01*
X206509Y-8955D01*
X206491Y-8906D01*
X206460Y-8802D01*
X206439Y-8684D01*
X206436Y-8622D01*
X206433Y-8559D01*
Y-8521D01*
X206436Y-8497D01*
X206439Y-8466D01*
X206446Y-8427D01*
X206453Y-8386D01*
X206460Y-8337D01*
X206491Y-8237D01*
X206509Y-8185D01*
X206533Y-8129D01*
X206557Y-8077D01*
X206592Y-8021D01*
X206627Y-7969D01*
X206668Y-7917D01*
X206672Y-7914D01*
X206679Y-7907D01*
X206693Y-7893D01*
X206710Y-7872D01*
X206734Y-7852D01*
X206766Y-7827D01*
X206800Y-7799D01*
X206842Y-7768D01*
X206887Y-7737D01*
X206939Y-7706D01*
X206995Y-7675D01*
X207054Y-7643D01*
X207123Y-7612D01*
X207192Y-7584D01*
X207269Y-7557D01*
X207352Y-7536D01*
X207449Y-7872D01*
X207446D01*
X207442Y-7876D01*
X207421Y-7879D01*
X207387Y-7893D01*
X207345Y-7907D01*
X207296Y-7928D01*
X207241Y-7956D01*
X207182Y-7987D01*
X207119Y-8025D01*
X207057Y-8067D01*
X206998Y-8119D01*
X206943Y-8174D01*
X206894Y-8237D01*
X206852Y-8309D01*
X206818Y-8386D01*
X206797Y-8473D01*
X206793Y-8518D01*
X206790Y-8566D01*
Y-8591D01*
X206793Y-8611D01*
Y-8632D01*
X206797Y-8660D01*
X206807Y-8719D01*
X206821Y-8792D01*
X206845Y-8865D01*
X206880Y-8945D01*
X206925Y-9017D01*
Y-9021D01*
X206932Y-9024D01*
X206939Y-9035D01*
X206949Y-9049D01*
X206981Y-9083D01*
X207026Y-9125D01*
X207085Y-9173D01*
X207154Y-9222D01*
X207241Y-9274D01*
X207286Y-9298D01*
X207338Y-9319D01*
X207342D01*
X207352Y-9323D01*
X207366Y-9330D01*
X207390Y-9337D01*
X207418Y-9344D01*
X207449Y-9354D01*
X207487Y-9364D01*
X207533Y-9375D01*
X207581Y-9385D01*
X207633Y-9396D01*
X207692Y-9406D01*
X207755Y-9413D01*
X207821Y-9420D01*
X207893Y-9427D01*
X207966Y-9430D01*
X208046D01*
X208050D01*
X208053D01*
X208074D01*
X208108D01*
X208154Y-9427D01*
X208206Y-9423D01*
X208268Y-9420D01*
X208337Y-9413D01*
X208410Y-9403D01*
X208490Y-9389D01*
X208570Y-9375D01*
X208650Y-9357D01*
X208730Y-9337D01*
X208809Y-9309D01*
X208886Y-9278D01*
X208955Y-9243D01*
X209021Y-9205D01*
X209025Y-9201D01*
X209035Y-9194D01*
X209052Y-9181D01*
X209070Y-9163D01*
X209097Y-9139D01*
X209122Y-9111D01*
X209153Y-9080D01*
X209181Y-9042D01*
X209212Y-9000D01*
X209243Y-8955D01*
X209267Y-8906D01*
X209292Y-8851D01*
X209313Y-8795D01*
X209330Y-8733D01*
X209340Y-8667D01*
X209344Y-8597D01*
Y-8570D01*
X209340Y-8549D01*
X209337Y-8525D01*
X209333Y-8497D01*
X209319Y-8431D01*
X209295Y-8355D01*
X209278Y-8316D01*
X209261Y-8275D01*
X209236Y-8233D01*
X209212Y-8191D01*
X209181Y-8150D01*
X209146Y-8112D01*
X209143Y-8108D01*
X209136Y-8101D01*
X209125Y-8091D01*
X209108Y-8077D01*
X209087Y-8063D01*
X209059Y-8042D01*
X209032Y-8021D01*
X208993Y-8001D01*
X208955Y-7976D01*
X208910Y-7956D01*
X208858Y-7931D01*
X208806Y-7910D01*
X208747Y-7890D01*
X208681Y-7869D01*
X208612Y-7852D01*
X208539Y-7838D01*
X208643Y-7494D01*
X208650D01*
X208667Y-7501D01*
D02*
G37*
G36*
X208143Y-10163D02*
X208188D01*
X208244Y-10166D01*
X208303Y-10173D01*
X208369Y-10180D01*
X208438Y-10187D01*
X208511Y-10197D01*
X208664Y-10225D01*
X208820Y-10267D01*
X208893Y-10291D01*
X208966Y-10319D01*
X208969D01*
X208983Y-10326D01*
X209000Y-10336D01*
X209025Y-10346D01*
X209056Y-10364D01*
X209090Y-10381D01*
X209129Y-10402D01*
X209170Y-10426D01*
X209257Y-10485D01*
X209344Y-10555D01*
X209427Y-10634D01*
X209462Y-10676D01*
X209493Y-10721D01*
Y-10725D01*
X209500Y-10732D01*
X209507Y-10745D01*
X209517Y-10766D01*
X209528Y-10791D01*
X209542Y-10818D01*
X209556Y-10853D01*
X209569Y-10895D01*
X209587Y-10940D01*
X209601Y-10988D01*
X209614Y-11040D01*
X209625Y-11096D01*
X209635Y-11158D01*
X209642Y-11224D01*
X209646Y-11294D01*
X209649Y-11367D01*
Y-12300D01*
X206488D01*
Y-11325D01*
X206491Y-11294D01*
X206495Y-11221D01*
X206502Y-11138D01*
X206512Y-11054D01*
X206526Y-10975D01*
X206537Y-10940D01*
X206547Y-10905D01*
Y-10902D01*
X206551Y-10895D01*
X206554Y-10884D01*
X206561Y-10867D01*
X206571Y-10846D01*
X206582Y-10825D01*
X206610Y-10770D01*
X206648Y-10707D01*
X206696Y-10641D01*
X206755Y-10575D01*
X206825Y-10513D01*
X206828Y-10509D01*
X206835Y-10506D01*
X206845Y-10496D01*
X206859Y-10485D01*
X206880Y-10471D01*
X206904Y-10454D01*
X206932Y-10437D01*
X206963Y-10419D01*
X206998Y-10398D01*
X207036Y-10378D01*
X207123Y-10333D01*
X207220Y-10291D01*
X207331Y-10253D01*
X207335D01*
X207345Y-10249D01*
X207362Y-10242D01*
X207383Y-10239D01*
X207415Y-10232D01*
X207449Y-10221D01*
X207487Y-10215D01*
X207536Y-10204D01*
X207585Y-10197D01*
X207640Y-10190D01*
X207699Y-10180D01*
X207762Y-10173D01*
X207831Y-10166D01*
X207900Y-10163D01*
X208053Y-10159D01*
X208060D01*
X208077D01*
X208105D01*
X208143Y-10163D01*
D02*
G37*
G36*
X208799Y3375D02*
X208823D01*
X208851Y3371D01*
X208882Y3368D01*
X208917Y3361D01*
X208993Y3347D01*
X209077Y3323D01*
X209160Y3291D01*
X209247Y3250D01*
X209250D01*
X209257Y3243D01*
X209267Y3236D01*
X209281Y3226D01*
X209323Y3198D01*
X209372Y3160D01*
X209427Y3108D01*
X209483Y3049D01*
X209538Y2979D01*
X209587Y2903D01*
Y2899D01*
X209590Y2892D01*
X209597Y2882D01*
X209604Y2865D01*
X209614Y2844D01*
X209621Y2816D01*
X209632Y2788D01*
X209642Y2754D01*
X209656Y2719D01*
X209666Y2677D01*
X209684Y2587D01*
X209698Y2486D01*
X209701Y2375D01*
Y2355D01*
X209698Y2330D01*
Y2296D01*
X209691Y2254D01*
X209687Y2209D01*
X209677Y2157D01*
X209666Y2098D01*
X209649Y2039D01*
X209632Y1976D01*
X209608Y1914D01*
X209580Y1848D01*
X209545Y1785D01*
X209507Y1723D01*
X209465Y1664D01*
X209413Y1609D01*
X209410Y1605D01*
X209399Y1598D01*
X209382Y1581D01*
X209361Y1563D01*
X209330Y1543D01*
X209295Y1518D01*
X209254Y1491D01*
X209205Y1466D01*
X209153Y1438D01*
X209094Y1411D01*
X209028Y1386D01*
X208959Y1366D01*
X208882Y1345D01*
X208803Y1331D01*
X208716Y1317D01*
X208626Y1314D01*
X208594Y1636D01*
X208598D01*
X208605D01*
X208619Y1640D01*
X208636Y1643D01*
X208660D01*
X208684Y1650D01*
X208744Y1660D01*
X208809Y1674D01*
X208879Y1695D01*
X208945Y1719D01*
X209004Y1751D01*
X209011Y1754D01*
X209028Y1768D01*
X209056Y1789D01*
X209087Y1820D01*
X209125Y1855D01*
X209163Y1900D01*
X209202Y1956D01*
X209236Y2015D01*
Y2018D01*
X209240Y2021D01*
X209243Y2032D01*
X209250Y2046D01*
X209264Y2080D01*
X209278Y2125D01*
X209295Y2184D01*
X209309Y2250D01*
X209319Y2320D01*
X209323Y2400D01*
Y2427D01*
X209319Y2452D01*
Y2476D01*
X209316Y2504D01*
X209306Y2573D01*
X209288Y2650D01*
X209261Y2729D01*
X209226Y2806D01*
X209177Y2875D01*
X209174Y2878D01*
X209170Y2882D01*
X209150Y2903D01*
X209118Y2930D01*
X209073Y2962D01*
X209018Y2993D01*
X208952Y3017D01*
X208875Y3038D01*
X208834Y3042D01*
X208789Y3045D01*
X208782D01*
X208764D01*
X208740Y3042D01*
X208705Y3038D01*
X208667Y3031D01*
X208629Y3017D01*
X208587Y3003D01*
X208546Y2983D01*
X208542Y2979D01*
X208528Y2972D01*
X208508Y2955D01*
X208487Y2937D01*
X208459Y2910D01*
X208431Y2878D01*
X208403Y2840D01*
X208376Y2795D01*
X208372Y2788D01*
X208369Y2781D01*
X208362Y2771D01*
X208355Y2754D01*
X208348Y2736D01*
X208337Y2712D01*
X208327Y2684D01*
X208313Y2650D01*
X208299Y2611D01*
X208282Y2566D01*
X208265Y2518D01*
X208247Y2462D01*
X208226Y2403D01*
X208206Y2334D01*
X208185Y2261D01*
Y2257D01*
X208181Y2244D01*
X208174Y2226D01*
X208164Y2202D01*
X208157Y2171D01*
X208143Y2136D01*
X208129Y2101D01*
X208116Y2060D01*
X208084Y1973D01*
X208046Y1886D01*
X208008Y1806D01*
X207987Y1772D01*
X207966Y1740D01*
X207959Y1733D01*
X207945Y1716D01*
X207921Y1685D01*
X207890Y1650D01*
X207848Y1612D01*
X207803Y1574D01*
X207748Y1532D01*
X207689Y1497D01*
X207685D01*
X207682Y1494D01*
X207671Y1491D01*
X207657Y1484D01*
X207623Y1470D01*
X207578Y1456D01*
X207519Y1442D01*
X207453Y1428D01*
X207383Y1418D01*
X207304Y1414D01*
X207300D01*
X207286D01*
X207265D01*
X207241Y1418D01*
X207206Y1421D01*
X207168Y1428D01*
X207126Y1435D01*
X207081Y1445D01*
X207033Y1459D01*
X206984Y1473D01*
X206932Y1494D01*
X206880Y1518D01*
X206828Y1546D01*
X206776Y1581D01*
X206727Y1619D01*
X206679Y1660D01*
X206675Y1664D01*
X206668Y1671D01*
X206655Y1685D01*
X206641Y1706D01*
X206623Y1730D01*
X206603Y1761D01*
X206578Y1796D01*
X206554Y1837D01*
X206533Y1883D01*
X206509Y1935D01*
X206488Y1990D01*
X206471Y2049D01*
X206457Y2112D01*
X206443Y2181D01*
X206436Y2254D01*
X206433Y2330D01*
Y2379D01*
X206436Y2403D01*
X206439Y2434D01*
X206443Y2466D01*
X206446Y2500D01*
X206460Y2580D01*
X206481Y2663D01*
X206509Y2750D01*
X206547Y2833D01*
Y2837D01*
X206554Y2844D01*
X206557Y2854D01*
X206568Y2868D01*
X206596Y2910D01*
X206630Y2958D01*
X206679Y3010D01*
X206734Y3069D01*
X206800Y3121D01*
X206877Y3170D01*
X206880D01*
X206887Y3177D01*
X206897Y3180D01*
X206915Y3191D01*
X206936Y3198D01*
X206960Y3208D01*
X206988Y3222D01*
X207019Y3232D01*
X207092Y3257D01*
X207175Y3277D01*
X207272Y3295D01*
X207376Y3302D01*
X207408Y2972D01*
X207404D01*
X207394D01*
X207376Y2969D01*
X207355Y2965D01*
X207331Y2962D01*
X207304Y2955D01*
X207234Y2937D01*
X207161Y2913D01*
X207085Y2882D01*
X207012Y2840D01*
X206981Y2813D01*
X206949Y2785D01*
X206946D01*
X206943Y2778D01*
X206936Y2767D01*
X206925Y2757D01*
X206915Y2740D01*
X206901Y2719D01*
X206873Y2670D01*
X206849Y2608D01*
X206825Y2531D01*
X206807Y2441D01*
X206800Y2393D01*
Y2313D01*
X206804Y2292D01*
Y2268D01*
X206807Y2240D01*
X206818Y2178D01*
X206832Y2105D01*
X206856Y2032D01*
X206887Y1959D01*
X206932Y1897D01*
X206939Y1890D01*
X206957Y1872D01*
X206984Y1848D01*
X207022Y1820D01*
X207071Y1792D01*
X207130Y1768D01*
X207196Y1751D01*
X207231Y1747D01*
X207269Y1744D01*
X207272D01*
X207276D01*
X207286D01*
X207300Y1747D01*
X207335Y1751D01*
X207376Y1758D01*
X207425Y1772D01*
X207473Y1792D01*
X207522Y1817D01*
X207567Y1855D01*
X207571Y1862D01*
X207578Y1869D01*
X207585Y1879D01*
X207595Y1893D01*
X207605Y1910D01*
X207619Y1935D01*
X207633Y1959D01*
X207647Y1990D01*
X207664Y2025D01*
X207682Y2066D01*
X207699Y2115D01*
X207720Y2167D01*
X207737Y2223D01*
X207758Y2289D01*
X207779Y2358D01*
Y2362D01*
X207782Y2375D01*
X207789Y2393D01*
X207796Y2420D01*
X207807Y2452D01*
X207817Y2486D01*
X207831Y2528D01*
X207841Y2570D01*
X207873Y2656D01*
X207904Y2747D01*
X207918Y2788D01*
X207935Y2826D01*
X207952Y2865D01*
X207966Y2896D01*
Y2899D01*
X207973Y2906D01*
X207980Y2920D01*
X207987Y2934D01*
X208001Y2955D01*
X208015Y2976D01*
X208053Y3028D01*
X208098Y3087D01*
X208154Y3146D01*
X208216Y3205D01*
X208285Y3253D01*
X208289D01*
X208296Y3260D01*
X208306Y3264D01*
X208320Y3274D01*
X208337Y3281D01*
X208362Y3291D01*
X208386Y3305D01*
X208417Y3316D01*
X208487Y3340D01*
X208567Y3357D01*
X208653Y3371D01*
X208754Y3378D01*
X208757D01*
X208764D01*
X208782D01*
X208799Y3375D01*
D02*
G37*
G36*
X209649Y-977D02*
X206488D01*
Y897D01*
X206859D01*
Y-633D01*
X207827D01*
Y803D01*
X208199D01*
Y-633D01*
X209278D01*
Y956D01*
X209649D01*
Y-977D01*
D02*
G37*
G36*
Y-1750D02*
X208993Y-2094D01*
X208990Y-2097D01*
X208976Y-2104D01*
X208955Y-2115D01*
X208931Y-2125D01*
X208900Y-2143D01*
X208865Y-2163D01*
X208785Y-2208D01*
X208698Y-2257D01*
X208612Y-2309D01*
X208570Y-2333D01*
X208535Y-2358D01*
X208501Y-2379D01*
X208473Y-2399D01*
X208466Y-2403D01*
X208452Y-2417D01*
X208428Y-2437D01*
X208400Y-2462D01*
X208369Y-2493D01*
X208341Y-2524D01*
X208313Y-2559D01*
X208292Y-2597D01*
X208289Y-2601D01*
X208285Y-2615D01*
X208278Y-2635D01*
X208268Y-2667D01*
X208258Y-2705D01*
X208251Y-2750D01*
X208247Y-2802D01*
X208244Y-2864D01*
Y-3257D01*
X209649D01*
Y-3600D01*
X206488D01*
Y-2392D01*
X206491Y-2365D01*
Y-2330D01*
X206495Y-2292D01*
X206498Y-2250D01*
X206509Y-2167D01*
X206526Y-2077D01*
X206547Y-1997D01*
X206561Y-1959D01*
X206578Y-1924D01*
Y-1921D01*
X206582Y-1917D01*
X206596Y-1896D01*
X206616Y-1861D01*
X206648Y-1823D01*
X206689Y-1778D01*
X206738Y-1730D01*
X206800Y-1685D01*
X206873Y-1640D01*
X206877D01*
X206884Y-1636D01*
X206894Y-1629D01*
X206908Y-1622D01*
X206929Y-1615D01*
X206953Y-1605D01*
X206977Y-1594D01*
X207009Y-1584D01*
X207078Y-1563D01*
X207161Y-1546D01*
X207251Y-1532D01*
X207349Y-1528D01*
X207352D01*
X207366D01*
X207383D01*
X207408Y-1532D01*
X207439Y-1535D01*
X207473Y-1539D01*
X207515Y-1542D01*
X207557Y-1553D01*
X207650Y-1574D01*
X207748Y-1608D01*
X207796Y-1629D01*
X207841Y-1653D01*
X207890Y-1681D01*
X207931Y-1716D01*
X207935Y-1719D01*
X207942Y-1723D01*
X207952Y-1737D01*
X207966Y-1750D01*
X207984Y-1771D01*
X208004Y-1792D01*
X208025Y-1820D01*
X208050Y-1855D01*
X208074Y-1889D01*
X208098Y-1931D01*
X208122Y-1976D01*
X208143Y-2025D01*
X208164Y-2077D01*
X208185Y-2132D01*
X208199Y-2191D01*
X208213Y-2257D01*
X208216Y-2250D01*
X208226Y-2233D01*
X208244Y-2208D01*
X208268Y-2177D01*
X208292Y-2143D01*
X208324Y-2104D01*
X208355Y-2070D01*
X208390Y-2039D01*
X208393Y-2035D01*
X208397Y-2032D01*
X208407Y-2025D01*
X208421Y-2014D01*
X208459Y-1983D01*
X208508Y-1948D01*
X208567Y-1907D01*
X208636Y-1861D01*
X208712Y-1816D01*
X208792Y-1771D01*
X209649Y-1317D01*
Y-1750D01*
D02*
G37*
G36*
X208799Y12264D02*
X208823D01*
X208851Y12260D01*
X208882Y12257D01*
X208917Y12250D01*
X208993Y12236D01*
X209077Y12212D01*
X209160Y12180D01*
X209247Y12139D01*
X209250D01*
X209257Y12132D01*
X209267Y12125D01*
X209281Y12115D01*
X209323Y12087D01*
X209372Y12049D01*
X209427Y11997D01*
X209483Y11937D01*
X209538Y11868D01*
X209587Y11792D01*
Y11788D01*
X209590Y11781D01*
X209597Y11771D01*
X209604Y11754D01*
X209614Y11733D01*
X209621Y11705D01*
X209632Y11677D01*
X209642Y11643D01*
X209656Y11608D01*
X209666Y11566D01*
X209684Y11476D01*
X209698Y11375D01*
X209701Y11264D01*
Y11243D01*
X209698Y11219D01*
Y11185D01*
X209691Y11143D01*
X209687Y11098D01*
X209677Y11046D01*
X209666Y10987D01*
X209649Y10928D01*
X209632Y10865D01*
X209608Y10803D01*
X209580Y10737D01*
X209545Y10674D01*
X209507Y10612D01*
X209465Y10553D01*
X209413Y10498D01*
X209410Y10494D01*
X209399Y10487D01*
X209382Y10470D01*
X209361Y10452D01*
X209330Y10431D01*
X209295Y10407D01*
X209254Y10379D01*
X209205Y10355D01*
X209153Y10327D01*
X209094Y10300D01*
X209028Y10275D01*
X208959Y10255D01*
X208882Y10234D01*
X208803Y10220D01*
X208716Y10206D01*
X208626Y10203D01*
X208594Y10525D01*
X208598D01*
X208605D01*
X208619Y10529D01*
X208636Y10532D01*
X208660D01*
X208684Y10539D01*
X208744Y10549D01*
X208809Y10563D01*
X208879Y10584D01*
X208945Y10609D01*
X209004Y10640D01*
X209011Y10643D01*
X209028Y10657D01*
X209056Y10678D01*
X209087Y10709D01*
X209125Y10744D01*
X209163Y10789D01*
X209202Y10845D01*
X209236Y10903D01*
Y10907D01*
X209240Y10910D01*
X209243Y10921D01*
X209250Y10935D01*
X209264Y10969D01*
X209278Y11015D01*
X209295Y11073D01*
X209309Y11139D01*
X209319Y11209D01*
X209323Y11289D01*
Y11316D01*
X209319Y11341D01*
Y11365D01*
X209316Y11393D01*
X209306Y11462D01*
X209288Y11539D01*
X209261Y11618D01*
X209226Y11695D01*
X209177Y11764D01*
X209174Y11767D01*
X209170Y11771D01*
X209150Y11792D01*
X209118Y11819D01*
X209073Y11851D01*
X209018Y11882D01*
X208952Y11906D01*
X208875Y11927D01*
X208834Y11931D01*
X208789Y11934D01*
X208782D01*
X208764D01*
X208740Y11931D01*
X208705Y11927D01*
X208667Y11920D01*
X208629Y11906D01*
X208587Y11892D01*
X208546Y11872D01*
X208542Y11868D01*
X208528Y11861D01*
X208507Y11844D01*
X208487Y11827D01*
X208459Y11799D01*
X208431Y11767D01*
X208403Y11729D01*
X208376Y11684D01*
X208372Y11677D01*
X208369Y11670D01*
X208362Y11660D01*
X208355Y11643D01*
X208348Y11625D01*
X208337Y11601D01*
X208327Y11573D01*
X208313Y11539D01*
X208299Y11500D01*
X208282Y11455D01*
X208265Y11407D01*
X208247Y11351D01*
X208226Y11292D01*
X208206Y11223D01*
X208185Y11150D01*
Y11146D01*
X208181Y11133D01*
X208174Y11115D01*
X208164Y11091D01*
X208157Y11060D01*
X208143Y11025D01*
X208129Y10990D01*
X208115Y10949D01*
X208084Y10862D01*
X208046Y10775D01*
X208008Y10695D01*
X207987Y10661D01*
X207966Y10629D01*
X207959Y10622D01*
X207945Y10605D01*
X207921Y10574D01*
X207890Y10539D01*
X207848Y10501D01*
X207803Y10463D01*
X207748Y10421D01*
X207689Y10386D01*
X207685D01*
X207682Y10383D01*
X207671Y10379D01*
X207657Y10373D01*
X207623Y10359D01*
X207578Y10345D01*
X207519Y10331D01*
X207453Y10317D01*
X207383Y10307D01*
X207304Y10303D01*
X207300D01*
X207286D01*
X207265D01*
X207241Y10307D01*
X207206Y10310D01*
X207168Y10317D01*
X207126Y10324D01*
X207081Y10334D01*
X207033Y10348D01*
X206984Y10362D01*
X206932Y10383D01*
X206880Y10407D01*
X206828Y10435D01*
X206776Y10470D01*
X206727Y10508D01*
X206679Y10549D01*
X206675Y10553D01*
X206668Y10560D01*
X206655Y10574D01*
X206641Y10595D01*
X206623Y10619D01*
X206603Y10650D01*
X206578Y10685D01*
X206554Y10727D01*
X206533Y10772D01*
X206509Y10824D01*
X206488Y10879D01*
X206471Y10938D01*
X206457Y11001D01*
X206443Y11070D01*
X206436Y11143D01*
X206433Y11219D01*
Y11268D01*
X206436Y11292D01*
X206439Y11323D01*
X206443Y11355D01*
X206446Y11389D01*
X206460Y11469D01*
X206481Y11552D01*
X206509Y11639D01*
X206547Y11722D01*
Y11726D01*
X206554Y11733D01*
X206557Y11743D01*
X206568Y11757D01*
X206596Y11799D01*
X206630Y11847D01*
X206679Y11899D01*
X206734Y11958D01*
X206800Y12010D01*
X206877Y12059D01*
X206880D01*
X206887Y12066D01*
X206897Y12069D01*
X206915Y12080D01*
X206936Y12087D01*
X206960Y12097D01*
X206988Y12111D01*
X207019Y12121D01*
X207092Y12146D01*
X207175Y12167D01*
X207272Y12184D01*
X207376Y12191D01*
X207408Y11861D01*
X207404D01*
X207394D01*
X207376Y11858D01*
X207355Y11854D01*
X207331Y11851D01*
X207304Y11844D01*
X207234Y11827D01*
X207161Y11802D01*
X207085Y11771D01*
X207012Y11729D01*
X206981Y11701D01*
X206949Y11674D01*
X206946D01*
X206943Y11667D01*
X206936Y11656D01*
X206925Y11646D01*
X206915Y11629D01*
X206901Y11608D01*
X206873Y11559D01*
X206849Y11497D01*
X206825Y11421D01*
X206807Y11330D01*
X206800Y11282D01*
Y11202D01*
X206804Y11181D01*
Y11157D01*
X206807Y11129D01*
X206818Y11067D01*
X206832Y10994D01*
X206856Y10921D01*
X206887Y10848D01*
X206932Y10785D01*
X206939Y10779D01*
X206957Y10761D01*
X206984Y10737D01*
X207022Y10709D01*
X207071Y10681D01*
X207130Y10657D01*
X207196Y10640D01*
X207231Y10636D01*
X207269Y10633D01*
X207272D01*
X207276D01*
X207286D01*
X207300Y10636D01*
X207335Y10640D01*
X207376Y10647D01*
X207425Y10661D01*
X207473Y10681D01*
X207522Y10706D01*
X207567Y10744D01*
X207571Y10751D01*
X207578Y10758D01*
X207585Y10768D01*
X207595Y10782D01*
X207605Y10799D01*
X207619Y10824D01*
X207633Y10848D01*
X207647Y10879D01*
X207664Y10914D01*
X207682Y10955D01*
X207699Y11004D01*
X207720Y11056D01*
X207737Y11112D01*
X207758Y11178D01*
X207779Y11247D01*
Y11250D01*
X207782Y11264D01*
X207789Y11282D01*
X207796Y11309D01*
X207807Y11341D01*
X207817Y11375D01*
X207831Y11417D01*
X207841Y11459D01*
X207873Y11545D01*
X207904Y11636D01*
X207918Y11677D01*
X207935Y11715D01*
X207952Y11754D01*
X207966Y11785D01*
Y11788D01*
X207973Y11795D01*
X207980Y11809D01*
X207987Y11823D01*
X208001Y11844D01*
X208015Y11865D01*
X208053Y11917D01*
X208098Y11976D01*
X208154Y12035D01*
X208216Y12094D01*
X208285Y12142D01*
X208289D01*
X208296Y12149D01*
X208306Y12153D01*
X208320Y12163D01*
X208337Y12170D01*
X208362Y12180D01*
X208386Y12194D01*
X208417Y12205D01*
X208487Y12229D01*
X208566Y12246D01*
X208653Y12260D01*
X208754Y12267D01*
X208757D01*
X208764D01*
X208782D01*
X208799Y12264D01*
D02*
G37*
G36*
X208667Y9883D02*
X208695Y9876D01*
X208730Y9869D01*
X208775Y9855D01*
X208827Y9838D01*
X208882Y9821D01*
X208941Y9797D01*
X209007Y9772D01*
X209073Y9741D01*
X209139Y9710D01*
X209205Y9672D01*
X209271Y9633D01*
X209330Y9588D01*
X209389Y9540D01*
X209441Y9488D01*
X209444Y9484D01*
X209451Y9474D01*
X209465Y9460D01*
X209483Y9436D01*
X209500Y9408D01*
X209524Y9377D01*
X209545Y9339D01*
X209569Y9293D01*
X209594Y9245D01*
X209618Y9193D01*
X209642Y9137D01*
X209660Y9075D01*
X209677Y9009D01*
X209691Y8943D01*
X209698Y8870D01*
X209701Y8794D01*
Y8759D01*
X209698Y8735D01*
X209694Y8704D01*
X209691Y8665D01*
X209687Y8627D01*
X209680Y8582D01*
X209660Y8485D01*
X209628Y8381D01*
X209608Y8329D01*
X209583Y8277D01*
X209559Y8225D01*
X209528Y8176D01*
X209524Y8173D01*
X209521Y8166D01*
X209510Y8152D01*
X209493Y8134D01*
X209476Y8114D01*
X209451Y8086D01*
X209424Y8058D01*
X209392Y8030D01*
X209354Y7996D01*
X209313Y7964D01*
X209267Y7930D01*
X209215Y7895D01*
X209160Y7860D01*
X209101Y7825D01*
X209035Y7791D01*
X208966Y7760D01*
X208962D01*
X208948Y7753D01*
X208927Y7746D01*
X208896Y7735D01*
X208858Y7722D01*
X208813Y7708D01*
X208764Y7694D01*
X208705Y7680D01*
X208639Y7666D01*
X208570Y7652D01*
X208494Y7638D01*
X208414Y7624D01*
X208327Y7614D01*
X208237Y7607D01*
X208143Y7604D01*
X208046Y7600D01*
X208039D01*
X208022D01*
X207994D01*
X207959Y7604D01*
X207914D01*
X207862Y7607D01*
X207803Y7614D01*
X207741Y7621D01*
X207671Y7628D01*
X207602Y7638D01*
X207456Y7666D01*
X207307Y7708D01*
X207234Y7732D01*
X207165Y7760D01*
X207161Y7763D01*
X207147Y7767D01*
X207130Y7777D01*
X207106Y7791D01*
X207074Y7805D01*
X207040Y7825D01*
X207002Y7850D01*
X206960Y7878D01*
X206873Y7940D01*
X206783Y8013D01*
X206696Y8103D01*
X206655Y8148D01*
X206620Y8200D01*
X206616Y8204D01*
X206613Y8214D01*
X206603Y8228D01*
X206592Y8249D01*
X206575Y8277D01*
X206561Y8308D01*
X206543Y8343D01*
X206526Y8384D01*
X206509Y8429D01*
X206491Y8478D01*
X206460Y8582D01*
X206439Y8700D01*
X206436Y8762D01*
X206433Y8825D01*
Y8863D01*
X206436Y8887D01*
X206439Y8919D01*
X206446Y8957D01*
X206453Y8998D01*
X206460Y9047D01*
X206491Y9148D01*
X206509Y9200D01*
X206533Y9255D01*
X206557Y9307D01*
X206592Y9363D01*
X206627Y9415D01*
X206668Y9467D01*
X206672Y9470D01*
X206679Y9477D01*
X206693Y9491D01*
X206710Y9512D01*
X206734Y9533D01*
X206766Y9557D01*
X206800Y9585D01*
X206842Y9616D01*
X206887Y9647D01*
X206939Y9679D01*
X206995Y9710D01*
X207054Y9741D01*
X207123Y9772D01*
X207192Y9800D01*
X207269Y9828D01*
X207352Y9849D01*
X207449Y9512D01*
X207446D01*
X207442Y9509D01*
X207421Y9505D01*
X207387Y9491D01*
X207345Y9477D01*
X207296Y9456D01*
X207241Y9429D01*
X207182Y9398D01*
X207119Y9359D01*
X207057Y9318D01*
X206998Y9266D01*
X206943Y9210D01*
X206894Y9148D01*
X206852Y9075D01*
X206818Y8998D01*
X206797Y8912D01*
X206793Y8867D01*
X206790Y8818D01*
Y8794D01*
X206793Y8773D01*
Y8752D01*
X206797Y8724D01*
X206807Y8665D01*
X206821Y8592D01*
X206845Y8519D01*
X206880Y8440D01*
X206925Y8367D01*
Y8363D01*
X206932Y8360D01*
X206939Y8349D01*
X206949Y8336D01*
X206981Y8301D01*
X207026Y8259D01*
X207085Y8211D01*
X207154Y8162D01*
X207241Y8110D01*
X207286Y8086D01*
X207338Y8065D01*
X207342D01*
X207352Y8061D01*
X207366Y8055D01*
X207390Y8048D01*
X207418Y8041D01*
X207449Y8030D01*
X207487Y8020D01*
X207533Y8010D01*
X207581Y7999D01*
X207633Y7989D01*
X207692Y7978D01*
X207755Y7971D01*
X207821Y7964D01*
X207893Y7957D01*
X207966Y7954D01*
X208046D01*
X208050D01*
X208053D01*
X208074D01*
X208108D01*
X208154Y7957D01*
X208206Y7961D01*
X208268Y7964D01*
X208337Y7971D01*
X208410Y7982D01*
X208490Y7996D01*
X208570Y8010D01*
X208650Y8027D01*
X208730Y8048D01*
X208809Y8075D01*
X208886Y8107D01*
X208955Y8141D01*
X209021Y8179D01*
X209025Y8183D01*
X209035Y8190D01*
X209052Y8204D01*
X209070Y8221D01*
X209097Y8245D01*
X209122Y8273D01*
X209153Y8304D01*
X209181Y8343D01*
X209212Y8384D01*
X209243Y8429D01*
X209267Y8478D01*
X209292Y8533D01*
X209313Y8589D01*
X209330Y8651D01*
X209340Y8717D01*
X209344Y8787D01*
Y8815D01*
X209340Y8835D01*
X209337Y8860D01*
X209333Y8887D01*
X209319Y8953D01*
X209295Y9030D01*
X209278Y9068D01*
X209261Y9109D01*
X209236Y9151D01*
X209212Y9193D01*
X209181Y9234D01*
X209146Y9273D01*
X209143Y9276D01*
X209136Y9283D01*
X209125Y9293D01*
X209108Y9307D01*
X209087Y9321D01*
X209059Y9342D01*
X209032Y9363D01*
X208993Y9384D01*
X208955Y9408D01*
X208910Y9429D01*
X208858Y9453D01*
X208806Y9474D01*
X208747Y9495D01*
X208681Y9515D01*
X208612Y9533D01*
X208539Y9547D01*
X208643Y9890D01*
X208650D01*
X208667Y9883D01*
D02*
G37*
G36*
X208143Y23837D02*
X208188D01*
X208244Y23834D01*
X208303Y23827D01*
X208369Y23820D01*
X208438Y23813D01*
X208511Y23803D01*
X208664Y23775D01*
X208820Y23733D01*
X208893Y23709D01*
X208966Y23681D01*
X208969D01*
X208983Y23674D01*
X209000Y23664D01*
X209025Y23654D01*
X209056Y23636D01*
X209090Y23619D01*
X209129Y23598D01*
X209170Y23574D01*
X209257Y23515D01*
X209344Y23445D01*
X209427Y23366D01*
X209462Y23324D01*
X209493Y23279D01*
Y23275D01*
X209500Y23268D01*
X209507Y23255D01*
X209517Y23234D01*
X209528Y23209D01*
X209542Y23182D01*
X209556Y23147D01*
X209569Y23105D01*
X209587Y23060D01*
X209601Y23012D01*
X209614Y22960D01*
X209625Y22904D01*
X209635Y22842D01*
X209642Y22776D01*
X209646Y22706D01*
X209649Y22633D01*
Y21700D01*
X206488D01*
Y22675D01*
X206491Y22706D01*
X206495Y22779D01*
X206502Y22862D01*
X206512Y22946D01*
X206526Y23025D01*
X206537Y23060D01*
X206547Y23095D01*
Y23098D01*
X206551Y23105D01*
X206554Y23116D01*
X206561Y23133D01*
X206571Y23154D01*
X206582Y23175D01*
X206610Y23230D01*
X206648Y23293D01*
X206696Y23359D01*
X206755Y23425D01*
X206825Y23487D01*
X206828Y23491D01*
X206835Y23494D01*
X206845Y23504D01*
X206859Y23515D01*
X206880Y23529D01*
X206904Y23546D01*
X206932Y23563D01*
X206963Y23581D01*
X206998Y23602D01*
X207036Y23622D01*
X207123Y23667D01*
X207220Y23709D01*
X207331Y23747D01*
X207335D01*
X207345Y23751D01*
X207362Y23758D01*
X207383Y23761D01*
X207415Y23768D01*
X207449Y23778D01*
X207487Y23785D01*
X207536Y23796D01*
X207585Y23803D01*
X207640Y23810D01*
X207699Y23820D01*
X207762Y23827D01*
X207831Y23834D01*
X207900Y23837D01*
X208053Y23841D01*
X208060D01*
X208077D01*
X208105D01*
X208143Y23837D01*
D02*
G37*
G36*
X209649Y20777D02*
X207165Y19417D01*
X209649D01*
Y19087D01*
X206488D01*
Y19437D01*
X208980Y20801D01*
X206488D01*
Y21127D01*
X209649D01*
Y20777D01*
D02*
G37*
G36*
X209212Y18594D02*
X209219Y18587D01*
X209233Y18574D01*
X209250Y18553D01*
X209271Y18532D01*
X209292Y18504D01*
X209319Y18473D01*
X209347Y18438D01*
X209406Y18358D01*
X209469Y18272D01*
X209528Y18174D01*
X209580Y18074D01*
Y18070D01*
X209583Y18063D01*
X209590Y18046D01*
X209597Y18029D01*
X209608Y18001D01*
X209618Y17973D01*
X209628Y17939D01*
X209639Y17904D01*
X209663Y17820D01*
X209680Y17727D01*
X209694Y17623D01*
X209701Y17519D01*
Y17480D01*
X209698Y17456D01*
X209694Y17421D01*
X209691Y17383D01*
X209684Y17338D01*
X209677Y17293D01*
X209666Y17241D01*
X209656Y17189D01*
X209621Y17074D01*
X209601Y17016D01*
X209576Y16957D01*
X209545Y16897D01*
X209514Y16842D01*
X209510Y16838D01*
X209503Y16828D01*
X209493Y16814D01*
X209479Y16793D01*
X209458Y16769D01*
X209434Y16741D01*
X209406Y16707D01*
X209372Y16672D01*
X209337Y16637D01*
X209295Y16599D01*
X209250Y16557D01*
X209198Y16519D01*
X209146Y16481D01*
X209087Y16443D01*
X209025Y16408D01*
X208959Y16374D01*
X208955Y16370D01*
X208941Y16367D01*
X208921Y16356D01*
X208893Y16346D01*
X208858Y16332D01*
X208816Y16318D01*
X208768Y16304D01*
X208712Y16287D01*
X208653Y16269D01*
X208584Y16255D01*
X208514Y16242D01*
X208435Y16228D01*
X208355Y16217D01*
X208268Y16207D01*
X208178Y16204D01*
X208084Y16200D01*
X208077D01*
X208060D01*
X208032D01*
X207997Y16204D01*
X207952Y16207D01*
X207900Y16210D01*
X207841Y16214D01*
X207779Y16221D01*
X207710Y16231D01*
X207637Y16242D01*
X207487Y16273D01*
X207411Y16294D01*
X207335Y16318D01*
X207258Y16342D01*
X207186Y16374D01*
X207182Y16377D01*
X207168Y16380D01*
X207147Y16391D01*
X207123Y16405D01*
X207092Y16422D01*
X207054Y16443D01*
X207012Y16467D01*
X206970Y16495D01*
X206877Y16561D01*
X206783Y16637D01*
X206693Y16727D01*
X206655Y16776D01*
X206616Y16828D01*
X206613Y16831D01*
X206610Y16842D01*
X206599Y16856D01*
X206589Y16880D01*
X206575Y16904D01*
X206557Y16939D01*
X206540Y16977D01*
X206523Y17019D01*
X206509Y17064D01*
X206491Y17116D01*
X206474Y17172D01*
X206460Y17231D01*
X206439Y17359D01*
X206436Y17428D01*
X206433Y17498D01*
Y17546D01*
X206436Y17571D01*
X206439Y17598D01*
X206443Y17630D01*
X206446Y17668D01*
X206460Y17744D01*
X206478Y17827D01*
X206505Y17911D01*
X206540Y17994D01*
Y17998D01*
X206543Y18004D01*
X206551Y18015D01*
X206561Y18029D01*
X206582Y18070D01*
X206616Y18119D01*
X206658Y18174D01*
X206710Y18233D01*
X206769Y18292D01*
X206838Y18348D01*
X206842D01*
X206849Y18355D01*
X206859Y18362D01*
X206873Y18372D01*
X206894Y18383D01*
X206918Y18396D01*
X206946Y18410D01*
X206977Y18428D01*
X207012Y18442D01*
X207054Y18459D01*
X207099Y18476D01*
X207144Y18494D01*
X207196Y18511D01*
X207251Y18528D01*
X207307Y18542D01*
X207369Y18556D01*
X207473Y18247D01*
X207470D01*
X207463Y18244D01*
X207449Y18240D01*
X207428Y18237D01*
X207408Y18230D01*
X207383Y18223D01*
X207324Y18206D01*
X207258Y18181D01*
X207192Y18154D01*
X207130Y18122D01*
X207074Y18088D01*
X207067Y18084D01*
X207054Y18070D01*
X207029Y18049D01*
X206998Y18022D01*
X206967Y17987D01*
X206932Y17942D01*
X206897Y17893D01*
X206866Y17838D01*
X206863Y17831D01*
X206856Y17810D01*
X206842Y17779D01*
X206828Y17737D01*
X206814Y17685D01*
X206800Y17626D01*
X206793Y17560D01*
X206790Y17491D01*
Y17463D01*
X206793Y17442D01*
Y17418D01*
X206797Y17390D01*
X206807Y17324D01*
X206825Y17248D01*
X206849Y17165D01*
X206884Y17081D01*
X206929Y17002D01*
Y16998D01*
X206936Y16991D01*
X206943Y16981D01*
X206953Y16967D01*
X206988Y16932D01*
X207033Y16887D01*
X207061Y16859D01*
X207092Y16835D01*
X207126Y16807D01*
X207165Y16780D01*
X207206Y16752D01*
X207255Y16724D01*
X207304Y16700D01*
X207355Y16675D01*
X207359D01*
X207369Y16672D01*
X207383Y16665D01*
X207408Y16658D01*
X207435Y16648D01*
X207470Y16637D01*
X207508Y16627D01*
X207550Y16616D01*
X207602Y16602D01*
X207654Y16592D01*
X207713Y16582D01*
X207775Y16575D01*
X207841Y16564D01*
X207911Y16561D01*
X207984Y16554D01*
X208060D01*
X208067D01*
X208088D01*
X208119Y16557D01*
X208164D01*
X208216Y16561D01*
X208275Y16568D01*
X208345Y16575D01*
X208414Y16589D01*
X208490Y16602D01*
X208570Y16620D01*
X208646Y16641D01*
X208726Y16665D01*
X208803Y16696D01*
X208875Y16731D01*
X208945Y16773D01*
X209007Y16818D01*
X209011Y16821D01*
X209021Y16831D01*
X209035Y16845D01*
X209056Y16866D01*
X209080Y16891D01*
X209108Y16925D01*
X209136Y16960D01*
X209163Y17002D01*
X209195Y17050D01*
X209222Y17102D01*
X209250Y17158D01*
X209274Y17220D01*
X209295Y17286D01*
X209309Y17356D01*
X209319Y17432D01*
X209323Y17508D01*
Y17543D01*
X209319Y17560D01*
Y17584D01*
X209313Y17637D01*
X209299Y17699D01*
X209285Y17768D01*
X209261Y17841D01*
X209229Y17921D01*
Y17925D01*
X209226Y17932D01*
X209219Y17942D01*
X209212Y17956D01*
X209191Y17994D01*
X209163Y18043D01*
X209129Y18098D01*
X209090Y18154D01*
X209045Y18209D01*
X208997Y18261D01*
X208407D01*
Y17501D01*
X208036D01*
X208032Y18598D01*
X209208D01*
X209212Y18594D01*
D02*
G37*
G36*
X208667Y34172D02*
X208695Y34165D01*
X208730Y34158D01*
X208775Y34144D01*
X208827Y34127D01*
X208882Y34110D01*
X208941Y34085D01*
X209007Y34061D01*
X209073Y34030D01*
X209139Y33999D01*
X209205Y33960D01*
X209271Y33922D01*
X209330Y33877D01*
X209389Y33828D01*
X209441Y33777D01*
X209444Y33773D01*
X209451Y33763D01*
X209465Y33749D01*
X209483Y33724D01*
X209500Y33697D01*
X209524Y33665D01*
X209545Y33627D01*
X209569Y33582D01*
X209594Y33534D01*
X209618Y33481D01*
X209642Y33426D01*
X209660Y33364D01*
X209677Y33298D01*
X209691Y33232D01*
X209698Y33159D01*
X209701Y33083D01*
Y33048D01*
X209698Y33024D01*
X209694Y32992D01*
X209691Y32954D01*
X209687Y32916D01*
X209680Y32871D01*
X209660Y32774D01*
X209628Y32669D01*
X209608Y32618D01*
X209583Y32565D01*
X209559Y32513D01*
X209528Y32465D01*
X209524Y32461D01*
X209521Y32454D01*
X209510Y32441D01*
X209493Y32423D01*
X209476Y32402D01*
X209451Y32375D01*
X209424Y32347D01*
X209392Y32319D01*
X209354Y32284D01*
X209313Y32253D01*
X209267Y32219D01*
X209215Y32184D01*
X209160Y32149D01*
X209101Y32114D01*
X209035Y32080D01*
X208966Y32048D01*
X208962D01*
X208948Y32041D01*
X208927Y32035D01*
X208896Y32024D01*
X208858Y32010D01*
X208813Y31996D01*
X208764Y31982D01*
X208705Y31969D01*
X208639Y31955D01*
X208570Y31941D01*
X208494Y31927D01*
X208414Y31913D01*
X208327Y31903D01*
X208237Y31896D01*
X208143Y31892D01*
X208046Y31889D01*
X208039D01*
X208022D01*
X207994D01*
X207959Y31892D01*
X207914D01*
X207862Y31896D01*
X207803Y31903D01*
X207741Y31910D01*
X207671Y31917D01*
X207602Y31927D01*
X207456Y31955D01*
X207307Y31996D01*
X207234Y32021D01*
X207165Y32048D01*
X207161Y32052D01*
X207147Y32055D01*
X207130Y32066D01*
X207106Y32080D01*
X207074Y32094D01*
X207040Y32114D01*
X207002Y32139D01*
X206960Y32166D01*
X206873Y32229D01*
X206783Y32302D01*
X206696Y32392D01*
X206655Y32437D01*
X206620Y32489D01*
X206616Y32493D01*
X206613Y32503D01*
X206603Y32517D01*
X206592Y32538D01*
X206575Y32565D01*
X206561Y32597D01*
X206543Y32631D01*
X206526Y32673D01*
X206509Y32718D01*
X206491Y32767D01*
X206460Y32871D01*
X206439Y32989D01*
X206436Y33051D01*
X206433Y33114D01*
Y33152D01*
X206436Y33176D01*
X206439Y33207D01*
X206446Y33246D01*
X206453Y33287D01*
X206460Y33336D01*
X206491Y33436D01*
X206509Y33489D01*
X206533Y33544D01*
X206557Y33596D01*
X206592Y33652D01*
X206627Y33704D01*
X206668Y33756D01*
X206672Y33759D01*
X206679Y33766D01*
X206693Y33780D01*
X206710Y33801D01*
X206734Y33822D01*
X206766Y33846D01*
X206800Y33874D01*
X206842Y33905D01*
X206887Y33936D01*
X206939Y33967D01*
X206995Y33999D01*
X207054Y34030D01*
X207123Y34061D01*
X207192Y34089D01*
X207269Y34117D01*
X207352Y34137D01*
X207449Y33801D01*
X207446D01*
X207442Y33797D01*
X207421Y33794D01*
X207387Y33780D01*
X207345Y33766D01*
X207296Y33745D01*
X207241Y33718D01*
X207182Y33686D01*
X207119Y33648D01*
X207057Y33606D01*
X206998Y33554D01*
X206943Y33499D01*
X206894Y33436D01*
X206852Y33364D01*
X206818Y33287D01*
X206797Y33200D01*
X206793Y33155D01*
X206790Y33107D01*
Y33083D01*
X206793Y33062D01*
Y33041D01*
X206797Y33013D01*
X206807Y32954D01*
X206821Y32881D01*
X206845Y32808D01*
X206880Y32728D01*
X206925Y32656D01*
Y32652D01*
X206932Y32649D01*
X206939Y32638D01*
X206949Y32624D01*
X206981Y32590D01*
X207026Y32548D01*
X207085Y32500D01*
X207154Y32451D01*
X207241Y32399D01*
X207286Y32375D01*
X207338Y32354D01*
X207342D01*
X207352Y32350D01*
X207366Y32343D01*
X207390Y32336D01*
X207418Y32329D01*
X207449Y32319D01*
X207487Y32309D01*
X207533Y32298D01*
X207581Y32288D01*
X207633Y32277D01*
X207692Y32267D01*
X207755Y32260D01*
X207821Y32253D01*
X207893Y32246D01*
X207966Y32243D01*
X208046D01*
X208050D01*
X208053D01*
X208074D01*
X208108D01*
X208154Y32246D01*
X208206Y32250D01*
X208268Y32253D01*
X208337Y32260D01*
X208410Y32271D01*
X208490Y32284D01*
X208570Y32298D01*
X208650Y32316D01*
X208730Y32336D01*
X208809Y32364D01*
X208886Y32395D01*
X208955Y32430D01*
X209021Y32468D01*
X209025Y32472D01*
X209035Y32479D01*
X209052Y32493D01*
X209070Y32510D01*
X209097Y32534D01*
X209122Y32562D01*
X209153Y32593D01*
X209181Y32631D01*
X209212Y32673D01*
X209243Y32718D01*
X209267Y32767D01*
X209292Y32822D01*
X209313Y32878D01*
X209330Y32940D01*
X209340Y33006D01*
X209344Y33075D01*
Y33103D01*
X209340Y33124D01*
X209337Y33148D01*
X209333Y33176D01*
X209319Y33242D01*
X209295Y33318D01*
X209278Y33357D01*
X209261Y33398D01*
X209236Y33440D01*
X209212Y33481D01*
X209181Y33523D01*
X209146Y33561D01*
X209143Y33565D01*
X209136Y33572D01*
X209125Y33582D01*
X209108Y33596D01*
X209087Y33610D01*
X209059Y33631D01*
X209032Y33652D01*
X208993Y33672D01*
X208955Y33697D01*
X208910Y33718D01*
X208858Y33742D01*
X208806Y33763D01*
X208747Y33783D01*
X208681Y33804D01*
X208612Y33822D01*
X208539Y33836D01*
X208643Y34179D01*
X208650D01*
X208667Y34172D01*
D02*
G37*
G36*
Y31559D02*
X208695Y31552D01*
X208730Y31545D01*
X208775Y31531D01*
X208827Y31514D01*
X208882Y31497D01*
X208941Y31472D01*
X209007Y31448D01*
X209073Y31417D01*
X209139Y31386D01*
X209205Y31348D01*
X209271Y31309D01*
X209330Y31264D01*
X209389Y31216D01*
X209441Y31164D01*
X209444Y31160D01*
X209451Y31150D01*
X209465Y31136D01*
X209483Y31111D01*
X209500Y31084D01*
X209524Y31053D01*
X209545Y31014D01*
X209569Y30969D01*
X209594Y30921D01*
X209618Y30869D01*
X209642Y30813D01*
X209660Y30751D01*
X209677Y30685D01*
X209691Y30619D01*
X209698Y30546D01*
X209701Y30470D01*
Y30435D01*
X209698Y30411D01*
X209694Y30379D01*
X209691Y30341D01*
X209687Y30303D01*
X209680Y30258D01*
X209660Y30161D01*
X209628Y30057D01*
X209608Y30005D01*
X209583Y29952D01*
X209559Y29901D01*
X209528Y29852D01*
X209524Y29848D01*
X209521Y29842D01*
X209510Y29828D01*
X209493Y29810D01*
X209476Y29789D01*
X209451Y29762D01*
X209424Y29734D01*
X209392Y29706D01*
X209354Y29671D01*
X209313Y29640D01*
X209267Y29605D01*
X209215Y29571D01*
X209160Y29536D01*
X209101Y29501D01*
X209035Y29467D01*
X208966Y29436D01*
X208962D01*
X208948Y29429D01*
X208927Y29422D01*
X208896Y29411D01*
X208858Y29397D01*
X208813Y29384D01*
X208764Y29370D01*
X208705Y29356D01*
X208639Y29342D01*
X208570Y29328D01*
X208494Y29314D01*
X208414Y29300D01*
X208327Y29290D01*
X208237Y29283D01*
X208143Y29279D01*
X208046Y29276D01*
X208039D01*
X208022D01*
X207994D01*
X207959Y29279D01*
X207914D01*
X207862Y29283D01*
X207803Y29290D01*
X207741Y29297D01*
X207671Y29304D01*
X207602Y29314D01*
X207456Y29342D01*
X207307Y29384D01*
X207234Y29408D01*
X207165Y29436D01*
X207161Y29439D01*
X207147Y29443D01*
X207130Y29453D01*
X207106Y29467D01*
X207074Y29481D01*
X207040Y29501D01*
X207002Y29526D01*
X206960Y29553D01*
X206873Y29616D01*
X206783Y29689D01*
X206696Y29779D01*
X206655Y29824D01*
X206620Y29876D01*
X206616Y29880D01*
X206613Y29890D01*
X206603Y29904D01*
X206592Y29925D01*
X206575Y29952D01*
X206561Y29984D01*
X206543Y30018D01*
X206526Y30060D01*
X206509Y30105D01*
X206491Y30154D01*
X206460Y30258D01*
X206439Y30376D01*
X206436Y30438D01*
X206433Y30501D01*
Y30539D01*
X206436Y30563D01*
X206439Y30595D01*
X206446Y30633D01*
X206453Y30674D01*
X206460Y30723D01*
X206491Y30823D01*
X206509Y30876D01*
X206533Y30931D01*
X206557Y30983D01*
X206592Y31039D01*
X206627Y31091D01*
X206668Y31143D01*
X206672Y31146D01*
X206679Y31153D01*
X206693Y31167D01*
X206710Y31188D01*
X206734Y31209D01*
X206766Y31233D01*
X206800Y31261D01*
X206842Y31292D01*
X206887Y31323D01*
X206939Y31354D01*
X206995Y31386D01*
X207054Y31417D01*
X207123Y31448D01*
X207192Y31476D01*
X207269Y31504D01*
X207352Y31525D01*
X207449Y31188D01*
X207446D01*
X207442Y31184D01*
X207421Y31181D01*
X207387Y31167D01*
X207345Y31153D01*
X207296Y31132D01*
X207241Y31105D01*
X207182Y31073D01*
X207119Y31035D01*
X207057Y30994D01*
X206998Y30942D01*
X206943Y30886D01*
X206894Y30823D01*
X206852Y30751D01*
X206818Y30674D01*
X206797Y30588D01*
X206793Y30542D01*
X206790Y30494D01*
Y30470D01*
X206793Y30449D01*
Y30428D01*
X206797Y30400D01*
X206807Y30341D01*
X206821Y30268D01*
X206845Y30195D01*
X206880Y30116D01*
X206925Y30043D01*
Y30039D01*
X206932Y30036D01*
X206939Y30025D01*
X206949Y30011D01*
X206981Y29977D01*
X207026Y29935D01*
X207085Y29887D01*
X207154Y29838D01*
X207241Y29786D01*
X207286Y29762D01*
X207338Y29741D01*
X207342D01*
X207352Y29737D01*
X207366Y29730D01*
X207390Y29724D01*
X207418Y29717D01*
X207449Y29706D01*
X207487Y29696D01*
X207533Y29685D01*
X207581Y29675D01*
X207633Y29664D01*
X207692Y29654D01*
X207755Y29647D01*
X207821Y29640D01*
X207893Y29633D01*
X207966Y29630D01*
X208046D01*
X208050D01*
X208053D01*
X208074D01*
X208108D01*
X208154Y29633D01*
X208206Y29637D01*
X208268Y29640D01*
X208337Y29647D01*
X208410Y29658D01*
X208490Y29671D01*
X208570Y29685D01*
X208650Y29703D01*
X208730Y29724D01*
X208809Y29751D01*
X208886Y29783D01*
X208955Y29817D01*
X209021Y29855D01*
X209025Y29859D01*
X209035Y29866D01*
X209052Y29880D01*
X209070Y29897D01*
X209097Y29921D01*
X209122Y29949D01*
X209153Y29980D01*
X209181Y30018D01*
X209212Y30060D01*
X209243Y30105D01*
X209267Y30154D01*
X209292Y30209D01*
X209313Y30265D01*
X209330Y30327D01*
X209340Y30393D01*
X209344Y30463D01*
Y30490D01*
X209340Y30511D01*
X209337Y30536D01*
X209333Y30563D01*
X209319Y30629D01*
X209295Y30705D01*
X209278Y30744D01*
X209261Y30785D01*
X209236Y30827D01*
X209212Y30869D01*
X209181Y30910D01*
X209146Y30948D01*
X209143Y30952D01*
X209136Y30959D01*
X209125Y30969D01*
X209108Y30983D01*
X209087Y30997D01*
X209059Y31018D01*
X209032Y31039D01*
X208993Y31060D01*
X208955Y31084D01*
X208910Y31105D01*
X208858Y31129D01*
X208806Y31150D01*
X208747Y31170D01*
X208681Y31191D01*
X208612Y31209D01*
X208539Y31223D01*
X208643Y31566D01*
X208650D01*
X208667Y31559D01*
D02*
G37*
G36*
X209649Y28061D02*
Y27707D01*
X206488Y26705D01*
Y27076D01*
X208785Y27749D01*
X208789D01*
X208796Y27753D01*
X208813Y27756D01*
X208830Y27763D01*
X208855Y27770D01*
X208882Y27777D01*
X208913Y27784D01*
X208948Y27794D01*
X209028Y27815D01*
X209115Y27839D01*
X209208Y27860D01*
X209302Y27884D01*
X209299D01*
X209292Y27888D01*
X209278Y27891D01*
X209257Y27895D01*
X209233Y27902D01*
X209205Y27909D01*
X209174Y27916D01*
X209139Y27923D01*
X209063Y27943D01*
X208973Y27968D01*
X208882Y27995D01*
X208785Y28023D01*
X206488Y28724D01*
Y29071D01*
X209649Y28061D01*
D02*
G37*
%LPC*%
G36*
X257593Y-17989D02*
X257519D01*
X257515D01*
X257503D01*
X257482D01*
X257454Y-17994D01*
X257421D01*
X257380Y-17998D01*
X257339Y-18006D01*
X257294Y-18010D01*
X257195Y-18031D01*
X257093Y-18063D01*
X256994Y-18108D01*
X256945Y-18133D01*
X256904Y-18166D01*
X256900D01*
X256896Y-18174D01*
X256871Y-18194D01*
X256835Y-18231D01*
X256793Y-18285D01*
X256752Y-18346D01*
X256716Y-18416D01*
X256691Y-18498D01*
X256687Y-18543D01*
X256683Y-18588D01*
Y-18613D01*
X256687Y-18629D01*
X256695Y-18674D01*
X256712Y-18732D01*
X256736Y-18801D01*
X256777Y-18871D01*
X256802Y-18908D01*
X256830Y-18945D01*
X256863Y-18982D01*
X256904Y-19015D01*
X256908D01*
X256912Y-19023D01*
X256925Y-19031D01*
X256945Y-19043D01*
X256966Y-19056D01*
X256990Y-19072D01*
X257023Y-19088D01*
X257060Y-19105D01*
X257097Y-19121D01*
X257142Y-19138D01*
X257191Y-19154D01*
X257244Y-19166D01*
X257359Y-19187D01*
X257425Y-19191D01*
X257490Y-19195D01*
X257495D01*
X257507D01*
X257531D01*
X257556Y-19191D01*
X257593D01*
X257630Y-19187D01*
X257675Y-19178D01*
X257724Y-19170D01*
X257827Y-19150D01*
X257937Y-19117D01*
X258044Y-19068D01*
X258093Y-19039D01*
X258142Y-19006D01*
X258147Y-19002D01*
X258155Y-18998D01*
X258163Y-18986D01*
X258179Y-18973D01*
X258220Y-18933D01*
X258261Y-18879D01*
X258306Y-18814D01*
X258347Y-18740D01*
X258364Y-18699D01*
X258372Y-18654D01*
X258380Y-18609D01*
X258384Y-18564D01*
Y-18543D01*
X258380Y-18527D01*
X258372Y-18486D01*
X258356Y-18432D01*
X258327Y-18371D01*
X258286Y-18301D01*
X258261Y-18268D01*
X258228Y-18231D01*
X258196Y-18199D01*
X258155Y-18166D01*
X258151Y-18162D01*
X258142Y-18158D01*
X258130Y-18149D01*
X258114Y-18137D01*
X258089Y-18125D01*
X258060Y-18108D01*
X258028Y-18092D01*
X257991Y-18076D01*
X257946Y-18059D01*
X257901Y-18047D01*
X257847Y-18031D01*
X257790Y-18018D01*
X257728Y-18006D01*
X257663Y-17998D01*
X257593Y-17989D01*
D02*
G37*
G36*
X256773Y-19256D02*
X256773Y-19256D01*
X256777D01*
X256773Y-19256D01*
D02*
G37*
G36*
X274764Y34125D02*
Y33088D01*
X274785Y33047D01*
X274789Y33051D01*
X274805Y33059D01*
X274830Y33072D01*
X274863Y33088D01*
X274903Y33109D01*
X274953Y33133D01*
X275002Y33166D01*
X275059Y33199D01*
X275186Y33277D01*
X275318Y33371D01*
X275453Y33478D01*
X275580Y33597D01*
X275576Y33601D01*
X275564Y33613D01*
X275539Y33629D01*
X275510Y33650D01*
X275473Y33678D01*
X275428Y33711D01*
X275379Y33744D01*
X275326Y33785D01*
X275264Y33826D01*
X275203Y33867D01*
X275063Y33957D01*
X274916Y34043D01*
X274764Y34125D01*
D02*
G37*
G36*
X275088Y25794D02*
X275084D01*
X275080D01*
X275067D01*
X275051D01*
X275014Y25790D01*
X274965Y25782D01*
X274908Y25774D01*
X274846Y25757D01*
X274789Y25733D01*
X274731Y25704D01*
X274723Y25700D01*
X274707Y25688D01*
X274682Y25667D01*
X274649Y25642D01*
X274612Y25610D01*
X274575Y25569D01*
X274543Y25524D01*
X274514Y25470D01*
X274510Y25462D01*
X274502Y25442D01*
X274494Y25409D01*
X274477Y25360D01*
X274465Y25294D01*
X274457Y25216D01*
X274448Y25122D01*
X274444Y25011D01*
Y24306D01*
X275732D01*
Y25105D01*
X275728Y25150D01*
Y25208D01*
X275719Y25265D01*
X275711Y25331D01*
X275703Y25388D01*
X275687Y25438D01*
X275682Y25446D01*
X275674Y25466D01*
X275658Y25495D01*
X275633Y25536D01*
X275605Y25577D01*
X275568Y25622D01*
X275523Y25663D01*
X275469Y25700D01*
X275461Y25704D01*
X275441Y25716D01*
X275408Y25729D01*
X275363Y25749D01*
X275309Y25765D01*
X275244Y25778D01*
X275170Y25790D01*
X275088Y25794D01*
D02*
G37*
G36*
X273448Y25667D02*
X273444D01*
X273440D01*
X273415D01*
X273378Y25663D01*
X273329Y25659D01*
X273276Y25647D01*
X273222Y25634D01*
X273165Y25614D01*
X273112Y25589D01*
X273108Y25585D01*
X273091Y25577D01*
X273067Y25556D01*
X273038Y25536D01*
X273005Y25503D01*
X272976Y25470D01*
X272948Y25425D01*
X272927Y25380D01*
X272923Y25376D01*
X272919Y25355D01*
X272911Y25323D01*
X272899Y25273D01*
X272895Y25245D01*
X272890Y25212D01*
X272886Y25175D01*
X272882Y25130D01*
X272878Y25085D01*
Y25032D01*
X272874Y24978D01*
Y24306D01*
X274006D01*
Y25056D01*
X274002Y25109D01*
X273997Y25171D01*
X273993Y25232D01*
X273985Y25290D01*
X273973Y25335D01*
X273969Y25343D01*
X273960Y25360D01*
X273948Y25388D01*
X273932Y25425D01*
X273907Y25466D01*
X273874Y25507D01*
X273837Y25544D01*
X273792Y25581D01*
X273788Y25585D01*
X273768Y25593D01*
X273739Y25610D01*
X273702Y25626D01*
X273653Y25638D01*
X273591Y25655D01*
X273526Y25663D01*
X273448Y25667D01*
D02*
G37*
G36*
X258879Y12162D02*
X258780D01*
X258772D01*
X258756D01*
X258727D01*
X258686Y12158D01*
X258637D01*
X258583Y12154D01*
X258522Y12150D01*
X258456Y12142D01*
X258313Y12125D01*
X258161Y12097D01*
X258018Y12060D01*
X257948Y12035D01*
X257887Y12006D01*
X257882D01*
X257870Y11998D01*
X257854Y11990D01*
X257833Y11978D01*
X257809Y11961D01*
X257776Y11945D01*
X257710Y11900D01*
X257636Y11842D01*
X257563Y11777D01*
X257501Y11699D01*
X257472Y11658D01*
X257452Y11613D01*
X257448Y11605D01*
X257440Y11580D01*
X257427Y11543D01*
X257419Y11519D01*
X257411Y11486D01*
X257407Y11453D01*
X257399Y11416D01*
X257390Y11371D01*
X257386Y11326D01*
X257382Y11277D01*
X257378Y11219D01*
X257374Y11162D01*
Y10457D01*
X260232D01*
Y11141D01*
X260228Y11170D01*
Y11203D01*
X260224Y11240D01*
X260219Y11281D01*
X260215Y11326D01*
X260199Y11424D01*
X260178Y11523D01*
X260146Y11617D01*
X260125Y11662D01*
X260105Y11703D01*
Y11707D01*
X260096Y11711D01*
X260080Y11736D01*
X260047Y11773D01*
X260006Y11818D01*
X259949Y11871D01*
X259875Y11920D01*
X259789Y11970D01*
X259690Y12015D01*
X259686D01*
X259674Y12023D01*
X259654Y12027D01*
X259621Y12039D01*
X259584Y12047D01*
X259543Y12060D01*
X259490Y12076D01*
X259432Y12088D01*
X259371Y12101D01*
X259301Y12117D01*
X259227Y12129D01*
X259145Y12138D01*
X259059Y12150D01*
X258973Y12154D01*
X258879Y12162D01*
D02*
G37*
G36*
X258797Y3897D02*
X258793D01*
X258776D01*
X258748D01*
X258715Y3892D01*
X258674D01*
X258625Y3888D01*
X258567Y3884D01*
X258506Y3876D01*
X258444Y3868D01*
X258374Y3860D01*
X258231Y3831D01*
X258079Y3794D01*
X257936Y3741D01*
X257932D01*
X257923Y3737D01*
X257907Y3729D01*
X257887Y3720D01*
X257862Y3708D01*
X257833Y3692D01*
X257768Y3651D01*
X257694Y3601D01*
X257616Y3540D01*
X257538Y3466D01*
X257468Y3380D01*
X257464Y3376D01*
X257460Y3368D01*
X257452Y3355D01*
X257440Y3339D01*
X257427Y3314D01*
X257411Y3290D01*
X257378Y3224D01*
X257349Y3146D01*
X257321Y3056D01*
X257300Y2958D01*
X257292Y2908D01*
Y2835D01*
X257296Y2810D01*
Y2777D01*
X257304Y2740D01*
X257312Y2695D01*
X257325Y2642D01*
X257341Y2589D01*
X257362Y2531D01*
X257386Y2470D01*
X257419Y2408D01*
X257456Y2343D01*
X257497Y2281D01*
X257550Y2220D01*
X257608Y2158D01*
X257677Y2101D01*
X257681Y2097D01*
X257694Y2089D01*
X257718Y2072D01*
X257751Y2056D01*
X257788Y2031D01*
X257841Y2007D01*
X257899Y1982D01*
X257968Y1953D01*
X258046Y1925D01*
X258133Y1900D01*
X258231Y1875D01*
X258337Y1851D01*
X258452Y1834D01*
X258579Y1818D01*
X258715Y1810D01*
X258858Y1806D01*
X258866D01*
X258887D01*
X258924Y1810D01*
X258973D01*
X259030Y1814D01*
X259096Y1822D01*
X259170Y1830D01*
X259252Y1843D01*
X259338Y1859D01*
X259424Y1879D01*
X259514Y1904D01*
X259604Y1933D01*
X259690Y1970D01*
X259777Y2011D01*
X259859Y2056D01*
X259932Y2109D01*
X259936Y2113D01*
X259949Y2121D01*
X259965Y2142D01*
X259990Y2162D01*
X260018Y2191D01*
X260051Y2228D01*
X260084Y2269D01*
X260121Y2314D01*
X260158Y2367D01*
X260191Y2421D01*
X260224Y2482D01*
X260252Y2548D01*
X260273Y2617D01*
X260293Y2691D01*
X260306Y2769D01*
X260310Y2847D01*
Y2867D01*
X260306Y2888D01*
Y2921D01*
X260297Y2958D01*
X260289Y3003D01*
X260277Y3052D01*
X260260Y3105D01*
X260240Y3163D01*
X260215Y3224D01*
X260187Y3286D01*
X260150Y3347D01*
X260105Y3413D01*
X260055Y3474D01*
X259994Y3536D01*
X259928Y3593D01*
X259924Y3597D01*
X259912Y3605D01*
X259887Y3622D01*
X259855Y3642D01*
X259818Y3663D01*
X259768Y3687D01*
X259707Y3716D01*
X259641Y3745D01*
X259567Y3774D01*
X259481Y3802D01*
X259391Y3827D01*
X259289Y3847D01*
X259178Y3868D01*
X259059Y3884D01*
X258932Y3892D01*
X258797Y3897D01*
D02*
G37*
G36*
X259563Y-4631D02*
X259490D01*
X259486D01*
X259473D01*
X259453D01*
X259424Y-4636D01*
X259391D01*
X259350Y-4640D01*
X259309Y-4648D01*
X259264Y-4652D01*
X259166Y-4672D01*
X259063Y-4705D01*
X258965Y-4750D01*
X258916Y-4775D01*
X258875Y-4808D01*
X258871D01*
X258866Y-4816D01*
X258842Y-4836D01*
X258805Y-4873D01*
X258764Y-4927D01*
X258723Y-4988D01*
X258686Y-5058D01*
X258661Y-5140D01*
X258657Y-5185D01*
X258653Y-5230D01*
Y-5255D01*
X258657Y-5271D01*
X258665Y-5316D01*
X258682Y-5373D01*
X258706Y-5443D01*
X258748Y-5513D01*
X258772Y-5550D01*
X258801Y-5587D01*
X258834Y-5624D01*
X258875Y-5656D01*
X258879D01*
X258883Y-5665D01*
X258895Y-5673D01*
X258916Y-5685D01*
X258936Y-5697D01*
X258961Y-5714D01*
X258994Y-5730D01*
X259030Y-5747D01*
X259067Y-5763D01*
X259112Y-5779D01*
X259162Y-5796D01*
X259215Y-5808D01*
X259330Y-5829D01*
X259395Y-5833D01*
X259461Y-5837D01*
X259465D01*
X259477D01*
X259502D01*
X259526Y-5833D01*
X259563D01*
X259600Y-5829D01*
X259645Y-5820D01*
X259695Y-5812D01*
X259797Y-5792D01*
X259908Y-5759D01*
X260014Y-5710D01*
X260064Y-5681D01*
X260113Y-5648D01*
X260117Y-5644D01*
X260125Y-5640D01*
X260133Y-5628D01*
X260150Y-5615D01*
X260191Y-5574D01*
X260232Y-5521D01*
X260277Y-5455D01*
X260318Y-5382D01*
X260334Y-5341D01*
X260342Y-5296D01*
X260351Y-5251D01*
X260355Y-5205D01*
Y-5185D01*
X260351Y-5169D01*
X260342Y-5127D01*
X260326Y-5074D01*
X260297Y-5013D01*
X260256Y-4943D01*
X260232Y-4910D01*
X260199Y-4873D01*
X260166Y-4840D01*
X260125Y-4808D01*
X260121Y-4804D01*
X260113Y-4800D01*
X260101Y-4791D01*
X260084Y-4779D01*
X260059Y-4767D01*
X260031Y-4750D01*
X259998Y-4734D01*
X259961Y-4718D01*
X259916Y-4701D01*
X259871Y-4689D01*
X259818Y-4672D01*
X259760Y-4660D01*
X259699Y-4648D01*
X259633Y-4640D01*
X259563Y-4631D01*
D02*
G37*
G36*
X258743Y-5898D02*
X258743Y-5898D01*
X258748D01*
X258743Y-5898D01*
D02*
G37*
G36*
X259563Y-7009D02*
X259490D01*
X259486D01*
X259473D01*
X259453D01*
X259424Y-7013D01*
X259391D01*
X259350Y-7018D01*
X259309Y-7026D01*
X259264Y-7030D01*
X259166Y-7050D01*
X259063Y-7083D01*
X258965Y-7128D01*
X258916Y-7153D01*
X258875Y-7186D01*
X258871D01*
X258866Y-7194D01*
X258842Y-7214D01*
X258805Y-7251D01*
X258764Y-7305D01*
X258723Y-7366D01*
X258686Y-7436D01*
X258661Y-7518D01*
X258657Y-7563D01*
X258653Y-7608D01*
Y-7633D01*
X258657Y-7649D01*
X258665Y-7694D01*
X258682Y-7751D01*
X258706Y-7821D01*
X258748Y-7891D01*
X258772Y-7928D01*
X258801Y-7965D01*
X258834Y-8002D01*
X258875Y-8034D01*
X258879D01*
X258883Y-8043D01*
X258895Y-8051D01*
X258916Y-8063D01*
X258936Y-8075D01*
X258961Y-8092D01*
X258994Y-8108D01*
X259030Y-8125D01*
X259067Y-8141D01*
X259112Y-8157D01*
X259162Y-8174D01*
X259215Y-8186D01*
X259330Y-8207D01*
X259395Y-8211D01*
X259461Y-8215D01*
X259465D01*
X259477D01*
X259502D01*
X259526Y-8211D01*
X259563D01*
X259600Y-8207D01*
X259645Y-8198D01*
X259695Y-8190D01*
X259797Y-8170D01*
X259908Y-8137D01*
X260014Y-8088D01*
X260064Y-8059D01*
X260113Y-8026D01*
X260117Y-8022D01*
X260125Y-8018D01*
X260133Y-8006D01*
X260150Y-7993D01*
X260191Y-7952D01*
X260232Y-7899D01*
X260277Y-7834D01*
X260318Y-7760D01*
X260334Y-7719D01*
X260342Y-7674D01*
X260351Y-7628D01*
X260355Y-7583D01*
Y-7563D01*
X260351Y-7547D01*
X260342Y-7506D01*
X260326Y-7452D01*
X260297Y-7391D01*
X260256Y-7321D01*
X260232Y-7288D01*
X260199Y-7251D01*
X260166Y-7219D01*
X260125Y-7186D01*
X260121Y-7182D01*
X260113Y-7177D01*
X260101Y-7169D01*
X260084Y-7157D01*
X260059Y-7145D01*
X260031Y-7128D01*
X259998Y-7112D01*
X259961Y-7096D01*
X259916Y-7079D01*
X259871Y-7067D01*
X259818Y-7050D01*
X259760Y-7038D01*
X259699Y-7026D01*
X259633Y-7018D01*
X259563Y-7009D01*
D02*
G37*
G36*
X258743Y-8276D02*
X258743Y-8276D01*
X258748D01*
X258743Y-8276D01*
D02*
G37*
G36*
X258994Y-10585D02*
X258829D01*
X258825D01*
X258817D01*
X258805D01*
X258788D01*
X258768D01*
X258743D01*
X258682Y-10589D01*
X258608D01*
X258526Y-10593D01*
X258432Y-10601D01*
X258337Y-10605D01*
X258133Y-10626D01*
X258030Y-10642D01*
X257932Y-10658D01*
X257837Y-10679D01*
X257751Y-10704D01*
X257677Y-10728D01*
X257612Y-10761D01*
X257608D01*
X257599Y-10769D01*
X257583Y-10777D01*
X257563Y-10794D01*
X257513Y-10831D01*
X257456Y-10884D01*
X257399Y-10949D01*
X257349Y-11027D01*
X257329Y-11068D01*
X257312Y-11118D01*
X257304Y-11167D01*
X257300Y-11216D01*
Y-11241D01*
X257304Y-11257D01*
X257317Y-11306D01*
X257341Y-11368D01*
X257358Y-11400D01*
X257378Y-11433D01*
X257403Y-11470D01*
X257431Y-11507D01*
X257468Y-11544D01*
X257513Y-11577D01*
X257558Y-11614D01*
X257616Y-11647D01*
X257620D01*
X257632Y-11655D01*
X257649Y-11663D01*
X257677Y-11675D01*
X257714Y-11688D01*
X257764Y-11700D01*
X257817Y-11716D01*
X257882Y-11733D01*
X257960Y-11749D01*
X258050Y-11765D01*
X258149Y-11778D01*
X258260Y-11790D01*
X258383Y-11802D01*
X258518Y-11811D01*
X258665Y-11815D01*
X258829Y-11819D01*
X258834D01*
X258838D01*
X258854D01*
X258871D01*
X258891D01*
X258916D01*
X258977Y-11815D01*
X259051D01*
X259133Y-11811D01*
X259227Y-11802D01*
X259321Y-11798D01*
X259526Y-11778D01*
X259629Y-11761D01*
X259727Y-11745D01*
X259822Y-11724D01*
X259908Y-11704D01*
X259982Y-11675D01*
X260047Y-11647D01*
X260051Y-11642D01*
X260059Y-11638D01*
X260076Y-11630D01*
X260096Y-11614D01*
X260146Y-11577D01*
X260199Y-11524D01*
X260256Y-11458D01*
X260306Y-11380D01*
X260326Y-11339D01*
X260342Y-11294D01*
X260351Y-11245D01*
X260355Y-11196D01*
Y-11183D01*
X260351Y-11171D01*
Y-11150D01*
X260338Y-11105D01*
X260314Y-11044D01*
X260297Y-11011D01*
X260277Y-10974D01*
X260252Y-10941D01*
X260224Y-10904D01*
X260187Y-10868D01*
X260146Y-10831D01*
X260096Y-10794D01*
X260043Y-10761D01*
X260039Y-10757D01*
X260027Y-10753D01*
X260010Y-10745D01*
X259982Y-10732D01*
X259945Y-10720D01*
X259895Y-10704D01*
X259842Y-10687D01*
X259772Y-10671D01*
X259699Y-10654D01*
X259609Y-10642D01*
X259510Y-10626D01*
X259399Y-10613D01*
X259276Y-10601D01*
X259141Y-10593D01*
X258994Y-10585D01*
D02*
G37*
G36*
X208351Y-27015D02*
X207477Y-27285D01*
X207473D01*
X207460Y-27292D01*
X207439Y-27296D01*
X207411Y-27306D01*
X207376Y-27316D01*
X207335Y-27327D01*
X207293Y-27341D01*
X207244Y-27355D01*
X207140Y-27386D01*
X207029Y-27417D01*
X206922Y-27445D01*
X206870Y-27459D01*
X206821Y-27469D01*
X206825D01*
X206835Y-27473D01*
X206852D01*
X206873Y-27480D01*
X206901Y-27483D01*
X206932Y-27490D01*
X206970Y-27497D01*
X207012Y-27504D01*
X207054Y-27514D01*
X207102Y-27525D01*
X207203Y-27549D01*
X207314Y-27577D01*
X207425Y-27611D01*
X208351Y-27899D01*
Y-27015D01*
D02*
G37*
G36*
X208133Y-29190D02*
X208050D01*
X208043D01*
X208029D01*
X208004D01*
X207970Y-29194D01*
X207928D01*
X207883Y-29197D01*
X207831Y-29201D01*
X207775Y-29208D01*
X207654Y-29221D01*
X207525Y-29246D01*
X207404Y-29277D01*
X207345Y-29298D01*
X207293Y-29322D01*
X207290D01*
X207279Y-29329D01*
X207265Y-29336D01*
X207248Y-29346D01*
X207227Y-29360D01*
X207199Y-29374D01*
X207144Y-29412D01*
X207081Y-29461D01*
X207019Y-29516D01*
X206967Y-29582D01*
X206943Y-29617D01*
X206925Y-29655D01*
X206922Y-29662D01*
X206915Y-29683D01*
X206904Y-29714D01*
X206897Y-29735D01*
X206891Y-29763D01*
X206887Y-29791D01*
X206880Y-29822D01*
X206873Y-29860D01*
X206870Y-29898D01*
X206866Y-29940D01*
X206863Y-29988D01*
X206859Y-30037D01*
Y-30634D01*
X209278D01*
Y-30054D01*
X209274Y-30030D01*
Y-30002D01*
X209271Y-29971D01*
X209267Y-29936D01*
X209264Y-29898D01*
X209250Y-29815D01*
X209233Y-29732D01*
X209205Y-29652D01*
X209188Y-29614D01*
X209170Y-29579D01*
Y-29575D01*
X209163Y-29572D01*
X209150Y-29551D01*
X209122Y-29520D01*
X209087Y-29482D01*
X209038Y-29437D01*
X208976Y-29395D01*
X208903Y-29353D01*
X208820Y-29315D01*
X208816D01*
X208806Y-29308D01*
X208789Y-29305D01*
X208761Y-29294D01*
X208730Y-29287D01*
X208695Y-29277D01*
X208650Y-29263D01*
X208601Y-29253D01*
X208549Y-29242D01*
X208490Y-29228D01*
X208428Y-29218D01*
X208358Y-29211D01*
X208285Y-29201D01*
X208213Y-29197D01*
X208133Y-29190D01*
D02*
G37*
G36*
Y-10513D02*
X208050D01*
X208043D01*
X208029D01*
X208004D01*
X207970Y-10516D01*
X207928D01*
X207883Y-10520D01*
X207831Y-10523D01*
X207775Y-10530D01*
X207654Y-10544D01*
X207525Y-10569D01*
X207404Y-10600D01*
X207345Y-10621D01*
X207293Y-10645D01*
X207290D01*
X207279Y-10652D01*
X207265Y-10659D01*
X207248Y-10669D01*
X207227Y-10683D01*
X207199Y-10697D01*
X207144Y-10735D01*
X207081Y-10784D01*
X207019Y-10839D01*
X206967Y-10905D01*
X206943Y-10940D01*
X206925Y-10978D01*
X206922Y-10985D01*
X206915Y-11006D01*
X206904Y-11037D01*
X206897Y-11058D01*
X206891Y-11085D01*
X206887Y-11113D01*
X206880Y-11145D01*
X206873Y-11183D01*
X206870Y-11221D01*
X206866Y-11263D01*
X206863Y-11311D01*
X206859Y-11360D01*
Y-11957D01*
X209278D01*
Y-11377D01*
X209274Y-11353D01*
Y-11325D01*
X209271Y-11294D01*
X209267Y-11259D01*
X209264Y-11221D01*
X209250Y-11138D01*
X209233Y-11054D01*
X209205Y-10975D01*
X209188Y-10936D01*
X209170Y-10902D01*
Y-10898D01*
X209163Y-10895D01*
X209150Y-10874D01*
X209122Y-10843D01*
X209087Y-10804D01*
X209038Y-10759D01*
X208976Y-10718D01*
X208903Y-10676D01*
X208820Y-10638D01*
X208816D01*
X208806Y-10631D01*
X208789Y-10627D01*
X208761Y-10617D01*
X208730Y-10610D01*
X208695Y-10600D01*
X208650Y-10586D01*
X208601Y-10575D01*
X208549Y-10565D01*
X208490Y-10551D01*
X208428Y-10541D01*
X208358Y-10534D01*
X208285Y-10523D01*
X208213Y-10520D01*
X208133Y-10513D01*
D02*
G37*
G36*
X207352Y-1882D02*
X207349D01*
X207342D01*
X207328D01*
X207314Y-1886D01*
X207293D01*
X207269Y-1889D01*
X207217Y-1900D01*
X207154Y-1917D01*
X207092Y-1941D01*
X207033Y-1976D01*
X206977Y-2025D01*
X206970Y-2032D01*
X206957Y-2049D01*
X206932Y-2084D01*
X206908Y-2129D01*
X206884Y-2188D01*
X206859Y-2257D01*
X206845Y-2344D01*
X206838Y-2441D01*
Y-3257D01*
X207883D01*
Y-2483D01*
X207879Y-2462D01*
Y-2437D01*
X207876Y-2386D01*
X207869Y-2327D01*
X207859Y-2268D01*
X207845Y-2208D01*
X207827Y-2156D01*
X207824Y-2149D01*
X207817Y-2136D01*
X207803Y-2111D01*
X207782Y-2084D01*
X207758Y-2052D01*
X207723Y-2021D01*
X207689Y-1986D01*
X207644Y-1959D01*
X207637Y-1955D01*
X207623Y-1948D01*
X207595Y-1934D01*
X207560Y-1921D01*
X207519Y-1907D01*
X207467Y-1893D01*
X207411Y-1886D01*
X207352Y-1882D01*
D02*
G37*
G36*
X208133Y23487D02*
X208050D01*
X208043D01*
X208029D01*
X208004D01*
X207970Y23483D01*
X207928D01*
X207883Y23480D01*
X207831Y23477D01*
X207775Y23470D01*
X207654Y23456D01*
X207525Y23431D01*
X207404Y23400D01*
X207345Y23379D01*
X207293Y23355D01*
X207290D01*
X207279Y23348D01*
X207265Y23341D01*
X207248Y23331D01*
X207227Y23317D01*
X207199Y23303D01*
X207144Y23265D01*
X207081Y23216D01*
X207019Y23161D01*
X206967Y23095D01*
X206943Y23060D01*
X206925Y23022D01*
X206922Y23015D01*
X206915Y22994D01*
X206904Y22963D01*
X206897Y22942D01*
X206891Y22914D01*
X206887Y22887D01*
X206880Y22855D01*
X206873Y22817D01*
X206870Y22779D01*
X206866Y22738D01*
X206863Y22689D01*
X206859Y22640D01*
Y22043D01*
X209278D01*
Y22623D01*
X209274Y22647D01*
Y22675D01*
X209271Y22706D01*
X209267Y22741D01*
X209264Y22779D01*
X209250Y22862D01*
X209233Y22946D01*
X209205Y23025D01*
X209188Y23064D01*
X209170Y23098D01*
Y23102D01*
X209163Y23105D01*
X209150Y23126D01*
X209122Y23157D01*
X209087Y23196D01*
X209038Y23241D01*
X208976Y23282D01*
X208903Y23324D01*
X208820Y23362D01*
X208816D01*
X208806Y23369D01*
X208789Y23372D01*
X208761Y23383D01*
X208730Y23390D01*
X208695Y23400D01*
X208650Y23414D01*
X208601Y23425D01*
X208549Y23435D01*
X208490Y23449D01*
X208428Y23459D01*
X208358Y23466D01*
X208285Y23477D01*
X208213Y23480D01*
X208133Y23487D01*
D02*
G37*
%LPD*%
D10*
X120391Y12445D02*
G03*
X120391Y12445I-492J0D01*
G01*
X81831Y-5307D02*
G03*
X81831Y-5307I-492J0D01*
G01*
X78284Y-5669D02*
G03*
X78284Y-5669I-492J0D01*
G01*
X97185Y6437D02*
G03*
X97185Y6437I-492J0D01*
G01*
D11*
X41500Y-25500D02*
G03*
X42500Y-24500I0J1000D01*
G01*
X31500D02*
G03*
X32500Y-25500I1000J0D01*
G01*
Y-20500D02*
G03*
X31500Y-21500I0J-1000D01*
G01*
X42500D02*
G03*
X41500Y-20500I-1000J0D01*
G01*
X42500Y24500D02*
G03*
X41500Y25500I-1000J0D01*
G01*
X32500D02*
G03*
X31500Y24500I0J-1000D01*
G01*
Y21500D02*
G03*
X32500Y20500I1000J0D01*
G01*
X41500D02*
G03*
X42500Y21500I0J1000D01*
G01*
X58350Y-25500D02*
G03*
X59350Y-24500I0J1000D01*
G01*
Y-21500D02*
G03*
X58350Y-20500I-1000J0D01*
G01*
X54650D02*
G03*
X53650Y-21500I0J-1000D01*
G01*
Y-24500D02*
G03*
X54650Y-25500I1000J0D01*
G01*
X102000Y-3000D02*
G03*
X103000Y-2000I0J1000D01*
G01*
X98000D02*
G03*
X99000Y-3000I1000J0D01*
G01*
Y8000D02*
G03*
X98000Y7000I0J-1000D01*
G01*
X103000D02*
G03*
X102000Y8000I-1000J0D01*
G01*
X84500Y12000D02*
G03*
X85500Y11000I1000J0D01*
G01*
Y16000D02*
G03*
X84500Y15000I0J-1000D01*
G01*
X95500D02*
G03*
X94500Y16000I-1000J0D01*
G01*
Y11000D02*
G03*
X95500Y12000I0J1000D01*
G01*
X126500Y14500D02*
G03*
X127500Y15500I0J1000D01*
G01*
X122500D02*
G03*
X123500Y14500I1000J0D01*
G01*
Y25500D02*
G03*
X122500Y24500I0J-1000D01*
G01*
X127500D02*
G03*
X126500Y25500I-1000J0D01*
G01*
X76500Y3500D02*
G03*
X75500Y4500I-1000J0D01*
G01*
Y-500D02*
G03*
X76500Y500I0J1000D01*
G01*
X65500D02*
G03*
X66500Y-500I1000J0D01*
G01*
Y4500D02*
G03*
X65500Y3500I0J-1000D01*
G01*
X113000Y20500D02*
G03*
X112000Y19500I0J-1000D01*
G01*
X117000D02*
G03*
X116000Y20500I-1000J0D01*
G01*
X116000Y9500D02*
G03*
X117000Y10500I0J1000D01*
G01*
X112000D02*
G03*
X113000Y9500I1000J0D01*
G01*
X107000Y-3000D02*
G03*
X108000Y-2000I0J1000D01*
G01*
X103000D02*
G03*
X104000Y-3000I1000J0D01*
G01*
Y8000D02*
G03*
X103000Y7000I0J-1000D01*
G01*
X108000D02*
G03*
X107000Y8000I-1000J0D01*
G01*
X58350Y20500D02*
G03*
X59350Y21500I0J1000D01*
G01*
Y24500D02*
G03*
X58350Y25500I-1000J0D01*
G01*
X54650D02*
G03*
X53650Y24500I0J-1000D01*
G01*
Y21500D02*
G03*
X54650Y20500I1000J0D01*
G01*
X141847Y-20000D02*
G03*
X141847Y-20000I-3347J0D01*
G01*
D02*
G03*
X141847Y-20000I-3347J0D01*
G01*
Y20000D02*
G03*
X141847Y20000I-3347J0D01*
G01*
D02*
G03*
X141847Y20000I-3347J0D01*
G01*
X226895Y30659D02*
X232800D01*
X226895Y26459D02*
X232800D01*
X228898Y27159D02*
Y29959D01*
X230698Y27159D02*
X230698Y29959D01*
X226895Y25490D02*
X232800Y25490D01*
X226895Y21290D02*
X232800D01*
X228898Y21990D02*
Y24790D01*
X230698Y21990D02*
Y24790D01*
X226895Y20390D02*
X232800D01*
X226895Y16190D02*
X232800D01*
X228898Y16890D02*
Y19690D01*
X230698Y16890D02*
X230698Y19690D01*
X226796Y-25610D02*
X232701D01*
X226796Y-21410D02*
X232701D01*
X230698Y-24910D02*
Y-22110D01*
X228898Y-24910D02*
Y-22110D01*
X226796Y-30110D02*
X232701D01*
X226796Y-25910D02*
X232701D01*
X230698Y-29410D02*
Y-26610D01*
X228898Y-29410D02*
Y-26610D01*
X226895Y-11310D02*
X232800Y-11310D01*
X226895Y-15510D02*
X232800D01*
X228898Y-14810D02*
Y-12010D01*
X230698Y-14810D02*
Y-12010D01*
X226895Y-6810D02*
X232800Y-6810D01*
X226895Y-11010D02*
X232800D01*
X228898Y-10310D02*
Y-7510D01*
X230698Y-10310D02*
Y-7510D01*
X226796Y6990D02*
X232701D01*
X226796Y11190D02*
X232701Y11190D01*
X230698Y7690D02*
Y10490D01*
X228898Y7690D02*
Y10490D01*
X226796Y11490D02*
X232701D01*
X226796Y15690D02*
X232701Y15690D01*
X230698Y12190D02*
Y14990D01*
X228898Y12190D02*
Y14990D01*
X224600Y-20600D02*
Y-16400D01*
X235000D01*
Y-20600D02*
Y-16400D01*
X224600Y-20600D02*
X235000D01*
X230800Y-19800D02*
X230800Y-17200D01*
X228800Y-19800D02*
Y-17200D01*
Y-19800D02*
X230800D01*
X228800Y-17200D02*
X230800Y-17200D01*
X251550Y19250D02*
X252850Y17950D01*
X251550Y19250D02*
X252850Y20550D01*
Y17950D02*
Y20550D01*
X53650Y-24500D02*
Y-21500D01*
X54650Y-20500D02*
X58350D01*
X59350Y-24500D02*
Y-21500D01*
X54650Y-25500D02*
X58350D01*
X85500Y16000D02*
X94500D01*
X85500Y11000D02*
X94500D01*
X84500Y12000D02*
Y15000D01*
X95500Y12000D02*
Y15000D01*
X146374Y14095D02*
Y16063D01*
Y23937D02*
Y25905D01*
X130626D02*
X146374D01*
X130626Y23937D02*
Y25905D01*
Y14095D02*
Y16063D01*
Y14095D02*
X146374D01*
X54650Y20500D02*
X58350D01*
X54650Y25500D02*
X58350D01*
X59350Y21500D02*
Y24500D01*
X53650Y21500D02*
Y24500D01*
X103000Y-15500D02*
Y-10500D01*
X65500Y-24000D02*
Y-19000D01*
X76500Y5000D02*
Y10000D01*
X65500D02*
X76500D01*
X65500Y5000D02*
Y10000D01*
Y5000D02*
X76500D01*
X65500Y-24000D02*
X76500D01*
Y-19000D01*
X65500D02*
X76500D01*
X83500Y5000D02*
Y16000D01*
X78500Y5000D02*
X83500D01*
X78500D02*
Y16000D01*
X83500D01*
X103000Y-15500D02*
X114000D01*
Y-10500D01*
X103000D02*
X114000D01*
X42500Y25500D02*
X53500D01*
Y20500D02*
Y25500D01*
X137500Y2500D02*
X148500D01*
Y-2500D02*
Y2500D01*
X137500Y-2500D02*
X148500D01*
X101000Y20500D02*
X112000D01*
X101000D02*
Y25500D01*
X112000D01*
X103000Y-5500D02*
X114000D01*
Y-10500D02*
Y-5500D01*
X103000Y-10500D02*
X114000D01*
X103000D02*
Y-5500D01*
X112000Y20500D02*
Y25500D01*
X137500Y-2500D02*
Y2500D01*
X130626Y-14095D02*
X146374D01*
Y-16063D02*
Y-14095D01*
Y-25905D02*
Y-23937D01*
X130626Y-25905D02*
X146374D01*
X130626D02*
Y-23937D01*
Y-16063D02*
Y-14095D01*
X42500Y20500D02*
Y25500D01*
Y20500D02*
X53500D01*
X104000Y8000D02*
X107000D01*
X103000Y-2000D02*
Y7000D01*
X104000Y-3000D02*
X107000D01*
X108000Y-2000D02*
Y7000D01*
X31500Y-24500D02*
Y-21500D01*
X117000Y10500D02*
Y19500D01*
X113000Y9500D02*
X116000D01*
X42500Y-24500D02*
Y-21500D01*
X112000Y10500D02*
Y19500D01*
X32500Y-20500D02*
X41500D01*
X113000Y20500D02*
X116000D01*
X32500Y-25500D02*
X41500D01*
X42500Y-20500D02*
X53500D01*
Y-25500D02*
Y-20500D01*
X42500Y-25500D02*
Y-20500D01*
Y-25500D02*
X53500D01*
X103000Y-2000D02*
Y7000D01*
X99000Y-3000D02*
X102000D01*
X99000Y8000D02*
X102000D01*
X98000Y-2000D02*
Y7000D01*
X123500Y25500D02*
X126500D01*
X123500Y14500D02*
X126500D01*
X127500Y15500D02*
Y24500D01*
X122500Y15500D02*
Y24500D01*
X65500Y500D02*
Y3500D01*
X76500Y500D02*
Y3500D01*
X66500Y-500D02*
X75500D01*
X66500Y4500D02*
X75500D01*
X31500Y21500D02*
Y24500D01*
X32500Y20500D02*
X41500D01*
X42500Y21500D02*
Y24500D01*
X32500Y25500D02*
X41500D01*
X151001Y-30199D02*
Y-28066D01*
X152068Y-27000D01*
X153134Y-28066D01*
Y-30199D01*
Y-28600D01*
X151001D01*
X154200Y-30199D02*
X155267D01*
X154733D01*
Y-27000D01*
X154200Y-27533D01*
X156866D02*
X157399Y-27000D01*
X158466D01*
X158999Y-27533D01*
Y-28066D01*
X158466Y-28600D01*
X157932D01*
X158466D01*
X158999Y-29133D01*
Y-29666D01*
X158466Y-30199D01*
X157399D01*
X156866Y-29666D01*
X62334Y-30199D02*
Y-28066D01*
X63401Y-27000D01*
X64467Y-28066D01*
Y-30199D01*
Y-28600D01*
X62334D01*
X65533Y-27000D02*
X67666D01*
Y-27533D01*
X65533Y-29666D01*
Y-30199D01*
X32334D02*
Y-28066D01*
X33400Y-27000D01*
X34467Y-28066D01*
Y-30199D01*
Y-28600D01*
X32334D01*
X37133Y-30199D02*
Y-27000D01*
X35533Y-28600D01*
X37666D01*
X142334Y30199D02*
Y27000D01*
X143934D01*
X144467Y27533D01*
Y28066D01*
X143934Y28600D01*
X142334D01*
X143934D01*
X144467Y29133D01*
Y29666D01*
X143934Y30199D01*
X142334D01*
X147133Y27000D02*
Y30199D01*
X145533Y28600D01*
X147666D01*
X52867Y27000D02*
Y29133D01*
X53934Y30199D01*
X55000Y29133D01*
Y27000D01*
Y28600D01*
X52867D01*
X56066Y27000D02*
X57133D01*
X56599D01*
Y30199D01*
X56066Y29666D01*
X62334Y27000D02*
Y29133D01*
X63401Y30199D01*
X64467Y29133D01*
Y27000D01*
Y28600D01*
X62334D01*
X65533Y29666D02*
X66066Y30199D01*
X67133D01*
X67666Y29666D01*
Y27533D01*
X67133Y27000D01*
X66066D01*
X65533Y27533D01*
Y29666D01*
X168500Y-21801D02*
Y-23934D01*
X169566Y-25000D01*
X170633Y-23934D01*
Y-21801D01*
X171699Y-25000D02*
X172765D01*
X172232D01*
Y-21801D01*
X171699Y-22334D01*
X174365Y-25000D02*
Y-24467D01*
X174898D01*
Y-25000D01*
X174365D01*
X177031Y-22334D02*
X177564Y-21801D01*
X178630D01*
X179163Y-22334D01*
Y-24467D01*
X178630Y-25000D01*
X177564D01*
X177031Y-24467D01*
Y-22334D01*
X82867Y-27000D02*
Y-30199D01*
X84467D01*
X85000Y-29666D01*
Y-29133D01*
X84467Y-28600D01*
X82867D01*
X84467D01*
X85000Y-28066D01*
Y-27533D01*
X84467Y-27000D01*
X82867D01*
X86066Y-30199D02*
X87133D01*
X86599D01*
Y-27000D01*
X86066Y-27533D01*
X112334Y-30199D02*
Y-28066D01*
X113400Y-27000D01*
X114467Y-28066D01*
Y-30199D01*
Y-28600D01*
X112334D01*
X115533Y-27533D02*
X116066Y-27000D01*
X117133D01*
X117666Y-27533D01*
Y-28066D01*
X117133Y-28600D01*
X116600D01*
X117133D01*
X117666Y-29133D01*
Y-29666D01*
X117133Y-30199D01*
X116066D01*
X115533Y-29666D01*
X32867Y29666D02*
X32334Y30199D01*
X31268D01*
X30735Y29666D01*
Y27533D01*
X31268Y27000D01*
X32334D01*
X32867Y27533D01*
Y28600D01*
X31801D01*
X33934Y27000D02*
Y30199D01*
X36066Y27000D01*
Y30199D01*
X37133D02*
Y27000D01*
X38732D01*
X39265Y27533D01*
Y29666D01*
X38732Y30199D01*
X37133D01*
X122334D02*
Y27000D01*
X123934D01*
X124467Y27533D01*
Y28066D01*
X123934Y28600D01*
X122334D01*
X123934D01*
X124467Y29133D01*
Y29666D01*
X123934Y30199D01*
X122334D01*
X127666D02*
X126600Y29666D01*
X125533Y28600D01*
Y27533D01*
X126066Y27000D01*
X127133D01*
X127666Y27533D01*
Y28066D01*
X127133Y28600D01*
X125533D01*
X161001Y27000D02*
Y29133D01*
X162068Y30199D01*
X163134Y29133D01*
Y27000D01*
Y28600D01*
X161001D01*
X164200Y27000D02*
X165267D01*
X164733D01*
Y30199D01*
X164200Y29666D01*
X168999Y30199D02*
X166866D01*
Y28600D01*
X167932Y29133D01*
X168466D01*
X168999Y28600D01*
Y27533D01*
X168466Y27000D01*
X167399D01*
X166866Y27533D01*
X93134Y29666D02*
X92601Y30199D01*
X91535D01*
X91001Y29666D01*
Y27533D01*
X91535Y27000D01*
X92601D01*
X93134Y27533D01*
X94200Y27000D02*
X95267D01*
X94733D01*
Y30199D01*
X94200Y29666D01*
X98466Y27000D02*
Y30199D01*
X96866Y28600D01*
X98999D01*
X152334Y30199D02*
Y27000D01*
X153934D01*
X154467Y27533D01*
Y28066D01*
X153934Y28600D01*
X152334D01*
X153934D01*
X154467Y29133D01*
Y29666D01*
X153934Y30199D01*
X152334D01*
X155533Y29666D02*
X156066Y30199D01*
X157133D01*
X157666Y29666D01*
Y29133D01*
X157133Y28600D01*
X156599D01*
X157133D01*
X157666Y28066D01*
Y27533D01*
X157133Y27000D01*
X156066D01*
X155533Y27533D01*
X102334Y-30199D02*
Y-28066D01*
X103401Y-27000D01*
X104467Y-28066D01*
Y-30199D01*
Y-28600D01*
X102334D01*
X107666Y-30199D02*
X105533D01*
X107666Y-28066D01*
Y-27533D01*
X107133Y-27000D01*
X106066D01*
X105533Y-27533D01*
X141001Y-30199D02*
Y-28066D01*
X142068Y-27000D01*
X143134Y-28066D01*
Y-30199D01*
Y-28600D01*
X141001D01*
X144200Y-30199D02*
X145267D01*
X144733D01*
Y-27000D01*
X144200Y-27533D01*
X148999Y-30199D02*
X146866D01*
X148999Y-28066D01*
Y-27533D01*
X148466Y-27000D01*
X147399D01*
X146866Y-27533D01*
X44467Y30199D02*
X42334D01*
Y28600D01*
X43400Y29133D01*
X43934D01*
X44467Y28600D01*
Y27533D01*
X43934Y27000D01*
X42867D01*
X42334Y27533D01*
X45533Y30199D02*
Y28066D01*
X46600Y27000D01*
X47666Y28066D01*
Y30199D01*
X74467D02*
X72334D01*
Y28600D01*
X73400D01*
X72334D01*
Y27000D01*
X77666D02*
X75533D01*
X77666Y29133D01*
Y29666D01*
X77133Y30199D01*
X76066D01*
X75533Y29666D01*
X172867D02*
X172334Y30199D01*
X171268D01*
X170735Y29666D01*
Y27533D01*
X171268Y27000D01*
X172334D01*
X172867Y27533D01*
Y28600D01*
X171801D01*
X173934Y27000D02*
Y30199D01*
X176066Y27000D01*
Y30199D01*
X177133D02*
Y27000D01*
X178732D01*
X179265Y27533D01*
Y29666D01*
X178732Y30199D01*
X177133D01*
X102334D02*
Y27000D01*
X103934D01*
X104467Y27533D01*
Y28066D01*
X103934Y28600D01*
X102334D01*
X103934D01*
X104467Y29133D01*
Y29666D01*
X103934Y30199D01*
X102334D01*
X105533Y29666D02*
X106066Y30199D01*
X107133D01*
X107666Y29666D01*
Y29133D01*
X107133Y28600D01*
X107666Y28066D01*
Y27533D01*
X107133Y27000D01*
X106066D01*
X105533Y27533D01*
Y28066D01*
X106066Y28600D01*
X105533Y29133D01*
Y29666D01*
X106066Y28600D02*
X107133D01*
X52334Y-30199D02*
Y-28066D01*
X53400Y-27000D01*
X54467Y-28066D01*
Y-30199D01*
Y-28600D01*
X52334D01*
X57666Y-27000D02*
X56599Y-27533D01*
X55533Y-28600D01*
Y-29666D01*
X56066Y-30199D01*
X57133D01*
X57666Y-29666D01*
Y-29133D01*
X57133Y-28600D01*
X55533D01*
X132334Y30199D02*
Y27000D01*
X133934D01*
X134467Y27533D01*
Y28066D01*
X133934Y28600D01*
X132334D01*
X133934D01*
X134467Y29133D01*
Y29666D01*
X133934Y30199D01*
X132334D01*
X137666D02*
X135533D01*
Y28600D01*
X136600Y29133D01*
X137133D01*
X137666Y28600D01*
Y27533D01*
X137133Y27000D01*
X136066D01*
X135533Y27533D01*
X72334Y-27000D02*
Y-30199D01*
X73934D01*
X74467Y-29666D01*
Y-29133D01*
X73934Y-28600D01*
X72334D01*
X73934D01*
X74467Y-28066D01*
Y-27533D01*
X73934Y-27000D01*
X72334D01*
X75533Y-27533D02*
X76066Y-27000D01*
X77133D01*
X77666Y-27533D01*
Y-29666D01*
X77133Y-30199D01*
X76066D01*
X75533Y-29666D01*
Y-27533D01*
X92334Y-30199D02*
Y-28066D01*
X93401Y-27000D01*
X94467Y-28066D01*
Y-30199D01*
Y-28600D01*
X92334D01*
X95533Y-27533D02*
X96066Y-27000D01*
X97133D01*
X97666Y-27533D01*
Y-28066D01*
X97133Y-28600D01*
X97666Y-29133D01*
Y-29666D01*
X97133Y-30199D01*
X96066D01*
X95533Y-29666D01*
Y-29133D01*
X96066Y-28600D01*
X95533Y-28066D01*
Y-27533D01*
X96066Y-28600D02*
X97133D01*
X170735Y-27533D02*
X171268Y-27000D01*
X172334D01*
X172867Y-27533D01*
Y-28066D01*
X172334Y-28600D01*
X171801D01*
X172334D01*
X172867Y-29133D01*
Y-29666D01*
X172334Y-30199D01*
X171268D01*
X170735Y-29666D01*
X173934Y-27000D02*
Y-29133D01*
X175000Y-30199D01*
X176066Y-29133D01*
Y-27000D01*
X177133Y-27533D02*
X177666Y-27000D01*
X178732D01*
X179265Y-27533D01*
Y-28066D01*
X178732Y-28600D01*
X178199D01*
X178732D01*
X179265Y-29133D01*
Y-29666D01*
X178732Y-30199D01*
X177666D01*
X177133Y-29666D01*
X131535Y-30199D02*
Y-28066D01*
X132601Y-27000D01*
X133667Y-28066D01*
Y-30199D01*
Y-28600D01*
X131535D01*
X134733Y-30199D02*
X135800D01*
X135267D01*
Y-27000D01*
X134733Y-27533D01*
X137399Y-30199D02*
X138466D01*
X137932D01*
Y-27000D01*
X137399Y-27533D01*
X124467D02*
X123934Y-27000D01*
X122867D01*
X122334Y-27533D01*
Y-29666D01*
X122867Y-30199D01*
X123934D01*
X124467Y-29666D01*
X127666Y-27000D02*
X126600Y-27533D01*
X125533Y-28600D01*
Y-29666D01*
X126066Y-30199D01*
X127133D01*
X127666Y-29666D01*
Y-29133D01*
X127133Y-28600D01*
X125533D01*
X112334Y30199D02*
Y27000D01*
X113934D01*
X114467Y27533D01*
Y28066D01*
X113934Y28600D01*
X112334D01*
X113934D01*
X114467Y29133D01*
Y29666D01*
X113934Y30199D01*
X112334D01*
X115533D02*
X117666D01*
Y29666D01*
X115533Y27533D01*
Y27000D01*
X161001Y-30199D02*
Y-28066D01*
X162068Y-27000D01*
X163134Y-28066D01*
Y-30199D01*
Y-28600D01*
X161001D01*
X164200Y-30199D02*
X165267D01*
X164733D01*
Y-27000D01*
X164200Y-27533D01*
X168466Y-30199D02*
Y-27000D01*
X166866Y-28600D01*
X168999D01*
X83134Y29666D02*
X82601Y30199D01*
X81534D01*
X81001Y29666D01*
Y27533D01*
X81534Y27000D01*
X82601D01*
X83134Y27533D01*
X84200Y27000D02*
X85267D01*
X84733D01*
Y30199D01*
X84200Y29666D01*
X88999Y30199D02*
X86866D01*
Y28600D01*
X87932Y29133D01*
X88465D01*
X88999Y28600D01*
Y27533D01*
X88465Y27000D01*
X87399D01*
X86866Y27533D01*
X42334Y-30199D02*
Y-28066D01*
X43400Y-27000D01*
X44467Y-28066D01*
Y-30199D01*
Y-28600D01*
X42334D01*
X47666Y-27000D02*
X45533D01*
Y-28600D01*
X46600Y-28066D01*
X47133D01*
X47666Y-28600D01*
Y-29666D01*
X47133Y-30199D01*
X46066D01*
X45533Y-29666D01*
X221076Y27915D02*
X221219Y27629D01*
X221505Y27343D01*
X221791Y27200D01*
X222362D01*
X222648Y27343D01*
X222933Y27629D01*
X223076Y27915D01*
X223219Y28343D01*
Y29057D01*
X223076Y29486D01*
X222933Y29771D01*
X222648Y30057D01*
X222362Y30200D01*
X221791D01*
X221505Y30057D01*
X221219Y29771D01*
X221076Y29486D01*
X218234Y27200D02*
X219662Y30200D01*
X220234Y27200D02*
X218234D01*
X221076Y23015D02*
X221219Y22729D01*
X221505Y22443D01*
X221791Y22300D01*
X222362D01*
X222648Y22443D01*
X222933Y22729D01*
X223076Y23015D01*
X223219Y23443D01*
Y24157D01*
X223076Y24586D01*
X222933Y24871D01*
X222648Y25157D01*
X222362Y25300D01*
X221791D01*
X221505Y25157D01*
X221219Y24871D01*
X221076Y24586D01*
X219520Y22300D02*
X219948Y22443D01*
X220091Y22729D01*
Y23015D01*
X219948Y23300D01*
X219662Y23443D01*
X219091Y23586D01*
X218663Y23729D01*
X218377Y24014D01*
X218234Y24300D01*
Y24728D01*
X218377Y25014D01*
X218520Y25157D01*
X218948Y25300D01*
X219520D01*
X219948Y25157D01*
X220091Y25014D01*
X220234Y24728D01*
Y24300D01*
X220091Y24014D01*
X219805Y23729D01*
X219377Y23586D01*
X218806Y23443D01*
X218520Y23300D01*
X218377Y23015D01*
Y22729D01*
X218520Y22443D01*
X218948Y22300D01*
X219520D01*
X221076Y18114D02*
X221219Y17829D01*
X221505Y17543D01*
X221791Y17400D01*
X222362D01*
X222648Y17543D01*
X222933Y17829D01*
X223076Y18114D01*
X223219Y18543D01*
Y19257D01*
X223076Y19686D01*
X222933Y19971D01*
X222648Y20257D01*
X222362Y20400D01*
X221791D01*
X221505Y20257D01*
X221219Y19971D01*
X221076Y19686D01*
X220234Y17972D02*
X219948Y17829D01*
X219520Y17400D01*
Y20400D01*
X218034Y17972D02*
X217749Y17829D01*
X217320Y17400D01*
Y20400D01*
X221076Y-24013D02*
X221219Y-24299D01*
X221505Y-24584D01*
X221791Y-24727D01*
X222362D01*
X222648Y-24584D01*
X222933Y-24299D01*
X223076Y-24013D01*
X223219Y-23584D01*
Y-22870D01*
X223076Y-22442D01*
X222933Y-22156D01*
X222648Y-21871D01*
X222362Y-21728D01*
X221791D01*
X221505Y-21871D01*
X221219Y-22156D01*
X221076Y-22442D01*
X218377Y-23727D02*
X218520Y-23299D01*
X218806Y-23013D01*
X219234Y-22870D01*
X219377D01*
X219805Y-23013D01*
X220091Y-23299D01*
X220234Y-23727D01*
Y-23870D01*
X220091Y-24299D01*
X219805Y-24584D01*
X219377Y-24727D01*
X219234D01*
X218806Y-24584D01*
X218520Y-24299D01*
X218377Y-23727D01*
Y-23013D01*
X218520Y-22299D01*
X218806Y-21871D01*
X219234Y-21728D01*
X219520D01*
X219948Y-21871D01*
X220091Y-22156D01*
X221076Y-28785D02*
X221219Y-29071D01*
X221505Y-29357D01*
X221791Y-29500D01*
X222362D01*
X222648Y-29357D01*
X222933Y-29071D01*
X223076Y-28785D01*
X223219Y-28357D01*
Y-27643D01*
X223076Y-27214D01*
X222933Y-26929D01*
X222648Y-26643D01*
X222362Y-26500D01*
X221791D01*
X221505Y-26643D01*
X221219Y-26929D01*
X221076Y-27214D01*
X220234Y-28928D02*
X219948Y-29071D01*
X219520Y-29500D01*
Y-26500D01*
X217177Y-29500D02*
X217606Y-29357D01*
X217891Y-28928D01*
X218034Y-28214D01*
Y-27786D01*
X217891Y-27072D01*
X217606Y-26643D01*
X217177Y-26500D01*
X216892D01*
X216463Y-26643D01*
X216178Y-27072D01*
X216035Y-27786D01*
Y-28214D01*
X216178Y-28928D01*
X216463Y-29357D01*
X216892Y-29500D01*
X217177D01*
X221076Y-14468D02*
X221219Y-14753D01*
X221505Y-15039D01*
X221791Y-15182D01*
X222362D01*
X222648Y-15039D01*
X222933Y-14753D01*
X223076Y-14468D01*
X223219Y-14039D01*
Y-13325D01*
X223076Y-12897D01*
X222933Y-12611D01*
X222648Y-12325D01*
X222362Y-12183D01*
X221791D01*
X221505Y-12325D01*
X221219Y-12611D01*
X221076Y-12897D01*
X220234Y-14611D02*
X219948Y-14753D01*
X219520Y-15182D01*
Y-12183D01*
X217891Y-14468D02*
Y-14611D01*
X217749Y-14896D01*
X217606Y-15039D01*
X217320Y-15182D01*
X216749D01*
X216463Y-15039D01*
X216320Y-14896D01*
X216178Y-14611D01*
Y-14325D01*
X216320Y-14039D01*
X216606Y-13611D01*
X218034Y-12183D01*
X216035D01*
X221076Y-9695D02*
X221219Y-9981D01*
X221505Y-10266D01*
X221791Y-10409D01*
X222362D01*
X222648Y-10266D01*
X222933Y-9981D01*
X223076Y-9695D01*
X223219Y-9267D01*
Y-8553D01*
X223076Y-8124D01*
X222933Y-7839D01*
X222648Y-7553D01*
X222362Y-7410D01*
X221791D01*
X221505Y-7553D01*
X221219Y-7839D01*
X221076Y-8124D01*
X220234Y-9838D02*
X219948Y-9981D01*
X219520Y-10409D01*
Y-7410D01*
X217749Y-10409D02*
X216178D01*
X217034Y-9267D01*
X216606D01*
X216320Y-9124D01*
X216178Y-8981D01*
X216035Y-8553D01*
Y-8267D01*
X216178Y-7839D01*
X216463Y-7553D01*
X216892Y-7410D01*
X217320D01*
X217749Y-7553D01*
X217891Y-7696D01*
X218034Y-7981D01*
X221076Y8315D02*
X221219Y8029D01*
X221505Y7743D01*
X221791Y7600D01*
X222362D01*
X222648Y7743D01*
X222933Y8029D01*
X223076Y8315D01*
X223219Y8743D01*
Y9457D01*
X223076Y9886D01*
X222933Y10171D01*
X222648Y10457D01*
X222362Y10600D01*
X221791D01*
X221505Y10457D01*
X221219Y10171D01*
X221076Y9886D01*
X220234Y8172D02*
X219948Y8029D01*
X219520Y7600D01*
Y10600D01*
X216606Y7600D02*
X218034Y9600D01*
X215892D01*
X216606Y7600D02*
Y10600D01*
X221076Y13214D02*
X221219Y12929D01*
X221505Y12643D01*
X221791Y12500D01*
X222362D01*
X222648Y12643D01*
X222933Y12929D01*
X223076Y13214D01*
X223219Y13643D01*
Y14357D01*
X223076Y14785D01*
X222933Y15071D01*
X222648Y15357D01*
X222362Y15500D01*
X221791D01*
X221505Y15357D01*
X221219Y15071D01*
X221076Y14785D01*
X220234Y13072D02*
X219948Y12929D01*
X219520Y12500D01*
Y15500D01*
X216320Y12500D02*
X217749D01*
X217891Y13786D01*
X217749Y13643D01*
X217320Y13500D01*
X216892D01*
X216463Y13643D01*
X216178Y13929D01*
X216035Y14357D01*
Y14643D01*
X216178Y15071D01*
X216463Y15357D01*
X216892Y15500D01*
X217320D01*
X217749Y15357D01*
X217891Y15214D01*
X218034Y14928D01*
X222292Y-20000D02*
Y-17000D01*
Y-20000D02*
X221007D01*
X220579Y-19857D01*
X220436Y-19714D01*
X220293Y-19428D01*
Y-19143D01*
X220436Y-18857D01*
X220579Y-18714D01*
X221007Y-18571D01*
X222292D01*
X221293D02*
X220293Y-17000D01*
X217765Y-19000D02*
X217908Y-18571D01*
X218193Y-18286D01*
X218622Y-18143D01*
X218765D01*
X219193Y-18286D01*
X219479Y-18571D01*
X219622Y-19000D01*
Y-19143D01*
X219479Y-19571D01*
X219193Y-19857D01*
X218765Y-20000D01*
X218622D01*
X218193Y-19857D01*
X217908Y-19571D01*
X217765Y-19000D01*
Y-18286D01*
X217908Y-17572D01*
X218193Y-17143D01*
X218622Y-17000D01*
X218907D01*
X219336Y-17143D01*
X219479Y-17429D01*
X217962Y-1886D02*
X220104D01*
X220533Y-1743D01*
X220818Y-1457D01*
X220961Y-1029D01*
Y-743D01*
X220818Y-315D01*
X220533Y-29D01*
X220104Y114D01*
X217962D01*
Y2371D02*
X219962Y942D01*
Y3085D01*
X217962Y2371D02*
X220961D01*
D12*
X86850Y-8063D02*
G03*
X88032Y-6882I0J1181D01*
G01*
X74937Y-8228D02*
G03*
X76709Y-10000I1772J0D01*
G01*
X94331Y4075D02*
G03*
X95906Y2500I1575J0D01*
G01*
X74937Y-8228D02*
Y-8032D01*
X65291Y-11969D02*
X76709D01*
X65291D02*
Y-8032D01*
X76709Y-11969D02*
Y-9016D01*
X75724Y-8032D02*
X76709Y-9016D01*
X65291Y-8032D02*
X75724D01*
X95906Y728D02*
Y4272D01*
X84095Y728D02*
Y4272D01*
X95906D01*
X84095Y728D02*
X95906D01*
X94331Y4075D02*
Y4272D01*
X94528Y-18102D02*
Y-5898D01*
X85472Y-18102D02*
X94528D01*
X87638Y-5898D02*
X94528D01*
X85472Y-8063D02*
X87638Y-5898D01*
X85472Y-18102D02*
Y-8063D01*
X86850D01*
X88032Y-6882D02*
Y-5898D01*
D13*
X194000Y-37500D02*
Y37500D01*
X181000Y-40000D02*
Y40000D01*
X195000Y-35000D02*
Y35000D01*
Y-35000D02*
X205000D01*
Y35000D01*
X195000D02*
X205000D01*
X195000Y25000D02*
X205000D01*
X154999Y6998D02*
X153999Y7998D01*
X152000D01*
X151000Y6998D01*
Y5999D01*
X152000Y4999D01*
X153999D01*
X154999Y3999D01*
Y3000D01*
X153999Y2000D01*
X152000D01*
X151000Y3000D01*
X160997Y6998D02*
X159997Y7998D01*
X157998D01*
X156998Y6998D01*
Y3000D01*
X157998Y2000D01*
X159997D01*
X160997Y3000D01*
X162996Y7998D02*
Y2000D01*
Y3999D01*
X166995Y7998D01*
X163996Y4999D01*
X166995Y2000D01*
X154999Y16998D02*
X153999Y17998D01*
X152000D01*
X151000Y16998D01*
Y13000D01*
X152000Y12000D01*
X153999D01*
X154999Y13000D01*
Y14999D01*
X152999D01*
X156998Y12000D02*
Y17998D01*
X160997Y12000D01*
Y17998D01*
X162996D02*
Y12000D01*
X165995D01*
X166995Y13000D01*
Y16998D01*
X165995Y17998D01*
X162996D01*
X151500Y-2002D02*
Y-8000D01*
X154499D01*
X155499Y-7000D01*
Y-3002D01*
X154499Y-2002D01*
X151500D01*
X157498D02*
X159497D01*
X158498D01*
Y-8000D01*
X157498D01*
X159497D01*
X165495Y-2002D02*
X163496D01*
X162496Y-3002D01*
Y-7000D01*
X163496Y-8000D01*
X165495D01*
X166495Y-7000D01*
Y-3002D01*
X165495Y-2002D01*
X151000Y-13002D02*
X152000Y-12002D01*
X153999D01*
X154999Y-13002D01*
Y-14001D01*
X153999Y-15001D01*
X152999D01*
X153999D01*
X154999Y-16001D01*
Y-17000D01*
X153999Y-18000D01*
X152000D01*
X151000Y-17000D01*
X156998Y-12002D02*
Y-16001D01*
X158997Y-18000D01*
X160997Y-16001D01*
Y-12002D01*
X162996Y-13002D02*
X163996Y-12002D01*
X165995D01*
X166995Y-13002D01*
Y-14001D01*
X165995Y-15001D01*
X164996D01*
X165995D01*
X166995Y-16001D01*
Y-17000D01*
X165995Y-18000D01*
X163996D01*
X162996Y-17000D01*
D14*
X224600Y5800D02*
X229100D01*
X224600Y-5700D02*
X229100D01*
X224600Y3800D02*
Y5800D01*
X233600Y-200D02*
Y300D01*
X224600Y-3700D02*
X224600Y-5700D01*
D15*
X118400Y-12100D02*
X120700Y-20100D01*
X117000Y-24300D02*
X120500Y-20700D01*
X117400Y-20400D02*
X120700Y-20100D01*
X117400Y-20400D02*
X121000Y-24000D01*
X117000Y-24300D02*
X121000Y-24000D01*
X120500Y-20700D02*
X122400Y-25100D01*
X30000Y-17028D02*
Y17028D01*
X36018D01*
X44018Y17000D02*
X51018D01*
X30000Y-17028D02*
X36018D01*
X44018Y-17000D02*
X51018D01*
X172500Y20000D02*
X177500D01*
X180000Y-17500D02*
Y-12500D01*
X177500Y-20000D02*
X180000Y-17500D01*
X170000D02*
X172500Y-20000D01*
X177500D01*
Y-10000D02*
X180000Y-7500D01*
Y-2500D01*
X177500Y0D02*
X180000Y-2500D01*
X170000D02*
X172500Y0D01*
X170000Y-7500D02*
Y-2500D01*
Y-7500D02*
X172500Y-10000D01*
X177500D02*
X180000Y-12500D01*
X170000D02*
X172500Y-10000D01*
X170000Y-17500D02*
Y-12500D01*
X180000Y12500D02*
Y17500D01*
X177500Y10000D02*
X180000Y12500D01*
X170000D02*
X172500Y10000D01*
X177500Y0D02*
X180000Y2500D01*
Y7500D01*
X177500Y10000D02*
X180000Y7500D01*
X170000D02*
X172500Y10000D01*
X170000Y2500D02*
Y7500D01*
Y2500D02*
X172500Y0D01*
X177500Y20000D02*
X180000Y17500D01*
X170000D02*
X172500Y20000D01*
X170000Y12500D02*
Y17500D01*
X67063Y10744D02*
X74937D01*
X69622Y15075D02*
X71984Y13500D01*
X67063Y16256D02*
X74937D01*
X69622Y11925D02*
Y15075D01*
Y11925D02*
X71984Y13500D01*
X115900Y-25100D02*
X118400Y-12100D01*
X131300Y-7752D02*
Y-12250D01*
X133549D01*
X134299Y-11501D01*
Y-10751D01*
X133549Y-10001D01*
X131300D01*
X133549D01*
X134299Y-9251D01*
Y-8501D01*
X133549Y-7752D01*
X131300D01*
X138048D02*
X136548D01*
X135799Y-8501D01*
Y-11501D01*
X136548Y-12250D01*
X138048D01*
X138798Y-11501D01*
Y-8501D01*
X138048Y-7752D01*
X142546D02*
X141047D01*
X140297Y-8501D01*
Y-11501D01*
X141047Y-12250D01*
X142546D01*
X143296Y-11501D01*
Y-8501D01*
X142546Y-7752D01*
X144796D02*
X147795D01*
X146295D01*
Y-12250D01*
X132800Y7800D02*
Y12299D01*
X135049D01*
X135799Y11549D01*
Y10049D01*
X135049Y9300D01*
X132800D01*
X134300D02*
X135799Y7800D01*
X140298Y11549D02*
X139548Y12299D01*
X138048D01*
X137299Y11549D01*
Y10799D01*
X138048Y10049D01*
X139548D01*
X140298Y9300D01*
Y8550D01*
X139548Y7800D01*
X138048D01*
X137299Y8550D01*
X141797Y12299D02*
X144796D01*
X143297D01*
Y7800D01*
X64299Y22999D02*
X63549Y23748D01*
X62050D01*
X61300Y22999D01*
Y22249D01*
X62050Y21499D01*
X63549D01*
X64299Y20749D01*
Y19999D01*
X63549Y19250D01*
X62050D01*
X61300Y19999D01*
X65799Y23748D02*
X68798D01*
X67298D01*
Y19250D01*
X70297D02*
Y23748D01*
X71797Y22249D01*
X73296Y23748D01*
Y19250D01*
X74796Y22999D02*
X75545Y23748D01*
X77045D01*
X77795Y22999D01*
Y22249D01*
X77045Y21499D01*
X76295D01*
X77045D01*
X77795Y20749D01*
Y19999D01*
X77045Y19250D01*
X75545D01*
X74796Y19999D01*
X82293Y19250D02*
X79294D01*
X82293Y22249D01*
Y22999D01*
X81543Y23748D01*
X80044D01*
X79294Y22999D01*
X86792D02*
X86042Y23748D01*
X84543D01*
X83793Y22999D01*
Y19999D01*
X84543Y19250D01*
X86042D01*
X86792Y19999D01*
Y21499D01*
X85292D01*
X88291Y22999D02*
X89041Y23748D01*
X90541D01*
X91290Y22999D01*
Y19999D01*
X90541Y19250D01*
X89041D01*
X88291Y19999D01*
Y22999D01*
X92790D02*
X93540Y23748D01*
X95039D01*
X95789Y22999D01*
Y22249D01*
X95039Y21499D01*
X94289D01*
X95039D01*
X95789Y20749D01*
Y19999D01*
X95039Y19250D01*
X93540D01*
X92790Y19999D01*
X97288Y19250D02*
X98788D01*
X98038D01*
Y23748D01*
X97288Y22999D01*
X81799Y-21001D02*
X81049Y-20252D01*
X79550D01*
X78800Y-21001D01*
Y-24001D01*
X79550Y-24750D01*
X81049D01*
X81799Y-24001D01*
X83299Y-20252D02*
Y-24750D01*
Y-22501D01*
X86298D01*
Y-20252D01*
Y-24750D01*
X87797Y-21001D02*
X88547Y-20252D01*
X90046D01*
X90796Y-21001D01*
Y-21751D01*
X90046Y-22501D01*
X89297D01*
X90046D01*
X90796Y-23251D01*
Y-24001D01*
X90046Y-24750D01*
X88547D01*
X87797Y-24001D01*
X94545Y-24750D02*
Y-20252D01*
X92296Y-22501D01*
X95295D01*
X96794Y-21001D02*
X97544Y-20252D01*
X99044D01*
X99793Y-21001D01*
Y-24001D01*
X99044Y-24750D01*
X97544D01*
X96794Y-24001D01*
Y-21001D01*
X104292Y-20252D02*
X101293D01*
Y-24750D01*
X104292D01*
X101293Y-22501D02*
X102792D01*
D16*
X36311Y-23886D02*
Y-23000D01*
X37689Y-22016D01*
Y-23000D02*
Y-22016D01*
X36311Y-23000D02*
Y-22114D01*
Y-23000D02*
X37689Y-23984D01*
Y-23000D01*
Y22016D02*
Y23000D01*
X36311D02*
X37689Y23984D01*
Y23000D02*
Y23984D01*
X36311Y23000D02*
Y23886D01*
Y23000D02*
X37689Y22016D01*
X36311Y22114D02*
Y23000D01*
D17*
X135572Y-519D02*
X136091Y0D01*
X123481Y-11572D02*
X124000Y-12092D01*
X111908Y0D02*
X112428Y519D01*
X123481Y11572D02*
X124000Y12092D01*
X135572Y519D02*
X136091Y0D01*
X124000Y-12092D02*
X124519Y-11572D01*
X111908Y0D02*
X112428Y-519D01*
X124000Y12092D02*
X124519Y11572D01*
D18*
X72378Y13500D02*
D03*
M02*
