G04*
G04 #@! TF.GenerationSoftware,Altium Limited,Altium Designer,19.1.5 (86)*
G04*
G04 Layer_Physical_Order=2*
G04 Layer_Color=16711680*
%FSLAX25Y25*%
%MOIN*%
G70*
G01*
G75*
%ADD11C,0.00500*%
%ADD13C,0.01000*%
%ADD23R,0.10000X0.01260*%
%ADD68C,0.02500*%
%ADD69C,0.02000*%
%ADD70O,0.07000X0.06000*%
%ADD71R,0.07000X0.06000*%
%ADD72C,0.07400*%
%ADD73C,0.02559*%
%ADD74O,0.06299X0.03937*%
%ADD75O,0.08268X0.03937*%
%ADD76C,0.02362*%
G36*
X48748Y34977D02*
X49056Y33582D01*
X49177Y33195D01*
X49306Y32848D01*
X49445Y32540D01*
X49593Y32271D01*
X49750Y32042D01*
X49916Y31852D01*
X48148Y30084D01*
X47958Y30250D01*
X47729Y30407D01*
X47460Y30555D01*
X47152Y30694D01*
X46805Y30823D01*
X46418Y30944D01*
X45527Y31159D01*
X45023Y31252D01*
X44479Y31337D01*
X48663Y35521D01*
X48748Y34977D01*
D02*
G37*
G36*
X82500Y4500D02*
Y3000D01*
X79000Y-500D01*
X77500Y1000D01*
Y8500D01*
X78500D01*
X82500Y4500D01*
D02*
G37*
G36*
X165813Y-5887D02*
X165361Y-6568D01*
X165313Y-6663D01*
X165278Y-6744D01*
X165257Y-6810D01*
X165250Y-6863D01*
X164750D01*
X164743Y-6810D01*
X164722Y-6744D01*
X164688Y-6663D01*
X164639Y-6568D01*
X164500Y-6338D01*
X164306Y-6051D01*
X164056Y-5709D01*
X165944D01*
X165813Y-5887D01*
D02*
G37*
G36*
X109312D02*
X108861Y-6568D01*
X108812Y-6663D01*
X108778Y-6744D01*
X108757Y-6810D01*
X108750Y-6863D01*
X108250D01*
X108243Y-6810D01*
X108222Y-6744D01*
X108187Y-6663D01*
X108139Y-6568D01*
X108000Y-6338D01*
X107806Y-6051D01*
X107556Y-5709D01*
X109444D01*
X109312Y-5887D01*
D02*
G37*
G36*
X162202Y-7553D02*
X162364Y-8354D01*
X162397Y-8455D01*
X162429Y-8536D01*
X162462Y-8598D01*
X162494Y-8641D01*
X162141Y-8994D01*
X162098Y-8962D01*
X162037Y-8929D01*
X161955Y-8897D01*
X161854Y-8864D01*
X161592Y-8800D01*
X161252Y-8734D01*
X160834Y-8669D01*
X162169Y-7334D01*
X162202Y-7553D01*
D02*
G37*
G36*
X180000Y10000D02*
X172500D01*
X170000Y7500D01*
Y-17500D01*
X172500Y-20000D01*
X180000D01*
X180000Y-30000D01*
X167172D01*
X166274Y-28787D01*
Y-7036D01*
X166648Y-6473D01*
X166763Y-6316D01*
X166812Y-6214D01*
X167054Y-5851D01*
X167224Y-5000D01*
X167054Y-4149D01*
X166572Y-3427D01*
X165851Y-2945D01*
X165000Y-2776D01*
X164149Y-2945D01*
X163427Y-3427D01*
X162945Y-4149D01*
X162776Y-5000D01*
X162890Y-5571D01*
X162432Y-5834D01*
X161851Y-5446D01*
X161000Y-5276D01*
X160149Y-5446D01*
X159427Y-5928D01*
X158946Y-6649D01*
X158776Y-7500D01*
X158946Y-8351D01*
X159427Y-9072D01*
X160149Y-9555D01*
X160574Y-9639D01*
X160677Y-9677D01*
X161078Y-9739D01*
X161373Y-9796D01*
X161533Y-9835D01*
X162225Y-10528D01*
Y-25972D01*
X158510Y-29687D01*
X156470Y-30000D01*
X113477D01*
X111508Y-29705D01*
X109774Y-27972D01*
Y-18036D01*
X110148Y-17473D01*
X110264Y-17316D01*
X110312Y-17214D01*
X110555Y-16851D01*
X110724Y-16000D01*
X110555Y-15149D01*
X110073Y-14427D01*
X109351Y-13945D01*
X109042Y-13884D01*
X108897Y-13406D01*
X109401Y-12901D01*
X109678Y-12488D01*
X109774Y-12000D01*
Y-7036D01*
X110148Y-6473D01*
X110264Y-6316D01*
X110312Y-6214D01*
X110555Y-5851D01*
X110724Y-5000D01*
X110555Y-4149D01*
X110073Y-3427D01*
X109351Y-2945D01*
X108500Y-2776D01*
X107649Y-2945D01*
X106928Y-3427D01*
X106446Y-4149D01*
X106276Y-5000D01*
X106446Y-5851D01*
X106686Y-6211D01*
X106732Y-6311D01*
X106972Y-6639D01*
X107141Y-6887D01*
X107226Y-7028D01*
Y-11472D01*
X105099Y-13599D01*
X104823Y-14012D01*
X104726Y-14500D01*
Y-17500D01*
X104823Y-17988D01*
X105099Y-18401D01*
X105726Y-19028D01*
Y-27972D01*
X104099Y-29599D01*
X103831Y-30000D01*
X31019D01*
Y38980D01*
X40000D01*
Y32500D01*
X42500Y30000D01*
X45983D01*
X46147Y29961D01*
X46474Y29858D01*
X46764Y29750D01*
X47004Y29642D01*
X47194Y29537D01*
X47271Y29485D01*
X53378Y23378D01*
X54122Y22881D01*
X55000Y22706D01*
X59050D01*
X76480Y5275D01*
Y1000D01*
X76558Y610D01*
X76779Y279D01*
X76961Y97D01*
Y-5155D01*
X73676Y-8440D01*
X73649Y-8445D01*
X72927Y-8928D01*
X72445Y-9649D01*
X72276Y-10500D01*
X72445Y-11351D01*
X72927Y-12072D01*
X73649Y-12555D01*
X74500Y-12724D01*
X75351Y-12555D01*
X76073Y-12072D01*
X76555Y-11351D01*
X76560Y-11324D01*
X80442Y-7442D01*
X80884Y-6780D01*
X81039Y-6000D01*
Y97D01*
X83221Y2279D01*
X83442Y2610D01*
X83520Y3000D01*
Y4500D01*
X83442Y4890D01*
X83221Y5221D01*
X79221Y9221D01*
X78890Y9442D01*
X78781Y9464D01*
X61622Y26622D01*
X60878Y27119D01*
X60000Y27294D01*
X55950D01*
X53706Y29538D01*
X53898Y30000D01*
X167500D01*
X170000Y32500D01*
Y38980D01*
X180000D01*
X180000Y10000D01*
D02*
G37*
G36*
X281481Y22922D02*
X278279Y19721D01*
X278058Y19390D01*
X277980Y19000D01*
Y-19000D01*
X278058Y-19390D01*
X278279Y-19721D01*
X281481Y-22922D01*
Y-36481D01*
X194300D01*
Y-31818D01*
X195800Y-31520D01*
X196006Y-32017D01*
X196647Y-32853D01*
X197483Y-33494D01*
X198456Y-33897D01*
X199500Y-34034D01*
X200500D01*
X201544Y-33897D01*
X202517Y-33494D01*
X203353Y-32853D01*
X203994Y-32017D01*
X204397Y-31044D01*
X204535Y-30000D01*
X204397Y-28956D01*
X204048Y-28114D01*
X221715Y-10447D01*
X227592D01*
X228166Y-11833D01*
X223713Y-16286D01*
X223662Y-16276D01*
X222811Y-16445D01*
X222090Y-16928D01*
X221608Y-17649D01*
X221438Y-18500D01*
X221608Y-19351D01*
X222090Y-20073D01*
X222231Y-20167D01*
X222257Y-21857D01*
X222137Y-21937D01*
X221655Y-22659D01*
X221486Y-23510D01*
X221655Y-24361D01*
X222137Y-25082D01*
Y-26437D01*
X221655Y-27159D01*
X221486Y-28010D01*
X221655Y-28861D01*
X222137Y-29582D01*
X222859Y-30064D01*
X223710Y-30233D01*
X224561Y-30064D01*
X225282Y-29582D01*
X225764Y-28861D01*
X225934Y-28010D01*
X225923Y-27959D01*
X235700Y-18182D01*
X237200Y-18264D01*
Y-21900D01*
X251500D01*
Y-20078D01*
X252708Y-18819D01*
X253559Y-18650D01*
X254280Y-18168D01*
X254762Y-17446D01*
X254932Y-16595D01*
X255783Y-16091D01*
X256504Y-15609D01*
X256986Y-14887D01*
X257155Y-14036D01*
X256986Y-13185D01*
X256504Y-12464D01*
X256275Y-12310D01*
X256248Y-12239D01*
Y-10715D01*
X256275Y-10644D01*
X256504Y-10491D01*
X256986Y-9769D01*
X257155Y-8918D01*
X256986Y-8067D01*
X256504Y-7346D01*
X256275Y-7192D01*
X256248Y-7121D01*
Y-5597D01*
X256275Y-5526D01*
X256504Y-5373D01*
X256986Y-4651D01*
X257155Y-3800D01*
X256986Y-2949D01*
X256504Y-2228D01*
X256275Y-2074D01*
X256248Y-2003D01*
Y-479D01*
X256275Y-408D01*
X256504Y-254D01*
X256986Y467D01*
X257155Y1318D01*
X256986Y2169D01*
X256504Y2891D01*
X255783Y3373D01*
X254932Y3542D01*
X254081Y3373D01*
X253359Y2891D01*
X253330Y2847D01*
X251500D01*
Y8072D01*
X252708Y9330D01*
X253559Y9500D01*
X254280Y9982D01*
X254762Y10703D01*
X254932Y11554D01*
X254762Y12405D01*
X254340Y13038D01*
X254468Y13508D01*
X254751Y14081D01*
X254985Y14460D01*
X255784Y14619D01*
X256506Y15101D01*
X256988Y15822D01*
X257157Y16673D01*
X256988Y17524D01*
X256506Y18246D01*
X255784Y18728D01*
X254932Y19231D01*
X254762Y20083D01*
X254280Y20804D01*
X253559Y21286D01*
X252884Y21420D01*
X251500Y21700D01*
Y21700D01*
X237416D01*
Y26957D01*
X237459Y26986D01*
X237941Y27708D01*
X238110Y28559D01*
X237941Y29410D01*
X237459Y30131D01*
X236737Y30613D01*
X235886Y30782D01*
X235035Y30613D01*
X234314Y30131D01*
X233832Y29410D01*
X233662Y28559D01*
X233832Y27708D01*
X234314Y26986D01*
X234357Y26957D01*
Y22196D01*
X232857Y21574D01*
X225923Y28508D01*
X225934Y28559D01*
X225764Y29410D01*
X225282Y30131D01*
X224561Y30613D01*
X223710Y30782D01*
X222859Y30613D01*
X222137Y30131D01*
X221655Y29410D01*
X221486Y28559D01*
X221655Y27708D01*
X222137Y26986D01*
X222404Y26808D01*
X222451Y26668D01*
X222451Y25281D01*
X222404Y25141D01*
X222137Y24963D01*
X221655Y24241D01*
X221486Y23390D01*
X221655Y22539D01*
X222137Y21818D01*
X222859Y21336D01*
X223710Y21167D01*
X223761Y21177D01*
X234298Y10639D01*
X233832Y9941D01*
X233662Y9090D01*
X233832Y8239D01*
X234314Y7518D01*
X234357Y7489D01*
Y7022D01*
X234473Y6437D01*
X234805Y5941D01*
X235390Y5355D01*
X235887Y5023D01*
X236472Y4907D01*
X237200D01*
Y2847D01*
X209315D01*
X204048Y8114D01*
X204397Y8956D01*
X204535Y10000D01*
X204397Y11044D01*
X203994Y12017D01*
X203353Y12853D01*
X202517Y13494D01*
X201544Y13897D01*
X200500Y14035D01*
X199500D01*
X198456Y13897D01*
X197483Y13494D01*
X196647Y12853D01*
X196006Y12017D01*
X195800Y11520D01*
X194300Y11818D01*
Y25276D01*
X195500Y26000D01*
X195800Y26000D01*
X204500D01*
Y34000D01*
X195800D01*
X195500Y34000D01*
X194300Y34724D01*
Y36481D01*
X281481D01*
Y22922D01*
D02*
G37*
G36*
X109312Y-16887D02*
X108861Y-17569D01*
X108812Y-17663D01*
X108778Y-17744D01*
X108757Y-17810D01*
X108750Y-17863D01*
X108250D01*
X108243Y-17810D01*
X108222Y-17744D01*
X108187Y-17663D01*
X108139Y-17569D01*
X108000Y-17338D01*
X107806Y-17051D01*
X107556Y-16709D01*
X109444D01*
X109312Y-16887D01*
D02*
G37*
G36*
X105261Y-30624D02*
X105293Y-30744D01*
X105348Y-30859D01*
X105423Y-30970D01*
X105521Y-31077D01*
X105640Y-31180D01*
X105781Y-31278D01*
X105943Y-31373D01*
X106128Y-31463D01*
X106333Y-31549D01*
X103667D01*
X103873Y-31463D01*
X104057Y-31373D01*
X104219Y-31278D01*
X104360Y-31180D01*
X104479Y-31077D01*
X104577Y-30970D01*
X104653Y-30859D01*
X104707Y-30744D01*
X104739Y-30624D01*
X104750Y-30500D01*
X105250D01*
X105261Y-30624D01*
D02*
G37*
G36*
X165277Y-29140D02*
X165358Y-29263D01*
X167959Y-32778D01*
X162041D01*
X164750Y-29089D01*
X165250D01*
X165277Y-29140D01*
D02*
G37*
G36*
X159357Y-30997D02*
X159339Y-31053D01*
X159310Y-31196D01*
X158663Y-35521D01*
X154479Y-31337D01*
X159003Y-30643D01*
X159357Y-30997D01*
D02*
G37*
G36*
X111053Y-30661D02*
X111196Y-30690D01*
X115521Y-31337D01*
X111337Y-35521D01*
X110643Y-30997D01*
X110997Y-30643D01*
X111053Y-30661D01*
D02*
G37*
%LPC*%
G36*
X128322Y16402D02*
X127471Y16233D01*
X127111Y15992D01*
X127011Y15946D01*
X126683Y15706D01*
X126435Y15537D01*
X126294Y15453D01*
X121678D01*
X121190Y15356D01*
X120777Y15079D01*
X115894Y10197D01*
X115305Y10190D01*
X115136Y10197D01*
X115000Y10224D01*
X114149Y10055D01*
X113427Y9572D01*
X112945Y8851D01*
X112776Y8000D01*
X112945Y7149D01*
X113427Y6427D01*
X114149Y5945D01*
X115000Y5776D01*
X115851Y5945D01*
X116572Y6427D01*
X117054Y7149D01*
X117082Y7286D01*
X117257Y7764D01*
X117348Y7982D01*
X117409Y8106D01*
X122206Y12904D01*
X126286D01*
X126849Y12531D01*
X127005Y12415D01*
X127107Y12366D01*
X127471Y12124D01*
X128322Y11954D01*
X129173Y12124D01*
X129894Y12606D01*
X130376Y13327D01*
X130546Y14178D01*
X130376Y15029D01*
X129894Y15751D01*
X129173Y16233D01*
X128322Y16402D01*
D02*
G37*
G36*
X54016Y13702D02*
X53126Y13525D01*
X52372Y13021D01*
X51868Y12267D01*
X51692Y11378D01*
X51868Y10488D01*
X52372Y9735D01*
X53126Y9231D01*
X54016Y9054D01*
X54905Y9231D01*
X55659Y9735D01*
X56163Y10488D01*
X56340Y11378D01*
X56163Y12267D01*
X55659Y13021D01*
X54905Y13525D01*
X54016Y13702D01*
D02*
G37*
G36*
X109000Y19520D02*
X108000D01*
X107610Y19442D01*
X107279Y19221D01*
X106279Y18221D01*
X106058Y17890D01*
X105980Y17500D01*
Y12725D01*
X95378Y2122D01*
X94881Y1378D01*
X94706Y500D01*
Y-2657D01*
X94881Y-3535D01*
X95378Y-4280D01*
X96122Y-4777D01*
X97000Y-4952D01*
X97878Y-4777D01*
X98622Y-4280D01*
X99119Y-3535D01*
X99294Y-2657D01*
Y-450D01*
X110281Y10536D01*
X110390Y10558D01*
X110721Y10779D01*
X113221Y13279D01*
X113442Y13610D01*
X113520Y14000D01*
Y15000D01*
X113442Y15390D01*
X113221Y15721D01*
X109721Y19221D01*
X109390Y19442D01*
X109000Y19520D01*
D02*
G37*
G36*
X54016Y-9054D02*
X53126Y-9231D01*
X52372Y-9735D01*
X51868Y-10488D01*
X51692Y-11378D01*
X51868Y-12267D01*
X52372Y-13021D01*
X53126Y-13525D01*
X54016Y-13702D01*
X54905Y-13525D01*
X55659Y-13021D01*
X56163Y-12267D01*
X56340Y-11378D01*
X56163Y-10488D01*
X55659Y-9735D01*
X54905Y-9231D01*
X54016Y-9054D01*
D02*
G37*
G36*
X123000Y3294D02*
X122122Y3119D01*
X121378Y2622D01*
X120880Y1878D01*
X120706Y1000D01*
X120880Y122D01*
X121378Y-622D01*
X123628Y-2872D01*
X125206Y-4450D01*
Y-11645D01*
X125381Y-12523D01*
X125878Y-13267D01*
X129233Y-16622D01*
X129977Y-17120D01*
X130855Y-17294D01*
X148500D01*
X149378Y-17120D01*
X150122Y-16622D01*
X150619Y-15878D01*
X150794Y-15000D01*
X150619Y-14122D01*
X150122Y-13378D01*
X149378Y-12880D01*
X148500Y-12706D01*
X133085D01*
X132817Y-12206D01*
X133054Y-11851D01*
X133139Y-11426D01*
X133177Y-11323D01*
X133239Y-10922D01*
X133296Y-10627D01*
X133335Y-10467D01*
X136034Y-7768D01*
X136520D01*
X137007Y-7671D01*
X137421Y-7395D01*
X137475Y-7341D01*
X138137Y-7207D01*
X138330Y-7178D01*
X138436Y-7140D01*
X138865Y-7055D01*
X139586Y-6572D01*
X140068Y-5851D01*
X140238Y-5000D01*
X140068Y-4149D01*
X139586Y-3427D01*
X138865Y-2945D01*
X138014Y-2776D01*
X137163Y-2945D01*
X136441Y-3427D01*
X135959Y-4149D01*
X135875Y-4574D01*
X135837Y-4677D01*
X135775Y-5078D01*
X135748Y-5220D01*
X135506D01*
X135018Y-5317D01*
X134605Y-5593D01*
X131538Y-8659D01*
X130877Y-8794D01*
X130684Y-8822D01*
X130578Y-8860D01*
X130294Y-8917D01*
X129794Y-8627D01*
Y-3500D01*
X129620Y-2622D01*
X129122Y-1878D01*
X126872Y372D01*
X124622Y2622D01*
X123878Y3119D01*
X123000Y3294D01*
D02*
G37*
%LPD*%
G36*
X127613Y13234D02*
X127435Y13366D01*
X126753Y13817D01*
X126659Y13866D01*
X126578Y13900D01*
X126512Y13921D01*
X126459Y13928D01*
Y14428D01*
X126512Y14435D01*
X126578Y14456D01*
X126659Y14491D01*
X126753Y14539D01*
X126984Y14678D01*
X127270Y14873D01*
X127613Y15123D01*
Y13234D01*
D02*
G37*
G36*
X116646Y8792D02*
X116606Y8746D01*
X116564Y8685D01*
X116518Y8607D01*
X116419Y8403D01*
X116307Y8136D01*
X116117Y7616D01*
X115058Y9180D01*
X115289Y9170D01*
X116123Y9180D01*
X116226Y9194D01*
X116308Y9212D01*
X116368Y9234D01*
X116406Y9260D01*
X116646Y8792D01*
D02*
G37*
G36*
X112500Y15000D02*
Y14000D01*
X110000Y11500D01*
X107000D01*
Y17500D01*
X108000Y18500D01*
X109000D01*
X112500Y15000D01*
D02*
G37*
G36*
X138180Y-6169D02*
X137961Y-6202D01*
X137160Y-6364D01*
X137059Y-6397D01*
X136977Y-6429D01*
X136915Y-6462D01*
X136873Y-6494D01*
X136520Y-6141D01*
X136552Y-6098D01*
X136584Y-6036D01*
X136617Y-5955D01*
X136649Y-5854D01*
X136714Y-5592D01*
X136779Y-5252D01*
X136844Y-4834D01*
X138180Y-6169D01*
D02*
G37*
G36*
X132494Y-9859D02*
X132462Y-9902D01*
X132429Y-9963D01*
X132397Y-10045D01*
X132364Y-10146D01*
X132299Y-10408D01*
X132234Y-10748D01*
X132169Y-11166D01*
X130834Y-9831D01*
X131053Y-9798D01*
X131854Y-9636D01*
X131955Y-9603D01*
X132036Y-9571D01*
X132098Y-9538D01*
X132141Y-9506D01*
X132494Y-9859D01*
D02*
G37*
D11*
X138014Y-5000D02*
X138014D01*
X136520Y-6494D02*
X138014Y-5000D01*
X135506Y-6494D02*
X136520D01*
X131000Y-11000D02*
X135506Y-6494D01*
X121678Y14178D02*
X128322D01*
X115000Y8000D02*
X115500D01*
X121678Y14178D01*
X108500Y-28500D02*
X115000Y-35000D01*
X105000Y-30500D02*
X107000Y-28500D01*
X105000Y-35000D02*
Y-30500D01*
X108500Y-28500D02*
Y-16000D01*
X165000Y-35000D02*
Y-5000D01*
X106000Y-17500D02*
Y-14500D01*
X108500Y-12000D02*
Y-5000D01*
X106000Y-14500D02*
X108500Y-12000D01*
X107000Y-28500D02*
Y-18500D01*
X106000Y-17500D02*
X107000Y-18500D01*
X163500Y-26500D02*
Y-10000D01*
X161000Y-7500D02*
X163500Y-10000D01*
X155000Y-35000D02*
X163500Y-26500D01*
D13*
X244488Y-27334D02*
Y-19291D01*
X236221D02*
X236357Y-19154D01*
X244400D01*
X200000Y20000D02*
X216123Y3877D01*
X244400Y-19154D02*
X254932D01*
X244400Y1318D02*
X254932D01*
X244400Y3877D02*
X252708D01*
X244400Y-1241D02*
X252708D01*
X244400Y-3800D02*
X254932D01*
X244400Y-6359D02*
X252708D01*
X244400Y-16595D02*
X252708Y-16595D01*
X244400Y-11477D02*
X252708D01*
X244400Y-14036D02*
X254932Y-14036D01*
X244400Y-8918D02*
X254932D01*
X244379Y-1221D02*
X244400Y-1241D01*
X223662Y-18500D02*
X230685Y-11477D01*
X244400D01*
X233183Y-14036D02*
X244400D01*
X223710Y-23510D02*
X233183Y-14036D01*
X235124Y-16595D02*
X244400D01*
X223710Y-28010D02*
X235124Y-16595D01*
X235886Y9090D02*
X235934Y9043D01*
X244353D01*
X244400Y8995D01*
X235886Y7022D02*
X236472Y6436D01*
X235886Y7022D02*
Y9090D01*
X236472Y6436D02*
X244400D01*
X235546Y11554D02*
X244400Y11554D01*
X223710Y23390D02*
X235546Y11554D01*
X244393Y14107D02*
X244400Y14113D01*
X237200Y14100D02*
X237207Y14107D01*
X244393D01*
X235596Y16672D02*
X244400Y16672D01*
X223710Y28559D02*
X235596Y16672D01*
X237069Y19231D02*
X244400D01*
X235886Y20414D02*
X237069Y19231D01*
X235886Y20414D02*
Y28559D01*
X244400Y11554D02*
X252708Y11554D01*
X244400Y16672D02*
X254933Y16672D01*
X244400Y19231D02*
X252708D01*
X200000Y0D02*
X206680D01*
X207900Y-1221D01*
X244379D01*
X200000Y-30000D02*
X221082Y-8918D01*
X244400D01*
X213641Y-6359D02*
X244400D01*
X200000Y-20000D02*
X213641Y-6359D01*
X206200Y-3800D02*
X244400D01*
X200000Y-10000D02*
X206200Y-3800D01*
X200000Y10000D02*
X208682Y1318D01*
X244400D01*
X216123Y3877D02*
X244400D01*
D23*
Y19231D02*
D03*
Y16672D02*
D03*
X244400Y14113D02*
D03*
X244400Y11554D02*
D03*
Y8995D02*
D03*
Y6436D02*
D03*
Y3877D02*
D03*
Y1318D02*
D03*
Y-1241D02*
D03*
X244400Y-3800D02*
D03*
Y-6359D02*
D03*
X244400Y-8918D02*
D03*
Y-11477D02*
D03*
Y-14036D02*
D03*
Y-16595D02*
D03*
Y-19154D02*
D03*
D68*
X79000Y2000D02*
Y6000D01*
X145500Y-15000D02*
X148500D01*
X130855D02*
X145500D01*
X127500Y-11645D02*
X130855Y-15000D01*
X60000Y25000D02*
X79000Y6000D01*
X127500Y-11645D02*
Y-3500D01*
X55000Y25000D02*
X60000D01*
X45000Y35000D02*
X55000Y25000D01*
X97000Y500D02*
X111000Y14500D01*
X97000Y-2657D02*
Y500D01*
X108500Y17000D02*
X111000Y14500D01*
X125250Y-1250D02*
X127500Y-3500D01*
X123000Y1000D02*
X125250Y-1250D01*
D69*
X74500Y-10500D02*
X79000Y-6000D01*
Y2000D01*
D70*
X200000Y-20000D02*
D03*
Y20000D02*
D03*
Y10000D02*
D03*
Y0D02*
D03*
Y-10000D02*
D03*
Y-30000D02*
D03*
D71*
Y30000D02*
D03*
D72*
X35000Y35000D02*
D03*
X45000D02*
D03*
X55000D02*
D03*
X65000D02*
D03*
X75000D02*
D03*
X85000D02*
D03*
X95000D02*
D03*
X105000D02*
D03*
X115000D02*
D03*
X125000D02*
D03*
X135000D02*
D03*
X145000D02*
D03*
X155000D02*
D03*
X165000D02*
D03*
X175000D02*
D03*
X35000Y-35000D02*
D03*
X45000D02*
D03*
X55000D02*
D03*
X65000D02*
D03*
X75000D02*
D03*
X85000D02*
D03*
X95000D02*
D03*
X105000D02*
D03*
X115000D02*
D03*
X125000D02*
D03*
X135000D02*
D03*
X145000D02*
D03*
X155000D02*
D03*
X165000D02*
D03*
X175000D02*
D03*
Y15000D02*
D03*
Y5000D02*
D03*
Y-5000D02*
D03*
Y-15000D02*
D03*
D73*
X54016Y11378D02*
D03*
Y-11378D02*
D03*
D74*
X40236Y17028D02*
D03*
Y-17028D02*
D03*
D75*
X55984D02*
D03*
Y17028D02*
D03*
D76*
X254932Y1318D02*
D03*
X252708Y3877D02*
D03*
X252708Y-1241D02*
D03*
X254932Y-3800D02*
D03*
X252708Y-6359D02*
D03*
Y-16595D02*
D03*
Y-11477D02*
D03*
X254932Y-19154D02*
D03*
Y-14036D02*
D03*
X138014Y-5000D02*
D03*
X254932Y-8918D02*
D03*
X223710Y23390D02*
D03*
X223710Y28559D02*
D03*
X235886D02*
D03*
Y9090D02*
D03*
X223710D02*
D03*
Y13590D02*
D03*
Y18290D02*
D03*
X223662Y-18500D02*
D03*
X223710Y-23510D02*
D03*
Y-28010D02*
D03*
X237200Y14100D02*
D03*
X252708Y11554D02*
D03*
X254933Y16673D02*
D03*
X252708Y19231D02*
D03*
X211200Y-34500D02*
D03*
X213100Y-24000D02*
D03*
X216900Y-18000D02*
D03*
X223100Y-34500D02*
D03*
X235000D02*
D03*
X246900D02*
D03*
X258800D02*
D03*
X270700Y-34500D02*
D03*
X278200D02*
D03*
Y-22600D02*
D03*
X275700Y-13700D02*
D03*
Y-1800D02*
D03*
Y10100D02*
D03*
Y22000D02*
D03*
X279500Y34500D02*
D03*
X267600Y34500D02*
D03*
X255700D02*
D03*
X243800D02*
D03*
X231900D02*
D03*
X220000D02*
D03*
X208100D02*
D03*
X214000Y12600D02*
D03*
X213400Y21500D02*
D03*
X208100Y22600D02*
D03*
Y10700D02*
D03*
X145000Y5000D02*
D03*
X125250Y-1250D02*
D03*
X161000Y-7500D02*
D03*
X87500Y-12500D02*
D03*
X103500Y-17500D02*
D03*
X62500Y17500D02*
D03*
Y-20000D02*
D03*
X131000Y-11000D02*
D03*
X110000Y0D02*
D03*
X77500Y-20000D02*
D03*
X170000Y20000D02*
D03*
X155000D02*
D03*
X170000Y10000D02*
D03*
X155000D02*
D03*
X47500Y-7500D02*
D03*
Y0D02*
D03*
Y7500D02*
D03*
X40000Y-7500D02*
D03*
Y0D02*
D03*
Y7500D02*
D03*
X130000Y-27500D02*
D03*
X120000D02*
D03*
X168500Y-10000D02*
D03*
X155000D02*
D03*
X142000D02*
D03*
X140000Y-24500D02*
D03*
X168500Y-18500D02*
D03*
X155000Y-23000D02*
D03*
X82500Y-2000D02*
D03*
X79000Y2000D02*
D03*
X81000Y4000D02*
D03*
X123000Y1000D02*
D03*
X145500Y-15000D02*
D03*
X97000Y500D02*
D03*
X111000Y14500D02*
D03*
X130000Y26000D02*
D03*
X100500Y10500D02*
D03*
X148500Y-15000D02*
D03*
X108500Y17000D02*
D03*
X97000Y-2657D02*
D03*
X108500Y-5000D02*
D03*
Y-16000D02*
D03*
X74500Y-10500D02*
D03*
X115000Y8000D02*
D03*
X128322Y14178D02*
D03*
X69000Y-9500D02*
D03*
X84000Y17500D02*
D03*
X87500D02*
D03*
X91000D02*
D03*
X90000Y-15000D02*
D03*
X129000Y0D02*
D03*
X124000Y-5000D02*
D03*
X119000Y0D02*
D03*
X124000Y5000D02*
D03*
X114500Y22000D02*
D03*
X165000Y-5000D02*
D03*
M02*
