G04*
G04 #@! TF.GenerationSoftware,Altium Limited,Altium Designer,19.1.5 (86)*
G04*
G04 Layer_Color=255*
%FSLAX25Y25*%
%MOIN*%
G70*
G01*
G75*
%ADD19R,0.03000X0.03200*%
G04:AMPARAMS|DCode=20|XSize=30mil|YSize=32mil|CornerRadius=7.5mil|HoleSize=0mil|Usage=FLASHONLY|Rotation=0.000|XOffset=0mil|YOffset=0mil|HoleType=Round|Shape=RoundedRectangle|*
%AMROUNDEDRECTD20*
21,1,0.03000,0.01700,0,0,0.0*
21,1,0.01500,0.03200,0,0,0.0*
1,1,0.01500,0.00750,-0.00850*
1,1,0.01500,-0.00750,-0.00850*
1,1,0.01500,-0.00750,0.00850*
1,1,0.01500,0.00750,0.00850*
%
%ADD20ROUNDEDRECTD20*%
%ADD21R,0.05000X0.03600*%
%ADD22R,0.03600X0.03600*%
%ADD23R,0.10000X0.01260*%
G04:AMPARAMS|DCode=24|XSize=12mil|YSize=22mil|CornerRadius=3mil|HoleSize=0mil|Usage=FLASHONLY|Rotation=135.000|XOffset=0mil|YOffset=0mil|HoleType=Round|Shape=RoundedRectangle|*
%AMROUNDEDRECTD24*
21,1,0.01200,0.01600,0,0,135.0*
21,1,0.00600,0.02200,0,0,135.0*
1,1,0.00600,0.00354,0.00778*
1,1,0.00600,0.00778,0.00354*
1,1,0.00600,-0.00354,-0.00778*
1,1,0.00600,-0.00778,-0.00354*
%
%ADD24ROUNDEDRECTD24*%
G04:AMPARAMS|DCode=25|XSize=12mil|YSize=32mil|CornerRadius=3mil|HoleSize=0mil|Usage=FLASHONLY|Rotation=135.000|XOffset=0mil|YOffset=0mil|HoleType=Round|Shape=RoundedRectangle|*
%AMROUNDEDRECTD25*
21,1,0.01200,0.02600,0,0,135.0*
21,1,0.00600,0.03200,0,0,135.0*
1,1,0.00600,0.00707,0.01131*
1,1,0.00600,0.01131,0.00707*
1,1,0.00600,-0.00707,-0.01131*
1,1,0.00600,-0.01131,-0.00707*
%
%ADD25ROUNDEDRECTD25*%
G04:AMPARAMS|DCode=26|XSize=12mil|YSize=22mil|CornerRadius=3mil|HoleSize=0mil|Usage=FLASHONLY|Rotation=225.000|XOffset=0mil|YOffset=0mil|HoleType=Round|Shape=RoundedRectangle|*
%AMROUNDEDRECTD26*
21,1,0.01200,0.01600,0,0,225.0*
21,1,0.00600,0.02200,0,0,225.0*
1,1,0.00600,-0.00778,0.00354*
1,1,0.00600,-0.00354,0.00778*
1,1,0.00600,0.00778,-0.00354*
1,1,0.00600,0.00354,-0.00778*
%
%ADD26ROUNDEDRECTD26*%
G04:AMPARAMS|DCode=27|XSize=12mil|YSize=32mil|CornerRadius=3mil|HoleSize=0mil|Usage=FLASHONLY|Rotation=225.000|XOffset=0mil|YOffset=0mil|HoleType=Round|Shape=RoundedRectangle|*
%AMROUNDEDRECTD27*
21,1,0.01200,0.02600,0,0,225.0*
21,1,0.00600,0.03200,0,0,225.0*
1,1,0.00600,-0.01131,0.00707*
1,1,0.00600,-0.00707,0.01131*
1,1,0.00600,0.01131,-0.00707*
1,1,0.00600,0.00707,-0.01131*
%
%ADD27ROUNDEDRECTD27*%
G04:AMPARAMS|DCode=28|XSize=31.5mil|YSize=31.5mil|CornerRadius=3.15mil|HoleSize=0mil|Usage=FLASHONLY|Rotation=180.000|XOffset=0mil|YOffset=0mil|HoleType=Round|Shape=RoundedRectangle|*
%AMROUNDEDRECTD28*
21,1,0.03150,0.02520,0,0,180.0*
21,1,0.02520,0.03150,0,0,180.0*
1,1,0.00630,-0.01260,0.01260*
1,1,0.00630,0.01260,0.01260*
1,1,0.00630,0.01260,-0.01260*
1,1,0.00630,-0.01260,-0.01260*
%
%ADD28ROUNDEDRECTD28*%
G04:AMPARAMS|DCode=29|XSize=35mil|YSize=35mil|CornerRadius=4.38mil|HoleSize=0mil|Usage=FLASHONLY|Rotation=180.000|XOffset=0mil|YOffset=0mil|HoleType=Round|Shape=RoundedRectangle|*
%AMROUNDEDRECTD29*
21,1,0.03500,0.02625,0,0,180.0*
21,1,0.02625,0.03500,0,0,180.0*
1,1,0.00875,-0.01313,0.01313*
1,1,0.00875,0.01313,0.01313*
1,1,0.00875,0.01313,-0.01313*
1,1,0.00875,-0.01313,-0.01313*
%
%ADD29ROUNDEDRECTD29*%
G04:AMPARAMS|DCode=30|XSize=16mil|YSize=35mil|CornerRadius=2.4mil|HoleSize=0mil|Usage=FLASHONLY|Rotation=0.000|XOffset=0mil|YOffset=0mil|HoleType=Round|Shape=RoundedRectangle|*
%AMROUNDEDRECTD30*
21,1,0.01600,0.03020,0,0,0.0*
21,1,0.01120,0.03500,0,0,0.0*
1,1,0.00480,0.00560,-0.01510*
1,1,0.00480,-0.00560,-0.01510*
1,1,0.00480,-0.00560,0.01510*
1,1,0.00480,0.00560,0.01510*
%
%ADD30ROUNDEDRECTD30*%
G04:AMPARAMS|DCode=31|XSize=35.43mil|YSize=31.5mil|CornerRadius=3.94mil|HoleSize=0mil|Usage=FLASHONLY|Rotation=180.000|XOffset=0mil|YOffset=0mil|HoleType=Round|Shape=RoundedRectangle|*
%AMROUNDEDRECTD31*
21,1,0.03543,0.02362,0,0,180.0*
21,1,0.02756,0.03150,0,0,180.0*
1,1,0.00787,-0.01378,0.01181*
1,1,0.00787,0.01378,0.01181*
1,1,0.00787,0.01378,-0.01181*
1,1,0.00787,-0.01378,-0.01181*
%
%ADD31ROUNDEDRECTD31*%
G04:AMPARAMS|DCode=32|XSize=35mil|YSize=35mil|CornerRadius=3.5mil|HoleSize=0mil|Usage=FLASHONLY|Rotation=270.000|XOffset=0mil|YOffset=0mil|HoleType=Round|Shape=RoundedRectangle|*
%AMROUNDEDRECTD32*
21,1,0.03500,0.02800,0,0,270.0*
21,1,0.02800,0.03500,0,0,270.0*
1,1,0.00700,-0.01400,-0.01400*
1,1,0.00700,-0.01400,0.01400*
1,1,0.00700,0.01400,0.01400*
1,1,0.00700,0.01400,-0.01400*
%
%ADD32ROUNDEDRECTD32*%
G04:AMPARAMS|DCode=33|XSize=35mil|YSize=35mil|CornerRadius=3.5mil|HoleSize=0mil|Usage=FLASHONLY|Rotation=180.000|XOffset=0mil|YOffset=0mil|HoleType=Round|Shape=RoundedRectangle|*
%AMROUNDEDRECTD33*
21,1,0.03500,0.02800,0,0,180.0*
21,1,0.02800,0.03500,0,0,180.0*
1,1,0.00700,-0.01400,0.01400*
1,1,0.00700,0.01400,0.01400*
1,1,0.00700,0.01400,-0.01400*
1,1,0.00700,-0.01400,-0.01400*
%
%ADD33ROUNDEDRECTD33*%
G04:AMPARAMS|DCode=34|XSize=59.06mil|YSize=11.81mil|CornerRadius=2.95mil|HoleSize=0mil|Usage=FLASHONLY|Rotation=0.000|XOffset=0mil|YOffset=0mil|HoleType=Round|Shape=RoundedRectangle|*
%AMROUNDEDRECTD34*
21,1,0.05906,0.00591,0,0,0.0*
21,1,0.05315,0.01181,0,0,0.0*
1,1,0.00591,0.02657,-0.00295*
1,1,0.00591,-0.02657,-0.00295*
1,1,0.00591,-0.02657,0.00295*
1,1,0.00591,0.02657,0.00295*
%
%ADD34ROUNDEDRECTD34*%
G04:AMPARAMS|DCode=35|XSize=35mil|YSize=35mil|CornerRadius=4.38mil|HoleSize=0mil|Usage=FLASHONLY|Rotation=270.000|XOffset=0mil|YOffset=0mil|HoleType=Round|Shape=RoundedRectangle|*
%AMROUNDEDRECTD35*
21,1,0.03500,0.02625,0,0,270.0*
21,1,0.02625,0.03500,0,0,270.0*
1,1,0.00875,-0.01313,-0.01313*
1,1,0.00875,-0.01313,0.01313*
1,1,0.00875,0.01313,0.01313*
1,1,0.00875,0.01313,-0.01313*
%
%ADD35ROUNDEDRECTD35*%
%ADD36O,0.05709X0.01181*%
G04:AMPARAMS|DCode=37|XSize=23.62mil|YSize=43.31mil|CornerRadius=5.91mil|HoleSize=0mil|Usage=FLASHONLY|Rotation=0.000|XOffset=0mil|YOffset=0mil|HoleType=Round|Shape=RoundedRectangle|*
%AMROUNDEDRECTD37*
21,1,0.02362,0.03150,0,0,0.0*
21,1,0.01181,0.04331,0,0,0.0*
1,1,0.01181,0.00591,-0.01575*
1,1,0.01181,-0.00591,-0.01575*
1,1,0.01181,-0.00591,0.01575*
1,1,0.01181,0.00591,0.01575*
%
%ADD37ROUNDEDRECTD37*%
G04:AMPARAMS|DCode=38|XSize=62.99mil|YSize=39.37mil|CornerRadius=3.94mil|HoleSize=0mil|Usage=FLASHONLY|Rotation=270.000|XOffset=0mil|YOffset=0mil|HoleType=Round|Shape=RoundedRectangle|*
%AMROUNDEDRECTD38*
21,1,0.06299,0.03150,0,0,270.0*
21,1,0.05512,0.03937,0,0,270.0*
1,1,0.00787,-0.01575,-0.02756*
1,1,0.00787,-0.01575,0.02756*
1,1,0.00787,0.01575,0.02756*
1,1,0.00787,0.01575,-0.02756*
%
%ADD38ROUNDEDRECTD38*%
G04:AMPARAMS|DCode=39|XSize=23.62mil|YSize=39.37mil|CornerRadius=5.91mil|HoleSize=0mil|Usage=FLASHONLY|Rotation=0.000|XOffset=0mil|YOffset=0mil|HoleType=Round|Shape=RoundedRectangle|*
%AMROUNDEDRECTD39*
21,1,0.02362,0.02756,0,0,0.0*
21,1,0.01181,0.03937,0,0,0.0*
1,1,0.01181,0.00591,-0.01378*
1,1,0.01181,-0.00591,-0.01378*
1,1,0.01181,-0.00591,0.01378*
1,1,0.01181,0.00591,0.01378*
%
%ADD39ROUNDEDRECTD39*%
%ADD70O,0.07000X0.06000*%
%ADD71R,0.07000X0.06000*%
%ADD72C,0.07400*%
%ADD73C,0.02559*%
%ADD74O,0.06299X0.03937*%
%ADD75O,0.08268X0.03937*%
D19*
X226698Y28559D02*
D03*
X232898D02*
D03*
X226698Y23390D02*
D03*
X232898Y23390D02*
D03*
X226698Y18290D02*
D03*
X232898D02*
D03*
Y-23510D02*
D03*
X226698Y-23510D02*
D03*
X232898Y-28010D02*
D03*
X226698Y-28010D02*
D03*
Y-13410D02*
D03*
X232898Y-13410D02*
D03*
X226698Y-8910D02*
D03*
X232898D02*
D03*
X232898Y9090D02*
D03*
X226698Y9090D02*
D03*
X232898Y13590D02*
D03*
X226698D02*
D03*
D20*
X232950Y-18500D02*
D03*
X226650D02*
D03*
D21*
X225100Y100D02*
D03*
D22*
X233100Y3800D02*
D03*
Y-3700D02*
D03*
D23*
X244423Y19261D02*
D03*
X244423Y16702D02*
D03*
X244423Y14143D02*
D03*
Y11584D02*
D03*
Y9025D02*
D03*
Y6466D02*
D03*
Y3907D02*
D03*
Y1348D02*
D03*
Y-1211D02*
D03*
X244423Y-3771D02*
D03*
X244423Y-6330D02*
D03*
Y-8889D02*
D03*
Y-11448D02*
D03*
Y-14007D02*
D03*
Y-16566D02*
D03*
Y-19125D02*
D03*
D24*
X125587Y9939D02*
D03*
X133939Y1587D02*
D03*
X122413Y-9939D02*
D03*
X114061Y-1587D02*
D03*
D25*
X126626Y8193D02*
D03*
X128017Y6801D02*
D03*
X129409Y5409D02*
D03*
X130801Y4017D02*
D03*
X132193Y2626D02*
D03*
X121374Y-8193D02*
D03*
X119983Y-6801D02*
D03*
X118591Y-5409D02*
D03*
X117199Y-4017D02*
D03*
X115807Y-2626D02*
D03*
D26*
X133939Y-1587D02*
D03*
X125587Y-9939D02*
D03*
X114061Y1587D02*
D03*
X122413Y9939D02*
D03*
D27*
X132193Y-2626D02*
D03*
X130801Y-4017D02*
D03*
X129409Y-5409D02*
D03*
X128017Y-6801D02*
D03*
X126626Y-8193D02*
D03*
X115807Y2626D02*
D03*
X117199Y4017D02*
D03*
X118591Y5409D02*
D03*
X119983Y6801D02*
D03*
X121374Y8193D02*
D03*
D28*
X40000Y-23000D02*
D03*
X34000D02*
D03*
Y23000D02*
D03*
X40000D02*
D03*
D29*
X51000Y-23000D02*
D03*
X45000D02*
D03*
X51000Y23000D02*
D03*
X45000D02*
D03*
X74000Y7500D02*
D03*
X68000D02*
D03*
X68000Y-21500D02*
D03*
X74000D02*
D03*
X105500Y-13000D02*
D03*
X111500D02*
D03*
X105500Y-8000D02*
D03*
X111500D02*
D03*
X109500Y23000D02*
D03*
X103500D02*
D03*
X140000Y0D02*
D03*
X146000D02*
D03*
D30*
X57800Y-23000D02*
D03*
X55200D02*
D03*
X57800Y23000D02*
D03*
X55200D02*
D03*
D31*
X75528Y13500D02*
D03*
X66472D02*
D03*
D32*
X100500Y5500D02*
D03*
Y-500D02*
D03*
X125000Y23000D02*
D03*
Y17000D02*
D03*
X114500Y12000D02*
D03*
Y18000D02*
D03*
X105500Y5500D02*
D03*
Y-500D02*
D03*
D33*
X93000Y13500D02*
D03*
X87000D02*
D03*
X68000Y2000D02*
D03*
X74000D02*
D03*
D34*
X60079Y-13189D02*
D03*
Y-12008D02*
D03*
Y-10039D02*
D03*
Y-8858D02*
D03*
Y-6890D02*
D03*
Y-4921D02*
D03*
Y-2953D02*
D03*
Y-984D02*
D03*
Y984D02*
D03*
Y2953D02*
D03*
Y4921D02*
D03*
Y6890D02*
D03*
Y8858D02*
D03*
Y10039D02*
D03*
Y12008D02*
D03*
Y13189D02*
D03*
D35*
X81000Y13500D02*
D03*
Y7500D02*
D03*
D36*
X81339Y-8063D02*
D03*
Y-10031D02*
D03*
Y-12000D02*
D03*
Y-13969D02*
D03*
Y-15937D02*
D03*
X98661Y-8063D02*
D03*
Y-10031D02*
D03*
Y-12000D02*
D03*
Y-13969D02*
D03*
Y-15937D02*
D03*
D37*
X74740Y-15512D02*
D03*
X71000D02*
D03*
X74740Y-4488D02*
D03*
X71000D02*
D03*
X67260D02*
D03*
Y-15512D02*
D03*
D38*
X146768Y-20000D02*
D03*
X130232D02*
D03*
Y20000D02*
D03*
X146768D02*
D03*
D39*
X93740Y7658D02*
D03*
X90000D02*
D03*
X86260D02*
D03*
Y-2657D02*
D03*
X93740D02*
D03*
D70*
X200000Y-20000D02*
D03*
Y20000D02*
D03*
Y10000D02*
D03*
Y0D02*
D03*
Y-10000D02*
D03*
Y-30000D02*
D03*
D71*
Y30000D02*
D03*
D72*
X35000Y35000D02*
D03*
X45000D02*
D03*
X55000D02*
D03*
X65000D02*
D03*
X75000D02*
D03*
X85000D02*
D03*
X95000D02*
D03*
X105000D02*
D03*
X115000D02*
D03*
X125000D02*
D03*
X135000D02*
D03*
X145000D02*
D03*
X155000D02*
D03*
X165000D02*
D03*
X175000D02*
D03*
X35000Y-35000D02*
D03*
X45000D02*
D03*
X55000D02*
D03*
X65000D02*
D03*
X75000D02*
D03*
X85000D02*
D03*
X95000D02*
D03*
X105000D02*
D03*
X115000D02*
D03*
X125000D02*
D03*
X135000D02*
D03*
X145000D02*
D03*
X155000D02*
D03*
X165000D02*
D03*
X175000D02*
D03*
Y15000D02*
D03*
Y5000D02*
D03*
Y-5000D02*
D03*
Y-15000D02*
D03*
D73*
X54016Y11378D02*
D03*
Y-11378D02*
D03*
D74*
X40236Y17028D02*
D03*
Y-17028D02*
D03*
D75*
X55984D02*
D03*
Y17028D02*
D03*
M02*
