G04*
G04 #@! TF.GenerationSoftware,Altium Limited,Altium Designer,19.1.5 (86)*
G04*
G04 Layer_Color=255*
%FSLAX25Y25*%
%MOIN*%
G70*
G01*
G75*
%ADD23R,0.10000X0.01260*%
%ADD70O,0.07000X0.06000*%
%ADD71R,0.07000X0.06000*%
%ADD72C,0.07400*%
%ADD73C,0.02559*%
%ADD74O,0.06299X0.03937*%
%ADD75O,0.08268X0.03937*%
D23*
X244400Y19231D02*
D03*
Y16672D02*
D03*
X244400Y14113D02*
D03*
X244400Y11554D02*
D03*
Y8995D02*
D03*
Y6436D02*
D03*
Y3877D02*
D03*
Y1318D02*
D03*
Y-1241D02*
D03*
X244400Y-3800D02*
D03*
Y-6359D02*
D03*
X244400Y-8918D02*
D03*
Y-11477D02*
D03*
Y-14036D02*
D03*
Y-16595D02*
D03*
Y-19154D02*
D03*
D70*
X200000Y-20000D02*
D03*
Y20000D02*
D03*
Y10000D02*
D03*
Y0D02*
D03*
Y-10000D02*
D03*
Y-30000D02*
D03*
D71*
Y30000D02*
D03*
D72*
X35000Y35000D02*
D03*
X45000D02*
D03*
X55000D02*
D03*
X65000D02*
D03*
X75000D02*
D03*
X85000D02*
D03*
X95000D02*
D03*
X105000D02*
D03*
X115000D02*
D03*
X125000D02*
D03*
X135000D02*
D03*
X145000D02*
D03*
X155000D02*
D03*
X165000D02*
D03*
X175000D02*
D03*
X35000Y-35000D02*
D03*
X45000D02*
D03*
X55000D02*
D03*
X65000D02*
D03*
X75000D02*
D03*
X85000D02*
D03*
X95000D02*
D03*
X105000D02*
D03*
X115000D02*
D03*
X125000D02*
D03*
X135000D02*
D03*
X145000D02*
D03*
X155000D02*
D03*
X165000D02*
D03*
X175000D02*
D03*
Y15000D02*
D03*
Y5000D02*
D03*
Y-5000D02*
D03*
Y-15000D02*
D03*
D73*
X54016Y11378D02*
D03*
Y-11378D02*
D03*
D74*
X40236Y17028D02*
D03*
Y-17028D02*
D03*
D75*
X55984D02*
D03*
Y17028D02*
D03*
M02*
