G04*
G04 #@! TF.GenerationSoftware,Altium Limited,Altium Designer,19.1.5 (86)*
G04*
G04 Layer_Color=2752767*
%FSLAX25Y25*%
%MOIN*%
G70*
G01*
G75*
%ADD10C,0.00500*%
%ADD11C,0.00200*%
%ADD12C,0.00267*%
D10*
X180000Y-40000D02*
X186000D01*
X188500Y-37500D01*
X282500D01*
Y-22500D01*
X279000Y-19000D02*
X282500Y-22500D01*
X279000Y-19000D02*
Y19000D01*
X282500Y22500D01*
Y37500D01*
X188500D02*
X282500D01*
X186000Y40000D02*
X188500Y37500D01*
X180000Y40000D02*
X186000D01*
X30000D02*
X180000D01*
X30000Y0D02*
Y40000D01*
Y-40000D02*
X180000D01*
X30000D02*
Y0D01*
D11*
X199200Y-20800D02*
Y-19200D01*
X200800D01*
Y-20800D01*
X199200D01*
Y29200D02*
Y30800D01*
X200800D01*
Y29200D01*
X199200D01*
Y19200D02*
Y20800D01*
X200800D01*
Y19200D01*
X199200D01*
Y9200D02*
Y10800D01*
X200800D01*
Y9200D01*
X199200D01*
Y-800D02*
Y800D01*
X200800D01*
Y-800D01*
X199200D01*
Y-10800D02*
Y-9200D01*
X200800D01*
Y-10800D01*
X199200D01*
Y-30800D02*
Y-29200D01*
X200800D01*
Y-30800D01*
X199200D01*
X54016Y10578D02*
X53216Y12178D01*
X54816D01*
X54016Y10578D01*
Y-12178D02*
X53216Y-10578D01*
X54816D01*
X54016Y-12178D01*
X40236Y16228D02*
X40636Y16628D01*
X41036D01*
X40636Y17028D01*
X41036Y17428D01*
X40636D01*
X40236Y17828D01*
X39836Y17428D01*
X39436D01*
X39836Y17028D01*
X39436Y16628D01*
X39836D01*
X40236Y16228D01*
X55184Y-17828D02*
X55584Y-17028D01*
X55184Y-16228D01*
X55984Y-16628D01*
X56784Y-16228D01*
X56384Y-17028D01*
X56784Y-17828D01*
X55984Y-17428D01*
X55184Y-17828D01*
Y16228D02*
X55584Y17028D01*
X55184Y17828D01*
X55984Y17428D01*
X56784Y17828D01*
X56384Y17028D01*
X56784Y16228D01*
X55984Y16628D01*
X55184Y16228D01*
X40236Y-17828D02*
X40636Y-17428D01*
X41036D01*
X40636Y-17028D01*
X41036Y-16628D01*
X40636D01*
X40236Y-16228D01*
X39836Y-16628D01*
X39436D01*
X39836Y-17028D01*
X39436Y-17428D01*
X39836D01*
X40236Y-17828D01*
X254532Y918D02*
Y518D01*
X255332D01*
Y918D01*
X255732D01*
Y1718D01*
X255332D01*
Y2118D01*
X254532D01*
Y1718D01*
X254132D01*
Y918D01*
X254532D01*
X252308Y3477D02*
Y3077D01*
X253108D01*
Y3477D01*
X253508D01*
Y4277D01*
X253108D01*
Y4677D01*
X252308D01*
Y4277D01*
X251908D01*
Y3477D01*
X252308D01*
X252308Y-1641D02*
Y-2041D01*
X253108D01*
Y-1641D01*
X253508D01*
Y-841D01*
X253108D01*
Y-441D01*
X252308D01*
Y-841D01*
X251908D01*
Y-1641D01*
X252308D01*
X254532Y-4200D02*
Y-4600D01*
X255332D01*
Y-4200D01*
X255732D01*
Y-3400D01*
X255332D01*
Y-3000D01*
X254532D01*
Y-3400D01*
X254132D01*
Y-4200D01*
X254532D01*
X252308Y-6759D02*
Y-7159D01*
X253108D01*
Y-6759D01*
X253508D01*
Y-5959D01*
X253108D01*
Y-5559D01*
X252308D01*
Y-5959D01*
X251908D01*
Y-6759D01*
X252308D01*
Y-16995D02*
Y-17395D01*
X253108D01*
Y-16995D01*
X253508D01*
Y-16195D01*
X253108D01*
Y-15795D01*
X252308D01*
Y-16195D01*
X251908D01*
Y-16995D01*
X252308D01*
Y-11877D02*
Y-12277D01*
X253108D01*
Y-11877D01*
X253508D01*
Y-11077D01*
X253108D01*
Y-10677D01*
X252308D01*
Y-11077D01*
X251908D01*
Y-11877D01*
X252308D01*
X254532Y-19554D02*
Y-19954D01*
X255332D01*
Y-19554D01*
X255732D01*
Y-18754D01*
X255332D01*
Y-18354D01*
X254532D01*
Y-18754D01*
X254132D01*
Y-19554D01*
X254532D01*
Y-14436D02*
Y-14836D01*
X255332D01*
Y-14436D01*
X255732D01*
Y-13636D01*
X255332D01*
Y-13236D01*
X254532D01*
Y-13636D01*
X254132D01*
Y-14436D01*
X254532D01*
X137614Y-5400D02*
Y-5800D01*
X138414D01*
Y-5400D01*
X138814D01*
Y-4600D01*
X138414D01*
Y-4200D01*
X137614D01*
Y-4600D01*
X137214D01*
Y-5400D01*
X137614D01*
X254532Y-9318D02*
Y-9718D01*
X255332D01*
Y-9318D01*
X255732D01*
Y-8518D01*
X255332D01*
Y-8118D01*
X254532D01*
Y-8518D01*
X254132D01*
Y-9318D01*
X254532D01*
X223310Y22990D02*
Y22590D01*
X224110D01*
Y22990D01*
X224510D01*
Y23790D01*
X224110D01*
Y24190D01*
X223310D01*
Y23790D01*
X222910D01*
Y22990D01*
X223310D01*
X223310Y28159D02*
Y27759D01*
X224110D01*
Y28159D01*
X224510D01*
Y28959D01*
X224110D01*
Y29359D01*
X223310D01*
Y28959D01*
X222910D01*
Y28159D01*
X223310D01*
X235486D02*
Y27759D01*
X236286D01*
Y28159D01*
X236686D01*
Y28959D01*
X236286D01*
Y29359D01*
X235486D01*
Y28959D01*
X235086D01*
Y28159D01*
X235486D01*
Y8690D02*
Y8290D01*
X236286D01*
Y8690D01*
X236686D01*
Y9490D01*
X236286D01*
Y9890D01*
X235486D01*
Y9490D01*
X235086D01*
Y8690D01*
X235486D01*
X223310D02*
Y8290D01*
X224110D01*
Y8690D01*
X224510D01*
Y9490D01*
X224110D01*
Y9890D01*
X223310D01*
Y9490D01*
X222910D01*
Y8690D01*
X223310D01*
Y13190D02*
Y12790D01*
X224110D01*
Y13190D01*
X224510D01*
Y13990D01*
X224110D01*
Y14390D01*
X223310D01*
Y13990D01*
X222910D01*
Y13190D01*
X223310D01*
Y17890D02*
Y17490D01*
X224110D01*
Y17890D01*
X224510D01*
Y18690D01*
X224110D01*
Y19090D01*
X223310D01*
Y18690D01*
X222910D01*
Y17890D01*
X223310D01*
X223262Y-18900D02*
Y-19300D01*
X224062D01*
Y-18900D01*
X224462D01*
Y-18100D01*
X224062D01*
Y-17700D01*
X223262D01*
Y-18100D01*
X222862D01*
Y-18900D01*
X223262D01*
X223310Y-23910D02*
Y-24310D01*
X224110D01*
Y-23910D01*
X224510D01*
Y-23110D01*
X224110D01*
Y-22710D01*
X223310D01*
Y-23110D01*
X222910D01*
Y-23910D01*
X223310D01*
Y-28410D02*
Y-28810D01*
X224110D01*
Y-28410D01*
X224510D01*
Y-27610D01*
X224110D01*
Y-27210D01*
X223310D01*
Y-27610D01*
X222910D01*
Y-28410D01*
X223310D01*
X236800Y13700D02*
Y13300D01*
X237600D01*
Y13700D01*
X238000D01*
Y14500D01*
X237600D01*
Y14900D01*
X236800D01*
Y14500D01*
X236400D01*
Y13700D01*
X236800D01*
X252308Y11154D02*
Y10754D01*
X253108D01*
Y11154D01*
X253508D01*
Y11954D01*
X253108D01*
Y12354D01*
X252308D01*
Y11954D01*
X251908D01*
Y11154D01*
X252308D01*
X254533Y16273D02*
Y15873D01*
X255333D01*
Y16273D01*
X255733D01*
Y17073D01*
X255333D01*
Y17473D01*
X254533D01*
Y17073D01*
X254133D01*
Y16273D01*
X254533D01*
X252308Y18832D02*
Y18431D01*
X253108D01*
Y18832D01*
X253508D01*
Y19632D01*
X253108D01*
Y20031D01*
X252308D01*
Y19632D01*
X251908D01*
Y18832D01*
X252308D01*
X210800Y-34900D02*
Y-35300D01*
X211600D01*
Y-34900D01*
X212000D01*
Y-34100D01*
X211600D01*
Y-33700D01*
X210800D01*
Y-34100D01*
X210400D01*
Y-34900D01*
X210800D01*
X212700Y-24400D02*
Y-24800D01*
X213500D01*
Y-24400D01*
X213900D01*
Y-23600D01*
X213500D01*
Y-23200D01*
X212700D01*
Y-23600D01*
X212300D01*
Y-24400D01*
X212700D01*
X216500Y-18400D02*
Y-18800D01*
X217300D01*
Y-18400D01*
X217700D01*
Y-17600D01*
X217300D01*
Y-17200D01*
X216500D01*
Y-17600D01*
X216100D01*
Y-18400D01*
X216500D01*
X222700Y-34900D02*
Y-35300D01*
X223500D01*
Y-34900D01*
X223900D01*
Y-34100D01*
X223500D01*
Y-33700D01*
X222700D01*
Y-34100D01*
X222300D01*
Y-34900D01*
X222700D01*
X234600D02*
Y-35300D01*
X235400D01*
Y-34900D01*
X235800D01*
Y-34100D01*
X235400D01*
Y-33700D01*
X234600D01*
Y-34100D01*
X234200D01*
Y-34900D01*
X234600D01*
X246500D02*
Y-35300D01*
X247300D01*
Y-34900D01*
X247700D01*
Y-34100D01*
X247300D01*
Y-33700D01*
X246500D01*
Y-34100D01*
X246100D01*
Y-34900D01*
X246500D01*
X258400D02*
Y-35300D01*
X259200D01*
Y-34900D01*
X259600D01*
Y-34100D01*
X259200D01*
Y-33700D01*
X258400D01*
Y-34100D01*
X258000D01*
Y-34900D01*
X258400D01*
X270300Y-34900D02*
Y-35300D01*
X271100D01*
Y-34900D01*
X271500D01*
Y-34100D01*
X271100D01*
Y-33700D01*
X270300D01*
Y-34100D01*
X269900D01*
Y-34900D01*
X270300D01*
X277800D02*
Y-35300D01*
X278600D01*
Y-34900D01*
X279000D01*
Y-34100D01*
X278600D01*
Y-33700D01*
X277800D01*
Y-34100D01*
X277400D01*
Y-34900D01*
X277800D01*
Y-23000D02*
Y-23400D01*
X278600D01*
Y-23000D01*
X279000D01*
Y-22200D01*
X278600D01*
Y-21800D01*
X277800D01*
Y-22200D01*
X277400D01*
Y-23000D01*
X277800D01*
X275300Y-14100D02*
Y-14500D01*
X276100D01*
Y-14100D01*
X276500D01*
Y-13300D01*
X276100D01*
Y-12900D01*
X275300D01*
Y-13300D01*
X274900D01*
Y-14100D01*
X275300D01*
Y-2200D02*
Y-2600D01*
X276100D01*
Y-2200D01*
X276500D01*
Y-1400D01*
X276100D01*
Y-1000D01*
X275300D01*
Y-1400D01*
X274900D01*
Y-2200D01*
X275300D01*
Y9700D02*
Y9300D01*
X276100D01*
Y9700D01*
X276500D01*
Y10500D01*
X276100D01*
Y10900D01*
X275300D01*
Y10500D01*
X274900D01*
Y9700D01*
X275300D01*
Y21600D02*
Y21200D01*
X276100D01*
Y21600D01*
X276500D01*
Y22400D01*
X276100D01*
Y22800D01*
X275300D01*
Y22400D01*
X274900D01*
Y21600D01*
X275300D01*
X279100Y34100D02*
Y33700D01*
X279900D01*
Y34100D01*
X280300D01*
Y34900D01*
X279900D01*
Y35300D01*
X279100D01*
Y34900D01*
X278700D01*
Y34100D01*
X279100D01*
X267200Y34100D02*
Y33700D01*
X268000D01*
Y34100D01*
X268400D01*
Y34900D01*
X268000D01*
Y35300D01*
X267200D01*
Y34900D01*
X266800D01*
Y34100D01*
X267200D01*
X255300D02*
Y33700D01*
X256100D01*
Y34100D01*
X256500D01*
Y34900D01*
X256100D01*
Y35300D01*
X255300D01*
Y34900D01*
X254900D01*
Y34100D01*
X255300D01*
X243400D02*
Y33700D01*
X244200D01*
Y34100D01*
X244600D01*
Y34900D01*
X244200D01*
Y35300D01*
X243400D01*
Y34900D01*
X243000D01*
Y34100D01*
X243400D01*
X231500D02*
Y33700D01*
X232300D01*
Y34100D01*
X232700D01*
Y34900D01*
X232300D01*
Y35300D01*
X231500D01*
Y34900D01*
X231100D01*
Y34100D01*
X231500D01*
X219600D02*
Y33700D01*
X220400D01*
Y34100D01*
X220800D01*
Y34900D01*
X220400D01*
Y35300D01*
X219600D01*
Y34900D01*
X219200D01*
Y34100D01*
X219600D01*
X207700D02*
Y33700D01*
X208500D01*
Y34100D01*
X208900D01*
Y34900D01*
X208500D01*
Y35300D01*
X207700D01*
Y34900D01*
X207300D01*
Y34100D01*
X207700D01*
X213600Y12200D02*
Y11800D01*
X214400D01*
Y12200D01*
X214800D01*
Y13000D01*
X214400D01*
Y13400D01*
X213600D01*
Y13000D01*
X213200D01*
Y12200D01*
X213600D01*
X213000Y21100D02*
Y20700D01*
X213800D01*
Y21100D01*
X214200D01*
Y21900D01*
X213800D01*
Y22300D01*
X213000D01*
Y21900D01*
X212600D01*
Y21100D01*
X213000D01*
X207700Y22200D02*
Y21800D01*
X208500D01*
Y22200D01*
X208900D01*
Y23000D01*
X208500D01*
Y23400D01*
X207700D01*
Y23000D01*
X207300D01*
Y22200D01*
X207700D01*
Y10300D02*
Y9900D01*
X208500D01*
Y10300D01*
X208900D01*
Y11100D01*
X208500D01*
Y11500D01*
X207700D01*
Y11100D01*
X207300D01*
Y10300D01*
X207700D01*
X144600Y4600D02*
Y4200D01*
X145400D01*
Y4600D01*
X145800D01*
Y5400D01*
X145400D01*
Y5800D01*
X144600D01*
Y5400D01*
X144200D01*
Y4600D01*
X144600D01*
X124850Y-1650D02*
Y-2050D01*
X125650D01*
Y-1650D01*
X126050D01*
Y-850D01*
X125650D01*
Y-450D01*
X124850D01*
Y-850D01*
X124450D01*
Y-1650D01*
X124850D01*
X160600Y-7900D02*
Y-8300D01*
X161400D01*
Y-7900D01*
X161800D01*
Y-7100D01*
X161400D01*
Y-6700D01*
X160600D01*
Y-7100D01*
X160200D01*
Y-7900D01*
X160600D01*
X87100Y-12900D02*
Y-13300D01*
X87900D01*
Y-12900D01*
X88300D01*
Y-12100D01*
X87900D01*
Y-11700D01*
X87100D01*
Y-12100D01*
X86700D01*
Y-12900D01*
X87100D01*
X103100Y-17900D02*
Y-18300D01*
X103900D01*
Y-17900D01*
X104300D01*
Y-17100D01*
X103900D01*
Y-16700D01*
X103100D01*
Y-17100D01*
X102700D01*
Y-17900D01*
X103100D01*
X62100Y17100D02*
Y16700D01*
X62900D01*
Y17100D01*
X63300D01*
Y17900D01*
X62900D01*
Y18300D01*
X62100D01*
Y17900D01*
X61700D01*
Y17100D01*
X62100D01*
Y-20400D02*
Y-20800D01*
X62900D01*
Y-20400D01*
X63300D01*
Y-19600D01*
X62900D01*
Y-19200D01*
X62100D01*
Y-19600D01*
X61700D01*
Y-20400D01*
X62100D01*
X130600Y-11400D02*
Y-11800D01*
X131400D01*
Y-11400D01*
X131800D01*
Y-10600D01*
X131400D01*
Y-10200D01*
X130600D01*
Y-10600D01*
X130200D01*
Y-11400D01*
X130600D01*
X109600Y-400D02*
Y-800D01*
X110400D01*
Y-400D01*
X110800D01*
Y400D01*
X110400D01*
Y800D01*
X109600D01*
Y400D01*
X109200D01*
Y-400D01*
X109600D01*
X77100Y-20400D02*
Y-20800D01*
X77900D01*
Y-20400D01*
X78300D01*
Y-19600D01*
X77900D01*
Y-19200D01*
X77100D01*
Y-19600D01*
X76700D01*
Y-20400D01*
X77100D01*
X169600Y19600D02*
Y19200D01*
X170400D01*
Y19600D01*
X170800D01*
Y20400D01*
X170400D01*
Y20800D01*
X169600D01*
Y20400D01*
X169200D01*
Y19600D01*
X169600D01*
X154600D02*
Y19200D01*
X155400D01*
Y19600D01*
X155800D01*
Y20400D01*
X155400D01*
Y20800D01*
X154600D01*
Y20400D01*
X154200D01*
Y19600D01*
X154600D01*
X169600Y9600D02*
Y9200D01*
X170400D01*
Y9600D01*
X170800D01*
Y10400D01*
X170400D01*
Y10800D01*
X169600D01*
Y10400D01*
X169200D01*
Y9600D01*
X169600D01*
X154600D02*
Y9200D01*
X155400D01*
Y9600D01*
X155800D01*
Y10400D01*
X155400D01*
Y10800D01*
X154600D01*
Y10400D01*
X154200D01*
Y9600D01*
X154600D01*
X47100Y-7900D02*
Y-8300D01*
X47900D01*
Y-7900D01*
X48300D01*
Y-7100D01*
X47900D01*
Y-6700D01*
X47100D01*
Y-7100D01*
X46700D01*
Y-7900D01*
X47100D01*
Y-400D02*
Y-800D01*
X47900D01*
Y-400D01*
X48300D01*
Y400D01*
X47900D01*
Y800D01*
X47100D01*
Y400D01*
X46700D01*
Y-400D01*
X47100D01*
Y7100D02*
Y6700D01*
X47900D01*
Y7100D01*
X48300D01*
Y7900D01*
X47900D01*
Y8300D01*
X47100D01*
Y7900D01*
X46700D01*
Y7100D01*
X47100D01*
X39600Y-7900D02*
Y-8300D01*
X40400D01*
Y-7900D01*
X40800D01*
Y-7100D01*
X40400D01*
Y-6700D01*
X39600D01*
Y-7100D01*
X39200D01*
Y-7900D01*
X39600D01*
Y-400D02*
Y-800D01*
X40400D01*
Y-400D01*
X40800D01*
Y400D01*
X40400D01*
Y800D01*
X39600D01*
Y400D01*
X39200D01*
Y-400D01*
X39600D01*
Y7100D02*
Y6700D01*
X40400D01*
Y7100D01*
X40800D01*
Y7900D01*
X40400D01*
Y8300D01*
X39600D01*
Y7900D01*
X39200D01*
Y7100D01*
X39600D01*
X129600Y-27900D02*
Y-28300D01*
X130400D01*
Y-27900D01*
X130800D01*
Y-27100D01*
X130400D01*
Y-26700D01*
X129600D01*
Y-27100D01*
X129200D01*
Y-27900D01*
X129600D01*
X119600D02*
Y-28300D01*
X120400D01*
Y-27900D01*
X120800D01*
Y-27100D01*
X120400D01*
Y-26700D01*
X119600D01*
Y-27100D01*
X119200D01*
Y-27900D01*
X119600D01*
X168100Y-10400D02*
Y-10800D01*
X168900D01*
Y-10400D01*
X169300D01*
Y-9600D01*
X168900D01*
Y-9200D01*
X168100D01*
Y-9600D01*
X167700D01*
Y-10400D01*
X168100D01*
X154600D02*
Y-10800D01*
X155400D01*
Y-10400D01*
X155800D01*
Y-9600D01*
X155400D01*
Y-9200D01*
X154600D01*
Y-9600D01*
X154200D01*
Y-10400D01*
X154600D01*
X141600D02*
Y-10800D01*
X142400D01*
Y-10400D01*
X142800D01*
Y-9600D01*
X142400D01*
Y-9200D01*
X141600D01*
Y-9600D01*
X141200D01*
Y-10400D01*
X141600D01*
X139600Y-24900D02*
Y-25300D01*
X140400D01*
Y-24900D01*
X140800D01*
Y-24100D01*
X140400D01*
Y-23700D01*
X139600D01*
Y-24100D01*
X139200D01*
Y-24900D01*
X139600D01*
X168100Y-18900D02*
Y-19300D01*
X168900D01*
Y-18900D01*
X169300D01*
Y-18100D01*
X168900D01*
Y-17700D01*
X168100D01*
Y-18100D01*
X167700D01*
Y-18900D01*
X168100D01*
X154600Y-23400D02*
Y-23800D01*
X155400D01*
Y-23400D01*
X155800D01*
Y-22600D01*
X155400D01*
Y-22200D01*
X154600D01*
Y-22600D01*
X154200D01*
Y-23400D01*
X154600D01*
X82100Y-2400D02*
Y-2800D01*
X82900D01*
Y-2400D01*
X83300D01*
Y-1600D01*
X82900D01*
Y-1200D01*
X82100D01*
Y-1600D01*
X81700D01*
Y-2400D01*
X82100D01*
X78600Y1600D02*
Y1200D01*
X79400D01*
Y1600D01*
X79800D01*
Y2400D01*
X79400D01*
Y2800D01*
X78600D01*
Y2400D01*
X78200D01*
Y1600D01*
X78600D01*
X80600Y3600D02*
Y3200D01*
X81400D01*
Y3600D01*
X81800D01*
Y4400D01*
X81400D01*
Y4800D01*
X80600D01*
Y4400D01*
X80200D01*
Y3600D01*
X80600D01*
X122600Y600D02*
Y200D01*
X123400D01*
Y600D01*
X123800D01*
Y1400D01*
X123400D01*
Y1800D01*
X122600D01*
Y1400D01*
X122200D01*
Y600D01*
X122600D01*
X145100Y-15400D02*
Y-15800D01*
X145900D01*
Y-15400D01*
X146300D01*
Y-14600D01*
X145900D01*
Y-14200D01*
X145100D01*
Y-14600D01*
X144700D01*
Y-15400D01*
X145100D01*
X96600Y100D02*
Y-300D01*
X97400D01*
Y100D01*
X97800D01*
Y900D01*
X97400D01*
Y1300D01*
X96600D01*
Y900D01*
X96200D01*
Y100D01*
X96600D01*
X110600Y14100D02*
Y13700D01*
X111400D01*
Y14100D01*
X111800D01*
Y14900D01*
X111400D01*
Y15300D01*
X110600D01*
Y14900D01*
X110200D01*
Y14100D01*
X110600D01*
X129600Y25600D02*
Y25200D01*
X130400D01*
Y25600D01*
X130800D01*
Y26400D01*
X130400D01*
Y26800D01*
X129600D01*
Y26400D01*
X129200D01*
Y25600D01*
X129600D01*
X100100Y10100D02*
Y9700D01*
X100900D01*
Y10100D01*
X101300D01*
Y10900D01*
X100900D01*
Y11300D01*
X100100D01*
Y10900D01*
X99700D01*
Y10100D01*
X100100D01*
X148100Y-15400D02*
Y-15800D01*
X148900D01*
Y-15400D01*
X149300D01*
Y-14600D01*
X148900D01*
Y-14200D01*
X148100D01*
Y-14600D01*
X147700D01*
Y-15400D01*
X148100D01*
X108100Y16600D02*
Y16200D01*
X108900D01*
Y16600D01*
X109300D01*
Y17400D01*
X108900D01*
Y17800D01*
X108100D01*
Y17400D01*
X107700D01*
Y16600D01*
X108100D01*
X96600Y-3057D02*
Y-3458D01*
X97400D01*
Y-3057D01*
X97800D01*
Y-2258D01*
X97400D01*
Y-1857D01*
X96600D01*
Y-2258D01*
X96200D01*
Y-3057D01*
X96600D01*
X108100Y-5400D02*
Y-5800D01*
X108900D01*
Y-5400D01*
X109300D01*
Y-4600D01*
X108900D01*
Y-4200D01*
X108100D01*
Y-4600D01*
X107700D01*
Y-5400D01*
X108100D01*
Y-16400D02*
Y-16800D01*
X108900D01*
Y-16400D01*
X109300D01*
Y-15600D01*
X108900D01*
Y-15200D01*
X108100D01*
Y-15600D01*
X107700D01*
Y-16400D01*
X108100D01*
X74100Y-10900D02*
Y-11300D01*
X74900D01*
Y-10900D01*
X75300D01*
Y-10100D01*
X74900D01*
Y-9700D01*
X74100D01*
Y-10100D01*
X73700D01*
Y-10900D01*
X74100D01*
X114600Y7600D02*
Y7200D01*
X115400D01*
Y7600D01*
X115800D01*
Y8400D01*
X115400D01*
Y8800D01*
X114600D01*
Y8400D01*
X114200D01*
Y7600D01*
X114600D01*
X127922Y13778D02*
Y13378D01*
X128722D01*
Y13778D01*
X129122D01*
Y14578D01*
X128722D01*
Y14978D01*
X127922D01*
Y14578D01*
X127522D01*
Y13778D01*
X127922D01*
X68600Y-9900D02*
Y-10300D01*
X69400D01*
Y-9900D01*
X69800D01*
Y-9100D01*
X69400D01*
Y-8700D01*
X68600D01*
Y-9100D01*
X68200D01*
Y-9900D01*
X68600D01*
X83600Y17100D02*
Y16700D01*
X84400D01*
Y17100D01*
X84800D01*
Y17900D01*
X84400D01*
Y18300D01*
X83600D01*
Y17900D01*
X83200D01*
Y17100D01*
X83600D01*
X87100D02*
Y16700D01*
X87900D01*
Y17100D01*
X88300D01*
Y17900D01*
X87900D01*
Y18300D01*
X87100D01*
Y17900D01*
X86700D01*
Y17100D01*
X87100D01*
X90600D02*
Y16700D01*
X91400D01*
Y17100D01*
X91800D01*
Y17900D01*
X91400D01*
Y18300D01*
X90600D01*
Y17900D01*
X90200D01*
Y17100D01*
X90600D01*
X89600Y-15400D02*
Y-15800D01*
X90400D01*
Y-15400D01*
X90800D01*
Y-14600D01*
X90400D01*
Y-14200D01*
X89600D01*
Y-14600D01*
X89200D01*
Y-15400D01*
X89600D01*
X128600Y-400D02*
Y-800D01*
X129400D01*
Y-400D01*
X129800D01*
Y400D01*
X129400D01*
Y800D01*
X128600D01*
Y400D01*
X128200D01*
Y-400D01*
X128600D01*
X123600Y-5400D02*
Y-5800D01*
X124400D01*
Y-5400D01*
X124800D01*
Y-4600D01*
X124400D01*
Y-4200D01*
X123600D01*
Y-4600D01*
X123200D01*
Y-5400D01*
X123600D01*
X118600Y-400D02*
Y-800D01*
X119400D01*
Y-400D01*
X119800D01*
Y400D01*
X119400D01*
Y800D01*
X118600D01*
Y400D01*
X118200D01*
Y-400D01*
X118600D01*
X123600Y4600D02*
Y4200D01*
X124400D01*
Y4600D01*
X124800D01*
Y5400D01*
X124400D01*
Y5800D01*
X123600D01*
Y5400D01*
X123200D01*
Y4600D01*
X123600D01*
X114100Y21600D02*
Y21200D01*
X114900D01*
Y21600D01*
X115300D01*
Y22400D01*
X114900D01*
Y22800D01*
X114100D01*
Y22400D01*
X113700D01*
Y21600D01*
X114100D01*
X164600Y-5400D02*
Y-5800D01*
X165400D01*
Y-5400D01*
X165800D01*
Y-4600D01*
X165400D01*
Y-4200D01*
X164600D01*
Y-4600D01*
X164200D01*
Y-5400D01*
X164600D01*
D12*
X35800Y35000D02*
G03*
X35800Y35000I-800J0D01*
G01*
X45800D02*
G03*
X45800Y35000I-800J0D01*
G01*
X55800D02*
G03*
X55800Y35000I-800J0D01*
G01*
X65800D02*
G03*
X65800Y35000I-800J0D01*
G01*
X75800D02*
G03*
X75800Y35000I-800J0D01*
G01*
X85800D02*
G03*
X85800Y35000I-800J0D01*
G01*
X95800D02*
G03*
X95800Y35000I-800J0D01*
G01*
X105800D02*
G03*
X105800Y35000I-800J0D01*
G01*
X115800D02*
G03*
X115800Y35000I-800J0D01*
G01*
X125800D02*
G03*
X125800Y35000I-800J0D01*
G01*
X135800D02*
G03*
X135800Y35000I-800J0D01*
G01*
X145800D02*
G03*
X145800Y35000I-800J0D01*
G01*
X155800D02*
G03*
X155800Y35000I-800J0D01*
G01*
X165800D02*
G03*
X165800Y35000I-800J0D01*
G01*
X175800D02*
G03*
X175800Y35000I-800J0D01*
G01*
X35800Y-35000D02*
G03*
X35800Y-35000I-800J0D01*
G01*
X45800D02*
G03*
X45800Y-35000I-800J0D01*
G01*
X55800D02*
G03*
X55800Y-35000I-800J0D01*
G01*
X65800D02*
G03*
X65800Y-35000I-800J0D01*
G01*
X75800D02*
G03*
X75800Y-35000I-800J0D01*
G01*
X85800D02*
G03*
X85800Y-35000I-800J0D01*
G01*
X95800D02*
G03*
X95800Y-35000I-800J0D01*
G01*
X105800D02*
G03*
X105800Y-35000I-800J0D01*
G01*
X115800D02*
G03*
X115800Y-35000I-800J0D01*
G01*
X125800D02*
G03*
X125800Y-35000I-800J0D01*
G01*
X135800D02*
G03*
X135800Y-35000I-800J0D01*
G01*
X145800D02*
G03*
X145800Y-35000I-800J0D01*
G01*
X155800D02*
G03*
X155800Y-35000I-800J0D01*
G01*
X165800D02*
G03*
X165800Y-35000I-800J0D01*
G01*
X175800D02*
G03*
X175800Y-35000I-800J0D01*
G01*
Y15000D02*
G03*
X175800Y15000I-800J0D01*
G01*
Y5000D02*
G03*
X175800Y5000I-800J0D01*
G01*
Y-5000D02*
G03*
X175800Y-5000I-800J0D01*
G01*
Y-15000D02*
G03*
X175800Y-15000I-800J0D01*
G01*
M02*
