G04*
G04 #@! TF.GenerationSoftware,Altium Limited,Altium Designer,19.1.5 (86)*
G04*
G04 Layer_Physical_Order=1*
G04 Layer_Color=255*
%FSLAX25Y25*%
%MOIN*%
G70*
G01*
G75*
%ADD11C,0.00500*%
%ADD13C,0.01000*%
%ADD14C,0.01200*%
%ADD19R,0.03000X0.03200*%
G04:AMPARAMS|DCode=20|XSize=30mil|YSize=32mil|CornerRadius=7.5mil|HoleSize=0mil|Usage=FLASHONLY|Rotation=0.000|XOffset=0mil|YOffset=0mil|HoleType=Round|Shape=RoundedRectangle|*
%AMROUNDEDRECTD20*
21,1,0.03000,0.01700,0,0,0.0*
21,1,0.01500,0.03200,0,0,0.0*
1,1,0.01500,0.00750,-0.00850*
1,1,0.01500,-0.00750,-0.00850*
1,1,0.01500,-0.00750,0.00850*
1,1,0.01500,0.00750,0.00850*
%
%ADD20ROUNDEDRECTD20*%
%ADD21R,0.05000X0.03600*%
%ADD22R,0.03600X0.03600*%
%ADD23R,0.10000X0.01260*%
G04:AMPARAMS|DCode=24|XSize=12mil|YSize=22mil|CornerRadius=3mil|HoleSize=0mil|Usage=FLASHONLY|Rotation=135.000|XOffset=0mil|YOffset=0mil|HoleType=Round|Shape=RoundedRectangle|*
%AMROUNDEDRECTD24*
21,1,0.01200,0.01600,0,0,135.0*
21,1,0.00600,0.02200,0,0,135.0*
1,1,0.00600,0.00354,0.00778*
1,1,0.00600,0.00778,0.00354*
1,1,0.00600,-0.00354,-0.00778*
1,1,0.00600,-0.00778,-0.00354*
%
%ADD24ROUNDEDRECTD24*%
G04:AMPARAMS|DCode=25|XSize=12mil|YSize=32mil|CornerRadius=3mil|HoleSize=0mil|Usage=FLASHONLY|Rotation=135.000|XOffset=0mil|YOffset=0mil|HoleType=Round|Shape=RoundedRectangle|*
%AMROUNDEDRECTD25*
21,1,0.01200,0.02600,0,0,135.0*
21,1,0.00600,0.03200,0,0,135.0*
1,1,0.00600,0.00707,0.01131*
1,1,0.00600,0.01131,0.00707*
1,1,0.00600,-0.00707,-0.01131*
1,1,0.00600,-0.01131,-0.00707*
%
%ADD25ROUNDEDRECTD25*%
G04:AMPARAMS|DCode=26|XSize=12mil|YSize=22mil|CornerRadius=3mil|HoleSize=0mil|Usage=FLASHONLY|Rotation=225.000|XOffset=0mil|YOffset=0mil|HoleType=Round|Shape=RoundedRectangle|*
%AMROUNDEDRECTD26*
21,1,0.01200,0.01600,0,0,225.0*
21,1,0.00600,0.02200,0,0,225.0*
1,1,0.00600,-0.00778,0.00354*
1,1,0.00600,-0.00354,0.00778*
1,1,0.00600,0.00778,-0.00354*
1,1,0.00600,0.00354,-0.00778*
%
%ADD26ROUNDEDRECTD26*%
G04:AMPARAMS|DCode=27|XSize=12mil|YSize=32mil|CornerRadius=3mil|HoleSize=0mil|Usage=FLASHONLY|Rotation=225.000|XOffset=0mil|YOffset=0mil|HoleType=Round|Shape=RoundedRectangle|*
%AMROUNDEDRECTD27*
21,1,0.01200,0.02600,0,0,225.0*
21,1,0.00600,0.03200,0,0,225.0*
1,1,0.00600,-0.01131,0.00707*
1,1,0.00600,-0.00707,0.01131*
1,1,0.00600,0.01131,-0.00707*
1,1,0.00600,0.00707,-0.01131*
%
%ADD27ROUNDEDRECTD27*%
G04:AMPARAMS|DCode=28|XSize=31.5mil|YSize=31.5mil|CornerRadius=3.15mil|HoleSize=0mil|Usage=FLASHONLY|Rotation=180.000|XOffset=0mil|YOffset=0mil|HoleType=Round|Shape=RoundedRectangle|*
%AMROUNDEDRECTD28*
21,1,0.03150,0.02520,0,0,180.0*
21,1,0.02520,0.03150,0,0,180.0*
1,1,0.00630,-0.01260,0.01260*
1,1,0.00630,0.01260,0.01260*
1,1,0.00630,0.01260,-0.01260*
1,1,0.00630,-0.01260,-0.01260*
%
%ADD28ROUNDEDRECTD28*%
G04:AMPARAMS|DCode=29|XSize=35mil|YSize=35mil|CornerRadius=4.38mil|HoleSize=0mil|Usage=FLASHONLY|Rotation=180.000|XOffset=0mil|YOffset=0mil|HoleType=Round|Shape=RoundedRectangle|*
%AMROUNDEDRECTD29*
21,1,0.03500,0.02625,0,0,180.0*
21,1,0.02625,0.03500,0,0,180.0*
1,1,0.00875,-0.01313,0.01313*
1,1,0.00875,0.01313,0.01313*
1,1,0.00875,0.01313,-0.01313*
1,1,0.00875,-0.01313,-0.01313*
%
%ADD29ROUNDEDRECTD29*%
G04:AMPARAMS|DCode=30|XSize=16mil|YSize=35mil|CornerRadius=2.4mil|HoleSize=0mil|Usage=FLASHONLY|Rotation=0.000|XOffset=0mil|YOffset=0mil|HoleType=Round|Shape=RoundedRectangle|*
%AMROUNDEDRECTD30*
21,1,0.01600,0.03020,0,0,0.0*
21,1,0.01120,0.03500,0,0,0.0*
1,1,0.00480,0.00560,-0.01510*
1,1,0.00480,-0.00560,-0.01510*
1,1,0.00480,-0.00560,0.01510*
1,1,0.00480,0.00560,0.01510*
%
%ADD30ROUNDEDRECTD30*%
G04:AMPARAMS|DCode=31|XSize=35.43mil|YSize=31.5mil|CornerRadius=3.94mil|HoleSize=0mil|Usage=FLASHONLY|Rotation=180.000|XOffset=0mil|YOffset=0mil|HoleType=Round|Shape=RoundedRectangle|*
%AMROUNDEDRECTD31*
21,1,0.03543,0.02362,0,0,180.0*
21,1,0.02756,0.03150,0,0,180.0*
1,1,0.00787,-0.01378,0.01181*
1,1,0.00787,0.01378,0.01181*
1,1,0.00787,0.01378,-0.01181*
1,1,0.00787,-0.01378,-0.01181*
%
%ADD31ROUNDEDRECTD31*%
G04:AMPARAMS|DCode=32|XSize=35mil|YSize=35mil|CornerRadius=3.5mil|HoleSize=0mil|Usage=FLASHONLY|Rotation=270.000|XOffset=0mil|YOffset=0mil|HoleType=Round|Shape=RoundedRectangle|*
%AMROUNDEDRECTD32*
21,1,0.03500,0.02800,0,0,270.0*
21,1,0.02800,0.03500,0,0,270.0*
1,1,0.00700,-0.01400,-0.01400*
1,1,0.00700,-0.01400,0.01400*
1,1,0.00700,0.01400,0.01400*
1,1,0.00700,0.01400,-0.01400*
%
%ADD32ROUNDEDRECTD32*%
G04:AMPARAMS|DCode=33|XSize=35mil|YSize=35mil|CornerRadius=3.5mil|HoleSize=0mil|Usage=FLASHONLY|Rotation=180.000|XOffset=0mil|YOffset=0mil|HoleType=Round|Shape=RoundedRectangle|*
%AMROUNDEDRECTD33*
21,1,0.03500,0.02800,0,0,180.0*
21,1,0.02800,0.03500,0,0,180.0*
1,1,0.00700,-0.01400,0.01400*
1,1,0.00700,0.01400,0.01400*
1,1,0.00700,0.01400,-0.01400*
1,1,0.00700,-0.01400,-0.01400*
%
%ADD33ROUNDEDRECTD33*%
G04:AMPARAMS|DCode=34|XSize=59.06mil|YSize=11.81mil|CornerRadius=2.95mil|HoleSize=0mil|Usage=FLASHONLY|Rotation=0.000|XOffset=0mil|YOffset=0mil|HoleType=Round|Shape=RoundedRectangle|*
%AMROUNDEDRECTD34*
21,1,0.05906,0.00591,0,0,0.0*
21,1,0.05315,0.01181,0,0,0.0*
1,1,0.00591,0.02657,-0.00295*
1,1,0.00591,-0.02657,-0.00295*
1,1,0.00591,-0.02657,0.00295*
1,1,0.00591,0.02657,0.00295*
%
%ADD34ROUNDEDRECTD34*%
G04:AMPARAMS|DCode=35|XSize=35mil|YSize=35mil|CornerRadius=4.38mil|HoleSize=0mil|Usage=FLASHONLY|Rotation=270.000|XOffset=0mil|YOffset=0mil|HoleType=Round|Shape=RoundedRectangle|*
%AMROUNDEDRECTD35*
21,1,0.03500,0.02625,0,0,270.0*
21,1,0.02625,0.03500,0,0,270.0*
1,1,0.00875,-0.01313,-0.01313*
1,1,0.00875,-0.01313,0.01313*
1,1,0.00875,0.01313,0.01313*
1,1,0.00875,0.01313,-0.01313*
%
%ADD35ROUNDEDRECTD35*%
%ADD36O,0.05709X0.01181*%
G04:AMPARAMS|DCode=37|XSize=23.62mil|YSize=43.31mil|CornerRadius=5.91mil|HoleSize=0mil|Usage=FLASHONLY|Rotation=0.000|XOffset=0mil|YOffset=0mil|HoleType=Round|Shape=RoundedRectangle|*
%AMROUNDEDRECTD37*
21,1,0.02362,0.03150,0,0,0.0*
21,1,0.01181,0.04331,0,0,0.0*
1,1,0.01181,0.00591,-0.01575*
1,1,0.01181,-0.00591,-0.01575*
1,1,0.01181,-0.00591,0.01575*
1,1,0.01181,0.00591,0.01575*
%
%ADD37ROUNDEDRECTD37*%
G04:AMPARAMS|DCode=38|XSize=62.99mil|YSize=39.37mil|CornerRadius=3.94mil|HoleSize=0mil|Usage=FLASHONLY|Rotation=270.000|XOffset=0mil|YOffset=0mil|HoleType=Round|Shape=RoundedRectangle|*
%AMROUNDEDRECTD38*
21,1,0.06299,0.03150,0,0,270.0*
21,1,0.05512,0.03937,0,0,270.0*
1,1,0.00787,-0.01575,-0.02756*
1,1,0.00787,-0.01575,0.02756*
1,1,0.00787,0.01575,0.02756*
1,1,0.00787,0.01575,-0.02756*
%
%ADD38ROUNDEDRECTD38*%
G04:AMPARAMS|DCode=39|XSize=23.62mil|YSize=39.37mil|CornerRadius=5.91mil|HoleSize=0mil|Usage=FLASHONLY|Rotation=0.000|XOffset=0mil|YOffset=0mil|HoleType=Round|Shape=RoundedRectangle|*
%AMROUNDEDRECTD39*
21,1,0.02362,0.02756,0,0,0.0*
21,1,0.01181,0.03937,0,0,0.0*
1,1,0.01181,0.00591,-0.01378*
1,1,0.01181,-0.00591,-0.01378*
1,1,0.01181,-0.00591,0.01378*
1,1,0.01181,0.00591,0.01378*
%
%ADD39ROUNDEDRECTD39*%
%ADD67C,0.01500*%
%ADD68C,0.02500*%
%ADD69C,0.02000*%
%ADD70O,0.07000X0.06000*%
%ADD71R,0.07000X0.06000*%
%ADD72C,0.07400*%
%ADD73C,0.02559*%
%ADD74O,0.06299X0.03937*%
%ADD75O,0.08268X0.03937*%
%ADD76C,0.02362*%
G36*
X165521Y31337D02*
X160997Y30643D01*
X160643Y30997D01*
X160661Y31053D01*
X160690Y31196D01*
X161337Y35521D01*
X165521Y31337D01*
D02*
G37*
G36*
X155521D02*
X150997Y30643D01*
X150643Y30997D01*
X150661Y31053D01*
X150690Y31196D01*
X151337Y35521D01*
X155521Y31337D01*
D02*
G37*
G36*
X145521D02*
X140997Y30643D01*
X140643Y30997D01*
X140661Y31053D01*
X140690Y31196D01*
X141337Y35521D01*
X145521Y31337D01*
D02*
G37*
G36*
X129357Y30997D02*
X129003Y30643D01*
X128947Y30661D01*
X128804Y30690D01*
X124479Y31337D01*
X128663Y35521D01*
X129357Y30997D01*
D02*
G37*
G36*
X119357D02*
X119003Y30643D01*
X118948Y30661D01*
X118804Y30690D01*
X114479Y31337D01*
X118663Y35521D01*
X119357Y30997D01*
D02*
G37*
G36*
X109357D02*
X109003Y30643D01*
X108948Y30661D01*
X108804Y30690D01*
X104479Y31337D01*
X108663Y35521D01*
X109357Y30997D01*
D02*
G37*
G36*
X99357D02*
X99003Y30643D01*
X98948Y30661D01*
X98804Y30690D01*
X94479Y31337D01*
X98663Y35521D01*
X99357Y30997D01*
D02*
G37*
G36*
X89357D02*
X89003Y30643D01*
X88947Y30661D01*
X88804Y30690D01*
X84479Y31337D01*
X88663Y35521D01*
X89357Y30997D01*
D02*
G37*
G36*
X79357D02*
X79003Y30643D01*
X78948Y30661D01*
X78804Y30690D01*
X74479Y31337D01*
X78663Y35521D01*
X79357Y30997D01*
D02*
G37*
G36*
X69357D02*
X69003Y30643D01*
X68947Y30661D01*
X68804Y30690D01*
X64479Y31337D01*
X68663Y35521D01*
X69357Y30997D01*
D02*
G37*
G36*
X59357D02*
X59003Y30643D01*
X58947Y30661D01*
X58804Y30690D01*
X54479Y31337D01*
X58663Y35521D01*
X59357Y30997D01*
D02*
G37*
G36*
X135250Y29089D02*
X134750D01*
X134723Y29140D01*
X134642Y29263D01*
X132041Y32778D01*
X137959D01*
X135250Y29089D01*
D02*
G37*
G36*
X40000Y32500D02*
X42500Y30000D01*
X56523D01*
X58492Y29705D01*
X63206Y24991D01*
X63015Y24529D01*
X59620D01*
X59528Y24994D01*
X59254Y25404D01*
X58844Y25678D01*
X58360Y25774D01*
X57240D01*
X56756Y25678D01*
X56500Y25507D01*
X56244Y25678D01*
X55760Y25774D01*
X54640D01*
X54156Y25678D01*
X53862Y25481D01*
X53349Y25349D01*
X52873Y25667D01*
X52312Y25778D01*
X49687D01*
X49127Y25667D01*
X48651Y25349D01*
X48333Y24873D01*
X48255Y24479D01*
X47745D01*
X47667Y24873D01*
X47349Y25349D01*
X46873Y25667D01*
X46312Y25778D01*
X43687D01*
X43127Y25667D01*
X42651Y25349D01*
X42033Y25324D01*
X41773Y25499D01*
X41260Y25601D01*
X38740D01*
X38227Y25499D01*
X37792Y25208D01*
X37501Y24773D01*
X37399Y24260D01*
Y21740D01*
X37501Y21227D01*
X37792Y20792D01*
X38227Y20502D01*
X38740Y20399D01*
X41260D01*
X41773Y20502D01*
X42033Y20676D01*
X42651Y20651D01*
X43127Y20333D01*
X43687Y20222D01*
X46312D01*
X46873Y20333D01*
X47349Y20651D01*
X47667Y21127D01*
X47745Y21521D01*
X48255D01*
X48333Y21127D01*
X48651Y20651D01*
X49127Y20333D01*
X49687Y20222D01*
X52312D01*
X52873Y20333D01*
X53349Y20651D01*
X53862Y20519D01*
X54156Y20322D01*
X54640Y20226D01*
X55760D01*
X56244Y20322D01*
X56500Y20493D01*
X56756Y20322D01*
X57240Y20226D01*
X58360D01*
X58844Y20322D01*
X59254Y20596D01*
X59528Y21006D01*
X59620Y21471D01*
X63367D01*
X65419Y19419D01*
X65915Y19087D01*
X66500Y18971D01*
X91366D01*
X95471Y14866D01*
Y10717D01*
X95030Y10481D01*
X94951Y10534D01*
X94331Y10657D01*
X93150D01*
X92529Y10534D01*
X92003Y10182D01*
X91651Y9656D01*
X91528Y9035D01*
Y8069D01*
X91446Y7658D01*
Y5794D01*
X88563D01*
X88554Y5803D01*
Y9692D01*
X88566Y9807D01*
X88608Y10039D01*
X88663Y10243D01*
X88729Y10418D01*
X88805Y10570D01*
X88889Y10700D01*
X88983Y10814D01*
X89090Y10915D01*
X89257Y11042D01*
X89273Y11060D01*
X89373Y11127D01*
X89494Y11307D01*
X89522Y11339D01*
X89530Y11361D01*
X89672Y11573D01*
X89776Y12100D01*
Y14900D01*
X89672Y15427D01*
X89373Y15873D01*
X88927Y16172D01*
X88400Y16276D01*
X85600D01*
X85073Y16172D01*
X84627Y15873D01*
X84328Y15427D01*
X84247Y15018D01*
X83737D01*
X83667Y15373D01*
X83349Y15849D01*
X82873Y16167D01*
X82313Y16278D01*
X79688D01*
X79409Y16223D01*
X79388Y16224D01*
X79349Y16211D01*
X79127Y16167D01*
X79032Y16103D01*
X79012Y16096D01*
X78908Y16037D01*
X78822Y15999D01*
X78708Y15961D01*
X78299Y15869D01*
X78086Y15839D01*
X78086D01*
X77841Y15865D01*
X77690Y15891D01*
X77590Y15915D01*
X77565Y15924D01*
X77527Y15944D01*
X77521Y15946D01*
X77449Y15994D01*
X77164Y16051D01*
X77145Y16056D01*
X77140Y16056D01*
X76906Y16102D01*
X74150D01*
X73606Y15994D01*
X73145Y15686D01*
X72837Y15225D01*
X72729Y14681D01*
Y12319D01*
X72837Y11775D01*
X73145Y11314D01*
X73606Y11006D01*
X74150Y10898D01*
X76906D01*
X77140Y10944D01*
X77145Y10944D01*
X77165Y10949D01*
X77449Y11006D01*
X77521Y11054D01*
X77527Y11056D01*
X77565Y11076D01*
X77590Y11085D01*
X77690Y11109D01*
X77819Y11131D01*
X78127Y11150D01*
X78324Y11126D01*
X78522Y11088D01*
X78693Y11044D01*
X78822Y11001D01*
X78908Y10963D01*
X79012Y10904D01*
X79032Y10897D01*
X79127Y10833D01*
X79349Y10789D01*
X79388Y10776D01*
X79401Y10731D01*
X79127Y10167D01*
X78651Y9849D01*
X78333Y9373D01*
X78222Y8813D01*
Y6188D01*
X78333Y5627D01*
X78638Y5171D01*
X78657Y5088D01*
X78677Y4966D01*
X78680Y4924D01*
X78050Y4294D01*
X77445D01*
X77255Y4307D01*
X76724Y4374D01*
X76532Y4412D01*
X76365Y4456D01*
X76237Y4500D01*
X76149Y4539D01*
X76044Y4600D01*
X76023Y4607D01*
X75927Y4672D01*
X75707Y4715D01*
X75667Y4729D01*
X75646Y4728D01*
X75400Y4776D01*
X72600D01*
X72073Y4672D01*
X71627Y4373D01*
X71328Y3927D01*
X71224Y3400D01*
Y600D01*
X71256Y436D01*
X70864Y-64D01*
X66866D01*
X66575Y228D01*
Y700D01*
X66478Y1188D01*
X66201Y1601D01*
X64618Y3185D01*
X64809Y3647D01*
X65421D01*
X65909Y3744D01*
X66322Y4020D01*
X67024Y4722D01*
X69313D01*
X69873Y4833D01*
X70349Y5151D01*
X70667Y5627D01*
X70778Y6188D01*
Y8812D01*
X70667Y9373D01*
X70349Y9849D01*
X69873Y10167D01*
X69313Y10278D01*
X68873D01*
X68682Y10740D01*
X69221Y11279D01*
X69442Y11610D01*
X69520Y12000D01*
Y15000D01*
X69442Y15390D01*
X69221Y15721D01*
X68721Y16221D01*
X68390Y16442D01*
X68000Y16520D01*
X65000D01*
X64610Y16442D01*
X64279Y16221D01*
X63279Y15221D01*
X63058Y14890D01*
X62980Y14500D01*
Y13770D01*
X63000Y13672D01*
Y13571D01*
X63037Y13384D01*
Y12994D01*
X63000Y12807D01*
Y12706D01*
X62980Y12608D01*
Y12589D01*
X63000Y12490D01*
Y12390D01*
X63037Y12203D01*
Y12105D01*
X62736Y11655D01*
X60156D01*
X60079Y11671D01*
X57735D01*
X57658Y11655D01*
X57421D01*
X56916Y11555D01*
X56826Y11495D01*
X56271Y11725D01*
X56163Y12267D01*
X55659Y13021D01*
X54905Y13525D01*
X54016Y13702D01*
X53126Y13525D01*
X52372Y13021D01*
X51868Y12267D01*
X51692Y11378D01*
X51868Y10488D01*
X52372Y9735D01*
X53126Y9231D01*
X53782Y9100D01*
X53961Y8572D01*
X52346Y6957D01*
X51993Y6428D01*
X51869Y5804D01*
Y-5804D01*
X51993Y-6428D01*
X52346Y-6957D01*
X53961Y-8572D01*
X53782Y-9100D01*
X53126Y-9231D01*
X52372Y-9735D01*
X51868Y-10488D01*
X51692Y-11378D01*
X51868Y-12267D01*
X52372Y-13021D01*
X53126Y-13525D01*
X54016Y-13702D01*
X54905Y-13525D01*
X55659Y-13021D01*
X56163Y-12267D01*
X56271Y-11725D01*
X56826Y-11495D01*
X56916Y-11555D01*
X57421Y-11655D01*
X57658D01*
X57735Y-11671D01*
X60079D01*
X60156Y-11655D01*
X62736D01*
X62839Y-11635D01*
X63226Y-11952D01*
Y-18000D01*
X63323Y-18488D01*
X63599Y-18901D01*
X65222Y-20524D01*
Y-22813D01*
X65227Y-22839D01*
X64910Y-23225D01*
X59624D01*
Y-21490D01*
X59528Y-21006D01*
X59254Y-20596D01*
X58844Y-20322D01*
X58360Y-20226D01*
X57240D01*
X56756Y-20322D01*
X56500Y-20493D01*
X56244Y-20322D01*
X55760Y-20226D01*
X54640D01*
X54156Y-20322D01*
X53862Y-20519D01*
X53349Y-20651D01*
X52873Y-20333D01*
X52312Y-20222D01*
X49687D01*
X49127Y-20333D01*
X48651Y-20651D01*
X48333Y-21127D01*
X48255Y-21521D01*
X47745D01*
X47667Y-21127D01*
X47349Y-20651D01*
X46873Y-20333D01*
X46312Y-20222D01*
X43687D01*
X43127Y-20333D01*
X42651Y-20651D01*
X42033Y-20676D01*
X41773Y-20502D01*
X41260Y-20399D01*
X38740D01*
X38227Y-20502D01*
X37792Y-20792D01*
X37501Y-21227D01*
X37399Y-21740D01*
Y-24260D01*
X37501Y-24773D01*
X37792Y-25208D01*
X38227Y-25499D01*
X38740Y-25601D01*
X41260D01*
X41773Y-25499D01*
X42033Y-25324D01*
X42651Y-25349D01*
X43127Y-25667D01*
X43423Y-25725D01*
X43374Y-26226D01*
X42500D01*
X42012Y-26322D01*
X41599Y-26599D01*
X38510Y-29687D01*
X36470Y-30000D01*
X31019D01*
Y38980D01*
X40000D01*
Y32500D01*
D02*
G37*
G36*
X128492Y29705D02*
X132226Y25972D01*
Y24488D01*
X131839Y24171D01*
X131807Y24177D01*
X128657D01*
X128114Y24069D01*
X127653Y23761D01*
X127345Y23300D01*
X127236Y22756D01*
Y20066D01*
X127166Y19977D01*
X126736Y19710D01*
X126400Y19776D01*
X123600D01*
X123275Y20044D01*
Y28000D01*
X123178Y28488D01*
X122901Y28901D01*
X122264Y29538D01*
X122456Y30000D01*
X126523D01*
X128492Y29705D01*
D02*
G37*
G36*
X54405Y22000D02*
X54395Y22095D01*
X54365Y22180D01*
X54314Y22255D01*
X54243Y22320D01*
X54152Y22375D01*
X54041Y22420D01*
X53909Y22455D01*
X53758Y22480D01*
X53585Y22495D01*
X53570Y22495D01*
X53554Y22495D01*
X53382Y22480D01*
X53230Y22455D01*
X53099Y22420D01*
X52987Y22375D01*
X52896Y22320D01*
X52825Y22255D01*
X52775Y22180D01*
X52745Y22095D01*
X52734Y22000D01*
Y24000D01*
X52745Y23905D01*
X52775Y23820D01*
X52825Y23745D01*
X52896Y23680D01*
X52987Y23625D01*
X53099Y23580D01*
X53230Y23545D01*
X53382Y23520D01*
X53554Y23505D01*
X53570Y23505D01*
X53585Y23505D01*
X53758Y23520D01*
X53909Y23545D01*
X54041Y23580D01*
X54152Y23625D01*
X54243Y23680D01*
X54314Y23745D01*
X54365Y23820D01*
X54395Y23905D01*
X54405Y24000D01*
Y22000D01*
D02*
G37*
G36*
X43266D02*
X43256Y22095D01*
X43225Y22180D01*
X43175Y22255D01*
X43104Y22320D01*
X43013Y22375D01*
X42901Y22420D01*
X42770Y22455D01*
X42618Y22480D01*
X42446Y22495D01*
X42411Y22496D01*
X42376Y22495D01*
X42204Y22480D01*
X42053Y22455D01*
X41921Y22420D01*
X41810Y22375D01*
X41719Y22320D01*
X41648Y22255D01*
X41597Y22180D01*
X41567Y22095D01*
X41557Y22000D01*
Y24000D01*
X41567Y23905D01*
X41597Y23820D01*
X41648Y23745D01*
X41719Y23680D01*
X41810Y23625D01*
X41921Y23580D01*
X42053Y23545D01*
X42204Y23520D01*
X42376Y23505D01*
X42411Y23504D01*
X42446Y23505D01*
X42618Y23520D01*
X42770Y23545D01*
X42901Y23580D01*
X43013Y23625D01*
X43104Y23680D01*
X43175Y23745D01*
X43225Y23820D01*
X43256Y23905D01*
X43266Y24000D01*
Y22000D01*
D02*
G37*
G36*
X101766Y22500D02*
X101761Y22547D01*
X101745Y22590D01*
X101720Y22627D01*
X101684Y22660D01*
X101638Y22688D01*
X101581Y22710D01*
X101515Y22727D01*
X101438Y22740D01*
X101351Y22748D01*
X101254Y22750D01*
Y23250D01*
X101351Y23253D01*
X101438Y23260D01*
X101515Y23272D01*
X101581Y23290D01*
X101638Y23313D01*
X101684Y23340D01*
X101720Y23372D01*
X101745Y23410D01*
X101761Y23452D01*
X101766Y23500D01*
Y22500D01*
D02*
G37*
G36*
X58605Y23905D02*
X58635Y23820D01*
X58686Y23745D01*
X58757Y23680D01*
X58848Y23625D01*
X58959Y23580D01*
X59091Y23545D01*
X59242Y23520D01*
X59414Y23505D01*
X59607Y23500D01*
Y22500D01*
X59414Y22495D01*
X59242Y22480D01*
X59091Y22455D01*
X58959Y22420D01*
X58848Y22375D01*
X58757Y22320D01*
X58686Y22255D01*
X58635Y22180D01*
X58605Y22095D01*
X58595Y22000D01*
Y24000D01*
X58605Y23905D01*
D02*
G37*
G36*
X103953Y21260D02*
X103910Y21245D01*
X103873Y21220D01*
X103840Y21184D01*
X103813Y21138D01*
X103790Y21081D01*
X103772Y21015D01*
X103760Y20938D01*
X103753Y20851D01*
X103750Y20754D01*
X103250D01*
X103247Y20851D01*
X103240Y20938D01*
X103227Y21015D01*
X103210Y21081D01*
X103188Y21138D01*
X103160Y21184D01*
X103128Y21220D01*
X103090Y21245D01*
X103048Y21260D01*
X103000Y21266D01*
X104000D01*
X103953Y21260D01*
D02*
G37*
G36*
X128484Y17071D02*
X130080Y16867D01*
X129966Y16869D01*
X129864Y16843D01*
X129774Y16790D01*
X129696Y16710D01*
X129630Y16602D01*
X129576Y16467D01*
X129534Y16305D01*
X129504Y16116D01*
X129486Y15899D01*
X129480Y15655D01*
X129471Y15657D01*
X129437Y14568D01*
X127639Y15142D01*
X127760Y15233D01*
X127869Y15324D01*
X127965Y15416D01*
X128049Y15508D01*
X128119Y15600D01*
X128177Y15693D01*
X128222Y15786D01*
X128254Y15879D01*
X128273Y15973D01*
X128280Y16067D01*
X128281Y16067D01*
X128294Y16865D01*
X127945Y16856D01*
Y16850D01*
X127710Y16844D01*
X127501Y16826D01*
X127317Y16796D01*
X127158Y16754D01*
X127024Y16700D01*
X126916Y16634D01*
X126832Y16556D01*
X126774Y16466D01*
X126741Y16364D01*
X126733Y16250D01*
X126644Y18644D01*
X126728Y18531D01*
X126823Y18430D01*
X126927Y18341D01*
X127042Y18264D01*
X127167Y18199D01*
X127302Y18145D01*
X127448Y18104D01*
X127569Y18081D01*
X127719Y18104D01*
X127881Y18146D01*
X128016Y18200D01*
X128124Y18266D01*
X128204Y18344D01*
X128257Y18434D01*
X128282Y18536D01*
X128280Y18650D01*
X128484Y17071D01*
D02*
G37*
G36*
X116226Y21972D02*
Y15705D01*
X116000Y15520D01*
X113922D01*
X113417Y16025D01*
X113334Y16081D01*
X113263Y16152D01*
X113170Y16190D01*
X113086Y16246D01*
X113014Y16260D01*
X112862Y16362D01*
X112760Y16514D01*
X112746Y16586D01*
X112690Y16670D01*
X112652Y16763D01*
X112581Y16834D01*
X112525Y16917D01*
X112520Y16922D01*
Y24500D01*
X112705Y24725D01*
X113472D01*
X116226Y21972D01*
D02*
G37*
G36*
X79522Y14754D02*
X79781Y14750D01*
Y12250D01*
X79522Y12248D01*
Y11787D01*
X79369Y11875D01*
X79189Y11953D01*
X78981Y12023D01*
X78746Y12083D01*
X78483Y12134D01*
X78158Y12174D01*
X77700Y12145D01*
X77482Y12108D01*
X77303Y12064D01*
X77160Y12015D01*
X77054Y11959D01*
Y12243D01*
X76754Y12250D01*
Y14750D01*
X77054Y14753D01*
Y15041D01*
X77160Y14985D01*
X77303Y14936D01*
X77482Y14892D01*
X77700Y14855D01*
X78065Y14816D01*
X78192Y14824D01*
X78483Y14866D01*
X78981Y14977D01*
X79189Y15046D01*
X79369Y15125D01*
X79522Y15213D01*
Y14754D01*
D02*
G37*
G36*
X68500Y15000D02*
Y12000D01*
X66778Y10278D01*
X66688D01*
X66127Y10167D01*
X65651Y9849D01*
X65333Y9373D01*
X65222Y8812D01*
Y8722D01*
X64500Y8000D01*
X63749D01*
X63670Y8119D01*
X63242Y8405D01*
X62736Y8506D01*
X57421D01*
X57238Y8691D01*
X57151Y8607D01*
X56284Y9436D01*
X56443Y9597D01*
X57109Y10350D01*
X57139Y10404D01*
X57154Y10445D01*
X57324Y10347D01*
X57386Y10399D01*
X57421Y10392D01*
X62736D01*
X63242Y10492D01*
X63670Y10779D01*
X63956Y11207D01*
X64057Y11713D01*
Y12303D01*
X64000Y12589D01*
Y12608D01*
X64057Y12894D01*
Y13484D01*
X64000Y13770D01*
Y14500D01*
X65000Y15500D01*
X68000D01*
X68500Y15000D01*
D02*
G37*
G36*
X121544Y11165D02*
X121691Y11045D01*
X121758Y11003D01*
X121819Y10972D01*
X121876Y10953D01*
X121927Y10947D01*
X121974Y10951D01*
X122016Y10968D01*
X122053Y10997D01*
X121355Y10299D01*
X121384Y10336D01*
X121400Y10378D01*
X121405Y10424D01*
X121398Y10476D01*
X121380Y10532D01*
X121349Y10594D01*
X121307Y10660D01*
X121253Y10732D01*
X121187Y10808D01*
X121109Y10889D01*
X121463Y11242D01*
X121544Y11165D01*
D02*
G37*
G36*
X111500Y24500D02*
Y16500D01*
X111804Y16196D01*
X111828Y16073D01*
X112127Y15627D01*
X112573Y15328D01*
X112696Y15304D01*
X113500Y14500D01*
X116000D01*
X116226Y14275D01*
Y12226D01*
X116233Y12236D01*
X116226Y12223D01*
Y12068D01*
X116323Y11580D01*
X116500Y11314D01*
Y11211D01*
X116508Y11199D01*
X116672Y10994D01*
X117093Y10539D01*
X116528Y9407D01*
X116269Y9658D01*
X115809Y10051D01*
X115786Y10068D01*
X115000Y10224D01*
X114149Y10055D01*
X114067Y10000D01*
X113019D01*
X107000Y16018D01*
Y24500D01*
X107226Y24725D01*
X111275D01*
X111500Y24500D01*
D02*
G37*
G36*
X127750Y9822D02*
X127752Y9691D01*
X127772Y9464D01*
X127788Y9368D01*
X127810Y9285D01*
X127836Y9213D01*
X127868Y9154D01*
X127904Y9107D01*
X127944Y9071D01*
X127990Y9048D01*
X127008Y9399D01*
X127054Y9390D01*
X127095Y9399D01*
X127132Y9426D01*
X127163Y9470D01*
X127190Y9531D01*
X127211Y9611D01*
X127228Y9707D01*
X127240Y9821D01*
X127250Y10102D01*
X127750Y9822D01*
D02*
G37*
G36*
X120152Y9773D02*
X120299Y9653D01*
X120366Y9611D01*
X120427Y9580D01*
X120484Y9561D01*
X120535Y9555D01*
X120582Y9560D01*
X120624Y9576D01*
X120661Y9605D01*
X119963Y8907D01*
X119992Y8944D01*
X120008Y8986D01*
X120013Y9032D01*
X120006Y9084D01*
X119988Y9140D01*
X119957Y9202D01*
X119915Y9268D01*
X119861Y9340D01*
X119795Y9416D01*
X119717Y9497D01*
X120071Y9850D01*
X120152Y9773D01*
D02*
G37*
G36*
X85282Y11968D02*
X88644Y11856D01*
X88428Y11694D01*
X88235Y11510D01*
X88065Y11304D01*
X87918Y11077D01*
X87793Y10827D01*
X87691Y10556D01*
X87612Y10264D01*
X87555Y9949D01*
X87521Y9613D01*
X87510Y9255D01*
X85262D01*
X85444Y5735D01*
X85255Y5847D01*
X85044Y5948D01*
X84812Y6038D01*
X84558Y6115D01*
X84283Y6180D01*
X83986Y6234D01*
X83890Y6244D01*
X83864Y6242D01*
X83576Y6193D01*
X83311Y6134D01*
X83068Y6063D01*
X82849Y5982D01*
X82652Y5890D01*
X82585Y5850D01*
X82549Y5818D01*
X82486Y5727D01*
X82431Y5608D01*
X82383Y5461D01*
X82342Y5287D01*
X82309Y5085D01*
X82265Y4598D01*
X82250Y4000D01*
X79750D01*
X79746Y4313D01*
X79691Y5085D01*
X79658Y5287D01*
X79617Y5461D01*
X79569Y5608D01*
X79514Y5727D01*
X79451Y5818D01*
X79381Y5881D01*
X82478D01*
Y9213D01*
X82610Y9140D01*
X82773Y9075D01*
X82969Y9017D01*
X83197Y8967D01*
X83457Y8925D01*
X83732Y8897D01*
X84090Y8929D01*
X84376Y8985D01*
X84624Y9053D01*
X84837Y9134D01*
X85012Y9228D01*
X85048Y9255D01*
X85010D01*
X85013Y9844D01*
X85143Y11895D01*
X85184Y11990D01*
X85230Y12014D01*
X85282Y11968D01*
D02*
G37*
G36*
X124799Y10559D02*
X124866Y10502D01*
X124929Y10456D01*
X124989Y10421D01*
X125045Y10397D01*
X125097Y10384D01*
X125145Y10382D01*
X125189Y10391D01*
X125230Y10410D01*
X125266Y10441D01*
X124654Y9811D01*
X125485Y8980D01*
X124707Y8202D01*
X124354Y8556D01*
Y9546D01*
X124620Y9812D01*
X124626Y9849D01*
X124622Y9898D01*
X124608Y9951D01*
X124583Y10007D01*
X124547Y10068D01*
X124500Y10132D01*
X124443Y10200D01*
X124374Y10272D01*
X124728Y10626D01*
X124799Y10559D01*
D02*
G37*
G36*
X123646Y9546D02*
Y8556D01*
X123293Y8202D01*
X122515Y8980D01*
X123364Y9829D01*
X123646Y9546D01*
D02*
G37*
G36*
X129675Y8105D02*
X129597Y8024D01*
X129477Y7876D01*
X129435Y7810D01*
X129404Y7749D01*
X129386Y7692D01*
X129379Y7640D01*
X129384Y7594D01*
X129400Y7552D01*
X129429Y7515D01*
X128731Y8213D01*
X128768Y8184D01*
X128810Y8168D01*
X128857Y8163D01*
X128908Y8169D01*
X128965Y8188D01*
X129026Y8219D01*
X129093Y8261D01*
X129164Y8315D01*
X129240Y8381D01*
X129321Y8459D01*
X129675Y8105D01*
D02*
G37*
G36*
X131067Y6713D02*
X130989Y6632D01*
X130869Y6484D01*
X130827Y6418D01*
X130796Y6357D01*
X130778Y6300D01*
X130771Y6248D01*
X130776Y6202D01*
X130792Y6160D01*
X130821Y6123D01*
X130123Y6821D01*
X130160Y6792D01*
X130202Y6776D01*
X130248Y6771D01*
X130300Y6778D01*
X130357Y6796D01*
X130418Y6827D01*
X130484Y6869D01*
X130556Y6923D01*
X130632Y6989D01*
X130713Y7067D01*
X131067Y6713D01*
D02*
G37*
G36*
X114288Y7288D02*
X115942D01*
X115811Y7112D01*
X115278Y6309D01*
X115257Y6255D01*
X115250Y6216D01*
X114750D01*
X114743Y6255D01*
X114722Y6309D01*
X114688Y6378D01*
X114639Y6462D01*
X114411Y6807D01*
X114152Y7160D01*
X114112Y7189D01*
X113309Y7722D01*
X113255Y7743D01*
X113216Y7750D01*
Y8250D01*
X113255Y8257D01*
X113309Y8278D01*
X113378Y8312D01*
X113462Y8361D01*
X113807Y8589D01*
X114288Y8942D01*
Y7288D01*
D02*
G37*
G36*
X281481Y22922D02*
X278279Y19721D01*
X278058Y19390D01*
X277980Y19000D01*
Y-19000D01*
X278058Y-19390D01*
X278279Y-19721D01*
X281481Y-22922D01*
Y-36481D01*
X194300D01*
Y-30341D01*
X195500Y-30262D01*
X195603Y-31044D01*
X196006Y-32017D01*
X196647Y-32853D01*
X197483Y-33494D01*
X198456Y-33897D01*
X199500Y-34034D01*
X200500D01*
X201544Y-33897D01*
X202517Y-33494D01*
X203353Y-32853D01*
X203994Y-32017D01*
X204397Y-31044D01*
X204535Y-30000D01*
X204397Y-28956D01*
X203994Y-27983D01*
X203353Y-27147D01*
X202517Y-26506D01*
X201544Y-26103D01*
X200500Y-25965D01*
X199500D01*
X198456Y-26103D01*
X197483Y-26506D01*
X196647Y-27147D01*
X196006Y-27983D01*
X195603Y-28956D01*
X195500Y-29738D01*
X194300Y-29659D01*
Y-20341D01*
X195500Y-20262D01*
X195603Y-21044D01*
X196006Y-22017D01*
X196647Y-22853D01*
X197483Y-23494D01*
X198456Y-23897D01*
X199500Y-24035D01*
X200500D01*
X201544Y-23897D01*
X202517Y-23494D01*
X203353Y-22853D01*
X203994Y-22017D01*
X204397Y-21044D01*
X204535Y-20000D01*
X204397Y-18956D01*
X203994Y-17983D01*
X203353Y-17147D01*
X202517Y-16506D01*
X201544Y-16103D01*
X200500Y-15966D01*
X199500D01*
X198456Y-16103D01*
X197483Y-16506D01*
X196647Y-17147D01*
X196006Y-17983D01*
X195603Y-18956D01*
X195500Y-19738D01*
X194300Y-19659D01*
Y-10341D01*
X195500Y-10262D01*
X195603Y-11044D01*
X196006Y-12017D01*
X196647Y-12853D01*
X197483Y-13494D01*
X198456Y-13897D01*
X199500Y-14035D01*
X200500D01*
X201544Y-13897D01*
X202517Y-13494D01*
X203353Y-12853D01*
X203994Y-12017D01*
X204397Y-11044D01*
X204535Y-10000D01*
X204397Y-8956D01*
X203994Y-7983D01*
X203353Y-7147D01*
X202517Y-6506D01*
X201544Y-6103D01*
X200500Y-5965D01*
X199500D01*
X198456Y-6103D01*
X197483Y-6506D01*
X196647Y-7147D01*
X196006Y-7983D01*
X195603Y-8956D01*
X195500Y-9738D01*
X194300Y-9659D01*
Y-341D01*
X195500Y-262D01*
X195603Y-1044D01*
X196006Y-2017D01*
X196647Y-2853D01*
X197483Y-3494D01*
X198456Y-3897D01*
X199500Y-4034D01*
X200500D01*
X201544Y-3897D01*
X202517Y-3494D01*
X203353Y-2853D01*
X203994Y-2017D01*
X204397Y-1044D01*
X204535Y0D01*
X204397Y1044D01*
X203994Y2017D01*
X203353Y2853D01*
X202517Y3494D01*
X201544Y3897D01*
X200500Y4034D01*
X199500D01*
X198456Y3897D01*
X197483Y3494D01*
X196647Y2853D01*
X196006Y2017D01*
X195603Y1044D01*
X195500Y262D01*
X194300Y341D01*
Y9659D01*
X195500Y9738D01*
X195603Y8956D01*
X196006Y7983D01*
X196647Y7147D01*
X197483Y6506D01*
X198456Y6103D01*
X199500Y5965D01*
X200500D01*
X201544Y6103D01*
X202517Y6506D01*
X203353Y7147D01*
X203994Y7983D01*
X204397Y8956D01*
X204535Y10000D01*
X204397Y11044D01*
X203994Y12017D01*
X203353Y12853D01*
X202517Y13494D01*
X201544Y13897D01*
X200500Y14035D01*
X199500D01*
X198456Y13897D01*
X197483Y13494D01*
X196647Y12853D01*
X196006Y12017D01*
X195603Y11044D01*
X195500Y10262D01*
X194300Y10341D01*
Y36481D01*
X281481D01*
Y22922D01*
D02*
G37*
G36*
X66961Y5766D02*
X66923Y5793D01*
X66878Y5806D01*
X66827Y5806D01*
X66768Y5791D01*
X66702Y5763D01*
X66629Y5721D01*
X66549Y5665D01*
X66462Y5595D01*
X66267Y5413D01*
X65913Y5767D01*
X66011Y5868D01*
X66165Y6049D01*
X66221Y6129D01*
X66263Y6202D01*
X66291Y6268D01*
X66306Y6327D01*
X66306Y6378D01*
X66293Y6423D01*
X66266Y6461D01*
X66961Y5766D01*
D02*
G37*
G36*
X132458Y5321D02*
X132381Y5240D01*
X132261Y5093D01*
X132219Y5026D01*
X132188Y4965D01*
X132169Y4908D01*
X132163Y4857D01*
X132167Y4810D01*
X132184Y4768D01*
X132213Y4731D01*
X131515Y5429D01*
X131552Y5400D01*
X131594Y5384D01*
X131640Y5379D01*
X131692Y5386D01*
X131749Y5404D01*
X131810Y5435D01*
X131876Y5477D01*
X131948Y5531D01*
X132024Y5597D01*
X132105Y5675D01*
X132458Y5321D01*
D02*
G37*
G36*
X115976Y5597D02*
X116124Y5477D01*
X116190Y5435D01*
X116251Y5404D01*
X116308Y5386D01*
X116360Y5379D01*
X116406Y5384D01*
X116448Y5400D01*
X116485Y5429D01*
X115787Y4731D01*
X115816Y4768D01*
X115832Y4810D01*
X115837Y4857D01*
X115831Y4908D01*
X115812Y4965D01*
X115781Y5026D01*
X115739Y5093D01*
X115685Y5164D01*
X115619Y5240D01*
X115542Y5321D01*
X115895Y5675D01*
X115976Y5597D01*
D02*
G37*
G36*
X62976Y5373D02*
X63017Y5331D01*
X63063Y5294D01*
X63114Y5261D01*
X63170Y5234D01*
X63231Y5211D01*
X63297Y5194D01*
X63368Y5181D01*
X63444Y5174D01*
X63525Y5171D01*
Y4671D01*
X63444Y4669D01*
X63368Y4661D01*
X63297Y4649D01*
X63231Y4631D01*
X63170Y4609D01*
X63114Y4581D01*
X63063Y4549D01*
X63017Y4512D01*
X62976Y4469D01*
X62940Y4422D01*
Y5421D01*
X62976Y5373D01*
D02*
G37*
G36*
X133851Y3929D02*
X133773Y3848D01*
X133653Y3701D01*
X133611Y3634D01*
X133580Y3573D01*
X133561Y3516D01*
X133554Y3465D01*
X133560Y3418D01*
X133576Y3376D01*
X133605Y3339D01*
X132907Y4037D01*
X132944Y4008D01*
X132986Y3992D01*
X133032Y3987D01*
X133084Y3994D01*
X133141Y4012D01*
X133202Y4043D01*
X133268Y4085D01*
X133340Y4139D01*
X133416Y4205D01*
X133497Y4283D01*
X133851Y3929D01*
D02*
G37*
G36*
X114584Y4205D02*
X114732Y4085D01*
X114798Y4043D01*
X114859Y4012D01*
X114916Y3994D01*
X114968Y3987D01*
X115014Y3992D01*
X115056Y4008D01*
X115093Y4037D01*
X114395Y3339D01*
X114424Y3376D01*
X114441Y3418D01*
X114445Y3465D01*
X114439Y3516D01*
X114420Y3573D01*
X114389Y3634D01*
X114347Y3701D01*
X114293Y3772D01*
X114227Y3848D01*
X114149Y3929D01*
X114503Y4283D01*
X114584Y4205D01*
D02*
G37*
G36*
X135242Y2537D02*
X135165Y2456D01*
X135045Y2309D01*
X135003Y2242D01*
X134972Y2181D01*
X134953Y2124D01*
X134947Y2073D01*
X134951Y2026D01*
X134968Y1984D01*
X134997Y1947D01*
X134299Y2645D01*
X134336Y2616D01*
X134378Y2600D01*
X134424Y2595D01*
X134476Y2602D01*
X134532Y2620D01*
X134594Y2651D01*
X134660Y2693D01*
X134731Y2747D01*
X134808Y2813D01*
X134889Y2891D01*
X135242Y2537D01*
D02*
G37*
G36*
X57217Y2453D02*
X57181Y2501D01*
X57140Y2543D01*
X57094Y2581D01*
X57043Y2613D01*
X56988Y2640D01*
X56927Y2663D01*
X56861Y2680D01*
X56789Y2693D01*
X56713Y2700D01*
X56632Y2703D01*
Y3203D01*
X56713Y3205D01*
X56789Y3213D01*
X56861Y3225D01*
X56927Y3243D01*
X56988Y3265D01*
X57043Y3293D01*
X57094Y3325D01*
X57140Y3362D01*
X57181Y3405D01*
X57217Y3452D01*
Y2453D01*
D02*
G37*
G36*
X113192Y2813D02*
X113340Y2693D01*
X113406Y2651D01*
X113468Y2620D01*
X113524Y2602D01*
X113576Y2595D01*
X113622Y2600D01*
X113664Y2616D01*
X113701Y2645D01*
X113003Y1947D01*
X113032Y1984D01*
X113049Y2026D01*
X113054Y2073D01*
X113047Y2124D01*
X113028Y2181D01*
X112997Y2242D01*
X112955Y2309D01*
X112901Y2380D01*
X112835Y2456D01*
X112758Y2537D01*
X113111Y2891D01*
X113192Y2813D01*
D02*
G37*
G36*
X122044Y2811D02*
X122286Y2613D01*
X122409Y2530D01*
X122534Y2456D01*
X122660Y2393D01*
X122787Y2339D01*
X122915Y2295D01*
X123045Y2261D01*
X123177Y2238D01*
X123117Y2178D01*
X123166Y2169D01*
X121831Y834D01*
X121822Y883D01*
X121763Y823D01*
X121739Y955D01*
X121705Y1085D01*
X121661Y1213D01*
X121607Y1340D01*
X121544Y1466D01*
X121470Y1591D01*
X121387Y1714D01*
X121293Y1836D01*
X121189Y1956D01*
X121076Y2076D01*
X121924Y2924D01*
X122044Y2811D01*
D02*
G37*
G36*
X175521Y1337D02*
X170997Y643D01*
X170643Y997D01*
X170661Y1053D01*
X170690Y1196D01*
X171337Y5521D01*
X175521Y1337D01*
D02*
G37*
G36*
X133829Y636D02*
X133546Y353D01*
X132556D01*
X132202Y707D01*
X132980Y1485D01*
X133829Y636D01*
D02*
G37*
G36*
X115798Y707D02*
X115444Y353D01*
X114454D01*
X114171Y636D01*
X115020Y1485D01*
X115798Y707D01*
D02*
G37*
G36*
X75685Y3629D02*
X75865Y3550D01*
X76070Y3480D01*
X76302Y3419D01*
X76560Y3367D01*
X77156Y3292D01*
X77492Y3269D01*
X78245Y3250D01*
Y750D01*
X77855Y745D01*
X76845Y675D01*
X76560Y633D01*
X76070Y520D01*
X75865Y450D01*
X75685Y371D01*
X75532Y282D01*
Y3718D01*
X75685Y3629D01*
D02*
G37*
G36*
X63020Y1320D02*
X63041Y1250D01*
X63066Y1182D01*
X63097Y1115D01*
X63132Y1048D01*
X63172Y983D01*
X63217Y918D01*
X63266Y855D01*
X63379Y731D01*
X63280Y122D01*
X63177Y222D01*
X62996Y375D01*
X62920Y428D01*
X62852Y465D01*
X62793Y486D01*
X62744Y491D01*
X62703Y481D01*
X62671Y454D01*
X62649Y412D01*
X63003Y1390D01*
X63020Y1320D01*
D02*
G37*
G36*
X84019Y4587D02*
X84140Y3975D01*
X84638Y3230D01*
X85990Y1878D01*
X86735Y1381D01*
X87612Y1206D01*
X88326D01*
X88369Y488D01*
Y175D01*
X88297Y116D01*
X87869Y-47D01*
X87471Y219D01*
X86850Y342D01*
X85669D01*
X85049Y219D01*
X84523Y-133D01*
X84171Y-659D01*
X84048Y-1280D01*
Y-4035D01*
X84171Y-4656D01*
X84218Y-4725D01*
X83950Y-5226D01*
X76952D01*
Y-2913D01*
X76829Y-2293D01*
X76477Y-1767D01*
X75951Y-1415D01*
X75331Y-1292D01*
X75060D01*
X75050Y-1276D01*
X75317Y-776D01*
X75400D01*
X75646Y-728D01*
X75667Y-729D01*
X75707Y-715D01*
X75927Y-672D01*
X76023Y-607D01*
X76044Y-600D01*
X76149Y-539D01*
X76237Y-500D01*
X76350Y-461D01*
X76749Y-370D01*
X76955Y-339D01*
X77606Y-294D01*
X79000D01*
X79878Y-119D01*
X80622Y378D01*
X82622Y2378D01*
X83119Y3122D01*
X83294Y4000D01*
Y4659D01*
X83516Y4804D01*
X84019Y4587D01*
D02*
G37*
G36*
X90830Y2538D02*
X90782Y2417D01*
X90739Y2253D01*
X90702Y2046D01*
X90645Y1503D01*
X90611Y789D01*
X90600Y-97D01*
X89400D01*
X89397Y368D01*
X89298Y2046D01*
X89261Y2253D01*
X89218Y2417D01*
X89170Y2538D01*
X89116Y2617D01*
X90884D01*
X90830Y2538D01*
D02*
G37*
G36*
X138266Y-500D02*
X138260Y-453D01*
X138245Y-410D01*
X138220Y-372D01*
X138184Y-340D01*
X138138Y-313D01*
X138081Y-290D01*
X138015Y-273D01*
X137938Y-260D01*
X137851Y-252D01*
X137754Y-250D01*
Y250D01*
X137851Y252D01*
X137938Y260D01*
X138015Y273D01*
X138081Y290D01*
X138138Y313D01*
X138184Y340D01*
X138220Y372D01*
X138245Y410D01*
X138260Y453D01*
X138266Y500D01*
Y-500D01*
D02*
G37*
G36*
X134889Y-991D02*
X134822Y-1061D01*
X134766Y-1128D01*
X134720Y-1191D01*
X134685Y-1251D01*
X134661Y-1306D01*
X134648Y-1358D01*
X134646Y-1407D01*
X134654Y-1451D01*
X134674Y-1492D01*
X134704Y-1529D01*
X133996Y-822D01*
X134034Y-852D01*
X134075Y-871D01*
X134119Y-880D01*
X134168Y-878D01*
X134220Y-864D01*
X134275Y-840D01*
X134335Y-806D01*
X134398Y-760D01*
X134465Y-704D01*
X134535Y-637D01*
X134889Y-991D01*
D02*
G37*
G36*
X57217Y-1484D02*
X57181Y-1436D01*
X57140Y-1394D01*
X57094Y-1357D01*
X57043Y-1324D01*
X56988Y-1297D01*
X56927Y-1274D01*
X56861Y-1257D01*
X56789Y-1244D01*
X56713Y-1237D01*
X56632Y-1234D01*
Y-734D01*
X56713Y-732D01*
X56789Y-724D01*
X56861Y-712D01*
X56927Y-694D01*
X56988Y-672D01*
X57043Y-644D01*
X57094Y-612D01*
X57140Y-575D01*
X57181Y-532D01*
X57217Y-485D01*
Y-1484D01*
D02*
G37*
G36*
X133829Y-636D02*
X132980Y-1485D01*
X132202Y-707D01*
X132556Y-353D01*
X133546D01*
X133829Y-636D01*
D02*
G37*
G36*
X115798Y-707D02*
X115020Y-1485D01*
X114171Y-636D01*
X114454Y-353D01*
X115444D01*
X115798Y-707D01*
D02*
G37*
G36*
X105452Y-2233D02*
X105360Y-2166D01*
X105251Y-2133D01*
X105124Y-2134D01*
X104980Y-2169D01*
X104819Y-2239D01*
X104641Y-2342D01*
X104445Y-2479D01*
X104233Y-2650D01*
X103755Y-3093D01*
X102907Y-2245D01*
X103146Y-1997D01*
X103521Y-1555D01*
X103658Y-1359D01*
X103761Y-1181D01*
X103831Y-1020D01*
X103866Y-876D01*
X103867Y-749D01*
X103834Y-640D01*
X103767Y-548D01*
X105452Y-2233D01*
D02*
G37*
G36*
X113701Y-2645D02*
X113664Y-2616D01*
X113622Y-2600D01*
X113576Y-2595D01*
X113524Y-2602D01*
X113468Y-2620D01*
X113406Y-2651D01*
X113340Y-2693D01*
X113268Y-2747D01*
X113192Y-2813D01*
X113111Y-2891D01*
X112758Y-2537D01*
X112835Y-2456D01*
X112955Y-2309D01*
X112997Y-2242D01*
X113028Y-2181D01*
X113047Y-2124D01*
X113054Y-2073D01*
X113049Y-2026D01*
X113032Y-1984D01*
X113003Y-1947D01*
X113701Y-2645D01*
D02*
G37*
G36*
X73917Y-2060D02*
X74088Y-2204D01*
X74166Y-2258D01*
X74239Y-2300D01*
X74307Y-2331D01*
X74371Y-2350D01*
X74429Y-2357D01*
X74482Y-2352D01*
X74531Y-2335D01*
X73596Y-2794D01*
X73635Y-2767D01*
X73660Y-2733D01*
X73670Y-2692D01*
X73666Y-2644D01*
X73648Y-2588D01*
X73616Y-2524D01*
X73569Y-2454D01*
X73508Y-2375D01*
X73433Y-2290D01*
X73343Y-2197D01*
X73823Y-1970D01*
X73917Y-2060D01*
D02*
G37*
G36*
X134968Y-1984D02*
X134951Y-2026D01*
X134947Y-2073D01*
X134953Y-2124D01*
X134972Y-2181D01*
X135003Y-2242D01*
X135045Y-2309D01*
X135099Y-2380D01*
X135165Y-2456D01*
X135242Y-2537D01*
X134889Y-2891D01*
X134808Y-2813D01*
X134660Y-2693D01*
X134594Y-2651D01*
X134532Y-2620D01*
X134476Y-2602D01*
X134424Y-2595D01*
X134378Y-2600D01*
X134336Y-2616D01*
X134299Y-2645D01*
X134997Y-1947D01*
X134968Y-1984D01*
D02*
G37*
G36*
X62976Y-2501D02*
X63017Y-2543D01*
X63063Y-2581D01*
X63114Y-2613D01*
X63170Y-2640D01*
X63231Y-2663D01*
X63297Y-2680D01*
X63368Y-2693D01*
X63444Y-2700D01*
X63525Y-2703D01*
Y-3203D01*
X63444Y-3205D01*
X63368Y-3213D01*
X63297Y-3225D01*
X63231Y-3243D01*
X63170Y-3265D01*
X63114Y-3293D01*
X63063Y-3325D01*
X63017Y-3362D01*
X62976Y-3405D01*
X62940Y-3452D01*
Y-2453D01*
X62976Y-2501D01*
D02*
G37*
G36*
X124257Y7042D02*
X124269Y6979D01*
X124557Y6549D01*
X124981Y6125D01*
X125411Y5837D01*
X125620Y5796D01*
X125662Y5587D01*
X125949Y5157D01*
X126373Y4733D01*
X126803Y4445D01*
X127012Y4404D01*
X127053Y4195D01*
X127341Y3765D01*
X127765Y3341D01*
X128195Y3053D01*
X128404Y3012D01*
X128445Y2803D01*
X128733Y2373D01*
X129157Y1949D01*
X129587Y1661D01*
X129796Y1620D01*
X129837Y1411D01*
X130125Y981D01*
X130549Y557D01*
X130979Y270D01*
X131043Y257D01*
X131052Y242D01*
Y-243D01*
X131043Y-257D01*
X130979Y-270D01*
X130549Y-557D01*
X130125Y-981D01*
X129837Y-1411D01*
X129796Y-1620D01*
X129587Y-1661D01*
X129157Y-1949D01*
X128733Y-2373D01*
X128445Y-2803D01*
X128404Y-3012D01*
X128195Y-3053D01*
X127765Y-3341D01*
X127341Y-3765D01*
X127053Y-4195D01*
X127012Y-4404D01*
X126803Y-4445D01*
X126373Y-4733D01*
X125949Y-5157D01*
X125662Y-5587D01*
X125620Y-5796D01*
X125411Y-5837D01*
X124981Y-6125D01*
X124557Y-6549D01*
X124269Y-6979D01*
X124257Y-7042D01*
X124242Y-7052D01*
X123758D01*
X123743Y-7042D01*
X123731Y-6979D01*
X123443Y-6549D01*
X123019Y-6125D01*
X122589Y-5837D01*
X122380Y-5796D01*
X122338Y-5587D01*
X122051Y-5157D01*
X121627Y-4733D01*
X121197Y-4445D01*
X120988Y-4404D01*
X120947Y-4195D01*
X120659Y-3765D01*
X120235Y-3341D01*
X119805Y-3053D01*
X119596Y-3012D01*
X119555Y-2803D01*
X119267Y-2373D01*
X118843Y-1949D01*
X118413Y-1661D01*
X118204Y-1620D01*
X118163Y-1411D01*
X117875Y-981D01*
X117451Y-557D01*
X117021Y-270D01*
X116957Y-257D01*
X116947Y-242D01*
Y243D01*
X116957Y257D01*
X117021Y270D01*
X117451Y557D01*
X117875Y981D01*
X118163Y1411D01*
X118204Y1620D01*
X118413Y1661D01*
X118843Y1949D01*
X119267Y2373D01*
X119369Y2525D01*
X119622Y2512D01*
X119888Y2402D01*
X119993Y1876D01*
X120151Y1639D01*
X120400Y1578D01*
X120358Y1335D01*
X120505Y1188D01*
X120560Y1117D01*
X120609Y1044D01*
X120649Y976D01*
X120682Y911D01*
X120708Y850D01*
X120728Y792D01*
X120742Y735D01*
X120759Y641D01*
X120796Y550D01*
X120880Y122D01*
X121378Y-622D01*
X123628Y-2872D01*
X124372Y-3369D01*
X125250Y-3544D01*
X126128Y-3369D01*
X126872Y-2872D01*
X127369Y-2128D01*
X127544Y-1250D01*
X127369Y-372D01*
X126872Y372D01*
X124622Y2622D01*
X123878Y3119D01*
X123450Y3204D01*
X123359Y3241D01*
X123265Y3258D01*
X123208Y3272D01*
X123150Y3292D01*
X123131Y3300D01*
Y5284D01*
X123007Y5908D01*
X122911Y6052D01*
X123019Y6125D01*
X123443Y6549D01*
X123731Y6979D01*
X123743Y7042D01*
X123758Y7052D01*
X124242D01*
X124257Y7042D01*
D02*
G37*
G36*
X180000Y10000D02*
X172500D01*
X170000Y7500D01*
Y3477D01*
X169705Y1508D01*
X165538Y-2659D01*
X164876Y-2794D01*
X164684Y-2822D01*
X164578Y-2860D01*
X164149Y-2945D01*
X163789Y-3186D01*
X163689Y-3232D01*
X163361Y-3472D01*
X163113Y-3641D01*
X162972Y-3726D01*
X140050D01*
X139487Y-3353D01*
X139386Y-3278D01*
X139392Y-3095D01*
X139531Y-2778D01*
X141313D01*
X141873Y-2667D01*
X142349Y-2349D01*
X142667Y-1873D01*
X142778Y-1312D01*
Y1312D01*
X142667Y1873D01*
X142349Y2349D01*
X141873Y2667D01*
X141313Y2778D01*
X138688D01*
X138127Y2667D01*
X137651Y2349D01*
X137333Y1873D01*
X137222Y1312D01*
Y1275D01*
X136390D01*
X136009Y1774D01*
X136029Y1875D01*
X140401Y6247D01*
X140677Y6661D01*
X140775Y7148D01*
Y18972D01*
X148028Y26226D01*
X157500D01*
X157988Y26322D01*
X158401Y26599D01*
X161490Y29687D01*
X163530Y30000D01*
X167500D01*
X170000Y32500D01*
Y38980D01*
X180000D01*
X180000Y10000D01*
D02*
G37*
G36*
X66091Y-4000D02*
X66086Y-3952D01*
X66071Y-3910D01*
X66045Y-3872D01*
X66009Y-3840D01*
X65963Y-3813D01*
X65907Y-3790D01*
X65841Y-3773D01*
X65764Y-3760D01*
X65677Y-3752D01*
X65579Y-3750D01*
Y-3250D01*
X65677Y-3247D01*
X65764Y-3240D01*
X65841Y-3227D01*
X65907Y-3210D01*
X65963Y-3187D01*
X66009Y-3160D01*
X66045Y-3128D01*
X66071Y-3090D01*
X66086Y-3047D01*
X66091Y-3000D01*
Y-4000D01*
D02*
G37*
G36*
X114868Y-3924D02*
X114866Y-3925D01*
X114860Y-3930D01*
X114836Y-3952D01*
X114677Y-4109D01*
X114323Y-3755D01*
X114508Y-3564D01*
X114868Y-3924D01*
D02*
G37*
G36*
X133576Y-3376D02*
X133560Y-3418D01*
X133554Y-3465D01*
X133561Y-3516D01*
X133580Y-3573D01*
X133611Y-3634D01*
X133653Y-3701D01*
X133707Y-3772D01*
X133773Y-3848D01*
X133851Y-3929D01*
X133497Y-4283D01*
X133416Y-4205D01*
X133268Y-4085D01*
X133202Y-4043D01*
X133141Y-4012D01*
X133084Y-3994D01*
X133032Y-3987D01*
X132986Y-3992D01*
X132944Y-4008D01*
X132907Y-4037D01*
X133605Y-3339D01*
X133576Y-3376D01*
D02*
G37*
G36*
X98573Y2828D02*
X99100Y2723D01*
X100777D01*
X102500Y1000D01*
Y-1182D01*
X102442Y-1251D01*
X101459Y-2234D01*
X101106Y-2763D01*
X100981Y-3387D01*
Y-3519D01*
X99500Y-5000D01*
X93000D01*
X92500Y-4500D01*
Y-1000D01*
X96500Y3000D01*
X98316D01*
X98573Y2828D01*
D02*
G37*
G36*
X166494Y-3859D02*
X166462Y-3902D01*
X166429Y-3963D01*
X166397Y-4045D01*
X166364Y-4146D01*
X166299Y-4408D01*
X166234Y-4748D01*
X166169Y-5166D01*
X164834Y-3831D01*
X165053Y-3798D01*
X165854Y-3636D01*
X165955Y-3603D01*
X166036Y-3571D01*
X166098Y-3538D01*
X166141Y-3506D01*
X166494Y-3859D01*
D02*
G37*
G36*
X136915Y-3538D02*
X136977Y-3571D01*
X137059Y-3603D01*
X137160Y-3636D01*
X137421Y-3700D01*
X137761Y-3766D01*
X138180Y-3831D01*
X136844Y-5166D01*
X136812Y-4947D01*
X136649Y-4146D01*
X136617Y-4045D01*
X136584Y-3963D01*
X136552Y-3902D01*
X136520Y-3859D01*
X136873Y-3506D01*
X136915Y-3538D01*
D02*
G37*
G36*
X111971Y1875D02*
X112059Y1433D01*
X112346Y1003D01*
X113350Y0D01*
X112346Y-1003D01*
X112059Y-1433D01*
X111971Y-1875D01*
X111661Y-2185D01*
X111385Y-2598D01*
X111288Y-3086D01*
Y-5222D01*
X110777D01*
X110706Y-4876D01*
X110678Y-4684D01*
X110640Y-4578D01*
X110555Y-4149D01*
X110073Y-3427D01*
X109351Y-2945D01*
X108500Y-2776D01*
X108472Y-2746D01*
X108191Y-2328D01*
X108276Y-1900D01*
Y900D01*
X108172Y1427D01*
X107873Y1873D01*
X107427Y2172D01*
X106900Y2276D01*
X104100D01*
X103573Y2172D01*
X103127Y1873D01*
X103074Y1868D01*
X101497Y3444D01*
X101167Y3666D01*
X100777Y3743D01*
X99200D01*
X98971Y3789D01*
X98883Y3848D01*
X98790Y3886D01*
X98706Y3942D01*
X98608Y3962D01*
X98529Y3994D01*
Y14663D01*
X98991Y14855D01*
X111971Y1875D01*
D02*
G37*
G36*
X132184Y-4768D02*
X132167Y-4810D01*
X132163Y-4857D01*
X132169Y-4908D01*
X132188Y-4965D01*
X132219Y-5026D01*
X132261Y-5093D01*
X132315Y-5164D01*
X132381Y-5240D01*
X132458Y-5321D01*
X132105Y-5675D01*
X132024Y-5597D01*
X131876Y-5477D01*
X131810Y-5435D01*
X131749Y-5404D01*
X131692Y-5386D01*
X131640Y-5379D01*
X131594Y-5384D01*
X131552Y-5400D01*
X131515Y-5429D01*
X132213Y-4731D01*
X132184Y-4768D01*
D02*
G37*
G36*
X164291Y-5944D02*
X164113Y-5813D01*
X163432Y-5361D01*
X163337Y-5313D01*
X163256Y-5278D01*
X163190Y-5257D01*
X163137Y-5250D01*
Y-4750D01*
X163190Y-4743D01*
X163256Y-4722D01*
X163337Y-4688D01*
X163432Y-4639D01*
X163662Y-4500D01*
X163949Y-4306D01*
X164291Y-4056D01*
Y-5944D01*
D02*
G37*
G36*
X138901Y-4188D02*
X139582Y-4639D01*
X139677Y-4688D01*
X139757Y-4722D01*
X139824Y-4743D01*
X139877Y-4750D01*
Y-5250D01*
X139824Y-5257D01*
X139757Y-5278D01*
X139677Y-5313D01*
X139582Y-5361D01*
X139351Y-5500D01*
X139065Y-5694D01*
X138723Y-5944D01*
Y-4056D01*
X138901Y-4188D01*
D02*
G37*
G36*
X112815Y-5864D02*
X112834Y-6050D01*
X112851Y-6127D01*
X112873Y-6192D01*
X112900Y-6247D01*
X112932Y-6290D01*
X112968Y-6322D01*
X113010Y-6343D01*
X113056Y-6353D01*
X112062Y-6266D01*
X112110Y-6265D01*
X112152Y-6252D01*
X112190Y-6229D01*
X112223Y-6194D01*
X112250Y-6149D01*
X112273Y-6092D01*
X112290Y-6024D01*
X112302Y-5945D01*
X112310Y-5855D01*
X112312Y-5754D01*
X112812D01*
X112815Y-5864D01*
D02*
G37*
G36*
X109702Y-5053D02*
X109864Y-5854D01*
X109897Y-5955D01*
X109929Y-6036D01*
X109954Y-6084D01*
X110049Y-6165D01*
X110129Y-6221D01*
X110202Y-6263D01*
X110268Y-6291D01*
X110327Y-6306D01*
X110378Y-6306D01*
X110423Y-6293D01*
X110461Y-6266D01*
X109766Y-6961D01*
X109793Y-6923D01*
X109806Y-6878D01*
X109806Y-6827D01*
X109791Y-6768D01*
X109763Y-6702D01*
X109721Y-6629D01*
X109665Y-6549D01*
X109595Y-6462D01*
X109591Y-6458D01*
X109536Y-6429D01*
X109455Y-6397D01*
X109354Y-6364D01*
X109092Y-6300D01*
X108752Y-6234D01*
X108334Y-6169D01*
X109669Y-4834D01*
X109702Y-5053D01*
D02*
G37*
G36*
X130792Y-6160D02*
X130776Y-6202D01*
X130771Y-6248D01*
X130778Y-6300D01*
X130796Y-6357D01*
X130827Y-6418D01*
X130869Y-6484D01*
X130923Y-6556D01*
X130989Y-6632D01*
X131067Y-6713D01*
X130713Y-7067D01*
X130632Y-6989D01*
X130484Y-6869D01*
X130418Y-6827D01*
X130357Y-6796D01*
X130300Y-6778D01*
X130248Y-6771D01*
X130202Y-6776D01*
X130160Y-6792D01*
X130123Y-6821D01*
X130821Y-6123D01*
X130792Y-6160D01*
D02*
G37*
G36*
X67712Y-6646D02*
X67670Y-6661D01*
X67632Y-6687D01*
X67600Y-6723D01*
X67572Y-6769D01*
X67550Y-6825D01*
X67532Y-6892D01*
X67520Y-6969D01*
X67512Y-7056D01*
X67510Y-7153D01*
X67010D01*
X67007Y-7056D01*
X67000Y-6969D01*
X66987Y-6892D01*
X66970Y-6825D01*
X66947Y-6769D01*
X66920Y-6723D01*
X66887Y-6687D01*
X66850Y-6661D01*
X66807Y-6646D01*
X66760Y-6641D01*
X67760D01*
X67712Y-6646D01*
D02*
G37*
G36*
X117996Y-6812D02*
X117949Y-6826D01*
X117907Y-6847D01*
X117870Y-6876D01*
X117839Y-6913D01*
X117812Y-6958D01*
X117789Y-7010D01*
X117772Y-7071D01*
X117760Y-7139D01*
X117753Y-7214D01*
X117750Y-7298D01*
X117250Y-7073D01*
X117249Y-6929D01*
X117210Y-6292D01*
X117200Y-6254D01*
X117188Y-6229D01*
X117996Y-6812D01*
D02*
G37*
G36*
X62976Y-6438D02*
X63017Y-6480D01*
X63063Y-6517D01*
X63114Y-6550D01*
X63170Y-6577D01*
X63231Y-6600D01*
X63297Y-6617D01*
X63368Y-6630D01*
X63444Y-6637D01*
X63525Y-6640D01*
Y-7140D01*
X63444Y-7142D01*
X63368Y-7150D01*
X63297Y-7162D01*
X63231Y-7180D01*
X63170Y-7202D01*
X63114Y-7230D01*
X63063Y-7262D01*
X63017Y-7299D01*
X62976Y-7342D01*
X62940Y-7389D01*
Y-6390D01*
X62976Y-6438D01*
D02*
G37*
G36*
X102200Y-7618D02*
X101470Y-8289D01*
X99799Y-7485D01*
X99918Y-7525D01*
X100048Y-7538D01*
X100189Y-7522D01*
X100342Y-7478D01*
X100506Y-7406D01*
X100681Y-7306D01*
X100868Y-7177D01*
X101066Y-7021D01*
X101275Y-6837D01*
X101496Y-6625D01*
X102200Y-7618D01*
D02*
G37*
G36*
X172766Y-7949D02*
X169500Y-5250D01*
Y-4750D01*
X169479Y-4723D01*
X169536Y-4642D01*
X169669Y-4507D01*
X169880Y-4318D01*
X171495Y-3023D01*
X172766Y-2051D01*
Y-7949D01*
D02*
G37*
G36*
X161887Y-6688D02*
X162568Y-7139D01*
X162663Y-7187D01*
X162744Y-7222D01*
X162810Y-7243D01*
X162863Y-7250D01*
Y-7750D01*
X162810Y-7757D01*
X162744Y-7778D01*
X162663Y-7812D01*
X162568Y-7861D01*
X162338Y-8000D01*
X162051Y-8194D01*
X161709Y-8444D01*
Y-6556D01*
X161887Y-6688D01*
D02*
G37*
G36*
X160291Y-8444D02*
X160113Y-8313D01*
X159432Y-7861D01*
X159337Y-7812D01*
X159256Y-7778D01*
X159190Y-7757D01*
X159137Y-7750D01*
Y-7250D01*
X159190Y-7243D01*
X159256Y-7222D01*
X159337Y-7187D01*
X159432Y-7139D01*
X159662Y-7000D01*
X159949Y-6806D01*
X160291Y-6556D01*
Y-8444D01*
D02*
G37*
G36*
X78788Y-8553D02*
X78781Y-8507D01*
X78759Y-8467D01*
X78722Y-8431D01*
X78670Y-8399D01*
X78603Y-8373D01*
X78521Y-8351D01*
X78425Y-8335D01*
X78313Y-8323D01*
X78046Y-8313D01*
Y-7813D01*
X78187Y-7811D01*
X78425Y-7791D01*
X78521Y-7775D01*
X78603Y-7753D01*
X78670Y-7727D01*
X78722Y-7695D01*
X78759Y-7659D01*
X78781Y-7619D01*
X78788Y-7573D01*
Y-8553D01*
D02*
G37*
G36*
X129316Y-7708D02*
X129275Y-7741D01*
X129239Y-7786D01*
X129208Y-7844D01*
X129182Y-7914D01*
X129160Y-7997D01*
X129143Y-8092D01*
X129131Y-8199D01*
X129121Y-8451D01*
X128621Y-8706D01*
X128619Y-8556D01*
X128600Y-8308D01*
X128583Y-8210D01*
X128561Y-8129D01*
X128535Y-8066D01*
X128503Y-8020D01*
X128467Y-7992D01*
X128426Y-7980D01*
X128380Y-7987D01*
X129361Y-7687D01*
X129316Y-7708D01*
D02*
G37*
G36*
X119483Y-8140D02*
X119439Y-8174D01*
X119399Y-8213D01*
X119364Y-8258D01*
X119334Y-8308D01*
X119308Y-8363D01*
X119287Y-8424D01*
X119271Y-8490D01*
X119259Y-8562D01*
X119252Y-8639D01*
X119250Y-8721D01*
X118750Y-8322D01*
X118748Y-8235D01*
X118735Y-8072D01*
X118723Y-7996D01*
X118708Y-7924D01*
X118689Y-7855D01*
X118667Y-7791D01*
X118641Y-7730D01*
X118612Y-7674D01*
X118580Y-7621D01*
X119483Y-8140D01*
D02*
G37*
G36*
X121012Y-9378D02*
X120966Y-9372D01*
X120925Y-9384D01*
X120889Y-9412D01*
X120857Y-9458D01*
X120831Y-9521D01*
X120809Y-9602D01*
X120792Y-9700D01*
X120780Y-9815D01*
X120770Y-10098D01*
X120270Y-9843D01*
X120268Y-9711D01*
X120249Y-9484D01*
X120232Y-9389D01*
X120210Y-9306D01*
X120184Y-9236D01*
X120153Y-9178D01*
X120117Y-9133D01*
X120076Y-9100D01*
X120030Y-9079D01*
X121012Y-9378D01*
D02*
G37*
G36*
X170000Y-6986D02*
Y-12550D01*
X169794Y-12628D01*
X169586Y-12689D01*
X169494Y-12706D01*
X149611D01*
X149390Y-12558D01*
X149000Y-12480D01*
X145000D01*
X144610Y-12558D01*
X144279Y-12779D01*
X143279Y-13779D01*
X143058Y-14110D01*
X142980Y-14500D01*
Y-22500D01*
X143058Y-22890D01*
X143279Y-23221D01*
X144279Y-24221D01*
X144610Y-24442D01*
X145000Y-24520D01*
X149000Y-24520D01*
X149390Y-24442D01*
X149721Y-24221D01*
X150721Y-23221D01*
X150942Y-22890D01*
X151020Y-22500D01*
Y-17294D01*
X169494D01*
X169586Y-17311D01*
X169794Y-17372D01*
X170000Y-17450D01*
Y-17500D01*
X172500Y-20000D01*
X172550D01*
X172628Y-20206D01*
X172689Y-20414D01*
X172706Y-20506D01*
Y-29494D01*
X172689Y-29586D01*
X172628Y-29794D01*
X172550Y-30000D01*
X143477D01*
X141508Y-29705D01*
X137775Y-25972D01*
Y-9716D01*
X137687Y-9274D01*
X137699Y-9196D01*
X137976Y-8775D01*
X158964D01*
X159527Y-9148D01*
X159684Y-9263D01*
X159786Y-9312D01*
X160149Y-9555D01*
X161000Y-9724D01*
X161851Y-9555D01*
X162211Y-9314D01*
X162311Y-9268D01*
X162639Y-9028D01*
X162887Y-8859D01*
X163028Y-8775D01*
X167000D01*
X167488Y-8677D01*
X167901Y-8401D01*
X169626Y-6677D01*
X170000Y-6986D01*
D02*
G37*
G36*
X104461Y-9734D02*
X104423Y-9707D01*
X104378Y-9694D01*
X104327Y-9694D01*
X104268Y-9709D01*
X104202Y-9737D01*
X104129Y-9779D01*
X104049Y-9835D01*
X103962Y-9905D01*
X103767Y-10087D01*
X103413Y-9733D01*
X103511Y-9632D01*
X103665Y-9451D01*
X103721Y-9371D01*
X103763Y-9298D01*
X103791Y-9232D01*
X103806Y-9173D01*
X103806Y-9122D01*
X103793Y-9077D01*
X103766Y-9039D01*
X104461Y-9734D01*
D02*
G37*
G36*
X125485Y-8980D02*
X124636Y-9829D01*
X124354Y-9546D01*
Y-8556D01*
X124707Y-8202D01*
X125485Y-8980D01*
D02*
G37*
G36*
X123646Y-8556D02*
Y-9546D01*
X123364Y-9829D01*
X122515Y-8980D01*
X123293Y-8202D01*
X123646Y-8556D01*
D02*
G37*
G36*
X127924Y-9100D02*
X127883Y-9133D01*
X127847Y-9178D01*
X127816Y-9236D01*
X127790Y-9306D01*
X127768Y-9389D01*
X127751Y-9484D01*
X127739Y-9591D01*
X127730Y-9843D01*
X127230Y-10098D01*
X127227Y-9948D01*
X127208Y-9700D01*
X127191Y-9602D01*
X127169Y-9521D01*
X127143Y-9458D01*
X127111Y-9412D01*
X127075Y-9384D01*
X127034Y-9372D01*
X126988Y-9378D01*
X127970Y-9079D01*
X127924Y-9100D01*
D02*
G37*
G36*
X84107Y-9766D02*
X84118Y-9769D01*
X84136Y-9772D01*
X84162Y-9774D01*
X84282Y-9780D01*
X84469Y-9781D01*
Y-10282D01*
X84104Y-10301D01*
Y-9762D01*
X84107Y-9766D01*
D02*
G37*
G36*
X57378Y-8825D02*
X57794Y-9174D01*
X57983Y-9304D01*
X58159Y-9405D01*
X58322Y-9477D01*
X58473Y-9518D01*
X58611Y-9531D01*
X58736Y-9514D01*
X58848Y-9467D01*
X57154Y-10445D01*
X57139Y-10404D01*
X57109Y-10350D01*
X57062Y-10282D01*
X56999Y-10201D01*
X56713Y-9878D01*
X56284Y-9436D01*
X57151Y-8607D01*
X57378Y-8825D01*
D02*
G37*
G36*
X101219Y-9587D02*
X101241Y-9628D01*
X101278Y-9664D01*
X101330Y-9695D01*
X101397Y-9721D01*
X101479Y-9743D01*
X101575Y-9760D01*
X101687Y-9772D01*
X101954Y-9781D01*
Y-10282D01*
X101813Y-10284D01*
X101575Y-10303D01*
X101479Y-10320D01*
X101397Y-10341D01*
X101330Y-10368D01*
X101278Y-10399D01*
X101241Y-10435D01*
X101219Y-10476D01*
X101212Y-10521D01*
Y-9542D01*
X101219Y-9587D01*
D02*
G37*
G36*
X125388Y-10562D02*
X125351Y-10532D01*
X125310Y-10513D01*
X125265Y-10505D01*
X125217Y-10507D01*
X125165Y-10520D01*
X125109Y-10544D01*
X125050Y-10579D01*
X124987Y-10624D01*
X124920Y-10680D01*
X124849Y-10747D01*
X124496Y-10394D01*
X124563Y-10323D01*
X124619Y-10256D01*
X124664Y-10193D01*
X124699Y-10134D01*
X124723Y-10078D01*
X124736Y-10026D01*
X124738Y-9978D01*
X124730Y-9933D01*
X124711Y-9892D01*
X124681Y-9855D01*
X125388Y-10562D01*
D02*
G37*
G36*
X79265Y-10609D02*
X79223Y-10587D01*
X79175Y-10576D01*
X79121Y-10579D01*
X79062Y-10594D01*
X78997Y-10621D01*
X78926Y-10661D01*
X78849Y-10714D01*
X78767Y-10779D01*
X78679Y-10857D01*
X78585Y-10948D01*
X78192Y-10634D01*
X78257Y-10566D01*
X78363Y-10435D01*
X78404Y-10372D01*
X78437Y-10311D01*
X78463Y-10252D01*
X78480Y-10194D01*
X78490Y-10138D01*
X78491Y-10084D01*
X78485Y-10031D01*
X79265Y-10609D01*
D02*
G37*
G36*
X113586Y-11267D02*
X113489Y-11368D01*
X113335Y-11549D01*
X113279Y-11629D01*
X113237Y-11702D01*
X113209Y-11768D01*
X113194Y-11827D01*
X113194Y-11878D01*
X113207Y-11923D01*
X113234Y-11961D01*
X112539Y-11266D01*
X112577Y-11293D01*
X112622Y-11306D01*
X112673Y-11306D01*
X112732Y-11291D01*
X112798Y-11263D01*
X112871Y-11221D01*
X112951Y-11165D01*
X113038Y-11095D01*
X113233Y-10913D01*
X113586Y-11267D01*
D02*
G37*
G36*
X122505Y-10631D02*
X122464Y-10654D01*
X122428Y-10692D01*
X122396Y-10745D01*
X122370Y-10813D01*
X122348Y-10896D01*
X122331Y-10995D01*
X122319Y-11109D01*
X122309Y-11382D01*
X121809Y-11382D01*
X121807Y-11238D01*
X121788Y-10995D01*
X121771Y-10896D01*
X121749Y-10813D01*
X121722Y-10745D01*
X121691Y-10692D01*
X121655Y-10654D01*
X121614Y-10631D01*
X121568Y-10623D01*
X122551Y-10623D01*
X122505Y-10631D01*
D02*
G37*
G36*
X101219Y-11556D02*
X101241Y-11596D01*
X101278Y-11632D01*
X101330Y-11664D01*
X101397Y-11690D01*
X101479Y-11712D01*
X101575Y-11728D01*
X101687Y-11740D01*
X101954Y-11750D01*
Y-12250D01*
X101813Y-12252D01*
X101575Y-12272D01*
X101479Y-12288D01*
X101397Y-12310D01*
X101330Y-12336D01*
X101278Y-12368D01*
X101241Y-12404D01*
X101219Y-12444D01*
X101212Y-12490D01*
Y-11510D01*
X101219Y-11556D01*
D02*
G37*
G36*
X103766Y-12500D02*
X103763Y-12453D01*
X103749Y-12410D01*
X103724Y-12372D01*
X103689Y-12340D01*
X103643Y-12313D01*
X103587Y-12290D01*
X103520Y-12273D01*
X103442Y-12260D01*
X103353Y-12252D01*
X103254Y-12250D01*
Y-11750D01*
X103358Y-11748D01*
X103451Y-11740D01*
X103533Y-11728D01*
X103605Y-11711D01*
X103666Y-11689D01*
X103717Y-11662D01*
X103756Y-11631D01*
X103785Y-11594D01*
X103803Y-11553D01*
X103811Y-11507D01*
X103766Y-12500D01*
D02*
G37*
G36*
X131879Y-11802D02*
X131820Y-11897D01*
X131769Y-11993D01*
X131724Y-12092D01*
X131686Y-12193D01*
X131655Y-12295D01*
X131631Y-12400D01*
X131614Y-12507D01*
X131603Y-12615D01*
X131600Y-12726D01*
X130400D01*
X130397Y-12615D01*
X130386Y-12507D01*
X130369Y-12400D01*
X130345Y-12295D01*
X130314Y-12193D01*
X130276Y-12092D01*
X130231Y-11993D01*
X130180Y-11897D01*
X130121Y-11802D01*
X130056Y-11709D01*
X131944D01*
X131879Y-11802D01*
D02*
G37*
G36*
X67082Y-11723D02*
X67157Y-11784D01*
X67235Y-11837D01*
X67316Y-11883D01*
X67400Y-11921D01*
X67487Y-11953D01*
X67577Y-11978D01*
X67669Y-11996D01*
X67765Y-12006D01*
X67863Y-12010D01*
X68010Y-12510D01*
X67915Y-12515D01*
X67830Y-12530D01*
X67755Y-12555D01*
X67690Y-12590D01*
X67635Y-12635D01*
X67590Y-12690D01*
X67555Y-12755D01*
X67530Y-12830D01*
X67515Y-12915D01*
X67513Y-12951D01*
X67520Y-13032D01*
X67532Y-13108D01*
X67550Y-13175D01*
X67572Y-13231D01*
X67600Y-13277D01*
X67632Y-13313D01*
X67670Y-13339D01*
X67712Y-13354D01*
X67760Y-13359D01*
X66760D01*
X66807Y-13354D01*
X66850Y-13339D01*
X66887Y-13313D01*
X66920Y-13277D01*
X66947Y-13231D01*
X66970Y-13175D01*
X66987Y-13108D01*
X67000Y-13032D01*
X67007Y-12944D01*
X67010Y-12857D01*
X67006Y-12765D01*
X66996Y-12669D01*
X66978Y-12577D01*
X66953Y-12487D01*
X66922Y-12400D01*
X66883Y-12316D01*
X66837Y-12235D01*
X66784Y-12157D01*
X66724Y-12082D01*
X66656Y-12010D01*
X67010Y-11656D01*
X67082Y-11723D01*
D02*
G37*
G36*
X76207Y-13325D02*
X76116Y-13420D01*
X75974Y-13589D01*
X75924Y-13663D01*
X75887Y-13731D01*
X75864Y-13792D01*
X75855Y-13845D01*
X75859Y-13892D01*
X75877Y-13932D01*
X75909Y-13965D01*
X75125Y-13359D01*
X75166Y-13383D01*
X75214Y-13393D01*
X75267Y-13391D01*
X75326Y-13376D01*
X75392Y-13348D01*
X75463Y-13308D01*
X75540Y-13255D01*
X75623Y-13189D01*
X75712Y-13110D01*
X75807Y-13018D01*
X76207Y-13325D01*
D02*
G37*
G36*
X110461Y-14734D02*
X110423Y-14707D01*
X110378Y-14694D01*
X110327Y-14694D01*
X110268Y-14709D01*
X110202Y-14737D01*
X110129Y-14779D01*
X110049Y-14835D01*
X109962Y-14905D01*
X109958Y-14909D01*
X109929Y-14964D01*
X109897Y-15045D01*
X109864Y-15146D01*
X109800Y-15408D01*
X109734Y-15748D01*
X109669Y-16166D01*
X108334Y-14831D01*
X108553Y-14798D01*
X109354Y-14636D01*
X109455Y-14603D01*
X109536Y-14571D01*
X109584Y-14546D01*
X109665Y-14451D01*
X109721Y-14371D01*
X109763Y-14298D01*
X109791Y-14232D01*
X109806Y-14173D01*
X109806Y-14122D01*
X109793Y-14077D01*
X109766Y-14039D01*
X110461Y-14734D01*
D02*
G37*
G36*
X73595Y-12918D02*
X73208Y-13318D01*
X72598Y-14040D01*
X72374Y-14363D01*
X72204Y-14659D01*
X72089Y-14928D01*
X72027Y-15172D01*
X72020Y-15389D01*
X72067Y-15581D01*
X72168Y-15746D01*
X70184Y-13392D01*
X70223Y-13373D01*
X70289Y-13326D01*
X70380Y-13251D01*
X70806Y-12860D01*
X71733Y-11951D01*
X73595Y-12918D01*
D02*
G37*
G36*
X131605Y-15847D02*
X131619Y-16025D01*
X131643Y-16190D01*
X131677Y-16341D01*
X131721Y-16479D01*
X131774Y-16604D01*
X131836Y-16715D01*
X131909Y-16813D01*
X131991Y-16898D01*
X132082Y-16969D01*
X129800Y-16867D01*
X129914Y-16860D01*
X130016Y-16827D01*
X130106Y-16769D01*
X130184Y-16686D01*
X130250Y-16577D01*
X130304Y-16443D01*
X130346Y-16284D01*
X130376Y-16100D01*
X130394Y-15890D01*
X130400Y-15655D01*
X131600D01*
X131605Y-15847D01*
D02*
G37*
G36*
X88297Y-5431D02*
X88369Y-5489D01*
Y-8500D01*
X88493Y-9124D01*
X88846Y-9653D01*
X94305Y-15113D01*
X94835Y-15466D01*
X94862Y-15506D01*
X94776Y-15937D01*
X94899Y-16558D01*
X95251Y-17084D01*
X95777Y-17435D01*
X96398Y-17559D01*
X100925D01*
X101546Y-17435D01*
X102072Y-17084D01*
X102424Y-16558D01*
X102547Y-15937D01*
X102424Y-15316D01*
X102413Y-15301D01*
X102465Y-15222D01*
X103066Y-15222D01*
X103151Y-15349D01*
X103627Y-15667D01*
X104188Y-15778D01*
X106094D01*
X106276Y-16000D01*
X106446Y-16851D01*
X106928Y-17572D01*
X107649Y-18055D01*
X108310Y-18186D01*
X108563Y-18612D01*
X108579Y-18710D01*
X108570Y-18725D01*
X82000D01*
X81512Y-18823D01*
X81099Y-19099D01*
X76972Y-23225D01*
X71090D01*
X70773Y-22839D01*
X70778Y-22813D01*
Y-20188D01*
X70667Y-19627D01*
X70379Y-19196D01*
X70439Y-18982D01*
X70586Y-18708D01*
X71591D01*
X72211Y-18585D01*
X72737Y-18233D01*
X73003D01*
X73529Y-18585D01*
X74150Y-18708D01*
X75331D01*
X75951Y-18585D01*
X76477Y-18233D01*
X76829Y-17707D01*
X76952Y-17087D01*
Y-14529D01*
X77042Y-14466D01*
X77454Y-14561D01*
X77627Y-14664D01*
X77820Y-14953D01*
X77577Y-15316D01*
X77453Y-15937D01*
X77577Y-16558D01*
X77928Y-17084D01*
X78454Y-17435D01*
X79075Y-17559D01*
X83602D01*
X84223Y-17435D01*
X84749Y-17084D01*
X85101Y-16558D01*
X85224Y-15937D01*
X85101Y-15316D01*
X84858Y-14953D01*
X85101Y-14589D01*
X85224Y-13969D01*
X85101Y-13348D01*
X84749Y-12822D01*
X84223Y-12470D01*
X83602Y-12347D01*
X79702D01*
X79451Y-11847D01*
X79594Y-11653D01*
X83602D01*
X84223Y-11530D01*
X84595Y-11281D01*
X84603Y-11279D01*
X84956Y-11209D01*
X85370Y-10933D01*
X86401Y-9901D01*
X86677Y-9488D01*
X86774Y-9000D01*
Y-7500D01*
X86677Y-7012D01*
X86401Y-6599D01*
X85960Y-6157D01*
X86167Y-5657D01*
X86850D01*
X87471Y-5534D01*
X87869Y-5268D01*
X88297Y-5431D01*
D02*
G37*
G36*
X66368Y-19511D02*
X66549Y-19665D01*
X66629Y-19721D01*
X66702Y-19763D01*
X66768Y-19791D01*
X66827Y-19806D01*
X66878Y-19806D01*
X66923Y-19793D01*
X66961Y-19766D01*
X66266Y-20461D01*
X66293Y-20423D01*
X66306Y-20378D01*
X66306Y-20327D01*
X66291Y-20268D01*
X66263Y-20202D01*
X66221Y-20129D01*
X66165Y-20049D01*
X66095Y-19962D01*
X65913Y-19767D01*
X66267Y-19413D01*
X66368Y-19511D01*
D02*
G37*
G36*
X172778Y-17222D02*
X177959D01*
X177634Y-17666D01*
X176865Y-18871D01*
X176677Y-19230D01*
X176523Y-19567D01*
X176404Y-19883D01*
X176318Y-20177D01*
X176267Y-20451D01*
X176250Y-20703D01*
X173750D01*
X173733Y-20451D01*
X173682Y-20177D01*
X173596Y-19883D01*
X173477Y-19567D01*
X173323Y-19230D01*
X173135Y-18871D01*
X172657Y-18089D01*
X172366Y-17666D01*
X172352Y-17648D01*
X172334Y-17634D01*
X171129Y-16865D01*
X170770Y-16677D01*
X170433Y-16523D01*
X170117Y-16404D01*
X169823Y-16318D01*
X169549Y-16267D01*
X169298Y-16250D01*
Y-13750D01*
X169549Y-13733D01*
X169823Y-13682D01*
X170117Y-13596D01*
X170433Y-13477D01*
X170770Y-13323D01*
X171129Y-13135D01*
X171911Y-12656D01*
X172334Y-12366D01*
X172778Y-12041D01*
Y-17222D01*
D02*
G37*
G36*
X54405Y-23500D02*
X54400Y-23452D01*
X54385Y-23410D01*
X54359Y-23372D01*
X54323Y-23340D01*
X54277Y-23313D01*
X54221Y-23290D01*
X54154Y-23272D01*
X54078Y-23260D01*
X53991Y-23253D01*
X53893Y-23250D01*
Y-22750D01*
X53991Y-22748D01*
X54078Y-22740D01*
X54154Y-22727D01*
X54221Y-22710D01*
X54277Y-22688D01*
X54323Y-22660D01*
X54359Y-22627D01*
X54385Y-22590D01*
X54400Y-22547D01*
X54405Y-22500D01*
Y-23500D01*
D02*
G37*
G36*
X52740Y-22547D02*
X52755Y-22590D01*
X52780Y-22627D01*
X52816Y-22660D01*
X52862Y-22688D01*
X52919Y-22710D01*
X52985Y-22727D01*
X53062Y-22740D01*
X53149Y-22748D01*
X53246Y-22750D01*
Y-23250D01*
X53149Y-23253D01*
X53062Y-23260D01*
X52985Y-23272D01*
X52919Y-23290D01*
X52862Y-23313D01*
X52816Y-23340D01*
X52780Y-23372D01*
X52755Y-23410D01*
X52740Y-23452D01*
X52734Y-23500D01*
Y-22500D01*
X52740Y-22547D01*
D02*
G37*
G36*
X43266Y-23500D02*
X43261Y-23452D01*
X43245Y-23410D01*
X43220Y-23372D01*
X43184Y-23340D01*
X43138Y-23313D01*
X43081Y-23290D01*
X43015Y-23272D01*
X42938Y-23260D01*
X42851Y-23253D01*
X42754Y-23250D01*
Y-22750D01*
X42851Y-22748D01*
X42938Y-22740D01*
X43015Y-22727D01*
X43081Y-22710D01*
X43138Y-22688D01*
X43184Y-22660D01*
X43220Y-22627D01*
X43245Y-22590D01*
X43261Y-22547D01*
X43266Y-22500D01*
Y-23500D01*
D02*
G37*
G36*
X41562Y-22547D02*
X41577Y-22590D01*
X41603Y-22627D01*
X41639Y-22660D01*
X41685Y-22688D01*
X41741Y-22710D01*
X41808Y-22727D01*
X41884Y-22740D01*
X41971Y-22748D01*
X42069Y-22750D01*
Y-23250D01*
X41971Y-23253D01*
X41884Y-23260D01*
X41808Y-23272D01*
X41741Y-23290D01*
X41685Y-23313D01*
X41639Y-23340D01*
X41603Y-23372D01*
X41577Y-23410D01*
X41562Y-23452D01*
X41557Y-23500D01*
Y-22500D01*
X41562Y-22547D01*
D02*
G37*
G36*
X150000Y-14500D02*
Y-22500D01*
X149000Y-23500D01*
X145000Y-23500D01*
X144000Y-22500D01*
Y-14500D01*
X145000Y-13500D01*
X149000D01*
X150000Y-14500D01*
D02*
G37*
G36*
X57950Y-24745D02*
X57901Y-24729D01*
X57848Y-24724D01*
X57789Y-24732D01*
X57726Y-24751D01*
X57657Y-24781D01*
X57584Y-24824D01*
X57506Y-24878D01*
X57424Y-24944D01*
X57336Y-25021D01*
X57243Y-25110D01*
X56682Y-24965D01*
X56785Y-24858D01*
X56944Y-24671D01*
X57000Y-24592D01*
X57040Y-24521D01*
X57065Y-24459D01*
X57074Y-24406D01*
X57067Y-24361D01*
X57044Y-24326D01*
X57005Y-24300D01*
X57950Y-24745D01*
D02*
G37*
G36*
X58586Y-24047D02*
X58590Y-24090D01*
X58608Y-24127D01*
X58640Y-24160D01*
X58684Y-24187D01*
X58742Y-24210D01*
X58813Y-24227D01*
X58898Y-24240D01*
X58996Y-24248D01*
X59107Y-24250D01*
X58876Y-24750D01*
X58360Y-24757D01*
X58595Y-24000D01*
X58586Y-24047D01*
D02*
G37*
G36*
X123725Y-20230D02*
Y-28761D01*
X122816Y-30000D01*
X114009D01*
X113802Y-29500D01*
X123264Y-20039D01*
X123725Y-20230D01*
D02*
G37*
G36*
X127236Y-18719D02*
Y-22756D01*
X127345Y-23300D01*
X127653Y-23761D01*
X128114Y-24069D01*
X128657Y-24177D01*
X131807D01*
X132351Y-24069D01*
X132812Y-23761D01*
X133120Y-23300D01*
X133228Y-22756D01*
X133726Y-22762D01*
Y-28761D01*
X132816Y-30000D01*
X127172D01*
X126275Y-28787D01*
Y-19028D01*
X126775Y-18528D01*
X127236Y-18719D01*
D02*
G37*
G36*
X176267Y-29549D02*
X176318Y-29822D01*
X176404Y-30117D01*
X176523Y-30433D01*
X176677Y-30770D01*
X176865Y-31129D01*
X177343Y-31911D01*
X177634Y-32334D01*
X177959Y-32778D01*
X172041D01*
X172366Y-32334D01*
X173135Y-31129D01*
X173323Y-30770D01*
X173477Y-30433D01*
X173596Y-30117D01*
X173682Y-29822D01*
X173733Y-29549D01*
X173750Y-29298D01*
X176250D01*
X176267Y-29549D01*
D02*
G37*
G36*
X135277Y-29140D02*
X135358Y-29263D01*
X137959Y-32778D01*
X132041D01*
X134750Y-29089D01*
X135250D01*
X135277Y-29140D01*
D02*
G37*
G36*
X125277D02*
X125358Y-29263D01*
X127959Y-32778D01*
X122041D01*
X124750Y-29089D01*
X125250D01*
X125277Y-29140D01*
D02*
G37*
G36*
X79357Y-30997D02*
X79339Y-31053D01*
X79310Y-31196D01*
X78663Y-35521D01*
X74479Y-31337D01*
X79003Y-30643D01*
X79357Y-30997D01*
D02*
G37*
G36*
X69357D02*
X69339Y-31053D01*
X69310Y-31196D01*
X68663Y-35521D01*
X64479Y-31337D01*
X69003Y-30643D01*
X69357Y-30997D01*
D02*
G37*
G36*
X59357D02*
X59339Y-31053D01*
X59310Y-31196D01*
X58663Y-35521D01*
X54479Y-31337D01*
X59003Y-30643D01*
X59357Y-30997D01*
D02*
G37*
G36*
X49357D02*
X49339Y-31053D01*
X49310Y-31196D01*
X48663Y-35521D01*
X44479Y-31337D01*
X49003Y-30643D01*
X49357Y-30997D01*
D02*
G37*
G36*
X39357D02*
X39339Y-31053D01*
X39310Y-31196D01*
X38663Y-35521D01*
X34479Y-31337D01*
X39003Y-30643D01*
X39357Y-30997D01*
D02*
G37*
G36*
X141052Y-30661D02*
X141196Y-30690D01*
X145521Y-31337D01*
X141337Y-35521D01*
X140643Y-30997D01*
X140997Y-30643D01*
X141052Y-30661D01*
D02*
G37*
G36*
X99357Y-30997D02*
X99339Y-31053D01*
X99310Y-31196D01*
X98663Y-35521D01*
X94479Y-31337D01*
X99003Y-30643D01*
X99357Y-30997D01*
D02*
G37*
G36*
X89357D02*
X89339Y-31053D01*
X89310Y-31196D01*
X88663Y-35521D01*
X84479Y-31337D01*
X89003Y-30643D01*
X89357Y-30997D01*
D02*
G37*
%LPC*%
G36*
X204500Y34000D02*
X195500D01*
Y26000D01*
X204500D01*
Y28216D01*
X213161D01*
X215116Y26261D01*
Y2800D01*
X215251Y2117D01*
X215638Y1538D01*
X215638Y1538D01*
X218338Y-1162D01*
X218338Y-1162D01*
X218917Y-1548D01*
X219600Y-1684D01*
X219600Y-1684D01*
X221600D01*
Y-2700D01*
X224914D01*
X224914Y-6310D01*
X224198D01*
Y-10810D01*
X224198D01*
Y-15159D01*
X223707Y-16182D01*
X223150Y-16378D01*
X222811Y-16445D01*
X222090Y-16928D01*
X221608Y-17649D01*
X221438Y-18500D01*
X221608Y-19351D01*
X222090Y-20073D01*
X222511Y-20354D01*
X222559Y-20508D01*
X222579Y-21433D01*
X222511Y-21687D01*
X222137Y-21937D01*
X221655Y-22659D01*
X221486Y-23510D01*
X221655Y-24361D01*
X222137Y-25082D01*
Y-26437D01*
X221655Y-27159D01*
X221486Y-28010D01*
X221655Y-28861D01*
X222137Y-29582D01*
X222859Y-30064D01*
X223177Y-30128D01*
X224198Y-30610D01*
X224198Y-30610D01*
X224198Y-30610D01*
X229198D01*
Y-30600D01*
X232400D01*
Y1000D01*
X235900D01*
Y2905D01*
X237100Y3659D01*
X237238Y3593D01*
Y-21885D01*
X251537D01*
Y-19770D01*
X252708Y-18819D01*
X253559Y-18650D01*
X254280Y-18168D01*
X254762Y-17446D01*
X254932Y-16595D01*
X255783Y-16091D01*
X256504Y-15609D01*
X256986Y-14887D01*
X257155Y-14036D01*
X256986Y-13185D01*
X256504Y-12464D01*
X256025Y-12144D01*
X255923Y-11648D01*
Y-11306D01*
X256025Y-10810D01*
X256504Y-10491D01*
X256986Y-9769D01*
X257155Y-8918D01*
X256986Y-8067D01*
X256504Y-7346D01*
X256025Y-7026D01*
X255923Y-6530D01*
Y-6188D01*
X256025Y-5692D01*
X256504Y-5373D01*
X256986Y-4651D01*
X257155Y-3800D01*
X256986Y-2949D01*
X256504Y-2228D01*
X256025Y-1908D01*
X255923Y-1412D01*
Y-1070D01*
X256025Y-574D01*
X256504Y-254D01*
X256986Y467D01*
X257155Y1318D01*
X256986Y2169D01*
X256504Y2891D01*
X255783Y3373D01*
X254932Y3542D01*
X254081Y3373D01*
X253359Y2891D01*
X253330Y2847D01*
X251537D01*
Y8380D01*
X252708Y9330D01*
X253559Y9500D01*
X254280Y9982D01*
X254762Y10703D01*
X254932Y11554D01*
X254762Y12405D01*
X254339Y13039D01*
X254313Y13194D01*
X254925Y14432D01*
X255002Y14463D01*
X255784Y14619D01*
X256506Y15101D01*
X256988Y15822D01*
X257157Y16673D01*
X256988Y17524D01*
X256506Y18246D01*
X255784Y18728D01*
X254932Y19231D01*
X254762Y20083D01*
X254280Y20804D01*
X253559Y21286D01*
X252708Y21455D01*
X251537Y21715D01*
Y21715D01*
X238729D01*
Y22016D01*
X238613Y22601D01*
X238281Y23097D01*
X236907Y24472D01*
X236410Y24803D01*
X236213Y25176D01*
X236737Y26504D01*
X237459Y26986D01*
X237941Y27708D01*
X238110Y28559D01*
X237941Y29410D01*
X237459Y30131D01*
X236737Y30613D01*
X236419Y30676D01*
X235398Y31159D01*
X235398Y31159D01*
X235398Y31159D01*
X230398D01*
Y30859D01*
X229198Y30859D01*
Y31159D01*
X224198D01*
Y31159D01*
X223196Y30680D01*
X222859Y30613D01*
X222137Y30131D01*
X221655Y29410D01*
X221486Y28559D01*
X221655Y27708D01*
X222137Y26986D01*
X222669Y26631D01*
X222774Y25975D01*
X222669Y25318D01*
X222137Y24963D01*
X221655Y24241D01*
X221486Y23390D01*
X221655Y22539D01*
X222137Y21818D01*
X222859Y21336D01*
X223177Y21272D01*
X224198Y20790D01*
X224198Y20790D01*
X224198Y20790D01*
X227300D01*
Y2900D01*
X221600D01*
Y1884D01*
X220339D01*
X218684Y3539D01*
Y27000D01*
X218548Y27683D01*
X218162Y28262D01*
X215162Y31262D01*
X214583Y31648D01*
X213900Y31784D01*
X204500D01*
Y34000D01*
D02*
G37*
%LPD*%
D11*
X138014Y-5000D02*
X165000D01*
X138014D02*
Y-5000D01*
X136514Y-3500D02*
X138014Y-5000D01*
X135852Y-3500D02*
X136514D01*
X133939Y-1587D02*
X135852Y-3500D01*
X63047Y2953D02*
X65300Y700D01*
Y-300D02*
Y700D01*
Y-300D02*
X66339Y-1339D01*
X64000Y-2953D02*
Y-244D01*
Y-3000D02*
Y-2953D01*
X64500Y-3500D02*
X66272D01*
X64000Y-3000D02*
X64500Y-3500D01*
X66272D02*
X67260Y-4488D01*
X66339Y-1339D02*
X72839D01*
X60079Y2953D02*
X63047D01*
X62772Y984D02*
X64000Y-244D01*
X161000Y-7500D02*
X167000D01*
X137068D02*
X161000D01*
X130943Y-4159D02*
X136500Y-9716D01*
X132335Y-2767D02*
X137068Y-7500D01*
X136500Y-26500D02*
Y-9716D01*
X129551Y-5551D02*
X135000Y-11000D01*
Y-35000D02*
Y-11000D01*
X95000Y-35000D02*
X101000Y-29000D01*
X112500D01*
X133939Y-1587D02*
X135526Y0D01*
X140000D01*
X147500Y27500D02*
X157500D01*
X139500Y19500D02*
X147500Y27500D01*
X139500Y7148D02*
Y19500D01*
X147000Y29000D02*
X149000D01*
X138000Y20000D02*
X147000Y29000D01*
X138000Y8432D02*
Y20000D01*
X108500Y-5000D02*
X111500Y-8000D01*
X108500Y-5000D02*
Y-5000D01*
Y-16000D02*
X111500Y-13000D01*
X108500Y-16000D02*
Y-16000D01*
X69528Y-12260D02*
X73724Y-8063D01*
X67260Y-12260D02*
X69528D01*
X73724Y-8063D02*
X81339D01*
X113216Y8000D02*
X115000D01*
X103500Y17716D02*
X113216Y8000D01*
X115000Y6216D02*
X117199Y4017D01*
X115000Y6216D02*
Y8000D01*
X103500Y17716D02*
Y23000D01*
X67260Y-15512D02*
Y-12260D01*
X66500Y-11500D02*
X67260Y-12260D01*
X66500Y-11500D02*
Y-8500D01*
X67260Y-7740D02*
Y-4488D01*
X66500Y-8500D02*
X67260Y-7740D01*
X85500Y-9000D02*
Y-7500D01*
X84469Y-10031D02*
X85500Y-9000D01*
X81339Y-10031D02*
X84469D01*
X84500Y-6500D02*
X85500Y-7500D01*
X75789Y-6500D02*
X84500D01*
X79147Y-10031D02*
X81339D01*
X74740Y-5451D02*
X75789Y-6500D01*
X74740Y-5451D02*
Y-4488D01*
X56000Y-500D02*
Y2500D01*
Y-500D02*
X56484Y-984D01*
X56000Y2500D02*
X56453Y2953D01*
X56484Y-984D02*
X60079D01*
X56453Y2953D02*
X60079D01*
Y-2953D02*
X64000D01*
X60079Y984D02*
X62772D01*
X40000Y-23000D02*
X45000D01*
X51000D02*
X55200D01*
X57800Y-24200D02*
Y-23950D01*
X58350Y-24500D02*
X77500D01*
X57800Y-23950D02*
X58350Y-24500D01*
X57800Y-23950D02*
Y-23000D01*
X54500Y-27500D02*
X57800Y-24200D01*
X77500Y-24500D02*
X82000Y-20000D01*
X42500Y-27500D02*
X54500D01*
X60000Y-26000D02*
X78000D01*
X57000Y-29000D02*
X60000Y-26000D01*
X51000Y-29000D02*
X57000D01*
X64500Y-18000D02*
Y-7500D01*
X63890Y-6890D02*
X64500Y-7500D01*
X60079Y-6890D02*
X63890D01*
X64500Y-18000D02*
X68000Y-21500D01*
X65421Y4921D02*
X68000Y7500D01*
X60079Y4921D02*
X65421D01*
X136500Y-26500D02*
X145000Y-35000D01*
X133939Y1587D02*
X139500Y7148D01*
X132335Y2767D02*
X138000Y8432D01*
X136500Y26500D02*
X145000Y35000D01*
X136500Y9716D02*
Y26500D01*
X130943Y4159D02*
X136500Y9716D01*
X135000Y11000D02*
Y35000D01*
X129409Y5409D02*
X135000Y11000D01*
X125000Y35000D02*
X133500Y26500D01*
Y12284D02*
Y26500D01*
X128017Y6801D02*
X133500Y12284D01*
X125023Y9977D02*
X125625D01*
X120500Y14500D02*
Y23500D01*
X115000Y29000D02*
X120500Y23500D01*
X111000Y29000D02*
X115000D01*
X117500Y12068D02*
Y22500D01*
X114000Y26000D02*
X117500Y22500D01*
X97500Y26000D02*
X114000D01*
X114500Y27500D02*
X119000Y23000D01*
X102500Y27500D02*
X114500D01*
X119000Y13352D02*
X122413Y9939D01*
X119000Y13352D02*
Y23000D01*
X117500Y12068D02*
X121374Y8193D01*
X98000Y23000D02*
X103500D01*
X95500Y25500D02*
X98000Y23000D01*
X84500Y25500D02*
X95500D01*
X103500Y23000D02*
X103500Y23000D01*
X105000Y35000D02*
X111000Y29000D01*
X96500Y27000D02*
X97500Y26000D01*
X95000Y35000D02*
X102500Y27500D01*
X93148Y22500D02*
X114061Y1587D01*
X67500Y22500D02*
X93148D01*
X93000Y27000D02*
X96500D01*
X94432Y24000D02*
X115807Y2626D01*
X76000Y24000D02*
X94432D01*
X149000Y29000D02*
X155000Y35000D01*
X157500Y27500D02*
X165000Y35000D01*
X133797Y1446D02*
X133939Y1587D01*
X126500Y12500D02*
X127500Y11500D01*
X124500Y12500D02*
X126500D01*
X122000Y15000D02*
X124500Y12500D01*
X127500Y9068D02*
Y11500D01*
X126626Y8193D02*
X127500Y9068D01*
X120500Y14500D02*
X125023Y9977D01*
X167000Y-7500D02*
X169500Y-5000D01*
X175000D01*
X85000Y35000D02*
X93000Y27000D01*
X75000Y35000D02*
X84500Y25500D01*
X55000Y35000D02*
X67500Y22500D01*
X112500Y-29000D02*
X125000Y-16500D01*
X126500Y-17000D02*
Y-15000D01*
X125000Y-18500D02*
X126500Y-17000D01*
X125000Y-35000D02*
Y-18500D01*
X126500Y-15000D02*
X128872Y-12629D01*
Y-7655D01*
X109500Y-20000D02*
X116000Y-13500D01*
X82000Y-20000D02*
X109500D01*
X110000Y-21500D02*
X117500Y-14000D01*
X82500Y-21500D02*
X110000D01*
X78000Y-26000D02*
X82500Y-21500D01*
X110500Y-23000D02*
X119000Y-14500D01*
X83000Y-23000D02*
X110500D01*
X78500Y-27500D02*
X83000Y-23000D01*
X111000Y-24500D02*
X120520Y-14980D01*
X83500Y-24500D02*
X111000D01*
X79000Y-29000D02*
X83500Y-24500D01*
X111500Y-26000D02*
X122059Y-15441D01*
X84000Y-26000D02*
X111500D01*
X75000Y-35000D02*
X84000Y-26000D01*
X123500Y-11743D02*
X125446Y-9797D01*
X112000Y-27500D02*
X123500Y-16000D01*
X92500Y-27500D02*
X112000D01*
X85000Y-35000D02*
X92500Y-27500D01*
X125000Y-14500D02*
X127480Y-12020D01*
X125000Y-16500D02*
Y-14500D01*
X123500Y-16000D02*
Y-11743D01*
X122059Y-15441D02*
Y-10292D01*
X122413Y-9939D01*
X119000Y-7784D02*
X119841Y-6943D01*
X119000Y-14500D02*
Y-7784D01*
X117500Y-6500D02*
X118449Y-5551D01*
X117500Y-14000D02*
Y-6500D01*
X114500Y-3932D02*
X115665Y-2767D01*
X114500Y-10000D02*
Y-3932D01*
X111500Y-13000D02*
X114500Y-10000D01*
X116000Y-5216D02*
X117057Y-4159D01*
X116000Y-13500D02*
Y-5216D01*
X127480Y-12020D02*
Y-9047D01*
X35000Y-35000D02*
X42500Y-27500D01*
X45000Y-35000D02*
X51000Y-29000D01*
X71000D02*
X79000D01*
X65000Y-35000D02*
X71000Y-29000D01*
X62500Y-27500D02*
X78500D01*
X55000Y-35000D02*
X62500Y-27500D01*
X112562Y-3086D02*
X114061Y-1587D01*
X112562Y-6938D02*
Y-3086D01*
X125587Y9939D02*
X125625Y9977D01*
X103469Y-10031D02*
X105500Y-8000D01*
X98661Y-10031D02*
X103469D01*
X98661Y-12000D02*
X104500D01*
X105500Y-13000D01*
X111500Y-8000D02*
X112562Y-6938D01*
X120520Y-14980D02*
Y-9047D01*
X72839Y-1339D02*
X74740Y-3240D01*
Y-4488D02*
Y-3240D01*
X120520Y-9047D02*
X121233Y-8335D01*
X126767D02*
X127480Y-9047D01*
X128159Y-6943D02*
X128872Y-7655D01*
X165000Y-5000D02*
X175000Y5000D01*
X115000Y35000D02*
X122000Y28000D01*
Y15000D02*
Y28000D01*
X65000Y35000D02*
X76000Y24000D01*
X74740Y-14439D02*
X79147Y-10031D01*
X74740Y-15512D02*
Y-14439D01*
D13*
X232898Y-23510D02*
Y-13410D01*
X244423Y-23557D02*
X244488Y-23622D01*
X244423Y-23557D02*
Y-21255D01*
Y-19125D01*
X244423Y16702D02*
X244451Y16673D01*
X254933D01*
X244423Y1348D02*
X244452Y1318D01*
X254932D01*
X244423Y-3771D02*
X244452Y-3800D01*
X254932D01*
X244423Y-8889D02*
X244452Y-8918D01*
X254932D01*
X244423Y-14007D02*
X244452Y-14036D01*
X254932D01*
X233575Y-19125D02*
X248322D01*
X248351Y-19154D01*
X254932D01*
X252693Y3892D02*
X252708Y3877D01*
X252693Y-1226D02*
X252708Y-1241D01*
X244438Y3892D02*
X252693D01*
X244423Y3907D02*
X244438Y3892D01*
X236907Y3907D02*
X244423D01*
X252693Y-6344D02*
X252708Y-6359D01*
X244438Y-16581D02*
X252693D01*
X252708Y-16595D01*
X252693Y-11462D02*
X252708Y-11477D01*
X244438Y-11462D02*
X252693D01*
X223710Y23390D02*
X226698Y23390D01*
X223710Y28559D02*
X226698D01*
X232898D02*
X235886D01*
X232898Y9090D02*
X232999D01*
X223710D02*
X226698D01*
X223710Y13590D02*
X226698D01*
X223710Y18290D02*
X226698Y18290D01*
X223662Y-18500D02*
X226650D01*
X223710Y-23510D02*
X226698Y-23510D01*
X223710Y-28010D02*
X226698Y-28010D01*
X237200Y14100D02*
Y22016D01*
X232898Y23390D02*
X235825D01*
X237200Y22016D01*
X244423Y-16566D02*
X244438Y-16581D01*
X244423Y-11448D02*
X244438Y-11462D01*
X244438Y-6344D02*
X252693D01*
X244423Y-6330D02*
X244438Y-6344D01*
X244423Y-1211D02*
X244438Y-1226D01*
X252693Y-1226D01*
X244390Y9058D02*
X244423Y9025D01*
X235919Y9058D02*
X244390D01*
X235886Y9090D02*
X236039Y8937D01*
X236039Y7422D01*
X236996Y6466D01*
X244423D01*
Y11584D02*
X244438Y11569D01*
X252693D02*
X252708Y11554D01*
X244438Y11569D02*
X252693D01*
X237200Y14100D02*
X237221Y14121D01*
X244401Y14121D01*
X244423Y14143D01*
Y19261D02*
X244438Y19246D01*
X252693D02*
X252708Y19231D01*
X244438Y19246D02*
X252693D01*
X232950Y-18500D02*
X233575Y-19125D01*
X236200Y3200D02*
X236907Y3907D01*
X232898Y-3902D02*
X233100Y-3700D01*
X232898Y-28010D02*
Y-23510D01*
Y-13410D02*
Y-8910D01*
Y-3902D01*
X66500Y20500D02*
X92000D01*
X64000Y23000D02*
X66500Y20500D01*
X57800Y23000D02*
X64000D01*
X92000Y20500D02*
X97000Y15500D01*
Y3000D02*
X100500Y-500D01*
X97000Y3000D02*
Y15500D01*
X51000Y23000D02*
X55200D01*
X40000D02*
X45000D01*
D14*
X131000Y-19232D02*
Y-11000D01*
X119800Y800D02*
Y4200D01*
X119000Y0D02*
X119800Y800D01*
X118591Y5409D02*
X119800Y4200D01*
X121500Y2500D02*
X123000Y1000D01*
X121500Y2500D02*
Y5284D01*
X119983Y6801D02*
X121500Y5284D01*
X57735Y10039D02*
X60079D01*
X57735Y-10039D02*
X60079D01*
X54500Y-6717D02*
X56632Y-8849D01*
X54500Y6735D02*
X56632Y8868D01*
X53500Y5804D02*
X57735Y10039D01*
X54500Y-6717D02*
Y6735D01*
X53500Y-5804D02*
Y5804D01*
Y-5804D02*
X57735Y-10039D01*
X56632Y-8849D02*
X60069D01*
X56632Y8868D02*
X60069D01*
X128880Y17466D02*
Y18880D01*
X130000Y20000D01*
X128880Y15050D02*
Y17466D01*
X128864Y17450D02*
X128880Y17466D01*
X125450Y17450D02*
X128864D01*
X125000Y17000D02*
X125450Y17450D01*
X128322Y14178D02*
Y14493D01*
X128880Y15050D01*
X102613Y-3387D02*
X105500Y-500D01*
X102613Y-6357D02*
Y-3387D01*
X100906Y-8063D02*
X102613Y-6357D01*
X98661Y-8063D02*
X100906D01*
X95459Y-13959D02*
X98652D01*
X90000Y-8500D02*
X95459Y-13959D01*
X90000Y-8500D02*
Y3500D01*
X98652Y-13959D02*
X98661Y-13969D01*
X130232Y-20000D02*
X131000Y-19232D01*
X114500Y12000D02*
X114784D01*
X113500D02*
X114500D01*
X114784D02*
X119983Y6801D01*
D19*
X226698Y28559D02*
D03*
X232898D02*
D03*
X226698Y23390D02*
D03*
X232898Y23390D02*
D03*
X226698Y18290D02*
D03*
X232898D02*
D03*
Y-23510D02*
D03*
X226698Y-23510D02*
D03*
X232898Y-28010D02*
D03*
X226698Y-28010D02*
D03*
Y-13410D02*
D03*
X232898Y-13410D02*
D03*
X226698Y-8910D02*
D03*
X232898D02*
D03*
X232898Y9090D02*
D03*
X226698Y9090D02*
D03*
X232898Y13590D02*
D03*
X226698D02*
D03*
D20*
X232950Y-18500D02*
D03*
X226650D02*
D03*
D21*
X225100Y100D02*
D03*
D22*
X233100Y3800D02*
D03*
Y-3700D02*
D03*
D23*
X244423Y19261D02*
D03*
X244423Y16702D02*
D03*
X244423Y14143D02*
D03*
Y11584D02*
D03*
Y9025D02*
D03*
Y6466D02*
D03*
Y3907D02*
D03*
Y1348D02*
D03*
Y-1211D02*
D03*
X244423Y-3771D02*
D03*
X244423Y-6330D02*
D03*
Y-8889D02*
D03*
Y-11448D02*
D03*
Y-14007D02*
D03*
Y-16566D02*
D03*
Y-19125D02*
D03*
D24*
X125587Y9939D02*
D03*
X133939Y1587D02*
D03*
X122413Y-9939D02*
D03*
X114061Y-1587D02*
D03*
D25*
X126626Y8193D02*
D03*
X128017Y6801D02*
D03*
X129409Y5409D02*
D03*
X130801Y4017D02*
D03*
X132193Y2626D02*
D03*
X121374Y-8193D02*
D03*
X119983Y-6801D02*
D03*
X118591Y-5409D02*
D03*
X117199Y-4017D02*
D03*
X115807Y-2626D02*
D03*
D26*
X133939Y-1587D02*
D03*
X125587Y-9939D02*
D03*
X114061Y1587D02*
D03*
X122413Y9939D02*
D03*
D27*
X132193Y-2626D02*
D03*
X130801Y-4017D02*
D03*
X129409Y-5409D02*
D03*
X128017Y-6801D02*
D03*
X126626Y-8193D02*
D03*
X115807Y2626D02*
D03*
X117199Y4017D02*
D03*
X118591Y5409D02*
D03*
X119983Y6801D02*
D03*
X121374Y8193D02*
D03*
D28*
X40000Y-23000D02*
D03*
X34000D02*
D03*
Y23000D02*
D03*
X40000D02*
D03*
D29*
X51000Y-23000D02*
D03*
X45000D02*
D03*
X51000Y23000D02*
D03*
X45000D02*
D03*
X74000Y7500D02*
D03*
X68000D02*
D03*
X68000Y-21500D02*
D03*
X74000D02*
D03*
X105500Y-13000D02*
D03*
X111500D02*
D03*
X105500Y-8000D02*
D03*
X111500D02*
D03*
X109500Y23000D02*
D03*
X103500D02*
D03*
X140000Y0D02*
D03*
X146000D02*
D03*
D30*
X57800Y-23000D02*
D03*
X55200D02*
D03*
X57800Y23000D02*
D03*
X55200D02*
D03*
D31*
X75528Y13500D02*
D03*
X66472D02*
D03*
D32*
X100500Y5500D02*
D03*
Y-500D02*
D03*
X125000Y23000D02*
D03*
Y17000D02*
D03*
X114500Y12000D02*
D03*
Y18000D02*
D03*
X105500Y5500D02*
D03*
Y-500D02*
D03*
D33*
X93000Y13500D02*
D03*
X87000D02*
D03*
X68000Y2000D02*
D03*
X74000D02*
D03*
D34*
X60079Y-13189D02*
D03*
Y-12008D02*
D03*
Y-10039D02*
D03*
Y-8858D02*
D03*
Y-6890D02*
D03*
Y-4921D02*
D03*
Y-2953D02*
D03*
Y-984D02*
D03*
Y984D02*
D03*
Y2953D02*
D03*
Y4921D02*
D03*
Y6890D02*
D03*
Y8858D02*
D03*
Y10039D02*
D03*
Y12008D02*
D03*
Y13189D02*
D03*
D35*
X81000Y13500D02*
D03*
Y7500D02*
D03*
D36*
X81339Y-8063D02*
D03*
Y-10031D02*
D03*
Y-12000D02*
D03*
Y-13969D02*
D03*
Y-15937D02*
D03*
X98661Y-8063D02*
D03*
Y-10031D02*
D03*
Y-12000D02*
D03*
Y-13969D02*
D03*
Y-15937D02*
D03*
D37*
X74740Y-15512D02*
D03*
X71000D02*
D03*
X74740Y-4488D02*
D03*
X71000D02*
D03*
X67260D02*
D03*
Y-15512D02*
D03*
D38*
X146768Y-20000D02*
D03*
X130232D02*
D03*
Y20000D02*
D03*
X146768D02*
D03*
D39*
X93740Y7658D02*
D03*
X90000D02*
D03*
X86260D02*
D03*
Y-2657D02*
D03*
X93740D02*
D03*
D67*
X232999Y3901D02*
X233100Y3800D01*
X232898Y18290D02*
X232999Y18189D01*
Y3901D02*
Y9090D01*
Y18189D01*
Y9090D02*
X235886D01*
X225100Y100D02*
X225648D01*
X226698Y-950D01*
Y-13410D02*
X226698Y-8910D01*
X226698Y-950D02*
X226698Y-8910D01*
X219600Y100D02*
X225100D01*
X200000Y30000D02*
X213900D01*
X216900Y2800D02*
Y27000D01*
X213900Y30000D02*
X216900Y27000D01*
Y2800D02*
X219600Y100D01*
D68*
X123000Y1000D02*
X125250Y-1250D01*
X108500Y17000D02*
X113500Y12000D01*
X145500Y-15000D02*
X146768D01*
Y-20000D02*
Y-15000D01*
X148500D01*
X175000Y-35000D02*
Y-15000D01*
X148500D02*
X175000D01*
X108500Y17000D02*
X109500Y18000D01*
Y23000D01*
X93740Y-2657D02*
X97000D01*
X98343D01*
X100500Y-500D01*
X79000Y2000D02*
X81000Y4000D01*
X74000Y2000D02*
X79000D01*
X81000Y4000D02*
Y7500D01*
X90000Y3500D02*
X92500D01*
X87612D02*
X90000D01*
X75528Y13500D02*
X81000D01*
X86260Y12760D02*
X87000Y13500D01*
X86260Y7658D02*
Y12760D01*
X81000Y7500D02*
X81079Y7579D01*
X86181D01*
X86260Y7658D01*
X93740Y4740D02*
Y7658D01*
X92500Y3500D02*
X93740Y4740D01*
X86260Y4853D02*
Y7658D01*
Y4853D02*
X87612Y3500D01*
X114500Y18000D02*
Y22000D01*
D69*
X71000Y-14098D02*
X74500Y-10598D01*
X71000Y-15512D02*
Y-14098D01*
X74500Y-10598D02*
Y-10500D01*
X71000Y-7500D02*
Y-4488D01*
X69000Y-9500D02*
X71000Y-7500D01*
D70*
X200000Y-20000D02*
D03*
Y20000D02*
D03*
Y10000D02*
D03*
Y0D02*
D03*
Y-10000D02*
D03*
Y-30000D02*
D03*
D71*
Y30000D02*
D03*
D72*
X35000Y35000D02*
D03*
X45000D02*
D03*
X55000D02*
D03*
X65000D02*
D03*
X75000D02*
D03*
X85000D02*
D03*
X95000D02*
D03*
X105000D02*
D03*
X115000D02*
D03*
X125000D02*
D03*
X135000D02*
D03*
X145000D02*
D03*
X155000D02*
D03*
X165000D02*
D03*
X175000D02*
D03*
X35000Y-35000D02*
D03*
X45000D02*
D03*
X55000D02*
D03*
X65000D02*
D03*
X75000D02*
D03*
X85000D02*
D03*
X95000D02*
D03*
X105000D02*
D03*
X115000D02*
D03*
X125000D02*
D03*
X135000D02*
D03*
X145000D02*
D03*
X155000D02*
D03*
X165000D02*
D03*
X175000D02*
D03*
Y15000D02*
D03*
Y5000D02*
D03*
Y-5000D02*
D03*
Y-15000D02*
D03*
D73*
X54016Y11378D02*
D03*
Y-11378D02*
D03*
D74*
X40236Y17028D02*
D03*
Y-17028D02*
D03*
D75*
X55984D02*
D03*
Y17028D02*
D03*
D76*
X254932Y1318D02*
D03*
X252708Y3877D02*
D03*
X252708Y-1241D02*
D03*
X254932Y-3800D02*
D03*
X252708Y-6359D02*
D03*
Y-16595D02*
D03*
Y-11477D02*
D03*
X254932Y-19154D02*
D03*
Y-14036D02*
D03*
X138014Y-5000D02*
D03*
X254932Y-8918D02*
D03*
X223710Y23390D02*
D03*
X223710Y28559D02*
D03*
X235886D02*
D03*
Y9090D02*
D03*
X223710D02*
D03*
Y13590D02*
D03*
Y18290D02*
D03*
X223662Y-18500D02*
D03*
X223710Y-23510D02*
D03*
Y-28010D02*
D03*
X237200Y14100D02*
D03*
X252708Y11554D02*
D03*
X254933Y16673D02*
D03*
X252708Y19231D02*
D03*
X211200Y-34500D02*
D03*
X213100Y-24000D02*
D03*
X216900Y-18000D02*
D03*
X223100Y-34500D02*
D03*
X235000D02*
D03*
X246900D02*
D03*
X258800D02*
D03*
X270700Y-34500D02*
D03*
X278200D02*
D03*
Y-22600D02*
D03*
X275700Y-13700D02*
D03*
Y-1800D02*
D03*
Y10100D02*
D03*
Y22000D02*
D03*
X279500Y34500D02*
D03*
X267600Y34500D02*
D03*
X255700D02*
D03*
X243800D02*
D03*
X231900D02*
D03*
X220000D02*
D03*
X208100D02*
D03*
X214000Y12600D02*
D03*
X213400Y21500D02*
D03*
X208100Y22600D02*
D03*
Y10700D02*
D03*
X145000Y5000D02*
D03*
X125250Y-1250D02*
D03*
X161000Y-7500D02*
D03*
X87500Y-12500D02*
D03*
X103500Y-17500D02*
D03*
X62500Y17500D02*
D03*
Y-20000D02*
D03*
X131000Y-11000D02*
D03*
X110000Y0D02*
D03*
X77500Y-20000D02*
D03*
X170000Y20000D02*
D03*
X155000D02*
D03*
X170000Y10000D02*
D03*
X155000D02*
D03*
X47500Y-7500D02*
D03*
Y0D02*
D03*
Y7500D02*
D03*
X40000Y-7500D02*
D03*
Y0D02*
D03*
Y7500D02*
D03*
X130000Y-27500D02*
D03*
X120000D02*
D03*
X168500Y-10000D02*
D03*
X155000D02*
D03*
X142000D02*
D03*
X140000Y-24500D02*
D03*
X168500Y-18500D02*
D03*
X155000Y-23000D02*
D03*
X82500Y-2000D02*
D03*
X79000Y2000D02*
D03*
X81000Y4000D02*
D03*
X123000Y1000D02*
D03*
X145500Y-15000D02*
D03*
X97000Y500D02*
D03*
X111000Y14500D02*
D03*
X130000Y26000D02*
D03*
X100500Y10500D02*
D03*
X148500Y-15000D02*
D03*
X108500Y17000D02*
D03*
X97000Y-2657D02*
D03*
X108500Y-5000D02*
D03*
Y-16000D02*
D03*
X74500Y-10500D02*
D03*
X115000Y8000D02*
D03*
X128322Y14178D02*
D03*
X69000Y-9500D02*
D03*
X84000Y17500D02*
D03*
X87500D02*
D03*
X91000D02*
D03*
X90000Y-15000D02*
D03*
X129000Y0D02*
D03*
X124000Y-5000D02*
D03*
X119000Y0D02*
D03*
X124000Y5000D02*
D03*
X114500Y22000D02*
D03*
X165000Y-5000D02*
D03*
M02*
