G04*
G04 #@! TF.GenerationSoftware,Altium Limited,Altium Designer,19.1.5 (86)*
G04*
G04 Layer_Color=32896*
%FSLAX25Y25*%
%MOIN*%
G70*
G01*
G75*
%ADD11C,0.00500*%
%ADD13C,0.01000*%
%ADD15C,0.00800*%
%ADD17C,0.00600*%
G36*
X138000Y5330D02*
Y-5300D01*
X72000D01*
Y5330D01*
X138000D01*
D02*
G37*
G36*
X252175Y19952D02*
X252138Y19882D01*
X252097Y19817D01*
X252060Y19755D01*
X252023Y19702D01*
X251994Y19661D01*
X251986Y19644D01*
X251978Y19632D01*
X251970Y19628D01*
Y19624D01*
X251908Y19546D01*
X251851Y19476D01*
X251798Y19415D01*
X251752Y19366D01*
X251712Y19325D01*
X251683Y19296D01*
X251662Y19275D01*
X251654Y19271D01*
X254573D01*
Y18898D01*
X250826D01*
Y19144D01*
X250920Y19185D01*
X251010Y19234D01*
X251097Y19292D01*
X251170Y19345D01*
X251240Y19394D01*
X251265Y19419D01*
X251289Y19439D01*
X251310Y19452D01*
X251322Y19464D01*
X251330Y19472D01*
X251334Y19476D01*
X251429Y19567D01*
X251511Y19661D01*
X251584Y19755D01*
X251650Y19837D01*
X251699Y19911D01*
X251720Y19944D01*
X251736Y19968D01*
X251752Y19993D01*
X251761Y20009D01*
X251765Y20018D01*
X251769Y20022D01*
X252208D01*
X252175Y19952D01*
D02*
G37*
G36*
X251941Y-16338D02*
X251905Y-16408D01*
X251864Y-16474D01*
X251827Y-16535D01*
X251790Y-16588D01*
X251761Y-16629D01*
X251753Y-16646D01*
X251745Y-16658D01*
X251736Y-16662D01*
Y-16666D01*
X251675Y-16744D01*
X251618Y-16814D01*
X251564Y-16875D01*
X251519Y-16925D01*
X251478Y-16965D01*
X251449Y-16994D01*
X251429Y-17015D01*
X251421Y-17019D01*
X254340D01*
Y-17392D01*
X250592D01*
Y-17146D01*
X250687Y-17105D01*
X250777Y-17056D01*
X250863Y-16998D01*
X250937Y-16945D01*
X251007Y-16896D01*
X251031Y-16871D01*
X251056Y-16851D01*
X251076Y-16838D01*
X251089Y-16826D01*
X251097Y-16818D01*
X251101Y-16814D01*
X251195Y-16724D01*
X251277Y-16629D01*
X251351Y-16535D01*
X251417Y-16453D01*
X251466Y-16379D01*
X251486Y-16346D01*
X251503Y-16322D01*
X251519Y-16297D01*
X251527Y-16281D01*
X251531Y-16273D01*
X251536Y-16269D01*
X251974D01*
X251941Y-16338D01*
D02*
G37*
G36*
X252770Y-18343D02*
X252934Y-18351D01*
X253085Y-18368D01*
X253221Y-18384D01*
X253348Y-18409D01*
X253463Y-18433D01*
X253565Y-18462D01*
X253655Y-18491D01*
X253737Y-18515D01*
X253803Y-18544D01*
X253860Y-18569D01*
X253905Y-18593D01*
X253942Y-18610D01*
X253967Y-18626D01*
X253983Y-18634D01*
X253987Y-18638D01*
X254061Y-18696D01*
X254123Y-18757D01*
X254180Y-18819D01*
X254225Y-18884D01*
X254266Y-18950D01*
X254299Y-19011D01*
X254328Y-19073D01*
X254348Y-19130D01*
X254369Y-19188D01*
X254381Y-19237D01*
X254389Y-19286D01*
X254393Y-19323D01*
X254397Y-19356D01*
X254401Y-19380D01*
Y-19401D01*
X254393Y-19495D01*
X254377Y-19585D01*
X254356Y-19663D01*
X254328Y-19733D01*
X254303Y-19790D01*
X254278Y-19836D01*
X254270Y-19852D01*
X254262Y-19864D01*
X254258Y-19868D01*
Y-19872D01*
X254196Y-19950D01*
X254127Y-20016D01*
X254053Y-20077D01*
X253979Y-20127D01*
X253913Y-20168D01*
X253885Y-20184D01*
X253860Y-20196D01*
X253840Y-20209D01*
X253823Y-20217D01*
X253815Y-20221D01*
X253811D01*
X253692Y-20266D01*
X253573Y-20303D01*
X253458Y-20327D01*
X253356Y-20344D01*
X253307Y-20348D01*
X253266Y-20352D01*
X253225Y-20356D01*
X253192Y-20360D01*
X253167D01*
X253147D01*
X253134D01*
X253130D01*
X253028Y-20356D01*
X252934Y-20348D01*
X252843Y-20336D01*
X252757Y-20319D01*
X252679Y-20295D01*
X252610Y-20274D01*
X252540Y-20250D01*
X252483Y-20225D01*
X252429Y-20196D01*
X252380Y-20172D01*
X252343Y-20151D01*
X252310Y-20131D01*
X252282Y-20110D01*
X252265Y-20098D01*
X252253Y-20090D01*
X252249Y-20086D01*
X252191Y-20032D01*
X252138Y-19979D01*
X252093Y-19926D01*
X252056Y-19872D01*
X252023Y-19819D01*
X251999Y-19766D01*
X251974Y-19717D01*
X251958Y-19667D01*
X251945Y-19622D01*
X251933Y-19581D01*
X251925Y-19544D01*
X251921Y-19516D01*
Y-19491D01*
X251917Y-19471D01*
Y-19454D01*
X251921Y-19372D01*
X251937Y-19294D01*
X251958Y-19225D01*
X251978Y-19163D01*
X252003Y-19110D01*
X252023Y-19069D01*
X252032Y-19057D01*
X252040Y-19044D01*
X252044Y-19040D01*
Y-19036D01*
X252097Y-18966D01*
X252155Y-18905D01*
X252216Y-18847D01*
X252278Y-18802D01*
X252331Y-18765D01*
X252376Y-18737D01*
X252392Y-18724D01*
X252405Y-18716D01*
X252413Y-18712D01*
X252417Y-18712D01*
X252413D01*
X252413Y-18712D01*
X252290Y-18716D01*
X252175Y-18720D01*
X252064Y-18729D01*
X251966Y-18741D01*
X251872Y-18753D01*
X251786Y-18769D01*
X251708Y-18786D01*
X251638Y-18798D01*
X251581Y-18815D01*
X251527Y-18831D01*
X251482Y-18843D01*
X251445Y-18860D01*
X251417Y-18868D01*
X251396Y-18876D01*
X251384Y-18884D01*
X251380D01*
X251306Y-18921D01*
X251244Y-18962D01*
X251191Y-19007D01*
X251142Y-19048D01*
X251101Y-19093D01*
X251068Y-19139D01*
X251044Y-19180D01*
X251019Y-19220D01*
X251003Y-19257D01*
X250990Y-19294D01*
X250982Y-19327D01*
X250978Y-19356D01*
X250974Y-19376D01*
X250970Y-19397D01*
Y-19450D01*
X250978Y-19487D01*
X250998Y-19557D01*
X251027Y-19618D01*
X251060Y-19671D01*
X251093Y-19713D01*
X251121Y-19745D01*
X251142Y-19762D01*
X251146Y-19770D01*
X251150D01*
X251203Y-19807D01*
X251265Y-19840D01*
X251330Y-19868D01*
X251400Y-19889D01*
X251462Y-19909D01*
X251511Y-19922D01*
X251527Y-19926D01*
X251544D01*
X251552Y-19930D01*
X251556D01*
X251519Y-20303D01*
X251437Y-20291D01*
X251359Y-20274D01*
X251290Y-20258D01*
X251220Y-20233D01*
X251158Y-20213D01*
X251101Y-20188D01*
X251052Y-20164D01*
X251007Y-20139D01*
X250966Y-20114D01*
X250929Y-20090D01*
X250900Y-20069D01*
X250875Y-20049D01*
X250855Y-20032D01*
X250843Y-20024D01*
X250834Y-20016D01*
X250830Y-20012D01*
X250789Y-19967D01*
X250752Y-19922D01*
X250720Y-19872D01*
X250691Y-19823D01*
X250670Y-19774D01*
X250650Y-19725D01*
X250621Y-19635D01*
X250605Y-19557D01*
X250601Y-19520D01*
X250597Y-19491D01*
X250592Y-19466D01*
Y-19434D01*
X250597Y-19343D01*
X250613Y-19262D01*
X250634Y-19180D01*
X250666Y-19106D01*
X250699Y-19036D01*
X250740Y-18970D01*
X250781Y-18913D01*
X250822Y-18856D01*
X250867Y-18806D01*
X250908Y-18765D01*
X250949Y-18729D01*
X250982Y-18700D01*
X251015Y-18675D01*
X251035Y-18655D01*
X251052Y-18646D01*
X251056Y-18642D01*
X251150Y-18589D01*
X251253Y-18544D01*
X251367Y-18503D01*
X251490Y-18466D01*
X251618Y-18437D01*
X251745Y-18413D01*
X251872Y-18392D01*
X251995Y-18376D01*
X252118Y-18364D01*
X252228Y-18355D01*
X252331Y-18347D01*
X252417Y-18343D01*
X252458D01*
X252491D01*
X252519Y-18339D01*
X252544D01*
X252565D01*
X252581D01*
X252589D01*
X252593D01*
X252770Y-18343D01*
D02*
G37*
G36*
X208849Y32593D02*
Y32239D01*
X205688Y31229D01*
Y31576D01*
X207985Y32277D01*
X208082Y32305D01*
X208172Y32332D01*
X208263Y32357D01*
X208339Y32377D01*
X208374Y32384D01*
X208405Y32391D01*
X208433Y32398D01*
X208457Y32405D01*
X208478Y32409D01*
X208492Y32412D01*
X208499Y32416D01*
X208502D01*
X208408Y32440D01*
X208315Y32461D01*
X208228Y32485D01*
X208148Y32506D01*
X208114Y32516D01*
X208082Y32523D01*
X208055Y32530D01*
X208030Y32537D01*
X208013Y32544D01*
X207996Y32547D01*
X207989Y32551D01*
X207985D01*
X205688Y33224D01*
Y33595D01*
X208849Y32593D01*
D02*
G37*
G36*
X207343Y31021D02*
X207437Y31017D01*
X207527Y31010D01*
X207614Y31000D01*
X207694Y30986D01*
X207770Y30972D01*
X207839Y30958D01*
X207905Y30944D01*
X207964Y30930D01*
X208013Y30917D01*
X208058Y30903D01*
X208096Y30889D01*
X208127Y30878D01*
X208148Y30871D01*
X208162Y30865D01*
X208166D01*
X208235Y30833D01*
X208301Y30799D01*
X208360Y30764D01*
X208415Y30729D01*
X208468Y30694D01*
X208513Y30660D01*
X208554Y30628D01*
X208592Y30594D01*
X208624Y30566D01*
X208651Y30538D01*
X208676Y30511D01*
X208693Y30490D01*
X208710Y30472D01*
X208721Y30459D01*
X208724Y30452D01*
X208728Y30448D01*
X208759Y30400D01*
X208783Y30347D01*
X208807Y30295D01*
X208828Y30243D01*
X208860Y30139D01*
X208880Y30042D01*
X208887Y29997D01*
X208891Y29959D01*
X208894Y29921D01*
X208898Y29889D01*
X208901Y29865D01*
Y29830D01*
X208898Y29754D01*
X208891Y29681D01*
X208877Y29615D01*
X208860Y29549D01*
X208842Y29487D01*
X208818Y29431D01*
X208794Y29379D01*
X208769Y29331D01*
X208745Y29286D01*
X208724Y29247D01*
X208700Y29216D01*
X208683Y29188D01*
X208665Y29164D01*
X208651Y29150D01*
X208645Y29140D01*
X208641Y29136D01*
X208589Y29084D01*
X208530Y29036D01*
X208471Y28991D01*
X208405Y28953D01*
X208339Y28914D01*
X208273Y28883D01*
X208207Y28852D01*
X208141Y28828D01*
X208082Y28803D01*
X208027Y28786D01*
X207975Y28769D01*
X207930Y28755D01*
X207895Y28748D01*
X207867Y28741D01*
X207850Y28734D01*
X207843D01*
X207739Y29077D01*
X207812Y29091D01*
X207881Y29109D01*
X207947Y29129D01*
X208006Y29150D01*
X208058Y29171D01*
X208110Y29195D01*
X208155Y29216D01*
X208193Y29241D01*
X208231Y29261D01*
X208259Y29282D01*
X208287Y29303D01*
X208308Y29317D01*
X208325Y29331D01*
X208336Y29341D01*
X208343Y29348D01*
X208346Y29352D01*
X208381Y29390D01*
X208412Y29431D01*
X208436Y29473D01*
X208460Y29515D01*
X208478Y29556D01*
X208495Y29594D01*
X208520Y29671D01*
X208533Y29737D01*
X208537Y29765D01*
X208540Y29789D01*
X208544Y29810D01*
Y29837D01*
X208540Y29907D01*
X208530Y29973D01*
X208513Y30035D01*
X208492Y30091D01*
X208468Y30146D01*
X208443Y30195D01*
X208412Y30240D01*
X208381Y30281D01*
X208353Y30320D01*
X208322Y30351D01*
X208297Y30379D01*
X208270Y30403D01*
X208252Y30420D01*
X208235Y30434D01*
X208225Y30441D01*
X208221Y30445D01*
X208155Y30483D01*
X208086Y30518D01*
X208009Y30549D01*
X207930Y30577D01*
X207850Y30597D01*
X207770Y30615D01*
X207690Y30628D01*
X207610Y30642D01*
X207538Y30653D01*
X207468Y30660D01*
X207406Y30663D01*
X207354Y30667D01*
X207309Y30670D01*
X207274D01*
X207253D01*
X207249D01*
X207246D01*
X207166D01*
X207093Y30667D01*
X207020Y30660D01*
X206955Y30653D01*
X206892Y30646D01*
X206833Y30635D01*
X206781Y30625D01*
X206733Y30615D01*
X206687Y30604D01*
X206649Y30594D01*
X206618Y30583D01*
X206590Y30577D01*
X206566Y30569D01*
X206552Y30563D01*
X206542Y30559D01*
X206538D01*
X206486Y30538D01*
X206441Y30514D01*
X206354Y30462D01*
X206285Y30413D01*
X206226Y30365D01*
X206181Y30323D01*
X206150Y30288D01*
X206139Y30275D01*
X206132Y30264D01*
X206125Y30261D01*
Y30257D01*
X206080Y30184D01*
X206045Y30105D01*
X206021Y30032D01*
X206007Y29959D01*
X205997Y29900D01*
X205993Y29872D01*
Y29851D01*
X205990Y29830D01*
Y29806D01*
X205993Y29758D01*
X205997Y29713D01*
X206018Y29626D01*
X206052Y29549D01*
X206094Y29476D01*
X206143Y29414D01*
X206198Y29359D01*
X206257Y29307D01*
X206319Y29265D01*
X206382Y29227D01*
X206441Y29195D01*
X206497Y29168D01*
X206545Y29147D01*
X206587Y29133D01*
X206621Y29119D01*
X206642Y29116D01*
X206646Y29112D01*
X206649D01*
X206552Y28776D01*
X206469Y28796D01*
X206392Y28824D01*
X206323Y28852D01*
X206254Y28883D01*
X206195Y28914D01*
X206139Y28946D01*
X206087Y28977D01*
X206042Y29008D01*
X206000Y29039D01*
X205966Y29067D01*
X205934Y29091D01*
X205910Y29112D01*
X205893Y29133D01*
X205879Y29147D01*
X205872Y29154D01*
X205868Y29157D01*
X205827Y29209D01*
X205792Y29261D01*
X205757Y29317D01*
X205733Y29369D01*
X205709Y29425D01*
X205692Y29476D01*
X205660Y29577D01*
X205653Y29626D01*
X205646Y29667D01*
X205639Y29706D01*
X205636Y29737D01*
X205632Y29761D01*
Y29799D01*
X205636Y29862D01*
X205639Y29924D01*
X205660Y30042D01*
X205692Y30146D01*
X205709Y30195D01*
X205726Y30240D01*
X205744Y30281D01*
X205761Y30316D01*
X205775Y30347D01*
X205792Y30375D01*
X205802Y30396D01*
X205813Y30410D01*
X205816Y30420D01*
X205820Y30424D01*
X205855Y30476D01*
X205896Y30521D01*
X205983Y30611D01*
X206073Y30684D01*
X206160Y30746D01*
X206202Y30774D01*
X206240Y30799D01*
X206274Y30819D01*
X206306Y30833D01*
X206330Y30847D01*
X206347Y30858D01*
X206361Y30861D01*
X206365Y30865D01*
X206434Y30892D01*
X206507Y30917D01*
X206656Y30958D01*
X206802Y30986D01*
X206871Y30996D01*
X206941Y31003D01*
X207003Y31010D01*
X207062Y31017D01*
X207114Y31021D01*
X207159D01*
X207194Y31024D01*
X207222D01*
X207239D01*
X207246D01*
X207343Y31021D01*
D02*
G37*
G36*
Y28408D02*
X207437Y28404D01*
X207527Y28397D01*
X207614Y28387D01*
X207694Y28373D01*
X207770Y28359D01*
X207839Y28345D01*
X207905Y28331D01*
X207964Y28317D01*
X208013Y28304D01*
X208058Y28290D01*
X208096Y28276D01*
X208127Y28266D01*
X208148Y28258D01*
X208162Y28252D01*
X208166D01*
X208235Y28220D01*
X208301Y28186D01*
X208360Y28151D01*
X208415Y28116D01*
X208468Y28082D01*
X208513Y28047D01*
X208554Y28016D01*
X208592Y27981D01*
X208624Y27953D01*
X208651Y27925D01*
X208676Y27898D01*
X208693Y27877D01*
X208710Y27860D01*
X208721Y27846D01*
X208724Y27839D01*
X208728Y27835D01*
X208759Y27787D01*
X208783Y27735D01*
X208807Y27683D01*
X208828Y27630D01*
X208860Y27526D01*
X208880Y27429D01*
X208887Y27384D01*
X208891Y27346D01*
X208894Y27308D01*
X208898Y27277D01*
X208901Y27252D01*
Y27218D01*
X208898Y27141D01*
X208891Y27068D01*
X208877Y27002D01*
X208860Y26937D01*
X208842Y26874D01*
X208818Y26818D01*
X208794Y26766D01*
X208769Y26718D01*
X208745Y26673D01*
X208724Y26635D01*
X208700Y26603D01*
X208683Y26576D01*
X208665Y26551D01*
X208651Y26537D01*
X208645Y26527D01*
X208641Y26524D01*
X208589Y26471D01*
X208530Y26423D01*
X208471Y26378D01*
X208405Y26340D01*
X208339Y26301D01*
X208273Y26270D01*
X208207Y26239D01*
X208141Y26215D01*
X208082Y26190D01*
X208027Y26173D01*
X207975Y26156D01*
X207930Y26142D01*
X207895Y26135D01*
X207867Y26128D01*
X207850Y26121D01*
X207843D01*
X207739Y26465D01*
X207812Y26478D01*
X207881Y26496D01*
X207947Y26517D01*
X208006Y26537D01*
X208058Y26558D01*
X208110Y26583D01*
X208155Y26603D01*
X208193Y26628D01*
X208231Y26649D01*
X208259Y26669D01*
X208287Y26690D01*
X208308Y26704D01*
X208325Y26718D01*
X208336Y26728D01*
X208343Y26735D01*
X208346Y26739D01*
X208381Y26777D01*
X208412Y26818D01*
X208436Y26860D01*
X208460Y26902D01*
X208478Y26943D01*
X208495Y26982D01*
X208520Y27058D01*
X208533Y27124D01*
X208537Y27152D01*
X208540Y27176D01*
X208544Y27197D01*
Y27224D01*
X208540Y27294D01*
X208530Y27360D01*
X208513Y27422D01*
X208492Y27478D01*
X208468Y27533D01*
X208443Y27582D01*
X208412Y27627D01*
X208381Y27669D01*
X208353Y27707D01*
X208322Y27738D01*
X208297Y27766D01*
X208270Y27790D01*
X208252Y27807D01*
X208235Y27821D01*
X208225Y27828D01*
X208221Y27832D01*
X208155Y27870D01*
X208086Y27905D01*
X208009Y27936D01*
X207930Y27964D01*
X207850Y27984D01*
X207770Y28002D01*
X207690Y28016D01*
X207610Y28030D01*
X207538Y28040D01*
X207468Y28047D01*
X207406Y28050D01*
X207354Y28054D01*
X207309Y28057D01*
X207274D01*
X207253D01*
X207249D01*
X207246D01*
X207166D01*
X207093Y28054D01*
X207020Y28047D01*
X206955Y28040D01*
X206892Y28033D01*
X206833Y28023D01*
X206781Y28012D01*
X206733Y28002D01*
X206687Y27991D01*
X206649Y27981D01*
X206618Y27970D01*
X206590Y27964D01*
X206566Y27957D01*
X206552Y27950D01*
X206542Y27946D01*
X206538D01*
X206486Y27925D01*
X206441Y27901D01*
X206354Y27849D01*
X206285Y27801D01*
X206226Y27752D01*
X206181Y27710D01*
X206150Y27676D01*
X206139Y27662D01*
X206132Y27651D01*
X206125Y27648D01*
Y27644D01*
X206080Y27571D01*
X206045Y27492D01*
X206021Y27419D01*
X206007Y27346D01*
X205997Y27287D01*
X205993Y27259D01*
Y27238D01*
X205990Y27218D01*
Y27193D01*
X205993Y27145D01*
X205997Y27099D01*
X206018Y27013D01*
X206052Y26937D01*
X206094Y26864D01*
X206143Y26801D01*
X206198Y26746D01*
X206257Y26694D01*
X206319Y26652D01*
X206382Y26614D01*
X206441Y26583D01*
X206497Y26555D01*
X206545Y26534D01*
X206587Y26520D01*
X206621Y26506D01*
X206642Y26503D01*
X206646Y26499D01*
X206649D01*
X206552Y26163D01*
X206469Y26184D01*
X206392Y26211D01*
X206323Y26239D01*
X206254Y26270D01*
X206195Y26301D01*
X206139Y26333D01*
X206087Y26364D01*
X206042Y26395D01*
X206000Y26426D01*
X205966Y26454D01*
X205934Y26478D01*
X205910Y26499D01*
X205893Y26520D01*
X205879Y26534D01*
X205872Y26541D01*
X205868Y26544D01*
X205827Y26596D01*
X205792Y26649D01*
X205757Y26704D01*
X205733Y26756D01*
X205709Y26812D01*
X205692Y26864D01*
X205660Y26964D01*
X205653Y27013D01*
X205646Y27054D01*
X205639Y27093D01*
X205636Y27124D01*
X205632Y27148D01*
Y27186D01*
X205636Y27249D01*
X205639Y27311D01*
X205660Y27429D01*
X205692Y27533D01*
X205709Y27582D01*
X205726Y27627D01*
X205744Y27669D01*
X205761Y27703D01*
X205775Y27735D01*
X205792Y27762D01*
X205802Y27783D01*
X205813Y27797D01*
X205816Y27807D01*
X205820Y27811D01*
X205855Y27863D01*
X205896Y27908D01*
X205983Y27998D01*
X206073Y28071D01*
X206160Y28134D01*
X206202Y28161D01*
X206240Y28186D01*
X206274Y28207D01*
X206306Y28220D01*
X206330Y28234D01*
X206347Y28245D01*
X206361Y28248D01*
X206365Y28252D01*
X206434Y28279D01*
X206507Y28304D01*
X206656Y28345D01*
X206802Y28373D01*
X206871Y28383D01*
X206941Y28390D01*
X207003Y28397D01*
X207062Y28404D01*
X207114Y28408D01*
X207159D01*
X207194Y28411D01*
X207222D01*
X207239D01*
X207246D01*
X207343Y28408D01*
D02*
G37*
G36*
X207378Y24096D02*
X207468Y24093D01*
X207555Y24083D01*
X207635Y24072D01*
X207715Y24058D01*
X207784Y24045D01*
X207853Y24031D01*
X207912Y24013D01*
X207968Y23996D01*
X208016Y23982D01*
X208058Y23968D01*
X208093Y23954D01*
X208120Y23944D01*
X208141Y23933D01*
X208155Y23930D01*
X208159Y23926D01*
X208225Y23892D01*
X208287Y23857D01*
X208346Y23819D01*
X208398Y23781D01*
X208450Y23743D01*
X208495Y23701D01*
X208537Y23663D01*
X208572Y23628D01*
X208606Y23593D01*
X208634Y23559D01*
X208658Y23531D01*
X208679Y23507D01*
X208693Y23486D01*
X208703Y23472D01*
X208710Y23461D01*
X208714Y23458D01*
X208745Y23403D01*
X208776Y23344D01*
X208801Y23284D01*
X208821Y23226D01*
X208856Y23111D01*
X208867Y23059D01*
X208877Y23007D01*
X208884Y22962D01*
X208891Y22917D01*
X208894Y22879D01*
X208898Y22844D01*
X208901Y22820D01*
Y22781D01*
X208894Y22677D01*
X208880Y22573D01*
X208863Y22479D01*
X208839Y22396D01*
X208828Y22362D01*
X208818Y22327D01*
X208807Y22299D01*
X208797Y22271D01*
X208790Y22254D01*
X208783Y22237D01*
X208780Y22230D01*
Y22226D01*
X208728Y22126D01*
X208669Y22028D01*
X208606Y21942D01*
X208547Y21862D01*
X208520Y21827D01*
X208492Y21796D01*
X208471Y21768D01*
X208450Y21747D01*
X208433Y21726D01*
X208419Y21713D01*
X208412Y21706D01*
X208408Y21702D01*
X207232D01*
X207236Y22799D01*
X207607D01*
Y22039D01*
X208197D01*
X208245Y22091D01*
X208291Y22146D01*
X208329Y22202D01*
X208363Y22257D01*
X208391Y22306D01*
X208412Y22344D01*
X208419Y22358D01*
X208426Y22368D01*
X208429Y22375D01*
Y22379D01*
X208460Y22459D01*
X208485Y22532D01*
X208499Y22601D01*
X208513Y22663D01*
X208520Y22715D01*
Y22740D01*
X208523Y22757D01*
Y22792D01*
X208520Y22868D01*
X208509Y22944D01*
X208495Y23014D01*
X208474Y23080D01*
X208450Y23142D01*
X208422Y23198D01*
X208395Y23250D01*
X208363Y23298D01*
X208336Y23340D01*
X208308Y23375D01*
X208280Y23410D01*
X208256Y23434D01*
X208235Y23455D01*
X208221Y23469D01*
X208211Y23479D01*
X208207Y23482D01*
X208145Y23527D01*
X208075Y23569D01*
X208002Y23604D01*
X207926Y23635D01*
X207846Y23659D01*
X207770Y23680D01*
X207690Y23697D01*
X207614Y23711D01*
X207544Y23725D01*
X207475Y23732D01*
X207416Y23739D01*
X207364Y23743D01*
X207319D01*
X207288Y23746D01*
X207267D01*
X207260D01*
X207184D01*
X207111Y23739D01*
X207041Y23736D01*
X206975Y23725D01*
X206913Y23718D01*
X206854Y23708D01*
X206802Y23697D01*
X206750Y23684D01*
X206708Y23673D01*
X206670Y23663D01*
X206635Y23652D01*
X206608Y23642D01*
X206583Y23635D01*
X206569Y23628D01*
X206559Y23625D01*
X206556D01*
X206504Y23600D01*
X206455Y23576D01*
X206406Y23548D01*
X206365Y23520D01*
X206327Y23493D01*
X206292Y23465D01*
X206261Y23441D01*
X206233Y23413D01*
X206188Y23368D01*
X206153Y23333D01*
X206143Y23319D01*
X206136Y23309D01*
X206129Y23302D01*
Y23298D01*
X206084Y23219D01*
X206049Y23135D01*
X206025Y23052D01*
X206007Y22976D01*
X205997Y22910D01*
X205993Y22882D01*
Y22858D01*
X205990Y22837D01*
Y22809D01*
X205993Y22740D01*
X206000Y22674D01*
X206014Y22615D01*
X206028Y22563D01*
X206042Y22521D01*
X206056Y22490D01*
X206063Y22469D01*
X206066Y22462D01*
X206098Y22407D01*
X206132Y22358D01*
X206167Y22313D01*
X206198Y22278D01*
X206229Y22251D01*
X206254Y22230D01*
X206267Y22216D01*
X206274Y22212D01*
X206330Y22178D01*
X206392Y22146D01*
X206458Y22119D01*
X206524Y22094D01*
X206583Y22077D01*
X206608Y22070D01*
X206628Y22063D01*
X206649Y22060D01*
X206663Y22056D01*
X206670Y22053D01*
X206674D01*
X206569Y21744D01*
X206507Y21758D01*
X206451Y21772D01*
X206396Y21789D01*
X206344Y21806D01*
X206299Y21824D01*
X206254Y21841D01*
X206212Y21858D01*
X206177Y21872D01*
X206146Y21890D01*
X206118Y21903D01*
X206094Y21917D01*
X206073Y21928D01*
X206059Y21938D01*
X206049Y21945D01*
X206042Y21952D01*
X206038D01*
X205969Y22008D01*
X205910Y22067D01*
X205858Y22126D01*
X205816Y22181D01*
X205782Y22230D01*
X205761Y22271D01*
X205750Y22285D01*
X205744Y22296D01*
X205740Y22302D01*
Y22306D01*
X205705Y22389D01*
X205678Y22473D01*
X205660Y22556D01*
X205646Y22632D01*
X205643Y22670D01*
X205639Y22702D01*
X205636Y22729D01*
X205632Y22754D01*
Y22802D01*
X205636Y22872D01*
X205639Y22941D01*
X205660Y23069D01*
X205674Y23128D01*
X205692Y23184D01*
X205709Y23236D01*
X205723Y23281D01*
X205740Y23323D01*
X205757Y23361D01*
X205775Y23396D01*
X205789Y23420D01*
X205799Y23444D01*
X205809Y23458D01*
X205813Y23469D01*
X205816Y23472D01*
X205855Y23524D01*
X205893Y23573D01*
X205983Y23663D01*
X206077Y23739D01*
X206170Y23805D01*
X206212Y23833D01*
X206254Y23857D01*
X206292Y23878D01*
X206323Y23895D01*
X206347Y23909D01*
X206368Y23920D01*
X206382Y23923D01*
X206385Y23926D01*
X206458Y23958D01*
X206535Y23982D01*
X206611Y24006D01*
X206687Y24027D01*
X206837Y24058D01*
X206909Y24069D01*
X206979Y24079D01*
X207041Y24086D01*
X207100Y24090D01*
X207152Y24093D01*
X207197Y24096D01*
X207232Y24100D01*
X207260D01*
X207277D01*
X207284D01*
X207378Y24096D01*
D02*
G37*
G36*
X208849Y20883D02*
X206365D01*
X208849Y19523D01*
Y19173D01*
X205688D01*
Y19499D01*
X208179D01*
X205688Y20863D01*
Y21213D01*
X208849D01*
Y20883D01*
D02*
G37*
G36*
Y17667D02*
X208846Y17594D01*
X208842Y17524D01*
X208835Y17458D01*
X208825Y17396D01*
X208815Y17340D01*
X208801Y17288D01*
X208787Y17240D01*
X208769Y17195D01*
X208755Y17153D01*
X208742Y17118D01*
X208728Y17091D01*
X208717Y17066D01*
X208707Y17045D01*
X208700Y17032D01*
X208693Y17025D01*
Y17021D01*
X208662Y16976D01*
X208627Y16935D01*
X208544Y16855D01*
X208457Y16785D01*
X208370Y16726D01*
X208329Y16702D01*
X208291Y16681D01*
X208256Y16664D01*
X208225Y16646D01*
X208200Y16636D01*
X208183Y16626D01*
X208169Y16619D01*
X208166D01*
X208093Y16591D01*
X208020Y16567D01*
X207864Y16525D01*
X207711Y16497D01*
X207638Y16487D01*
X207569Y16480D01*
X207503Y16473D01*
X207444Y16466D01*
X207388Y16463D01*
X207343D01*
X207305Y16459D01*
X207277D01*
X207260D01*
X207253D01*
X207100Y16463D01*
X207031Y16466D01*
X206961Y16473D01*
X206899Y16480D01*
X206840Y16490D01*
X206785Y16497D01*
X206736Y16504D01*
X206687Y16515D01*
X206649Y16522D01*
X206614Y16532D01*
X206583Y16539D01*
X206562Y16542D01*
X206545Y16549D01*
X206535Y16553D01*
X206531D01*
X206420Y16591D01*
X206323Y16633D01*
X206236Y16678D01*
X206198Y16699D01*
X206163Y16719D01*
X206132Y16737D01*
X206104Y16754D01*
X206080Y16771D01*
X206059Y16785D01*
X206045Y16796D01*
X206035Y16806D01*
X206028Y16809D01*
X206025Y16813D01*
X205955Y16875D01*
X205896Y16941D01*
X205848Y17007D01*
X205809Y17070D01*
X205782Y17125D01*
X205771Y17146D01*
X205761Y17167D01*
X205754Y17184D01*
X205750Y17195D01*
X205747Y17202D01*
Y17205D01*
X205737Y17240D01*
X205726Y17275D01*
X205712Y17354D01*
X205702Y17438D01*
X205695Y17521D01*
X205692Y17594D01*
X205688Y17625D01*
Y18600D01*
X208849D01*
Y17667D01*
D02*
G37*
G36*
X207343Y12863D02*
X207437Y12860D01*
X207527Y12853D01*
X207614Y12842D01*
X207694Y12829D01*
X207770Y12815D01*
X207839Y12801D01*
X207905Y12787D01*
X207964Y12773D01*
X208013Y12759D01*
X208058Y12745D01*
X208096Y12731D01*
X208127Y12721D01*
X208148Y12714D01*
X208162Y12707D01*
X208166D01*
X208235Y12676D01*
X208301Y12641D01*
X208360Y12607D01*
X208415Y12572D01*
X208468Y12537D01*
X208513Y12502D01*
X208554Y12471D01*
X208592Y12436D01*
X208624Y12409D01*
X208651Y12381D01*
X208676Y12353D01*
X208693Y12332D01*
X208710Y12315D01*
X208721Y12301D01*
X208724Y12294D01*
X208728Y12291D01*
X208759Y12242D01*
X208783Y12190D01*
X208807Y12138D01*
X208828Y12086D01*
X208860Y11982D01*
X208880Y11885D01*
X208887Y11840D01*
X208891Y11801D01*
X208894Y11763D01*
X208898Y11732D01*
X208901Y11708D01*
Y11673D01*
X208898Y11597D01*
X208891Y11524D01*
X208877Y11458D01*
X208860Y11392D01*
X208842Y11329D01*
X208818Y11274D01*
X208794Y11222D01*
X208769Y11173D01*
X208745Y11128D01*
X208724Y11090D01*
X208700Y11059D01*
X208683Y11031D01*
X208665Y11007D01*
X208651Y10993D01*
X208645Y10983D01*
X208641Y10979D01*
X208589Y10927D01*
X208530Y10878D01*
X208471Y10833D01*
X208405Y10795D01*
X208339Y10757D01*
X208273Y10726D01*
X208207Y10695D01*
X208141Y10670D01*
X208082Y10646D01*
X208027Y10629D01*
X207975Y10611D01*
X207930Y10597D01*
X207895Y10590D01*
X207867Y10583D01*
X207850Y10576D01*
X207843D01*
X207739Y10920D01*
X207812Y10934D01*
X207881Y10951D01*
X207947Y10972D01*
X208006Y10993D01*
X208058Y11014D01*
X208110Y11038D01*
X208155Y11059D01*
X208193Y11083D01*
X208231Y11104D01*
X208259Y11125D01*
X208287Y11146D01*
X208308Y11159D01*
X208325Y11173D01*
X208336Y11184D01*
X208343Y11191D01*
X208346Y11194D01*
X208381Y11232D01*
X208412Y11274D01*
X208436Y11316D01*
X208460Y11357D01*
X208478Y11399D01*
X208495Y11437D01*
X208520Y11513D01*
X208533Y11579D01*
X208537Y11607D01*
X208540Y11631D01*
X208544Y11652D01*
Y11680D01*
X208540Y11749D01*
X208530Y11815D01*
X208513Y11878D01*
X208492Y11933D01*
X208468Y11989D01*
X208443Y12037D01*
X208412Y12083D01*
X208381Y12124D01*
X208353Y12162D01*
X208322Y12194D01*
X208297Y12221D01*
X208270Y12246D01*
X208252Y12263D01*
X208235Y12277D01*
X208225Y12284D01*
X208221Y12287D01*
X208155Y12325D01*
X208086Y12360D01*
X208009Y12391D01*
X207930Y12419D01*
X207850Y12440D01*
X207770Y12457D01*
X207690Y12471D01*
X207610Y12485D01*
X207538Y12495D01*
X207468Y12502D01*
X207406Y12506D01*
X207354Y12509D01*
X207309Y12513D01*
X207274D01*
X207253D01*
X207249D01*
X207246D01*
X207166D01*
X207093Y12509D01*
X207020Y12502D01*
X206955Y12495D01*
X206892Y12489D01*
X206833Y12478D01*
X206781Y12468D01*
X206733Y12457D01*
X206687Y12447D01*
X206649Y12436D01*
X206618Y12426D01*
X206590Y12419D01*
X206566Y12412D01*
X206552Y12405D01*
X206542Y12402D01*
X206538D01*
X206486Y12381D01*
X206441Y12357D01*
X206354Y12305D01*
X206285Y12256D01*
X206226Y12207D01*
X206181Y12166D01*
X206150Y12131D01*
X206139Y12117D01*
X206132Y12107D01*
X206125Y12103D01*
Y12100D01*
X206080Y12027D01*
X206045Y11947D01*
X206021Y11874D01*
X206007Y11801D01*
X205997Y11742D01*
X205993Y11715D01*
Y11694D01*
X205990Y11673D01*
Y11649D01*
X205993Y11600D01*
X205997Y11555D01*
X206018Y11468D01*
X206052Y11392D01*
X206094Y11319D01*
X206143Y11257D01*
X206198Y11201D01*
X206257Y11149D01*
X206319Y11107D01*
X206382Y11069D01*
X206441Y11038D01*
X206497Y11010D01*
X206545Y10989D01*
X206587Y10976D01*
X206621Y10962D01*
X206642Y10958D01*
X206646Y10955D01*
X206649D01*
X206552Y10618D01*
X206469Y10639D01*
X206392Y10667D01*
X206323Y10695D01*
X206254Y10726D01*
X206195Y10757D01*
X206139Y10788D01*
X206087Y10819D01*
X206042Y10851D01*
X206000Y10882D01*
X205966Y10910D01*
X205934Y10934D01*
X205910Y10955D01*
X205893Y10976D01*
X205879Y10989D01*
X205872Y10996D01*
X205868Y11000D01*
X205827Y11052D01*
X205792Y11104D01*
X205757Y11159D01*
X205733Y11212D01*
X205709Y11267D01*
X205692Y11319D01*
X205660Y11420D01*
X205653Y11468D01*
X205646Y11510D01*
X205639Y11548D01*
X205636Y11579D01*
X205632Y11604D01*
Y11642D01*
X205636Y11704D01*
X205639Y11767D01*
X205660Y11885D01*
X205692Y11989D01*
X205709Y12037D01*
X205726Y12083D01*
X205744Y12124D01*
X205761Y12159D01*
X205775Y12190D01*
X205792Y12218D01*
X205802Y12239D01*
X205813Y12252D01*
X205816Y12263D01*
X205820Y12266D01*
X205855Y12319D01*
X205896Y12364D01*
X205983Y12454D01*
X206073Y12527D01*
X206160Y12589D01*
X206202Y12617D01*
X206240Y12641D01*
X206274Y12662D01*
X206306Y12676D01*
X206330Y12690D01*
X206347Y12700D01*
X206361Y12704D01*
X206365Y12707D01*
X206434Y12735D01*
X206507Y12759D01*
X206656Y12801D01*
X206802Y12829D01*
X206871Y12839D01*
X206941Y12846D01*
X207003Y12853D01*
X207062Y12860D01*
X207114Y12863D01*
X207159D01*
X207194Y12867D01*
X207222D01*
X207239D01*
X207246D01*
X207343Y12863D01*
D02*
G37*
G36*
X207916Y10261D02*
X208002Y10247D01*
X208082Y10233D01*
X208159Y10212D01*
X208228Y10191D01*
X208294Y10167D01*
X208353Y10139D01*
X208405Y10112D01*
X208454Y10087D01*
X208495Y10059D01*
X208530Y10035D01*
X208561Y10014D01*
X208582Y9997D01*
X208599Y9980D01*
X208610Y9973D01*
X208613Y9969D01*
X208665Y9914D01*
X208707Y9855D01*
X208745Y9792D01*
X208780Y9730D01*
X208807Y9664D01*
X208832Y9601D01*
X208849Y9539D01*
X208867Y9480D01*
X208877Y9421D01*
X208887Y9369D01*
X208891Y9324D01*
X208898Y9282D01*
Y9247D01*
X208901Y9223D01*
Y9202D01*
X208898Y9091D01*
X208884Y8991D01*
X208867Y8901D01*
X208856Y8859D01*
X208842Y8824D01*
X208832Y8789D01*
X208821Y8762D01*
X208815Y8734D01*
X208804Y8713D01*
X208797Y8696D01*
X208790Y8685D01*
X208787Y8678D01*
Y8675D01*
X208738Y8599D01*
X208683Y8529D01*
X208627Y8470D01*
X208572Y8418D01*
X208523Y8380D01*
X208481Y8352D01*
X208468Y8342D01*
X208457Y8335D01*
X208450Y8328D01*
X208447D01*
X208360Y8286D01*
X208277Y8255D01*
X208193Y8231D01*
X208117Y8217D01*
X208082Y8210D01*
X208051Y8207D01*
X208023Y8203D01*
X207999D01*
X207982Y8200D01*
X207964D01*
X207957D01*
X207954D01*
X207853Y8207D01*
X207767Y8220D01*
X207687Y8238D01*
X207617Y8262D01*
X207586Y8272D01*
X207562Y8286D01*
X207538Y8297D01*
X207520Y8304D01*
X207506Y8314D01*
X207496Y8318D01*
X207489Y8325D01*
X207486D01*
X207416Y8373D01*
X207354Y8432D01*
X207298Y8491D01*
X207253Y8550D01*
X207215Y8602D01*
X207201Y8623D01*
X207187Y8644D01*
X207180Y8658D01*
X207173Y8671D01*
X207166Y8678D01*
Y8682D01*
X207152Y8713D01*
X207135Y8751D01*
X207118Y8789D01*
X207104Y8831D01*
X207072Y8921D01*
X207041Y9008D01*
X207031Y9050D01*
X207017Y9091D01*
X207007Y9126D01*
X206996Y9157D01*
X206989Y9185D01*
X206982Y9202D01*
X206979Y9216D01*
Y9220D01*
X206958Y9289D01*
X206937Y9355D01*
X206920Y9411D01*
X206899Y9463D01*
X206882Y9511D01*
X206864Y9553D01*
X206847Y9588D01*
X206833Y9619D01*
X206819Y9643D01*
X206805Y9667D01*
X206795Y9685D01*
X206785Y9699D01*
X206778Y9709D01*
X206771Y9716D01*
X206767Y9723D01*
X206722Y9761D01*
X206674Y9785D01*
X206625Y9806D01*
X206576Y9820D01*
X206535Y9827D01*
X206500Y9831D01*
X206486Y9834D01*
X206476D01*
X206472D01*
X206469D01*
X206431Y9831D01*
X206396Y9827D01*
X206330Y9810D01*
X206271Y9785D01*
X206222Y9758D01*
X206184Y9730D01*
X206156Y9706D01*
X206139Y9688D01*
X206132Y9681D01*
X206087Y9619D01*
X206056Y9546D01*
X206031Y9473D01*
X206018Y9400D01*
X206007Y9338D01*
X206004Y9310D01*
Y9286D01*
X206000Y9265D01*
Y9185D01*
X206007Y9137D01*
X206025Y9046D01*
X206049Y8970D01*
X206073Y8907D01*
X206101Y8859D01*
X206115Y8838D01*
X206125Y8821D01*
X206136Y8810D01*
X206143Y8800D01*
X206146Y8793D01*
X206150D01*
X206181Y8765D01*
X206212Y8737D01*
X206285Y8696D01*
X206361Y8664D01*
X206434Y8640D01*
X206504Y8623D01*
X206531Y8616D01*
X206556Y8613D01*
X206576Y8609D01*
X206594Y8606D01*
X206604D01*
X206608D01*
X206576Y8276D01*
X206472Y8283D01*
X206375Y8300D01*
X206292Y8321D01*
X206219Y8345D01*
X206188Y8356D01*
X206160Y8370D01*
X206136Y8380D01*
X206115Y8387D01*
X206098Y8397D01*
X206087Y8401D01*
X206080Y8408D01*
X206077D01*
X206000Y8456D01*
X205934Y8508D01*
X205879Y8567D01*
X205830Y8619D01*
X205796Y8668D01*
X205768Y8710D01*
X205757Y8724D01*
X205754Y8734D01*
X205747Y8741D01*
Y8744D01*
X205709Y8828D01*
X205681Y8914D01*
X205660Y8998D01*
X205646Y9077D01*
X205643Y9112D01*
X205639Y9143D01*
X205636Y9175D01*
X205632Y9199D01*
Y9247D01*
X205636Y9324D01*
X205643Y9397D01*
X205657Y9466D01*
X205671Y9529D01*
X205688Y9588D01*
X205709Y9643D01*
X205733Y9695D01*
X205754Y9740D01*
X205778Y9782D01*
X205802Y9817D01*
X205823Y9848D01*
X205841Y9872D01*
X205855Y9893D01*
X205868Y9907D01*
X205875Y9914D01*
X205879Y9917D01*
X205927Y9959D01*
X205976Y9997D01*
X206028Y10032D01*
X206080Y10059D01*
X206132Y10084D01*
X206184Y10105D01*
X206233Y10119D01*
X206281Y10132D01*
X206327Y10143D01*
X206368Y10150D01*
X206406Y10157D01*
X206441Y10160D01*
X206465Y10164D01*
X206486D01*
X206500D01*
X206504D01*
X206583Y10160D01*
X206653Y10150D01*
X206719Y10136D01*
X206778Y10122D01*
X206823Y10108D01*
X206857Y10094D01*
X206871Y10087D01*
X206882Y10084D01*
X206885Y10080D01*
X206889D01*
X206948Y10046D01*
X207003Y10004D01*
X207048Y9966D01*
X207090Y9928D01*
X207121Y9893D01*
X207145Y9862D01*
X207159Y9844D01*
X207166Y9837D01*
X207187Y9806D01*
X207208Y9771D01*
X207246Y9692D01*
X207284Y9605D01*
X207315Y9518D01*
X207329Y9477D01*
X207343Y9442D01*
X207357Y9407D01*
X207364Y9376D01*
X207374Y9352D01*
X207381Y9334D01*
X207385Y9320D01*
Y9317D01*
X207406Y9244D01*
X207427Y9175D01*
X207447Y9116D01*
X207465Y9060D01*
X207482Y9012D01*
X207499Y8966D01*
X207513Y8928D01*
X207527Y8894D01*
X207538Y8866D01*
X207548Y8841D01*
X207555Y8824D01*
X207562Y8807D01*
X207569Y8796D01*
X207572Y8789D01*
X207576Y8783D01*
X207604Y8737D01*
X207631Y8699D01*
X207659Y8668D01*
X207687Y8640D01*
X207708Y8623D01*
X207728Y8606D01*
X207742Y8599D01*
X207746Y8595D01*
X207787Y8574D01*
X207829Y8561D01*
X207867Y8547D01*
X207905Y8540D01*
X207940Y8536D01*
X207964Y8533D01*
X207982D01*
X207989D01*
X208034Y8536D01*
X208075Y8540D01*
X208152Y8561D01*
X208218Y8585D01*
X208273Y8616D01*
X208318Y8647D01*
X208349Y8675D01*
X208370Y8696D01*
X208374Y8699D01*
X208377Y8703D01*
X208426Y8772D01*
X208460Y8849D01*
X208488Y8928D01*
X208506Y9005D01*
X208516Y9074D01*
X208520Y9102D01*
Y9126D01*
X208523Y9150D01*
Y9178D01*
X208520Y9258D01*
X208509Y9327D01*
X208495Y9393D01*
X208478Y9452D01*
X208464Y9497D01*
X208450Y9532D01*
X208443Y9546D01*
X208440Y9556D01*
X208436Y9560D01*
Y9563D01*
X208401Y9622D01*
X208363Y9678D01*
X208325Y9723D01*
X208287Y9758D01*
X208256Y9789D01*
X208228Y9810D01*
X208211Y9824D01*
X208204Y9827D01*
X208145Y9858D01*
X208079Y9883D01*
X208009Y9903D01*
X207944Y9917D01*
X207885Y9928D01*
X207860Y9935D01*
X207836D01*
X207819Y9938D01*
X207805Y9941D01*
X207798D01*
X207794D01*
X207825Y10264D01*
X207916Y10261D01*
D02*
G37*
G36*
X208849Y3156D02*
X207444D01*
Y2764D01*
X207447Y2702D01*
X207451Y2650D01*
X207458Y2605D01*
X207468Y2567D01*
X207478Y2535D01*
X207486Y2514D01*
X207489Y2501D01*
X207492Y2497D01*
X207513Y2459D01*
X207541Y2424D01*
X207569Y2393D01*
X207600Y2362D01*
X207628Y2338D01*
X207652Y2317D01*
X207666Y2303D01*
X207673Y2299D01*
X207701Y2279D01*
X207735Y2258D01*
X207770Y2233D01*
X207812Y2209D01*
X207898Y2157D01*
X207985Y2108D01*
X208065Y2063D01*
X208100Y2043D01*
X208131Y2025D01*
X208155Y2015D01*
X208176Y2004D01*
X208190Y1997D01*
X208193Y1994D01*
X208849Y1650D01*
Y1217D01*
X207992Y1671D01*
X207912Y1716D01*
X207836Y1761D01*
X207767Y1807D01*
X207708Y1848D01*
X207659Y1883D01*
X207621Y1914D01*
X207607Y1925D01*
X207596Y1932D01*
X207593Y1935D01*
X207590Y1939D01*
X207555Y1970D01*
X207524Y2004D01*
X207492Y2043D01*
X207468Y2077D01*
X207444Y2108D01*
X207427Y2133D01*
X207416Y2150D01*
X207413Y2157D01*
X207399Y2091D01*
X207385Y2032D01*
X207364Y1977D01*
X207343Y1925D01*
X207322Y1876D01*
X207298Y1831D01*
X207274Y1789D01*
X207249Y1755D01*
X207225Y1720D01*
X207204Y1692D01*
X207184Y1671D01*
X207166Y1650D01*
X207152Y1637D01*
X207142Y1623D01*
X207135Y1619D01*
X207132Y1616D01*
X207090Y1581D01*
X207041Y1553D01*
X206996Y1529D01*
X206948Y1508D01*
X206851Y1474D01*
X206757Y1453D01*
X206715Y1442D01*
X206674Y1439D01*
X206639Y1435D01*
X206608Y1432D01*
X206583Y1428D01*
X206566D01*
X206552D01*
X206549D01*
X206451Y1432D01*
X206361Y1446D01*
X206278Y1463D01*
X206208Y1484D01*
X206177Y1494D01*
X206153Y1505D01*
X206129Y1515D01*
X206108Y1522D01*
X206094Y1529D01*
X206084Y1536D01*
X206077Y1539D01*
X206073D01*
X206000Y1585D01*
X205938Y1630D01*
X205889Y1678D01*
X205848Y1723D01*
X205816Y1761D01*
X205796Y1796D01*
X205782Y1817D01*
X205778Y1821D01*
Y1824D01*
X205761Y1859D01*
X205747Y1897D01*
X205726Y1977D01*
X205709Y2067D01*
X205698Y2150D01*
X205695Y2192D01*
X205692Y2230D01*
Y2265D01*
X205688Y2292D01*
Y3500D01*
X208849D01*
Y3156D01*
D02*
G37*
G36*
Y-1056D02*
X208478D01*
Y533D01*
X207399D01*
Y-903D01*
X207027D01*
Y533D01*
X206059D01*
Y-997D01*
X205688D01*
Y877D01*
X208849D01*
Y-1056D01*
D02*
G37*
G36*
X207916Y-1417D02*
X208002Y-1431D01*
X208082Y-1445D01*
X208159Y-1466D01*
X208228Y-1486D01*
X208294Y-1511D01*
X208353Y-1538D01*
X208405Y-1566D01*
X208454Y-1591D01*
X208495Y-1618D01*
X208530Y-1643D01*
X208561Y-1663D01*
X208582Y-1681D01*
X208599Y-1698D01*
X208610Y-1705D01*
X208613Y-1709D01*
X208665Y-1764D01*
X208707Y-1823D01*
X208745Y-1885D01*
X208780Y-1948D01*
X208807Y-2014D01*
X208832Y-2076D01*
X208849Y-2139D01*
X208867Y-2198D01*
X208877Y-2257D01*
X208887Y-2309D01*
X208891Y-2354D01*
X208898Y-2396D01*
Y-2430D01*
X208901Y-2455D01*
Y-2475D01*
X208898Y-2586D01*
X208884Y-2687D01*
X208867Y-2777D01*
X208856Y-2819D01*
X208842Y-2854D01*
X208832Y-2888D01*
X208821Y-2916D01*
X208815Y-2944D01*
X208804Y-2965D01*
X208797Y-2982D01*
X208790Y-2992D01*
X208787Y-2999D01*
Y-3003D01*
X208738Y-3079D01*
X208683Y-3148D01*
X208627Y-3207D01*
X208572Y-3260D01*
X208523Y-3298D01*
X208481Y-3325D01*
X208468Y-3336D01*
X208457Y-3343D01*
X208450Y-3350D01*
X208447D01*
X208360Y-3391D01*
X208277Y-3423D01*
X208193Y-3447D01*
X208117Y-3461D01*
X208082Y-3468D01*
X208051Y-3471D01*
X208023Y-3475D01*
X207999D01*
X207982Y-3478D01*
X207964D01*
X207957D01*
X207954D01*
X207853Y-3471D01*
X207767Y-3457D01*
X207687Y-3440D01*
X207617Y-3416D01*
X207586Y-3405D01*
X207562Y-3391D01*
X207538Y-3381D01*
X207520Y-3374D01*
X207506Y-3364D01*
X207496Y-3360D01*
X207489Y-3353D01*
X207486D01*
X207416Y-3305D01*
X207354Y-3246D01*
X207298Y-3187D01*
X207253Y-3128D01*
X207215Y-3076D01*
X207201Y-3055D01*
X207187Y-3034D01*
X207180Y-3020D01*
X207173Y-3006D01*
X207166Y-2999D01*
Y-2996D01*
X207152Y-2965D01*
X207135Y-2926D01*
X207118Y-2888D01*
X207104Y-2847D01*
X207072Y-2756D01*
X207041Y-2670D01*
X207031Y-2628D01*
X207017Y-2586D01*
X207007Y-2552D01*
X206996Y-2520D01*
X206989Y-2493D01*
X206982Y-2475D01*
X206979Y-2461D01*
Y-2458D01*
X206958Y-2389D01*
X206937Y-2323D01*
X206920Y-2267D01*
X206899Y-2215D01*
X206882Y-2166D01*
X206864Y-2125D01*
X206847Y-2090D01*
X206833Y-2059D01*
X206819Y-2035D01*
X206805Y-2010D01*
X206795Y-1993D01*
X206785Y-1979D01*
X206778Y-1969D01*
X206771Y-1962D01*
X206767Y-1955D01*
X206722Y-1917D01*
X206674Y-1892D01*
X206625Y-1872D01*
X206576Y-1858D01*
X206535Y-1851D01*
X206500Y-1847D01*
X206486Y-1844D01*
X206476D01*
X206472D01*
X206469D01*
X206431Y-1847D01*
X206396Y-1851D01*
X206330Y-1868D01*
X206271Y-1892D01*
X206222Y-1920D01*
X206184Y-1948D01*
X206156Y-1972D01*
X206139Y-1990D01*
X206132Y-1997D01*
X206087Y-2059D01*
X206056Y-2132D01*
X206031Y-2205D01*
X206018Y-2278D01*
X206007Y-2340D01*
X206004Y-2368D01*
Y-2392D01*
X206000Y-2413D01*
Y-2493D01*
X206007Y-2541D01*
X206025Y-2631D01*
X206049Y-2708D01*
X206073Y-2770D01*
X206101Y-2819D01*
X206115Y-2840D01*
X206125Y-2857D01*
X206136Y-2867D01*
X206143Y-2878D01*
X206146Y-2885D01*
X206150D01*
X206181Y-2913D01*
X206212Y-2940D01*
X206285Y-2982D01*
X206361Y-3013D01*
X206434Y-3038D01*
X206504Y-3055D01*
X206531Y-3062D01*
X206556Y-3065D01*
X206576Y-3069D01*
X206594Y-3072D01*
X206604D01*
X206608D01*
X206576Y-3402D01*
X206472Y-3395D01*
X206375Y-3378D01*
X206292Y-3357D01*
X206219Y-3332D01*
X206188Y-3322D01*
X206160Y-3308D01*
X206136Y-3298D01*
X206115Y-3291D01*
X206098Y-3280D01*
X206087Y-3277D01*
X206080Y-3270D01*
X206077D01*
X206000Y-3221D01*
X205934Y-3169D01*
X205879Y-3110D01*
X205830Y-3058D01*
X205796Y-3010D01*
X205768Y-2968D01*
X205757Y-2954D01*
X205754Y-2944D01*
X205747Y-2937D01*
Y-2933D01*
X205709Y-2850D01*
X205681Y-2763D01*
X205660Y-2680D01*
X205646Y-2600D01*
X205643Y-2566D01*
X205639Y-2534D01*
X205636Y-2503D01*
X205632Y-2479D01*
Y-2430D01*
X205636Y-2354D01*
X205643Y-2281D01*
X205657Y-2212D01*
X205671Y-2149D01*
X205688Y-2090D01*
X205709Y-2035D01*
X205733Y-1983D01*
X205754Y-1938D01*
X205778Y-1896D01*
X205802Y-1861D01*
X205823Y-1830D01*
X205841Y-1806D01*
X205855Y-1785D01*
X205868Y-1771D01*
X205875Y-1764D01*
X205879Y-1760D01*
X205927Y-1719D01*
X205976Y-1681D01*
X206028Y-1646D01*
X206080Y-1618D01*
X206132Y-1594D01*
X206184Y-1573D01*
X206233Y-1559D01*
X206281Y-1545D01*
X206327Y-1535D01*
X206368Y-1528D01*
X206406Y-1521D01*
X206441Y-1518D01*
X206465Y-1514D01*
X206486D01*
X206500D01*
X206504D01*
X206583Y-1518D01*
X206653Y-1528D01*
X206719Y-1542D01*
X206778Y-1556D01*
X206823Y-1570D01*
X206857Y-1584D01*
X206871Y-1591D01*
X206882Y-1594D01*
X206885Y-1597D01*
X206889D01*
X206948Y-1632D01*
X207003Y-1674D01*
X207048Y-1712D01*
X207090Y-1750D01*
X207121Y-1785D01*
X207145Y-1816D01*
X207159Y-1833D01*
X207166Y-1840D01*
X207187Y-1872D01*
X207208Y-1906D01*
X207246Y-1986D01*
X207284Y-2073D01*
X207315Y-2160D01*
X207329Y-2201D01*
X207343Y-2236D01*
X207357Y-2271D01*
X207364Y-2302D01*
X207374Y-2326D01*
X207381Y-2344D01*
X207385Y-2357D01*
Y-2361D01*
X207406Y-2434D01*
X207427Y-2503D01*
X207447Y-2562D01*
X207465Y-2618D01*
X207482Y-2666D01*
X207499Y-2711D01*
X207513Y-2750D01*
X207527Y-2784D01*
X207538Y-2812D01*
X207548Y-2836D01*
X207555Y-2854D01*
X207562Y-2871D01*
X207569Y-2881D01*
X207572Y-2888D01*
X207576Y-2895D01*
X207604Y-2940D01*
X207631Y-2978D01*
X207659Y-3010D01*
X207687Y-3038D01*
X207708Y-3055D01*
X207728Y-3072D01*
X207742Y-3079D01*
X207746Y-3083D01*
X207787Y-3103D01*
X207829Y-3117D01*
X207867Y-3131D01*
X207905Y-3138D01*
X207940Y-3142D01*
X207964Y-3145D01*
X207982D01*
X207989D01*
X208034Y-3142D01*
X208075Y-3138D01*
X208152Y-3117D01*
X208218Y-3093D01*
X208273Y-3062D01*
X208318Y-3031D01*
X208349Y-3003D01*
X208370Y-2982D01*
X208374Y-2978D01*
X208377Y-2975D01*
X208426Y-2906D01*
X208460Y-2829D01*
X208488Y-2750D01*
X208506Y-2673D01*
X208516Y-2604D01*
X208520Y-2576D01*
Y-2552D01*
X208523Y-2527D01*
Y-2500D01*
X208520Y-2420D01*
X208509Y-2350D01*
X208495Y-2285D01*
X208478Y-2225D01*
X208464Y-2180D01*
X208450Y-2146D01*
X208443Y-2132D01*
X208440Y-2121D01*
X208436Y-2118D01*
Y-2114D01*
X208401Y-2056D01*
X208363Y-2000D01*
X208325Y-1955D01*
X208287Y-1920D01*
X208256Y-1889D01*
X208228Y-1868D01*
X208211Y-1854D01*
X208204Y-1851D01*
X208145Y-1819D01*
X208079Y-1795D01*
X208009Y-1774D01*
X207944Y-1760D01*
X207885Y-1750D01*
X207860Y-1743D01*
X207836D01*
X207819Y-1740D01*
X207805Y-1736D01*
X207798D01*
X207794D01*
X207825Y-1414D01*
X207916Y-1417D01*
D02*
G37*
G36*
X208849Y-8259D02*
X208846Y-8332D01*
X208842Y-8402D01*
X208835Y-8468D01*
X208825Y-8530D01*
X208815Y-8586D01*
X208801Y-8638D01*
X208787Y-8686D01*
X208769Y-8731D01*
X208755Y-8773D01*
X208742Y-8808D01*
X208728Y-8835D01*
X208717Y-8860D01*
X208707Y-8881D01*
X208700Y-8895D01*
X208693Y-8901D01*
Y-8905D01*
X208662Y-8950D01*
X208627Y-8992D01*
X208544Y-9071D01*
X208457Y-9141D01*
X208370Y-9200D01*
X208329Y-9224D01*
X208291Y-9245D01*
X208256Y-9262D01*
X208225Y-9280D01*
X208200Y-9290D01*
X208183Y-9300D01*
X208169Y-9307D01*
X208166D01*
X208093Y-9335D01*
X208020Y-9359D01*
X207864Y-9401D01*
X207711Y-9429D01*
X207638Y-9439D01*
X207569Y-9446D01*
X207503Y-9453D01*
X207444Y-9460D01*
X207388Y-9464D01*
X207343D01*
X207305Y-9467D01*
X207277D01*
X207260D01*
X207253D01*
X207100Y-9464D01*
X207031Y-9460D01*
X206961Y-9453D01*
X206899Y-9446D01*
X206840Y-9436D01*
X206785Y-9429D01*
X206736Y-9422D01*
X206687Y-9411D01*
X206649Y-9405D01*
X206614Y-9394D01*
X206583Y-9387D01*
X206562Y-9384D01*
X206545Y-9377D01*
X206535Y-9373D01*
X206531D01*
X206420Y-9335D01*
X206323Y-9294D01*
X206236Y-9248D01*
X206198Y-9228D01*
X206163Y-9207D01*
X206132Y-9189D01*
X206104Y-9172D01*
X206080Y-9155D01*
X206059Y-9141D01*
X206045Y-9130D01*
X206035Y-9120D01*
X206028Y-9116D01*
X206025Y-9113D01*
X205955Y-9051D01*
X205896Y-8985D01*
X205848Y-8919D01*
X205809Y-8856D01*
X205782Y-8801D01*
X205771Y-8780D01*
X205761Y-8759D01*
X205754Y-8742D01*
X205750Y-8731D01*
X205747Y-8724D01*
Y-8721D01*
X205737Y-8686D01*
X205726Y-8652D01*
X205712Y-8572D01*
X205702Y-8489D01*
X205695Y-8405D01*
X205692Y-8332D01*
X205688Y-8301D01*
Y-7326D01*
X208849D01*
Y-8259D01*
D02*
G37*
G36*
X207343Y-9845D02*
X207437Y-9849D01*
X207527Y-9856D01*
X207614Y-9866D01*
X207694Y-9880D01*
X207770Y-9894D01*
X207839Y-9908D01*
X207905Y-9922D01*
X207964Y-9935D01*
X208013Y-9949D01*
X208058Y-9963D01*
X208096Y-9977D01*
X208127Y-9988D01*
X208148Y-9995D01*
X208162Y-10001D01*
X208166D01*
X208235Y-10033D01*
X208301Y-10067D01*
X208360Y-10102D01*
X208415Y-10137D01*
X208468Y-10171D01*
X208513Y-10206D01*
X208554Y-10237D01*
X208592Y-10272D01*
X208624Y-10300D01*
X208651Y-10328D01*
X208676Y-10355D01*
X208693Y-10376D01*
X208710Y-10394D01*
X208721Y-10407D01*
X208724Y-10414D01*
X208728Y-10418D01*
X208759Y-10466D01*
X208783Y-10518D01*
X208807Y-10571D01*
X208828Y-10622D01*
X208860Y-10727D01*
X208880Y-10824D01*
X208887Y-10869D01*
X208891Y-10907D01*
X208894Y-10945D01*
X208898Y-10977D01*
X208901Y-11001D01*
Y-11035D01*
X208898Y-11112D01*
X208891Y-11185D01*
X208877Y-11251D01*
X208860Y-11316D01*
X208842Y-11379D01*
X208818Y-11434D01*
X208794Y-11486D01*
X208769Y-11535D01*
X208745Y-11580D01*
X208724Y-11618D01*
X208700Y-11650D01*
X208683Y-11677D01*
X208665Y-11702D01*
X208651Y-11716D01*
X208645Y-11726D01*
X208641Y-11729D01*
X208589Y-11782D01*
X208530Y-11830D01*
X208471Y-11875D01*
X208405Y-11913D01*
X208339Y-11952D01*
X208273Y-11983D01*
X208207Y-12014D01*
X208141Y-12038D01*
X208082Y-12063D01*
X208027Y-12080D01*
X207975Y-12097D01*
X207930Y-12111D01*
X207895Y-12118D01*
X207867Y-12125D01*
X207850Y-12132D01*
X207843D01*
X207739Y-11788D01*
X207812Y-11775D01*
X207881Y-11757D01*
X207947Y-11736D01*
X208006Y-11716D01*
X208058Y-11695D01*
X208110Y-11671D01*
X208155Y-11650D01*
X208193Y-11625D01*
X208231Y-11604D01*
X208259Y-11584D01*
X208287Y-11563D01*
X208308Y-11549D01*
X208325Y-11535D01*
X208336Y-11525D01*
X208343Y-11518D01*
X208346Y-11514D01*
X208381Y-11476D01*
X208412Y-11434D01*
X208436Y-11393D01*
X208460Y-11351D01*
X208478Y-11310D01*
X208495Y-11271D01*
X208520Y-11195D01*
X208533Y-11129D01*
X208537Y-11101D01*
X208540Y-11077D01*
X208544Y-11056D01*
Y-11028D01*
X208540Y-10959D01*
X208530Y-10893D01*
X208513Y-10831D01*
X208492Y-10775D01*
X208468Y-10720D01*
X208443Y-10671D01*
X208412Y-10626D01*
X208381Y-10584D01*
X208353Y-10546D01*
X208322Y-10515D01*
X208297Y-10487D01*
X208270Y-10463D01*
X208252Y-10446D01*
X208235Y-10432D01*
X208225Y-10425D01*
X208221Y-10421D01*
X208155Y-10383D01*
X208086Y-10348D01*
X208009Y-10317D01*
X207930Y-10289D01*
X207850Y-10269D01*
X207770Y-10251D01*
X207690Y-10237D01*
X207610Y-10223D01*
X207538Y-10213D01*
X207468Y-10206D01*
X207406Y-10203D01*
X207354Y-10199D01*
X207309Y-10196D01*
X207274D01*
X207253D01*
X207249D01*
X207246D01*
X207166D01*
X207093Y-10199D01*
X207020Y-10206D01*
X206955Y-10213D01*
X206892Y-10220D01*
X206833Y-10230D01*
X206781Y-10241D01*
X206733Y-10251D01*
X206687Y-10262D01*
X206649Y-10272D01*
X206618Y-10283D01*
X206590Y-10289D01*
X206566Y-10296D01*
X206552Y-10303D01*
X206542Y-10307D01*
X206538D01*
X206486Y-10328D01*
X206441Y-10352D01*
X206354Y-10404D01*
X206285Y-10452D01*
X206226Y-10501D01*
X206181Y-10543D01*
X206150Y-10577D01*
X206139Y-10591D01*
X206132Y-10602D01*
X206125Y-10605D01*
Y-10609D01*
X206080Y-10682D01*
X206045Y-10761D01*
X206021Y-10834D01*
X206007Y-10907D01*
X205997Y-10966D01*
X205993Y-10994D01*
Y-11015D01*
X205990Y-11035D01*
Y-11060D01*
X205993Y-11108D01*
X205997Y-11153D01*
X206018Y-11240D01*
X206052Y-11316D01*
X206094Y-11389D01*
X206143Y-11452D01*
X206198Y-11507D01*
X206257Y-11559D01*
X206319Y-11601D01*
X206382Y-11639D01*
X206441Y-11671D01*
X206497Y-11698D01*
X206545Y-11719D01*
X206587Y-11733D01*
X206621Y-11747D01*
X206642Y-11750D01*
X206646Y-11754D01*
X206649D01*
X206552Y-12090D01*
X206469Y-12070D01*
X206392Y-12042D01*
X206323Y-12014D01*
X206254Y-11983D01*
X206195Y-11952D01*
X206139Y-11920D01*
X206087Y-11889D01*
X206042Y-11858D01*
X206000Y-11827D01*
X205966Y-11799D01*
X205934Y-11775D01*
X205910Y-11754D01*
X205893Y-11733D01*
X205879Y-11719D01*
X205872Y-11712D01*
X205868Y-11709D01*
X205827Y-11657D01*
X205792Y-11604D01*
X205757Y-11549D01*
X205733Y-11497D01*
X205709Y-11441D01*
X205692Y-11389D01*
X205660Y-11289D01*
X205653Y-11240D01*
X205646Y-11198D01*
X205639Y-11160D01*
X205636Y-11129D01*
X205632Y-11105D01*
Y-11067D01*
X205636Y-11004D01*
X205639Y-10942D01*
X205660Y-10824D01*
X205692Y-10720D01*
X205709Y-10671D01*
X205726Y-10626D01*
X205744Y-10584D01*
X205761Y-10550D01*
X205775Y-10518D01*
X205792Y-10491D01*
X205802Y-10470D01*
X205813Y-10456D01*
X205816Y-10446D01*
X205820Y-10442D01*
X205855Y-10390D01*
X205896Y-10345D01*
X205983Y-10255D01*
X206073Y-10182D01*
X206160Y-10119D01*
X206202Y-10092D01*
X206240Y-10067D01*
X206274Y-10046D01*
X206306Y-10033D01*
X206330Y-10019D01*
X206347Y-10008D01*
X206361Y-10005D01*
X206365Y-10001D01*
X206434Y-9974D01*
X206507Y-9949D01*
X206656Y-9908D01*
X206802Y-9880D01*
X206871Y-9870D01*
X206941Y-9863D01*
X207003Y-9856D01*
X207062Y-9849D01*
X207114Y-9845D01*
X207159D01*
X207194Y-9842D01*
X207222D01*
X207239D01*
X207246D01*
X207343Y-9845D01*
D02*
G37*
G36*
X207916Y-16503D02*
X208002Y-16517D01*
X208082Y-16531D01*
X208159Y-16552D01*
X208228Y-16573D01*
X208294Y-16597D01*
X208353Y-16625D01*
X208405Y-16653D01*
X208454Y-16677D01*
X208495Y-16705D01*
X208530Y-16729D01*
X208561Y-16750D01*
X208582Y-16767D01*
X208599Y-16784D01*
X208610Y-16792D01*
X208613Y-16795D01*
X208665Y-16850D01*
X208707Y-16909D01*
X208745Y-16972D01*
X208780Y-17034D01*
X208807Y-17100D01*
X208832Y-17163D01*
X208849Y-17225D01*
X208867Y-17284D01*
X208877Y-17343D01*
X208887Y-17395D01*
X208891Y-17440D01*
X208898Y-17482D01*
Y-17517D01*
X208901Y-17541D01*
Y-17562D01*
X208898Y-17673D01*
X208884Y-17774D01*
X208867Y-17864D01*
X208856Y-17905D01*
X208842Y-17940D01*
X208832Y-17975D01*
X208821Y-18002D01*
X208815Y-18030D01*
X208804Y-18051D01*
X208797Y-18068D01*
X208790Y-18079D01*
X208787Y-18086D01*
Y-18089D01*
X208738Y-18166D01*
X208683Y-18235D01*
X208627Y-18294D01*
X208572Y-18346D01*
X208523Y-18384D01*
X208481Y-18412D01*
X208468Y-18422D01*
X208457Y-18429D01*
X208450Y-18436D01*
X208447D01*
X208360Y-18478D01*
X208277Y-18509D01*
X208193Y-18533D01*
X208117Y-18547D01*
X208082Y-18554D01*
X208051Y-18558D01*
X208023Y-18561D01*
X207999D01*
X207982Y-18565D01*
X207964D01*
X207957D01*
X207954D01*
X207853Y-18558D01*
X207767Y-18544D01*
X207687Y-18527D01*
X207617Y-18502D01*
X207586Y-18492D01*
X207562Y-18478D01*
X207538Y-18467D01*
X207520Y-18461D01*
X207506Y-18450D01*
X207496Y-18447D01*
X207489Y-18440D01*
X207486D01*
X207416Y-18391D01*
X207354Y-18332D01*
X207298Y-18273D01*
X207253Y-18214D01*
X207215Y-18162D01*
X207201Y-18141D01*
X207187Y-18121D01*
X207180Y-18107D01*
X207173Y-18093D01*
X207166Y-18086D01*
Y-18082D01*
X207152Y-18051D01*
X207135Y-18013D01*
X207118Y-17975D01*
X207104Y-17933D01*
X207072Y-17843D01*
X207041Y-17756D01*
X207031Y-17715D01*
X207017Y-17673D01*
X207007Y-17638D01*
X206996Y-17607D01*
X206989Y-17579D01*
X206982Y-17562D01*
X206979Y-17548D01*
Y-17545D01*
X206958Y-17475D01*
X206937Y-17409D01*
X206920Y-17354D01*
X206899Y-17302D01*
X206882Y-17253D01*
X206864Y-17211D01*
X206847Y-17177D01*
X206833Y-17145D01*
X206819Y-17121D01*
X206805Y-17097D01*
X206795Y-17079D01*
X206785Y-17066D01*
X206778Y-17055D01*
X206771Y-17048D01*
X206767Y-17041D01*
X206722Y-17003D01*
X206674Y-16979D01*
X206625Y-16958D01*
X206576Y-16944D01*
X206535Y-16937D01*
X206500Y-16934D01*
X206486Y-16930D01*
X206476D01*
X206472D01*
X206469D01*
X206431Y-16934D01*
X206396Y-16937D01*
X206330Y-16955D01*
X206271Y-16979D01*
X206222Y-17007D01*
X206184Y-17034D01*
X206156Y-17059D01*
X206139Y-17076D01*
X206132Y-17083D01*
X206087Y-17145D01*
X206056Y-17218D01*
X206031Y-17291D01*
X206018Y-17364D01*
X206007Y-17426D01*
X206004Y-17454D01*
Y-17479D01*
X206000Y-17499D01*
Y-17579D01*
X206007Y-17628D01*
X206025Y-17718D01*
X206049Y-17794D01*
X206073Y-17857D01*
X206101Y-17905D01*
X206115Y-17926D01*
X206125Y-17943D01*
X206136Y-17954D01*
X206143Y-17964D01*
X206146Y-17971D01*
X206150D01*
X206181Y-17999D01*
X206212Y-18027D01*
X206285Y-18068D01*
X206361Y-18100D01*
X206434Y-18124D01*
X206504Y-18141D01*
X206531Y-18148D01*
X206556Y-18152D01*
X206576Y-18155D01*
X206594Y-18159D01*
X206604D01*
X206608D01*
X206576Y-18488D01*
X206472Y-18481D01*
X206375Y-18464D01*
X206292Y-18443D01*
X206219Y-18419D01*
X206188Y-18408D01*
X206160Y-18395D01*
X206136Y-18384D01*
X206115Y-18377D01*
X206098Y-18367D01*
X206087Y-18363D01*
X206080Y-18357D01*
X206077D01*
X206000Y-18308D01*
X205934Y-18256D01*
X205879Y-18197D01*
X205830Y-18145D01*
X205796Y-18096D01*
X205768Y-18055D01*
X205757Y-18041D01*
X205754Y-18030D01*
X205747Y-18023D01*
Y-18020D01*
X205709Y-17937D01*
X205681Y-17850D01*
X205660Y-17767D01*
X205646Y-17687D01*
X205643Y-17652D01*
X205639Y-17621D01*
X205636Y-17590D01*
X205632Y-17565D01*
Y-17517D01*
X205636Y-17440D01*
X205643Y-17368D01*
X205657Y-17298D01*
X205671Y-17236D01*
X205688Y-17177D01*
X205709Y-17121D01*
X205733Y-17069D01*
X205754Y-17024D01*
X205778Y-16982D01*
X205802Y-16948D01*
X205823Y-16916D01*
X205841Y-16892D01*
X205855Y-16871D01*
X205868Y-16857D01*
X205875Y-16850D01*
X205879Y-16847D01*
X205927Y-16805D01*
X205976Y-16767D01*
X206028Y-16733D01*
X206080Y-16705D01*
X206132Y-16680D01*
X206184Y-16660D01*
X206233Y-16646D01*
X206281Y-16632D01*
X206327Y-16621D01*
X206368Y-16614D01*
X206406Y-16608D01*
X206441Y-16604D01*
X206465Y-16601D01*
X206486D01*
X206500D01*
X206504D01*
X206583Y-16604D01*
X206653Y-16614D01*
X206719Y-16628D01*
X206778Y-16642D01*
X206823Y-16656D01*
X206857Y-16670D01*
X206871Y-16677D01*
X206882Y-16680D01*
X206885Y-16684D01*
X206889D01*
X206948Y-16719D01*
X207003Y-16760D01*
X207048Y-16798D01*
X207090Y-16837D01*
X207121Y-16871D01*
X207145Y-16903D01*
X207159Y-16920D01*
X207166Y-16927D01*
X207187Y-16958D01*
X207208Y-16993D01*
X207246Y-17073D01*
X207284Y-17159D01*
X207315Y-17246D01*
X207329Y-17288D01*
X207343Y-17322D01*
X207357Y-17357D01*
X207364Y-17388D01*
X207374Y-17413D01*
X207381Y-17430D01*
X207385Y-17444D01*
Y-17447D01*
X207406Y-17520D01*
X207427Y-17590D01*
X207447Y-17649D01*
X207465Y-17704D01*
X207482Y-17753D01*
X207499Y-17798D01*
X207513Y-17836D01*
X207527Y-17871D01*
X207538Y-17898D01*
X207548Y-17923D01*
X207555Y-17940D01*
X207562Y-17957D01*
X207569Y-17968D01*
X207572Y-17975D01*
X207576Y-17982D01*
X207604Y-18027D01*
X207631Y-18065D01*
X207659Y-18096D01*
X207687Y-18124D01*
X207708Y-18141D01*
X207728Y-18159D01*
X207742Y-18166D01*
X207746Y-18169D01*
X207787Y-18190D01*
X207829Y-18204D01*
X207867Y-18218D01*
X207905Y-18225D01*
X207940Y-18228D01*
X207964Y-18232D01*
X207982D01*
X207989D01*
X208034Y-18228D01*
X208075Y-18225D01*
X208152Y-18204D01*
X208218Y-18180D01*
X208273Y-18148D01*
X208318Y-18117D01*
X208349Y-18089D01*
X208370Y-18068D01*
X208374Y-18065D01*
X208377Y-18061D01*
X208426Y-17992D01*
X208460Y-17916D01*
X208488Y-17836D01*
X208506Y-17760D01*
X208516Y-17690D01*
X208520Y-17662D01*
Y-17638D01*
X208523Y-17614D01*
Y-17586D01*
X208520Y-17506D01*
X208509Y-17437D01*
X208495Y-17371D01*
X208478Y-17312D01*
X208464Y-17267D01*
X208450Y-17232D01*
X208443Y-17218D01*
X208440Y-17208D01*
X208436Y-17204D01*
Y-17201D01*
X208401Y-17142D01*
X208363Y-17086D01*
X208325Y-17041D01*
X208287Y-17007D01*
X208256Y-16975D01*
X208228Y-16955D01*
X208211Y-16941D01*
X208204Y-16937D01*
X208145Y-16906D01*
X208079Y-16882D01*
X208009Y-16861D01*
X207944Y-16847D01*
X207885Y-16837D01*
X207860Y-16830D01*
X207836D01*
X207819Y-16826D01*
X207805Y-16823D01*
X207798D01*
X207794D01*
X207825Y-16500D01*
X207916Y-16503D01*
D02*
G37*
G36*
X207343Y-18929D02*
X207437Y-18933D01*
X207527Y-18939D01*
X207614Y-18950D01*
X207694Y-18964D01*
X207770Y-18978D01*
X207839Y-18992D01*
X207905Y-19005D01*
X207964Y-19019D01*
X208013Y-19033D01*
X208058Y-19047D01*
X208096Y-19061D01*
X208127Y-19071D01*
X208148Y-19078D01*
X208162Y-19085D01*
X208166D01*
X208235Y-19116D01*
X208301Y-19151D01*
X208360Y-19186D01*
X208415Y-19220D01*
X208468Y-19255D01*
X208513Y-19290D01*
X208554Y-19321D01*
X208592Y-19356D01*
X208624Y-19384D01*
X208651Y-19411D01*
X208676Y-19439D01*
X208693Y-19460D01*
X208710Y-19477D01*
X208721Y-19491D01*
X208724Y-19498D01*
X208728Y-19502D01*
X208759Y-19550D01*
X208783Y-19602D01*
X208807Y-19654D01*
X208828Y-19706D01*
X208860Y-19810D01*
X208880Y-19907D01*
X208887Y-19953D01*
X208891Y-19991D01*
X208894Y-20029D01*
X208898Y-20060D01*
X208901Y-20085D01*
Y-20119D01*
X208898Y-20196D01*
X208891Y-20268D01*
X208877Y-20334D01*
X208860Y-20400D01*
X208842Y-20463D01*
X208818Y-20518D01*
X208794Y-20570D01*
X208769Y-20619D01*
X208745Y-20664D01*
X208724Y-20702D01*
X208700Y-20733D01*
X208683Y-20761D01*
X208665Y-20786D01*
X208651Y-20799D01*
X208645Y-20810D01*
X208641Y-20813D01*
X208589Y-20865D01*
X208530Y-20914D01*
X208471Y-20959D01*
X208405Y-20997D01*
X208339Y-21035D01*
X208273Y-21067D01*
X208207Y-21098D01*
X208141Y-21122D01*
X208082Y-21146D01*
X208027Y-21164D01*
X207975Y-21181D01*
X207930Y-21195D01*
X207895Y-21202D01*
X207867Y-21209D01*
X207850Y-21216D01*
X207843D01*
X207739Y-20872D01*
X207812Y-20858D01*
X207881Y-20841D01*
X207947Y-20820D01*
X208006Y-20799D01*
X208058Y-20778D01*
X208110Y-20754D01*
X208155Y-20733D01*
X208193Y-20709D01*
X208231Y-20688D01*
X208259Y-20667D01*
X208287Y-20647D01*
X208308Y-20633D01*
X208325Y-20619D01*
X208336Y-20608D01*
X208343Y-20602D01*
X208346Y-20598D01*
X208381Y-20560D01*
X208412Y-20518D01*
X208436Y-20477D01*
X208460Y-20435D01*
X208478Y-20393D01*
X208495Y-20355D01*
X208520Y-20279D01*
X208533Y-20213D01*
X208537Y-20185D01*
X208540Y-20161D01*
X208544Y-20140D01*
Y-20112D01*
X208540Y-20043D01*
X208530Y-19977D01*
X208513Y-19915D01*
X208492Y-19859D01*
X208468Y-19803D01*
X208443Y-19755D01*
X208412Y-19710D01*
X208381Y-19668D01*
X208353Y-19630D01*
X208322Y-19599D01*
X208297Y-19571D01*
X208270Y-19547D01*
X208252Y-19529D01*
X208235Y-19515D01*
X208225Y-19509D01*
X208221Y-19505D01*
X208155Y-19467D01*
X208086Y-19432D01*
X208009Y-19401D01*
X207930Y-19373D01*
X207850Y-19352D01*
X207770Y-19335D01*
X207690Y-19321D01*
X207610Y-19307D01*
X207538Y-19297D01*
X207468Y-19290D01*
X207406Y-19286D01*
X207354Y-19283D01*
X207309Y-19279D01*
X207274D01*
X207253D01*
X207249D01*
X207246D01*
X207166D01*
X207093Y-19283D01*
X207020Y-19290D01*
X206955Y-19297D01*
X206892Y-19304D01*
X206833Y-19314D01*
X206781Y-19325D01*
X206733Y-19335D01*
X206687Y-19345D01*
X206649Y-19356D01*
X206618Y-19366D01*
X206590Y-19373D01*
X206566Y-19380D01*
X206552Y-19387D01*
X206542Y-19390D01*
X206538D01*
X206486Y-19411D01*
X206441Y-19436D01*
X206354Y-19488D01*
X206285Y-19536D01*
X206226Y-19585D01*
X206181Y-19626D01*
X206150Y-19661D01*
X206139Y-19675D01*
X206132Y-19685D01*
X206125Y-19689D01*
Y-19692D01*
X206080Y-19765D01*
X206045Y-19845D01*
X206021Y-19918D01*
X206007Y-19991D01*
X205997Y-20050D01*
X205993Y-20078D01*
Y-20098D01*
X205990Y-20119D01*
Y-20143D01*
X205993Y-20192D01*
X205997Y-20237D01*
X206018Y-20324D01*
X206052Y-20400D01*
X206094Y-20473D01*
X206143Y-20536D01*
X206198Y-20591D01*
X206257Y-20643D01*
X206319Y-20685D01*
X206382Y-20723D01*
X206441Y-20754D01*
X206497Y-20782D01*
X206545Y-20803D01*
X206587Y-20817D01*
X206621Y-20831D01*
X206642Y-20834D01*
X206646Y-20838D01*
X206649D01*
X206552Y-21174D01*
X206469Y-21153D01*
X206392Y-21125D01*
X206323Y-21098D01*
X206254Y-21067D01*
X206195Y-21035D01*
X206139Y-21004D01*
X206087Y-20973D01*
X206042Y-20942D01*
X206000Y-20910D01*
X205966Y-20883D01*
X205934Y-20858D01*
X205910Y-20838D01*
X205893Y-20817D01*
X205879Y-20803D01*
X205872Y-20796D01*
X205868Y-20792D01*
X205827Y-20740D01*
X205792Y-20688D01*
X205757Y-20633D01*
X205733Y-20581D01*
X205709Y-20525D01*
X205692Y-20473D01*
X205660Y-20372D01*
X205653Y-20324D01*
X205646Y-20282D01*
X205639Y-20244D01*
X205636Y-20213D01*
X205632Y-20189D01*
Y-20150D01*
X205636Y-20088D01*
X205639Y-20026D01*
X205660Y-19907D01*
X205692Y-19803D01*
X205709Y-19755D01*
X205726Y-19710D01*
X205744Y-19668D01*
X205761Y-19633D01*
X205775Y-19602D01*
X205792Y-19574D01*
X205802Y-19554D01*
X205813Y-19540D01*
X205816Y-19529D01*
X205820Y-19526D01*
X205855Y-19474D01*
X205896Y-19429D01*
X205983Y-19339D01*
X206073Y-19266D01*
X206160Y-19203D01*
X206202Y-19175D01*
X206240Y-19151D01*
X206274Y-19130D01*
X206306Y-19116D01*
X206330Y-19103D01*
X206347Y-19092D01*
X206361Y-19089D01*
X206365Y-19085D01*
X206434Y-19057D01*
X206507Y-19033D01*
X206656Y-18992D01*
X206802Y-18964D01*
X206871Y-18953D01*
X206941Y-18946D01*
X207003Y-18939D01*
X207062Y-18933D01*
X207114Y-18929D01*
X207159D01*
X207194Y-18925D01*
X207222D01*
X207239D01*
X207246D01*
X207343Y-18929D01*
D02*
G37*
G36*
X208849Y-21976D02*
X207756D01*
X207253Y-22399D01*
X208849Y-23318D01*
Y-23773D01*
X206972Y-22638D01*
X205688Y-23724D01*
Y-23260D01*
X207256Y-21976D01*
X205688D01*
Y-21632D01*
X208849D01*
Y-21976D01*
D02*
G37*
G36*
X207916Y-26603D02*
X208002Y-26617D01*
X208082Y-26631D01*
X208159Y-26652D01*
X208228Y-26673D01*
X208294Y-26697D01*
X208353Y-26725D01*
X208405Y-26753D01*
X208454Y-26777D01*
X208495Y-26805D01*
X208530Y-26829D01*
X208561Y-26850D01*
X208582Y-26867D01*
X208599Y-26885D01*
X208610Y-26891D01*
X208613Y-26895D01*
X208665Y-26950D01*
X208707Y-27009D01*
X208745Y-27072D01*
X208780Y-27134D01*
X208807Y-27200D01*
X208832Y-27263D01*
X208849Y-27325D01*
X208867Y-27384D01*
X208877Y-27443D01*
X208887Y-27495D01*
X208891Y-27540D01*
X208898Y-27582D01*
Y-27617D01*
X208901Y-27641D01*
Y-27662D01*
X208898Y-27773D01*
X208884Y-27874D01*
X208867Y-27964D01*
X208856Y-28005D01*
X208842Y-28040D01*
X208832Y-28075D01*
X208821Y-28102D01*
X208815Y-28130D01*
X208804Y-28151D01*
X208797Y-28168D01*
X208790Y-28179D01*
X208787Y-28186D01*
Y-28189D01*
X208738Y-28266D01*
X208683Y-28335D01*
X208627Y-28394D01*
X208572Y-28446D01*
X208523Y-28484D01*
X208481Y-28512D01*
X208468Y-28522D01*
X208457Y-28529D01*
X208450Y-28536D01*
X208447D01*
X208360Y-28578D01*
X208277Y-28609D01*
X208193Y-28633D01*
X208117Y-28647D01*
X208082Y-28654D01*
X208051Y-28658D01*
X208023Y-28661D01*
X207999D01*
X207982Y-28665D01*
X207964D01*
X207957D01*
X207954D01*
X207853Y-28658D01*
X207767Y-28644D01*
X207687Y-28626D01*
X207617Y-28602D01*
X207586Y-28592D01*
X207562Y-28578D01*
X207538Y-28567D01*
X207520Y-28561D01*
X207506Y-28550D01*
X207496Y-28547D01*
X207489Y-28540D01*
X207486D01*
X207416Y-28491D01*
X207354Y-28432D01*
X207298Y-28373D01*
X207253Y-28314D01*
X207215Y-28262D01*
X207201Y-28241D01*
X207187Y-28220D01*
X207180Y-28207D01*
X207173Y-28193D01*
X207166Y-28186D01*
Y-28182D01*
X207152Y-28151D01*
X207135Y-28113D01*
X207118Y-28075D01*
X207104Y-28033D01*
X207072Y-27943D01*
X207041Y-27856D01*
X207031Y-27814D01*
X207017Y-27773D01*
X207007Y-27738D01*
X206996Y-27707D01*
X206989Y-27679D01*
X206982Y-27662D01*
X206979Y-27648D01*
Y-27645D01*
X206958Y-27575D01*
X206937Y-27509D01*
X206920Y-27454D01*
X206899Y-27402D01*
X206882Y-27353D01*
X206864Y-27311D01*
X206847Y-27277D01*
X206833Y-27245D01*
X206819Y-27221D01*
X206805Y-27197D01*
X206795Y-27180D01*
X206785Y-27166D01*
X206778Y-27155D01*
X206771Y-27148D01*
X206767Y-27141D01*
X206722Y-27103D01*
X206674Y-27079D01*
X206625Y-27058D01*
X206576Y-27044D01*
X206535Y-27037D01*
X206500Y-27034D01*
X206486Y-27030D01*
X206476D01*
X206472D01*
X206469D01*
X206431Y-27034D01*
X206396Y-27037D01*
X206330Y-27055D01*
X206271Y-27079D01*
X206222Y-27107D01*
X206184Y-27134D01*
X206156Y-27159D01*
X206139Y-27176D01*
X206132Y-27183D01*
X206087Y-27245D01*
X206056Y-27318D01*
X206031Y-27391D01*
X206018Y-27464D01*
X206007Y-27527D01*
X206004Y-27554D01*
Y-27579D01*
X206000Y-27599D01*
Y-27679D01*
X206007Y-27728D01*
X206025Y-27818D01*
X206049Y-27894D01*
X206073Y-27957D01*
X206101Y-28005D01*
X206115Y-28026D01*
X206125Y-28043D01*
X206136Y-28054D01*
X206143Y-28064D01*
X206146Y-28071D01*
X206150D01*
X206181Y-28099D01*
X206212Y-28127D01*
X206285Y-28168D01*
X206361Y-28200D01*
X206434Y-28224D01*
X206504Y-28241D01*
X206531Y-28248D01*
X206556Y-28252D01*
X206576Y-28255D01*
X206594Y-28259D01*
X206604D01*
X206608D01*
X206576Y-28588D01*
X206472Y-28581D01*
X206375Y-28564D01*
X206292Y-28543D01*
X206219Y-28519D01*
X206188Y-28508D01*
X206160Y-28495D01*
X206136Y-28484D01*
X206115Y-28477D01*
X206098Y-28467D01*
X206087Y-28463D01*
X206080Y-28457D01*
X206077D01*
X206000Y-28408D01*
X205934Y-28356D01*
X205879Y-28297D01*
X205830Y-28245D01*
X205796Y-28196D01*
X205768Y-28155D01*
X205757Y-28141D01*
X205754Y-28130D01*
X205747Y-28123D01*
Y-28120D01*
X205709Y-28037D01*
X205681Y-27950D01*
X205660Y-27867D01*
X205646Y-27787D01*
X205643Y-27752D01*
X205639Y-27721D01*
X205636Y-27690D01*
X205632Y-27665D01*
Y-27617D01*
X205636Y-27540D01*
X205643Y-27468D01*
X205657Y-27398D01*
X205671Y-27336D01*
X205688Y-27277D01*
X205709Y-27221D01*
X205733Y-27169D01*
X205754Y-27124D01*
X205778Y-27082D01*
X205802Y-27048D01*
X205823Y-27016D01*
X205841Y-26992D01*
X205855Y-26971D01*
X205868Y-26957D01*
X205875Y-26950D01*
X205879Y-26947D01*
X205927Y-26905D01*
X205976Y-26867D01*
X206028Y-26833D01*
X206080Y-26805D01*
X206132Y-26781D01*
X206184Y-26760D01*
X206233Y-26746D01*
X206281Y-26732D01*
X206327Y-26722D01*
X206368Y-26715D01*
X206406Y-26708D01*
X206441Y-26704D01*
X206465Y-26701D01*
X206486D01*
X206500D01*
X206504D01*
X206583Y-26704D01*
X206653Y-26715D01*
X206719Y-26728D01*
X206778Y-26742D01*
X206823Y-26756D01*
X206857Y-26770D01*
X206871Y-26777D01*
X206882Y-26781D01*
X206885Y-26784D01*
X206889D01*
X206948Y-26819D01*
X207003Y-26860D01*
X207048Y-26898D01*
X207090Y-26937D01*
X207121Y-26971D01*
X207145Y-27003D01*
X207159Y-27020D01*
X207166Y-27027D01*
X207187Y-27058D01*
X207208Y-27093D01*
X207246Y-27173D01*
X207284Y-27259D01*
X207315Y-27346D01*
X207329Y-27388D01*
X207343Y-27422D01*
X207357Y-27457D01*
X207364Y-27488D01*
X207374Y-27513D01*
X207381Y-27530D01*
X207385Y-27544D01*
Y-27547D01*
X207406Y-27620D01*
X207427Y-27690D01*
X207447Y-27749D01*
X207465Y-27804D01*
X207482Y-27853D01*
X207499Y-27898D01*
X207513Y-27936D01*
X207527Y-27971D01*
X207538Y-27998D01*
X207548Y-28023D01*
X207555Y-28040D01*
X207562Y-28057D01*
X207569Y-28068D01*
X207572Y-28075D01*
X207576Y-28082D01*
X207604Y-28127D01*
X207631Y-28165D01*
X207659Y-28196D01*
X207687Y-28224D01*
X207708Y-28241D01*
X207728Y-28259D01*
X207742Y-28266D01*
X207746Y-28269D01*
X207787Y-28290D01*
X207829Y-28304D01*
X207867Y-28318D01*
X207905Y-28325D01*
X207940Y-28328D01*
X207964Y-28332D01*
X207982D01*
X207989D01*
X208034Y-28328D01*
X208075Y-28325D01*
X208152Y-28304D01*
X208218Y-28280D01*
X208273Y-28248D01*
X208318Y-28217D01*
X208349Y-28189D01*
X208370Y-28168D01*
X208374Y-28165D01*
X208377Y-28161D01*
X208426Y-28092D01*
X208460Y-28016D01*
X208488Y-27936D01*
X208506Y-27860D01*
X208516Y-27790D01*
X208520Y-27762D01*
Y-27738D01*
X208523Y-27714D01*
Y-27686D01*
X208520Y-27606D01*
X208509Y-27537D01*
X208495Y-27471D01*
X208478Y-27412D01*
X208464Y-27367D01*
X208450Y-27332D01*
X208443Y-27318D01*
X208440Y-27308D01*
X208436Y-27304D01*
Y-27301D01*
X208401Y-27242D01*
X208363Y-27186D01*
X208325Y-27141D01*
X208287Y-27107D01*
X208256Y-27075D01*
X208228Y-27055D01*
X208211Y-27041D01*
X208204Y-27037D01*
X208145Y-27006D01*
X208079Y-26982D01*
X208009Y-26961D01*
X207944Y-26947D01*
X207885Y-26937D01*
X207860Y-26930D01*
X207836D01*
X207819Y-26926D01*
X207805Y-26923D01*
X207798D01*
X207794D01*
X207825Y-26600D01*
X207916Y-26603D01*
D02*
G37*
G36*
X208849Y-30056D02*
X208846Y-30129D01*
X208842Y-30198D01*
X208835Y-30264D01*
X208825Y-30327D01*
X208815Y-30382D01*
X208801Y-30434D01*
X208787Y-30483D01*
X208769Y-30528D01*
X208755Y-30570D01*
X208742Y-30604D01*
X208728Y-30632D01*
X208717Y-30656D01*
X208707Y-30677D01*
X208700Y-30691D01*
X208693Y-30698D01*
Y-30702D01*
X208662Y-30747D01*
X208627Y-30788D01*
X208544Y-30868D01*
X208457Y-30937D01*
X208370Y-30997D01*
X208329Y-31021D01*
X208291Y-31042D01*
X208256Y-31059D01*
X208225Y-31076D01*
X208200Y-31087D01*
X208183Y-31097D01*
X208169Y-31104D01*
X208166D01*
X208093Y-31132D01*
X208020Y-31156D01*
X207864Y-31198D01*
X207711Y-31225D01*
X207638Y-31236D01*
X207569Y-31243D01*
X207503Y-31250D01*
X207444Y-31257D01*
X207388Y-31260D01*
X207343D01*
X207305Y-31264D01*
X207277D01*
X207260D01*
X207253D01*
X207100Y-31260D01*
X207031Y-31257D01*
X206961Y-31250D01*
X206899Y-31243D01*
X206840Y-31233D01*
X206785Y-31225D01*
X206736Y-31219D01*
X206687Y-31208D01*
X206649Y-31201D01*
X206614Y-31191D01*
X206583Y-31184D01*
X206562Y-31180D01*
X206545Y-31174D01*
X206535Y-31170D01*
X206531D01*
X206420Y-31132D01*
X206323Y-31090D01*
X206236Y-31045D01*
X206198Y-31024D01*
X206163Y-31003D01*
X206132Y-30986D01*
X206104Y-30969D01*
X206080Y-30951D01*
X206059Y-30937D01*
X206045Y-30927D01*
X206035Y-30917D01*
X206028Y-30913D01*
X206025Y-30910D01*
X205955Y-30847D01*
X205896Y-30781D01*
X205848Y-30715D01*
X205809Y-30653D01*
X205782Y-30597D01*
X205771Y-30577D01*
X205761Y-30556D01*
X205754Y-30538D01*
X205750Y-30528D01*
X205747Y-30521D01*
Y-30518D01*
X205737Y-30483D01*
X205726Y-30448D01*
X205712Y-30368D01*
X205702Y-30285D01*
X205695Y-30202D01*
X205692Y-30129D01*
X205688Y-30098D01*
Y-29123D01*
X208849D01*
Y-30056D01*
D02*
G37*
G36*
Y-31819D02*
X207892Y-32100D01*
Y-33189D01*
X208849Y-33491D01*
Y-33884D01*
X205688Y-32825D01*
Y-32457D01*
X208849Y-31462D01*
Y-31819D01*
D02*
G37*
G36*
X229918Y11596D02*
X230094Y11588D01*
X230254Y11575D01*
X230402Y11555D01*
X230537Y11534D01*
X230656Y11510D01*
X230767Y11485D01*
X230861Y11461D01*
X230943Y11436D01*
X231017Y11407D01*
X231074Y11387D01*
X231123Y11366D01*
X231160Y11346D01*
X231185Y11333D01*
X231201Y11325D01*
X231206Y11321D01*
X231279Y11268D01*
X231345Y11210D01*
X231402Y11153D01*
X231452Y11092D01*
X231492Y11030D01*
X231529Y10973D01*
X231554Y10915D01*
X231579Y10858D01*
X231595Y10809D01*
X231607Y10759D01*
X231620Y10718D01*
X231624Y10682D01*
X231628Y10649D01*
X231632Y10628D01*
Y10608D01*
X231628Y10518D01*
X231611Y10431D01*
X231587Y10354D01*
X231558Y10280D01*
X231521Y10210D01*
X231480Y10149D01*
X231435Y10095D01*
X231390Y10046D01*
X231345Y10001D01*
X231300Y9964D01*
X231259Y9931D01*
X231222Y9903D01*
X231193Y9882D01*
X231169Y9870D01*
X231152Y9862D01*
X231148Y9858D01*
X231054Y9812D01*
X230947Y9775D01*
X230837Y9739D01*
X230722Y9710D01*
X230603Y9685D01*
X230488Y9665D01*
X230369Y9648D01*
X230258Y9636D01*
X230152Y9624D01*
X230049Y9616D01*
X229959Y9612D01*
X229881Y9607D01*
X229820Y9603D01*
X229791D01*
X229770D01*
X229754D01*
X229742D01*
X229734D01*
X229730D01*
X229541Y9607D01*
X229365Y9616D01*
X229205Y9632D01*
X229053Y9652D01*
X228918Y9673D01*
X228795Y9702D01*
X228680Y9726D01*
X228582Y9755D01*
X228495Y9784D01*
X228422Y9812D01*
X228356Y9841D01*
X228307Y9862D01*
X228266Y9882D01*
X228237Y9899D01*
X228221Y9907D01*
X228217Y9911D01*
X228147Y9960D01*
X228085Y10013D01*
X228032Y10067D01*
X227987Y10124D01*
X227950Y10181D01*
X227917Y10239D01*
X227893Y10296D01*
X227872Y10350D01*
X227856Y10403D01*
X227843Y10448D01*
X227835Y10489D01*
X227827Y10526D01*
Y10559D01*
X227823Y10579D01*
Y10600D01*
X227827Y10690D01*
X227843Y10776D01*
X227868Y10854D01*
X227897Y10928D01*
X227934Y10993D01*
X227975Y11055D01*
X228020Y11112D01*
X228065Y11161D01*
X228110Y11206D01*
X228155Y11243D01*
X228196Y11276D01*
X228233Y11301D01*
X228262Y11321D01*
X228286Y11338D01*
X228303Y11346D01*
X228307Y11350D01*
X228401Y11395D01*
X228508Y11432D01*
X228618Y11465D01*
X228733Y11493D01*
X228852Y11518D01*
X228971Y11539D01*
X229086Y11555D01*
X229201Y11567D01*
X229307Y11580D01*
X229406Y11588D01*
X229496Y11592D01*
X229574Y11596D01*
X229639Y11600D01*
X229664D01*
X229689D01*
X229705D01*
X229717D01*
X229725D01*
X229730D01*
X229918Y11596D01*
D02*
G37*
G36*
X231570Y8570D02*
X231050D01*
Y8997D01*
X231570D01*
Y8570D01*
D02*
G37*
G36*
X230000Y8045D02*
X230164Y8037D01*
X230316Y8021D01*
X230451Y8004D01*
X230578Y7980D01*
X230693Y7955D01*
X230796Y7926D01*
X230886Y7898D01*
X230968Y7873D01*
X231033Y7844D01*
X231091Y7820D01*
X231136Y7795D01*
X231173Y7779D01*
X231197Y7762D01*
X231214Y7754D01*
X231218Y7750D01*
X231292Y7693D01*
X231353Y7631D01*
X231411Y7570D01*
X231456Y7504D01*
X231497Y7439D01*
X231529Y7377D01*
X231558Y7316D01*
X231579Y7258D01*
X231599Y7201D01*
X231611Y7152D01*
X231620Y7102D01*
X231624Y7065D01*
X231628Y7033D01*
X231632Y7008D01*
Y6988D01*
X231624Y6893D01*
X231607Y6803D01*
X231587Y6725D01*
X231558Y6655D01*
X231534Y6598D01*
X231509Y6553D01*
X231501Y6537D01*
X231492Y6524D01*
X231488Y6520D01*
Y6516D01*
X231427Y6438D01*
X231357Y6373D01*
X231283Y6311D01*
X231210Y6262D01*
X231144Y6221D01*
X231115Y6204D01*
X231091Y6192D01*
X231070Y6180D01*
X231054Y6172D01*
X231046Y6168D01*
X231042D01*
X230923Y6122D01*
X230804Y6086D01*
X230689Y6061D01*
X230586Y6044D01*
X230537Y6040D01*
X230496Y6036D01*
X230455Y6032D01*
X230422Y6028D01*
X230398D01*
X230377D01*
X230365D01*
X230361D01*
X230258Y6032D01*
X230164Y6040D01*
X230074Y6053D01*
X229988Y6069D01*
X229910Y6094D01*
X229840Y6114D01*
X229770Y6139D01*
X229713Y6163D01*
X229660Y6192D01*
X229611Y6217D01*
X229574Y6237D01*
X229541Y6258D01*
X229512Y6278D01*
X229496Y6290D01*
X229484Y6299D01*
X229479Y6303D01*
X229422Y6356D01*
X229369Y6409D01*
X229324Y6463D01*
X229287Y6516D01*
X229254Y6569D01*
X229229Y6623D01*
X229205Y6672D01*
X229188Y6721D01*
X229176Y6766D01*
X229164Y6807D01*
X229155Y6844D01*
X229151Y6873D01*
Y6897D01*
X229147Y6918D01*
Y6934D01*
X229151Y7016D01*
X229168Y7094D01*
X229188Y7164D01*
X229209Y7225D01*
X229233Y7279D01*
X229254Y7320D01*
X229262Y7332D01*
X229270Y7344D01*
X229274Y7348D01*
Y7352D01*
X229328Y7422D01*
X229385Y7484D01*
X229447Y7541D01*
X229508Y7586D01*
X229561Y7623D01*
X229607Y7652D01*
X229623Y7664D01*
X229635Y7672D01*
X229643Y7676D01*
X229520Y7672D01*
X229406Y7668D01*
X229295Y7660D01*
X229197Y7648D01*
X229102Y7635D01*
X229016Y7619D01*
X228938Y7603D01*
X228869Y7590D01*
X228811Y7574D01*
X228758Y7557D01*
X228713Y7545D01*
X228676Y7529D01*
X228647Y7520D01*
X228627Y7512D01*
X228614Y7504D01*
X228610D01*
X228536Y7467D01*
X228475Y7426D01*
X228422Y7381D01*
X228372Y7340D01*
X228331Y7295D01*
X228299Y7250D01*
X228274Y7209D01*
X228249Y7168D01*
X228233Y7131D01*
X228221Y7094D01*
X228212Y7061D01*
X228208Y7033D01*
X228204Y7012D01*
X228200Y6992D01*
Y6938D01*
X228208Y6901D01*
X228229Y6832D01*
X228258Y6770D01*
X228290Y6717D01*
X228323Y6676D01*
X228352Y6643D01*
X228372Y6627D01*
X228377Y6618D01*
X228381D01*
X228434Y6582D01*
X228495Y6549D01*
X228561Y6520D01*
X228631Y6500D01*
X228692Y6479D01*
X228741Y6467D01*
X228758Y6463D01*
X228774D01*
X228782Y6459D01*
X228786D01*
X228750Y6086D01*
X228668Y6098D01*
X228590Y6114D01*
X228520Y6131D01*
X228450Y6155D01*
X228389Y6176D01*
X228331Y6200D01*
X228282Y6225D01*
X228237Y6250D01*
X228196Y6274D01*
X228159Y6299D01*
X228131Y6319D01*
X228106Y6340D01*
X228085Y6356D01*
X228073Y6364D01*
X228065Y6373D01*
X228061Y6377D01*
X228020Y6422D01*
X227983Y6467D01*
X227950Y6516D01*
X227921Y6565D01*
X227901Y6614D01*
X227880Y6664D01*
X227852Y6754D01*
X227835Y6832D01*
X227831Y6869D01*
X227827Y6897D01*
X227823Y6922D01*
Y6955D01*
X227827Y7045D01*
X227843Y7127D01*
X227864Y7209D01*
X227897Y7283D01*
X227930Y7352D01*
X227971Y7418D01*
X228012Y7475D01*
X228053Y7533D01*
X228098Y7582D01*
X228139Y7623D01*
X228180Y7660D01*
X228212Y7689D01*
X228245Y7713D01*
X228266Y7734D01*
X228282Y7742D01*
X228286Y7746D01*
X228381Y7799D01*
X228483Y7844D01*
X228598Y7885D01*
X228721Y7922D01*
X228848Y7951D01*
X228975Y7976D01*
X229102Y7996D01*
X229225Y8012D01*
X229348Y8025D01*
X229459Y8033D01*
X229561Y8041D01*
X229647Y8045D01*
X229689D01*
X229721D01*
X229750Y8049D01*
X229775D01*
X229795D01*
X229812D01*
X229820D01*
X229824D01*
X230000Y8045D01*
D02*
G37*
G36*
Y5667D02*
X230164Y5659D01*
X230316Y5643D01*
X230451Y5626D01*
X230578Y5602D01*
X230693Y5577D01*
X230796Y5548D01*
X230886Y5520D01*
X230968Y5495D01*
X231033Y5466D01*
X231091Y5442D01*
X231136Y5417D01*
X231173Y5401D01*
X231197Y5384D01*
X231214Y5376D01*
X231218Y5372D01*
X231292Y5315D01*
X231353Y5253D01*
X231411Y5192D01*
X231456Y5126D01*
X231497Y5060D01*
X231529Y4999D01*
X231558Y4938D01*
X231579Y4880D01*
X231599Y4823D01*
X231611Y4773D01*
X231620Y4724D01*
X231624Y4687D01*
X231628Y4655D01*
X231632Y4630D01*
Y4609D01*
X231624Y4515D01*
X231607Y4425D01*
X231587Y4347D01*
X231558Y4277D01*
X231534Y4220D01*
X231509Y4175D01*
X231501Y4158D01*
X231492Y4146D01*
X231488Y4142D01*
Y4138D01*
X231427Y4060D01*
X231357Y3994D01*
X231283Y3933D01*
X231210Y3884D01*
X231144Y3843D01*
X231115Y3826D01*
X231091Y3814D01*
X231070Y3802D01*
X231054Y3794D01*
X231046Y3790D01*
X231042D01*
X230923Y3744D01*
X230804Y3708D01*
X230689Y3683D01*
X230586Y3667D01*
X230537Y3662D01*
X230496Y3658D01*
X230455Y3654D01*
X230422Y3650D01*
X230398D01*
X230377D01*
X230365D01*
X230361D01*
X230258Y3654D01*
X230164Y3662D01*
X230074Y3675D01*
X229988Y3691D01*
X229910Y3716D01*
X229840Y3736D01*
X229770Y3761D01*
X229713Y3785D01*
X229660Y3814D01*
X229611Y3839D01*
X229574Y3859D01*
X229541Y3880D01*
X229512Y3900D01*
X229496Y3912D01*
X229484Y3921D01*
X229479Y3925D01*
X229422Y3978D01*
X229369Y4031D01*
X229324Y4085D01*
X229287Y4138D01*
X229254Y4191D01*
X229229Y4245D01*
X229205Y4294D01*
X229188Y4343D01*
X229176Y4388D01*
X229164Y4429D01*
X229155Y4466D01*
X229151Y4495D01*
Y4519D01*
X229147Y4540D01*
Y4556D01*
X229151Y4638D01*
X229168Y4716D01*
X229188Y4786D01*
X229209Y4847D01*
X229233Y4901D01*
X229254Y4942D01*
X229262Y4954D01*
X229270Y4966D01*
X229274Y4970D01*
Y4974D01*
X229328Y5044D01*
X229385Y5106D01*
X229447Y5163D01*
X229508Y5208D01*
X229561Y5245D01*
X229607Y5274D01*
X229623Y5286D01*
X229635Y5294D01*
X229643Y5298D01*
X229520Y5294D01*
X229406Y5290D01*
X229295Y5282D01*
X229197Y5270D01*
X229102Y5257D01*
X229016Y5241D01*
X228938Y5224D01*
X228869Y5212D01*
X228811Y5196D01*
X228758Y5179D01*
X228713Y5167D01*
X228676Y5151D01*
X228647Y5142D01*
X228627Y5134D01*
X228614Y5126D01*
X228610D01*
X228536Y5089D01*
X228475Y5048D01*
X228422Y5003D01*
X228372Y4962D01*
X228331Y4917D01*
X228299Y4872D01*
X228274Y4831D01*
X228249Y4790D01*
X228233Y4753D01*
X228221Y4716D01*
X228212Y4683D01*
X228208Y4655D01*
X228204Y4634D01*
X228200Y4614D01*
Y4560D01*
X228208Y4523D01*
X228229Y4454D01*
X228258Y4392D01*
X228290Y4339D01*
X228323Y4298D01*
X228352Y4265D01*
X228372Y4249D01*
X228377Y4241D01*
X228381D01*
X228434Y4204D01*
X228495Y4171D01*
X228561Y4142D01*
X228631Y4122D01*
X228692Y4101D01*
X228741Y4089D01*
X228758Y4085D01*
X228774D01*
X228782Y4081D01*
X228786D01*
X228750Y3708D01*
X228668Y3720D01*
X228590Y3736D01*
X228520Y3753D01*
X228450Y3777D01*
X228389Y3798D01*
X228331Y3822D01*
X228282Y3847D01*
X228237Y3872D01*
X228196Y3896D01*
X228159Y3921D01*
X228131Y3941D01*
X228106Y3962D01*
X228085Y3978D01*
X228073Y3986D01*
X228065Y3994D01*
X228061Y3999D01*
X228020Y4044D01*
X227983Y4089D01*
X227950Y4138D01*
X227921Y4187D01*
X227901Y4236D01*
X227880Y4286D01*
X227852Y4376D01*
X227835Y4454D01*
X227831Y4491D01*
X227827Y4519D01*
X227823Y4544D01*
Y4577D01*
X227827Y4667D01*
X227843Y4749D01*
X227864Y4831D01*
X227897Y4905D01*
X227930Y4974D01*
X227971Y5040D01*
X228012Y5097D01*
X228053Y5155D01*
X228098Y5204D01*
X228139Y5245D01*
X228180Y5282D01*
X228212Y5311D01*
X228245Y5335D01*
X228266Y5356D01*
X228282Y5364D01*
X228286Y5368D01*
X228381Y5421D01*
X228483Y5466D01*
X228598Y5507D01*
X228721Y5544D01*
X228848Y5573D01*
X228975Y5598D01*
X229102Y5618D01*
X229225Y5635D01*
X229348Y5647D01*
X229459Y5655D01*
X229561Y5663D01*
X229647Y5667D01*
X229689D01*
X229721D01*
X229750Y5671D01*
X229775D01*
X229795D01*
X229812D01*
X229820D01*
X229824D01*
X230000Y5667D01*
D02*
G37*
G36*
X229484Y2174D02*
X229598Y2092D01*
X229697Y2026D01*
X229742Y1998D01*
X229779Y1973D01*
X229816Y1953D01*
X229848Y1932D01*
X229873Y1916D01*
X229893Y1904D01*
X229910Y1891D01*
X229926Y1883D01*
X229930Y1879D01*
X229935D01*
X230016Y1834D01*
X230094Y1793D01*
X230172Y1760D01*
X230242Y1731D01*
X230304Y1707D01*
X230349Y1690D01*
X230365Y1682D01*
X230377Y1678D01*
X230385Y1674D01*
X230390D01*
X230443Y1649D01*
X230484Y1629D01*
X230513Y1608D01*
X230533Y1588D01*
X230545Y1575D01*
X230550Y1563D01*
X230554Y1555D01*
Y1551D01*
X230550Y1534D01*
X230541Y1518D01*
X230517Y1481D01*
X230504Y1465D01*
X230496Y1453D01*
X230488Y1444D01*
X230484Y1440D01*
X230451Y1416D01*
X230414Y1395D01*
X230340Y1371D01*
X230304Y1358D01*
X230275Y1354D01*
X230258Y1350D01*
X230250D01*
X230189D01*
X230123Y1362D01*
X230062Y1383D01*
X230004Y1407D01*
X229955Y1436D01*
X229914Y1457D01*
X229889Y1473D01*
X229885Y1481D01*
X229881D01*
X229840Y1514D01*
X229795Y1555D01*
X229750Y1604D01*
X229701Y1662D01*
X229652Y1719D01*
X229602Y1781D01*
X229508Y1908D01*
X229463Y1969D01*
X229422Y2026D01*
X229385Y2080D01*
X229352Y2129D01*
X229328Y2166D01*
X229307Y2199D01*
X229295Y2215D01*
X229291Y2223D01*
X229352Y2264D01*
X229484Y2174D01*
D02*
G37*
G36*
X228963Y2978D02*
X228942Y2892D01*
X228926Y2810D01*
X228918Y2728D01*
X228909Y2650D01*
X228905Y2584D01*
X228901Y2560D01*
Y288D01*
X231308D01*
X231349D01*
X231390Y292D01*
X231423Y300D01*
X231452Y309D01*
X231472Y321D01*
X231497Y329D01*
X231525Y354D01*
X231546Y382D01*
X231558Y403D01*
X231562Y419D01*
Y497D01*
X231558Y546D01*
X231554Y604D01*
X231550Y669D01*
X231542Y735D01*
X231529Y874D01*
X231521Y944D01*
X231513Y1006D01*
X231509Y1067D01*
X231501Y1120D01*
X231497Y1166D01*
X231492Y1198D01*
X231488Y1219D01*
Y1227D01*
X231587D01*
X231607Y1161D01*
X231628Y1096D01*
X231673Y985D01*
X231718Y887D01*
X231763Y801D01*
X231804Y727D01*
X231849Y665D01*
X231890Y616D01*
X231927Y575D01*
X231964Y542D01*
X231997Y518D01*
X232026Y501D01*
X232050Y489D01*
X232071Y481D01*
X232087Y477D01*
X232095Y473D01*
X232099D01*
X232066Y391D01*
X232030Y317D01*
X231989Y255D01*
X231943Y198D01*
X231898Y153D01*
X231853Y112D01*
X231808Y79D01*
X231763Y54D01*
X231722Y34D01*
X231681Y17D01*
X231644Y5D01*
X231611Y-3D01*
X231587Y-11D01*
X231566Y-15D01*
X231554D01*
X231550D01*
X228901D01*
Y-1483D01*
X228475Y-1057D01*
X228782Y-749D01*
Y-15D01*
X227725D01*
X227561Y-220D01*
X227315Y309D01*
X227429Y300D01*
X227544Y296D01*
X227651Y292D01*
X227745D01*
X227790Y288D01*
X227827D01*
X227860D01*
X227889D01*
X227913D01*
X227930D01*
X227942D01*
X227946D01*
X228782D01*
Y3162D01*
X228963Y2978D01*
D02*
G37*
G36*
X229893Y-1991D02*
X230025Y-2004D01*
X230152Y-2020D01*
X230275Y-2045D01*
X230385Y-2073D01*
X230492Y-2106D01*
X230591Y-2139D01*
X230681Y-2176D01*
X230763Y-2209D01*
X230832Y-2242D01*
X230894Y-2274D01*
X230947Y-2303D01*
X230988Y-2328D01*
X231017Y-2344D01*
X231033Y-2356D01*
X231042Y-2361D01*
X231144Y-2438D01*
X231234Y-2524D01*
X231316Y-2615D01*
X231382Y-2705D01*
X231439Y-2795D01*
X231488Y-2885D01*
X231525Y-2976D01*
X231558Y-3062D01*
X231583Y-3139D01*
X231599Y-3213D01*
X231615Y-3279D01*
X231624Y-3340D01*
X231628Y-3385D01*
X231632Y-3422D01*
Y-3451D01*
X231624Y-3574D01*
X231607Y-3689D01*
X231579Y-3800D01*
X231542Y-3902D01*
X231497Y-4000D01*
X231452Y-4091D01*
X231398Y-4173D01*
X231345Y-4247D01*
X231292Y-4312D01*
X231238Y-4369D01*
X231189Y-4419D01*
X231148Y-4464D01*
X231111Y-4497D01*
X231083Y-4517D01*
X231066Y-4533D01*
X231058Y-4538D01*
X230955Y-4603D01*
X230849Y-4661D01*
X230738Y-4714D01*
X230627Y-4755D01*
X230513Y-4792D01*
X230402Y-4825D01*
X230291Y-4849D01*
X230185Y-4870D01*
X230086Y-4882D01*
X229996Y-4894D01*
X229914Y-4902D01*
X229844Y-4911D01*
X229787D01*
X229742Y-4915D01*
X229725D01*
X229713D01*
X229709D01*
X229705D01*
X229594Y-4911D01*
X229488Y-4907D01*
X229385Y-4898D01*
X229287Y-4886D01*
X229197Y-4870D01*
X229110Y-4853D01*
X229032Y-4837D01*
X228959Y-4816D01*
X228893Y-4800D01*
X228836Y-4780D01*
X228786Y-4763D01*
X228746Y-4751D01*
X228713Y-4734D01*
X228688Y-4726D01*
X228672Y-4722D01*
X228668Y-4718D01*
X228590Y-4681D01*
X228512Y-4640D01*
X228442Y-4599D01*
X228377Y-4554D01*
X228319Y-4509D01*
X228262Y-4468D01*
X228212Y-4423D01*
X228167Y-4382D01*
X228131Y-4341D01*
X228094Y-4304D01*
X228065Y-4271D01*
X228040Y-4247D01*
X228024Y-4222D01*
X228012Y-4205D01*
X228003Y-4193D01*
X227999Y-4189D01*
X227958Y-4128D01*
X227921Y-4062D01*
X227893Y-3996D01*
X227868Y-3935D01*
X227827Y-3808D01*
X227798Y-3697D01*
X227790Y-3644D01*
X227782Y-3599D01*
X227778Y-3554D01*
X227774Y-3521D01*
X227770Y-3492D01*
Y-3451D01*
X227774Y-3336D01*
X227790Y-3226D01*
X227819Y-3123D01*
X227852Y-3025D01*
X227889Y-2930D01*
X227934Y-2844D01*
X227979Y-2766D01*
X228028Y-2693D01*
X228077Y-2627D01*
X228122Y-2570D01*
X228167Y-2520D01*
X228204Y-2479D01*
X228237Y-2447D01*
X228266Y-2426D01*
X228282Y-2410D01*
X228286Y-2406D01*
X228389Y-2332D01*
X228495Y-2266D01*
X228610Y-2213D01*
X228733Y-2164D01*
X228852Y-2123D01*
X228975Y-2090D01*
X229094Y-2061D01*
X229213Y-2041D01*
X229324Y-2024D01*
X229426Y-2008D01*
X229516Y-2000D01*
X229598Y-1996D01*
X229664Y-1991D01*
X229689Y-1987D01*
X229713D01*
X229730D01*
X229742D01*
X229750D01*
X229754D01*
X229893Y-1991D01*
D02*
G37*
G36*
X231570Y-7317D02*
X231132D01*
Y-5813D01*
X227835D01*
Y-5407D01*
X231570D01*
Y-7317D01*
D02*
G37*
G36*
Y-10101D02*
X231132D01*
Y-8224D01*
X229857D01*
Y-9921D01*
X229418D01*
Y-8224D01*
X228274D01*
Y-10032D01*
X227835D01*
Y-7818D01*
X231570D01*
Y-10101D01*
D02*
G37*
G36*
Y-11754D02*
X231566Y-11840D01*
X231562Y-11922D01*
X231554Y-12000D01*
X231542Y-12073D01*
X231529Y-12139D01*
X231513Y-12201D01*
X231497Y-12258D01*
X231476Y-12311D01*
X231460Y-12360D01*
X231443Y-12401D01*
X231427Y-12434D01*
X231415Y-12463D01*
X231402Y-12488D01*
X231394Y-12504D01*
X231386Y-12512D01*
Y-12516D01*
X231349Y-12570D01*
X231308Y-12619D01*
X231210Y-12713D01*
X231107Y-12795D01*
X231005Y-12865D01*
X230955Y-12893D01*
X230910Y-12918D01*
X230869Y-12938D01*
X230832Y-12959D01*
X230804Y-12971D01*
X230783Y-12984D01*
X230767Y-12992D01*
X230763D01*
X230677Y-13025D01*
X230591Y-13053D01*
X230406Y-13103D01*
X230226Y-13135D01*
X230139Y-13148D01*
X230058Y-13156D01*
X229980Y-13164D01*
X229910Y-13172D01*
X229844Y-13176D01*
X229791D01*
X229746Y-13180D01*
X229713D01*
X229693D01*
X229684D01*
X229504Y-13176D01*
X229422Y-13172D01*
X229340Y-13164D01*
X229266Y-13156D01*
X229197Y-13144D01*
X229131Y-13135D01*
X229074Y-13127D01*
X229016Y-13115D01*
X228971Y-13107D01*
X228930Y-13094D01*
X228893Y-13086D01*
X228869Y-13082D01*
X228848Y-13074D01*
X228836Y-13070D01*
X228832D01*
X228700Y-13025D01*
X228586Y-12975D01*
X228483Y-12922D01*
X228438Y-12898D01*
X228397Y-12873D01*
X228360Y-12852D01*
X228327Y-12832D01*
X228299Y-12811D01*
X228274Y-12795D01*
X228258Y-12783D01*
X228245Y-12770D01*
X228237Y-12766D01*
X228233Y-12762D01*
X228151Y-12688D01*
X228081Y-12610D01*
X228024Y-12533D01*
X227979Y-12459D01*
X227946Y-12393D01*
X227934Y-12369D01*
X227921Y-12344D01*
X227913Y-12324D01*
X227909Y-12311D01*
X227905Y-12303D01*
Y-12299D01*
X227893Y-12258D01*
X227880Y-12217D01*
X227864Y-12123D01*
X227852Y-12024D01*
X227843Y-11926D01*
X227839Y-11840D01*
X227835Y-11803D01*
Y-10651D01*
X231570D01*
Y-11754D01*
D02*
G37*
%LPC*%
G36*
X126253Y3460D02*
X126206D01*
X126158Y3452D01*
X126087D01*
X126000Y3444D01*
X125897Y3429D01*
X125786Y3405D01*
X125659Y3381D01*
X125533Y3349D01*
X125390Y3302D01*
X125248Y3254D01*
X125105Y3191D01*
X124962Y3120D01*
X124820Y3032D01*
X124685Y2929D01*
X124550Y2819D01*
X124543Y2811D01*
X124519Y2787D01*
X124487Y2755D01*
X124440Y2708D01*
X124392Y2644D01*
X124329Y2565D01*
X124265Y2486D01*
X124202Y2383D01*
X124139Y2272D01*
X124075Y2153D01*
X124012Y2027D01*
X123964Y1884D01*
X123917Y1742D01*
X123885Y1583D01*
X123862Y1417D01*
X123854Y1243D01*
Y3460D01*
Y-3438D01*
X128629D01*
D01*
X126301D01*
X126348Y-3430D01*
X126420D01*
X126515Y-3422D01*
X126610Y-3407D01*
X126728Y-3383D01*
X126847Y-3359D01*
X126982Y-3327D01*
X127117Y-3288D01*
X127259Y-3232D01*
X127402Y-3177D01*
X127544Y-3105D01*
X127687Y-3018D01*
X127822Y-2923D01*
X127956Y-2812D01*
X127964Y-2805D01*
X127988Y-2781D01*
X128019Y-2749D01*
X128059Y-2702D01*
X128114Y-2638D01*
X128170Y-2559D01*
X128233Y-2472D01*
X128289Y-2377D01*
X128352Y-2266D01*
X128416Y-2147D01*
X128471Y-2021D01*
X128526Y-1878D01*
X128566Y-1727D01*
X128598Y-1569D01*
X128621Y-1403D01*
X128629Y-1228D01*
Y1282D01*
X128621Y1338D01*
Y1401D01*
X128606Y1480D01*
X128590Y1575D01*
X128574Y1678D01*
X128542Y1797D01*
X128510Y1916D01*
X128463Y2042D01*
X128408Y2169D01*
X128344Y2304D01*
X128265Y2438D01*
X128178Y2573D01*
X128075Y2700D01*
X127956Y2819D01*
X127948Y2827D01*
X127924Y2850D01*
X127885Y2882D01*
X127837Y2922D01*
X127766Y2969D01*
X127687Y3025D01*
X127592Y3080D01*
X127489Y3143D01*
X127370Y3199D01*
X127243Y3254D01*
X127101Y3310D01*
X126950Y3357D01*
X126792Y3405D01*
X126618Y3436D01*
X126443Y3452D01*
X126253Y3460D01*
D02*
G37*
G36*
X79335Y3349D02*
X77870D01*
X77775Y3341D01*
X77672D01*
X77561Y3333D01*
X77316Y3318D01*
X77062Y3302D01*
X76809Y3270D01*
X76698Y3254D01*
X76587Y3230D01*
X76579D01*
X76563Y3223D01*
X76532Y3215D01*
X76492Y3207D01*
X76444Y3191D01*
X76389Y3175D01*
X76254Y3135D01*
X76096Y3080D01*
X75930Y3017D01*
X75755Y2929D01*
X75589Y2834D01*
X75581Y2826D01*
X75557Y2811D01*
X75518Y2787D01*
X75462Y2747D01*
X75399Y2700D01*
X75320Y2644D01*
X75241Y2573D01*
X75146Y2502D01*
X75050Y2415D01*
X74955Y2328D01*
X74853Y2225D01*
X74757Y2114D01*
X74567Y1876D01*
X74472Y1749D01*
X74393Y1615D01*
X74385Y1607D01*
X74377Y1583D01*
X74354Y1543D01*
X74330Y1488D01*
X74290Y1417D01*
X74259Y1338D01*
X74219Y1242D01*
X74179Y1140D01*
X74140Y1021D01*
X74100Y902D01*
X74060Y767D01*
X74029Y633D01*
X73981Y332D01*
X73973Y173D01*
X73966Y15D01*
Y3349D01*
D01*
D01*
Y-3319D01*
D01*
Y-64D01*
X73973Y-128D01*
Y-199D01*
X73989Y-286D01*
X73997Y-381D01*
X74013Y-492D01*
X74037Y-603D01*
X74060Y-729D01*
X74132Y-991D01*
X74171Y-1125D01*
X74227Y-1260D01*
X74282Y-1403D01*
X74354Y-1537D01*
X74361Y-1545D01*
X74369Y-1569D01*
X74393Y-1609D01*
X74425Y-1656D01*
X74464Y-1719D01*
X74512Y-1791D01*
X74567Y-1870D01*
X74631Y-1957D01*
X74710Y-2052D01*
X74789Y-2147D01*
X74876Y-2250D01*
X74971Y-2353D01*
X75193Y-2559D01*
X75439Y-2749D01*
X75446D01*
X75454Y-2757D01*
X75478Y-2773D01*
X75502Y-2789D01*
X75581Y-2836D01*
X75684Y-2900D01*
X75811Y-2963D01*
X75961Y-3026D01*
X76128Y-3098D01*
X76310Y-3153D01*
X76318D01*
X76334Y-3161D01*
X76357Y-3169D01*
X76397Y-3177D01*
X76444Y-3185D01*
X76500Y-3201D01*
X76563Y-3216D01*
X76635Y-3224D01*
X76793Y-3256D01*
X76983Y-3280D01*
X77197Y-3303D01*
X77419Y-3319D01*
D01*
Y-1719D01*
X77387D01*
X77347Y-1712D01*
X77292D01*
X77228Y-1696D01*
X77149Y-1688D01*
X77062Y-1672D01*
X76975Y-1648D01*
X76777Y-1585D01*
X76674Y-1545D01*
X76563Y-1498D01*
X76460Y-1442D01*
X76357Y-1371D01*
X76262Y-1300D01*
X76167Y-1213D01*
X76159Y-1205D01*
X76143Y-1189D01*
X76120Y-1165D01*
X76088Y-1125D01*
X76056Y-1078D01*
X76009Y-1015D01*
X75969Y-951D01*
X75922Y-872D01*
X75874Y-785D01*
X75835Y-698D01*
X75787Y-595D01*
X75755Y-484D01*
X75724Y-365D01*
X75700Y-246D01*
X75684Y-112D01*
X75676Y23D01*
Y31D01*
Y55D01*
Y94D01*
X75684Y150D01*
X75692Y213D01*
X75700Y292D01*
X75716Y371D01*
X75740Y466D01*
X75803Y664D01*
X75842Y767D01*
X75890Y870D01*
X75953Y973D01*
X76025Y1076D01*
X76104Y1179D01*
X76191Y1274D01*
X76199Y1282D01*
X76215Y1298D01*
X76246Y1322D01*
X76286Y1353D01*
X76334Y1393D01*
X76397Y1433D01*
X76468Y1480D01*
X76547Y1528D01*
X76642Y1567D01*
X76737Y1615D01*
X76848Y1654D01*
X76967Y1694D01*
X77094Y1726D01*
X77228Y1749D01*
X77363Y1765D01*
X77514Y1773D01*
X77553D01*
X77593Y1765D01*
X77624D01*
X77648Y1757D01*
X77672D01*
Y-3319D01*
X77620D01*
X79335D01*
Y3349D01*
D02*
G37*
G36*
X99127D02*
X97472D01*
X96585Y-191D01*
Y-199D01*
X96577Y-223D01*
X96569Y-270D01*
X96553Y-326D01*
X96538Y-405D01*
X96522Y-492D01*
X96498Y-587D01*
X96474Y-698D01*
Y-714D01*
X96466Y-753D01*
X96450Y-817D01*
X96434Y-896D01*
X96411Y-999D01*
X96387Y-1110D01*
X96363Y-1236D01*
X96339Y-1379D01*
Y-1371D01*
X96332Y-1355D01*
Y-1331D01*
X96324Y-1300D01*
X96308Y-1213D01*
X96284Y-1102D01*
X96260Y-975D01*
X96236Y-848D01*
X96213Y-729D01*
X96197Y-619D01*
Y-603D01*
X96189Y-571D01*
X96173Y-524D01*
X96165Y-460D01*
X96134Y-318D01*
X96118Y-254D01*
X96102Y-191D01*
X95215Y3349D01*
X93552D01*
Y-3438D01*
D01*
Y3349D01*
X94914Y-1918D01*
Y-1925D01*
X94922Y-1949D01*
X94938Y-1997D01*
X94954Y-2052D01*
X94969Y-2115D01*
X94993Y-2195D01*
X95056Y-2369D01*
X95136Y-2559D01*
X95231Y-2757D01*
X95334Y-2939D01*
X95389Y-3018D01*
X95452Y-3090D01*
X95468Y-3105D01*
X95516Y-3145D01*
X95587Y-3201D01*
X95690Y-3264D01*
X95817Y-3327D01*
X95967Y-3383D01*
X96141Y-3422D01*
X96236Y-3430D01*
X96339Y-3438D01*
X93552D01*
X99127D01*
D01*
X96395D01*
X96434Y-3430D01*
X96482D01*
X96530Y-3422D01*
X96656Y-3391D01*
X96799Y-3351D01*
X96949Y-3288D01*
X97100Y-3201D01*
X97171Y-3153D01*
X97234Y-3090D01*
Y-3082D01*
X97250Y-3074D01*
X97266Y-3050D01*
X97290Y-3018D01*
X97322Y-2979D01*
X97353Y-2931D01*
X97385Y-2876D01*
X97425Y-2812D01*
X97472Y-2733D01*
X97512Y-2646D01*
X97559Y-2551D01*
X97607Y-2448D01*
X97654Y-2329D01*
X97694Y-2203D01*
X97741Y-2068D01*
X97781Y-1918D01*
X99127Y3349D01*
D02*
G37*
G36*
X132526Y3468D02*
X132407D01*
X132344Y3460D01*
X132273Y3452D01*
X132185Y3444D01*
X132090Y3436D01*
X131884Y3405D01*
X131663Y3357D01*
X131425Y3294D01*
X131180Y3207D01*
X131172D01*
X131148Y3191D01*
X131116Y3183D01*
X131069Y3159D01*
X131013Y3128D01*
X130942Y3096D01*
X130871Y3056D01*
X130784Y3009D01*
X130601Y2898D01*
X130395Y2763D01*
X130182Y2605D01*
X129960Y2423D01*
X131085Y1243D01*
X131100Y1258D01*
X131148Y1298D01*
X131219Y1353D01*
X131306Y1425D01*
X131417Y1496D01*
X131536Y1575D01*
X131663Y1654D01*
X131797Y1718D01*
X131813Y1726D01*
X131861Y1742D01*
X131932Y1765D01*
X132019Y1797D01*
X132130Y1829D01*
X132257Y1852D01*
X132391Y1868D01*
X132526Y1876D01*
X132597D01*
X132653Y1868D01*
X132716Y1860D01*
X132795Y1845D01*
X132882Y1829D01*
X132977Y1813D01*
X133175Y1742D01*
X133286Y1702D01*
X133389Y1647D01*
X133500Y1591D01*
X133603Y1512D01*
X133706Y1433D01*
X133809Y1338D01*
X133817Y1330D01*
X133833Y1314D01*
X133856Y1282D01*
X133888Y1243D01*
X133928Y1187D01*
X133975Y1132D01*
X134015Y1053D01*
X134062Y973D01*
X134118Y886D01*
X134158Y783D01*
X134205Y672D01*
X134245Y561D01*
X134276Y435D01*
X134300Y308D01*
X134316Y165D01*
X134324Y23D01*
Y15D01*
Y-9D01*
Y-48D01*
X134316Y-104D01*
X134308Y-167D01*
X134300Y-246D01*
X134284Y-334D01*
X134260Y-429D01*
X134205Y-627D01*
X134158Y-737D01*
X134110Y-840D01*
X134055Y-951D01*
X133991Y-1054D01*
X133912Y-1157D01*
X133825Y-1260D01*
X133817Y-1268D01*
X133801Y-1284D01*
X133777Y-1308D01*
X133738Y-1339D01*
X133682Y-1379D01*
X133627Y-1426D01*
X133556Y-1466D01*
X133484Y-1514D01*
X133397Y-1569D01*
X133302Y-1609D01*
X133199Y-1656D01*
X133088Y-1696D01*
X132969Y-1727D01*
X132851Y-1751D01*
X132716Y-1767D01*
X132581Y-1775D01*
X132534D01*
X132494Y-1767D01*
X132447D01*
X132399Y-1759D01*
X132273Y-1735D01*
X132130Y-1704D01*
X131980Y-1656D01*
X131821Y-1585D01*
X131671Y-1490D01*
X131663D01*
X131655Y-1474D01*
X131607Y-1434D01*
X131536Y-1371D01*
X131441Y-1276D01*
X131346Y-1157D01*
X131243Y-1015D01*
X131148Y-856D01*
X131069Y-666D01*
X132708D01*
Y815D01*
X129223D01*
Y3468D01*
D01*
Y-3438D01*
X136035D01*
D01*
X132645D01*
X132692Y-3430D01*
X132756D01*
X132835Y-3422D01*
X132922Y-3414D01*
X133009Y-3407D01*
X133215Y-3375D01*
X133445Y-3327D01*
X133682Y-3272D01*
X133920Y-3185D01*
X133928D01*
X133944Y-3169D01*
X133983Y-3161D01*
X134023Y-3137D01*
X134078Y-3105D01*
X134142Y-3074D01*
X134213Y-3034D01*
X134292Y-2995D01*
X134466Y-2884D01*
X134656Y-2757D01*
X134846Y-2599D01*
X135037Y-2424D01*
X135045Y-2417D01*
X135060Y-2401D01*
X135084Y-2377D01*
X135116Y-2337D01*
X135155Y-2290D01*
X135203Y-2234D01*
X135258Y-2171D01*
X135314Y-2100D01*
X135433Y-1933D01*
X135551Y-1743D01*
X135670Y-1537D01*
X135781Y-1308D01*
Y-1300D01*
X135789Y-1276D01*
X135805Y-1244D01*
X135821Y-1197D01*
X135837Y-1141D01*
X135860Y-1070D01*
X135884Y-991D01*
X135908Y-904D01*
X135932Y-809D01*
X135955Y-706D01*
X135995Y-484D01*
X136027Y-238D01*
X136035Y15D01*
Y86D01*
X136027Y134D01*
Y197D01*
X136019Y268D01*
X136011Y348D01*
X136003Y435D01*
X135971Y641D01*
X135924Y855D01*
X135868Y1092D01*
X135781Y1322D01*
Y1330D01*
X135765Y1353D01*
X135757Y1385D01*
X135734Y1425D01*
X135702Y1480D01*
X135670Y1543D01*
X135631Y1615D01*
X135591Y1694D01*
X135480Y1868D01*
X135353Y2058D01*
X135203Y2256D01*
X135029Y2446D01*
X135021Y2454D01*
X135005Y2470D01*
X134981Y2494D01*
X134942Y2526D01*
X134894Y2573D01*
X134839Y2621D01*
X134775Y2668D01*
X134704Y2732D01*
X134538Y2850D01*
X134340Y2977D01*
X134126Y3096D01*
X133896Y3207D01*
X133888D01*
X133864Y3215D01*
X133833Y3230D01*
X133785Y3246D01*
X133722Y3270D01*
X133651Y3286D01*
X133571Y3310D01*
X133484Y3341D01*
X133389Y3365D01*
X133278Y3389D01*
X133049Y3429D01*
X132795Y3460D01*
X132526Y3468D01*
D02*
G37*
G36*
X90574Y3468D02*
X85600D01*
X88079D01*
X88016Y3460D01*
X87936Y3452D01*
X87841Y3436D01*
X87738Y3421D01*
X87620Y3397D01*
X87501Y3365D01*
X87374Y3325D01*
X87239Y3278D01*
X87105Y3223D01*
X86978Y3159D01*
X86843Y3080D01*
X86717Y2993D01*
X86590Y2890D01*
X86582Y2882D01*
X86558Y2866D01*
X86527Y2834D01*
X86487Y2787D01*
X86440Y2732D01*
X86384Y2660D01*
X86329Y2581D01*
X86265Y2494D01*
X86202Y2399D01*
X86146Y2288D01*
X86091Y2177D01*
X86044Y2050D01*
X86004Y1916D01*
X85964Y1773D01*
X85948Y1631D01*
X85940Y1472D01*
Y1464D01*
Y1456D01*
Y1409D01*
X85948Y1330D01*
X85964Y1235D01*
X85988Y1132D01*
X86020Y1013D01*
X86067Y894D01*
X86131Y775D01*
X86138Y759D01*
X86162Y728D01*
X86210Y672D01*
X86265Y601D01*
X86344Y514D01*
X86440Y427D01*
X86550Y340D01*
X86677Y253D01*
X86669D01*
X86653Y245D01*
X86630Y229D01*
X86590Y213D01*
X86495Y158D01*
X86384Y78D01*
X86249Y-9D01*
X86123Y-128D01*
X85988Y-254D01*
X85877Y-405D01*
Y-413D01*
X85861Y-421D01*
X85853Y-444D01*
X85830Y-476D01*
X85814Y-516D01*
X85790Y-563D01*
X85735Y-682D01*
X85687Y-825D01*
X85640Y-991D01*
X85608Y-1181D01*
X85600Y-1379D01*
Y-1442D01*
X85608Y-1514D01*
X85616Y-1609D01*
X85632Y-1712D01*
X85655Y-1830D01*
X85687Y-1957D01*
X85727Y-2084D01*
X85735Y-2100D01*
X85750Y-2139D01*
X85782Y-2203D01*
X85822Y-2282D01*
X85869Y-2369D01*
X85940Y-2464D01*
X86012Y-2567D01*
X86099Y-2670D01*
X86115Y-2686D01*
X86162Y-2725D01*
X86234Y-2789D01*
X86329Y-2860D01*
X86440Y-2947D01*
X86574Y-3026D01*
X86725Y-3105D01*
X86891Y-3169D01*
X86899D01*
X86915Y-3177D01*
X86938Y-3185D01*
X86978Y-3193D01*
X87018Y-3201D01*
X87081Y-3216D01*
X87144Y-3232D01*
X87224Y-3240D01*
X87311Y-3256D01*
X87406Y-3272D01*
X87509Y-3288D01*
X87628Y-3296D01*
X87754Y-3303D01*
X87889Y-3311D01*
X88031Y-3319D01*
X88641D01*
Y-1830D01*
X88024D01*
X87960Y-1822D01*
X87881Y-1807D01*
X87786Y-1791D01*
X87691Y-1767D01*
X87604Y-1727D01*
X87517Y-1672D01*
X87509Y-1664D01*
X87485Y-1640D01*
X87445Y-1601D01*
X87406Y-1553D01*
X87374Y-1490D01*
X87334Y-1411D01*
X87311Y-1316D01*
X87303Y-1213D01*
Y-1197D01*
Y-1165D01*
X87311Y-1110D01*
X87327Y-1046D01*
X87358Y-975D01*
X87390Y-896D01*
X87445Y-817D01*
X87517Y-753D01*
X87524Y-745D01*
X87556Y-729D01*
X87604Y-698D01*
X87667Y-666D01*
X87746Y-635D01*
X87841Y-603D01*
X87960Y-587D01*
X88087Y-579D01*
X88641D01*
Y752D01*
X88340D01*
X88261Y759D01*
X88174Y767D01*
X88079Y791D01*
X87976Y815D01*
X87881Y855D01*
X87794Y902D01*
X87786Y910D01*
X87762Y934D01*
X87730Y965D01*
X87691Y1021D01*
X87651Y1084D01*
X87620Y1171D01*
X87596Y1266D01*
X87588Y1377D01*
Y1393D01*
Y1425D01*
X87596Y1472D01*
X87612Y1536D01*
X87635Y1607D01*
X87667Y1678D01*
X87707Y1757D01*
X87770Y1829D01*
X87778Y1837D01*
X87802Y1860D01*
X87841Y1884D01*
X87889Y1924D01*
X87952Y1955D01*
X88024Y1979D01*
X88111Y2003D01*
X88206Y2011D01*
X88261D01*
X88324Y1995D01*
X88404Y1979D01*
X88491Y1955D01*
X88578Y1908D01*
X88657Y1852D01*
X88736Y1773D01*
X88744Y1765D01*
X88760Y1726D01*
X88792Y1678D01*
X88823Y1599D01*
X88855Y1504D01*
X88887Y1385D01*
X88903Y1242D01*
X88911Y1084D01*
Y-3311D01*
X90574D01*
D01*
Y1092D01*
X90566Y1147D01*
Y1227D01*
X90550Y1314D01*
X90542Y1425D01*
X90518Y1543D01*
X90495Y1670D01*
X90455Y1805D01*
X90415Y1947D01*
X90360Y2098D01*
X90297Y2241D01*
X90217Y2383D01*
X90130Y2526D01*
X90035Y2668D01*
X89916Y2795D01*
X89908Y2803D01*
X89885Y2826D01*
X89845Y2858D01*
X89798Y2898D01*
X89726Y2953D01*
X89647Y3009D01*
X89552Y3072D01*
X89449Y3135D01*
X89330Y3191D01*
X89196Y3254D01*
X89053Y3310D01*
X88903Y3365D01*
X88736Y3405D01*
X88554Y3436D01*
X88372Y3460D01*
X88174Y3468D01*
X90574D01*
D02*
G37*
G36*
X123085Y3349D02*
X120305D01*
X120250Y3341D01*
X120194D01*
X120123Y3333D01*
X119973Y3310D01*
X119799Y3278D01*
X119616Y3223D01*
X119434Y3151D01*
X119276Y3056D01*
X119268D01*
X119260Y3040D01*
X119212Y3001D01*
X119149Y2937D01*
X119070Y2850D01*
X118999Y2739D01*
X118935Y2605D01*
X118888Y2446D01*
X118880Y2367D01*
X118872Y2272D01*
Y2264D01*
Y2233D01*
X118880Y2193D01*
X118888Y2130D01*
X118896Y2066D01*
X118919Y1987D01*
X118943Y1908D01*
X118983Y1821D01*
X118991Y1813D01*
X119007Y1781D01*
X119030Y1742D01*
X119062Y1686D01*
X119102Y1623D01*
X119157Y1551D01*
X119212Y1488D01*
X119284Y1417D01*
X120147Y633D01*
X120139D01*
X120115Y625D01*
X120076Y617D01*
X120020Y601D01*
X119965Y585D01*
X119894Y561D01*
X119727Y506D01*
X119545Y427D01*
X119355Y316D01*
X119173Y189D01*
X119086Y110D01*
X119007Y23D01*
X118999Y15D01*
X118991Y-1D01*
X118967Y-25D01*
X118943Y-64D01*
X118912Y-112D01*
X118880Y-167D01*
X118840Y-231D01*
X118801Y-302D01*
X118769Y-389D01*
X118729Y-484D01*
X118698Y-579D01*
X118666Y-690D01*
X118618Y-935D01*
X118611Y-1062D01*
X118603Y-1205D01*
Y-1300D01*
X118611Y-1363D01*
X118618Y-1450D01*
X118634Y-1545D01*
X118650Y-1648D01*
X118674Y-1759D01*
X118706Y-1886D01*
X118745Y-2013D01*
X118793Y-2139D01*
X118856Y-2266D01*
X118919Y-2393D01*
X118999Y-2519D01*
X119094Y-2638D01*
X119197Y-2749D01*
X119204Y-2757D01*
X119220Y-2773D01*
X119260Y-2805D01*
X119307Y-2836D01*
X119363Y-2884D01*
X119434Y-2931D01*
X119521Y-2979D01*
X119616Y-3034D01*
X119727Y-3090D01*
X119846Y-3137D01*
X119981Y-3185D01*
X120115Y-3232D01*
X120274Y-3264D01*
X120432Y-3296D01*
X120606Y-3311D01*
X120789Y-3319D01*
X118603D01*
D01*
X123085D01*
Y-1775D01*
X121034D01*
X120955Y-1767D01*
X120852Y-1751D01*
X120741Y-1735D01*
X120622Y-1704D01*
X120511Y-1664D01*
X120408Y-1609D01*
X120400Y-1601D01*
X120369Y-1577D01*
X120329Y-1537D01*
X120282Y-1482D01*
X120234Y-1419D01*
X120194Y-1331D01*
X120163Y-1228D01*
X120155Y-1118D01*
Y-1102D01*
Y-1070D01*
X120171Y-1015D01*
X120187Y-943D01*
X120210Y-872D01*
X120258Y-793D01*
X120313Y-714D01*
X120393Y-642D01*
X120400Y-635D01*
X120432Y-611D01*
X120488Y-587D01*
X120559Y-547D01*
X120646Y-516D01*
X120757Y-492D01*
X120876Y-468D01*
X121018Y-460D01*
X122143D01*
Y474D01*
X120654Y1868D01*
X122974D01*
Y3349D01*
X123085D01*
D02*
G37*
G36*
X116860D02*
X114262D01*
Y-3319D01*
X116860D01*
Y3349D01*
D02*
G37*
G36*
X109598D02*
X108132Y3349D01*
X108037Y3341D01*
X107934D01*
X107824Y3333D01*
X107578Y3318D01*
X107325Y3302D01*
X107071Y3270D01*
X106960Y3254D01*
X106849Y3230D01*
X106841D01*
X106826Y3223D01*
X106794Y3215D01*
X106754Y3207D01*
X106707Y3191D01*
X106651Y3175D01*
X106517Y3135D01*
X106358Y3080D01*
X106192Y3017D01*
X106018Y2929D01*
X105851Y2834D01*
X105843Y2826D01*
X105820Y2811D01*
X105780Y2787D01*
X105725Y2747D01*
X105661Y2700D01*
X105582Y2644D01*
X105503Y2573D01*
X105408Y2502D01*
X105313Y2415D01*
X105218Y2328D01*
X105115Y2225D01*
X105020Y2114D01*
X104830Y1876D01*
X104735Y1749D01*
X104656Y1615D01*
X104648Y1607D01*
X104640Y1583D01*
X104616Y1543D01*
X104592Y1488D01*
X104552Y1417D01*
X104521Y1338D01*
X104481Y1242D01*
X104442Y1140D01*
X104402Y1021D01*
X104362Y902D01*
X104323Y767D01*
X104291Y633D01*
X104244Y332D01*
X104236Y173D01*
X104228Y15D01*
Y-64D01*
X104236Y-128D01*
Y-199D01*
X104252Y-286D01*
X104260Y-381D01*
X104275Y-492D01*
X104299Y-603D01*
X104323Y-729D01*
X104394Y-991D01*
X104434Y-1125D01*
X104489Y-1260D01*
X104545Y-1403D01*
X104616Y-1537D01*
X104624Y-1545D01*
X104632Y-1569D01*
X104656Y-1609D01*
X104687Y-1656D01*
X104727Y-1719D01*
X104774Y-1791D01*
X104830Y-1870D01*
X104893Y-1957D01*
X104972Y-2052D01*
X105052Y-2147D01*
X105139Y-2250D01*
X105234Y-2353D01*
X105455Y-2559D01*
X105701Y-2749D01*
X105709D01*
X105717Y-2757D01*
X105740Y-2773D01*
X105764Y-2789D01*
X105843Y-2836D01*
X105946Y-2900D01*
X106073Y-2963D01*
X106224Y-3026D01*
X106390Y-3098D01*
X106572Y-3153D01*
X106580D01*
X106596Y-3161D01*
X106620Y-3169D01*
X106659Y-3177D01*
X106707Y-3185D01*
X106762Y-3201D01*
X106826Y-3216D01*
X106897Y-3224D01*
X107055Y-3256D01*
X107245Y-3280D01*
X107459Y-3303D01*
X107681Y-3319D01*
X104228D01*
X109598Y-3319D01*
Y3349D01*
D02*
G37*
G36*
X103697Y3349D02*
X99373D01*
Y-1783D01*
Y-698D01*
X101883D01*
Y-706D01*
X101876Y-722D01*
X101868Y-753D01*
X101852Y-785D01*
X101828Y-833D01*
X101804Y-888D01*
X101733Y-1007D01*
X101638Y-1141D01*
X101511Y-1284D01*
X101440Y-1347D01*
X101361Y-1411D01*
X101266Y-1474D01*
X101171Y-1529D01*
X101163D01*
X101147Y-1537D01*
X101115Y-1553D01*
X101068Y-1569D01*
X101012Y-1593D01*
X100949Y-1617D01*
X100870Y-1640D01*
X100783Y-1664D01*
X100680Y-1688D01*
X100569Y-1712D01*
X100450Y-1735D01*
X100315Y-1759D01*
X100173Y-1775D01*
X100022Y-1791D01*
X99864Y-1799D01*
X99373D01*
Y-3319D01*
X103697D01*
X99690D01*
X99769Y-3311D01*
X99959D01*
X100062Y-3303D01*
X100300Y-3288D01*
X100561Y-3264D01*
X100822Y-3232D01*
X101076Y-3185D01*
X101084D01*
X101107Y-3177D01*
X101139Y-3169D01*
X101187Y-3161D01*
X101242Y-3145D01*
X101305Y-3121D01*
X101456Y-3074D01*
X101630Y-3018D01*
X101812Y-2947D01*
X102002Y-2860D01*
X102176Y-2757D01*
X102184Y-2749D01*
X102208Y-2733D01*
X102248Y-2709D01*
X102295Y-2670D01*
X102359Y-2630D01*
X102430Y-2575D01*
X102509Y-2504D01*
X102588Y-2432D01*
X102675Y-2353D01*
X102770Y-2258D01*
X102961Y-2060D01*
X103143Y-1830D01*
X103301Y-1569D01*
X103309Y-1561D01*
X103317Y-1537D01*
X103341Y-1498D01*
X103365Y-1442D01*
X103396Y-1379D01*
X103428Y-1292D01*
X103460Y-1205D01*
X103499Y-1102D01*
X103539Y-991D01*
X103570Y-864D01*
X103602Y-738D01*
X103634Y-595D01*
X103681Y-302D01*
X103689Y-143D01*
X103697Y15D01*
Y102D01*
X103689Y158D01*
X103681Y237D01*
X103673Y324D01*
X103665Y427D01*
X103650Y538D01*
X103626Y656D01*
X103602Y783D01*
X103531Y1044D01*
X103483Y1179D01*
X103428Y1322D01*
X103372Y1456D01*
X103301Y1591D01*
X103293Y1599D01*
X103285Y1623D01*
X103262Y1662D01*
X103230Y1710D01*
X103190Y1773D01*
X103135Y1845D01*
X103079Y1924D01*
X103008Y2011D01*
X102937Y2106D01*
X102850Y2201D01*
X102763Y2296D01*
X102660Y2399D01*
X102549Y2494D01*
X102430Y2597D01*
X102311Y2692D01*
X102176Y2779D01*
X102169D01*
X102153Y2795D01*
X102129Y2803D01*
X102097Y2826D01*
X102050Y2850D01*
X102002Y2874D01*
X101939Y2906D01*
X101868Y2937D01*
X101709Y3009D01*
X101519Y3080D01*
X101305Y3151D01*
X101076Y3207D01*
X101068D01*
X101044Y3215D01*
X101012Y3223D01*
X100957Y3230D01*
X100893Y3238D01*
X100822Y3254D01*
X100735Y3262D01*
X100640Y3278D01*
X100529Y3294D01*
X100410Y3302D01*
X100284Y3318D01*
X100157Y3325D01*
X99864Y3341D01*
X99547Y3349D01*
X103697D01*
D02*
G37*
G36*
X82574Y3468D02*
X82480D01*
X82408Y3460D01*
X82329Y3452D01*
X82234Y3436D01*
X82123Y3421D01*
X82004Y3397D01*
X81878Y3365D01*
X81743Y3325D01*
X81608Y3286D01*
X81466Y3230D01*
X81323Y3159D01*
X81188Y3088D01*
X81046Y3001D01*
X80919Y2898D01*
X80911Y2890D01*
X80888Y2874D01*
X80856Y2842D01*
X80808Y2795D01*
X80761Y2739D01*
X80698Y2676D01*
X80642Y2597D01*
X80571Y2510D01*
X80507Y2415D01*
X80444Y2312D01*
X80389Y2201D01*
X80341Y2082D01*
X80294Y1955D01*
X80262Y1813D01*
X80238Y1678D01*
X80230Y1528D01*
Y1520D01*
Y1504D01*
Y1480D01*
X80238Y1441D01*
Y1401D01*
X80246Y1345D01*
X80270Y1227D01*
X80301Y1084D01*
X80357Y934D01*
X80428Y783D01*
X80523Y633D01*
Y625D01*
X80539Y617D01*
X80579Y569D01*
X80642Y498D01*
X80729Y419D01*
X80840Y324D01*
X80983Y237D01*
X81141Y150D01*
X81323Y78D01*
X81292D01*
X81260Y70D01*
X81220Y62D01*
X81165Y55D01*
X81101Y39D01*
X80967Y7D01*
X80816Y-48D01*
X80666Y-112D01*
X80523Y-199D01*
X80460Y-254D01*
X80404Y-310D01*
X80389Y-326D01*
X80357Y-373D01*
X80317Y-444D01*
X80294Y-492D01*
X80262Y-555D01*
X80238Y-619D01*
X80214Y-690D01*
X80191Y-777D01*
X80167Y-864D01*
X80151Y-959D01*
X80135Y-1070D01*
X80127Y-1181D01*
Y-3319D01*
X84951D01*
Y1092D01*
X84943Y1147D01*
Y1227D01*
X84927Y1314D01*
X84919Y1425D01*
X84895Y1543D01*
X84871Y1670D01*
X84832Y1805D01*
X84792Y1947D01*
X84737Y2098D01*
X84673Y2241D01*
X84594Y2383D01*
X84507Y2526D01*
X84412Y2668D01*
X84293Y2795D01*
X84285Y2803D01*
X84262Y2826D01*
X84222Y2858D01*
X84174Y2898D01*
X84111Y2953D01*
X84032Y3009D01*
X83937Y3072D01*
X83834Y3135D01*
X83715Y3191D01*
X83588Y3254D01*
X83446Y3310D01*
X83287Y3365D01*
X83129Y3405D01*
X82955Y3436D01*
X82765Y3460D01*
X82574Y3468D01*
D02*
G37*
%LPD*%
G36*
X126372Y1995D02*
X126451Y1979D01*
X126538Y1947D01*
X126634Y1908D01*
X126728Y1845D01*
X126816Y1757D01*
X126824Y1749D01*
X126847Y1710D01*
X126887Y1654D01*
X126927Y1583D01*
X126966Y1488D01*
X127006Y1385D01*
X127030Y1258D01*
X127037Y1124D01*
Y-1078D01*
Y-1086D01*
Y-1094D01*
Y-1141D01*
X127022Y-1213D01*
X127006Y-1300D01*
X126982Y-1395D01*
X126942Y-1506D01*
X126887Y-1609D01*
X126816Y-1704D01*
X126808Y-1712D01*
X126776Y-1743D01*
X126728Y-1783D01*
X126665Y-1822D01*
X126578Y-1870D01*
X126483Y-1910D01*
X126372Y-1941D01*
X126253Y-1949D01*
X126237D01*
X126198Y-1941D01*
X126135Y-1933D01*
X126055Y-1918D01*
X125960Y-1886D01*
X125865Y-1846D01*
X125770Y-1783D01*
X125683Y-1704D01*
X125675Y-1696D01*
X125644Y-1656D01*
X125604Y-1601D01*
X125564Y-1529D01*
X125517Y-1442D01*
X125485Y-1331D01*
X125453Y-1213D01*
X125445Y-1078D01*
Y1124D01*
Y1132D01*
Y1140D01*
Y1187D01*
X125461Y1258D01*
X125477Y1345D01*
X125501Y1448D01*
X125548Y1551D01*
X125604Y1662D01*
X125683Y1757D01*
X125691Y1765D01*
X125723Y1797D01*
X125770Y1837D01*
X125841Y1884D01*
X125921Y1932D01*
X126024Y1971D01*
X126135Y2003D01*
X126253Y2011D01*
X126309D01*
X126372Y1995D01*
D02*
G37*
G36*
X123862Y-1316D02*
Y-1387D01*
X123877Y-1466D01*
X123893Y-1561D01*
X123909Y-1664D01*
X123941Y-1775D01*
X123972Y-1902D01*
X124020Y-2028D01*
X124075Y-2155D01*
X124147Y-2290D01*
X124226Y-2424D01*
X124313Y-2551D01*
X124424Y-2686D01*
X124543Y-2805D01*
X124550Y-2812D01*
X124574Y-2828D01*
X124614Y-2860D01*
X124669Y-2900D01*
X124733Y-2955D01*
X124812Y-3003D01*
X124907Y-3066D01*
X125018Y-3121D01*
X125137Y-3177D01*
X125263Y-3240D01*
X125406Y-3288D01*
X125556Y-3335D01*
X125715Y-3383D01*
X125889Y-3414D01*
X126063Y-3430D01*
X126253Y-3438D01*
X123854D01*
Y-1268D01*
X123862Y-1316D01*
D02*
G37*
G36*
X129231Y292D02*
Y221D01*
X129239Y134D01*
X129247Y-48D01*
X129263Y-238D01*
X129295Y-444D01*
X129326Y-642D01*
Y-650D01*
X129334Y-666D01*
Y-690D01*
X129342Y-729D01*
X129358Y-777D01*
X129366Y-825D01*
X129398Y-951D01*
X129445Y-1094D01*
X129493Y-1252D01*
X129556Y-1411D01*
X129627Y-1569D01*
X129635Y-1577D01*
X129643Y-1609D01*
X129675Y-1656D01*
X129706Y-1712D01*
X129754Y-1791D01*
X129801Y-1870D01*
X129865Y-1965D01*
X129936Y-2068D01*
X130023Y-2179D01*
X130110Y-2290D01*
X130213Y-2409D01*
X130316Y-2519D01*
X130435Y-2638D01*
X130562Y-2741D01*
X130696Y-2852D01*
X130839Y-2947D01*
X130847Y-2955D01*
X130871Y-2971D01*
X130918Y-2995D01*
X130974Y-3026D01*
X131053Y-3058D01*
X131140Y-3105D01*
X131235Y-3145D01*
X131346Y-3193D01*
X131473Y-3240D01*
X131607Y-3280D01*
X131750Y-3327D01*
X131900Y-3359D01*
X132059Y-3391D01*
X132225Y-3414D01*
X132399Y-3430D01*
X132573Y-3438D01*
X129223D01*
Y363D01*
X129231Y292D01*
D02*
G37*
G36*
X116860Y-3319D02*
X115839D01*
Y1845D01*
X116860D01*
Y-3319D01*
D02*
G37*
G36*
X107855Y1765D02*
X107887D01*
X107911Y1757D01*
X107934D01*
Y-3319D01*
X107681D01*
Y-1719D01*
X107649D01*
X107610Y-1712D01*
X107554D01*
X107491Y-1696D01*
X107412Y-1688D01*
X107325Y-1672D01*
X107237Y-1648D01*
X107039Y-1585D01*
X106936Y-1545D01*
X106826Y-1498D01*
X106723Y-1442D01*
X106620Y-1371D01*
X106525Y-1300D01*
X106430Y-1213D01*
X106422Y-1205D01*
X106406Y-1189D01*
X106382Y-1165D01*
X106350Y-1125D01*
X106319Y-1078D01*
X106271Y-1015D01*
X106232Y-951D01*
X106184Y-872D01*
X106137Y-785D01*
X106097Y-698D01*
X106049Y-595D01*
X106018Y-484D01*
X105986Y-365D01*
X105962Y-246D01*
X105946Y-112D01*
X105938Y23D01*
Y31D01*
Y55D01*
Y94D01*
X105946Y150D01*
X105954Y213D01*
X105962Y292D01*
X105978Y371D01*
X106002Y466D01*
X106065Y664D01*
X106105Y767D01*
X106152Y870D01*
X106216Y973D01*
X106287Y1076D01*
X106366Y1179D01*
X106453Y1274D01*
X106461Y1282D01*
X106477Y1298D01*
X106509Y1322D01*
X106548Y1353D01*
X106596Y1393D01*
X106659Y1433D01*
X106730Y1480D01*
X106810Y1528D01*
X106905Y1567D01*
X107000Y1615D01*
X107111Y1654D01*
X107229Y1694D01*
X107356Y1726D01*
X107491Y1749D01*
X107625Y1765D01*
X107776Y1773D01*
X107816D01*
X107855Y1765D01*
D02*
G37*
G36*
X99943Y1837D02*
X100030Y1829D01*
X100125Y1821D01*
X100228Y1813D01*
X100450Y1781D01*
X100680Y1734D01*
X100909Y1670D01*
X101012Y1631D01*
X101115Y1583D01*
X101123D01*
X101139Y1567D01*
X101163Y1559D01*
X101202Y1536D01*
X101289Y1472D01*
X101400Y1385D01*
X101519Y1274D01*
X101646Y1140D01*
X101757Y981D01*
X101852Y791D01*
X99373D01*
Y1829D01*
X99389D01*
X99420Y1837D01*
X99531D01*
X99571Y1845D01*
X99864D01*
X99943Y1837D01*
D02*
G37*
G36*
X82701Y1939D02*
X82772Y1924D01*
X82860Y1892D01*
X82947Y1852D01*
X83026Y1789D01*
X83105Y1710D01*
X83113Y1702D01*
X83137Y1662D01*
X83161Y1607D01*
X83192Y1536D01*
X83232Y1433D01*
X83256Y1322D01*
X83279Y1187D01*
X83287Y1029D01*
Y-3311D01*
X84951D01*
Y-3319D01*
X81783D01*
Y-1712D01*
Y-1704D01*
Y-1688D01*
Y-1664D01*
Y-1625D01*
X81790Y-1537D01*
X81814Y-1426D01*
X81838Y-1308D01*
X81878Y-1189D01*
X81933Y-1078D01*
X82012Y-991D01*
X82020Y-983D01*
X82060Y-959D01*
X82115Y-927D01*
X82202Y-888D01*
X82258Y-872D01*
X82321Y-856D01*
X82384Y-840D01*
X82464Y-825D01*
X82551Y-809D01*
X82646Y-801D01*
X82757Y-793D01*
X83018D01*
Y704D01*
X82709D01*
X82638Y712D01*
X82551Y720D01*
X82448Y744D01*
X82353Y767D01*
X82258Y807D01*
X82171Y855D01*
X82163Y862D01*
X82139Y886D01*
X82107Y918D01*
X82068Y973D01*
X82028Y1037D01*
X81996Y1124D01*
X81973Y1219D01*
X81965Y1330D01*
Y1345D01*
Y1377D01*
X81973Y1425D01*
X81988Y1488D01*
X82012Y1559D01*
X82044Y1631D01*
X82083Y1702D01*
X82147Y1773D01*
X82155Y1781D01*
X82178Y1805D01*
X82218Y1829D01*
X82266Y1868D01*
X82329Y1900D01*
X82400Y1924D01*
X82487Y1947D01*
X82582Y1955D01*
X82638D01*
X82701Y1939D01*
D02*
G37*
%LPC*%
G36*
X253171Y-18774D02*
X253147D01*
X253134D01*
X253130D01*
X253065Y-18778D01*
X252999Y-18782D01*
X252884Y-18802D01*
X252831Y-18815D01*
X252782Y-18831D01*
X252737Y-18847D01*
X252700Y-18864D01*
X252663Y-18880D01*
X252630Y-18897D01*
X252606Y-18913D01*
X252585Y-18925D01*
X252565Y-18938D01*
X252552Y-18946D01*
X252548Y-18954D01*
X252544D01*
X252503Y-18987D01*
X252470Y-19024D01*
X252442Y-19061D01*
X252417Y-19097D01*
X252376Y-19167D01*
X252351Y-19237D01*
X252335Y-19294D01*
X252327Y-19339D01*
X252323Y-19356D01*
Y-19380D01*
X252327Y-19425D01*
X252331Y-19471D01*
X252356Y-19553D01*
X252392Y-19622D01*
X252433Y-19684D01*
X252474Y-19737D01*
X252511Y-19774D01*
X252536Y-19794D01*
X252540Y-19803D01*
X252544D01*
X252585Y-19836D01*
X252634Y-19860D01*
X252733Y-19905D01*
X252835Y-19938D01*
X252934Y-19959D01*
X252979Y-19963D01*
X253020Y-19971D01*
X253061Y-19975D01*
X253094D01*
X253122Y-19979D01*
X253143D01*
X253155D01*
X253159D01*
X253233D01*
X253303Y-19971D01*
X253368Y-19963D01*
X253430Y-19950D01*
X253487Y-19938D01*
X253540Y-19922D01*
X253586Y-19909D01*
X253631Y-19893D01*
X253667Y-19876D01*
X253700Y-19860D01*
X253729Y-19844D01*
X253754Y-19831D01*
X253770Y-19819D01*
X253782Y-19811D01*
X253790Y-19807D01*
X253795Y-19803D01*
X253836Y-19770D01*
X253868Y-19737D01*
X253901Y-19700D01*
X253926Y-19667D01*
X253967Y-19598D01*
X253995Y-19536D01*
X254012Y-19483D01*
X254020Y-19442D01*
X254024Y-19425D01*
Y-19405D01*
X254020Y-19360D01*
X254012Y-19315D01*
X254004Y-19270D01*
X253987Y-19229D01*
X253946Y-19155D01*
X253901Y-19089D01*
X253860Y-19036D01*
X253819Y-18995D01*
X253803Y-18983D01*
X253795Y-18970D01*
X253786Y-18966D01*
X253782Y-18962D01*
X253733Y-18929D01*
X253684Y-18901D01*
X253577Y-18851D01*
X253467Y-18819D01*
X253364Y-18798D01*
X253315Y-18790D01*
X253270Y-18782D01*
X253233Y-18778D01*
X253196D01*
X253171Y-18774D01*
D02*
G37*
G36*
X208478Y18257D02*
X206059D01*
Y17660D01*
X206063Y17611D01*
X206066Y17562D01*
X206070Y17521D01*
X206073Y17483D01*
X206080Y17445D01*
X206087Y17413D01*
X206090Y17386D01*
X206098Y17358D01*
X206104Y17337D01*
X206115Y17306D01*
X206122Y17285D01*
X206125Y17278D01*
X206143Y17240D01*
X206167Y17205D01*
X206219Y17139D01*
X206281Y17084D01*
X206344Y17035D01*
X206399Y16997D01*
X206427Y16983D01*
X206448Y16969D01*
X206465Y16959D01*
X206479Y16952D01*
X206490Y16945D01*
X206493D01*
X206545Y16921D01*
X206604Y16900D01*
X206726Y16869D01*
X206854Y16844D01*
X206975Y16830D01*
X207031Y16823D01*
X207083Y16820D01*
X207128Y16816D01*
X207170D01*
X207204Y16813D01*
X207229D01*
X207243D01*
X207249D01*
X207333D01*
X207413Y16820D01*
X207486Y16823D01*
X207558Y16834D01*
X207628Y16841D01*
X207690Y16851D01*
X207749Y16865D01*
X207801Y16875D01*
X207850Y16886D01*
X207895Y16900D01*
X207930Y16910D01*
X207961Y16917D01*
X207989Y16928D01*
X208006Y16931D01*
X208016Y16938D01*
X208020D01*
X208103Y16976D01*
X208176Y17018D01*
X208239Y17059D01*
X208287Y17105D01*
X208322Y17143D01*
X208349Y17174D01*
X208363Y17195D01*
X208370Y17198D01*
Y17202D01*
X208388Y17236D01*
X208405Y17275D01*
X208433Y17354D01*
X208450Y17438D01*
X208464Y17521D01*
X208468Y17559D01*
X208471Y17594D01*
X208474Y17625D01*
Y17653D01*
X208478Y17677D01*
Y18257D01*
D02*
G37*
G36*
X207083Y3156D02*
X206038D01*
Y2341D01*
X206045Y2244D01*
X206059Y2157D01*
X206084Y2088D01*
X206108Y2029D01*
X206132Y1984D01*
X206156Y1949D01*
X206170Y1932D01*
X206177Y1925D01*
X206233Y1876D01*
X206292Y1841D01*
X206354Y1817D01*
X206417Y1800D01*
X206469Y1789D01*
X206493Y1786D01*
X206514D01*
X206528Y1782D01*
X206542D01*
X206549D01*
X206552D01*
X206611Y1786D01*
X206667Y1793D01*
X206719Y1807D01*
X206760Y1821D01*
X206795Y1834D01*
X206823Y1848D01*
X206837Y1855D01*
X206843Y1859D01*
X206889Y1886D01*
X206923Y1921D01*
X206958Y1952D01*
X206982Y1984D01*
X207003Y2011D01*
X207017Y2036D01*
X207024Y2049D01*
X207027Y2056D01*
X207045Y2108D01*
X207059Y2167D01*
X207069Y2227D01*
X207076Y2286D01*
X207080Y2338D01*
Y2362D01*
X207083Y2383D01*
Y3156D01*
D02*
G37*
G36*
X208478Y-7670D02*
X206059D01*
Y-8266D01*
X206063Y-8315D01*
X206066Y-8364D01*
X206070Y-8405D01*
X206073Y-8443D01*
X206080Y-8482D01*
X206087Y-8513D01*
X206090Y-8540D01*
X206098Y-8568D01*
X206104Y-8589D01*
X206115Y-8620D01*
X206122Y-8641D01*
X206125Y-8648D01*
X206143Y-8686D01*
X206167Y-8721D01*
X206219Y-8787D01*
X206281Y-8842D01*
X206344Y-8891D01*
X206399Y-8929D01*
X206427Y-8943D01*
X206448Y-8957D01*
X206465Y-8967D01*
X206479Y-8974D01*
X206490Y-8981D01*
X206493D01*
X206545Y-9005D01*
X206604Y-9026D01*
X206726Y-9058D01*
X206854Y-9082D01*
X206975Y-9096D01*
X207031Y-9103D01*
X207083Y-9106D01*
X207128Y-9110D01*
X207170D01*
X207204Y-9113D01*
X207229D01*
X207243D01*
X207249D01*
X207333D01*
X207413Y-9106D01*
X207486Y-9103D01*
X207558Y-9092D01*
X207628Y-9085D01*
X207690Y-9075D01*
X207749Y-9061D01*
X207801Y-9051D01*
X207850Y-9040D01*
X207895Y-9026D01*
X207930Y-9016D01*
X207961Y-9009D01*
X207989Y-8999D01*
X208006Y-8995D01*
X208016Y-8988D01*
X208020D01*
X208103Y-8950D01*
X208176Y-8908D01*
X208239Y-8867D01*
X208287Y-8822D01*
X208322Y-8783D01*
X208349Y-8752D01*
X208363Y-8731D01*
X208370Y-8728D01*
Y-8724D01*
X208388Y-8690D01*
X208405Y-8652D01*
X208433Y-8572D01*
X208450Y-8489D01*
X208464Y-8405D01*
X208468Y-8367D01*
X208471Y-8332D01*
X208474Y-8301D01*
Y-8273D01*
X208478Y-8249D01*
Y-7670D01*
D02*
G37*
G36*
Y-29466D02*
X206059D01*
Y-30063D01*
X206063Y-30112D01*
X206066Y-30160D01*
X206070Y-30202D01*
X206073Y-30240D01*
X206080Y-30278D01*
X206087Y-30309D01*
X206090Y-30337D01*
X206098Y-30365D01*
X206104Y-30386D01*
X206115Y-30417D01*
X206122Y-30438D01*
X206125Y-30445D01*
X206143Y-30483D01*
X206167Y-30518D01*
X206219Y-30584D01*
X206281Y-30639D01*
X206344Y-30688D01*
X206399Y-30726D01*
X206427Y-30740D01*
X206448Y-30754D01*
X206465Y-30764D01*
X206479Y-30771D01*
X206490Y-30778D01*
X206493D01*
X206545Y-30802D01*
X206604Y-30823D01*
X206726Y-30854D01*
X206854Y-30878D01*
X206975Y-30892D01*
X207031Y-30899D01*
X207083Y-30903D01*
X207128Y-30906D01*
X207170D01*
X207204Y-30910D01*
X207229D01*
X207243D01*
X207249D01*
X207333D01*
X207413Y-30903D01*
X207486Y-30899D01*
X207558Y-30889D01*
X207628Y-30882D01*
X207690Y-30872D01*
X207749Y-30858D01*
X207801Y-30847D01*
X207850Y-30837D01*
X207895Y-30823D01*
X207930Y-30813D01*
X207961Y-30806D01*
X207989Y-30795D01*
X208006Y-30792D01*
X208016Y-30785D01*
X208020D01*
X208103Y-30747D01*
X208176Y-30705D01*
X208239Y-30663D01*
X208287Y-30618D01*
X208322Y-30580D01*
X208349Y-30549D01*
X208363Y-30528D01*
X208370Y-30525D01*
Y-30521D01*
X208388Y-30486D01*
X208405Y-30448D01*
X208433Y-30368D01*
X208450Y-30285D01*
X208464Y-30202D01*
X208468Y-30164D01*
X208471Y-30129D01*
X208474Y-30098D01*
Y-30070D01*
X208478Y-30046D01*
Y-29466D01*
D02*
G37*
G36*
X207551Y-32201D02*
X206625Y-32489D01*
X206514Y-32523D01*
X206403Y-32551D01*
X206302Y-32575D01*
X206254Y-32586D01*
X206212Y-32596D01*
X206170Y-32603D01*
X206132Y-32610D01*
X206101Y-32617D01*
X206073Y-32620D01*
X206052Y-32627D01*
X206035D01*
X206025Y-32631D01*
X206021D01*
X206070Y-32641D01*
X206122Y-32655D01*
X206229Y-32683D01*
X206340Y-32714D01*
X206445Y-32745D01*
X206493Y-32759D01*
X206535Y-32773D01*
X206576Y-32784D01*
X206611Y-32794D01*
X206639Y-32804D01*
X206660Y-32808D01*
X206674Y-32815D01*
X206677D01*
X207551Y-33085D01*
Y-32201D01*
D02*
G37*
G36*
X229816Y11219D02*
X229791D01*
X229770D01*
X229754D01*
X229738D01*
X229734D01*
X229730D01*
X229566Y11215D01*
X229418Y11210D01*
X229283Y11202D01*
X229160Y11190D01*
X229049Y11178D01*
X228951Y11165D01*
X228860Y11149D01*
X228782Y11133D01*
X228717Y11116D01*
X228663Y11100D01*
X228614Y11088D01*
X228577Y11075D01*
X228549Y11063D01*
X228532Y11055D01*
X228520Y11046D01*
X228516D01*
X228458Y11014D01*
X228413Y10977D01*
X228368Y10944D01*
X228331Y10907D01*
X228303Y10870D01*
X228278Y10833D01*
X228258Y10801D01*
X228241Y10768D01*
X228217Y10706D01*
X228204Y10657D01*
X228200Y10641D01*
Y10616D01*
X228204Y10567D01*
X228212Y10518D01*
X228229Y10468D01*
X228249Y10427D01*
X228299Y10350D01*
X228356Y10284D01*
X228413Y10231D01*
X228463Y10194D01*
X228483Y10177D01*
X228500Y10169D01*
X228508Y10161D01*
X228512D01*
X228577Y10128D01*
X228651Y10103D01*
X228737Y10079D01*
X228832Y10058D01*
X228930Y10042D01*
X229032Y10026D01*
X229238Y10005D01*
X229332Y10001D01*
X229426Y9993D01*
X229508Y9989D01*
X229582D01*
X229643Y9985D01*
X229668D01*
X229689D01*
X229705D01*
X229717D01*
X229725D01*
X229730D01*
X229893D01*
X230041Y9993D01*
X230176Y10001D01*
X230299Y10013D01*
X230410Y10026D01*
X230508Y10042D01*
X230599Y10054D01*
X230673Y10071D01*
X230742Y10087D01*
X230796Y10103D01*
X230845Y10120D01*
X230882Y10132D01*
X230910Y10144D01*
X230927Y10153D01*
X230939Y10157D01*
X230943Y10161D01*
X230996Y10194D01*
X231046Y10231D01*
X231087Y10267D01*
X231123Y10304D01*
X231152Y10341D01*
X231177Y10374D01*
X231197Y10411D01*
X231214Y10444D01*
X231238Y10505D01*
X231251Y10550D01*
Y10571D01*
X231255Y10583D01*
Y10595D01*
X231251Y10645D01*
X231242Y10694D01*
X231226Y10739D01*
X231206Y10780D01*
X231156Y10858D01*
X231099Y10924D01*
X231046Y10977D01*
X230996Y11014D01*
X230976Y11030D01*
X230960Y11038D01*
X230951Y11042D01*
X230947Y11046D01*
X230882Y11075D01*
X230808Y11104D01*
X230722Y11124D01*
X230627Y11145D01*
X230529Y11161D01*
X230427Y11178D01*
X230222Y11198D01*
X230127Y11202D01*
X230033Y11210D01*
X229951Y11215D01*
X229877D01*
X229816Y11219D01*
D02*
G37*
G36*
X229647Y7676D02*
X229643D01*
X229643Y7676D01*
X229647Y7676D01*
D02*
G37*
G36*
X230402Y7615D02*
X230377D01*
X230365D01*
X230361D01*
X230295Y7611D01*
X230230Y7607D01*
X230115Y7586D01*
X230062Y7574D01*
X230012Y7557D01*
X229967Y7541D01*
X229930Y7525D01*
X229893Y7508D01*
X229861Y7492D01*
X229836Y7475D01*
X229816Y7463D01*
X229795Y7451D01*
X229783Y7443D01*
X229779Y7434D01*
X229775D01*
X229734Y7402D01*
X229701Y7365D01*
X229672Y7328D01*
X229647Y7291D01*
X229607Y7221D01*
X229582Y7152D01*
X229566Y7094D01*
X229557Y7049D01*
X229553Y7033D01*
Y7008D01*
X229557Y6963D01*
X229561Y6918D01*
X229586Y6836D01*
X229623Y6766D01*
X229664Y6705D01*
X229705Y6651D01*
X229742Y6614D01*
X229766Y6594D01*
X229770Y6586D01*
X229775D01*
X229816Y6553D01*
X229865Y6528D01*
X229963Y6483D01*
X230066Y6450D01*
X230164Y6430D01*
X230209Y6426D01*
X230250Y6418D01*
X230291Y6414D01*
X230324D01*
X230353Y6409D01*
X230373D01*
X230385D01*
X230390D01*
X230463D01*
X230533Y6418D01*
X230599Y6426D01*
X230660Y6438D01*
X230718Y6450D01*
X230771Y6467D01*
X230816Y6479D01*
X230861Y6496D01*
X230898Y6512D01*
X230931Y6528D01*
X230960Y6545D01*
X230984Y6557D01*
X231000Y6569D01*
X231013Y6577D01*
X231021Y6582D01*
X231025Y6586D01*
X231066Y6618D01*
X231099Y6651D01*
X231132Y6688D01*
X231156Y6721D01*
X231197Y6791D01*
X231226Y6852D01*
X231242Y6905D01*
X231251Y6946D01*
X231255Y6963D01*
Y6983D01*
X231251Y7028D01*
X231242Y7074D01*
X231234Y7119D01*
X231218Y7160D01*
X231177Y7233D01*
X231132Y7299D01*
X231091Y7352D01*
X231050Y7393D01*
X231033Y7406D01*
X231025Y7418D01*
X231017Y7422D01*
X231013Y7426D01*
X230964Y7459D01*
X230914Y7488D01*
X230808Y7537D01*
X230697Y7570D01*
X230595Y7590D01*
X230545Y7598D01*
X230500Y7607D01*
X230463Y7611D01*
X230427D01*
X230402Y7615D01*
D02*
G37*
G36*
X229647Y5298D02*
X229643D01*
X229643Y5298D01*
X229647Y5298D01*
D02*
G37*
G36*
X230402Y5237D02*
X230377D01*
X230365D01*
X230361D01*
X230295Y5233D01*
X230230Y5229D01*
X230115Y5208D01*
X230062Y5196D01*
X230012Y5179D01*
X229967Y5163D01*
X229930Y5147D01*
X229893Y5130D01*
X229861Y5114D01*
X229836Y5097D01*
X229816Y5085D01*
X229795Y5073D01*
X229783Y5065D01*
X229779Y5056D01*
X229775D01*
X229734Y5024D01*
X229701Y4987D01*
X229672Y4950D01*
X229647Y4913D01*
X229607Y4843D01*
X229582Y4773D01*
X229566Y4716D01*
X229557Y4671D01*
X229553Y4655D01*
Y4630D01*
X229557Y4585D01*
X229561Y4540D01*
X229586Y4458D01*
X229623Y4388D01*
X229664Y4327D01*
X229705Y4273D01*
X229742Y4236D01*
X229766Y4216D01*
X229770Y4208D01*
X229775D01*
X229816Y4175D01*
X229865Y4150D01*
X229963Y4105D01*
X230066Y4072D01*
X230164Y4052D01*
X230209Y4048D01*
X230250Y4040D01*
X230291Y4036D01*
X230324D01*
X230353Y4031D01*
X230373D01*
X230385D01*
X230390D01*
X230463D01*
X230533Y4040D01*
X230599Y4048D01*
X230660Y4060D01*
X230718Y4072D01*
X230771Y4089D01*
X230816Y4101D01*
X230861Y4118D01*
X230898Y4134D01*
X230931Y4150D01*
X230960Y4167D01*
X230984Y4179D01*
X231000Y4191D01*
X231013Y4200D01*
X231021Y4204D01*
X231025Y4208D01*
X231066Y4241D01*
X231099Y4273D01*
X231132Y4310D01*
X231156Y4343D01*
X231197Y4413D01*
X231226Y4474D01*
X231242Y4527D01*
X231251Y4569D01*
X231255Y4585D01*
Y4605D01*
X231251Y4651D01*
X231242Y4696D01*
X231234Y4741D01*
X231218Y4782D01*
X231177Y4856D01*
X231132Y4921D01*
X231091Y4974D01*
X231050Y5015D01*
X231033Y5028D01*
X231025Y5040D01*
X231017Y5044D01*
X231013Y5048D01*
X230964Y5081D01*
X230914Y5110D01*
X230808Y5159D01*
X230697Y5192D01*
X230595Y5212D01*
X230545Y5220D01*
X230500Y5229D01*
X230463Y5233D01*
X230427D01*
X230402Y5237D01*
D02*
G37*
G36*
X229787Y-2406D02*
X229766D01*
X229758D01*
X229615Y-2410D01*
X229479Y-2418D01*
X229352Y-2434D01*
X229238Y-2451D01*
X229131Y-2475D01*
X229032Y-2500D01*
X228946Y-2524D01*
X228869Y-2553D01*
X228799Y-2582D01*
X228741Y-2606D01*
X228688Y-2631D01*
X228651Y-2656D01*
X228618Y-2672D01*
X228594Y-2688D01*
X228582Y-2697D01*
X228577Y-2701D01*
X228508Y-2758D01*
X228450Y-2820D01*
X228397Y-2881D01*
X228356Y-2943D01*
X228319Y-3008D01*
X228286Y-3070D01*
X228262Y-3131D01*
X228241Y-3189D01*
X228225Y-3242D01*
X228212Y-3295D01*
X228204Y-3340D01*
X228196Y-3377D01*
Y-3410D01*
X228192Y-3435D01*
Y-3509D01*
X228200Y-3558D01*
X228221Y-3656D01*
X228249Y-3746D01*
X228278Y-3824D01*
X228311Y-3890D01*
X228327Y-3914D01*
X228340Y-3939D01*
X228352Y-3955D01*
X228360Y-3968D01*
X228364Y-3976D01*
X228368Y-3980D01*
X228438Y-4066D01*
X228516Y-4140D01*
X228594Y-4201D01*
X228668Y-4251D01*
X228733Y-4292D01*
X228762Y-4308D01*
X228786Y-4320D01*
X228807Y-4329D01*
X228823Y-4337D01*
X228832Y-4341D01*
X228836D01*
X228979Y-4394D01*
X229131Y-4431D01*
X229274Y-4460D01*
X229344Y-4468D01*
X229406Y-4476D01*
X229467Y-4484D01*
X229524Y-4488D01*
X229574Y-4493D01*
X229615D01*
X229647Y-4497D01*
X229676D01*
X229693D01*
X229697D01*
X229832Y-4493D01*
X229959Y-4484D01*
X230078Y-4468D01*
X230189Y-4447D01*
X230291Y-4427D01*
X230381Y-4402D01*
X230468Y-4374D01*
X230541Y-4345D01*
X230607Y-4316D01*
X230668Y-4287D01*
X230718Y-4263D01*
X230754Y-4242D01*
X230787Y-4222D01*
X230812Y-4205D01*
X230824Y-4197D01*
X230828Y-4193D01*
X230894Y-4136D01*
X230955Y-4074D01*
X231005Y-4013D01*
X231050Y-3947D01*
X231087Y-3886D01*
X231115Y-3824D01*
X231140Y-3763D01*
X231160Y-3705D01*
X231177Y-3652D01*
X231189Y-3603D01*
X231197Y-3558D01*
X231206Y-3521D01*
Y-3488D01*
X231210Y-3467D01*
Y-3447D01*
X231206Y-3369D01*
X231193Y-3291D01*
X231173Y-3217D01*
X231152Y-3148D01*
X231123Y-3082D01*
X231091Y-3021D01*
X231058Y-2967D01*
X231021Y-2914D01*
X230984Y-2869D01*
X230951Y-2828D01*
X230919Y-2791D01*
X230890Y-2762D01*
X230865Y-2742D01*
X230849Y-2721D01*
X230837Y-2713D01*
X230832Y-2709D01*
X230759Y-2656D01*
X230677Y-2611D01*
X230591Y-2570D01*
X230504Y-2533D01*
X230414Y-2504D01*
X230324Y-2479D01*
X230238Y-2459D01*
X230152Y-2442D01*
X230070Y-2430D01*
X229996Y-2422D01*
X229930Y-2414D01*
X229873Y-2410D01*
X229824D01*
X229787Y-2406D01*
D02*
G37*
G36*
X231132Y-11057D02*
X228274D01*
Y-11762D01*
X228278Y-11819D01*
X228282Y-11877D01*
X228286Y-11926D01*
X228290Y-11971D01*
X228299Y-12016D01*
X228307Y-12053D01*
X228311Y-12086D01*
X228319Y-12118D01*
X228327Y-12143D01*
X228340Y-12180D01*
X228348Y-12205D01*
X228352Y-12213D01*
X228372Y-12258D01*
X228401Y-12299D01*
X228463Y-12377D01*
X228536Y-12442D01*
X228610Y-12500D01*
X228676Y-12545D01*
X228709Y-12561D01*
X228733Y-12578D01*
X228754Y-12590D01*
X228770Y-12598D01*
X228782Y-12606D01*
X228786D01*
X228848Y-12635D01*
X228918Y-12660D01*
X229061Y-12697D01*
X229213Y-12725D01*
X229356Y-12742D01*
X229422Y-12750D01*
X229484Y-12754D01*
X229537Y-12758D01*
X229586D01*
X229627Y-12762D01*
X229656D01*
X229672D01*
X229680D01*
X229779D01*
X229873Y-12754D01*
X229959Y-12750D01*
X230045Y-12738D01*
X230127Y-12729D01*
X230201Y-12717D01*
X230271Y-12701D01*
X230332Y-12688D01*
X230390Y-12676D01*
X230443Y-12660D01*
X230484Y-12647D01*
X230521Y-12639D01*
X230554Y-12627D01*
X230574Y-12623D01*
X230586Y-12615D01*
X230591D01*
X230689Y-12570D01*
X230775Y-12520D01*
X230849Y-12471D01*
X230906Y-12418D01*
X230947Y-12373D01*
X230980Y-12336D01*
X230996Y-12311D01*
X231005Y-12307D01*
Y-12303D01*
X231025Y-12262D01*
X231046Y-12217D01*
X231078Y-12123D01*
X231099Y-12024D01*
X231115Y-11926D01*
X231119Y-11881D01*
X231123Y-11840D01*
X231128Y-11803D01*
Y-11770D01*
X231132Y-11741D01*
Y-11057D01*
D02*
G37*
%LPD*%
D11*
X281160Y-36300D02*
Y36377D01*
X236750Y18081D02*
Y20682D01*
Y18081D02*
X238050Y19381D01*
X236750Y20682D02*
X238050Y19381D01*
X277400Y-17123D02*
X277955Y-17678D01*
X277400Y-17123D02*
Y17200D01*
X277955Y17755D01*
X283900D01*
X270717Y-15306D02*
X273493D01*
X270136Y-14725D02*
X270717Y-15306D01*
X273493D02*
X274073Y-14725D01*
X270717Y15383D02*
X273493D01*
X274073Y14802D01*
X270136D02*
X270717Y15383D01*
X266042Y-36300D02*
X281160D01*
X266042Y36377D02*
X281160D01*
X209900Y36377D02*
X266042Y36377D01*
X209900Y-36300D02*
X266042Y-36300D01*
X211869Y34409D02*
X211869Y-34332D01*
X211869Y34409D02*
X264073Y34409D01*
X211869Y-34332D02*
X264073D01*
Y34409D01*
X266042Y-36300D02*
Y36377D01*
X209900Y-36300D02*
Y36377D01*
X274073Y-14725D02*
Y14802D01*
X270136D02*
X270136Y-14725D01*
X277955Y-17678D02*
X283900Y-17678D01*
X283900Y17755D02*
X283900Y-17678D01*
X277200Y34528D02*
X277343Y34813D01*
X277629Y35099D01*
X277915Y35242D01*
X278343Y35385D01*
X279057D01*
X279486Y35242D01*
X279771Y35099D01*
X280057Y34813D01*
X280200Y34528D01*
Y33956D01*
X280057Y33671D01*
X279771Y33385D01*
X279486Y33242D01*
X279057Y33099D01*
X278343D01*
X277915Y33242D01*
X277629Y33385D01*
X277343Y33671D01*
X277200Y33956D01*
Y34528D01*
Y32399D02*
X280200D01*
Y30686D01*
X277200Y28500D02*
Y30357D01*
X280200D01*
Y28500D01*
X278629Y30357D02*
Y29215D01*
X277200Y28000D02*
X280200D01*
X277200D02*
Y27001D01*
X277343Y26572D01*
X277629Y26287D01*
X277915Y26144D01*
X278343Y26001D01*
X279057D01*
X279486Y26144D01*
X279771Y26287D01*
X280057Y26572D01*
X280200Y27001D01*
Y28000D01*
X277772Y25330D02*
X277629Y25044D01*
X277200Y24615D01*
X280200D01*
X37133Y27666D02*
X37666Y28199D01*
X38732D01*
X39265Y27666D01*
Y25533D01*
X38732Y25000D01*
X37666D01*
X37133Y25533D01*
Y26599D01*
X38199D01*
X36066Y25000D02*
Y28199D01*
X33934Y25000D01*
Y28199D01*
X32867D02*
Y25000D01*
X31268D01*
X30735Y25533D01*
Y27666D01*
X31268Y28199D01*
X32867D01*
X57133Y25000D02*
Y27133D01*
X56066Y28199D01*
X55000Y27133D01*
Y25000D01*
Y26599D01*
X57133D01*
X53934Y25000D02*
X52867D01*
X53400D01*
Y28199D01*
X53934Y27666D01*
X67666Y25000D02*
Y27133D01*
X66600Y28199D01*
X65533Y27133D01*
Y25000D01*
Y26599D01*
X67666D01*
X64467Y27666D02*
X63934Y28199D01*
X62867D01*
X62334Y27666D01*
Y25533D01*
X62867Y25000D01*
X63934D01*
X64467Y25533D01*
Y27666D01*
X86866D02*
X87399Y28199D01*
X88465D01*
X88999Y27666D01*
Y25533D01*
X88465Y25000D01*
X87399D01*
X86866Y25533D01*
X85800Y25000D02*
X84733D01*
X85267D01*
Y28199D01*
X85800Y27666D01*
X81001Y28199D02*
X83134D01*
Y26599D01*
X82068Y27133D01*
X81534D01*
X81001Y26599D01*
Y25533D01*
X81534Y25000D01*
X82601D01*
X83134Y25533D01*
X96866Y27666D02*
X97399Y28199D01*
X98466D01*
X98999Y27666D01*
Y25533D01*
X98466Y25000D01*
X97399D01*
X96866Y25533D01*
X95800Y25000D02*
X94733D01*
X95267D01*
Y28199D01*
X95800Y27666D01*
X91535Y25000D02*
Y28199D01*
X93134Y26599D01*
X91001D01*
X117666Y28199D02*
Y25000D01*
X116066D01*
X115533Y25533D01*
Y26066D01*
X116066Y26599D01*
X117666D01*
X116066D01*
X115533Y27133D01*
Y27666D01*
X116066Y28199D01*
X117666D01*
X114467D02*
X112334D01*
Y27666D01*
X114467Y25533D01*
Y25000D01*
X127666Y28199D02*
Y25000D01*
X126066D01*
X125533Y25533D01*
Y26066D01*
X126066Y26599D01*
X127666D01*
X126066D01*
X125533Y27133D01*
Y27666D01*
X126066Y28199D01*
X127666D01*
X122334D02*
X123400Y27666D01*
X124467Y26599D01*
Y25533D01*
X123934Y25000D01*
X122867D01*
X122334Y25533D01*
Y26066D01*
X122867Y26599D01*
X124467D01*
X147666Y28199D02*
Y25000D01*
X146066D01*
X145533Y25533D01*
Y26066D01*
X146066Y26599D01*
X147666D01*
X146066D01*
X145533Y27133D01*
Y27666D01*
X146066Y28199D01*
X147666D01*
X142867Y25000D02*
Y28199D01*
X144467Y26599D01*
X142334D01*
X157666Y28199D02*
Y25000D01*
X156066D01*
X155533Y25533D01*
Y26066D01*
X156066Y26599D01*
X157666D01*
X156066D01*
X155533Y27133D01*
Y27666D01*
X156066Y28199D01*
X157666D01*
X154467Y27666D02*
X153934Y28199D01*
X152867D01*
X152334Y27666D01*
Y27133D01*
X152867Y26599D01*
X153401D01*
X152867D01*
X152334Y26066D01*
Y25533D01*
X152867Y25000D01*
X153934D01*
X154467Y25533D01*
X177133Y27666D02*
X177666Y28199D01*
X178732D01*
X179265Y27666D01*
Y25533D01*
X178732Y25000D01*
X177666D01*
X177133Y25533D01*
Y26599D01*
X178199D01*
X176066Y25000D02*
Y28199D01*
X173934Y25000D01*
Y28199D01*
X172867D02*
Y25000D01*
X171268D01*
X170735Y25533D01*
Y27666D01*
X171268Y28199D01*
X172867D01*
X45533D02*
X47666D01*
Y26599D01*
X46600Y27133D01*
X46066D01*
X45533Y26599D01*
Y25533D01*
X46066Y25000D01*
X47133D01*
X47666Y25533D01*
X44467Y28199D02*
Y26066D01*
X43400Y25000D01*
X42334Y26066D01*
Y28199D01*
X75533D02*
X77666D01*
Y26599D01*
X76600D01*
X77666D01*
Y25000D01*
X72334D02*
X74467D01*
X72334Y27133D01*
Y27666D01*
X72867Y28199D01*
X73934D01*
X74467Y27666D01*
X107666Y28199D02*
Y25000D01*
X106066D01*
X105533Y25533D01*
Y26066D01*
X106066Y26599D01*
X107666D01*
X106066D01*
X105533Y27133D01*
Y27666D01*
X106066Y28199D01*
X107666D01*
X104467Y27666D02*
X103934Y28199D01*
X102867D01*
X102334Y27666D01*
Y27133D01*
X102867Y26599D01*
X102334Y26066D01*
Y25533D01*
X102867Y25000D01*
X103934D01*
X104467Y25533D01*
Y26066D01*
X103934Y26599D01*
X104467Y27133D01*
Y27666D01*
X103934Y26599D02*
X102867D01*
X137666Y28199D02*
Y25000D01*
X136066D01*
X135533Y25533D01*
Y26066D01*
X136066Y26599D01*
X137666D01*
X136066D01*
X135533Y27133D01*
Y27666D01*
X136066Y28199D01*
X137666D01*
X132334D02*
X134467D01*
Y26599D01*
X133400Y27133D01*
X132867D01*
X132334Y26599D01*
Y25533D01*
X132867Y25000D01*
X133934D01*
X134467Y25533D01*
X168999Y25000D02*
Y27133D01*
X167932Y28199D01*
X166866Y27133D01*
Y25000D01*
Y26599D01*
X168999D01*
X165800Y25000D02*
X164733D01*
X165267D01*
Y28199D01*
X165800Y27666D01*
X161001Y28199D02*
X163134D01*
Y26599D01*
X162068Y27133D01*
X161534D01*
X161001Y26599D01*
Y25533D01*
X161534Y25000D01*
X162601D01*
X163134Y25533D01*
X57666Y-28199D02*
Y-26066D01*
X56599Y-25000D01*
X55533Y-26066D01*
Y-28199D01*
Y-26599D01*
X57666D01*
X52334Y-25000D02*
X53400Y-25533D01*
X54467Y-26599D01*
Y-27666D01*
X53934Y-28199D01*
X52867D01*
X52334Y-27666D01*
Y-27133D01*
X52867Y-26599D01*
X54467D01*
X47666Y-28199D02*
Y-26066D01*
X46600Y-25000D01*
X45533Y-26066D01*
Y-28199D01*
Y-26599D01*
X47666D01*
X42334Y-25000D02*
X44467D01*
Y-26599D01*
X43400Y-26066D01*
X42867D01*
X42334Y-26599D01*
Y-27666D01*
X42867Y-28199D01*
X43934D01*
X44467Y-27666D01*
X87133Y-25000D02*
Y-28199D01*
X85533D01*
X85000Y-27666D01*
Y-27133D01*
X85533Y-26599D01*
X87133D01*
X85533D01*
X85000Y-26066D01*
Y-25533D01*
X85533Y-25000D01*
X87133D01*
X83934Y-28199D02*
X82867D01*
X83400D01*
Y-25000D01*
X83934Y-25533D01*
X77666Y-25000D02*
Y-28199D01*
X76066D01*
X75533Y-27666D01*
Y-27133D01*
X76066Y-26599D01*
X77666D01*
X76066D01*
X75533Y-26066D01*
Y-25533D01*
X76066Y-25000D01*
X77666D01*
X74467Y-25533D02*
X73934Y-25000D01*
X72867D01*
X72334Y-25533D01*
Y-27666D01*
X72867Y-28199D01*
X73934D01*
X74467Y-27666D01*
Y-25533D01*
X117666Y-28199D02*
Y-26066D01*
X116600Y-25000D01*
X115533Y-26066D01*
Y-28199D01*
Y-26599D01*
X117666D01*
X114467Y-25533D02*
X113934Y-25000D01*
X112867D01*
X112334Y-25533D01*
Y-26066D01*
X112867Y-26599D01*
X113400D01*
X112867D01*
X112334Y-27133D01*
Y-27666D01*
X112867Y-28199D01*
X113934D01*
X114467Y-27666D01*
X107666Y-28199D02*
Y-26066D01*
X106599Y-25000D01*
X105533Y-26066D01*
Y-28199D01*
Y-26599D01*
X107666D01*
X102334Y-28199D02*
X104467D01*
X102334Y-26066D01*
Y-25533D01*
X102867Y-25000D01*
X103934D01*
X104467Y-25533D01*
X138465Y-28199D02*
Y-26066D01*
X137399Y-25000D01*
X136333Y-26066D01*
Y-28199D01*
Y-26599D01*
X138465D01*
X135267Y-28199D02*
X134200D01*
X134733D01*
Y-25000D01*
X135267Y-25533D01*
X132601Y-28199D02*
X131534D01*
X132068D01*
Y-25000D01*
X132601Y-25533D01*
X158999Y-28199D02*
Y-26066D01*
X157932Y-25000D01*
X156866Y-26066D01*
Y-28199D01*
Y-26599D01*
X158999D01*
X155800Y-28199D02*
X154733D01*
X155267D01*
Y-25000D01*
X155800Y-25533D01*
X153134D02*
X152601Y-25000D01*
X151534D01*
X151001Y-25533D01*
Y-26066D01*
X151534Y-26599D01*
X152068D01*
X151534D01*
X151001Y-27133D01*
Y-27666D01*
X151534Y-28199D01*
X152601D01*
X153134Y-27666D01*
X148999Y-28199D02*
Y-26066D01*
X147932Y-25000D01*
X146866Y-26066D01*
Y-28199D01*
Y-26599D01*
X148999D01*
X145800Y-28199D02*
X144733D01*
X145267D01*
Y-25000D01*
X145800Y-25533D01*
X141001Y-28199D02*
X143134D01*
X141001Y-26066D01*
Y-25533D01*
X141534Y-25000D01*
X142601D01*
X143134Y-25533D01*
X179265D02*
X178732Y-25000D01*
X177666D01*
X177133Y-25533D01*
Y-26066D01*
X177666Y-26599D01*
X178199D01*
X177666D01*
X177133Y-27133D01*
Y-27666D01*
X177666Y-28199D01*
X178732D01*
X179265Y-27666D01*
X176066Y-25000D02*
Y-27133D01*
X175000Y-28199D01*
X173934Y-27133D01*
Y-25000D01*
X172867Y-25533D02*
X172334Y-25000D01*
X171268D01*
X170735Y-25533D01*
Y-26066D01*
X171268Y-26599D01*
X171801D01*
X171268D01*
X170735Y-27133D01*
Y-27666D01*
X171268Y-28199D01*
X172334D01*
X172867Y-27666D01*
X179000Y-20301D02*
Y-22434D01*
X177934Y-23500D01*
X176867Y-22434D01*
Y-20301D01*
X175801Y-23500D02*
X174735D01*
X175268D01*
Y-20301D01*
X175801Y-20834D01*
X173135Y-23500D02*
Y-22967D01*
X172602D01*
Y-23500D01*
X173135D01*
X170469Y-20834D02*
X169936Y-20301D01*
X168870D01*
X168337Y-20834D01*
Y-22967D01*
X168870Y-23500D01*
X169936D01*
X170469Y-22967D01*
Y-20834D01*
X97666Y-28199D02*
Y-26066D01*
X96600Y-25000D01*
X95533Y-26066D01*
Y-28199D01*
Y-26599D01*
X97666D01*
X94467Y-25533D02*
X93934Y-25000D01*
X92867D01*
X92334Y-25533D01*
Y-26066D01*
X92867Y-26599D01*
X92334Y-27133D01*
Y-27666D01*
X92867Y-28199D01*
X93934D01*
X94467Y-27666D01*
Y-27133D01*
X93934Y-26599D01*
X94467Y-26066D01*
Y-25533D01*
X93934Y-26599D02*
X92867D01*
X37666Y-28199D02*
Y-26066D01*
X36599Y-25000D01*
X35533Y-26066D01*
Y-28199D01*
Y-26599D01*
X37666D01*
X32867Y-28199D02*
Y-25000D01*
X34467Y-26599D01*
X32334D01*
X125533Y-25533D02*
X126066Y-25000D01*
X127133D01*
X127666Y-25533D01*
Y-27666D01*
X127133Y-28199D01*
X126066D01*
X125533Y-27666D01*
X122334Y-25000D02*
X123400Y-25533D01*
X124467Y-26599D01*
Y-27666D01*
X123934Y-28199D01*
X122867D01*
X122334Y-27666D01*
Y-27133D01*
X122867Y-26599D01*
X124467D01*
X67666Y-28199D02*
Y-26066D01*
X66600Y-25000D01*
X65533Y-26066D01*
Y-28199D01*
Y-26599D01*
X67666D01*
X64467Y-25000D02*
X62334D01*
Y-25533D01*
X64467Y-27666D01*
Y-28199D01*
X168999D02*
Y-26066D01*
X167932Y-25000D01*
X166866Y-26066D01*
Y-28199D01*
Y-26599D01*
X168999D01*
X165800Y-28199D02*
X164733D01*
X165267D01*
Y-25000D01*
X165800Y-25533D01*
X161534Y-28199D02*
Y-25000D01*
X163134Y-26599D01*
X161001D01*
X57781Y-23500D02*
X59913D01*
X57781Y-21367D01*
Y-20834D01*
X58314Y-20301D01*
X59380D01*
X59913Y-20834D01*
X56714D02*
X56181Y-20301D01*
X55115D01*
X54582Y-20834D01*
Y-22967D01*
X55115Y-23500D01*
X56181D01*
X56714Y-22967D01*
Y-20834D01*
X51383Y-23500D02*
X53515D01*
X51383Y-21367D01*
Y-20834D01*
X51916Y-20301D01*
X52982D01*
X53515Y-20834D01*
X48184Y-23500D02*
X50316D01*
X48184Y-21367D01*
Y-20834D01*
X48717Y-20301D01*
X49783D01*
X50316Y-20834D01*
X47117Y-23500D02*
X44985Y-21367D01*
X43918Y-20834D02*
X43385Y-20301D01*
X42319D01*
X41786Y-20834D01*
Y-22967D01*
X42319Y-23500D01*
X43385D01*
X43918Y-22967D01*
Y-20834D01*
X39120Y-23500D02*
Y-20301D01*
X40719Y-21901D01*
X38587D01*
X58350Y23499D02*
X59417D01*
X59950Y22966D01*
Y20833D01*
X59417Y20300D01*
X58350D01*
X57817Y20833D01*
Y22966D01*
X58350Y23499D01*
X56751Y20300D02*
X55685D01*
X56218D01*
Y23499D01*
X56751D01*
X51953D02*
Y20300D01*
X53552D01*
X54085Y20833D01*
Y21900D01*
X53552Y22433D01*
X51953D01*
X48754Y22966D02*
X49287Y23499D01*
X50353D01*
X50886Y22966D01*
Y20833D01*
X50353Y20300D01*
X49287D01*
X48754Y20833D01*
Y21900D01*
X49820D01*
X46088Y20300D02*
X47154D01*
X47687Y20833D01*
Y21900D01*
X47154Y22433D01*
X46088D01*
X45555Y21900D01*
Y21366D01*
X47687D01*
X44488Y22433D02*
Y20300D01*
Y21366D01*
X43955Y21900D01*
X43422Y22433D01*
X42889D01*
X41289Y20300D02*
Y22433D01*
X40756D01*
X40223Y21900D01*
Y20300D01*
Y21900D01*
X39690Y22433D01*
X39157Y21900D01*
Y20300D01*
X37557Y22433D02*
X36491D01*
X35958Y21900D01*
Y20300D01*
X37557D01*
X38090Y20833D01*
X37557Y21366D01*
X35958D01*
X34891Y20300D02*
Y22433D01*
X33292D01*
X32759Y21900D01*
Y20300D01*
D13*
X166500Y-2002D02*
Y-8000D01*
X163501D01*
X162501Y-7000D01*
Y-3002D01*
X163501Y-2002D01*
X166500D01*
X160502D02*
X158503D01*
X159502D01*
Y-8000D01*
X160502D01*
X158503D01*
X152505Y-2002D02*
X154504D01*
X155504Y-3002D01*
Y-7000D01*
X154504Y-8000D01*
X152505D01*
X151505Y-7000D01*
Y-3002D01*
X152505Y-2002D01*
X167000Y-13002D02*
X166000Y-12002D01*
X164001D01*
X163001Y-13002D01*
Y-14001D01*
X164001Y-15001D01*
X165001D01*
X164001D01*
X163001Y-16001D01*
Y-17000D01*
X164001Y-18000D01*
X166000D01*
X167000Y-17000D01*
X161002Y-12002D02*
Y-16001D01*
X159003Y-18000D01*
X157003Y-16001D01*
Y-12002D01*
X155004Y-13002D02*
X154004Y-12002D01*
X152005D01*
X151005Y-13002D01*
Y-14001D01*
X152005Y-15001D01*
X153005D01*
X152005D01*
X151005Y-16001D01*
Y-17000D01*
X152005Y-18000D01*
X154004D01*
X155004Y-17000D01*
X163001Y16998D02*
X164001Y17998D01*
X166000D01*
X167000Y16998D01*
Y13000D01*
X166000Y12000D01*
X164001D01*
X163001Y13000D01*
Y14999D01*
X165001D01*
X161002Y12000D02*
Y17998D01*
X157003Y12000D01*
Y17998D01*
X155004D02*
Y12000D01*
X152005D01*
X151005Y13000D01*
Y16998D01*
X152005Y17998D01*
X155004D01*
X163001Y6998D02*
X164001Y7998D01*
X166000D01*
X167000Y6998D01*
Y5999D01*
X166000Y4999D01*
X164001D01*
X163001Y3999D01*
Y3000D01*
X164001Y2000D01*
X166000D01*
X167000Y3000D01*
X157003Y6998D02*
X158003Y7998D01*
X160002D01*
X161002Y6998D01*
Y3000D01*
X160002Y2000D01*
X158003D01*
X157003Y3000D01*
X155004Y7998D02*
Y2000D01*
Y3999D01*
X151005Y7998D01*
X154004Y4999D01*
X151005Y2000D01*
D15*
X60000Y32500D02*
X62500Y30000D01*
X160000Y37500D02*
X162500Y40000D01*
X160000Y32500D02*
X162500Y30000D01*
X140000Y32500D02*
X142500Y30000D01*
X107500Y40000D02*
X110000Y37500D01*
X97500Y40000D02*
X100000Y37500D01*
X92500Y40000D02*
X97500D01*
X102500Y30000D02*
X107500D01*
X92500D02*
X97500D01*
X37500Y40000D02*
X40000Y37500D01*
X32500Y30000D02*
X37500D01*
X30000Y32500D02*
X32500Y30000D01*
X170000Y37500D02*
X172500Y40000D01*
X32500D02*
X37500D01*
X150000Y32500D02*
X152500Y30000D01*
X142500D02*
X147500D01*
X30000Y37500D02*
X32500Y40000D01*
X30000Y32500D02*
Y37500D01*
X102500Y40000D02*
X107500D01*
X132500Y30000D02*
X137500D01*
X100000Y32500D02*
X102500Y30000D01*
X90000Y32500D02*
X92500Y30000D01*
X50000Y37500D02*
X52500Y40000D01*
X70000Y32500D02*
X72500Y30000D01*
X122500Y40000D02*
X127500D01*
X120000Y37500D02*
X122500Y40000D01*
X172500D02*
X177500D01*
X107500Y30000D02*
X110000Y32500D01*
X162500Y40000D02*
X167500D01*
X162500Y30000D02*
X167500D01*
X44100Y7400D02*
X46600Y-5600D01*
X162500Y-40000D02*
X167500D01*
X162500Y-30000D02*
X167500D01*
X172500D02*
X177500D01*
X170000Y32500D02*
X172500Y30000D01*
X140000Y37500D02*
X142500Y40000D01*
X120000Y32500D02*
X122500Y30000D01*
X127500D01*
X77500D02*
X80000Y32500D01*
X110000D02*
X112500Y30000D01*
X60000Y37500D02*
X62500Y40000D01*
X47500Y30000D02*
X50000Y32500D01*
X42500Y30000D02*
X47500D01*
X40000Y32500D02*
X42500Y30000D01*
X152500Y40000D02*
X157500D01*
X130000Y32500D02*
X132500Y30000D01*
X72500D02*
X77500D01*
X52500D02*
X57500D01*
X147500D02*
X150000Y32500D01*
X62500Y30000D02*
X67500D01*
X100000Y37500D02*
X102500Y40000D01*
X90000Y37500D02*
X92500Y40000D01*
X80000Y32500D02*
X82500Y30000D01*
X147500Y40000D02*
X150000Y37500D01*
X47500Y40000D02*
X50000Y37500D01*
X152500Y30000D02*
X157500D01*
X57500D02*
X60000Y32500D01*
X82500Y30000D02*
X87500D01*
X157500Y40000D02*
X160000Y37500D01*
X142500Y40000D02*
X147500D01*
X72500D02*
X77500D01*
X87500Y30000D02*
X90000Y32500D01*
X50000D02*
X52500Y30000D01*
X117500D02*
X120000Y32500D01*
X77500Y40000D02*
X80000Y37500D01*
X87500Y40000D02*
X90000Y37500D01*
X157500Y30000D02*
X160000Y32500D01*
X130000Y37500D02*
X132500Y40000D01*
X82500D02*
X87500D01*
X70000Y37500D02*
X72500Y40000D01*
X112500Y30000D02*
X117500D01*
X132500Y40000D02*
X137500D01*
X167500D02*
X170000Y37500D01*
X40000D02*
X42500Y40000D01*
X112500D02*
X117500D01*
X110000Y37500D02*
X112500Y40000D01*
X57500D02*
X60000Y37500D01*
X97500Y30000D02*
X100000Y32500D01*
X180000D02*
Y37500D01*
X167500Y30000D02*
X170000Y32500D01*
X37500Y30000D02*
X40000Y32500D01*
X52500Y40000D02*
X57500D01*
X127500D02*
X130000Y37500D01*
X150000D02*
X152500Y40000D01*
X127500Y30000D02*
X130000Y32500D01*
X137500Y40000D02*
X140000Y37500D01*
X177500Y30000D02*
X180000Y32500D01*
X172500Y30000D02*
X177500D01*
Y40000D02*
X180000Y37500D01*
X117500Y40000D02*
X120000Y37500D01*
X137500Y30000D02*
X140000Y32500D01*
X67500Y30000D02*
X70000Y32500D01*
X62500Y40000D02*
X67500D01*
X70000Y37500D01*
X80000D02*
X82500Y40000D01*
X42500D02*
X47500D01*
X41500Y-4500D02*
X45500Y-4800D01*
X41500Y-4500D02*
X45100Y-900D01*
X40100Y-5600D02*
X42000Y-1200D01*
X45500Y-4800D01*
X41800Y-600D02*
X45100Y-900D01*
X41800Y-600D02*
X44100Y7400D01*
X32500Y-40000D02*
X37500D01*
Y-30000D02*
X40000Y-32500D01*
X92500Y-40000D02*
X97500D01*
X102500D02*
X107500D01*
X92500Y-30000D02*
X97500D01*
X100000Y-32500D01*
X107500Y-30000D02*
X110000Y-32500D01*
X140000Y-37500D02*
X142500Y-40000D01*
X160000Y-37500D02*
X162500Y-40000D01*
X160000Y-32500D02*
X162500Y-30000D01*
X170000Y-32500D02*
X172500Y-30000D01*
X30000Y-37500D02*
X32500Y-40000D01*
X30000Y-32500D02*
X32500Y-30000D01*
X37500D01*
X70000Y-37500D02*
X72500Y-40000D01*
X50000Y-32500D02*
X52500Y-30000D01*
X90000Y-37500D02*
X92500Y-40000D01*
X100000Y-37500D02*
X102500Y-40000D01*
X132500D02*
X137500D01*
X102500Y-30000D02*
X107500D01*
X142500Y-40000D02*
X147500D01*
X150000Y-37500D02*
X152500Y-40000D01*
X30000Y-37500D02*
Y-32500D01*
X60000Y-37500D02*
X62500Y-40000D01*
X67500D01*
X72500D02*
X77500D01*
X80000Y-37500D02*
X82500Y-40000D01*
X90000Y-32500D02*
X92500Y-30000D01*
X130000Y-37500D02*
X132500Y-40000D01*
X100000Y-32500D02*
X102500Y-30000D01*
X147500Y-40000D02*
X150000Y-37500D01*
X152500Y-40000D02*
X157500D01*
X147500Y-30000D02*
X150000Y-32500D01*
X40000Y-37500D02*
X42500Y-40000D01*
X77500D02*
X80000Y-37500D01*
X82500Y-40000D02*
X87500D01*
X60000Y-32500D02*
X62500Y-30000D01*
X110000Y-37500D02*
X112500Y-40000D01*
X117500D01*
X157500D02*
X160000Y-37500D01*
X130000Y-32500D02*
X132500Y-30000D01*
X142500D02*
X147500D01*
X157500D02*
X160000Y-32500D01*
X42500Y-40000D02*
X47500D01*
X50000Y-37500D01*
X52500Y-40000D01*
X87500D02*
X90000Y-37500D01*
X72500Y-30000D02*
X77500D01*
X80000Y-32500D01*
X117500Y-40000D02*
X120000Y-37500D01*
X122500Y-40000D01*
X127500D01*
X170000Y-37500D02*
X172500Y-40000D01*
X140000Y-32500D02*
X142500Y-30000D01*
X152500D02*
X157500D01*
X52500Y-40000D02*
X57500D01*
X60000Y-37500D01*
X47500Y-30000D02*
X50000Y-32500D01*
X70000D02*
X72500Y-30000D01*
X82500D02*
X87500D01*
X90000Y-32500D01*
X127500Y-40000D02*
X130000Y-37500D01*
X137500Y-40000D02*
X140000Y-37500D01*
X117500Y-30000D02*
X120000Y-32500D01*
X137500Y-30000D02*
X140000Y-32500D01*
X172500Y-40000D02*
X177500D01*
X180000Y-37500D01*
X150000Y-32500D02*
X152500Y-30000D01*
X67500Y-40000D02*
X70000Y-37500D01*
X42500Y-30000D02*
X47500D01*
X57500D02*
X60000Y-32500D01*
X80000D02*
X82500Y-30000D01*
X110000Y-32500D02*
X112500Y-30000D01*
X117500D01*
X127500D02*
X130000Y-32500D01*
X132500Y-30000D02*
X137500D01*
X167500Y-40000D02*
X170000Y-37500D01*
X167500Y-30000D02*
X170000Y-32500D01*
X177500Y-30000D02*
X180000Y-32500D01*
Y-37500D02*
Y-32500D01*
X37500Y-40000D02*
X40000Y-37500D01*
Y-32500D02*
X42500Y-30000D01*
X52500D02*
X57500D01*
X62500D02*
X67500D01*
X97500Y-40000D02*
X100000Y-37500D01*
X67500Y-30000D02*
X70000Y-32500D01*
X107500Y-40000D02*
X110000Y-37500D01*
X120000Y-32500D02*
X122500Y-30000D01*
X127500D01*
D17*
X121267Y-7201D02*
X122334D01*
X121800D01*
Y-9867D01*
X122334Y-10400D01*
X122867D01*
X123400Y-9867D01*
X120201Y-7201D02*
Y-10400D01*
X118068D01*
X114869Y-7734D02*
X115403Y-7201D01*
X116469D01*
X117002Y-7734D01*
Y-9867D01*
X116469Y-10400D01*
X115403D01*
X114869Y-9867D01*
X111670Y-7201D02*
X112737D01*
X112204D01*
Y-9867D01*
X112737Y-10400D01*
X113270D01*
X113803Y-9867D01*
X110604Y-7201D02*
Y-10400D01*
X108472D01*
X105272Y-7734D02*
X105806Y-7201D01*
X106872D01*
X107405Y-7734D01*
Y-9867D01*
X106872Y-10400D01*
X105806D01*
X105272Y-9867D01*
X102074Y-7201D02*
X103140D01*
X102607D01*
Y-9867D01*
X103140Y-10400D01*
X103673D01*
X104206Y-9867D01*
X101007Y-7201D02*
Y-10400D01*
X98875D01*
X95676Y-7734D02*
X96209Y-7201D01*
X97275D01*
X97808Y-7734D01*
Y-9867D01*
X97275Y-10400D01*
X96209D01*
X95676Y-9867D01*
X92477Y-7201D02*
X93543D01*
X93010D01*
Y-9867D01*
X93543Y-10400D01*
X94076D01*
X94609Y-9867D01*
X91410Y-7201D02*
Y-10400D01*
X89278D01*
X86079Y-7734D02*
X86612Y-7201D01*
X87678D01*
X88211Y-7734D01*
Y-9867D01*
X87678Y-10400D01*
X86612D01*
X86079Y-9867D01*
M02*
